G04*
G04 #@! TF.GenerationSoftware,Altium Limited,Altium Designer,22.9.1 (49)*
G04*
G04 Layer_Color=32896*
%FSLAX25Y25*%
%MOIN*%
G70*
G04*
G04 #@! TF.SameCoordinates,3C18945F-2A23-418A-B3D5-6108012D2850*
G04*
G04*
G04 #@! TF.FilePolarity,Positive*
G04*
G01*
G75*
%ADD13C,0.00591*%
%ADD14C,0.00602*%
G36*
X63223Y56202D02*
X63299Y56194D01*
X63391Y56169D01*
X63500Y56135D01*
X63617Y56077D01*
X63726Y56001D01*
X63835Y55892D01*
X63843Y55875D01*
X63877Y55834D01*
X63919Y55758D01*
X63961Y55658D01*
X64011Y55524D01*
X64053Y55364D01*
X64086Y55180D01*
X64095Y54962D01*
Y54954D01*
Y54928D01*
Y54895D01*
X64086Y54845D01*
Y54786D01*
X64078Y54719D01*
X64061Y54568D01*
X64028Y54392D01*
X63977Y54216D01*
X63910Y54057D01*
X63868Y53982D01*
X63818Y53914D01*
X63801Y53898D01*
X63768Y53864D01*
X63709Y53806D01*
X63625Y53747D01*
X63533Y53688D01*
X63416Y53630D01*
X63282Y53596D01*
X63139Y53579D01*
X63123D01*
X63072Y53588D01*
X63005Y53596D01*
X62913Y53621D01*
X62813Y53655D01*
X62704Y53713D01*
X62595Y53789D01*
X62494Y53889D01*
X62486Y53906D01*
X62452Y53948D01*
X62410Y54023D01*
X62360Y54132D01*
X62343Y54199D01*
X62318Y54275D01*
X62293Y54359D01*
X62276Y54451D01*
X62259Y54551D01*
X62243Y54660D01*
X62234Y54778D01*
Y54903D01*
Y54912D01*
Y54937D01*
Y54970D01*
Y55012D01*
X62243Y55071D01*
X62251Y55130D01*
X62268Y55272D01*
X62301Y55431D01*
X62343Y55599D01*
X62410Y55750D01*
X62502Y55884D01*
X62511Y55901D01*
X62553Y55934D01*
X62611Y55984D01*
X62687Y56051D01*
X62779Y56110D01*
X62888Y56160D01*
X63014Y56194D01*
X63156Y56211D01*
X63173D01*
X63223Y56202D01*
D02*
G37*
G36*
X152559Y51183D02*
X65192D01*
Y56998D01*
X64153D01*
Y56378D01*
X64145Y56395D01*
X64120Y56428D01*
X64069Y56487D01*
X64011Y56563D01*
X63935Y56646D01*
X63835Y56730D01*
X63734Y56814D01*
X63609Y56889D01*
X63592Y56898D01*
X63550Y56923D01*
X63475Y56956D01*
X63382Y56990D01*
X63273Y57024D01*
X63139Y57057D01*
X62997Y57082D01*
X62846Y57091D01*
X65192D01*
X62779D01*
X62720Y57082D01*
X62662Y57074D01*
X62586Y57057D01*
X62502Y57040D01*
X62419Y57015D01*
X62318Y56990D01*
X62226Y56948D01*
X62117Y56906D01*
X62016Y56848D01*
X61908Y56780D01*
X61807Y56705D01*
X61706Y56613D01*
X61606Y56512D01*
X61597Y56504D01*
X61581Y56487D01*
X61555Y56454D01*
X61522Y56403D01*
X61488Y56353D01*
X61447Y56278D01*
X61396Y56194D01*
X61346Y56102D01*
X61304Y55993D01*
X61254Y55875D01*
X61212Y55741D01*
X61170Y55599D01*
X61145Y55440D01*
X61120Y55280D01*
X61103Y55096D01*
X61095Y54912D01*
Y54811D01*
X61103Y54736D01*
X61111Y54652D01*
X61120Y54551D01*
X61137Y54434D01*
X61162Y54317D01*
X61220Y54049D01*
X61262Y53914D01*
X61313Y53780D01*
X61371Y53646D01*
X61447Y53521D01*
X61522Y53395D01*
X61614Y53278D01*
X61623Y53269D01*
X61639Y53253D01*
X61664Y53227D01*
X61706Y53185D01*
X61757Y53144D01*
X61815Y53093D01*
X61882Y53043D01*
X61958Y52993D01*
X62050Y52934D01*
X62142Y52884D01*
X62352Y52792D01*
X62469Y52750D01*
X62595Y52724D01*
X62720Y52708D01*
X62854Y52699D01*
X62913D01*
X62980Y52708D01*
X63064Y52716D01*
X63165Y52733D01*
X63273Y52758D01*
X63382Y52792D01*
X63491Y52833D01*
X63500Y52842D01*
X63542Y52859D01*
X63592Y52900D01*
X63667Y52951D01*
X63759Y53009D01*
X63852Y53093D01*
X63961Y53194D01*
X64078Y53311D01*
Y51183D01*
X152559D01*
Y44081D01*
D01*
Y36905D01*
Y22638D01*
X12008D01*
Y36905D01*
Y44081D01*
D01*
Y51183D01*
X61095D01*
D01*
X12008D01*
Y65798D01*
X152559D01*
Y51183D01*
D02*
G37*
%LPC*%
G36*
X50754Y58591D02*
X49639D01*
Y57560D01*
X50754D01*
Y58591D01*
D02*
G37*
G36*
X83645Y57091D02*
X81709D01*
X83578D01*
X83503Y57082D01*
X83411Y57074D01*
X83302Y57049D01*
X83184Y57024D01*
X83067Y56982D01*
X82950Y56923D01*
X82933Y56915D01*
X82899Y56889D01*
X82841Y56856D01*
X82774Y56797D01*
X82698Y56722D01*
X82614Y56638D01*
X82531Y56529D01*
X82455Y56412D01*
X82438Y56428D01*
X82405Y56470D01*
X82355Y56529D01*
X82279Y56604D01*
X82187Y56688D01*
X82086Y56772D01*
X81978Y56856D01*
X81860Y56923D01*
X81844Y56931D01*
X81802Y56948D01*
X81735Y56973D01*
X81651Y57007D01*
X81550Y57040D01*
X81433Y57065D01*
X81307Y57082D01*
X81173Y57091D01*
X81709D01*
X81173D01*
D01*
X81098D01*
X81014Y57082D01*
X80905Y57065D01*
X80779Y57040D01*
X80654Y57007D01*
X80519Y56965D01*
X80394Y56898D01*
X80377Y56889D01*
X80344Y56864D01*
X80285Y56822D01*
X80209Y56764D01*
X80134Y56680D01*
X80050Y56588D01*
X79975Y56479D01*
X79908Y56345D01*
X79899Y56336D01*
X79891Y56294D01*
X79874Y56227D01*
X79849Y56135D01*
X79824Y56018D01*
X79807Y55867D01*
X79799Y55683D01*
X79790Y55473D01*
Y57091D01*
Y52792D01*
X80905D01*
Y55188D01*
Y55197D01*
Y55213D01*
Y55247D01*
Y55289D01*
X80913Y55398D01*
X80922Y55524D01*
X80930Y55658D01*
X80955Y55792D01*
X80980Y55909D01*
X81006Y55951D01*
X81022Y55993D01*
X81031Y56001D01*
X81056Y56035D01*
X81089Y56068D01*
X81140Y56118D01*
X81207Y56160D01*
X81290Y56202D01*
X81391Y56227D01*
X81500Y56236D01*
X81542D01*
X81584Y56227D01*
X81642Y56219D01*
X81709Y56202D01*
X81785Y56177D01*
X81869Y56144D01*
X81944Y56093D01*
X81952Y56085D01*
X81978Y56068D01*
X82011Y56035D01*
X82053Y55984D01*
X82103Y55926D01*
X82153Y55859D01*
X82196Y55775D01*
X82237Y55674D01*
Y55658D01*
X82254Y55624D01*
X82262Y55557D01*
X82279Y55465D01*
X82296Y55339D01*
X82304Y55188D01*
X82321Y55012D01*
Y54803D01*
Y52792D01*
X81488D01*
X85975D01*
Y56998D01*
X84952D01*
Y56420D01*
X84944Y56428D01*
X84927Y56445D01*
X84894Y56479D01*
X84852Y56529D01*
X84802Y56579D01*
X84743Y56630D01*
X84668Y56697D01*
X84584Y56755D01*
X84492Y56814D01*
X84391Y56881D01*
X84173Y56990D01*
X84047Y57032D01*
X83922Y57065D01*
X83788Y57082D01*
X83645Y57091D01*
D02*
G37*
G36*
X53905Y56102D02*
D01*
D01*
D01*
D02*
G37*
G36*
Y56068D02*
Y56068D01*
D01*
Y56068D01*
D02*
G37*
G36*
Y55984D02*
D01*
D01*
D01*
D02*
G37*
G36*
Y55976D02*
D01*
D01*
D01*
D02*
G37*
G36*
X104360Y55842D02*
Y55834D01*
D01*
Y55842D01*
D02*
G37*
G36*
X53905Y55792D02*
D01*
D01*
D01*
D02*
G37*
G36*
Y55741D02*
D01*
D01*
D01*
D02*
G37*
G36*
Y55716D02*
D01*
D01*
D01*
D02*
G37*
G36*
X56469Y57091D02*
X54307D01*
X56192D01*
X56134Y57082D01*
X56067D01*
X55899Y57065D01*
X55723Y57049D01*
X55539Y57015D01*
X55363Y56965D01*
X55287Y56940D01*
X55212Y56906D01*
X55203D01*
X55195Y56898D01*
X55153Y56873D01*
X55086Y56839D01*
X55011Y56789D01*
X54919Y56722D01*
X54835Y56646D01*
X54759Y56554D01*
X54692Y56462D01*
X54684Y56445D01*
X54667Y56412D01*
X54642Y56336D01*
X54634Y56294D01*
X54617Y56236D01*
X54600Y56177D01*
X54592Y56102D01*
X54575Y56018D01*
X54567Y55926D01*
X54558Y55825D01*
X54550Y55716D01*
X54541Y55599D01*
Y55465D01*
X54558Y54166D01*
Y54158D01*
Y54141D01*
Y54116D01*
Y54074D01*
Y53973D01*
X54550Y53856D01*
Y53722D01*
X54533Y53588D01*
X54525Y53454D01*
X54508Y53345D01*
Y53336D01*
X54500Y53303D01*
X54483Y53244D01*
X54466Y53177D01*
X54432Y53093D01*
X54399Y53001D01*
X54357Y52900D01*
X54307Y52792D01*
X55405D01*
Y52800D01*
X55413Y52808D01*
X55421Y52842D01*
X55438Y52875D01*
X55455Y52917D01*
X55472Y52976D01*
X55488Y53043D01*
X55514Y53118D01*
Y53127D01*
X55522Y53135D01*
X55530Y53169D01*
X55547Y53211D01*
X55555Y53244D01*
X55572Y53236D01*
X55606Y53202D01*
X55664Y53152D01*
X55740Y53093D01*
X55832Y53026D01*
X55932Y52951D01*
X56050Y52892D01*
X56167Y52833D01*
X56184Y52825D01*
X56226Y52817D01*
X56293Y52792D01*
X56377Y52766D01*
X56477Y52741D01*
X56595Y52724D01*
X56729Y52708D01*
X56863Y52699D01*
X54307D01*
X58254D01*
X56921D01*
X56972Y52708D01*
X57022D01*
X57089Y52716D01*
X57231Y52741D01*
X57399Y52783D01*
X57567Y52842D01*
X57734Y52926D01*
X57885Y53043D01*
Y53051D01*
X57902Y53060D01*
X57944Y53110D01*
X58002Y53185D01*
X58069Y53286D01*
X58136Y53412D01*
X58195Y53562D01*
X58237Y53738D01*
X58245Y53831D01*
X58254Y53931D01*
Y53990D01*
X58245Y54057D01*
X58229Y54141D01*
X58212Y54241D01*
X58187Y54342D01*
X58145Y54451D01*
X58086Y54560D01*
X58078Y54576D01*
X58053Y54610D01*
X58019Y54660D01*
X57960Y54719D01*
X57902Y54786D01*
X57818Y54861D01*
X57726Y54928D01*
X57617Y54987D01*
X57600Y54996D01*
X57558Y55012D01*
X57491Y55037D01*
X57391Y55079D01*
X57265Y55121D01*
X57114Y55163D01*
X56930Y55205D01*
X56729Y55247D01*
X56720D01*
X56695Y55255D01*
X56653Y55264D01*
X56603Y55272D01*
X56536Y55280D01*
X56460Y55297D01*
X56293Y55339D01*
X56117Y55381D01*
X55932Y55423D01*
X55773Y55473D01*
X55698Y55498D01*
X55639Y55524D01*
Y55632D01*
Y55649D01*
Y55683D01*
X55648Y55741D01*
X55656Y55817D01*
X55681Y55892D01*
X55706Y55968D01*
X55748Y56035D01*
X55807Y56093D01*
X55815Y56102D01*
X55840Y56118D01*
X55882Y56135D01*
X55941Y56169D01*
X56025Y56194D01*
X56125Y56211D01*
X56251Y56227D01*
X56402Y56236D01*
X56452D01*
X56502Y56227D01*
X56569Y56219D01*
X56645Y56202D01*
X56729Y56186D01*
X56804Y56152D01*
X56871Y56110D01*
X56880Y56102D01*
X56896Y56085D01*
X56930Y56060D01*
X56963Y56018D01*
X57013Y55959D01*
X57055Y55884D01*
X57097Y55800D01*
X57139Y55699D01*
X58136Y55884D01*
Y55892D01*
X58128Y55909D01*
X58120Y55942D01*
X58103Y55984D01*
X58086Y56035D01*
X58061Y56093D01*
X58002Y56227D01*
X57919Y56370D01*
X57818Y56521D01*
X57701Y56663D01*
X57558Y56789D01*
X57550D01*
X57542Y56806D01*
X57516Y56814D01*
X57483Y56839D01*
X57433Y56856D01*
X57382Y56881D01*
X57315Y56915D01*
X57248Y56940D01*
X57164Y56965D01*
X57072Y56998D01*
X56972Y57024D01*
X56854Y57040D01*
X56737Y57065D01*
X56603Y57074D01*
X56469Y57091D01*
D02*
G37*
G36*
X53905Y55373D02*
D01*
D01*
D01*
D02*
G37*
G36*
Y55348D02*
D01*
D01*
D01*
D02*
G37*
G36*
Y55331D02*
Y55331D01*
D01*
Y55331D01*
D02*
G37*
G36*
Y55272D02*
D01*
D01*
D01*
D02*
G37*
G36*
Y55247D02*
D01*
D01*
D01*
D02*
G37*
G36*
Y55213D02*
Y55205D01*
D01*
Y55213D01*
D02*
G37*
G36*
X104360Y54828D02*
D01*
D01*
D01*
D02*
G37*
G36*
X53905Y54820D02*
Y54811D01*
D01*
Y54820D01*
D02*
G37*
G36*
Y54761D02*
D01*
D01*
D01*
D02*
G37*
G36*
X109606Y58700D02*
X104888D01*
X107176D01*
X107101Y58691D01*
X107009Y58683D01*
X106900Y58674D01*
X106791Y58658D01*
X106665Y58641D01*
X106397Y58582D01*
X106263Y58540D01*
X106129Y58498D01*
X105995Y58440D01*
X105869Y58373D01*
X105752Y58297D01*
X105643Y58213D01*
X105634Y58205D01*
X105618Y58188D01*
X105592Y58163D01*
X105559Y58130D01*
X105517Y58079D01*
X105467Y58021D01*
X105416Y57954D01*
X105358Y57878D01*
X105307Y57786D01*
X105257Y57694D01*
X105207Y57585D01*
X105165Y57468D01*
X105123Y57350D01*
X105090Y57216D01*
X105064Y57082D01*
X105056Y56931D01*
X106229Y56889D01*
Y56898D01*
Y56906D01*
X106246Y56965D01*
X106263Y57040D01*
X106296Y57132D01*
X106338Y57241D01*
X106397Y57342D01*
X106472Y57442D01*
X106556Y57526D01*
X106564Y57535D01*
X106598Y57560D01*
X106657Y57593D01*
X106740Y57627D01*
X106841Y57660D01*
X106967Y57694D01*
X107118Y57719D01*
X107294Y57727D01*
X107377D01*
X107469Y57719D01*
X107579Y57702D01*
X107704Y57677D01*
X107838Y57635D01*
X107964Y57585D01*
X108081Y57509D01*
X108090Y57501D01*
X108106Y57484D01*
X108140Y57459D01*
X108174Y57417D01*
X108207Y57367D01*
X108240Y57300D01*
X108257Y57233D01*
X108266Y57149D01*
Y57141D01*
Y57116D01*
X108257Y57074D01*
X108240Y57032D01*
X108224Y56973D01*
X108199Y56915D01*
X108157Y56856D01*
X108098Y56797D01*
X108090Y56789D01*
X108048Y56764D01*
X108023Y56747D01*
X107981Y56730D01*
X107939Y56705D01*
X107880Y56680D01*
X107813Y56655D01*
X107738Y56621D01*
X107645Y56588D01*
X107553Y56554D01*
X107436Y56521D01*
X107310Y56487D01*
X107176Y56454D01*
X107025Y56412D01*
X107017D01*
X106983Y56403D01*
X106942Y56395D01*
X106883Y56378D01*
X106816Y56362D01*
X106732Y56336D01*
X106640Y56311D01*
X106548Y56286D01*
X106347Y56219D01*
X106137Y56152D01*
X105936Y56077D01*
X105852Y56035D01*
X105768Y55993D01*
X105760D01*
X105752Y55984D01*
X105701Y55951D01*
X105626Y55901D01*
X105534Y55834D01*
X105433Y55750D01*
X105324Y55649D01*
X105215Y55532D01*
X105123Y55398D01*
X105115Y55381D01*
X105090Y55331D01*
X105048Y55255D01*
X105006Y55146D01*
X104964Y55012D01*
X104922Y54853D01*
X104897Y54677D01*
X104888Y54476D01*
Y54484D01*
Y54392D01*
X104897Y54350D01*
X104905Y54292D01*
X104922Y54174D01*
X104955Y54023D01*
X105006Y53864D01*
X105081Y53705D01*
X105173Y53537D01*
Y53529D01*
X105190Y53521D01*
X105224Y53470D01*
X105291Y53387D01*
X105375Y53294D01*
X105483Y53185D01*
X105626Y53085D01*
X105777Y52984D01*
X105961Y52892D01*
X105970D01*
X105986Y52884D01*
X106011Y52875D01*
X106053Y52859D01*
X106104Y52842D01*
X106162Y52825D01*
X106229Y52808D01*
X106305Y52792D01*
X106397Y52766D01*
X106489Y52750D01*
X106707Y52716D01*
X106950Y52691D01*
X107218Y52683D01*
X107327D01*
X107403Y52691D01*
X107495Y52699D01*
X107595Y52708D01*
X107713Y52724D01*
X107838Y52750D01*
X108115Y52808D01*
X108257Y52850D01*
X108391Y52892D01*
X108534Y52951D01*
X108668Y53018D01*
X108794Y53093D01*
X108911Y53185D01*
X108919Y53194D01*
X108936Y53211D01*
X108970Y53236D01*
X109003Y53278D01*
X109053Y53336D01*
X109104Y53403D01*
X109162Y53479D01*
X109221Y53562D01*
X109280Y53663D01*
X109338Y53772D01*
X109397Y53898D01*
X109456Y54032D01*
X109497Y54174D01*
X109548Y54334D01*
X109581Y54501D01*
X109606Y54677D01*
X108467Y54786D01*
Y54778D01*
X108458Y54761D01*
Y54727D01*
X108450Y54694D01*
X108416Y54593D01*
X108375Y54468D01*
X108324Y54325D01*
X108249Y54183D01*
X108165Y54057D01*
X108056Y53940D01*
X108039Y53931D01*
X107998Y53898D01*
X107930Y53856D01*
X107830Y53806D01*
X107704Y53755D01*
X107562Y53713D01*
X107394Y53680D01*
X107201Y53671D01*
X107109D01*
X107009Y53688D01*
X106883Y53705D01*
X106749Y53730D01*
X106606Y53772D01*
X106472Y53831D01*
X106355Y53906D01*
X106338Y53914D01*
X106305Y53948D01*
X106263Y53998D01*
X106204Y54065D01*
X106154Y54149D01*
X106104Y54250D01*
X106070Y54350D01*
X106062Y54468D01*
Y54476D01*
Y54501D01*
X106070Y54543D01*
X106078Y54593D01*
X106095Y54644D01*
X106112Y54702D01*
X106146Y54761D01*
X106187Y54820D01*
X106196Y54828D01*
X106212Y54845D01*
X106238Y54870D01*
X106280Y54903D01*
X106338Y54945D01*
X106414Y54987D01*
X106498Y55029D01*
X106606Y55071D01*
X106615D01*
X106648Y55088D01*
X106707Y55105D01*
X106749Y55121D01*
X106799Y55130D01*
X106858Y55146D01*
X106925Y55172D01*
X107000Y55188D01*
X107084Y55213D01*
X107185Y55238D01*
X107294Y55264D01*
X107411Y55297D01*
X107545Y55331D01*
X107553D01*
X107587Y55339D01*
X107637Y55356D01*
X107696Y55373D01*
X107771Y55398D01*
X107863Y55423D01*
X107956Y55456D01*
X108064Y55490D01*
X108282Y55574D01*
X108492Y55674D01*
X108601Y55725D01*
X108693Y55783D01*
X108785Y55842D01*
X108861Y55901D01*
X108869Y55909D01*
X108886Y55926D01*
X108911Y55951D01*
X108944Y55984D01*
X108986Y56035D01*
X109028Y56093D01*
X109079Y56152D01*
X109120Y56227D01*
X109221Y56403D01*
X109305Y56604D01*
X109338Y56713D01*
X109363Y56822D01*
X109380Y56948D01*
X109389Y57074D01*
Y57082D01*
Y57091D01*
Y57116D01*
Y57149D01*
X109372Y57233D01*
X109355Y57342D01*
X109330Y57468D01*
X109288Y57610D01*
X109229Y57761D01*
X109145Y57903D01*
Y57912D01*
X109137Y57920D01*
X109095Y57970D01*
X109045Y58038D01*
X108961Y58121D01*
X108861Y58213D01*
X108735Y58314D01*
X108592Y58406D01*
X108425Y58490D01*
X108416D01*
X108400Y58498D01*
X108375Y58507D01*
X108341Y58523D01*
X108291Y58540D01*
X108240Y58557D01*
X108174Y58574D01*
X108098Y58599D01*
X107930Y58632D01*
X107738Y58666D01*
X107520Y58691D01*
X107277Y58700D01*
X109606D01*
D01*
D02*
G37*
G36*
X53905Y54342D02*
D01*
D01*
D01*
D02*
G37*
G36*
X66139Y53931D02*
Y53923D01*
D01*
Y53931D01*
D02*
G37*
G36*
X70648Y53906D02*
D01*
D01*
D01*
D02*
G37*
G36*
X124623Y58591D02*
X123450Y58591D01*
Y55440D01*
Y55431D01*
Y55406D01*
Y55373D01*
Y55322D01*
Y55255D01*
Y55188D01*
X123442Y55037D01*
Y54870D01*
X123433Y54711D01*
X123425Y54635D01*
Y54568D01*
X123417Y54518D01*
X123408Y54468D01*
Y54451D01*
X123391Y54409D01*
X123366Y54342D01*
X123333Y54258D01*
X123291Y54166D01*
X123224Y54074D01*
X123149Y53973D01*
X123056Y53889D01*
X123040Y53881D01*
X123006Y53856D01*
X122939Y53822D01*
X122855Y53789D01*
X122738Y53747D01*
X122604Y53713D01*
X122453Y53688D01*
X122277Y53680D01*
X122193D01*
X122109Y53688D01*
X122001Y53705D01*
X121875Y53730D01*
X121757Y53764D01*
X121632Y53814D01*
X121531Y53881D01*
X121523Y53889D01*
X121489Y53914D01*
X121447Y53956D01*
X121397Y54015D01*
X121347Y54090D01*
X121297Y54174D01*
X121255Y54267D01*
X121230Y54375D01*
Y54392D01*
X121221Y54434D01*
X121213Y54510D01*
X121196Y54610D01*
Y54677D01*
X121188Y54752D01*
Y54836D01*
X121179Y54920D01*
Y55021D01*
X121171Y55130D01*
Y55247D01*
Y55373D01*
Y58591D01*
X119998D01*
Y52683D01*
Y55280D01*
X120006Y55180D01*
Y55071D01*
Y54962D01*
X120023Y54719D01*
X120039Y54468D01*
X120048Y54359D01*
X120065Y54250D01*
X120081Y54149D01*
X120098Y54057D01*
Y54049D01*
X120107Y54040D01*
Y54015D01*
X120115Y53990D01*
X120140Y53906D01*
X120174Y53806D01*
X120224Y53688D01*
X120282Y53571D01*
X120358Y53445D01*
X120450Y53328D01*
X120458Y53311D01*
X120492Y53278D01*
X120551Y53227D01*
X120626Y53160D01*
X120727Y53085D01*
X120844Y53009D01*
X120978Y52926D01*
X121129Y52859D01*
X121137D01*
X121146Y52850D01*
X121171Y52842D01*
X121204Y52833D01*
X121246Y52817D01*
X121297Y52800D01*
X121364Y52783D01*
X121431Y52775D01*
X121590Y52741D01*
X121783Y52708D01*
X122001Y52691D01*
X122243Y52683D01*
X119998D01*
X122378D01*
X122453Y52691D01*
X122528D01*
X122621Y52699D01*
X122713Y52708D01*
X122914Y52724D01*
X123123Y52758D01*
X123333Y52808D01*
X123425Y52833D01*
X123509Y52867D01*
X123517D01*
X123526Y52875D01*
X123576Y52900D01*
X123660Y52942D01*
X123752Y53001D01*
X123861Y53076D01*
X123978Y53160D01*
X124087Y53261D01*
X124188Y53370D01*
X124196Y53387D01*
X124230Y53420D01*
X124271Y53487D01*
X124322Y53571D01*
X124372Y53663D01*
X124431Y53772D01*
X124473Y53889D01*
X124514Y54015D01*
Y54023D01*
X124523Y54040D01*
Y54065D01*
X124531Y54107D01*
X124540Y54158D01*
X124548Y54225D01*
X124556Y54300D01*
X124565Y54384D01*
X124582Y54484D01*
X124590Y54593D01*
X124598Y54711D01*
X124607Y54845D01*
X124615Y54987D01*
Y55146D01*
X124623Y55314D01*
Y58591D01*
D02*
G37*
G36*
X70648Y53663D02*
D01*
D01*
D01*
D02*
G37*
G36*
X66139D02*
D01*
D01*
D01*
D02*
G37*
G36*
X104360Y58490D02*
X101880D01*
D01*
X102735D01*
Y56998D01*
X101972D01*
Y56110D01*
X102735D01*
Y54409D01*
Y54400D01*
Y54384D01*
Y54359D01*
Y54325D01*
Y54241D01*
Y54141D01*
X102726Y54040D01*
Y53940D01*
Y53864D01*
X102718Y53831D01*
Y53814D01*
X102710Y53797D01*
X102693Y53764D01*
X102668Y53722D01*
X102618Y53671D01*
X102601Y53663D01*
X102567Y53646D01*
X102509Y53630D01*
X102433Y53621D01*
X102400D01*
X102366Y53630D01*
X102316Y53638D01*
X102249Y53646D01*
X102173Y53663D01*
X102081Y53688D01*
X101981Y53722D01*
X101880Y52859D01*
X101889D01*
X101897Y52850D01*
X101947Y52833D01*
X102031Y52808D01*
X102140Y52783D01*
X102266Y52750D01*
X102416Y52724D01*
X102584Y52708D01*
X102760Y52699D01*
X102751D01*
X104360D01*
X102810D01*
X102869Y52708D01*
X102944Y52716D01*
X103028Y52724D01*
X103120Y52741D01*
X103212Y52766D01*
X103305Y52800D01*
X103313Y52808D01*
X103347Y52817D01*
X103389Y52842D01*
X103439Y52867D01*
X103556Y52951D01*
X103615Y53001D01*
X103665Y53060D01*
X103673Y53068D01*
X103682Y53093D01*
X103699Y53127D01*
X103724Y53177D01*
X103749Y53236D01*
X103774Y53311D01*
X103799Y53395D01*
X103816Y53487D01*
Y53496D01*
X103824Y53529D01*
Y53579D01*
X103833Y53663D01*
X103841Y53772D01*
Y53906D01*
X103849Y53982D01*
Y54074D01*
Y54166D01*
Y54275D01*
Y56110D01*
X104360D01*
Y56998D01*
X103849D01*
Y57836D01*
X102735Y58490D01*
X104360D01*
D02*
G37*
G36*
X52279Y58490D02*
D01*
Y56998D01*
X51516D01*
Y56110D01*
X52279D01*
Y54409D01*
Y54400D01*
Y54384D01*
Y54359D01*
Y54325D01*
Y54241D01*
Y54141D01*
X52271Y54040D01*
Y53940D01*
Y53864D01*
X52262Y53831D01*
Y53814D01*
X52254Y53797D01*
X52237Y53764D01*
X52212Y53722D01*
X52162Y53671D01*
X52145Y53663D01*
X52111Y53646D01*
X52053Y53630D01*
X51977Y53621D01*
X51944D01*
X51910Y53630D01*
X51860Y53638D01*
X51793Y53646D01*
X51717Y53663D01*
X51625Y53688D01*
X51525Y53722D01*
X51424Y52859D01*
X51433D01*
X51441Y52850D01*
X51491Y52833D01*
X51575Y52808D01*
X51684Y52783D01*
X51810Y52750D01*
X51960Y52724D01*
X52128Y52708D01*
X52304Y52699D01*
X51424D01*
X53905D01*
X52354D01*
X52413Y52708D01*
X52488Y52716D01*
X52572Y52724D01*
X52664Y52741D01*
X52757Y52766D01*
X52849Y52800D01*
X52857Y52808D01*
X52891Y52817D01*
X52933Y52842D01*
X52983Y52867D01*
X53100Y52951D01*
X53159Y53001D01*
X53209Y53060D01*
X53217Y53068D01*
X53226Y53093D01*
X53243Y53127D01*
X53268Y53177D01*
X53293Y53236D01*
X53318Y53311D01*
X53343Y53395D01*
X53360Y53487D01*
Y53496D01*
X53368Y53529D01*
Y53579D01*
X53377Y53663D01*
X53385Y53772D01*
Y53906D01*
X53393Y53982D01*
Y54074D01*
Y54166D01*
Y54275D01*
Y56110D01*
X53905D01*
Y56998D01*
Y56998D01*
X53393D01*
Y57836D01*
X52279Y58490D01*
D02*
G37*
G36*
X79011Y57091D02*
X75089D01*
Y52699D01*
Y54568D01*
X77871D01*
Y54560D01*
Y54543D01*
Y54518D01*
X77863Y54484D01*
X77855Y54400D01*
X77838Y54283D01*
X77804Y54166D01*
X77754Y54032D01*
X77695Y53906D01*
X77612Y53797D01*
X77603Y53789D01*
X77561Y53755D01*
X77511Y53713D01*
X77436Y53663D01*
X77343Y53613D01*
X77226Y53571D01*
X77100Y53537D01*
X76966Y53529D01*
X76924D01*
X76874Y53537D01*
X76815Y53546D01*
X76749Y53562D01*
X76673Y53588D01*
X76598Y53621D01*
X76531Y53671D01*
X76522Y53680D01*
X76497Y53697D01*
X76464Y53730D01*
X76430Y53780D01*
X76380Y53847D01*
X76338Y53923D01*
X76296Y54023D01*
X76254Y54132D01*
X75148Y53948D01*
Y53940D01*
X75156Y53923D01*
X75173Y53889D01*
X75190Y53847D01*
X75215Y53797D01*
X75240Y53738D01*
X75315Y53604D01*
X75408Y53454D01*
X75525Y53294D01*
X75667Y53152D01*
X75827Y53018D01*
X75835D01*
X75843Y53001D01*
X75877Y52993D01*
X75911Y52968D01*
X75952Y52942D01*
X76011Y52917D01*
X76070Y52892D01*
X76145Y52859D01*
X76313Y52800D01*
X76505Y52750D01*
X76732Y52716D01*
X76975Y52699D01*
X77025D01*
X77075Y52708D01*
X77151D01*
X77243Y52724D01*
X77352Y52741D01*
X77469Y52758D01*
X77587Y52792D01*
X77720Y52825D01*
X77855Y52875D01*
X77989Y52934D01*
X78123Y53001D01*
X78257Y53085D01*
X78383Y53177D01*
X78491Y53286D01*
X78600Y53412D01*
X78609Y53420D01*
X78617Y53437D01*
X78634Y53470D01*
X78667Y53512D01*
X78693Y53571D01*
X78726Y53638D01*
X78768Y53713D01*
X78802Y53806D01*
X78843Y53906D01*
X78877Y54015D01*
X78919Y54132D01*
X78944Y54267D01*
X78969Y54400D01*
X78994Y54543D01*
X79003Y54702D01*
X79011Y54861D01*
Y54962D01*
X79003Y55037D01*
X78994Y55121D01*
X78986Y55222D01*
X78969Y55331D01*
X78944Y55456D01*
X78877Y55716D01*
X78835Y55850D01*
X78785Y55993D01*
X78718Y56127D01*
X78642Y56252D01*
X78558Y56378D01*
X78466Y56495D01*
X78458Y56504D01*
X78441Y56521D01*
X78408Y56554D01*
X78366Y56588D01*
X78316Y56630D01*
X78249Y56680D01*
X78173Y56739D01*
X78089Y56797D01*
X77997Y56848D01*
X77888Y56906D01*
X77779Y56956D01*
X77653Y56998D01*
X77528Y57032D01*
X77385Y57065D01*
X77243Y57082D01*
X77092Y57091D01*
X79011D01*
D01*
D02*
G37*
G36*
X53905Y53521D02*
Y53521D01*
D01*
Y53521D01*
D02*
G37*
G36*
X70648Y53185D02*
D01*
D01*
D01*
D02*
G37*
G36*
X41946Y57091D02*
X39944D01*
X41854D01*
X41787Y57082D01*
X41712Y57074D01*
X41620Y57057D01*
X41519Y57040D01*
X41410Y57015D01*
X41293Y56982D01*
X41175Y56940D01*
X41050Y56889D01*
X40924Y56822D01*
X40807Y56755D01*
X40689Y56672D01*
X40572Y56571D01*
X40471Y56462D01*
X40463Y56454D01*
X40446Y56437D01*
X40421Y56395D01*
X40388Y56345D01*
X40346Y56278D01*
X40304Y56202D01*
X40254Y56102D01*
X40203Y55993D01*
X40153Y55867D01*
X40103Y55725D01*
X40061Y55574D01*
X40019Y55398D01*
X39985Y55213D01*
X39960Y55012D01*
X39944Y54803D01*
Y52699D01*
Y54568D01*
X42726D01*
Y54560D01*
Y54543D01*
Y54518D01*
X42717Y54484D01*
X42709Y54400D01*
X42692Y54283D01*
X42659Y54166D01*
X42608Y54032D01*
X42550Y53906D01*
X42466Y53797D01*
X42458Y53789D01*
X42416Y53755D01*
X42365Y53713D01*
X42290Y53663D01*
X42198Y53613D01*
X42080Y53571D01*
X41955Y53537D01*
X41821Y53529D01*
X41779D01*
X41728Y53537D01*
X41670Y53546D01*
X41603Y53562D01*
X41527Y53588D01*
X41452Y53621D01*
X41385Y53671D01*
X41377Y53680D01*
X41351Y53697D01*
X41318Y53730D01*
X41284Y53780D01*
X41234Y53847D01*
X41192Y53923D01*
X41150Y54023D01*
X41108Y54132D01*
X40002Y53948D01*
Y53940D01*
X40010Y53923D01*
X40027Y53889D01*
X40044Y53847D01*
X40069Y53797D01*
X40094Y53738D01*
X40170Y53604D01*
X40262Y53454D01*
X40379Y53294D01*
X40522Y53152D01*
X40681Y53018D01*
X40689D01*
X40698Y53001D01*
X40731Y52993D01*
X40765Y52968D01*
X40807Y52942D01*
X40865Y52917D01*
X40924Y52892D01*
X40999Y52859D01*
X41167Y52800D01*
X41360Y52750D01*
X41586Y52716D01*
X41829Y52699D01*
X41879D01*
X41930Y52708D01*
X42005D01*
X42097Y52724D01*
X42206Y52741D01*
X42323Y52758D01*
X42441Y52792D01*
X42575Y52825D01*
X42709Y52875D01*
X42843Y52934D01*
X42977Y53001D01*
X43111Y53085D01*
X43237Y53177D01*
X43346Y53286D01*
X43455Y53412D01*
X43463Y53420D01*
X43472Y53437D01*
X43488Y53470D01*
X43522Y53512D01*
X43547Y53571D01*
X43580Y53638D01*
X43622Y53713D01*
X43656Y53806D01*
X43698Y53906D01*
X43731Y54015D01*
X43773Y54132D01*
X43798Y54266D01*
X43823Y54400D01*
X43849Y54543D01*
X43857Y54702D01*
X43865Y54861D01*
Y52817D01*
Y54979D01*
Y54962D01*
X43857Y55037D01*
X43849Y55121D01*
X43840Y55222D01*
X43823Y55331D01*
X43798Y55456D01*
X43731Y55716D01*
X43689Y55850D01*
X43639Y55993D01*
X43572Y56127D01*
X43497Y56252D01*
X43413Y56378D01*
X43321Y56495D01*
X43312Y56504D01*
X43295Y56521D01*
X43262Y56554D01*
X43220Y56588D01*
X43170Y56630D01*
X43103Y56680D01*
X43027Y56739D01*
X42944Y56797D01*
X42851Y56848D01*
X42742Y56906D01*
X42634Y56956D01*
X42508Y56998D01*
X42382Y57032D01*
X42240Y57065D01*
X42097Y57082D01*
X41946Y57091D01*
D02*
G37*
G36*
X118917Y58591D02*
X114551D01*
D01*
X114676D01*
Y57677D01*
X117852Y53772D01*
X114551D01*
Y52792D01*
X119269D01*
Y53847D01*
X116210Y57610D01*
X118917D01*
Y58591D01*
D02*
G37*
G36*
X99274Y57091D02*
X98536D01*
X99207D01*
X99131Y57082D01*
X99039Y57065D01*
X98922Y57040D01*
X98796Y56998D01*
X98671Y56948D01*
X98536Y56873D01*
X98888Y55909D01*
X98897Y55917D01*
X98939Y55934D01*
X98989Y55968D01*
X99056Y56001D01*
X99140Y56035D01*
X99224Y56068D01*
X99316Y56085D01*
X99408Y56093D01*
X99441D01*
X99492Y56085D01*
X99542Y56077D01*
X99601Y56060D01*
X99668Y56035D01*
X99735Y56001D01*
X99802Y55959D01*
X99810Y55951D01*
X99827Y55934D01*
X99861Y55901D01*
X99894Y55850D01*
X99936Y55792D01*
X99978Y55708D01*
X100020Y55607D01*
X100053Y55490D01*
Y55473D01*
X100062Y55448D01*
X100070Y55423D01*
Y55381D01*
X100078Y55331D01*
X100087Y55264D01*
X100095Y55188D01*
X100103Y55105D01*
X100112Y54996D01*
X100120Y54887D01*
Y54752D01*
X100129Y54610D01*
X100137Y54451D01*
Y54275D01*
Y54082D01*
Y52792D01*
X98536D01*
X101252D01*
Y56998D01*
X100221D01*
Y56403D01*
X100213Y56412D01*
X100179Y56462D01*
X100129Y56537D01*
X100062Y56630D01*
X99995Y56722D01*
X99911Y56814D01*
X99835Y56898D01*
X99752Y56956D01*
X99743Y56965D01*
X99718Y56982D01*
X99668Y56998D01*
X99609Y57024D01*
X99542Y57049D01*
X99458Y57074D01*
X99375Y57082D01*
X99274Y57091D01*
D02*
G37*
G36*
X93182D02*
X86997D01*
Y52792D01*
X88112D01*
Y55188D01*
Y55197D01*
Y55213D01*
Y55247D01*
Y55289D01*
X88120Y55398D01*
X88129Y55524D01*
X88137Y55658D01*
X88162Y55792D01*
X88187Y55909D01*
X88212Y55951D01*
X88229Y55993D01*
X88237Y56001D01*
X88263Y56035D01*
X88296Y56068D01*
X88346Y56118D01*
X88413Y56160D01*
X88497Y56202D01*
X88598Y56227D01*
X88707Y56236D01*
X88749D01*
X88791Y56227D01*
X88849Y56219D01*
X88916Y56202D01*
X88992Y56177D01*
X89075Y56144D01*
X89151Y56093D01*
X89159Y56085D01*
X89184Y56068D01*
X89218Y56035D01*
X89260Y55984D01*
X89310Y55926D01*
X89360Y55859D01*
X89402Y55775D01*
X89444Y55674D01*
Y55658D01*
X89461Y55624D01*
X89469Y55557D01*
X89486Y55465D01*
X89503Y55339D01*
X89511Y55188D01*
X89528Y55012D01*
Y54803D01*
Y52792D01*
X90642D01*
Y55088D01*
Y55096D01*
Y55113D01*
Y55146D01*
Y55188D01*
Y55289D01*
X90651Y55414D01*
X90659Y55549D01*
X90668Y55674D01*
X90684Y55792D01*
X90701Y55842D01*
X90710Y55875D01*
Y55884D01*
X90718Y55909D01*
X90735Y55942D01*
X90751Y55976D01*
X90810Y56068D01*
X90852Y56110D01*
X90894Y56144D01*
X90902Y56152D01*
X90919Y56160D01*
X90944Y56177D01*
X90978Y56194D01*
X91028Y56211D01*
X91087Y56219D01*
X91154Y56236D01*
X91271D01*
X91321Y56227D01*
X91380Y56219D01*
X91455Y56202D01*
X91531Y56177D01*
X91606Y56144D01*
X91690Y56093D01*
X91698Y56085D01*
X91724Y56068D01*
X91757Y56035D01*
X91799Y55993D01*
X91849Y55934D01*
X91900Y55867D01*
X91941Y55783D01*
X91983Y55691D01*
Y55683D01*
X92000Y55641D01*
X92008Y55574D01*
X92025Y55490D01*
X92042Y55364D01*
X92050Y55222D01*
X92067Y55037D01*
Y54828D01*
Y52792D01*
X93182D01*
Y56998D01*
X92159D01*
Y56420D01*
X92151Y56428D01*
X92134Y56445D01*
X92101Y56479D01*
X92059Y56529D01*
X92008Y56579D01*
X91950Y56630D01*
X91874Y56697D01*
X91790Y56755D01*
X91698Y56814D01*
X91598Y56881D01*
X91380Y56990D01*
X91254Y57032D01*
X91128Y57065D01*
X90994Y57082D01*
X90852Y57091D01*
X93182D01*
D01*
D02*
G37*
G36*
X60215Y58591D02*
X59100D01*
Y52792D01*
X60215D01*
Y58591D01*
D02*
G37*
G36*
X53905Y52792D02*
D01*
D01*
D01*
D02*
G37*
G36*
X50754Y56998D02*
X49639D01*
Y52792D01*
X50754D01*
Y56998D01*
D02*
G37*
G36*
X48508Y57091D02*
X44670D01*
D01*
X46036D01*
X45960Y57082D01*
X45868Y57074D01*
X45768Y57057D01*
X45659Y57032D01*
X45541Y56998D01*
X45424Y56956D01*
X45407Y56948D01*
X45374Y56931D01*
X45315Y56906D01*
X45248Y56864D01*
X45173Y56814D01*
X45097Y56755D01*
X45022Y56688D01*
X44955Y56613D01*
X44946Y56604D01*
X44930Y56579D01*
X44905Y56537D01*
X44871Y56479D01*
X44829Y56412D01*
X44796Y56328D01*
X44762Y56244D01*
X44737Y56144D01*
Y56135D01*
X44728Y56093D01*
X44712Y56035D01*
X44703Y55951D01*
X44687Y55850D01*
X44678Y55716D01*
X44670Y55574D01*
Y52792D01*
X45784D01*
Y54928D01*
Y54937D01*
Y54962D01*
Y54996D01*
Y55037D01*
Y55096D01*
Y55155D01*
X45793Y55297D01*
X45801Y55440D01*
X45818Y55590D01*
X45835Y55716D01*
X45843Y55766D01*
X45860Y55808D01*
Y55817D01*
X45877Y55842D01*
X45893Y55875D01*
X45918Y55926D01*
X45994Y56026D01*
X46036Y56077D01*
X46094Y56118D01*
X46103Y56127D01*
X46119Y56135D01*
X46153Y56152D01*
X46203Y56177D01*
X46262Y56202D01*
X46321Y56219D01*
X46396Y56227D01*
X46480Y56236D01*
X46530D01*
X46580Y56227D01*
X46648Y56219D01*
X46731Y56194D01*
X46815Y56169D01*
X46907Y56127D01*
X46999Y56077D01*
X47008Y56068D01*
X47033Y56051D01*
X47075Y56010D01*
X47125Y55968D01*
X47175Y55901D01*
X47226Y55834D01*
X47276Y55741D01*
X47309Y55649D01*
Y55641D01*
X47326Y55599D01*
X47335Y55532D01*
X47351Y55431D01*
X47360Y55373D01*
X47368Y55297D01*
X47376Y55222D01*
Y55130D01*
X47385Y55037D01*
X47393Y54928D01*
Y54811D01*
Y54685D01*
Y52792D01*
X48508D01*
Y56998D01*
D01*
X47477D01*
Y56378D01*
X47469Y56387D01*
X47452Y56412D01*
X47418Y56445D01*
X47376Y56487D01*
X47326Y56546D01*
X47259Y56604D01*
X47184Y56672D01*
X47100Y56739D01*
X47008Y56797D01*
X46899Y56864D01*
X46790Y56923D01*
X46664Y56982D01*
X46530Y57024D01*
X46396Y57057D01*
X46245Y57082D01*
X46094Y57091D01*
X48508D01*
D01*
D02*
G37*
G36*
X96148Y57091D02*
X93969D01*
X96056D01*
X95989Y57082D01*
X95905Y57074D01*
X95813Y57057D01*
X95704Y57040D01*
X95595Y57015D01*
X95469Y56982D01*
X95344Y56940D01*
X95218Y56889D01*
X95084Y56831D01*
X94950Y56755D01*
X94824Y56672D01*
X94698Y56579D01*
X94581Y56470D01*
X94573Y56462D01*
X94556Y56445D01*
X94522Y56403D01*
X94489Y56362D01*
X94439Y56294D01*
X94388Y56227D01*
X94330Y56135D01*
X94271Y56043D01*
X94221Y55934D01*
X94162Y55817D01*
X94112Y55683D01*
X94061Y55549D01*
X94028Y55398D01*
X93994Y55247D01*
X93978Y55079D01*
X93969Y54903D01*
Y52699D01*
Y54811D01*
X93978Y54744D01*
X93986Y54660D01*
X94003Y54568D01*
X94020Y54459D01*
X94045Y54350D01*
X94078Y54225D01*
X94120Y54099D01*
X94170Y53965D01*
X94229Y53831D01*
X94305Y53697D01*
X94388Y53571D01*
X94481Y53445D01*
X94590Y53320D01*
X94598Y53311D01*
X94615Y53294D01*
X94648Y53261D01*
X94698Y53219D01*
X94757Y53177D01*
X94832Y53127D01*
X94916Y53068D01*
X95008Y53009D01*
X95117Y52951D01*
X95235Y52892D01*
X95360Y52842D01*
X95503Y52800D01*
X95645Y52758D01*
X95805Y52724D01*
X95964Y52708D01*
X96140Y52699D01*
X93969D01*
X98310D01*
X96198D01*
X96240Y52708D01*
X96291D01*
X96349Y52716D01*
X96492Y52733D01*
X96668Y52766D01*
X96852Y52808D01*
X97045Y52875D01*
X97246Y52959D01*
X97254D01*
X97271Y52968D01*
X97296Y52984D01*
X97330Y53009D01*
X97422Y53068D01*
X97539Y53152D01*
X97665Y53261D01*
X97799Y53395D01*
X97925Y53546D01*
X98042Y53722D01*
Y53730D01*
X98050Y53747D01*
X98067Y53772D01*
X98084Y53814D01*
X98101Y53864D01*
X98126Y53923D01*
X98151Y53990D01*
X98176Y54065D01*
X98201Y54149D01*
X98226Y54241D01*
X98268Y54451D01*
X98302Y54694D01*
X98310Y54954D01*
Y55012D01*
X98302Y55046D01*
Y55096D01*
X98293Y55155D01*
X98277Y55297D01*
X98243Y55456D01*
X98193Y55632D01*
X98134Y55825D01*
X98042Y56018D01*
Y56026D01*
X98025Y56043D01*
X98017Y56068D01*
X97992Y56102D01*
X97925Y56194D01*
X97841Y56311D01*
X97732Y56437D01*
X97598Y56571D01*
X97447Y56697D01*
X97271Y56814D01*
X97263D01*
X97246Y56822D01*
X97221Y56839D01*
X97179Y56856D01*
X97137Y56881D01*
X97078Y56898D01*
X97011Y56923D01*
X96944Y56956D01*
X96777Y57007D01*
X96584Y57049D01*
X96374Y57082D01*
X96148Y57091D01*
D02*
G37*
G36*
X74570D02*
X72508D01*
X72441Y57082D01*
X72357Y57074D01*
X72265Y57065D01*
X72165Y57057D01*
X71955Y57024D01*
X71746Y56973D01*
X71544Y56898D01*
X71452Y56856D01*
X71368Y56806D01*
X71360D01*
X71352Y56789D01*
X71301Y56755D01*
X71226Y56688D01*
X71142Y56596D01*
X71042Y56487D01*
X70950Y56345D01*
X70857Y56177D01*
X70790Y55984D01*
X71838Y55792D01*
Y55800D01*
X71855Y55834D01*
X71871Y55875D01*
X71896Y55926D01*
X71930Y55993D01*
X71980Y56051D01*
X72031Y56110D01*
X72098Y56160D01*
X72106Y56169D01*
X72131Y56186D01*
X72173Y56202D01*
X72232Y56227D01*
X72307Y56252D01*
X72399Y56278D01*
X72508Y56286D01*
X72634Y56294D01*
X72709D01*
X72785Y56286D01*
X72877Y56278D01*
X72986Y56261D01*
X73086Y56244D01*
X73179Y56211D01*
X73262Y56169D01*
X73271D01*
X73279Y56152D01*
X73321Y56110D01*
X73371Y56035D01*
X73380Y55993D01*
X73388Y55942D01*
Y55934D01*
Y55926D01*
X73371Y55875D01*
X73338Y55808D01*
X73313Y55775D01*
X73279Y55741D01*
X73271Y55733D01*
X73237Y55725D01*
X73220Y55708D01*
X73187Y55699D01*
X73145Y55683D01*
X73095Y55658D01*
X73028Y55641D01*
X72961Y55616D01*
X72877Y55590D01*
X72776Y55565D01*
X72667Y55532D01*
X72542Y55498D01*
X72399Y55465D01*
X72240Y55423D01*
X72232D01*
X72198Y55414D01*
X72156Y55406D01*
X72098Y55389D01*
X72022Y55364D01*
X71938Y55348D01*
X71754Y55289D01*
X71544Y55213D01*
X71343Y55130D01*
X71243Y55079D01*
X71151Y55037D01*
X71075Y54979D01*
X71000Y54928D01*
X70983Y54912D01*
X70941Y54878D01*
X70891Y54811D01*
X70824Y54719D01*
X70757Y54602D01*
X70706Y54459D01*
X70665Y54292D01*
X70648Y54107D01*
Y54049D01*
X70656Y54007D01*
X70665Y53965D01*
X70673Y53906D01*
X70706Y53764D01*
X70765Y53613D01*
X70807Y53529D01*
X70849Y53445D01*
X70908Y53361D01*
X70975Y53278D01*
X71050Y53194D01*
X71134Y53110D01*
X71142Y53102D01*
X71159Y53093D01*
X71184Y53076D01*
X71226Y53043D01*
X71276Y53018D01*
X71335Y52984D01*
X71410Y52942D01*
X71494Y52909D01*
X71586Y52867D01*
X71695Y52833D01*
X71813Y52792D01*
X71938Y52766D01*
X72081Y52741D01*
X72232Y52716D01*
X72391Y52708D01*
X72558Y52699D01*
X70648D01*
X74570D01*
X72642D01*
X72701Y52708D01*
X72776D01*
X72860Y52716D01*
X72952Y52724D01*
X73053Y52741D01*
X73271Y52783D01*
X73497Y52842D01*
X73723Y52926D01*
X73824Y52984D01*
X73924Y53043D01*
X73933Y53051D01*
X73949Y53060D01*
X73975Y53076D01*
X74000Y53110D01*
X74092Y53185D01*
X74193Y53294D01*
X74301Y53429D01*
X74402Y53588D01*
X74494Y53780D01*
X74570Y53990D01*
D01*
X73455Y54158D01*
Y54141D01*
X73438Y54107D01*
X73422Y54049D01*
X73396Y53973D01*
X73355Y53889D01*
X73304Y53814D01*
X73246Y53730D01*
X73170Y53663D01*
X73162Y53655D01*
X73128Y53638D01*
X73078Y53613D01*
X73011Y53588D01*
X72927Y53554D01*
X72818Y53529D01*
X72701Y53512D01*
X72558Y53504D01*
X72491D01*
X72408Y53512D01*
X72315Y53521D01*
X72215Y53537D01*
X72106Y53571D01*
X72005Y53604D01*
X71913Y53655D01*
X71905Y53663D01*
X71888Y53680D01*
X71863Y53705D01*
X71838Y53738D01*
X71813Y53780D01*
X71788Y53831D01*
X71771Y53889D01*
X71762Y53956D01*
Y53965D01*
Y53982D01*
X71771Y54032D01*
X71796Y54099D01*
X71846Y54166D01*
X71863Y54183D01*
X71888Y54191D01*
X71922Y54216D01*
X71972Y54233D01*
X72039Y54258D01*
X72114Y54283D01*
X72215Y54308D01*
X72232D01*
X72273Y54325D01*
X72341Y54342D01*
X72433Y54359D01*
X72542Y54384D01*
X72659Y54417D01*
X72793Y54451D01*
X72936Y54493D01*
X73229Y54576D01*
X73371Y54618D01*
X73505Y54669D01*
X73631Y54711D01*
X73748Y54761D01*
X73849Y54811D01*
X73924Y54853D01*
X73933Y54861D01*
X73949Y54870D01*
X73966Y54887D01*
X74000Y54920D01*
X74084Y54996D01*
X74167Y55105D01*
X74260Y55238D01*
X74343Y55398D01*
X74377Y55490D01*
X74394Y55590D01*
X74410Y55691D01*
X74419Y55800D01*
Y55808D01*
Y55825D01*
Y55850D01*
X74410Y55892D01*
X74402Y55934D01*
X74394Y55993D01*
X74369Y56118D01*
X74318Y56261D01*
X74234Y56412D01*
X74193Y56495D01*
X74134Y56571D01*
X74067Y56646D01*
X73991Y56713D01*
X73983Y56722D01*
X73975Y56730D01*
X73949Y56747D01*
X73908Y56772D01*
X73866Y56797D01*
X73807Y56831D01*
X73740Y56864D01*
X73665Y56906D01*
X73572Y56940D01*
X73472Y56973D01*
X73363Y57007D01*
X73246Y57032D01*
X73111Y57057D01*
X72969Y57074D01*
X72818Y57091D01*
X74570D01*
D02*
G37*
G36*
X70061D02*
X66139Y57091D01*
D01*
X68000Y57091D01*
X67933Y57082D01*
X67849Y57074D01*
X67757Y57065D01*
X67656Y57057D01*
X67447Y57024D01*
X67237Y56973D01*
X67036Y56898D01*
X66944Y56856D01*
X66860Y56806D01*
X66852D01*
X66843Y56789D01*
X66793Y56755D01*
X66718Y56688D01*
X66634Y56596D01*
X66533Y56487D01*
X66441Y56345D01*
X66349Y56177D01*
X66282Y55984D01*
X67329Y55792D01*
Y55800D01*
X67346Y55834D01*
X67363Y55875D01*
X67388Y55926D01*
X67422Y55993D01*
X67472Y56051D01*
X67522Y56110D01*
X67589Y56160D01*
X67598Y56169D01*
X67623Y56186D01*
X67664Y56202D01*
X67723Y56227D01*
X67799Y56252D01*
X67891Y56278D01*
X68000Y56286D01*
X68125Y56294D01*
X68201D01*
X68276Y56286D01*
X68368Y56278D01*
X68477Y56261D01*
X68578Y56244D01*
X68670Y56211D01*
X68754Y56169D01*
X68762D01*
X68771Y56152D01*
X68813Y56110D01*
X68863Y56035D01*
X68871Y55993D01*
X68880Y55942D01*
Y55934D01*
Y55926D01*
X68863Y55875D01*
X68829Y55808D01*
X68804Y55775D01*
X68771Y55741D01*
X68762Y55733D01*
X68729Y55725D01*
X68712Y55708D01*
X68678Y55699D01*
X68637Y55683D01*
X68586Y55658D01*
X68519Y55641D01*
X68452Y55616D01*
X68368Y55590D01*
X68268Y55565D01*
X68159Y55532D01*
X68033Y55498D01*
X67891Y55465D01*
X67732Y55423D01*
X67723D01*
X67690Y55414D01*
X67648Y55406D01*
X67589Y55389D01*
X67514Y55364D01*
X67430Y55348D01*
X67246Y55289D01*
X67036Y55213D01*
X66835Y55130D01*
X66734Y55079D01*
X66642Y55037D01*
X66567Y54979D01*
X66491Y54928D01*
X66475Y54912D01*
X66433Y54878D01*
X66382Y54811D01*
X66315Y54719D01*
X66248Y54602D01*
X66198Y54459D01*
X66156Y54292D01*
X66139Y54107D01*
Y54049D01*
X66148Y54007D01*
X66156Y53965D01*
X66164Y53906D01*
X66198Y53764D01*
X66257Y53613D01*
X66299Y53529D01*
X66341Y53445D01*
X66399Y53361D01*
X66466Y53278D01*
X66542Y53194D01*
X66625Y53110D01*
X66634Y53102D01*
X66650Y53093D01*
X66676Y53076D01*
X66718Y53043D01*
X66768Y53018D01*
X66826Y52984D01*
X66902Y52942D01*
X66986Y52909D01*
X67078Y52867D01*
X67187Y52833D01*
X67304Y52792D01*
X67430Y52766D01*
X67572Y52741D01*
X67723Y52716D01*
X67882Y52708D01*
X68050Y52699D01*
X68134D01*
X68192Y52708D01*
X68268D01*
X68352Y52716D01*
X68444Y52724D01*
X68544Y52741D01*
X68762Y52783D01*
X68989Y52842D01*
X69215Y52926D01*
X69315Y52984D01*
X69416Y53043D01*
X69424Y53051D01*
X69441Y53060D01*
X69466Y53076D01*
X69491Y53110D01*
X69584Y53185D01*
X69684Y53294D01*
X69793Y53429D01*
X69894Y53588D01*
X69986Y53780D01*
X70061Y53990D01*
D01*
X68947Y54158D01*
Y54141D01*
X68930Y54107D01*
X68913Y54049D01*
X68888Y53973D01*
X68846Y53889D01*
X68796Y53814D01*
X68737Y53730D01*
X68662Y53663D01*
X68653Y53655D01*
X68620Y53638D01*
X68570Y53613D01*
X68502Y53588D01*
X68419Y53554D01*
X68310Y53529D01*
X68192Y53512D01*
X68050Y53504D01*
X67983D01*
X67899Y53512D01*
X67807Y53521D01*
X67706Y53537D01*
X67598Y53571D01*
X67497Y53604D01*
X67405Y53655D01*
X67396Y53663D01*
X67380Y53680D01*
X67355Y53705D01*
X67329Y53738D01*
X67304Y53780D01*
X67279Y53831D01*
X67262Y53889D01*
X67254Y53956D01*
Y53965D01*
Y53982D01*
X67262Y54032D01*
X67287Y54099D01*
X67338Y54166D01*
X67355Y54183D01*
X67380Y54191D01*
X67413Y54216D01*
X67463Y54233D01*
X67530Y54258D01*
X67606Y54283D01*
X67706Y54308D01*
X67723D01*
X67765Y54325D01*
X67832Y54342D01*
X67924Y54359D01*
X68033Y54384D01*
X68151Y54417D01*
X68285Y54451D01*
X68427Y54493D01*
X68720Y54576D01*
X68863Y54618D01*
X68997Y54669D01*
X69123Y54711D01*
X69240Y54761D01*
X69340Y54811D01*
X69416Y54853D01*
X69424Y54861D01*
X69441Y54870D01*
X69458Y54887D01*
X69491Y54920D01*
X69575Y54996D01*
X69659Y55105D01*
X69751Y55238D01*
X69835Y55398D01*
X69868Y55490D01*
X69885Y55590D01*
X69902Y55691D01*
X69910Y55800D01*
Y55808D01*
Y55825D01*
Y55850D01*
X69902Y55892D01*
X69894Y55934D01*
X69885Y55993D01*
X69860Y56118D01*
X69810Y56261D01*
X69726Y56412D01*
X69684Y56495D01*
X69626Y56571D01*
X69558Y56646D01*
X69483Y56713D01*
X69475Y56722D01*
X69466Y56730D01*
X69441Y56747D01*
X69399Y56772D01*
X69357Y56797D01*
X69299Y56831D01*
X69232Y56864D01*
X69156Y56906D01*
X69064Y56940D01*
X68963Y56973D01*
X68854Y57007D01*
X68737Y57032D01*
X68603Y57057D01*
X68461Y57074D01*
X68310Y57091D01*
X70061D01*
D02*
G37*
G36*
X114475Y52792D02*
Y51912D01*
X109850D01*
Y51191D01*
X114475D01*
Y52792D01*
D02*
G37*
G36*
X73849Y50023D02*
D01*
Y48556D01*
X73841D01*
X73832Y48565D01*
X73807Y48573D01*
X73774Y48581D01*
X73690Y48623D01*
X73572Y48674D01*
X73430Y48741D01*
X73271Y48833D01*
X73095Y48950D01*
X72910Y49084D01*
X72902Y49093D01*
X72885Y49101D01*
X72860Y49126D01*
X72827Y49160D01*
X72734Y49244D01*
X72634Y49352D01*
X72517Y49487D01*
X72399Y49654D01*
X72290Y49830D01*
X72206Y50023D01*
X71301D01*
Y44190D01*
X72416D01*
Y48389D01*
X72424Y48380D01*
X72441Y48364D01*
X72475Y48338D01*
X72525Y48297D01*
X72584Y48246D01*
X72651Y48196D01*
X72734Y48137D01*
X72827Y48070D01*
X72927Y48003D01*
X73036Y47936D01*
X73153Y47861D01*
X73279Y47794D01*
X73547Y47668D01*
X73849Y47551D01*
Y44609D01*
Y50023D01*
D02*
G37*
G36*
X78651D02*
D01*
Y47970D01*
Y50023D01*
D02*
G37*
G36*
Y47048D02*
Y47031D01*
D01*
Y47048D01*
D02*
G37*
G36*
Y47006D02*
Y46947D01*
D01*
Y47006D01*
D02*
G37*
G36*
Y46889D02*
Y46880D01*
D01*
Y46889D01*
D02*
G37*
G36*
Y46797D02*
D01*
D01*
D01*
D02*
G37*
G36*
Y46746D02*
Y46738D01*
D01*
Y46746D01*
D02*
G37*
G36*
Y46704D02*
Y46688D01*
D01*
Y46704D01*
D02*
G37*
G36*
Y46671D02*
Y46663D01*
D01*
Y46671D01*
D02*
G37*
G36*
Y46646D02*
D01*
D01*
D01*
D02*
G37*
G36*
Y46621D02*
Y46612D01*
D01*
Y46621D01*
D02*
G37*
G36*
Y46604D02*
Y46595D01*
D01*
Y46604D01*
D02*
G37*
G36*
Y46595D02*
Y46579D01*
D01*
Y46595D01*
D02*
G37*
G36*
Y46570D02*
Y46554D01*
D01*
Y46570D01*
D02*
G37*
G36*
Y46545D02*
Y46528D01*
D01*
Y46545D01*
D02*
G37*
G36*
Y46528D02*
Y46520D01*
D01*
Y46528D01*
D02*
G37*
G36*
Y46486D02*
Y46453D01*
D01*
Y46486D01*
D02*
G37*
G36*
Y46361D02*
D01*
D01*
D01*
D02*
G37*
G36*
Y46327D02*
Y46319D01*
D01*
Y46327D01*
D02*
G37*
G36*
Y46260D02*
D01*
D01*
D01*
D02*
G37*
G36*
Y46244D02*
Y46218D01*
D01*
Y46244D01*
D02*
G37*
G36*
Y46202D02*
Y46134D01*
D01*
Y46202D01*
D02*
G37*
G36*
Y46118D02*
Y46101D01*
D01*
Y46118D01*
D02*
G37*
G36*
Y46017D02*
Y46000D01*
D01*
Y46017D01*
D02*
G37*
G36*
Y45967D02*
D01*
D01*
D01*
D02*
G37*
G36*
Y45959D02*
D01*
D01*
D01*
D02*
G37*
G36*
D02*
Y45942D01*
D01*
Y45959D01*
D02*
G37*
G36*
Y45933D02*
Y45925D01*
D01*
Y45933D01*
D02*
G37*
G36*
Y45900D02*
Y45883D01*
D01*
Y45900D01*
D02*
G37*
G36*
Y45850D02*
D01*
D01*
D01*
D02*
G37*
G36*
Y45799D02*
D01*
D01*
D01*
D02*
G37*
G36*
Y45774D02*
Y45741D01*
D01*
Y45774D01*
D02*
G37*
G36*
Y45724D02*
Y45715D01*
D01*
Y45724D01*
D02*
G37*
G36*
Y45640D02*
Y45623D01*
D01*
Y45640D01*
D02*
G37*
G36*
Y45607D02*
D01*
D01*
D01*
D02*
G37*
G36*
Y45590D02*
Y45573D01*
D01*
Y45590D01*
D02*
G37*
G36*
Y45573D02*
Y45565D01*
D01*
Y45573D01*
D02*
G37*
G36*
Y45556D02*
Y45548D01*
D01*
Y45556D01*
D02*
G37*
G36*
X83469Y48397D02*
X82304D01*
X81508Y46244D01*
X81282Y45531D01*
X81274Y45540D01*
X81265Y45573D01*
X81248Y45623D01*
X81232Y45674D01*
X81190Y45799D01*
X81173Y45850D01*
X81165Y45891D01*
Y45900D01*
X81156Y45925D01*
X81148Y45959D01*
X81131Y46000D01*
X81098Y46118D01*
X81047Y46244D01*
X80243Y48397D01*
X81832D01*
X79103D01*
X80771Y44190D01*
X81776D01*
X83469Y48397D01*
D02*
G37*
G36*
X78651Y45506D02*
Y45456D01*
D01*
Y45506D01*
D02*
G37*
G36*
Y45447D02*
Y45431D01*
D01*
Y45447D01*
D02*
G37*
G36*
Y45322D02*
Y45305D01*
D01*
Y45322D01*
D02*
G37*
G36*
Y45288D02*
Y45246D01*
D01*
Y45288D01*
D02*
G37*
G36*
Y45204D02*
Y45196D01*
D01*
Y45204D01*
D02*
G37*
G36*
Y45188D02*
D01*
D01*
D01*
D02*
G37*
G36*
Y45129D02*
D01*
D01*
D01*
D02*
G37*
G36*
Y45045D02*
Y45037D01*
D01*
Y45045D01*
D02*
G37*
G36*
Y45012D02*
D01*
D01*
D01*
D02*
G37*
G36*
Y45003D02*
D01*
D01*
D01*
D02*
G37*
G36*
Y44987D02*
D01*
D01*
D01*
D02*
G37*
G36*
Y44970D02*
D01*
D01*
D01*
D02*
G37*
G36*
Y44961D02*
Y44945D01*
D01*
Y44961D01*
D02*
G37*
G36*
X87751Y48489D02*
X83829D01*
Y44098D01*
Y45967D01*
X86612D01*
Y45959D01*
Y45942D01*
Y45917D01*
X86603Y45883D01*
X86595Y45799D01*
X86578Y45682D01*
X86545Y45565D01*
X86494Y45431D01*
X86436Y45305D01*
X86352Y45196D01*
X86344Y45188D01*
X86302Y45154D01*
X86251Y45112D01*
X86176Y45062D01*
X86084Y45012D01*
X85966Y44970D01*
X85841Y44936D01*
X85707Y44928D01*
X85665D01*
X85615Y44936D01*
X85556Y44945D01*
X85489Y44961D01*
X85413Y44987D01*
X85338Y45020D01*
X85271Y45070D01*
X85263Y45079D01*
X85237Y45095D01*
X85204Y45129D01*
X85170Y45179D01*
X85120Y45246D01*
X85078Y45322D01*
X85036Y45422D01*
X84994Y45531D01*
X83888Y45347D01*
Y45338D01*
X83897Y45322D01*
X83913Y45288D01*
X83930Y45246D01*
X83955Y45196D01*
X83980Y45137D01*
X84056Y45003D01*
X84148Y44852D01*
X84265Y44693D01*
X84408Y44551D01*
X84567Y44417D01*
X84575D01*
X84584Y44400D01*
X84617Y44392D01*
X84651Y44366D01*
X84693Y44341D01*
X84751Y44316D01*
X84810Y44291D01*
X84885Y44257D01*
X85053Y44199D01*
X85246Y44148D01*
X85472Y44115D01*
X85715Y44098D01*
X85765D01*
X85816Y44107D01*
X85891D01*
X85983Y44123D01*
X86092Y44140D01*
X86209Y44157D01*
X86327Y44190D01*
X86461Y44224D01*
X86595Y44274D01*
X86729Y44333D01*
X86863Y44400D01*
X86997Y44484D01*
X87123Y44576D01*
X87232Y44685D01*
X87341Y44811D01*
X87349Y44819D01*
X87357Y44836D01*
X87374Y44869D01*
X87408Y44911D01*
X87433Y44970D01*
X87467Y45037D01*
X87508Y45112D01*
X87542Y45204D01*
X87584Y45305D01*
X87617Y45414D01*
X87659Y45531D01*
X87684Y45665D01*
X87709Y45799D01*
X87735Y45942D01*
X87743Y46101D01*
X87751Y46260D01*
Y46361D01*
X87743Y46436D01*
X87735Y46520D01*
X87726Y46621D01*
X87709Y46729D01*
X87684Y46855D01*
X87617Y47115D01*
X87575Y47249D01*
X87525Y47392D01*
X87458Y47526D01*
X87383Y47651D01*
X87299Y47777D01*
X87207Y47894D01*
X87198Y47903D01*
X87182Y47919D01*
X87148Y47953D01*
X87106Y47987D01*
X87056Y48028D01*
X86989Y48079D01*
X86913Y48137D01*
X86830Y48196D01*
X86737Y48246D01*
X86629Y48305D01*
X86519Y48355D01*
X86394Y48397D01*
X86268Y48431D01*
X86126Y48464D01*
X85983Y48481D01*
X85832Y48489D01*
X87751D01*
D02*
G37*
G36*
X78651Y44928D02*
Y44911D01*
D01*
Y44928D01*
D02*
G37*
G36*
Y44802D02*
Y44735D01*
D01*
Y44802D01*
D02*
G37*
G36*
Y44676D02*
Y44668D01*
D01*
Y44676D01*
D02*
G37*
G36*
Y44618D02*
Y44584D01*
D01*
Y44618D01*
D02*
G37*
G36*
Y44576D02*
Y44551D01*
D01*
Y44576D01*
D02*
G37*
G36*
Y44433D02*
Y44417D01*
D01*
Y44433D01*
D02*
G37*
G36*
Y44199D02*
D01*
D01*
D01*
D02*
G37*
G36*
X93265Y49989D02*
X88053D01*
X90651D01*
X90575Y49981D01*
X90483D01*
X90391Y49973D01*
X90282D01*
X90064Y49947D01*
X89838Y49922D01*
X89628Y49880D01*
X89536Y49855D01*
X89452Y49830D01*
X89444D01*
X89436Y49822D01*
X89385Y49797D01*
X89310Y49755D01*
X89210Y49704D01*
X89101Y49621D01*
X88992Y49528D01*
X88883Y49411D01*
X88782Y49269D01*
Y49260D01*
X88774Y49252D01*
X88757Y49227D01*
X88740Y49202D01*
X88698Y49118D01*
X88648Y49009D01*
X88606Y48875D01*
X88564Y48724D01*
X88531Y48548D01*
X88522Y48364D01*
Y48355D01*
Y48338D01*
Y48297D01*
X88531Y48255D01*
Y48196D01*
X88539Y48137D01*
X88573Y47987D01*
X88614Y47811D01*
X88682Y47635D01*
X88782Y47450D01*
X88841Y47366D01*
X88908Y47283D01*
X88916Y47274D01*
X88925Y47266D01*
X88950Y47241D01*
X88983Y47216D01*
X89017Y47182D01*
X89067Y47140D01*
X89126Y47098D01*
X89193Y47056D01*
X89268Y47006D01*
X89360Y46964D01*
X89452Y46922D01*
X89553Y46880D01*
X89670Y46838D01*
X89788Y46805D01*
X89913Y46771D01*
X90056Y46746D01*
X90048D01*
X90039Y46738D01*
X89989Y46704D01*
X89922Y46663D01*
X89838Y46604D01*
X89737Y46528D01*
X89637Y46453D01*
X89528Y46361D01*
X89436Y46260D01*
X89427Y46252D01*
X89385Y46210D01*
X89335Y46143D01*
X89260Y46042D01*
X89159Y45917D01*
X89109Y45833D01*
X89050Y45749D01*
X88983Y45657D01*
X88916Y45556D01*
X88841Y45439D01*
X88765Y45322D01*
X88053Y44190D01*
X89461D01*
X90299Y45447D01*
X90307Y45456D01*
X90316Y45481D01*
X90341Y45514D01*
X90374Y45556D01*
X90408Y45607D01*
X90450Y45674D01*
X90542Y45808D01*
X90651Y45959D01*
X90751Y46093D01*
X90844Y46218D01*
X90886Y46260D01*
X90919Y46302D01*
X90927Y46310D01*
X90944Y46327D01*
X90978Y46361D01*
X91020Y46403D01*
X91078Y46436D01*
X91137Y46478D01*
X91204Y46512D01*
X91271Y46545D01*
X91279D01*
X91304Y46554D01*
X91346Y46570D01*
X91413Y46579D01*
X91497Y46595D01*
X91598Y46604D01*
X91715Y46612D01*
X92092D01*
Y44190D01*
X93265D01*
Y49989D01*
D02*
G37*
G36*
X78651Y44190D02*
D01*
D01*
D01*
D02*
G37*
G36*
D02*
D01*
D01*
D01*
D02*
G37*
G36*
D02*
Y44174D01*
D01*
Y44190D01*
D02*
G37*
G36*
Y44148D02*
Y44140D01*
D01*
Y44148D01*
D02*
G37*
G36*
Y44107D02*
Y44098D01*
D01*
Y44107D01*
D02*
G37*
G36*
Y44098D02*
D01*
D01*
D01*
D02*
G37*
G36*
X76774Y50023D02*
X76690D01*
X76631Y50014D01*
X76564Y50006D01*
X76480Y49989D01*
X76397Y49973D01*
X76296Y49947D01*
X76187Y49914D01*
X76086Y49872D01*
X75977Y49830D01*
X75869Y49771D01*
X75760Y49696D01*
X75651Y49621D01*
X75550Y49528D01*
X75458Y49420D01*
X75450Y49411D01*
X75433Y49386D01*
X75408Y49344D01*
X75366Y49285D01*
X75324Y49202D01*
X75274Y49101D01*
X75223Y48992D01*
X75173Y48850D01*
X75123Y48699D01*
X75064Y48523D01*
X75022Y48330D01*
X74980Y48112D01*
X74938Y47878D01*
X74913Y47626D01*
X74897Y47350D01*
X74888Y47048D01*
Y46889D01*
X74897Y46780D01*
X74905Y46646D01*
X74922Y46486D01*
X74938Y46319D01*
X74955Y46134D01*
X74989Y45942D01*
X75031Y45741D01*
X75072Y45548D01*
X75131Y45355D01*
X75190Y45162D01*
X75274Y44987D01*
X75357Y44819D01*
X75458Y44676D01*
X75466Y44668D01*
X75483Y44651D01*
X75508Y44618D01*
X75542Y44584D01*
X75592Y44542D01*
X75651Y44492D01*
X75726Y44433D01*
X75801Y44383D01*
X75894Y44324D01*
X75986Y44266D01*
X76095Y44216D01*
X76212Y44174D01*
X76338Y44140D01*
X76480Y44107D01*
X76623Y44090D01*
X76773Y44081D01*
X76807D01*
X76857Y44090D01*
X76916D01*
X76983Y44098D01*
X77067Y44115D01*
X77159Y44132D01*
X77260Y44165D01*
X77369Y44199D01*
X77478Y44241D01*
X77595Y44291D01*
X77704Y44358D01*
X77821Y44425D01*
X77930Y44517D01*
X78039Y44609D01*
X78140Y44727D01*
X78148Y44735D01*
X78165Y44760D01*
X78190Y44802D01*
X78215Y44852D01*
X78257Y44928D01*
X78299Y45020D01*
X78349Y45137D01*
X78391Y45263D01*
X78441Y45414D01*
X78491Y45581D01*
X78533Y45774D01*
X78567Y45984D01*
X78600Y46218D01*
X78626Y46478D01*
X78642Y46755D01*
X78651Y47056D01*
Y47216D01*
X78642Y47324D01*
X78634Y47459D01*
X78617Y47618D01*
X78600Y47785D01*
X78584Y47970D01*
X78550Y48162D01*
X78517Y48355D01*
X78466Y48556D01*
X78416Y48749D01*
X78349Y48933D01*
X78274Y49109D01*
X78190Y49277D01*
X78089Y49420D01*
X78081Y49428D01*
X78064Y49445D01*
X78039Y49478D01*
X77997Y49512D01*
X77955Y49562D01*
X77896Y49612D01*
X77821Y49663D01*
X77746Y49721D01*
X77653Y49780D01*
X77561Y49830D01*
X77452Y49880D01*
X77335Y49931D01*
X77209Y49964D01*
X77067Y49998D01*
X76924Y50014D01*
X76774Y50023D01*
D02*
G37*
G36*
X101264Y42813D02*
X100150D01*
Y41681D01*
Y41782D01*
X101264D01*
Y41221D01*
X100150D01*
Y41279D01*
Y37014D01*
X101264D01*
Y42813D01*
D02*
G37*
G36*
X86859Y41313D02*
D01*
Y41221D01*
X85828D01*
Y40600D01*
X85820Y40609D01*
X85803Y40634D01*
X85769Y40667D01*
X85728Y40709D01*
X85677Y40768D01*
X85610Y40827D01*
X85535Y40894D01*
X85451Y40961D01*
X85359Y41019D01*
X85250Y41086D01*
X85141Y41145D01*
X85015Y41204D01*
X84881Y41246D01*
X84747Y41279D01*
X84596Y41304D01*
X84446Y41313D01*
X86859D01*
X84387D01*
X84311Y41304D01*
X84219Y41296D01*
X84119Y41279D01*
X84010Y41254D01*
X83892Y41221D01*
X83775Y41179D01*
X83758Y41170D01*
X83725Y41153D01*
X83666Y41128D01*
X83599Y41086D01*
X83524Y41036D01*
X83448Y40977D01*
X83373Y40910D01*
X83306Y40835D01*
X83297Y40827D01*
X83281Y40802D01*
X83255Y40760D01*
X83222Y40701D01*
X83180Y40634D01*
X83147Y40550D01*
X83113Y40466D01*
X83088Y40366D01*
Y40357D01*
X83079Y40315D01*
X83063Y40257D01*
X83054Y40173D01*
X83038Y40072D01*
X83029Y39938D01*
X83021Y39796D01*
Y37014D01*
X86859D01*
Y41313D01*
D02*
G37*
G36*
X73803D02*
D01*
Y41221D01*
X72772D01*
Y40600D01*
X72764Y40609D01*
X72747Y40634D01*
X72714Y40667D01*
X72672Y40709D01*
X72621Y40768D01*
X72554Y40827D01*
X72479Y40894D01*
X72395Y40961D01*
X72303Y41019D01*
X72194Y41086D01*
X72085Y41145D01*
X71959Y41204D01*
X71825Y41246D01*
X71691Y41279D01*
X71540Y41304D01*
X71389Y41313D01*
X73803D01*
X69965D01*
X71331D01*
X71255Y41304D01*
X71163Y41296D01*
X71063Y41279D01*
X70954Y41254D01*
X70836Y41221D01*
X70719Y41179D01*
X70702Y41170D01*
X70669Y41153D01*
X70610Y41128D01*
X70543Y41086D01*
X70468Y41036D01*
X70392Y40977D01*
X70317Y40910D01*
X70250Y40835D01*
X70241Y40827D01*
X70225Y40802D01*
X70200Y40760D01*
X70166Y40701D01*
X70124Y40634D01*
X70091Y40550D01*
X70057Y40466D01*
X70032Y40366D01*
Y40357D01*
X70024Y40315D01*
X70007Y40257D01*
X69998Y40173D01*
X69982Y40072D01*
X69973Y39938D01*
X69965Y39796D01*
Y37014D01*
X71079D01*
Y39151D01*
Y39159D01*
Y39184D01*
Y39218D01*
Y39260D01*
Y39318D01*
Y39377D01*
X71088Y39519D01*
X71096Y39662D01*
X71113Y39813D01*
X71130Y39938D01*
X71138Y39989D01*
X71155Y40031D01*
Y40039D01*
X71172Y40064D01*
X71188Y40098D01*
X71214Y40148D01*
X71289Y40248D01*
X71331Y40299D01*
X71389Y40341D01*
X71398Y40349D01*
X71415Y40357D01*
X71448Y40374D01*
X71498Y40399D01*
X71557Y40424D01*
X71616Y40441D01*
X71691Y40450D01*
X71775Y40458D01*
X71825D01*
X71876Y40450D01*
X71943Y40441D01*
X72026Y40416D01*
X72110Y40391D01*
X72202Y40349D01*
X72294Y40299D01*
X72303Y40290D01*
X72328Y40273D01*
X72370Y40232D01*
X72420Y40190D01*
X72470Y40123D01*
X72521Y40056D01*
X72571Y39963D01*
X72605Y39871D01*
Y39863D01*
X72621Y39821D01*
X72630Y39754D01*
X72646Y39653D01*
X72655Y39595D01*
X72663Y39519D01*
X72672Y39444D01*
Y39352D01*
X72680Y39260D01*
X72688Y39151D01*
Y39033D01*
Y38908D01*
Y37014D01*
X71884D01*
X73803D01*
Y41313D01*
D02*
G37*
G36*
X69286Y41221D02*
D01*
Y37894D01*
X67719Y39695D01*
X67711Y39704D01*
X67702Y39712D01*
X67652Y39771D01*
X67585Y39846D01*
X67501Y39938D01*
X67409Y40039D01*
X67308Y40148D01*
X67225Y40240D01*
X67141Y40324D01*
X67174D01*
X67225Y40315D01*
X67350D01*
X67443Y40307D01*
X67652D01*
X69135Y40299D01*
Y41221D01*
X69286D01*
X65532Y41221D01*
X65658D01*
Y40433D01*
X67266Y38581D01*
X67828Y37969D01*
X67786D01*
X67752Y37977D01*
X67677D01*
X67585Y37986D01*
X67484D01*
X67392Y37994D01*
X65532Y37994D01*
Y37014D01*
X69286Y37014D01*
Y41221D01*
D02*
G37*
G36*
X106963Y42922D02*
X102245D01*
Y39662D01*
Y42922D01*
X104532D01*
X104457Y42913D01*
X104365Y42905D01*
X104256Y42897D01*
X104147Y42880D01*
X104021Y42863D01*
X103753Y42804D01*
X103619Y42762D01*
X103485Y42720D01*
X103351Y42662D01*
X103225Y42595D01*
X103108Y42519D01*
X102999Y42436D01*
X102990Y42427D01*
X102974Y42410D01*
X102948Y42385D01*
X102915Y42352D01*
X102873Y42301D01*
X102823Y42243D01*
X102772Y42176D01*
X102714Y42100D01*
X102664Y42008D01*
X102613Y41916D01*
X102563Y41807D01*
X102521Y41690D01*
X102479Y41572D01*
X102446Y41438D01*
X102421Y41304D01*
X102412Y41153D01*
X103585Y41111D01*
Y41120D01*
Y41128D01*
X103602Y41187D01*
X103619Y41262D01*
X103652Y41355D01*
X103694Y41464D01*
X103753Y41564D01*
X103828Y41665D01*
X103912Y41748D01*
X103921Y41757D01*
X103954Y41782D01*
X104013Y41816D01*
X104097Y41849D01*
X104197Y41883D01*
X104323Y41916D01*
X104474Y41941D01*
X104650Y41949D01*
X104734D01*
X104826Y41941D01*
X104935Y41924D01*
X105060Y41899D01*
X105194Y41857D01*
X105320Y41807D01*
X105437Y41732D01*
X105446Y41723D01*
X105463Y41706D01*
X105496Y41681D01*
X105530Y41640D01*
X105563Y41589D01*
X105597Y41522D01*
X105613Y41455D01*
X105622Y41371D01*
Y41363D01*
Y41338D01*
X105613Y41296D01*
X105597Y41254D01*
X105580Y41195D01*
X105555Y41137D01*
X105513Y41078D01*
X105454Y41019D01*
X105446Y41011D01*
X105404Y40986D01*
X105379Y40969D01*
X105337Y40952D01*
X105295Y40927D01*
X105236Y40902D01*
X105169Y40877D01*
X105094Y40843D01*
X105002Y40810D01*
X104909Y40776D01*
X104792Y40743D01*
X104666Y40709D01*
X104532Y40676D01*
X104382Y40634D01*
X104373D01*
X104340Y40626D01*
X104298Y40617D01*
X104239Y40600D01*
X104172Y40584D01*
X104088Y40558D01*
X103996Y40533D01*
X103904Y40508D01*
X103703Y40441D01*
X103493Y40374D01*
X103292Y40299D01*
X103208Y40257D01*
X103124Y40215D01*
X103116D01*
X103108Y40207D01*
X103058Y40173D01*
X102982Y40123D01*
X102890Y40056D01*
X102789Y39972D01*
X102680Y39871D01*
X102571Y39754D01*
X102479Y39620D01*
X102471Y39603D01*
X102446Y39553D01*
X102404Y39477D01*
X102362Y39369D01*
X102320Y39234D01*
X102278Y39075D01*
X102253Y38899D01*
X102245Y38698D01*
Y38723D01*
Y38698D01*
Y38614D01*
X102253Y38572D01*
X102261Y38514D01*
X102278Y38396D01*
X102312Y38246D01*
X102362Y38086D01*
X102437Y37927D01*
X102530Y37760D01*
Y37751D01*
X102546Y37743D01*
X102580Y37692D01*
X102647Y37609D01*
X102731Y37516D01*
X102840Y37408D01*
X102982Y37307D01*
X103133Y37207D01*
X103317Y37114D01*
X103326D01*
X103342Y37106D01*
X103367Y37097D01*
X103409Y37081D01*
X103460Y37064D01*
X103518Y37047D01*
X103585Y37031D01*
X103661Y37014D01*
X103753Y36989D01*
X103845Y36972D01*
X104063Y36938D01*
X104306Y36913D01*
X104574Y36905D01*
X104683D01*
X104759Y36913D01*
X104851Y36922D01*
X104951Y36930D01*
X105069Y36947D01*
X105194Y36972D01*
X105471Y37031D01*
X105613Y37072D01*
X105747Y37114D01*
X105890Y37173D01*
X106024Y37240D01*
X106150Y37315D01*
X106267Y37408D01*
X106275Y37416D01*
X106292Y37433D01*
X106326Y37458D01*
X106359Y37500D01*
X106410Y37558D01*
X106460Y37626D01*
X106518Y37701D01*
X106577Y37785D01*
X106636Y37885D01*
X106694Y37994D01*
X106753Y38120D01*
X106812Y38254D01*
X106854Y38396D01*
X106904Y38556D01*
X106937Y38723D01*
X106963Y38899D01*
X105823Y39008D01*
Y39000D01*
X105815Y38983D01*
Y38949D01*
X105806Y38916D01*
X105773Y38815D01*
X105731Y38690D01*
X105680Y38547D01*
X105605Y38405D01*
X105521Y38279D01*
X105412Y38162D01*
X105395Y38153D01*
X105354Y38120D01*
X105287Y38078D01*
X105186Y38028D01*
X105060Y37977D01*
X104918Y37936D01*
X104750Y37902D01*
X104558Y37894D01*
X104465D01*
X104365Y37910D01*
X104239Y37927D01*
X104105Y37952D01*
X103963Y37994D01*
X103828Y38053D01*
X103711Y38128D01*
X103694Y38137D01*
X103661Y38170D01*
X103619Y38220D01*
X103560Y38287D01*
X103510Y38371D01*
X103460Y38472D01*
X103426Y38572D01*
X103418Y38690D01*
Y38698D01*
Y38723D01*
X103426Y38765D01*
X103435Y38815D01*
X103451Y38866D01*
X103468Y38924D01*
X103502Y38983D01*
X103543Y39042D01*
X103552Y39050D01*
X103569Y39067D01*
X103594Y39092D01*
X103636Y39125D01*
X103694Y39167D01*
X103770Y39209D01*
X103854Y39251D01*
X103963Y39293D01*
X103971D01*
X104004Y39310D01*
X104063Y39327D01*
X104105Y39343D01*
X104155Y39352D01*
X104214Y39369D01*
X104281Y39394D01*
X104356Y39410D01*
X104440Y39435D01*
X104541Y39461D01*
X104650Y39486D01*
X104767Y39519D01*
X104901Y39553D01*
X104909D01*
X104943Y39561D01*
X104993Y39578D01*
X105052Y39595D01*
X105127Y39620D01*
X105219Y39645D01*
X105312Y39679D01*
X105421Y39712D01*
X105639Y39796D01*
X105848Y39896D01*
X105957Y39947D01*
X106049Y40005D01*
X106141Y40064D01*
X106217Y40123D01*
X106225Y40131D01*
X106242Y40148D01*
X106267Y40173D01*
X106300Y40207D01*
X106342Y40257D01*
X106384Y40315D01*
X106435Y40374D01*
X106476Y40450D01*
X106577Y40626D01*
X106661Y40827D01*
X106694Y40936D01*
X106720Y41045D01*
X106736Y41170D01*
X106745Y41296D01*
Y41304D01*
Y41313D01*
Y41338D01*
Y41371D01*
X106728Y41455D01*
X106711Y41564D01*
X106686Y41690D01*
X106644Y41832D01*
X106585Y41983D01*
X106502Y42125D01*
Y42134D01*
X106493Y42142D01*
X106451Y42193D01*
X106401Y42260D01*
X106317Y42343D01*
X106217Y42436D01*
X106091Y42536D01*
X105949Y42628D01*
X105781Y42712D01*
X105773D01*
X105756Y42720D01*
X105731Y42729D01*
X105697Y42746D01*
X105647Y42762D01*
X105597Y42779D01*
X105530Y42796D01*
X105454Y42821D01*
X105287Y42855D01*
X105094Y42888D01*
X104876Y42913D01*
X104633Y42922D01*
X106963D01*
D01*
D02*
G37*
G36*
X99085Y41313D02*
X92901D01*
D01*
X94208D01*
X94124Y41304D01*
X94015Y41287D01*
X93890Y41262D01*
X93764Y41229D01*
X93630Y41187D01*
X93504Y41120D01*
X93488Y41111D01*
X93454Y41086D01*
X93395Y41045D01*
X93320Y40986D01*
X93244Y40902D01*
X93161Y40810D01*
X93085Y40701D01*
X93018Y40567D01*
X93010Y40558D01*
X93002Y40517D01*
X92985Y40450D01*
X92960Y40357D01*
X92934Y40240D01*
X92918Y40089D01*
X92909Y39905D01*
X92901Y39695D01*
Y37014D01*
X94015D01*
Y39410D01*
Y39419D01*
Y39435D01*
Y39469D01*
Y39511D01*
X94024Y39620D01*
X94032Y39746D01*
X94041Y39880D01*
X94066Y40014D01*
X94091Y40131D01*
X94116Y40173D01*
X94133Y40215D01*
X94141Y40223D01*
X94166Y40257D01*
X94200Y40290D01*
X94250Y40341D01*
X94317Y40383D01*
X94401Y40424D01*
X94502Y40450D01*
X94610Y40458D01*
X94652D01*
X94694Y40450D01*
X94753Y40441D01*
X94820Y40424D01*
X94895Y40399D01*
X94979Y40366D01*
X95055Y40315D01*
X95063Y40307D01*
X95088Y40290D01*
X95122Y40257D01*
X95164Y40207D01*
X95214Y40148D01*
X95264Y40081D01*
X95306Y39997D01*
X95348Y39896D01*
Y39880D01*
X95365Y39846D01*
X95373Y39779D01*
X95390Y39687D01*
X95407Y39561D01*
X95415Y39410D01*
X95432Y39234D01*
Y39025D01*
Y37014D01*
X96546D01*
Y39310D01*
Y39318D01*
Y39335D01*
Y39369D01*
Y39410D01*
Y39511D01*
X96555Y39637D01*
X96563Y39771D01*
X96571Y39896D01*
X96588Y40014D01*
X96605Y40064D01*
X96613Y40098D01*
Y40106D01*
X96622Y40131D01*
X96638Y40165D01*
X96655Y40198D01*
X96714Y40290D01*
X96756Y40332D01*
X96798Y40366D01*
X96806Y40374D01*
X96823Y40383D01*
X96848Y40399D01*
X96881Y40416D01*
X96932Y40433D01*
X96990Y40441D01*
X97057Y40458D01*
X97175D01*
X97225Y40450D01*
X97284Y40441D01*
X97359Y40424D01*
X97435Y40399D01*
X97510Y40366D01*
X97594Y40315D01*
X97602Y40307D01*
X97627Y40290D01*
X97661Y40257D01*
X97703Y40215D01*
X97753Y40156D01*
X97803Y40089D01*
X97845Y40005D01*
X97887Y39913D01*
Y39905D01*
X97904Y39863D01*
X97912Y39796D01*
X97929Y39712D01*
X97946Y39586D01*
X97954Y39444D01*
X97971Y39260D01*
Y39050D01*
Y37014D01*
X99085D01*
Y41313D01*
D02*
G37*
G36*
X80222Y42813D02*
X74406D01*
D01*
X76736D01*
X74406Y37014D01*
X75672D01*
X76174Y38329D01*
X78504D01*
X78982Y37014D01*
X80222D01*
X77976Y42813D01*
X80222D01*
D01*
D02*
G37*
G36*
X60320Y41313D02*
X57604D01*
D01*
X58275D01*
X58199Y41304D01*
X58107Y41287D01*
X57990Y41262D01*
X57864Y41221D01*
X57738Y41170D01*
X57604Y41095D01*
D01*
X57956Y40131D01*
X57965Y40139D01*
X58007Y40156D01*
X58057Y40190D01*
X58124Y40223D01*
X58208Y40257D01*
X58292Y40290D01*
X58384Y40307D01*
X58476Y40315D01*
X58509D01*
X58560Y40307D01*
X58610Y40299D01*
X58669Y40282D01*
X58736Y40257D01*
X58803Y40223D01*
X58870Y40181D01*
X58878Y40173D01*
X58895Y40156D01*
X58928Y40123D01*
X58962Y40072D01*
X59004Y40014D01*
X59046Y39930D01*
X59088Y39829D01*
X59121Y39712D01*
Y39695D01*
X59130Y39670D01*
X59138Y39645D01*
Y39603D01*
X59146Y39553D01*
X59155Y39486D01*
X59163Y39410D01*
X59171Y39327D01*
X59180Y39218D01*
X59188Y39109D01*
Y38975D01*
X59197Y38832D01*
X59205Y38673D01*
Y38497D01*
Y38304D01*
Y37014D01*
X60320D01*
Y41313D01*
D02*
G37*
G36*
X92054Y41313D02*
X87714D01*
X89800D01*
X89733Y41304D01*
X89649Y41296D01*
X89557Y41279D01*
X89448Y41262D01*
X89339Y41237D01*
X89214Y41204D01*
X89088Y41162D01*
X88962Y41111D01*
X88828Y41053D01*
X88694Y40977D01*
X88568Y40894D01*
X88443Y40802D01*
X88325Y40692D01*
X88317Y40684D01*
X88300Y40667D01*
X88267Y40626D01*
X88233Y40584D01*
X88183Y40517D01*
X88133Y40450D01*
X88074Y40357D01*
X88015Y40265D01*
X87965Y40156D01*
X87906Y40039D01*
X87856Y39905D01*
X87806Y39771D01*
X87772Y39620D01*
X87739Y39469D01*
X87722Y39301D01*
X87714Y39125D01*
Y39033D01*
X87722Y38966D01*
X87730Y38882D01*
X87747Y38790D01*
X87764Y38681D01*
X87789Y38572D01*
X87823Y38447D01*
X87865Y38321D01*
X87915Y38187D01*
X87973Y38053D01*
X88049Y37919D01*
X88133Y37793D01*
X88225Y37667D01*
X88334Y37542D01*
X88342Y37533D01*
X88359Y37516D01*
X88393Y37483D01*
X88443Y37441D01*
X88501Y37399D01*
X88577Y37349D01*
X88661Y37290D01*
X88753Y37232D01*
X88862Y37173D01*
X88979Y37114D01*
X89105Y37064D01*
X89247Y37022D01*
X89390Y36980D01*
X89549Y36947D01*
X89708Y36930D01*
X89884Y36922D01*
X90051D01*
X89943D01*
X89985Y36930D01*
X90035D01*
X90094Y36938D01*
X90236Y36955D01*
X90412Y36989D01*
X90596Y37031D01*
X90789Y37097D01*
X90990Y37181D01*
X90999D01*
X91015Y37190D01*
X91040Y37207D01*
X91074Y37232D01*
X91166Y37290D01*
X91284Y37374D01*
X91409Y37483D01*
X91543Y37617D01*
X91669Y37768D01*
X91786Y37944D01*
Y37952D01*
X91795Y37969D01*
X91812Y37994D01*
X91828Y38036D01*
X91845Y38086D01*
X91870Y38145D01*
X91895Y38212D01*
X91920Y38287D01*
X91946Y38371D01*
X91971Y38464D01*
X92013Y38673D01*
X92046Y38916D01*
X92054Y39176D01*
Y36922D01*
D01*
Y41313D01*
D02*
G37*
G36*
X65104Y41313D02*
X61183D01*
X63093D01*
X63026Y41304D01*
X62951Y41296D01*
X62859Y41279D01*
X62758Y41262D01*
X62649Y41237D01*
X62532Y41204D01*
X62414Y41162D01*
X62289Y41111D01*
X62163Y41045D01*
X62046Y40977D01*
X61928Y40894D01*
X61811Y40793D01*
X61711Y40684D01*
X61702Y40676D01*
X61685Y40659D01*
X61660Y40617D01*
X61627Y40567D01*
X61585Y40500D01*
X61543Y40424D01*
X61493Y40324D01*
X61442Y40215D01*
X61392Y40089D01*
X61342Y39947D01*
X61300Y39796D01*
X61258Y39620D01*
X61225Y39435D01*
X61199Y39234D01*
X61183Y39025D01*
Y38790D01*
X63965D01*
Y38782D01*
Y38765D01*
Y38740D01*
X63956Y38706D01*
X63948Y38623D01*
X63931Y38505D01*
X63898Y38388D01*
X63847Y38254D01*
X63789Y38128D01*
X63705Y38019D01*
X63697Y38011D01*
X63655Y37977D01*
X63604Y37936D01*
X63529Y37885D01*
X63437Y37835D01*
X63319Y37793D01*
X63194Y37760D01*
X63060Y37751D01*
X63018D01*
X62967Y37760D01*
X62909Y37768D01*
X62842Y37785D01*
X62766Y37810D01*
X62691Y37843D01*
X62624Y37894D01*
X62616Y37902D01*
X62590Y37919D01*
X62557Y37952D01*
X62523Y38003D01*
X62473Y38070D01*
X62431Y38145D01*
X62389Y38246D01*
X62347Y38355D01*
X61241Y38170D01*
Y38162D01*
X61250Y38145D01*
X61266Y38111D01*
X61283Y38070D01*
X61308Y38019D01*
X61333Y37961D01*
X61409Y37827D01*
X61501Y37676D01*
X61618Y37516D01*
X61761Y37374D01*
X61920Y37240D01*
X61928D01*
X61937Y37223D01*
X61970Y37215D01*
X62004Y37190D01*
X62046Y37165D01*
X62104Y37139D01*
X62163Y37114D01*
X62239Y37081D01*
X62406Y37022D01*
X62599Y36972D01*
X62825Y36938D01*
X63068Y36922D01*
X63118D01*
X63169Y36930D01*
X63244D01*
X63336Y36947D01*
X63445Y36963D01*
X63563Y36980D01*
X63680Y37014D01*
X63814Y37047D01*
X63948Y37097D01*
X64082Y37156D01*
X64216Y37223D01*
X64350Y37307D01*
X64476Y37399D01*
X64585Y37508D01*
X64694Y37634D01*
X64702Y37642D01*
X64711Y37659D01*
X64727Y37692D01*
X64761Y37734D01*
X64786Y37793D01*
X64820Y37860D01*
X64861Y37936D01*
X64895Y38028D01*
X64937Y38128D01*
X64970Y38237D01*
X65012Y38355D01*
X65037Y38489D01*
X65062Y38623D01*
X65088Y38765D01*
X65096Y38924D01*
X65104Y39084D01*
Y36922D01*
D01*
Y41313D01*
D02*
G37*
G36*
X80922Y35678D02*
D01*
Y29871D01*
X80913Y29904D01*
X80905Y29946D01*
X80897Y29996D01*
X80888Y30055D01*
X80855Y30206D01*
X80804Y30373D01*
X80737Y30558D01*
X80654Y30759D01*
X80545Y30952D01*
Y30960D01*
X80528Y30977D01*
X80511Y31010D01*
X80477Y31044D01*
X80444Y31102D01*
X80394Y31161D01*
X80335Y31236D01*
X80268Y31320D01*
X80193Y31421D01*
X80101Y31521D01*
X80000Y31639D01*
X79883Y31765D01*
X79757Y31890D01*
X79614Y32033D01*
X79464Y32184D01*
X79296Y32343D01*
X79288Y32351D01*
X79263Y32376D01*
X79229Y32410D01*
X79179Y32460D01*
X79112Y32510D01*
X79045Y32577D01*
X78894Y32728D01*
X78743Y32887D01*
X78592Y33047D01*
X78525Y33114D01*
X78458Y33189D01*
X78408Y33248D01*
X78374Y33298D01*
X78366Y33315D01*
X78341Y33357D01*
X78299Y33424D01*
X78257Y33516D01*
X78215Y33617D01*
X78173Y33734D01*
X78148Y33851D01*
X78140Y33977D01*
Y33985D01*
Y33994D01*
Y34036D01*
X78148Y34111D01*
X78165Y34195D01*
X78190Y34287D01*
X78223Y34379D01*
X78274Y34471D01*
X78341Y34555D01*
X78349Y34563D01*
X78374Y34589D01*
X78425Y34622D01*
X78483Y34656D01*
X78567Y34689D01*
X78659Y34723D01*
X78768Y34748D01*
X78894Y34756D01*
X78952D01*
X79019Y34748D01*
X79095Y34731D01*
X79187Y34706D01*
X79279Y34664D01*
X79371Y34614D01*
X79455Y34547D01*
X79464Y34538D01*
X79489Y34505D01*
X79522Y34455D01*
X79556Y34379D01*
X79598Y34287D01*
X79631Y34161D01*
X79665Y34019D01*
X79681Y33851D01*
X80788Y33960D01*
Y33968D01*
X80779Y34002D01*
Y34044D01*
X80762Y34111D01*
X80754Y34186D01*
X80729Y34270D01*
X80704Y34362D01*
X80679Y34471D01*
X80595Y34681D01*
X80494Y34899D01*
X80427Y35008D01*
X80352Y35108D01*
X80268Y35192D01*
X80176Y35276D01*
X80168Y35284D01*
X80151Y35293D01*
X80126Y35309D01*
X80084Y35343D01*
X80033Y35368D01*
X79966Y35401D01*
X79899Y35443D01*
X79816Y35477D01*
X79723Y35519D01*
X79623Y35552D01*
X79405Y35619D01*
X79145Y35661D01*
X79011Y35670D01*
X78869Y35678D01*
X80922D01*
X77025D01*
X78785D01*
X78726Y35670D01*
X78651Y35661D01*
X78567Y35653D01*
X78475Y35636D01*
X78374Y35619D01*
X78156Y35561D01*
X77938Y35477D01*
X77821Y35427D01*
X77720Y35368D01*
X77612Y35293D01*
X77519Y35209D01*
X77511Y35200D01*
X77494Y35192D01*
X77478Y35158D01*
X77444Y35125D01*
X77402Y35083D01*
X77360Y35024D01*
X77318Y34966D01*
X77268Y34890D01*
X77184Y34723D01*
X77100Y34530D01*
X77067Y34421D01*
X77050Y34304D01*
X77033Y34178D01*
X77025Y34052D01*
Y33985D01*
X77033Y33910D01*
X77042Y33818D01*
X77059Y33700D01*
X77084Y33575D01*
X77117Y33441D01*
X77167Y33306D01*
X77176Y33290D01*
X77193Y33248D01*
X77226Y33172D01*
X77276Y33080D01*
X77335Y32971D01*
X77411Y32846D01*
X77503Y32711D01*
X77612Y32569D01*
X77620Y32561D01*
X77653Y32519D01*
X77704Y32460D01*
X77779Y32376D01*
X77880Y32276D01*
X78005Y32142D01*
X78156Y31999D01*
X78341Y31823D01*
X78349Y31815D01*
X78366Y31806D01*
X78391Y31781D01*
X78425Y31748D01*
X78517Y31664D01*
X78626Y31563D01*
X78734Y31454D01*
X78843Y31345D01*
X78944Y31253D01*
X78978Y31211D01*
X79011Y31178D01*
X79019Y31170D01*
X79036Y31153D01*
X79061Y31119D01*
X79095Y31077D01*
X79170Y30985D01*
X79237Y30876D01*
X77025D01*
Y29845D01*
X80922D01*
Y35678D01*
D02*
G37*
G36*
X76413D02*
D01*
Y29871D01*
X76405Y29904D01*
X76397Y29946D01*
X76388Y29996D01*
X76380Y30055D01*
X76346Y30206D01*
X76296Y30373D01*
X76229Y30558D01*
X76145Y30759D01*
X76036Y30952D01*
Y30960D01*
X76019Y30977D01*
X76003Y31010D01*
X75969Y31044D01*
X75936Y31102D01*
X75885Y31161D01*
X75827Y31236D01*
X75760Y31320D01*
X75684Y31421D01*
X75592Y31521D01*
X75491Y31639D01*
X75374Y31765D01*
X75248Y31890D01*
X75106Y32033D01*
X74955Y32184D01*
X74787Y32343D01*
X74779Y32351D01*
X74754Y32376D01*
X74721Y32410D01*
X74670Y32460D01*
X74603Y32510D01*
X74536Y32577D01*
X74385Y32728D01*
X74234Y32887D01*
X74084Y33047D01*
X74017Y33114D01*
X73949Y33189D01*
X73899Y33248D01*
X73866Y33298D01*
X73857Y33315D01*
X73832Y33357D01*
X73790Y33424D01*
X73748Y33516D01*
X73707Y33617D01*
X73665Y33734D01*
X73640Y33851D01*
X73631Y33977D01*
Y33985D01*
Y33994D01*
Y34036D01*
X73640Y34111D01*
X73656Y34195D01*
X73681Y34287D01*
X73715Y34379D01*
X73765Y34471D01*
X73832Y34555D01*
X73841Y34563D01*
X73866Y34589D01*
X73916Y34622D01*
X73975Y34656D01*
X74059Y34689D01*
X74151Y34723D01*
X74260Y34748D01*
X74385Y34756D01*
X74444D01*
X74511Y34748D01*
X74586Y34731D01*
X74679Y34706D01*
X74771Y34664D01*
X74863Y34614D01*
X74947Y34547D01*
X74955Y34538D01*
X74980Y34505D01*
X75014Y34455D01*
X75047Y34379D01*
X75089Y34287D01*
X75123Y34161D01*
X75156Y34019D01*
X75173Y33851D01*
X76279Y33960D01*
Y33968D01*
X76271Y34002D01*
Y34044D01*
X76254Y34111D01*
X76246Y34186D01*
X76221Y34270D01*
X76195Y34362D01*
X76170Y34471D01*
X76086Y34681D01*
X75986Y34899D01*
X75919Y35008D01*
X75843Y35108D01*
X75760Y35192D01*
X75667Y35276D01*
X75659Y35284D01*
X75642Y35293D01*
X75617Y35309D01*
X75575Y35343D01*
X75525Y35368D01*
X75458Y35401D01*
X75391Y35443D01*
X75307Y35477D01*
X75215Y35519D01*
X75114Y35552D01*
X74897Y35619D01*
X74637Y35661D01*
X74503Y35670D01*
X74360Y35678D01*
X72517D01*
X74276D01*
X74218Y35670D01*
X74142Y35661D01*
X74059Y35653D01*
X73966Y35636D01*
X73866Y35619D01*
X73648Y35561D01*
X73430Y35477D01*
X73313Y35427D01*
X73212Y35368D01*
X73103Y35293D01*
X73011Y35209D01*
X73003Y35200D01*
X72986Y35192D01*
X72969Y35158D01*
X72936Y35125D01*
X72894Y35083D01*
X72852Y35024D01*
X72810Y34966D01*
X72760Y34890D01*
X72676Y34723D01*
X72592Y34530D01*
X72558Y34421D01*
X72542Y34304D01*
X72525Y34178D01*
X72517Y34052D01*
Y33985D01*
X72525Y33910D01*
X72533Y33818D01*
X72550Y33700D01*
X72575Y33575D01*
X72609Y33441D01*
X72659Y33306D01*
X72667Y33290D01*
X72684Y33248D01*
X72718Y33172D01*
X72768Y33080D01*
X72827Y32971D01*
X72902Y32846D01*
X72994Y32711D01*
X73103Y32569D01*
X73111Y32561D01*
X73145Y32519D01*
X73195Y32460D01*
X73271Y32376D01*
X73371Y32276D01*
X73497Y32142D01*
X73648Y31999D01*
X73832Y31823D01*
X73841Y31815D01*
X73857Y31806D01*
X73883Y31781D01*
X73916Y31748D01*
X74008Y31664D01*
X74117Y31563D01*
X74226Y31454D01*
X74335Y31345D01*
X74436Y31253D01*
X74469Y31211D01*
X74503Y31178D01*
X74511Y31170D01*
X74528Y31153D01*
X74553Y31119D01*
X74586Y31077D01*
X74662Y30985D01*
X74729Y30876D01*
X72517D01*
Y29845D01*
X76413D01*
Y35678D01*
D02*
G37*
G36*
X87542Y35569D02*
X83737D01*
Y34765D01*
X83746Y34756D01*
X83763Y34739D01*
X83788Y34714D01*
X83821Y34681D01*
X83863Y34631D01*
X83913Y34572D01*
X83972Y34505D01*
X84039Y34421D01*
X84106Y34329D01*
X84181Y34228D01*
X84265Y34119D01*
X84349Y34002D01*
X84433Y33868D01*
X84517Y33734D01*
X84609Y33583D01*
X84701Y33424D01*
X84710Y33415D01*
X84726Y33382D01*
X84751Y33340D01*
X84785Y33273D01*
X84818Y33198D01*
X84869Y33097D01*
X84919Y32988D01*
X84978Y32871D01*
X85036Y32737D01*
X85095Y32594D01*
X85162Y32443D01*
X85221Y32284D01*
X85338Y31940D01*
X85447Y31580D01*
Y31572D01*
X85455Y31538D01*
X85472Y31488D01*
X85489Y31413D01*
X85506Y31329D01*
X85522Y31236D01*
X85548Y31119D01*
X85573Y31002D01*
X85598Y30868D01*
X85615Y30734D01*
X85656Y30440D01*
X85681Y30139D01*
X85690Y29845D01*
X86762D01*
Y29862D01*
Y29896D01*
X86754Y29963D01*
Y30055D01*
X86746Y30164D01*
X86729Y30290D01*
X86712Y30440D01*
X86687Y30600D01*
X86662Y30776D01*
X86629Y30968D01*
X86587Y31170D01*
X86545Y31387D01*
X86486Y31605D01*
X86427Y31831D01*
X86352Y32058D01*
X86268Y32292D01*
X86260Y32309D01*
X86243Y32351D01*
X86218Y32418D01*
X86184Y32502D01*
X86134Y32611D01*
X86075Y32745D01*
X86008Y32887D01*
X85933Y33047D01*
X85849Y33214D01*
X85757Y33390D01*
X85656Y33583D01*
X85539Y33767D01*
X85296Y34161D01*
X85019Y34538D01*
X87542D01*
Y30734D01*
Y35569D01*
D02*
G37*
G36*
X83385Y35745D02*
X81114D01*
X82564Y29745D01*
X81114D01*
X83385D01*
X81952Y35745D01*
X83385D01*
D02*
G37*
G36*
X92050Y35678D02*
X88288D01*
D01*
X90089D01*
X90031Y35670D01*
X89964Y35661D01*
X89880Y35644D01*
X89796Y35628D01*
X89696Y35603D01*
X89587Y35569D01*
X89486Y35527D01*
X89377Y35485D01*
X89268Y35427D01*
X89159Y35351D01*
X89050Y35276D01*
X88950Y35184D01*
X88858Y35075D01*
X88849Y35066D01*
X88832Y35041D01*
X88807Y34999D01*
X88765Y34940D01*
X88723Y34857D01*
X88673Y34756D01*
X88623Y34647D01*
X88573Y34505D01*
X88522Y34354D01*
X88464Y34178D01*
X88422Y33985D01*
X88380Y33767D01*
X88338Y33533D01*
X88313Y33281D01*
X88296Y33005D01*
X88288Y32703D01*
Y32544D01*
X88296Y32435D01*
X88305Y32301D01*
X88321Y32142D01*
X88338Y31974D01*
X88355Y31790D01*
X88388Y31597D01*
X88430Y31396D01*
X88472Y31203D01*
X88531Y31010D01*
X88589Y30817D01*
X88673Y30642D01*
X88757Y30474D01*
X88858Y30332D01*
X88866Y30323D01*
X88883Y30306D01*
X88908Y30273D01*
X88941Y30239D01*
X88992Y30197D01*
X89050Y30147D01*
X89126Y30088D01*
X89201Y30038D01*
X89293Y29980D01*
X89385Y29921D01*
X89494Y29871D01*
X89612Y29829D01*
X89737Y29795D01*
X89880Y29762D01*
X90022Y29745D01*
X90173Y29737D01*
X90207D01*
X90257Y29745D01*
X90316D01*
X90383Y29753D01*
X90466Y29770D01*
X90559Y29787D01*
X90659Y29820D01*
X90768Y29854D01*
X90877Y29896D01*
X90994Y29946D01*
X91103Y30013D01*
X91221Y30080D01*
X91330Y30172D01*
X91439Y30264D01*
X91539Y30382D01*
X91548Y30390D01*
X91564Y30415D01*
X91589Y30457D01*
X91615Y30507D01*
X91657Y30583D01*
X91698Y30675D01*
X91749Y30792D01*
X91790Y30918D01*
X91841Y31069D01*
X91891Y31236D01*
X91933Y31429D01*
X91966Y31639D01*
X92000Y31873D01*
X92025Y32133D01*
X92042Y32410D01*
X92050Y32711D01*
Y35678D01*
D02*
G37*
%LPD*%
G36*
X84114Y56227D02*
X84173Y56219D01*
X84249Y56202D01*
X84324Y56177D01*
X84399Y56144D01*
X84483Y56093D01*
X84492Y56085D01*
X84517Y56068D01*
X84550Y56035D01*
X84592Y55993D01*
X84642Y55934D01*
X84693Y55867D01*
X84735Y55783D01*
X84777Y55691D01*
Y55683D01*
X84793Y55641D01*
X84802Y55574D01*
X84818Y55490D01*
X84835Y55364D01*
X84843Y55222D01*
X84860Y55037D01*
Y54828D01*
Y52792D01*
X83436D01*
Y55088D01*
Y55096D01*
Y55113D01*
Y55146D01*
Y55188D01*
Y55289D01*
X83444Y55414D01*
X83452Y55549D01*
X83461Y55674D01*
X83478Y55792D01*
X83494Y55842D01*
X83503Y55875D01*
Y55884D01*
X83511Y55909D01*
X83528Y55942D01*
X83545Y55976D01*
X83603Y56068D01*
X83645Y56110D01*
X83687Y56144D01*
X83696Y56152D01*
X83712Y56160D01*
X83737Y56177D01*
X83771Y56194D01*
X83821Y56211D01*
X83880Y56219D01*
X83947Y56236D01*
X84064D01*
X84114Y56227D01*
D02*
G37*
G36*
X55681Y54786D02*
X55731Y54778D01*
X55807Y54752D01*
X55899Y54727D01*
X56025Y54694D01*
X56159Y54660D01*
X56326Y54627D01*
X56343D01*
X56368Y54618D01*
X56402Y54610D01*
X56477Y54593D01*
X56578Y54568D01*
X56678Y54543D01*
X56779Y54510D01*
X56863Y54468D01*
X56930Y54434D01*
X56938Y54426D01*
X56963Y54409D01*
X56997Y54375D01*
X57030Y54334D01*
X57072Y54275D01*
X57106Y54208D01*
X57131Y54132D01*
X57139Y54049D01*
Y54040D01*
Y54007D01*
X57131Y53965D01*
X57114Y53914D01*
X57097Y53847D01*
X57072Y53780D01*
X57030Y53713D01*
X56972Y53646D01*
X56963Y53638D01*
X56938Y53621D01*
X56905Y53596D01*
X56846Y53562D01*
X56787Y53529D01*
X56712Y53504D01*
X56620Y53487D01*
X56528Y53479D01*
X56477D01*
X56419Y53487D01*
X56343Y53504D01*
X56251Y53529D01*
X56159Y53562D01*
X56050Y53604D01*
X55949Y53671D01*
X55941Y53680D01*
X55916Y53697D01*
X55882Y53730D01*
X55840Y53772D01*
X55799Y53831D01*
X55757Y53889D01*
X55715Y53965D01*
X55690Y54040D01*
Y54049D01*
X55681Y54065D01*
X55673Y54107D01*
X55664Y54158D01*
X55656Y54233D01*
X55648Y54325D01*
X55639Y54442D01*
Y54576D01*
Y54803D01*
X55648D01*
X55681Y54786D01*
D02*
G37*
G36*
X77151Y56219D02*
X77235Y56202D01*
X77327Y56169D01*
X77427Y56127D01*
X77528Y56060D01*
X77620Y55968D01*
X77628Y55959D01*
X77653Y55917D01*
X77695Y55859D01*
X77737Y55775D01*
X77788Y55674D01*
X77821Y55549D01*
X77846Y55406D01*
X77855Y55247D01*
X76195D01*
Y55255D01*
Y55272D01*
Y55289D01*
X76204Y55322D01*
X76212Y55414D01*
X76229Y55515D01*
X76262Y55632D01*
X76304Y55758D01*
X76371Y55875D01*
X76447Y55976D01*
X76455Y55984D01*
X76489Y56018D01*
X76539Y56060D01*
X76606Y56110D01*
X76690Y56152D01*
X76790Y56194D01*
X76899Y56227D01*
X77025Y56236D01*
X77084D01*
X77151Y56219D01*
D02*
G37*
G36*
X76933Y57082D02*
X76857Y57074D01*
X76765Y57057D01*
X76665Y57040D01*
X76556Y57015D01*
X76438Y56982D01*
X76321Y56940D01*
X76195Y56889D01*
X76070Y56822D01*
X75952Y56755D01*
X75835Y56672D01*
X75718Y56571D01*
X75617Y56462D01*
X75609Y56454D01*
X75592Y56437D01*
X75567Y56395D01*
X75533Y56345D01*
X75491Y56278D01*
X75450Y56202D01*
X75399Y56102D01*
X75349Y55993D01*
X75299Y55867D01*
X75248Y55725D01*
X75207Y55574D01*
X75165Y55398D01*
X75131Y55213D01*
X75106Y55012D01*
X75089Y54803D01*
Y57091D01*
X77000D01*
X76933Y57082D01*
D02*
G37*
G36*
X42005Y56219D02*
X42089Y56202D01*
X42181Y56169D01*
X42281Y56127D01*
X42382Y56060D01*
X42474Y55968D01*
X42483Y55959D01*
X42508Y55917D01*
X42550Y55859D01*
X42592Y55775D01*
X42642Y55674D01*
X42675Y55549D01*
X42700Y55406D01*
X42709Y55247D01*
X41050D01*
Y55255D01*
Y55272D01*
Y55289D01*
X41058Y55322D01*
X41066Y55414D01*
X41083Y55515D01*
X41117Y55632D01*
X41159Y55758D01*
X41226Y55875D01*
X41301Y55976D01*
X41309Y55984D01*
X41343Y56018D01*
X41393Y56060D01*
X41460Y56110D01*
X41544Y56152D01*
X41645Y56194D01*
X41754Y56227D01*
X41879Y56236D01*
X41938D01*
X42005Y56219D01*
D02*
G37*
G36*
X90710Y57082D02*
X90617Y57074D01*
X90508Y57049D01*
X90391Y57024D01*
X90274Y56982D01*
X90156Y56923D01*
X90140Y56915D01*
X90106Y56889D01*
X90048Y56856D01*
X89981Y56797D01*
X89905Y56722D01*
X89821Y56638D01*
X89737Y56529D01*
X89662Y56412D01*
X89645Y56428D01*
X89612Y56470D01*
X89561Y56529D01*
X89486Y56604D01*
X89394Y56688D01*
X89293Y56772D01*
X89184Y56856D01*
X89067Y56923D01*
X89050Y56931D01*
X89008Y56948D01*
X88941Y56973D01*
X88858Y57007D01*
X88757Y57040D01*
X88640Y57065D01*
X88514Y57082D01*
X88380Y57091D01*
X90785D01*
X90710Y57082D01*
D02*
G37*
G36*
X88221D02*
X88112Y57065D01*
X87986Y57040D01*
X87860Y57007D01*
X87726Y56965D01*
X87600Y56898D01*
X87584Y56889D01*
X87550Y56864D01*
X87492Y56822D01*
X87416Y56764D01*
X87341Y56680D01*
X87257Y56588D01*
X87182Y56479D01*
X87115Y56345D01*
X87106Y56336D01*
X87098Y56294D01*
X87081Y56227D01*
X87056Y56135D01*
X87031Y56018D01*
X87014Y55867D01*
X87006Y55683D01*
X86997Y55473D01*
Y57091D01*
X88305D01*
X88221Y57082D01*
D02*
G37*
G36*
X96215Y56177D02*
X96291Y56169D01*
X96391Y56144D01*
X96509Y56102D01*
X96634Y56043D01*
X96760Y55959D01*
X96877Y55850D01*
X96886Y55834D01*
X96919Y55792D01*
X96969Y55708D01*
X97020Y55607D01*
X97078Y55473D01*
X97120Y55306D01*
X97154Y55113D01*
X97171Y54895D01*
Y54887D01*
Y54870D01*
Y54836D01*
X97162Y54794D01*
Y54736D01*
X97154Y54677D01*
X97137Y54543D01*
X97095Y54384D01*
X97045Y54225D01*
X96978Y54065D01*
X96877Y53931D01*
X96860Y53914D01*
X96827Y53881D01*
X96760Y53831D01*
X96668Y53772D01*
X96567Y53705D01*
X96441Y53655D01*
X96299Y53621D01*
X96140Y53604D01*
X96098D01*
X96064Y53613D01*
X95989Y53621D01*
X95888Y53646D01*
X95771Y53688D01*
X95645Y53738D01*
X95528Y53822D01*
X95411Y53931D01*
X95394Y53948D01*
X95360Y53990D01*
X95319Y54074D01*
X95260Y54174D01*
X95201Y54317D01*
X95159Y54476D01*
X95126Y54677D01*
X95109Y54895D01*
Y54903D01*
Y54920D01*
Y54954D01*
X95117Y54996D01*
Y55046D01*
X95126Y55113D01*
X95143Y55247D01*
X95184Y55398D01*
X95235Y55557D01*
X95310Y55716D01*
X95411Y55850D01*
X95428Y55867D01*
X95461Y55901D01*
X95528Y55959D01*
X95612Y56018D01*
X95721Y56077D01*
X95838Y56135D01*
X95981Y56169D01*
X96140Y56186D01*
X96182D01*
X96215Y56177D01*
D02*
G37*
G36*
X85891Y47618D02*
X85975Y47601D01*
X86067Y47567D01*
X86168Y47526D01*
X86268Y47459D01*
X86360Y47366D01*
X86369Y47358D01*
X86394Y47316D01*
X86436Y47257D01*
X86478Y47174D01*
X86528Y47073D01*
X86561Y46947D01*
X86587Y46805D01*
X86595Y46646D01*
X84936D01*
Y46654D01*
Y46671D01*
Y46688D01*
X84944Y46721D01*
X84952Y46813D01*
X84969Y46914D01*
X85003Y47031D01*
X85045Y47157D01*
X85112Y47274D01*
X85187Y47375D01*
X85195Y47383D01*
X85229Y47417D01*
X85279Y47459D01*
X85346Y47509D01*
X85430Y47551D01*
X85531Y47593D01*
X85640Y47626D01*
X85765Y47635D01*
X85824D01*
X85891Y47618D01*
D02*
G37*
G36*
X85673Y48481D02*
X85598Y48472D01*
X85506Y48456D01*
X85405Y48439D01*
X85296Y48414D01*
X85179Y48380D01*
X85061Y48338D01*
X84936Y48288D01*
X84810Y48221D01*
X84693Y48154D01*
X84575Y48070D01*
X84458Y47970D01*
X84358Y47861D01*
X84349Y47852D01*
X84332Y47836D01*
X84307Y47794D01*
X84274Y47743D01*
X84232Y47676D01*
X84190Y47601D01*
X84140Y47501D01*
X84089Y47392D01*
X84039Y47266D01*
X83989Y47123D01*
X83947Y46973D01*
X83905Y46797D01*
X83872Y46612D01*
X83846Y46411D01*
X83829Y46202D01*
Y48489D01*
X85740D01*
X85673Y48481D01*
D02*
G37*
G36*
X92092Y47534D02*
X90952D01*
X90785Y47542D01*
X90609Y47551D01*
X90433Y47559D01*
X90358Y47567D01*
X90290Y47576D01*
X90223Y47593D01*
X90182Y47601D01*
X90173D01*
X90148Y47618D01*
X90106Y47635D01*
X90064Y47660D01*
X89955Y47735D01*
X89905Y47785D01*
X89855Y47844D01*
X89846Y47852D01*
X89838Y47878D01*
X89813Y47911D01*
X89788Y47961D01*
X89771Y48028D01*
X89746Y48104D01*
X89737Y48188D01*
X89729Y48280D01*
Y48297D01*
Y48330D01*
X89737Y48380D01*
X89746Y48447D01*
X89771Y48523D01*
X89796Y48598D01*
X89838Y48682D01*
X89888Y48749D01*
X89897Y48757D01*
X89913Y48783D01*
X89955Y48808D01*
X90006Y48850D01*
X90064Y48891D01*
X90140Y48925D01*
X90232Y48959D01*
X90332Y48984D01*
X90341D01*
X90366Y48992D01*
X90416D01*
X90492Y49000D01*
X90676D01*
X90751Y49009D01*
X92092D01*
Y47534D01*
D02*
G37*
G36*
X76849Y49093D02*
X76891Y49084D01*
X76950Y49068D01*
X77008Y49042D01*
X77075Y49009D01*
X77134Y48967D01*
X77142Y48959D01*
X77159Y48942D01*
X77184Y48908D01*
X77218Y48866D01*
X77260Y48799D01*
X77293Y48724D01*
X77335Y48623D01*
X77369Y48506D01*
Y48498D01*
X77377Y48489D01*
Y48456D01*
X77385Y48422D01*
X77394Y48372D01*
X77402Y48313D01*
X77411Y48246D01*
X77419Y48162D01*
X77436Y48062D01*
X77444Y47961D01*
X77452Y47836D01*
X77461Y47710D01*
X77469Y47559D01*
Y47408D01*
X77478Y47232D01*
Y47048D01*
Y47040D01*
Y47006D01*
Y46947D01*
Y46880D01*
Y46797D01*
X77469Y46704D01*
Y46595D01*
X77461Y46486D01*
X77452Y46252D01*
X77436Y46017D01*
X77427Y45908D01*
X77411Y45808D01*
X77394Y45715D01*
X77377Y45632D01*
X77369Y45615D01*
X77360Y45573D01*
X77335Y45506D01*
X77310Y45431D01*
X77268Y45347D01*
X77226Y45263D01*
X77176Y45188D01*
X77126Y45129D01*
X77117Y45120D01*
X77100Y45112D01*
X77067Y45087D01*
X77025Y45070D01*
X76975Y45045D01*
X76916Y45020D01*
X76849Y45012D01*
X76774Y45003D01*
X76740D01*
X76698Y45012D01*
X76656Y45020D01*
X76598Y45037D01*
X76539Y45053D01*
X76480Y45087D01*
X76422Y45129D01*
X76413Y45137D01*
X76397Y45154D01*
X76363Y45188D01*
X76329Y45238D01*
X76296Y45296D01*
X76254Y45380D01*
X76212Y45472D01*
X76179Y45590D01*
Y45598D01*
X76170Y45607D01*
Y45640D01*
X76162Y45674D01*
X76153Y45724D01*
X76145Y45783D01*
X76128Y45850D01*
X76120Y45933D01*
X76112Y46026D01*
X76095Y46134D01*
X76086Y46252D01*
X76078Y46386D01*
X76070Y46528D01*
Y46688D01*
X76061Y46864D01*
Y47048D01*
Y47056D01*
Y47090D01*
Y47148D01*
Y47216D01*
Y47299D01*
X76070Y47392D01*
Y47501D01*
X76078Y47609D01*
X76086Y47844D01*
X76103Y48070D01*
X76120Y48179D01*
X76137Y48288D01*
X76153Y48380D01*
X76170Y48456D01*
Y48464D01*
X76179Y48472D01*
X76187Y48514D01*
X76212Y48581D01*
X76237Y48665D01*
X76279Y48749D01*
X76321Y48833D01*
X76371Y48908D01*
X76422Y48967D01*
X76430Y48975D01*
X76447Y48992D01*
X76480Y49009D01*
X76522Y49034D01*
X76573Y49059D01*
X76631Y49084D01*
X76698Y49093D01*
X76774Y49101D01*
X76807D01*
X76849Y49093D01*
D02*
G37*
G36*
X84931Y40450D02*
X84999Y40441D01*
X85082Y40416D01*
X85166Y40391D01*
X85258Y40349D01*
X85351Y40299D01*
X85359Y40290D01*
X85384Y40273D01*
X85426Y40232D01*
X85476Y40190D01*
X85527Y40123D01*
X85577Y40056D01*
X85627Y39963D01*
X85661Y39871D01*
Y39863D01*
X85677Y39821D01*
X85686Y39754D01*
X85703Y39653D01*
X85711Y39595D01*
X85719Y39519D01*
X85728Y39444D01*
Y39352D01*
X85736Y39260D01*
X85744Y39151D01*
Y39033D01*
Y38908D01*
Y37014D01*
X84135D01*
Y39151D01*
Y39159D01*
Y39184D01*
Y39218D01*
Y39260D01*
Y39318D01*
Y39377D01*
X84144Y39519D01*
X84152Y39662D01*
X84169Y39813D01*
X84186Y39938D01*
X84194Y39989D01*
X84211Y40031D01*
Y40039D01*
X84228Y40064D01*
X84244Y40098D01*
X84269Y40148D01*
X84345Y40248D01*
X84387Y40299D01*
X84446Y40341D01*
X84454Y40349D01*
X84471Y40357D01*
X84504Y40374D01*
X84554Y40399D01*
X84613Y40424D01*
X84672Y40441D01*
X84747Y40450D01*
X84831Y40458D01*
X84881D01*
X84931Y40450D01*
D02*
G37*
G36*
X99085Y41221D02*
X98063D01*
Y40642D01*
X98055Y40651D01*
X98038Y40667D01*
X98004Y40701D01*
X97962Y40751D01*
X97912Y40802D01*
X97853Y40852D01*
X97778Y40919D01*
X97694Y40977D01*
X97602Y41036D01*
X97501Y41103D01*
X97284Y41212D01*
X97158Y41254D01*
X97032Y41287D01*
X96898Y41304D01*
X96756Y41313D01*
X99085D01*
Y41221D01*
D02*
G37*
G36*
X96613Y41304D02*
X96521Y41296D01*
X96412Y41271D01*
X96295Y41246D01*
X96178Y41204D01*
X96060Y41145D01*
X96043Y41137D01*
X96010Y41111D01*
X95951Y41078D01*
X95884Y41019D01*
X95809Y40944D01*
X95725Y40860D01*
X95641Y40751D01*
X95566Y40634D01*
X95549Y40651D01*
X95516Y40692D01*
X95465Y40751D01*
X95390Y40827D01*
X95298Y40910D01*
X95197Y40994D01*
X95088Y41078D01*
X94971Y41145D01*
X94954Y41153D01*
X94912Y41170D01*
X94845Y41195D01*
X94761Y41229D01*
X94661Y41262D01*
X94543Y41287D01*
X94418Y41304D01*
X94284Y41313D01*
X96689D01*
X96613Y41304D01*
D02*
G37*
G36*
X78152Y39310D02*
X76552D01*
X77364Y41464D01*
X78152Y39310D01*
D02*
G37*
G36*
X60320Y41221D02*
X59289D01*
Y40626D01*
X59280Y40634D01*
X59247Y40684D01*
X59197Y40760D01*
X59130Y40852D01*
X59062Y40944D01*
X58979Y41036D01*
X58903Y41120D01*
X58819Y41179D01*
X58811Y41187D01*
X58786Y41204D01*
X58736Y41221D01*
X58677Y41246D01*
X58610Y41271D01*
X58526Y41296D01*
X58442Y41304D01*
X58342Y41313D01*
X60320D01*
Y41221D01*
D02*
G37*
G36*
X92054Y39234D02*
X92046Y39268D01*
Y39318D01*
X92038Y39377D01*
X92021Y39519D01*
X91988Y39679D01*
X91937Y39854D01*
X91878Y40047D01*
X91786Y40240D01*
Y40248D01*
X91770Y40265D01*
X91761Y40290D01*
X91736Y40324D01*
X91669Y40416D01*
X91585Y40533D01*
X91476Y40659D01*
X91342Y40793D01*
X91191Y40919D01*
X91015Y41036D01*
X91007D01*
X90990Y41045D01*
X90965Y41061D01*
X90923Y41078D01*
X90881Y41103D01*
X90823Y41120D01*
X90756Y41145D01*
X90689Y41179D01*
X90521Y41229D01*
X90328Y41271D01*
X90119Y41304D01*
X89893Y41313D01*
X92054D01*
Y39234D01*
D02*
G37*
G36*
X89960Y40399D02*
X90035Y40391D01*
X90136Y40366D01*
X90253Y40324D01*
X90378Y40265D01*
X90504Y40181D01*
X90622Y40072D01*
X90630Y40056D01*
X90663Y40014D01*
X90714Y39930D01*
X90764Y39829D01*
X90823Y39695D01*
X90865Y39528D01*
X90898Y39335D01*
X90915Y39117D01*
Y39109D01*
Y39092D01*
Y39058D01*
X90907Y39017D01*
Y38958D01*
X90898Y38899D01*
X90881Y38765D01*
X90839Y38606D01*
X90789Y38447D01*
X90722Y38287D01*
X90622Y38153D01*
X90605Y38137D01*
X90571Y38103D01*
X90504Y38053D01*
X90412Y37994D01*
X90311Y37927D01*
X90186Y37877D01*
X90043Y37843D01*
X89884Y37827D01*
X89842D01*
X89809Y37835D01*
X89733Y37843D01*
X89633Y37868D01*
X89515Y37910D01*
X89390Y37961D01*
X89272Y38045D01*
X89155Y38153D01*
X89138Y38170D01*
X89105Y38212D01*
X89063Y38296D01*
X89004Y38396D01*
X88946Y38539D01*
X88904Y38698D01*
X88870Y38899D01*
X88853Y39117D01*
Y39125D01*
Y39142D01*
Y39176D01*
X88862Y39218D01*
Y39268D01*
X88870Y39335D01*
X88887Y39469D01*
X88929Y39620D01*
X88979Y39779D01*
X89055Y39938D01*
X89155Y40072D01*
X89172Y40089D01*
X89205Y40123D01*
X89272Y40181D01*
X89356Y40240D01*
X89465Y40299D01*
X89582Y40357D01*
X89725Y40391D01*
X89884Y40408D01*
X89926D01*
X89960Y40399D01*
D02*
G37*
G36*
X63244Y40441D02*
X63328Y40424D01*
X63420Y40391D01*
X63521Y40349D01*
X63621Y40282D01*
X63713Y40190D01*
X63722Y40181D01*
X63747Y40139D01*
X63789Y40081D01*
X63831Y39997D01*
X63881Y39896D01*
X63915Y39771D01*
X63940Y39628D01*
X63948Y39469D01*
X62289D01*
Y39477D01*
Y39494D01*
Y39511D01*
X62297Y39544D01*
X62305Y39637D01*
X62322Y39737D01*
X62356Y39854D01*
X62398Y39980D01*
X62465Y40098D01*
X62540Y40198D01*
X62549Y40207D01*
X62582Y40240D01*
X62632Y40282D01*
X62699Y40332D01*
X62783Y40374D01*
X62884Y40416D01*
X62993Y40450D01*
X63118Y40458D01*
X63177D01*
X63244Y40441D01*
D02*
G37*
G36*
X65104Y39184D02*
X65096Y39260D01*
X65088Y39343D01*
X65079Y39444D01*
X65062Y39553D01*
X65037Y39679D01*
X64970Y39938D01*
X64929Y40072D01*
X64878Y40215D01*
X64811Y40349D01*
X64736Y40475D01*
X64652Y40600D01*
X64560Y40718D01*
X64551Y40726D01*
X64535Y40743D01*
X64501Y40776D01*
X64459Y40810D01*
X64409Y40852D01*
X64342Y40902D01*
X64266Y40961D01*
X64183Y41019D01*
X64091Y41070D01*
X63981Y41128D01*
X63873Y41179D01*
X63747Y41221D01*
X63621Y41254D01*
X63479Y41287D01*
X63336Y41304D01*
X63185Y41313D01*
X65104D01*
Y39184D01*
D02*
G37*
G36*
X92050Y32871D02*
X92042Y32980D01*
X92034Y33114D01*
X92017Y33273D01*
X92000Y33441D01*
X91983Y33625D01*
X91950Y33818D01*
X91916Y34010D01*
X91866Y34212D01*
X91816Y34404D01*
X91749Y34589D01*
X91673Y34765D01*
X91589Y34932D01*
X91489Y35075D01*
X91480Y35083D01*
X91464Y35100D01*
X91439Y35133D01*
X91397Y35167D01*
X91355Y35217D01*
X91296Y35267D01*
X91221Y35318D01*
X91145Y35376D01*
X91053Y35435D01*
X90961Y35485D01*
X90852Y35535D01*
X90735Y35586D01*
X90609Y35619D01*
X90466Y35653D01*
X90324Y35670D01*
X90173Y35678D01*
X92050D01*
Y32871D01*
D02*
G37*
G36*
X90249Y34748D02*
X90290Y34739D01*
X90349Y34723D01*
X90408Y34697D01*
X90475Y34664D01*
X90534Y34622D01*
X90542Y34614D01*
X90559Y34597D01*
X90584Y34563D01*
X90617Y34521D01*
X90659Y34455D01*
X90693Y34379D01*
X90735Y34279D01*
X90768Y34161D01*
Y34153D01*
X90777Y34144D01*
Y34111D01*
X90785Y34077D01*
X90793Y34027D01*
X90802Y33968D01*
X90810Y33901D01*
X90819Y33818D01*
X90835Y33717D01*
X90844Y33617D01*
X90852Y33491D01*
X90860Y33365D01*
X90869Y33214D01*
Y33063D01*
X90877Y32887D01*
Y32703D01*
Y32695D01*
Y32661D01*
Y32603D01*
Y32535D01*
Y32452D01*
X90869Y32359D01*
Y32250D01*
X90860Y32142D01*
X90852Y31907D01*
X90835Y31672D01*
X90827Y31563D01*
X90810Y31463D01*
X90793Y31371D01*
X90777Y31287D01*
X90768Y31270D01*
X90760Y31228D01*
X90735Y31161D01*
X90710Y31086D01*
X90668Y31002D01*
X90626Y30918D01*
X90575Y30843D01*
X90525Y30784D01*
X90517Y30776D01*
X90500Y30767D01*
X90466Y30742D01*
X90425Y30725D01*
X90374Y30700D01*
X90316Y30675D01*
X90249Y30667D01*
X90173Y30658D01*
X90140D01*
X90098Y30667D01*
X90056Y30675D01*
X89997Y30692D01*
X89939Y30709D01*
X89880Y30742D01*
X89821Y30784D01*
X89813Y30792D01*
X89796Y30809D01*
X89763Y30843D01*
X89729Y30893D01*
X89696Y30952D01*
X89654Y31035D01*
X89612Y31128D01*
X89578Y31245D01*
Y31253D01*
X89570Y31262D01*
Y31295D01*
X89561Y31329D01*
X89553Y31379D01*
X89545Y31438D01*
X89528Y31505D01*
X89520Y31589D01*
X89511Y31681D01*
X89494Y31790D01*
X89486Y31907D01*
X89478Y32041D01*
X89469Y32184D01*
Y32343D01*
X89461Y32519D01*
Y32703D01*
Y32711D01*
Y32745D01*
Y32804D01*
Y32871D01*
Y32954D01*
X89469Y33047D01*
Y33156D01*
X89478Y33264D01*
X89486Y33499D01*
X89503Y33725D01*
X89520Y33834D01*
X89536Y33943D01*
X89553Y34036D01*
X89570Y34111D01*
Y34119D01*
X89578Y34128D01*
X89587Y34170D01*
X89612Y34237D01*
X89637Y34320D01*
X89679Y34404D01*
X89721Y34488D01*
X89771Y34563D01*
X89821Y34622D01*
X89830Y34631D01*
X89846Y34647D01*
X89880Y34664D01*
X89922Y34689D01*
X89972Y34714D01*
X90031Y34739D01*
X90098Y34748D01*
X90173Y34756D01*
X90207D01*
X90249Y34748D01*
D02*
G37*
D13*
X357716Y188721D02*
Y276122D01*
X297087Y188721D02*
X357716D01*
X297087Y276122D02*
X357716D01*
X297087Y188721D02*
Y276122D01*
X210669Y188721D02*
Y276122D01*
X271299D01*
X210669Y188721D02*
X271299D01*
Y276122D01*
X177232Y188299D02*
Y275701D01*
X116602Y188299D02*
X177232D01*
X116602Y275701D02*
X177232D01*
X116602Y188299D02*
Y275701D01*
X29146Y188268D02*
Y275669D01*
X89776D01*
X29146Y188268D02*
X89776D01*
Y275669D01*
D14*
X307263Y282988D02*
Y279708D01*
X306607Y279052D01*
X305295D01*
X304639Y279708D01*
Y282988D01*
X303327Y279052D02*
X302015D01*
X302671D01*
Y282988D01*
X303327Y282332D01*
X300047Y279052D02*
Y281676D01*
X298735Y282988D01*
X297424Y281676D01*
Y279052D01*
Y281020D01*
X300047D01*
X220863Y282988D02*
Y279708D01*
X220207Y279052D01*
X218895D01*
X218239Y279708D01*
Y282988D01*
X216927Y279052D02*
X215615D01*
X216271D01*
Y282988D01*
X216927Y282332D01*
X213647Y282988D02*
Y279052D01*
X211680D01*
X211024Y279708D01*
Y280364D01*
X211680Y281020D01*
X213647D01*
X211680D01*
X211024Y281676D01*
Y282332D01*
X211680Y282988D01*
X213647D01*
X126763Y282488D02*
Y279208D01*
X126107Y278552D01*
X124795D01*
X124139Y279208D01*
Y282488D01*
X122827Y278552D02*
X121515D01*
X122171D01*
Y282488D01*
X122827Y281832D01*
X116924D02*
X117580Y282488D01*
X118892D01*
X119547Y281832D01*
Y279208D01*
X118892Y278552D01*
X117580D01*
X116924Y279208D01*
X39263Y282488D02*
Y279208D01*
X38607Y278552D01*
X37295D01*
X36639Y279208D01*
Y282488D01*
X35327Y278552D02*
X34015D01*
X34671D01*
Y282488D01*
X35327Y281832D01*
X32047Y282488D02*
Y278552D01*
X30080D01*
X29424Y279208D01*
Y281832D01*
X30080Y282488D01*
X32047D01*
M02*
