G04*
G04 #@! TF.GenerationSoftware,Altium Limited,Altium Designer,22.9.1 (49)*
G04*
G04 Layer_Physical_Order=2*
G04 Layer_Color=16711680*
%FSLAX25Y25*%
%MOIN*%
G70*
G04*
G04 #@! TF.SameCoordinates,3C18945F-2A23-418A-B3D5-6108012D2850*
G04*
G04*
G04 #@! TF.FilePolarity,Positive*
G04*
G01*
G75*
%ADD32O,0.10000X0.07500*%
%ADD43C,0.01000*%
%ADD44O,0.05100X0.09100*%
%ADD45C,0.12205*%
%ADD46C,0.09055*%
%ADD47C,0.04193*%
%ADD48C,0.05512*%
%ADD49C,0.11811*%
%ADD50C,0.07087*%
%ADD51R,0.05906X0.05906*%
%ADD52C,0.05906*%
%ADD53C,0.02362*%
G36*
X62992Y330709D02*
Y326772D01*
X51181D01*
Y214567D01*
X21654D01*
Y352362D01*
X62992D01*
Y330709D01*
D02*
G37*
G36*
X366142Y212598D02*
X338583D01*
Y283465D01*
X324803D01*
Y311024D01*
X366142D01*
Y212598D01*
D02*
G37*
G36*
X324803Y324803D02*
X318898D01*
Y316240D01*
X318224Y315419D01*
X317493Y314052D01*
X317043Y312567D01*
X316891Y311024D01*
Y283465D01*
X317043Y281921D01*
X317493Y280437D01*
X318224Y279069D01*
X318898Y278249D01*
Y212598D01*
X287402D01*
Y324803D01*
X283465D01*
Y350394D01*
X324803D01*
Y324803D01*
D02*
G37*
G36*
X279489Y212598D02*
X246063D01*
Y285433D01*
X242126D01*
Y311024D01*
X279489D01*
Y212598D01*
D02*
G37*
G36*
X244094Y328740D02*
Y324803D01*
X232283D01*
Y212598D01*
X202756D01*
Y350394D01*
X244094D01*
Y328740D01*
D02*
G37*
G36*
X185039Y212598D02*
X157480D01*
Y283465D01*
X143701D01*
Y311024D01*
X185039D01*
Y212598D01*
D02*
G37*
G36*
X100394D02*
X66929D01*
Y285433D01*
X62992D01*
Y311024D01*
X100394D01*
Y212598D01*
D02*
G37*
G36*
X145707Y323819D02*
X139802D01*
Y317868D01*
X139305Y317602D01*
X138106Y316618D01*
X137122Y315419D01*
X136391Y314052D01*
X135941Y312567D01*
X135789Y311024D01*
Y283465D01*
X135941Y281921D01*
X136391Y280437D01*
X137122Y279069D01*
X138106Y277870D01*
X139305Y276886D01*
X139802Y276620D01*
Y211614D01*
X108306D01*
Y323819D01*
X104369D01*
Y349410D01*
X145707D01*
Y323819D01*
D02*
G37*
G36*
X381890Y14173D02*
X381413Y14055D01*
X380833Y15455D01*
X379991Y16715D01*
X378920Y17786D01*
X377660Y18628D01*
X376260Y19208D01*
X374773Y19504D01*
X373258D01*
X371772Y19208D01*
X370372Y18628D01*
X369112Y17786D01*
X368040Y16715D01*
X367198Y15455D01*
X366618Y14055D01*
X366323Y12569D01*
Y11053D01*
X366618Y9567D01*
X367198Y8167D01*
X368040Y6907D01*
X369112Y5835D01*
X370372Y4994D01*
X371772Y4414D01*
X373258Y4118D01*
X374773D01*
X376260Y4414D01*
X377660Y4994D01*
X378920Y5835D01*
X379991Y6907D01*
X380833Y8167D01*
X381413Y9567D01*
X381890Y9449D01*
Y1020D01*
X3937D01*
Y9449D01*
X4414Y9567D01*
X4994Y8167D01*
X5835Y6907D01*
X6907Y5835D01*
X8167Y4994D01*
X9567Y4414D01*
X11053Y4118D01*
X12569D01*
X14055Y4414D01*
X15455Y4994D01*
X16715Y5835D01*
X17786Y6907D01*
X18628Y8167D01*
X19208Y9567D01*
X19504Y11053D01*
Y12569D01*
X19208Y14055D01*
X18628Y15455D01*
X17786Y16715D01*
X16715Y17786D01*
X15455Y18628D01*
X14055Y19208D01*
X12569Y19504D01*
X11053D01*
X9567Y19208D01*
X8167Y18628D01*
X6907Y17786D01*
X5835Y16715D01*
X4994Y15455D01*
X4414Y14055D01*
X3937Y14173D01*
Y202756D01*
X381890D01*
Y14173D01*
D02*
G37*
%LPC*%
G36*
X338492Y200915D02*
X337565Y200793D01*
X336702Y200435D01*
X335960Y199866D01*
X335391Y199125D01*
X335033Y198261D01*
X334995Y197971D01*
X334491D01*
X334453Y198261D01*
X334095Y199125D01*
X333526Y199866D01*
X332784Y200435D01*
X331921Y200793D01*
X331494Y200849D01*
Y195335D01*
Y189820D01*
X331921Y189876D01*
X332784Y190234D01*
X333526Y190803D01*
X334095Y191544D01*
X334453Y192408D01*
X334491Y192698D01*
X334995D01*
X335033Y192408D01*
X335391Y191544D01*
X335960Y190803D01*
X336702Y190234D01*
X337565Y189876D01*
X338492Y189754D01*
X339419Y189876D01*
X340282Y190234D01*
X341024Y190803D01*
X341593Y191544D01*
X341951Y192408D01*
X342073Y193335D01*
Y197335D01*
X341951Y198261D01*
X341593Y199125D01*
X341024Y199866D01*
X340282Y200435D01*
X339419Y200793D01*
X338492Y200915D01*
D02*
G37*
G36*
X323494D02*
X322567Y200793D01*
X321704Y200435D01*
X320962Y199866D01*
X320393Y199125D01*
X320035Y198261D01*
X319997Y197971D01*
X319493D01*
X319455Y198261D01*
X319097Y199125D01*
X318528Y199866D01*
X317786Y200435D01*
X316923Y200793D01*
X315996Y200915D01*
X315069Y200793D01*
X314206Y200435D01*
X313464Y199866D01*
X312895Y199125D01*
X312537Y198261D01*
X312415Y197335D01*
Y193335D01*
X312537Y192408D01*
X312895Y191544D01*
X313464Y190803D01*
X314206Y190234D01*
X315069Y189876D01*
X315996Y189754D01*
X316923Y189876D01*
X317786Y190234D01*
X318528Y190803D01*
X319097Y191544D01*
X319455Y192408D01*
X319493Y192698D01*
X319997D01*
X320035Y192408D01*
X320393Y191544D01*
X320962Y190803D01*
X321704Y190234D01*
X322567Y189876D01*
X323494Y189754D01*
X324421Y189876D01*
X325284Y190234D01*
X326026Y190803D01*
X326595Y191544D01*
X326953Y192408D01*
X326992Y192706D01*
X327496D01*
X327535Y192408D01*
X327893Y191544D01*
X328462Y190803D01*
X329204Y190234D01*
X330067Y189876D01*
X330494Y189820D01*
Y195335D01*
Y200849D01*
X330067Y200793D01*
X329204Y200435D01*
X328462Y199866D01*
X327893Y199125D01*
X327535Y198261D01*
X327496Y197964D01*
X326992D01*
X326953Y198261D01*
X326595Y199125D01*
X326026Y199866D01*
X325284Y200435D01*
X324421Y200793D01*
X323494Y200915D01*
D02*
G37*
G36*
X252075D02*
X251148Y200793D01*
X250285Y200435D01*
X249543Y199866D01*
X248974Y199125D01*
X248616Y198261D01*
X248578Y197971D01*
X248074D01*
X248035Y198261D01*
X247678Y199125D01*
X247109Y199866D01*
X246367Y200435D01*
X245503Y200793D01*
X245077Y200849D01*
Y195335D01*
Y189820D01*
X245503Y189876D01*
X246367Y190234D01*
X247109Y190803D01*
X247678Y191544D01*
X248035Y192408D01*
X248074Y192698D01*
X248578D01*
X248616Y192408D01*
X248974Y191544D01*
X249543Y190803D01*
X250285Y190234D01*
X251148Y189876D01*
X252075Y189754D01*
X253001Y189876D01*
X253865Y190234D01*
X254607Y190803D01*
X255176Y191544D01*
X255533Y192408D01*
X255655Y193335D01*
Y197335D01*
X255533Y198261D01*
X255176Y199125D01*
X254607Y199866D01*
X253865Y200435D01*
X253001Y200793D01*
X252075Y200915D01*
D02*
G37*
G36*
X237077D02*
X236150Y200793D01*
X235286Y200435D01*
X234545Y199866D01*
X233976Y199125D01*
X233618Y198261D01*
X233580Y197971D01*
X233076D01*
X233037Y198261D01*
X232680Y199125D01*
X232111Y199866D01*
X231369Y200435D01*
X230505Y200793D01*
X229579Y200915D01*
X228652Y200793D01*
X227788Y200435D01*
X227047Y199866D01*
X226478Y199125D01*
X226120Y198261D01*
X225998Y197335D01*
Y193335D01*
X226120Y192408D01*
X226478Y191544D01*
X227047Y190803D01*
X227788Y190234D01*
X228652Y189876D01*
X229579Y189754D01*
X230505Y189876D01*
X231369Y190234D01*
X232111Y190803D01*
X232680Y191544D01*
X233037Y192408D01*
X233076Y192698D01*
X233580D01*
X233618Y192408D01*
X233976Y191544D01*
X234545Y190803D01*
X235286Y190234D01*
X236150Y189876D01*
X237077Y189754D01*
X238003Y189876D01*
X238867Y190234D01*
X239609Y190803D01*
X240178Y191544D01*
X240535Y192408D01*
X240575Y192706D01*
X241079D01*
X241118Y192408D01*
X241476Y191544D01*
X242045Y190803D01*
X242786Y190234D01*
X243650Y189876D01*
X244077Y189820D01*
Y195335D01*
Y200849D01*
X243650Y200793D01*
X242786Y200435D01*
X242045Y199866D01*
X241476Y199125D01*
X241118Y198261D01*
X241079Y197964D01*
X240575D01*
X240535Y198261D01*
X240178Y199125D01*
X239609Y199866D01*
X238867Y200435D01*
X238003Y200793D01*
X237077Y200915D01*
D02*
G37*
G36*
X158008Y200494D02*
X157081Y200372D01*
X156218Y200014D01*
X155476Y199445D01*
X154907Y198704D01*
X154549Y197840D01*
X154511Y197550D01*
X154007D01*
X153968Y197840D01*
X153611Y198704D01*
X153042Y199445D01*
X152300Y200014D01*
X151437Y200372D01*
X151010Y200428D01*
Y194913D01*
Y189399D01*
X151437Y189455D01*
X152300Y189812D01*
X153042Y190382D01*
X153611Y191123D01*
X153968Y191987D01*
X154007Y192277D01*
X154511D01*
X154549Y191987D01*
X154907Y191123D01*
X155476Y190382D01*
X156218Y189812D01*
X157081Y189455D01*
X158008Y189333D01*
X158935Y189455D01*
X159798Y189812D01*
X160540Y190382D01*
X161109Y191123D01*
X161467Y191987D01*
X161589Y192913D01*
Y196913D01*
X161467Y197840D01*
X161109Y198704D01*
X160540Y199445D01*
X159798Y200014D01*
X158935Y200372D01*
X158008Y200494D01*
D02*
G37*
G36*
X143010D02*
X142083Y200372D01*
X141219Y200014D01*
X140478Y199445D01*
X139909Y198704D01*
X139551Y197840D01*
X139513Y197550D01*
X139009D01*
X138970Y197840D01*
X138613Y198704D01*
X138044Y199445D01*
X137302Y200014D01*
X136439Y200372D01*
X135512Y200494D01*
X134585Y200372D01*
X133721Y200014D01*
X132980Y199445D01*
X132411Y198704D01*
X132053Y197840D01*
X131931Y196913D01*
Y192913D01*
X132053Y191987D01*
X132411Y191123D01*
X132980Y190382D01*
X133721Y189812D01*
X134585Y189455D01*
X135512Y189333D01*
X136439Y189455D01*
X137302Y189812D01*
X138044Y190382D01*
X138613Y191123D01*
X138970Y191987D01*
X139009Y192277D01*
X139513D01*
X139551Y191987D01*
X139909Y191123D01*
X140478Y190382D01*
X141219Y189812D01*
X142083Y189455D01*
X143010Y189333D01*
X143937Y189455D01*
X144800Y189812D01*
X145542Y190382D01*
X146111Y191123D01*
X146468Y191987D01*
X146508Y192285D01*
X147012D01*
X147051Y191987D01*
X147409Y191123D01*
X147978Y190382D01*
X148720Y189812D01*
X149583Y189455D01*
X150010Y189399D01*
Y194913D01*
Y200428D01*
X149583Y200372D01*
X148720Y200014D01*
X147978Y199445D01*
X147409Y198704D01*
X147051Y197840D01*
X147012Y197542D01*
X146508D01*
X146468Y197840D01*
X146111Y198704D01*
X145542Y199445D01*
X144800Y200014D01*
X143937Y200372D01*
X143010Y200494D01*
D02*
G37*
G36*
X55553Y200463D02*
X54626Y200341D01*
X53763Y199983D01*
X53021Y199414D01*
X52452Y198672D01*
X52095Y197809D01*
X52056Y197518D01*
X51552D01*
X51514Y197809D01*
X51156Y198672D01*
X50587Y199414D01*
X49845Y199983D01*
X48982Y200341D01*
X48055Y200463D01*
X47128Y200341D01*
X46265Y199983D01*
X45523Y199414D01*
X44954Y198672D01*
X44596Y197809D01*
X44475Y196882D01*
Y192882D01*
X44596Y191955D01*
X44954Y191092D01*
X45523Y190350D01*
X46265Y189781D01*
X47128Y189423D01*
X48055Y189301D01*
X48982Y189423D01*
X49845Y189781D01*
X50587Y190350D01*
X51156Y191092D01*
X51514Y191955D01*
X51552Y192246D01*
X52056D01*
X52095Y191955D01*
X52452Y191092D01*
X53021Y190350D01*
X53763Y189781D01*
X54626Y189423D01*
X55553Y189301D01*
X56480Y189423D01*
X57343Y189781D01*
X58085Y190350D01*
X58654Y191092D01*
X59012Y191955D01*
X59051Y192253D01*
X59555D01*
X59595Y191955D01*
X59952Y191092D01*
X60521Y190350D01*
X61263Y189781D01*
X62126Y189423D01*
X62553Y189367D01*
Y194882D01*
Y200397D01*
X62126Y200341D01*
X61263Y199983D01*
X60521Y199414D01*
X59952Y198672D01*
X59595Y197809D01*
X59555Y197511D01*
X59051D01*
X59012Y197809D01*
X58654Y198672D01*
X58085Y199414D01*
X57343Y199983D01*
X56480Y200341D01*
X55553Y200463D01*
D02*
G37*
G36*
X70551D02*
X69624Y200341D01*
X68761Y199983D01*
X68019Y199414D01*
X67450Y198672D01*
X67093Y197809D01*
X67054Y197518D01*
X66550D01*
X66512Y197809D01*
X66154Y198672D01*
X65585Y199414D01*
X64843Y199983D01*
X63980Y200341D01*
X63553Y200397D01*
Y194882D01*
Y189367D01*
X63980Y189423D01*
X64843Y189781D01*
X65585Y190350D01*
X66154Y191092D01*
X66512Y191955D01*
X66550Y192246D01*
X67054D01*
X67093Y191955D01*
X67450Y191092D01*
X68019Y190350D01*
X68761Y189781D01*
X69624Y189423D01*
X70551Y189301D01*
X71478Y189423D01*
X72342Y189781D01*
X73083Y190350D01*
X73652Y191092D01*
X74010Y191955D01*
X74132Y192882D01*
Y196882D01*
X74010Y197809D01*
X73652Y198672D01*
X73083Y199414D01*
X72342Y199983D01*
X71478Y200341D01*
X70551Y200463D01*
D02*
G37*
G36*
X322087Y136433D02*
X321220D01*
X320418Y136101D01*
X319805Y135487D01*
X319472Y134686D01*
Y133818D01*
X319805Y133017D01*
X320124Y132697D01*
Y129693D01*
X313085Y122653D01*
X312633D01*
X311831Y122321D01*
X311218Y121708D01*
X310886Y120906D01*
Y120039D01*
X311218Y119237D01*
X311831Y118623D01*
X312633Y118291D01*
X313501D01*
X314302Y118623D01*
X314916Y119237D01*
X315248Y120039D01*
Y120491D01*
X322735Y127978D01*
X323066Y128474D01*
X323183Y129059D01*
Y132697D01*
X323503Y133017D01*
X323835Y133818D01*
Y134686D01*
X323503Y135487D01*
X322889Y136101D01*
X322087Y136433D01*
D02*
G37*
G36*
X235670D02*
X234802D01*
X234001Y136101D01*
X233387Y135487D01*
X233055Y134686D01*
Y133818D01*
X233387Y133017D01*
X233707Y132697D01*
Y129693D01*
X226668Y122653D01*
X226216D01*
X225414Y122321D01*
X224800Y121708D01*
X224468Y120906D01*
Y120039D01*
X224800Y119237D01*
X225414Y118623D01*
X226216Y118291D01*
X227083D01*
X227885Y118623D01*
X228499Y119237D01*
X228831Y120039D01*
Y120491D01*
X236318Y127978D01*
X236649Y128474D01*
X236766Y129059D01*
Y132697D01*
X237085Y133017D01*
X237417Y133818D01*
Y134686D01*
X237085Y135487D01*
X236472Y136101D01*
X235670Y136433D01*
D02*
G37*
G36*
X141603Y136012D02*
X140735D01*
X139934Y135680D01*
X139320Y135066D01*
X138988Y134265D01*
Y133397D01*
X139320Y132595D01*
X139640Y132276D01*
Y129271D01*
X132601Y122232D01*
X132149D01*
X131347Y121900D01*
X130734Y121287D01*
X130402Y120485D01*
Y119617D01*
X130734Y118816D01*
X131347Y118202D01*
X132149Y117870D01*
X133017D01*
X133818Y118202D01*
X134432Y118816D01*
X134764Y119617D01*
Y120069D01*
X142251Y127556D01*
X142582Y128052D01*
X142699Y128638D01*
Y132276D01*
X143018Y132595D01*
X143350Y133397D01*
Y134265D01*
X143018Y135066D01*
X142405Y135680D01*
X141603Y136012D01*
D02*
G37*
G36*
X54146Y135980D02*
X53279D01*
X52477Y135648D01*
X51863Y135035D01*
X51531Y134233D01*
Y133365D01*
X51863Y132564D01*
X52183Y132244D01*
Y129240D01*
X45144Y122201D01*
X44692D01*
X43891Y121869D01*
X43277Y121255D01*
X42945Y120454D01*
Y119586D01*
X43277Y118784D01*
X43891Y118171D01*
X44692Y117839D01*
X45560D01*
X46362Y118171D01*
X46975Y118784D01*
X47307Y119586D01*
Y120038D01*
X54794Y127525D01*
X55125Y128021D01*
X55242Y128606D01*
Y132244D01*
X55562Y132564D01*
X55894Y133365D01*
Y134233D01*
X55562Y135035D01*
X54948Y135648D01*
X54146Y135980D01*
D02*
G37*
G36*
X339017Y179347D02*
X338149D01*
X337347Y179014D01*
X336734Y178401D01*
X336402Y177599D01*
Y177147D01*
X329627Y170373D01*
X329296Y169877D01*
X329179Y169291D01*
Y135413D01*
X328860Y135094D01*
X328527Y134292D01*
Y133424D01*
X328860Y132623D01*
X329179Y132303D01*
Y129921D01*
X329296Y129336D01*
X329627Y128840D01*
X340339Y118129D01*
Y117676D01*
X340671Y116875D01*
X341284Y116261D01*
X342086Y115929D01*
X342953D01*
X343755Y116261D01*
X344369Y116875D01*
X344701Y117676D01*
Y118544D01*
X344369Y119346D01*
X343755Y119959D01*
X342953Y120291D01*
X342501D01*
X332238Y130555D01*
Y132303D01*
X332558Y132623D01*
X332890Y133424D01*
Y134292D01*
X332558Y135094D01*
X332238Y135413D01*
Y168658D01*
X338564Y174984D01*
X339017D01*
X339818Y175316D01*
X340432Y175930D01*
X340764Y176732D01*
Y177599D01*
X340432Y178401D01*
X339818Y179014D01*
X339017Y179347D01*
D02*
G37*
G36*
X252599D02*
X251731D01*
X250930Y179014D01*
X250316Y178401D01*
X249984Y177599D01*
Y177147D01*
X243210Y170373D01*
X242878Y169877D01*
X242762Y169291D01*
Y135413D01*
X242442Y135094D01*
X242110Y134292D01*
Y133424D01*
X242442Y132623D01*
X242762Y132303D01*
Y129921D01*
X242878Y129336D01*
X243210Y128840D01*
X253921Y118129D01*
Y117676D01*
X254253Y116875D01*
X254867Y116261D01*
X255668Y115929D01*
X256536D01*
X257338Y116261D01*
X257951Y116875D01*
X258283Y117676D01*
Y118544D01*
X257951Y119346D01*
X257338Y119959D01*
X256536Y120291D01*
X256084D01*
X245821Y130555D01*
Y132303D01*
X246140Y132623D01*
X246472Y133424D01*
Y134292D01*
X246140Y135094D01*
X245821Y135413D01*
Y168658D01*
X252147Y174984D01*
X252599D01*
X253401Y175316D01*
X254014Y175930D01*
X254346Y176732D01*
Y177599D01*
X254014Y178401D01*
X253401Y179014D01*
X252599Y179347D01*
D02*
G37*
G36*
X158532Y178925D02*
X157665D01*
X156863Y178593D01*
X156249Y177980D01*
X155917Y177178D01*
Y176726D01*
X149143Y169951D01*
X148811Y169455D01*
X148695Y168870D01*
Y134992D01*
X148375Y134672D01*
X148043Y133871D01*
Y133003D01*
X148375Y132202D01*
X148695Y131882D01*
Y129500D01*
X148811Y128915D01*
X149143Y128419D01*
X159854Y117707D01*
Y117255D01*
X160186Y116454D01*
X160800Y115840D01*
X161602Y115508D01*
X162469D01*
X163271Y115840D01*
X163884Y116454D01*
X164216Y117255D01*
Y118123D01*
X163884Y118924D01*
X163271Y119538D01*
X162469Y119870D01*
X162017D01*
X151754Y130133D01*
Y131882D01*
X152073Y132202D01*
X152406Y133003D01*
Y133871D01*
X152073Y134672D01*
X151754Y134992D01*
Y168237D01*
X158080Y174563D01*
X158532D01*
X159334Y174895D01*
X159947Y175509D01*
X160280Y176310D01*
Y177178D01*
X159947Y177980D01*
X159334Y178593D01*
X158532Y178925D01*
D02*
G37*
G36*
X71075Y178894D02*
X70208D01*
X69406Y178562D01*
X68793Y177948D01*
X68461Y177146D01*
Y176694D01*
X61686Y169920D01*
X61355Y169424D01*
X61238Y168839D01*
Y134961D01*
X60919Y134641D01*
X60587Y133839D01*
Y132972D01*
X60919Y132170D01*
X61238Y131850D01*
Y129469D01*
X61355Y128883D01*
X61686Y128387D01*
X72398Y117676D01*
Y117224D01*
X72730Y116422D01*
X73343Y115808D01*
X74145Y115476D01*
X75013D01*
X75814Y115808D01*
X76428Y116422D01*
X76760Y117224D01*
Y118091D01*
X76428Y118893D01*
X75814Y119507D01*
X75013Y119839D01*
X74560D01*
X64297Y130102D01*
Y131850D01*
X64617Y132170D01*
X64949Y132972D01*
Y133839D01*
X64617Y134641D01*
X64297Y134961D01*
Y168205D01*
X70623Y174531D01*
X71075D01*
X71877Y174864D01*
X72491Y175477D01*
X72823Y176279D01*
Y177146D01*
X72491Y177948D01*
X71877Y178562D01*
X71075Y178894D01*
D02*
G37*
G36*
X358013Y122063D02*
X357145D01*
X356343Y121731D01*
X355730Y121117D01*
X355398Y120316D01*
Y119448D01*
X355730Y118646D01*
X356049Y118327D01*
Y108404D01*
X355518Y107873D01*
X277559D01*
X277559Y107873D01*
X272691D01*
Y118327D01*
X273010Y118646D01*
X273342Y119448D01*
Y120316D01*
X273010Y121117D01*
X272397Y121731D01*
X271595Y122063D01*
X270727D01*
X269926Y121731D01*
X269312Y121117D01*
X268980Y120316D01*
Y119448D01*
X269312Y118646D01*
X269632Y118327D01*
Y108404D01*
X269100Y107873D01*
X178624D01*
Y117905D01*
X178944Y118225D01*
X179276Y119027D01*
Y119895D01*
X178944Y120696D01*
X178330Y121310D01*
X177528Y121642D01*
X176661D01*
X175859Y121310D01*
X175245Y120696D01*
X174913Y119895D01*
Y119027D01*
X175245Y118225D01*
X175565Y117905D01*
Y107983D01*
X175455Y107873D01*
X91635Y107873D01*
X91167Y108340D01*
Y117874D01*
X91487Y118194D01*
X91819Y118995D01*
Y119863D01*
X91487Y120665D01*
X90873Y121278D01*
X90072Y121610D01*
X89204D01*
X88402Y121278D01*
X87789Y120665D01*
X87457Y119863D01*
Y118995D01*
X87789Y118194D01*
X88108Y117874D01*
Y107318D01*
X88225Y106733D01*
X88556Y106237D01*
X89046Y105746D01*
X89370Y105262D01*
X89866Y104930D01*
X90452Y104814D01*
X176088Y104814D01*
X269734D01*
X269734Y104814D01*
X269734Y104814D01*
X276030D01*
Y52343D01*
X275710Y52023D01*
X275378Y51221D01*
Y50354D01*
X275710Y49552D01*
X276324Y48938D01*
X277125Y48606D01*
X277993D01*
X278795Y48938D01*
X279408Y49552D01*
X279740Y50354D01*
Y51221D01*
X279408Y52023D01*
X279088Y52343D01*
Y104814D01*
X356151D01*
X356736Y104930D01*
X357233Y105262D01*
X358660Y106689D01*
X358992Y107185D01*
X359108Y107771D01*
Y118327D01*
X359428Y118646D01*
X359760Y119448D01*
Y120316D01*
X359428Y121117D01*
X358814Y121731D01*
X358013Y122063D01*
D02*
G37*
G36*
X210888Y82821D02*
X209899D01*
X208944Y82565D01*
X208087Y82070D01*
X207388Y81371D01*
X206894Y80515D01*
X206638Y79559D01*
Y78570D01*
X206894Y77615D01*
X207388Y76759D01*
X208087Y76060D01*
X208944Y75565D01*
X209899Y75309D01*
X210888D01*
X211843Y75565D01*
X212700Y76060D01*
X213399Y76759D01*
X213894Y77615D01*
X214150Y78570D01*
Y79559D01*
X213894Y80515D01*
X213399Y81371D01*
X212700Y82070D01*
X211843Y82565D01*
X210888Y82821D01*
D02*
G37*
G36*
X200888D02*
X199899D01*
X198944Y82565D01*
X198088Y82070D01*
X197388Y81371D01*
X196894Y80515D01*
X196638Y79559D01*
Y78570D01*
X196894Y77615D01*
X197388Y76759D01*
X198088Y76060D01*
X198944Y75565D01*
X199899Y75309D01*
X200888D01*
X201843Y75565D01*
X202700Y76060D01*
X203399Y76759D01*
X203894Y77615D01*
X204150Y78570D01*
Y79559D01*
X203894Y80515D01*
X203399Y81371D01*
X202700Y82070D01*
X201843Y82565D01*
X200888Y82821D01*
D02*
G37*
G36*
X190888D02*
X189899D01*
X188944Y82565D01*
X188087Y82070D01*
X187388Y81371D01*
X186894Y80515D01*
X186638Y79559D01*
Y78570D01*
X186894Y77615D01*
X187388Y76759D01*
X188087Y76060D01*
X188944Y75565D01*
X189899Y75309D01*
X190888D01*
X191843Y75565D01*
X192700Y76060D01*
X193399Y76759D01*
X193894Y77615D01*
X194150Y78570D01*
Y79559D01*
X193894Y80515D01*
X193399Y81371D01*
X192700Y82070D01*
X191843Y82565D01*
X190888Y82821D01*
D02*
G37*
G36*
X180888D02*
X179899D01*
X178944Y82565D01*
X178087Y82070D01*
X177388Y81371D01*
X176894Y80515D01*
X176638Y79559D01*
Y78570D01*
X176894Y77615D01*
X177388Y76759D01*
X178087Y76060D01*
X178944Y75565D01*
X179899Y75309D01*
X180888D01*
X181843Y75565D01*
X182700Y76060D01*
X183399Y76759D01*
X183894Y77615D01*
X184150Y78570D01*
Y79559D01*
X183894Y80515D01*
X183399Y81371D01*
X182700Y82070D01*
X181843Y82565D01*
X180888Y82821D01*
D02*
G37*
G36*
X205888Y72821D02*
X204899D01*
X203944Y72565D01*
X203087Y72070D01*
X202388Y71371D01*
X201894Y70515D01*
X201638Y69559D01*
Y68571D01*
X201894Y67615D01*
X202388Y66759D01*
X203087Y66059D01*
X203944Y65565D01*
X204899Y65309D01*
X205888D01*
X206843Y65565D01*
X207700Y66059D01*
X208399Y66759D01*
X208894Y67615D01*
X209150Y68571D01*
Y69559D01*
X208894Y70515D01*
X208399Y71371D01*
X207700Y72070D01*
X206843Y72565D01*
X205888Y72821D01*
D02*
G37*
G36*
X195888D02*
X194899D01*
X193944Y72565D01*
X193087Y72070D01*
X192388Y71371D01*
X191894Y70515D01*
X191638Y69559D01*
Y68571D01*
X191894Y67615D01*
X192388Y66759D01*
X193087Y66059D01*
X193944Y65565D01*
X194899Y65309D01*
X195888D01*
X196843Y65565D01*
X197700Y66059D01*
X198399Y66759D01*
X198894Y67615D01*
X199150Y68571D01*
Y69559D01*
X198894Y70515D01*
X198399Y71371D01*
X197700Y72070D01*
X196843Y72565D01*
X195888Y72821D01*
D02*
G37*
G36*
X185888D02*
X184899D01*
X183944Y72565D01*
X183088Y72070D01*
X182388Y71371D01*
X181894Y70515D01*
X181638Y69559D01*
Y68571D01*
X181894Y67615D01*
X182388Y66759D01*
X183088Y66059D01*
X183944Y65565D01*
X184899Y65309D01*
X185888D01*
X186843Y65565D01*
X187700Y66059D01*
X188399Y66759D01*
X188894Y67615D01*
X189150Y68571D01*
Y69559D01*
X188894Y70515D01*
X188399Y71371D01*
X187700Y72070D01*
X186843Y72565D01*
X185888Y72821D01*
D02*
G37*
G36*
X175888D02*
X174899D01*
X173944Y72565D01*
X173088Y72070D01*
X172388Y71371D01*
X171894Y70515D01*
X171638Y69559D01*
Y68571D01*
X171894Y67615D01*
X172388Y66759D01*
X173088Y66059D01*
X173944Y65565D01*
X174899Y65309D01*
X175888D01*
X176843Y65565D01*
X177700Y66059D01*
X178399Y66759D01*
X178894Y67615D01*
X179150Y68571D01*
Y69559D01*
X178894Y70515D01*
X178399Y71371D01*
X177700Y72070D01*
X176843Y72565D01*
X175888Y72821D01*
D02*
G37*
G36*
X224153Y61600D02*
X223925D01*
Y56573D01*
X228953D01*
Y56801D01*
X228576Y58206D01*
X227848Y59467D01*
X226819Y60496D01*
X225559Y61224D01*
X224153Y61600D01*
D02*
G37*
G36*
X222925D02*
X222697D01*
X221292Y61224D01*
X220031Y60496D01*
X219002Y59467D01*
X218274Y58206D01*
X217898Y56801D01*
Y56573D01*
X222925D01*
Y61600D01*
D02*
G37*
G36*
X163129D02*
X162901D01*
Y56573D01*
X167929D01*
Y56801D01*
X167552Y58206D01*
X166825Y59467D01*
X165796Y60496D01*
X164535Y61224D01*
X163129Y61600D01*
D02*
G37*
G36*
X161901D02*
X161674D01*
X160268Y61224D01*
X159008Y60496D01*
X157978Y59467D01*
X157251Y58206D01*
X156874Y56801D01*
Y56573D01*
X161901D01*
Y61600D01*
D02*
G37*
G36*
X228953Y55573D02*
X223925D01*
Y50545D01*
X224153D01*
X225559Y50922D01*
X226819Y51650D01*
X227848Y52679D01*
X228576Y53939D01*
X228953Y55345D01*
Y55573D01*
D02*
G37*
G36*
X222925D02*
X217898D01*
Y55345D01*
X218274Y53939D01*
X219002Y52679D01*
X220031Y51650D01*
X221292Y50922D01*
X222697Y50545D01*
X222925D01*
Y55573D01*
D02*
G37*
G36*
X167929D02*
X162901D01*
Y50545D01*
X163129D01*
X164535Y50922D01*
X165796Y51650D01*
X166825Y52679D01*
X167552Y53939D01*
X167929Y55345D01*
Y55573D01*
D02*
G37*
G36*
X161901D02*
X156874D01*
Y55345D01*
X157251Y53939D01*
X157978Y52679D01*
X159008Y51650D01*
X160268Y50922D01*
X161674Y50545D01*
X161901D01*
Y55573D01*
D02*
G37*
G36*
X265284Y45449D02*
X264243D01*
X263238Y45179D01*
X262337Y44659D01*
X261601Y43923D01*
X261080Y43022D01*
X260811Y42016D01*
Y40976D01*
X261080Y39970D01*
X261601Y39069D01*
X262337Y38333D01*
X263238Y37813D01*
X264243Y37543D01*
X265284D01*
X266289Y37813D01*
X267191Y38333D01*
X267927Y39069D01*
X268447Y39970D01*
X268717Y40976D01*
Y42016D01*
X268447Y43022D01*
X267927Y43923D01*
X267191Y44659D01*
X266289Y45179D01*
X265284Y45449D01*
D02*
G37*
G36*
X216142Y51463D02*
X214685D01*
X213256Y51178D01*
X211909Y50621D01*
X210698Y49811D01*
X209667Y48781D01*
X208858Y47569D01*
X208300Y46223D01*
X208016Y44793D01*
Y43336D01*
X208300Y41907D01*
X208858Y40561D01*
X209667Y39349D01*
X210698Y38319D01*
X211909Y37509D01*
X213256Y36952D01*
X214685Y36667D01*
X216142D01*
X217571Y36952D01*
X218917Y37509D01*
X220129Y38319D01*
X221160Y39349D01*
X221969Y40561D01*
X222527Y41907D01*
X222811Y43336D01*
Y44793D01*
X222527Y46223D01*
X221969Y47569D01*
X221160Y48781D01*
X220129Y49811D01*
X218917Y50621D01*
X217571Y51178D01*
X216142Y51463D01*
D02*
G37*
G36*
X171142D02*
X169685D01*
X168255Y51178D01*
X166909Y50621D01*
X165698Y49811D01*
X164667Y48781D01*
X163858Y47569D01*
X163300Y46223D01*
X163016Y44793D01*
Y43336D01*
X163300Y41907D01*
X163858Y40561D01*
X164667Y39349D01*
X165698Y38319D01*
X166909Y37509D01*
X168255Y36952D01*
X169685Y36667D01*
X171142D01*
X172571Y36952D01*
X173917Y37509D01*
X175129Y38319D01*
X176160Y39349D01*
X176969Y40561D01*
X177527Y41907D01*
X177811Y43336D01*
Y44793D01*
X177527Y46223D01*
X176969Y47569D01*
X176160Y48781D01*
X175129Y49811D01*
X173917Y50621D01*
X172571Y51178D01*
X171142Y51463D01*
D02*
G37*
G36*
X265284Y35449D02*
X265264D01*
Y31996D01*
X268717D01*
Y32016D01*
X268447Y33022D01*
X267927Y33923D01*
X267191Y34659D01*
X266289Y35179D01*
X265284Y35449D01*
D02*
G37*
G36*
X264264D02*
X264243D01*
X263238Y35179D01*
X262337Y34659D01*
X261601Y33923D01*
X261080Y33022D01*
X260811Y32016D01*
Y31996D01*
X264264D01*
Y35449D01*
D02*
G37*
G36*
X268717Y30996D02*
X265264D01*
Y27543D01*
X265284D01*
X266289Y27813D01*
X267191Y28333D01*
X267927Y29069D01*
X268447Y29970D01*
X268717Y30976D01*
Y30996D01*
D02*
G37*
G36*
X264264D02*
X260811D01*
Y30976D01*
X261080Y29970D01*
X261601Y29069D01*
X262337Y28333D01*
X263238Y27813D01*
X264243Y27543D01*
X264264D01*
Y30996D01*
D02*
G37*
G36*
X268717Y25449D02*
X260811D01*
Y17543D01*
X268717D01*
Y25449D01*
D02*
G37*
G36*
X298748Y19898D02*
X298650D01*
Y15854D01*
X302693D01*
Y15953D01*
X302383Y17108D01*
X301785Y18144D01*
X300939Y18990D01*
X299903Y19588D01*
X298748Y19898D01*
D02*
G37*
G36*
X297650D02*
X297551D01*
X296396Y19588D01*
X295360Y18990D01*
X294514Y18144D01*
X293916Y17108D01*
X293606Y15953D01*
Y15854D01*
X297650D01*
Y19898D01*
D02*
G37*
G36*
X308748D02*
X307551D01*
X306396Y19588D01*
X305360Y18990D01*
X304514Y18144D01*
X303916Y17108D01*
X303606Y15953D01*
Y14756D01*
X303916Y13601D01*
X304514Y12565D01*
X305360Y11719D01*
X306396Y11121D01*
X307551Y10811D01*
X308748D01*
X309903Y11121D01*
X310939Y11719D01*
X311785Y12565D01*
X312383Y13601D01*
X312693Y14756D01*
Y15953D01*
X312383Y17108D01*
X311785Y18144D01*
X310939Y18990D01*
X309903Y19588D01*
X308748Y19898D01*
D02*
G37*
G36*
X302693Y14854D02*
X298650D01*
Y10811D01*
X298748D01*
X299903Y11121D01*
X300939Y11719D01*
X301785Y12565D01*
X302383Y13601D01*
X302693Y14756D01*
Y14854D01*
D02*
G37*
G36*
X297650D02*
X293606D01*
Y14756D01*
X293916Y13601D01*
X294514Y12565D01*
X295360Y11719D01*
X296396Y11121D01*
X297551Y10811D01*
X297650D01*
Y14854D01*
D02*
G37*
%LPD*%
D32*
X352441Y245335D02*
D03*
X302441Y235335D02*
D03*
Y225335D02*
D03*
Y245335D02*
D03*
X352441Y235335D02*
D03*
Y225335D02*
D03*
X266024D02*
D03*
Y235335D02*
D03*
X216024Y245335D02*
D03*
Y225335D02*
D03*
Y235335D02*
D03*
X266024Y245335D02*
D03*
X171957Y244913D02*
D03*
X121957Y234913D02*
D03*
Y224913D02*
D03*
Y244913D02*
D03*
X171957Y234913D02*
D03*
Y224913D02*
D03*
X84500Y224882D02*
D03*
Y234882D02*
D03*
X34500Y244882D02*
D03*
Y224882D02*
D03*
Y234882D02*
D03*
X84500Y244882D02*
D03*
D43*
X226650Y120472D02*
X235236Y129059D01*
Y134252D01*
X244291Y129921D02*
Y133858D01*
Y169291D01*
Y129921D02*
X256102Y118110D01*
X269734Y106343D02*
X269734Y106343D01*
X277559D02*
X277559Y106343D01*
X269734Y106343D02*
X277559D01*
X269734D02*
X271161Y107771D01*
Y119882D01*
X244291Y169291D02*
X252165Y177165D01*
X89638Y107318D02*
X90452Y106504D01*
Y106343D02*
Y106504D01*
Y106343D02*
X176088Y106343D01*
X338583Y177165D02*
X338583D01*
X330709Y169291D02*
X338583Y177165D01*
X330709Y129921D02*
X342520Y118110D01*
X330709Y129921D02*
Y133858D01*
Y169291D01*
X150224Y133437D02*
Y168870D01*
Y129500D02*
Y133437D01*
X62768Y133405D02*
Y168839D01*
Y129469D02*
Y133405D01*
X176088Y106343D02*
X177094Y107350D01*
X176088Y106343D02*
X269734D01*
X89638Y107318D02*
Y119429D01*
X45126Y120020D02*
X53713Y128606D01*
Y133799D01*
X62768Y168839D02*
X70642Y176713D01*
X62768Y129469D02*
X74579Y117657D01*
X177094Y107350D02*
Y119461D01*
X150224Y168870D02*
X158098Y176744D01*
X150224Y129500D02*
X162035Y117689D01*
X141169Y128638D02*
Y133831D01*
X132583Y120051D02*
X141169Y128638D01*
X313067Y120472D02*
X321654Y129059D01*
Y134252D01*
X356151Y106343D02*
X357579Y107771D01*
Y119882D01*
X277559Y50787D02*
Y106343D01*
X356151D01*
D44*
X315996Y195335D02*
D03*
X323494D02*
D03*
X330994D02*
D03*
X338492D02*
D03*
X252075D02*
D03*
X244577D02*
D03*
X237077D02*
D03*
X229579D02*
D03*
X135512Y194913D02*
D03*
X143010D02*
D03*
X150510D02*
D03*
X158008D02*
D03*
X70551Y194882D02*
D03*
X63053D02*
D03*
X55553D02*
D03*
X48055D02*
D03*
D45*
X374016Y11811D02*
D03*
X9843Y372047D02*
D03*
X11811Y11811D02*
D03*
X375984Y372047D02*
D03*
D46*
X223425Y56073D02*
D03*
X162401D02*
D03*
D47*
X215413Y44065D02*
D03*
X170413D02*
D03*
D48*
X210394Y79065D02*
D03*
X205394Y69065D02*
D03*
X200394Y79065D02*
D03*
X195394Y69065D02*
D03*
X190394Y79065D02*
D03*
X185394Y69065D02*
D03*
X180394Y79065D02*
D03*
X175394Y69065D02*
D03*
D49*
X231358Y338189D02*
D03*
X255531Y298189D02*
D03*
X271358D02*
D03*
X295531Y338189D02*
D03*
X351358Y298189D02*
D03*
X311358Y338189D02*
D03*
X335531Y298189D02*
D03*
X215571Y338189D02*
D03*
X34468D02*
D03*
X154429Y298189D02*
D03*
X130256Y338189D02*
D03*
X170256Y298189D02*
D03*
X114429Y338189D02*
D03*
X90256Y298189D02*
D03*
X74429D02*
D03*
X50256Y338189D02*
D03*
D50*
X308150Y15354D02*
D03*
X298150D02*
D03*
D51*
X264764Y21496D02*
D03*
D52*
Y31496D02*
D03*
Y41496D02*
D03*
D53*
X211614Y120079D02*
D03*
X226650Y120472D02*
D03*
X235236Y134252D02*
D03*
X241142Y125591D02*
D03*
Y137992D02*
D03*
X244291Y133858D02*
D03*
X256102Y118110D02*
D03*
X259842Y157480D02*
D03*
X262795Y110236D02*
D03*
Y100394D02*
D03*
X271161Y119882D02*
D03*
X214567Y166339D02*
D03*
X244587Y177067D02*
D03*
X252165Y177165D02*
D03*
X349409Y100394D02*
D03*
X168307D02*
D03*
X346457Y157480D02*
D03*
X165354D02*
D03*
X349409Y110236D02*
D03*
X297244Y120079D02*
D03*
X301181Y166339D02*
D03*
X120079Y165354D02*
D03*
X168307Y110236D02*
D03*
X118110Y120079D02*
D03*
X78740Y157480D02*
D03*
X31496Y120079D02*
D03*
X81693Y109252D02*
D03*
X338583Y177165D02*
D03*
X330709Y133858D02*
D03*
X327559Y137795D02*
D03*
X74579Y117657D02*
D03*
X89638Y119429D02*
D03*
X45126Y120020D02*
D03*
X59618Y125138D02*
D03*
X62768Y133405D02*
D03*
X53713Y133799D02*
D03*
X59618Y136850D02*
D03*
X70642Y176713D02*
D03*
X177094Y119461D02*
D03*
X158098Y176744D02*
D03*
X150224Y133437D02*
D03*
X162035Y117689D02*
D03*
X141169Y133831D02*
D03*
X132583Y120051D02*
D03*
X146976Y125169D02*
D03*
Y136685D02*
D03*
X342520Y118110D02*
D03*
X357579Y119882D02*
D03*
X313067Y120472D02*
D03*
X327559Y125591D02*
D03*
X321654Y134252D02*
D03*
X330709Y177165D02*
D03*
X277559Y50787D02*
D03*
M02*
