G04*
G04 #@! TF.GenerationSoftware,Altium Limited,Altium Designer,22.9.1 (49)*
G04*
G04 Layer_Color=16711935*
%FSLAX25Y25*%
%MOIN*%
G70*
G04*
G04 #@! TF.SameCoordinates,3C18945F-2A23-418A-B3D5-6108012D2850*
G04*
G04*
G04 #@! TF.FilePolarity,Negative*
G04*
G01*
G75*
%ADD30O,0.05900X0.09900*%
%ADD31O,0.10800X0.08300*%
%ADD32O,0.10000X0.07500*%
%ADD33C,0.13005*%
%ADD34C,0.09855*%
%ADD35C,0.04993*%
%ADD36C,0.06312*%
%ADD37C,0.12611*%
%ADD38C,0.07887*%
%ADD39R,0.06706X0.06706*%
%ADD40C,0.06706*%
%ADD41C,0.03162*%
D30*
X315996Y195335D02*
D03*
X323494D02*
D03*
X330994D02*
D03*
X338492D02*
D03*
X252075D02*
D03*
X244577D02*
D03*
X237077D02*
D03*
X229579D02*
D03*
X135512Y194913D02*
D03*
X143010D02*
D03*
X150510D02*
D03*
X158008D02*
D03*
X70551Y194882D02*
D03*
X63053D02*
D03*
X55553D02*
D03*
X48055D02*
D03*
D31*
X352441Y245335D02*
D03*
X302441D02*
D03*
X216024D02*
D03*
X266024D02*
D03*
X171957Y244913D02*
D03*
X121957D02*
D03*
X34500Y244882D02*
D03*
X84500D02*
D03*
D32*
X302441Y235335D02*
D03*
Y225335D02*
D03*
X352441Y235335D02*
D03*
Y225335D02*
D03*
X266024D02*
D03*
Y235335D02*
D03*
X216024Y225335D02*
D03*
Y235335D02*
D03*
X121957Y234913D02*
D03*
Y224913D02*
D03*
X171957Y234913D02*
D03*
Y224913D02*
D03*
X84500Y224882D02*
D03*
Y234882D02*
D03*
X34500Y224882D02*
D03*
Y234882D02*
D03*
D33*
X374016Y11811D02*
D03*
X9843Y372047D02*
D03*
X11811Y11811D02*
D03*
X375984Y372047D02*
D03*
D34*
X223425Y56073D02*
D03*
X162401D02*
D03*
D35*
X215413Y44065D02*
D03*
X170413D02*
D03*
D36*
X210394Y79065D02*
D03*
X205394Y69065D02*
D03*
X200394Y79065D02*
D03*
X195394Y69065D02*
D03*
X190394Y79065D02*
D03*
X185394Y69065D02*
D03*
X180394Y79065D02*
D03*
X175394Y69065D02*
D03*
D37*
X231358Y338189D02*
D03*
X255531Y298189D02*
D03*
X271358D02*
D03*
X295531Y338189D02*
D03*
X351358Y298189D02*
D03*
X311358Y338189D02*
D03*
X335531Y298189D02*
D03*
X215571Y338189D02*
D03*
X34468D02*
D03*
X154429Y298189D02*
D03*
X130256Y338189D02*
D03*
X170256Y298189D02*
D03*
X114429Y338189D02*
D03*
X90256Y298189D02*
D03*
X74429D02*
D03*
X50256Y338189D02*
D03*
D38*
X308150Y15354D02*
D03*
X298150D02*
D03*
D39*
X264764Y21496D02*
D03*
D40*
Y31496D02*
D03*
Y41496D02*
D03*
D41*
X226650Y120472D02*
D03*
X235236Y134252D02*
D03*
X241142Y125591D02*
D03*
X244291Y133858D02*
D03*
X330709D02*
D03*
X45126Y120020D02*
D03*
X62768Y133405D02*
D03*
X53713Y133799D02*
D03*
X150224Y133437D02*
D03*
X141169Y133831D02*
D03*
X132583Y120051D02*
D03*
X313067Y120472D02*
D03*
X327559Y125591D02*
D03*
X321654Y134252D02*
D03*
X330709Y177165D02*
D03*
M02*
