G04*
G04 #@! TF.GenerationSoftware,Altium Limited,Altium Designer,22.9.1 (49)*
G04*
G04 Layer_Physical_Order=1*
G04 Layer_Color=255*
%FSLAX25Y25*%
%MOIN*%
G70*
G04*
G04 #@! TF.SameCoordinates,3C18945F-2A23-418A-B3D5-6108012D2850*
G04*
G04*
G04 #@! TF.FilePolarity,Positive*
G04*
G01*
G75*
%ADD15R,0.02756X0.03543*%
%ADD16R,0.03740X0.03347*%
%ADD17R,0.03347X0.03740*%
%ADD18O,0.04803X0.02610*%
%ADD19R,0.04803X0.02610*%
%ADD20R,0.03543X0.02756*%
%ADD21R,0.05315X0.06102*%
%ADD22R,0.15512X0.05000*%
%ADD32O,0.10000X0.07500*%
%ADD42C,0.00500*%
%ADD43C,0.01000*%
%ADD44O,0.05100X0.09100*%
%ADD45C,0.12205*%
%ADD46C,0.09055*%
%ADD47C,0.04193*%
%ADD48C,0.05512*%
%ADD49C,0.11811*%
%ADD50C,0.07087*%
%ADD51R,0.05906X0.05906*%
%ADD52C,0.05906*%
%ADD53C,0.02362*%
G36*
X62992Y330709D02*
Y326772D01*
X51181D01*
Y214567D01*
X21654D01*
Y352362D01*
X62992D01*
Y330709D01*
D02*
G37*
G36*
X366142Y212598D02*
X338583D01*
Y283465D01*
X324803D01*
Y311024D01*
X366142D01*
Y212598D01*
D02*
G37*
G36*
X278920D02*
X246063D01*
Y285433D01*
X242126D01*
Y311024D01*
X278920D01*
Y212598D01*
D02*
G37*
G36*
X244094Y328740D02*
Y324803D01*
X232283D01*
Y212598D01*
X202756D01*
Y350394D01*
X244094D01*
Y328740D01*
D02*
G37*
G36*
X185039Y212598D02*
X157480D01*
Y283465D01*
X143701D01*
Y311024D01*
X185039D01*
Y212598D01*
D02*
G37*
G36*
X100749D02*
X66929D01*
Y285433D01*
X62992D01*
Y311024D01*
X100749D01*
Y212598D01*
D02*
G37*
G36*
X324803Y324599D02*
X318898D01*
Y316240D01*
X318224Y315419D01*
X317493Y314052D01*
X317043Y312567D01*
X316891Y311024D01*
Y283465D01*
X317043Y281921D01*
X317493Y280437D01*
X318224Y279069D01*
X318898Y278249D01*
Y212394D01*
X286832D01*
Y324599D01*
X282895D01*
Y350189D01*
X324803D01*
Y324599D01*
D02*
G37*
G36*
X145669Y323819D02*
X139764D01*
Y317847D01*
X139305Y317602D01*
X138106Y316618D01*
X137122Y315419D01*
X136391Y314052D01*
X135941Y312567D01*
X135789Y311024D01*
Y283465D01*
X135941Y281921D01*
X136391Y280437D01*
X137122Y279069D01*
X138106Y277870D01*
X139305Y276886D01*
X139764Y276641D01*
Y211614D01*
X108661D01*
Y323819D01*
X104331D01*
Y349410D01*
X145669D01*
Y323819D01*
D02*
G37*
G36*
X381890Y14173D02*
X381413Y14055D01*
X380833Y15455D01*
X379991Y16715D01*
X378920Y17786D01*
X377660Y18628D01*
X376260Y19208D01*
X374773Y19504D01*
X373258D01*
X371772Y19208D01*
X370372Y18628D01*
X369112Y17786D01*
X368040Y16715D01*
X367198Y15455D01*
X366618Y14055D01*
X366323Y12569D01*
Y11053D01*
X366618Y9567D01*
X367198Y8167D01*
X368040Y6907D01*
X369112Y5835D01*
X370372Y4994D01*
X371772Y4414D01*
X373258Y4118D01*
X374773D01*
X376260Y4414D01*
X377660Y4994D01*
X378920Y5835D01*
X379991Y6907D01*
X380833Y8167D01*
X381413Y9567D01*
X381890Y9449D01*
Y1020D01*
X3937D01*
Y9449D01*
X4414Y9567D01*
X4994Y8167D01*
X5835Y6907D01*
X6907Y5835D01*
X8167Y4994D01*
X9567Y4414D01*
X11053Y4118D01*
X12569D01*
X14055Y4414D01*
X15455Y4994D01*
X16715Y5835D01*
X17786Y6907D01*
X18628Y8167D01*
X19208Y9567D01*
X19504Y11053D01*
Y12569D01*
X19208Y14055D01*
X18628Y15455D01*
X17786Y16715D01*
X16715Y17786D01*
X15455Y18628D01*
X14055Y19208D01*
X12569Y19504D01*
X11053D01*
X9567Y19208D01*
X8167Y18628D01*
X6907Y17786D01*
X5835Y16715D01*
X4994Y15455D01*
X4414Y14055D01*
X3937Y14173D01*
Y202756D01*
X381890D01*
Y14173D01*
D02*
G37*
%LPC*%
G36*
X338492Y200915D02*
X337565Y200793D01*
X336702Y200435D01*
X335960Y199866D01*
X335391Y199125D01*
X335033Y198261D01*
X334995Y197971D01*
X334491D01*
X334453Y198261D01*
X334095Y199125D01*
X333526Y199866D01*
X332784Y200435D01*
X331921Y200793D01*
X331494Y200849D01*
Y195335D01*
Y189820D01*
X331921Y189876D01*
X332784Y190234D01*
X333526Y190803D01*
X334095Y191544D01*
X334453Y192408D01*
X334491Y192698D01*
X334995D01*
X335033Y192408D01*
X335391Y191544D01*
X335960Y190803D01*
X336702Y190234D01*
X337165Y190042D01*
Y186630D01*
X336205D01*
Y181087D01*
X337053D01*
Y178720D01*
X336734Y178401D01*
X336402Y177599D01*
Y176732D01*
X336734Y175930D01*
X337053Y175610D01*
Y172752D01*
X335713D01*
Y167209D01*
X340469D01*
Y172752D01*
X340112D01*
Y175610D01*
X340432Y175930D01*
X340764Y176732D01*
Y177599D01*
X340432Y178401D01*
X340112Y178720D01*
Y181087D01*
X340961D01*
Y186630D01*
X340224D01*
Y190210D01*
X340282Y190234D01*
X341024Y190803D01*
X341593Y191544D01*
X341951Y192408D01*
X342073Y193335D01*
Y197335D01*
X341951Y198261D01*
X341593Y199125D01*
X341024Y199866D01*
X340282Y200435D01*
X339419Y200793D01*
X338492Y200915D01*
D02*
G37*
G36*
X252075D02*
X251148Y200793D01*
X250285Y200435D01*
X249543Y199866D01*
X248974Y199125D01*
X248616Y198261D01*
X248578Y197971D01*
X248074D01*
X248035Y198261D01*
X247678Y199125D01*
X247109Y199866D01*
X246367Y200435D01*
X245503Y200793D01*
X245077Y200849D01*
Y195335D01*
Y189820D01*
X245503Y189876D01*
X246367Y190234D01*
X247109Y190803D01*
X247678Y191544D01*
X248035Y192408D01*
X248074Y192698D01*
X248578D01*
X248616Y192408D01*
X248974Y191544D01*
X249543Y190803D01*
X250285Y190234D01*
X250748Y190042D01*
Y186630D01*
X249787D01*
Y181087D01*
X250636D01*
Y178720D01*
X250316Y178401D01*
X249984Y177599D01*
Y176732D01*
X250316Y175930D01*
X250636Y175610D01*
Y172752D01*
X249295D01*
Y167209D01*
X254051D01*
Y172752D01*
X253695D01*
Y175610D01*
X254014Y175930D01*
X254346Y176732D01*
Y177599D01*
X254014Y178401D01*
X253695Y178720D01*
Y181087D01*
X254543D01*
Y186630D01*
X253807D01*
Y190210D01*
X253865Y190234D01*
X254607Y190803D01*
X255176Y191544D01*
X255533Y192408D01*
X255655Y193335D01*
Y197335D01*
X255533Y198261D01*
X255176Y199125D01*
X254607Y199866D01*
X253865Y200435D01*
X253001Y200793D01*
X252075Y200915D01*
D02*
G37*
G36*
X323494D02*
X322567Y200793D01*
X321704Y200435D01*
X320962Y199866D01*
X320393Y199125D01*
X320035Y198261D01*
X319997Y197971D01*
X319493D01*
X319455Y198261D01*
X319097Y199125D01*
X318528Y199866D01*
X317786Y200435D01*
X316923Y200793D01*
X315996Y200915D01*
X315069Y200793D01*
X314206Y200435D01*
X313464Y199866D01*
X312895Y199125D01*
X312537Y198261D01*
X312415Y197335D01*
Y193335D01*
X312537Y192408D01*
X312895Y191544D01*
X313464Y190803D01*
X314206Y190234D01*
X314782Y189995D01*
Y185941D01*
X313665D01*
Y180595D01*
Y175476D01*
X315006D01*
Y173814D01*
X315122Y173229D01*
X315454Y172733D01*
X316040Y172147D01*
X316536Y171815D01*
X317121Y171699D01*
X317860D01*
Y167573D01*
X316453D01*
Y168815D01*
X311697D01*
Y163272D01*
X316453D01*
Y164514D01*
X317860D01*
Y161039D01*
X316717D01*
Y155693D01*
Y150575D01*
X317860D01*
Y147681D01*
X314667Y144487D01*
X314335Y143991D01*
X314219Y143405D01*
Y141498D01*
X312346D01*
Y140722D01*
X301594D01*
X301009Y140606D01*
X300513Y140274D01*
X299636Y139397D01*
X299304Y138901D01*
X299188Y138316D01*
Y136925D01*
X298016D01*
Y131579D01*
Y126461D01*
X299356D01*
Y124779D01*
X299473Y124193D01*
X299804Y123697D01*
X300390Y123111D01*
X300886Y122780D01*
X301461Y122666D01*
Y121071D01*
X303838D01*
X306217D01*
Y122663D01*
X306972D01*
Y117799D01*
X311728D01*
Y118125D01*
X312228Y118459D01*
X312633Y118291D01*
X313501D01*
X313803Y118417D01*
X314219Y118139D01*
Y114878D01*
X313075D01*
Y109138D01*
X323539D01*
Y110733D01*
X325436D01*
Y85961D01*
X324820Y85345D01*
X209598D01*
X209406Y85807D01*
X217281Y93682D01*
X225656D01*
X226144Y93779D01*
X226557Y94055D01*
X242280Y109778D01*
X242557Y110192D01*
X242654Y110679D01*
Y110733D01*
X244965D01*
Y109138D01*
X255429D01*
Y114878D01*
X254482D01*
Y115993D01*
X254982Y116213D01*
X255668Y115929D01*
X256152D01*
X256287Y115929D01*
X256382Y115469D01*
X256382Y115433D01*
Y115159D01*
X256382Y115113D01*
Y113591D01*
X258653D01*
Y115469D01*
X256882D01*
X256731Y115469D01*
X256631Y115969D01*
X256777Y116029D01*
X257249Y116224D01*
X261925D01*
Y118254D01*
X263075D01*
Y116224D01*
X268618D01*
Y118352D01*
X269606D01*
X269926Y118033D01*
X270727Y117701D01*
X271595D01*
X272397Y118033D01*
X273010Y118646D01*
X273342Y119448D01*
Y120316D01*
X273010Y121117D01*
X272397Y121731D01*
X271595Y122063D01*
X270727D01*
X269926Y121731D01*
X269606Y121411D01*
X265945D01*
X265450Y121313D01*
X261295D01*
X260710Y121196D01*
X260431Y121010D01*
X260032D01*
X259884Y120980D01*
X256382D01*
Y120291D01*
X255668D01*
X254982Y120007D01*
X254482Y120228D01*
Y121929D01*
X254949Y122021D01*
X255711Y122531D01*
X255800Y122663D01*
X267229D01*
X267814Y122780D01*
X268311Y123111D01*
X268896Y123697D01*
X269228Y124193D01*
X269344Y124779D01*
Y126362D01*
X270685D01*
Y131480D01*
Y136827D01*
X269344D01*
Y138607D01*
X269228Y139192D01*
X268896Y139689D01*
X268311Y140274D01*
X267814Y140606D01*
X267229Y140722D01*
X257927D01*
Y145719D01*
X257811Y146304D01*
X257479Y146800D01*
X257036Y147243D01*
X256540Y147574D01*
X255955Y147691D01*
X253362D01*
Y149031D01*
X242898D01*
Y147396D01*
X239128D01*
Y160380D01*
X241421D01*
Y157858D01*
X248736D01*
Y165961D01*
X241421D01*
Y163439D01*
X239128D01*
Y168451D01*
X243783D01*
Y167209D01*
X248539D01*
Y172752D01*
X243783D01*
Y171510D01*
X239128D01*
Y175378D01*
X240469D01*
Y180496D01*
Y185843D01*
X238921D01*
Y190275D01*
X239609Y190803D01*
X240178Y191544D01*
X240535Y192408D01*
X240575Y192706D01*
X241079D01*
X241118Y192408D01*
X241476Y191544D01*
X242045Y190803D01*
X242786Y190234D01*
X243650Y189876D01*
X244077Y189820D01*
Y195335D01*
Y200849D01*
X243650Y200793D01*
X242786Y200435D01*
X242045Y199866D01*
X241476Y199125D01*
X241118Y198261D01*
X241079Y197964D01*
X240575D01*
X240535Y198261D01*
X240178Y199125D01*
X239609Y199866D01*
X238867Y200435D01*
X238003Y200793D01*
X237077Y200915D01*
X236150Y200793D01*
X235286Y200435D01*
X234545Y199866D01*
X233976Y199125D01*
X233618Y198261D01*
X233580Y197971D01*
X233076D01*
X233037Y198261D01*
X232680Y199125D01*
X232111Y199866D01*
X231369Y200435D01*
X230505Y200793D01*
X229579Y200915D01*
X228652Y200793D01*
X227788Y200435D01*
X227047Y199866D01*
X226478Y199125D01*
X226120Y198261D01*
X225998Y197335D01*
Y193335D01*
X226120Y192408D01*
X226478Y191544D01*
X227047Y190803D01*
X227788Y190234D01*
X228364Y189995D01*
Y185941D01*
X227248D01*
Y180595D01*
Y175476D01*
X228589D01*
Y173814D01*
X228705Y173229D01*
X229037Y172733D01*
X229622Y172147D01*
X230119Y171815D01*
X230704Y171699D01*
X231443D01*
Y167573D01*
X230035D01*
Y168815D01*
X225279D01*
Y163272D01*
X230035D01*
Y164514D01*
X231443D01*
Y161039D01*
X230299D01*
Y155693D01*
Y150575D01*
X231443D01*
Y147681D01*
X228249Y144487D01*
X227918Y143991D01*
X227801Y143405D01*
Y141498D01*
X225929D01*
Y140722D01*
X215177D01*
X214592Y140606D01*
X214096Y140274D01*
X213219Y139397D01*
X212887Y138901D01*
X212771Y138316D01*
Y136925D01*
X211598D01*
Y131579D01*
Y126461D01*
X212939D01*
Y124779D01*
X213055Y124193D01*
X213387Y123697D01*
X213973Y123111D01*
X214469Y122780D01*
X215043Y122666D01*
Y121071D01*
X217421D01*
X219799D01*
Y122663D01*
X220555D01*
Y117799D01*
X225311D01*
Y118125D01*
X225811Y118459D01*
X226216Y118291D01*
X227083D01*
X227386Y118417D01*
X227801Y118139D01*
Y114878D01*
X226658D01*
Y109138D01*
X235260D01*
X235452Y108676D01*
X224507Y97731D01*
X216132D01*
X215644Y97634D01*
X215231Y97358D01*
X202191Y84318D01*
X202053Y84345D01*
X194400D01*
X193912Y84248D01*
X193498Y83972D01*
X192000Y82474D01*
X191843Y82565D01*
X190888Y82821D01*
X189899D01*
X188944Y82565D01*
X188087Y82070D01*
X187674Y81657D01*
X187174Y81864D01*
Y81970D01*
X187077Y82458D01*
X186801Y82871D01*
X172338Y97333D01*
X171925Y97610D01*
X171437Y97707D01*
X162701D01*
X152154Y108255D01*
X152345Y108716D01*
X161362D01*
Y114457D01*
X160415D01*
Y115571D01*
X160915Y115792D01*
X161602Y115508D01*
X162085D01*
X162220Y115508D01*
X162315Y115047D01*
X162315Y115012D01*
Y114738D01*
X162315Y114692D01*
Y113169D01*
X164587D01*
Y115047D01*
X162815D01*
X162664Y115047D01*
X162564Y115547D01*
X162710Y115608D01*
X163182Y115803D01*
X167858D01*
Y117833D01*
X169008D01*
Y115803D01*
X174551D01*
Y117931D01*
X175539D01*
X175859Y117612D01*
X176661Y117280D01*
X177528D01*
X178330Y117612D01*
X178944Y118225D01*
X179276Y119027D01*
Y119895D01*
X178944Y120696D01*
X178330Y121310D01*
X177528Y121642D01*
X176661D01*
X175859Y121310D01*
X175539Y120990D01*
X171878D01*
X171383Y120892D01*
X167228D01*
X166643Y120775D01*
X166364Y120588D01*
X165965D01*
X165817Y120559D01*
X162315D01*
Y119870D01*
X161602D01*
X160915Y119586D01*
X160415Y119807D01*
Y121508D01*
X160882Y121600D01*
X161644Y122110D01*
X161733Y122242D01*
X173162D01*
X173748Y122359D01*
X174244Y122690D01*
X174829Y123276D01*
X175161Y123772D01*
X175277Y124357D01*
Y125941D01*
X176618D01*
Y131059D01*
Y136406D01*
X175277D01*
Y138186D01*
X175161Y138771D01*
X174829Y139267D01*
X174244Y139853D01*
X173748Y140185D01*
X173162Y140301D01*
X163860D01*
Y145297D01*
X163744Y145882D01*
X163412Y146379D01*
X162969Y146822D01*
X162473Y147153D01*
X161888Y147269D01*
X159295D01*
Y148610D01*
X148831D01*
Y146974D01*
X145061D01*
Y159959D01*
X147354D01*
Y157437D01*
X154669D01*
Y165539D01*
X147354D01*
Y163018D01*
X145061D01*
Y168030D01*
X149716D01*
Y166787D01*
X154472D01*
Y172331D01*
X149716D01*
Y171088D01*
X145061D01*
Y174957D01*
X146402D01*
Y180075D01*
Y185421D01*
X144854D01*
Y189854D01*
X145542Y190382D01*
X146111Y191123D01*
X146468Y191987D01*
X146508Y192285D01*
X147012D01*
X147051Y191987D01*
X147409Y191123D01*
X147978Y190382D01*
X148720Y189812D01*
X149583Y189455D01*
X150010Y189399D01*
Y194913D01*
Y200428D01*
X149583Y200372D01*
X148720Y200014D01*
X147978Y199445D01*
X147409Y198704D01*
X147051Y197840D01*
X147012Y197542D01*
X146508D01*
X146468Y197840D01*
X146111Y198704D01*
X145542Y199445D01*
X144800Y200014D01*
X143937Y200372D01*
X143010Y200494D01*
X142083Y200372D01*
X141219Y200014D01*
X140478Y199445D01*
X139909Y198704D01*
X139551Y197840D01*
X139513Y197550D01*
X139009D01*
X138970Y197840D01*
X138613Y198704D01*
X138044Y199445D01*
X137302Y200014D01*
X136439Y200372D01*
X135512Y200494D01*
X134585Y200372D01*
X133721Y200014D01*
X132980Y199445D01*
X132411Y198704D01*
X132053Y197840D01*
X131931Y196913D01*
Y192913D01*
X132053Y191987D01*
X132411Y191123D01*
X132980Y190382D01*
X133721Y189812D01*
X134297Y189574D01*
Y185520D01*
X133181D01*
Y180173D01*
Y175055D01*
X134522D01*
Y173393D01*
X134638Y172808D01*
X134970Y172311D01*
X135556Y171726D01*
X136052Y171394D01*
X136637Y171278D01*
X137376D01*
Y167151D01*
X135968D01*
Y168394D01*
X131213D01*
Y162850D01*
X135968D01*
Y164093D01*
X137376D01*
Y160618D01*
X136232D01*
Y155272D01*
Y150154D01*
X137376D01*
Y147259D01*
X134182Y144066D01*
X133851Y143570D01*
X133734Y142984D01*
Y141077D01*
X131862D01*
Y140301D01*
X121110D01*
X120525Y140185D01*
X120029Y139853D01*
X119152Y138976D01*
X118820Y138480D01*
X118704Y137894D01*
Y136504D01*
X117532D01*
Y131158D01*
Y126039D01*
X118872D01*
Y124357D01*
X118989Y123772D01*
X119320Y123276D01*
X119906Y122690D01*
X120402Y122359D01*
X120976Y122244D01*
Y120650D01*
X123354D01*
X125732D01*
Y122242D01*
X126488D01*
Y117378D01*
X131244D01*
Y117704D01*
X131744Y118038D01*
X132149Y117870D01*
X133017D01*
X133319Y117995D01*
X133734Y117717D01*
Y114457D01*
X132590D01*
Y108716D01*
X143055D01*
Y110312D01*
X144952D01*
Y110258D01*
X145049Y109770D01*
X145325Y109357D01*
X160651Y94031D01*
X161065Y93755D01*
X161552Y93658D01*
X170288D01*
X180625Y83321D01*
X180418Y82821D01*
X179899D01*
X178944Y82565D01*
X178087Y82070D01*
X177388Y81371D01*
X176894Y80515D01*
X176638Y79559D01*
Y78570D01*
X176894Y77615D01*
X176915Y77578D01*
X176515Y77271D01*
X169027Y84759D01*
X168613Y85036D01*
X168125Y85133D01*
X63778D01*
X61837Y87074D01*
Y110281D01*
X63441D01*
Y108685D01*
X73905D01*
Y114425D01*
X72958D01*
Y115540D01*
X73458Y115761D01*
X74145Y115476D01*
X74629D01*
X74763Y115476D01*
X74858Y115016D01*
X74858Y114980D01*
Y114706D01*
X74858Y114660D01*
Y113138D01*
X77130D01*
Y115016D01*
X75358D01*
X75207Y115016D01*
X75108Y115516D01*
X75253Y115576D01*
X75725Y115772D01*
X80401D01*
Y117801D01*
X81551D01*
Y115772D01*
X87094D01*
Y117900D01*
X88083D01*
X88402Y117580D01*
X89204Y117248D01*
X90072D01*
X90873Y117580D01*
X91487Y118194D01*
X91819Y118995D01*
Y119863D01*
X91487Y120665D01*
X90873Y121278D01*
X90072Y121610D01*
X89204D01*
X88402Y121278D01*
X88083Y120958D01*
X84421D01*
X83926Y120860D01*
X79772D01*
X79186Y120744D01*
X78907Y120557D01*
X78508D01*
X78360Y120528D01*
X74858D01*
Y119839D01*
X74145D01*
X73458Y119554D01*
X72958Y119775D01*
Y121476D01*
X73425Y121569D01*
X74187Y122078D01*
X74276Y122211D01*
X85706D01*
X86291Y122327D01*
X86787Y122659D01*
X87373Y123245D01*
X87704Y123741D01*
X87821Y124326D01*
Y125909D01*
X89161D01*
Y131028D01*
Y136374D01*
X87821D01*
Y138154D01*
X87704Y138740D01*
X87373Y139236D01*
X86787Y139822D01*
X86291Y140153D01*
X85706Y140270D01*
X76403D01*
Y145266D01*
X76287Y145851D01*
X75955Y146347D01*
X75808Y146495D01*
X75312Y146826D01*
X74726Y146943D01*
X71838D01*
Y148579D01*
X61374D01*
Y146943D01*
X57604D01*
Y153091D01*
Y159927D01*
X59898D01*
Y157405D01*
X67213D01*
Y165508D01*
X59898D01*
Y162986D01*
X57604D01*
Y167998D01*
X62260D01*
Y166756D01*
X67016D01*
Y172299D01*
X62260D01*
Y171057D01*
X57604D01*
Y174925D01*
X58945D01*
Y180043D01*
Y185390D01*
X57398D01*
Y189822D01*
X58085Y190350D01*
X58654Y191092D01*
X59012Y191955D01*
X59051Y192253D01*
X59555D01*
X59595Y191955D01*
X59952Y191092D01*
X60521Y190350D01*
X61263Y189781D01*
X62126Y189423D01*
X62553Y189367D01*
Y194882D01*
Y200397D01*
X62126Y200341D01*
X61263Y199983D01*
X60521Y199414D01*
X59952Y198672D01*
X59595Y197809D01*
X59555Y197511D01*
X59051D01*
X59012Y197809D01*
X58654Y198672D01*
X58085Y199414D01*
X57343Y199983D01*
X56480Y200341D01*
X55553Y200463D01*
X54626Y200341D01*
X53763Y199983D01*
X53021Y199414D01*
X52452Y198672D01*
X52095Y197809D01*
X52056Y197518D01*
X51552D01*
X51514Y197809D01*
X51156Y198672D01*
X50587Y199414D01*
X49845Y199983D01*
X48982Y200341D01*
X48055Y200463D01*
X47128Y200341D01*
X46265Y199983D01*
X45523Y199414D01*
X44954Y198672D01*
X44596Y197809D01*
X44475Y196882D01*
Y192882D01*
X44596Y191955D01*
X44954Y191092D01*
X45523Y190350D01*
X46265Y189781D01*
X46841Y189542D01*
Y185488D01*
X45724D01*
Y180142D01*
Y175024D01*
X47065D01*
Y173361D01*
X47181Y172776D01*
X47513Y172280D01*
X48099Y171694D01*
X48595Y171363D01*
X49180Y171246D01*
X49919D01*
Y167120D01*
X48512D01*
Y168362D01*
X43756D01*
Y162819D01*
X48512D01*
Y164061D01*
X49919D01*
Y160587D01*
X48776D01*
Y155240D01*
Y150122D01*
X49919D01*
Y147228D01*
X46726Y144034D01*
X46394Y143538D01*
X46278Y142953D01*
Y141045D01*
X44405D01*
Y140270D01*
X33654D01*
X33068Y140153D01*
X32572Y139822D01*
X31695Y138944D01*
X31363Y138448D01*
X31247Y137863D01*
Y136472D01*
X30075D01*
Y131126D01*
Y126008D01*
X31416D01*
Y124326D01*
X31532Y123741D01*
X31863Y123245D01*
X32449Y122659D01*
X32945Y122327D01*
X33520Y122213D01*
Y120618D01*
X35898D01*
X38276D01*
Y122211D01*
X39031D01*
Y117347D01*
X43787D01*
Y117672D01*
X44287Y118006D01*
X44692Y117839D01*
X45560D01*
X45862Y117964D01*
X46278Y117686D01*
Y114425D01*
X45134D01*
Y108685D01*
X55598D01*
Y110281D01*
X57788D01*
Y85924D01*
X57885Y85437D01*
X58161Y85023D01*
X61727Y81457D01*
X62141Y81181D01*
X62629Y81084D01*
X166976D01*
X174119Y73941D01*
Y72612D01*
X173944Y72565D01*
X173088Y72070D01*
X172388Y71371D01*
X171894Y70515D01*
X171638Y69559D01*
Y68571D01*
X171894Y67615D01*
X172388Y66759D01*
X173088Y66059D01*
X173944Y65565D01*
X174899Y65309D01*
X175888D01*
X176843Y65565D01*
X177700Y66059D01*
X178399Y66759D01*
X178894Y67615D01*
X179150Y68571D01*
Y69559D01*
X178894Y70515D01*
X178399Y71371D01*
X177700Y72070D01*
X176843Y72565D01*
X176668Y72612D01*
Y74260D01*
X176863D01*
X177351Y74357D01*
X177764Y74633D01*
X178787Y75656D01*
X178944Y75565D01*
X179899Y75309D01*
X180888D01*
X181843Y75565D01*
X182700Y76060D01*
X183256Y76616D01*
X183517Y76669D01*
X183736Y76659D01*
X183892Y76612D01*
X185436Y74884D01*
X185762Y74519D01*
X185768Y74514D01*
X185768Y74514D01*
X185777Y74521D01*
X186268Y74118D01*
X186296Y74077D01*
X187450Y72923D01*
X187001Y72474D01*
X186843Y72565D01*
X185888Y72821D01*
X184899D01*
X183944Y72565D01*
X183088Y72070D01*
X182388Y71371D01*
X181894Y70515D01*
X181638Y69559D01*
Y68571D01*
X181894Y67615D01*
X182388Y66759D01*
X183088Y66059D01*
X183944Y65565D01*
X184899Y65309D01*
X185888D01*
X186843Y65565D01*
X187700Y66059D01*
X188399Y66759D01*
X188894Y67615D01*
X189150Y68571D01*
Y69559D01*
X188894Y70515D01*
X188803Y70672D01*
X189946Y71815D01*
X190223Y72229D01*
X190320Y72716D01*
X190404Y72786D01*
X190533Y72760D01*
X193282D01*
X193416Y72260D01*
X193087Y72070D01*
X192388Y71371D01*
X191894Y70515D01*
X191638Y69559D01*
Y68571D01*
X191894Y67615D01*
X192388Y66759D01*
X193087Y66059D01*
X193944Y65565D01*
X194899Y65309D01*
X195888D01*
X196843Y65565D01*
X197700Y66059D01*
X198399Y66759D01*
X198894Y67615D01*
X199150Y68571D01*
Y69559D01*
X198982Y70186D01*
X204163Y75367D01*
X204625Y75175D01*
Y72747D01*
X203944Y72565D01*
X203087Y72070D01*
X202388Y71371D01*
X201894Y70515D01*
X201638Y69559D01*
Y68571D01*
X201894Y67615D01*
X202388Y66759D01*
X203087Y66059D01*
X203944Y65565D01*
X204899Y65309D01*
X205888D01*
X206843Y65565D01*
X207700Y66059D01*
X208399Y66759D01*
X208894Y67615D01*
X209150Y68571D01*
Y69559D01*
X208894Y70515D01*
X208399Y71371D01*
X207700Y72070D01*
X207174Y72374D01*
Y76266D01*
X207674Y76473D01*
X208087Y76060D01*
X208944Y75565D01*
X209899Y75309D01*
X210888D01*
X211843Y75565D01*
X212700Y76060D01*
X213399Y76759D01*
X213894Y77615D01*
X214150Y78570D01*
Y79559D01*
X213894Y80515D01*
X213692Y80863D01*
X213942Y81296D01*
X325970D01*
X326458Y81393D01*
X326871Y81670D01*
X329112Y83911D01*
X329388Y84324D01*
X329485Y84812D01*
Y110733D01*
X331382D01*
Y109138D01*
X341846D01*
Y114878D01*
X340899D01*
Y115993D01*
X341399Y116213D01*
X342086Y115929D01*
X342570D01*
X342704Y115929D01*
X342799Y115469D01*
X342799Y115433D01*
Y115159D01*
X342799Y115113D01*
Y113591D01*
X345071D01*
Y115469D01*
X343299D01*
X343148Y115469D01*
X343049Y115969D01*
X343194Y116029D01*
X343666Y116224D01*
X348342D01*
Y118254D01*
X349492D01*
Y116224D01*
X355035D01*
Y118352D01*
X356024D01*
X356343Y118033D01*
X357145Y117701D01*
X358013D01*
X358814Y118033D01*
X359428Y118646D01*
X359760Y119448D01*
Y120316D01*
X359428Y121117D01*
X358814Y121731D01*
X358013Y122063D01*
X357145D01*
X356343Y121731D01*
X356024Y121411D01*
X352362D01*
X351867Y121313D01*
X347713D01*
X347127Y121196D01*
X346848Y121010D01*
X346449D01*
X346301Y120980D01*
X342799D01*
Y120291D01*
X342086D01*
X341399Y120007D01*
X340899Y120228D01*
Y121929D01*
X341366Y122021D01*
X342128Y122531D01*
X342217Y122663D01*
X353646D01*
X354232Y122780D01*
X354728Y123111D01*
X355314Y123697D01*
X355645Y124193D01*
X355762Y124779D01*
Y126362D01*
X357102D01*
Y131480D01*
Y136827D01*
X355762D01*
Y138607D01*
X355645Y139192D01*
X355314Y139689D01*
X354728Y140274D01*
X354232Y140606D01*
X353646Y140722D01*
X344344D01*
Y145719D01*
X344228Y146304D01*
X343896Y146800D01*
X343454Y147243D01*
X342957Y147574D01*
X342372Y147691D01*
X339779D01*
Y149031D01*
X329315D01*
Y147396D01*
X325545D01*
Y160380D01*
X327838D01*
Y157858D01*
X335154D01*
Y165961D01*
X327838D01*
Y163439D01*
X325545D01*
Y168451D01*
X330201D01*
Y167209D01*
X334957D01*
Y172752D01*
X330201D01*
Y171510D01*
X325545D01*
Y175378D01*
X326886D01*
Y180496D01*
Y185843D01*
X325338D01*
Y190275D01*
X326026Y190803D01*
X326595Y191544D01*
X326953Y192408D01*
X326992Y192706D01*
X327496D01*
X327535Y192408D01*
X327893Y191544D01*
X328462Y190803D01*
X329204Y190234D01*
X330067Y189876D01*
X330494Y189820D01*
Y195335D01*
Y200849D01*
X330067Y200793D01*
X329204Y200435D01*
X328462Y199866D01*
X327893Y199125D01*
X327535Y198261D01*
X327496Y197964D01*
X326992D01*
X326953Y198261D01*
X326595Y199125D01*
X326026Y199866D01*
X325284Y200435D01*
X324421Y200793D01*
X323494Y200915D01*
D02*
G37*
G36*
X158008Y200494D02*
X157081Y200372D01*
X156218Y200014D01*
X155476Y199445D01*
X154907Y198704D01*
X154549Y197840D01*
X154511Y197550D01*
X154007D01*
X153968Y197840D01*
X153611Y198704D01*
X153042Y199445D01*
X152300Y200014D01*
X151437Y200372D01*
X151010Y200428D01*
Y194913D01*
Y189399D01*
X151437Y189455D01*
X152300Y189812D01*
X153042Y190382D01*
X153611Y191123D01*
X153968Y191987D01*
X154007Y192277D01*
X154511D01*
X154549Y191987D01*
X154907Y191123D01*
X155476Y190382D01*
X156218Y189812D01*
X156681Y189620D01*
Y186209D01*
X155720D01*
Y180665D01*
X156569D01*
Y178299D01*
X156249Y177980D01*
X155917Y177178D01*
Y176310D01*
X156249Y175509D01*
X156569Y175189D01*
Y172331D01*
X155228D01*
Y166787D01*
X159984D01*
Y172331D01*
X159628D01*
Y175189D01*
X159947Y175509D01*
X160280Y176310D01*
Y177178D01*
X159947Y177980D01*
X159628Y178299D01*
Y180665D01*
X160476D01*
Y186209D01*
X159740D01*
Y189788D01*
X159798Y189812D01*
X160540Y190382D01*
X161109Y191123D01*
X161467Y191987D01*
X161589Y192913D01*
Y196913D01*
X161467Y197840D01*
X161109Y198704D01*
X160540Y199445D01*
X159798Y200014D01*
X158935Y200372D01*
X158008Y200494D01*
D02*
G37*
G36*
X70551Y200463D02*
X69624Y200341D01*
X68761Y199983D01*
X68019Y199414D01*
X67450Y198672D01*
X67093Y197809D01*
X67054Y197518D01*
X66550D01*
X66512Y197809D01*
X66154Y198672D01*
X65585Y199414D01*
X64843Y199983D01*
X63980Y200341D01*
X63553Y200397D01*
Y194882D01*
Y189367D01*
X63980Y189423D01*
X64843Y189781D01*
X65585Y190350D01*
X66154Y191092D01*
X66512Y191955D01*
X66550Y192246D01*
X67054D01*
X67093Y191955D01*
X67450Y191092D01*
X68019Y190350D01*
X68761Y189781D01*
X69225Y189589D01*
Y186177D01*
X68264D01*
Y180634D01*
X69112D01*
Y178268D01*
X68793Y177948D01*
X68461Y177146D01*
Y176279D01*
X68793Y175477D01*
X69112Y175157D01*
Y172299D01*
X67772D01*
Y166756D01*
X72527D01*
Y172299D01*
X72171D01*
Y175157D01*
X72491Y175477D01*
X72823Y176279D01*
Y177146D01*
X72491Y177948D01*
X72171Y178268D01*
Y180634D01*
X73020D01*
Y186177D01*
X72283D01*
Y189757D01*
X72342Y189781D01*
X73083Y190350D01*
X73652Y191092D01*
X74010Y191955D01*
X74132Y192882D01*
Y196882D01*
X74010Y197809D01*
X73652Y198672D01*
X73083Y199414D01*
X72342Y199983D01*
X71478Y200341D01*
X70551Y200463D01*
D02*
G37*
G36*
X249031Y186630D02*
X247153D01*
Y184358D01*
X249031D01*
Y186630D01*
D02*
G37*
G36*
X335449D02*
X333571D01*
Y184358D01*
X335449D01*
Y186630D01*
D02*
G37*
G36*
X246153D02*
X244276D01*
Y184358D01*
X246153D01*
Y186630D01*
D02*
G37*
G36*
X332571D02*
X330693D01*
Y184358D01*
X332571D01*
Y186630D01*
D02*
G37*
G36*
X154964Y186209D02*
X153087D01*
Y183937D01*
X154964D01*
Y186209D01*
D02*
G37*
G36*
X152087D02*
X150209D01*
Y183937D01*
X152087D01*
Y186209D01*
D02*
G37*
G36*
X67508Y186177D02*
X65630D01*
Y183905D01*
X67508D01*
Y186177D01*
D02*
G37*
G36*
X64630D02*
X62752D01*
Y183905D01*
X64630D01*
Y186177D01*
D02*
G37*
G36*
X335449Y183358D02*
X333571D01*
Y181087D01*
X335449D01*
Y183358D01*
D02*
G37*
G36*
X332571D02*
X330693D01*
Y181087D01*
X332571D01*
Y183358D01*
D02*
G37*
G36*
X249031D02*
X247153D01*
Y181087D01*
X249031D01*
Y183358D01*
D02*
G37*
G36*
X246153D02*
X244276D01*
Y181087D01*
X246153D01*
Y183358D01*
D02*
G37*
G36*
X154964Y182937D02*
X153087D01*
Y180665D01*
X154964D01*
Y182937D01*
D02*
G37*
G36*
X152087D02*
X150209D01*
Y180665D01*
X152087D01*
Y182937D01*
D02*
G37*
G36*
X67508Y182905D02*
X65630D01*
Y180634D01*
X67508D01*
Y182905D01*
D02*
G37*
G36*
X64630D02*
X62752D01*
Y180634D01*
X64630D01*
Y182905D01*
D02*
G37*
G36*
X310941Y168815D02*
X309063D01*
Y166543D01*
X310941D01*
Y168815D01*
D02*
G37*
G36*
X224524D02*
X222646D01*
Y166543D01*
X224524D01*
Y168815D01*
D02*
G37*
G36*
X308063D02*
X306185D01*
Y166543D01*
X308063D01*
Y168815D01*
D02*
G37*
G36*
X221646D02*
X219768D01*
Y166543D01*
X221646D01*
Y168815D01*
D02*
G37*
G36*
X130457Y168394D02*
X128579D01*
Y166122D01*
X130457D01*
Y168394D01*
D02*
G37*
G36*
X127579D02*
X125701D01*
Y166122D01*
X127579D01*
Y168394D01*
D02*
G37*
G36*
X43000Y168362D02*
X41122D01*
Y166091D01*
X43000D01*
Y168362D01*
D02*
G37*
G36*
X40122D02*
X38244D01*
Y166091D01*
X40122D01*
Y168362D01*
D02*
G37*
G36*
X310941Y165543D02*
X309063D01*
Y163272D01*
X310941D01*
Y165543D01*
D02*
G37*
G36*
X308063D02*
X306185D01*
Y163272D01*
X308063D01*
Y165543D01*
D02*
G37*
G36*
X224524D02*
X222646D01*
Y163272D01*
X224524D01*
Y165543D01*
D02*
G37*
G36*
X221646D02*
X219768D01*
Y163272D01*
X221646D01*
Y165543D01*
D02*
G37*
G36*
X130457Y165122D02*
X128579D01*
Y162850D01*
X130457D01*
Y165122D01*
D02*
G37*
G36*
X127579D02*
X125701D01*
Y162850D01*
X127579D01*
Y165122D01*
D02*
G37*
G36*
X43000Y165091D02*
X41122D01*
Y162819D01*
X43000D01*
Y165091D01*
D02*
G37*
G36*
X40122D02*
X38244D01*
Y162819D01*
X40122D01*
Y165091D01*
D02*
G37*
G36*
X343027Y165961D02*
X339870D01*
Y162409D01*
X343027D01*
Y165961D01*
D02*
G37*
G36*
X256610D02*
X253453D01*
Y162409D01*
X256610D01*
Y165961D01*
D02*
G37*
G36*
X338870D02*
X335713D01*
Y162409D01*
X338870D01*
Y165961D01*
D02*
G37*
G36*
X252453D02*
X249295D01*
Y162409D01*
X252453D01*
Y165961D01*
D02*
G37*
G36*
X162543Y165539D02*
X159386D01*
Y161988D01*
X162543D01*
Y165539D01*
D02*
G37*
G36*
X158386D02*
X155228D01*
Y161988D01*
X158386D01*
Y165539D01*
D02*
G37*
G36*
X75087Y165508D02*
X71929D01*
Y161957D01*
X75087D01*
Y165508D01*
D02*
G37*
G36*
X70929D02*
X67772D01*
Y161957D01*
X70929D01*
Y165508D01*
D02*
G37*
G36*
X343027Y161409D02*
X339870D01*
Y157858D01*
X343027D01*
Y161409D01*
D02*
G37*
G36*
X338870D02*
X335713D01*
Y157858D01*
X338870D01*
Y161409D01*
D02*
G37*
G36*
X256610D02*
X253453D01*
Y157858D01*
X256610D01*
Y161409D01*
D02*
G37*
G36*
X252453D02*
X249295D01*
Y157858D01*
X252453D01*
Y161409D01*
D02*
G37*
G36*
X162543Y160988D02*
X159386D01*
Y157437D01*
X162543D01*
Y160988D01*
D02*
G37*
G36*
X158386D02*
X155228D01*
Y157437D01*
X158386D01*
Y160988D01*
D02*
G37*
G36*
X75087Y160957D02*
X71929D01*
Y157405D01*
X75087D01*
Y160957D01*
D02*
G37*
G36*
X70929D02*
X67772D01*
Y157405D01*
X70929D01*
Y160957D01*
D02*
G37*
G36*
X306217Y120071D02*
X304339D01*
Y117799D01*
X306217D01*
Y120071D01*
D02*
G37*
G36*
X303339D02*
X301461D01*
Y117799D01*
X303339D01*
Y120071D01*
D02*
G37*
G36*
X219799D02*
X217921D01*
Y117799D01*
X219799D01*
Y120071D01*
D02*
G37*
G36*
X216921D02*
X215043D01*
Y117799D01*
X216921D01*
Y120071D01*
D02*
G37*
G36*
X125732Y119650D02*
X123854D01*
Y117378D01*
X125732D01*
Y119650D01*
D02*
G37*
G36*
X122854D02*
X120976D01*
Y117378D01*
X122854D01*
Y119650D01*
D02*
G37*
G36*
X38276Y119618D02*
X36398D01*
Y117347D01*
X38276D01*
Y119618D01*
D02*
G37*
G36*
X35398D02*
X33520D01*
Y117347D01*
X35398D01*
Y119618D01*
D02*
G37*
G36*
X355035Y115469D02*
X352764D01*
Y113591D01*
X355035D01*
Y115469D01*
D02*
G37*
G36*
X346071D02*
Y113591D01*
X348342D01*
Y115469D01*
X346071D01*
D02*
G37*
G36*
X259653D02*
Y113591D01*
X261925D01*
Y115469D01*
X259653D01*
D02*
G37*
G36*
X268618D02*
X266346D01*
Y113591D01*
X268618D01*
Y115469D01*
D02*
G37*
G36*
X265346D02*
X263075D01*
Y113591D01*
X265346D01*
Y115469D01*
D02*
G37*
G36*
X351764D02*
X349492D01*
Y113591D01*
X351764D01*
Y115469D01*
D02*
G37*
G36*
X165587Y115047D02*
Y113169D01*
X167858D01*
Y115047D01*
X165587D01*
D02*
G37*
G36*
X174551D02*
X172280D01*
Y113169D01*
X174551D01*
Y115047D01*
D02*
G37*
G36*
X171280D02*
X169008D01*
Y113169D01*
X171280D01*
Y115047D01*
D02*
G37*
G36*
X87094Y115016D02*
X84823D01*
Y113138D01*
X87094D01*
Y115016D01*
D02*
G37*
G36*
X78130D02*
Y113138D01*
X80401D01*
Y115016D01*
X78130D01*
D02*
G37*
G36*
X83823D02*
X81551D01*
Y113138D01*
X83823D01*
Y115016D01*
D02*
G37*
G36*
X355035Y112591D02*
X352764D01*
Y110713D01*
X355035D01*
Y112591D01*
D02*
G37*
G36*
X351764D02*
X349492D01*
Y110713D01*
X351764D01*
Y112591D01*
D02*
G37*
G36*
X348342D02*
X346071D01*
Y110713D01*
X348342D01*
Y112591D01*
D02*
G37*
G36*
X345071D02*
X342799D01*
Y110713D01*
X345071D01*
Y112591D01*
D02*
G37*
G36*
X268618D02*
X266346D01*
Y110713D01*
X268618D01*
Y112591D01*
D02*
G37*
G36*
X265346D02*
X263075D01*
Y110713D01*
X265346D01*
Y112591D01*
D02*
G37*
G36*
X261925D02*
X259653D01*
Y110713D01*
X261925D01*
Y112591D01*
D02*
G37*
G36*
X258653D02*
X256382D01*
Y110713D01*
X258653D01*
Y112591D01*
D02*
G37*
G36*
X174551Y112169D02*
X172280D01*
Y110291D01*
X174551D01*
Y112169D01*
D02*
G37*
G36*
X171280D02*
X169008D01*
Y110291D01*
X171280D01*
Y112169D01*
D02*
G37*
G36*
X167858D02*
X165587D01*
Y110291D01*
X167858D01*
Y112169D01*
D02*
G37*
G36*
X164587D02*
X162315D01*
Y110291D01*
X164587D01*
Y112169D01*
D02*
G37*
G36*
X87094Y112138D02*
X84823D01*
Y110260D01*
X87094D01*
Y112138D01*
D02*
G37*
G36*
X83823D02*
X81551D01*
Y110260D01*
X83823D01*
Y112138D01*
D02*
G37*
G36*
X80401D02*
X78130D01*
Y110260D01*
X80401D01*
Y112138D01*
D02*
G37*
G36*
X77130D02*
X74858D01*
Y110260D01*
X77130D01*
Y112138D01*
D02*
G37*
G36*
X224153Y61600D02*
X223925D01*
Y56573D01*
X228953D01*
Y56801D01*
X228576Y58206D01*
X227848Y59467D01*
X226819Y60496D01*
X225559Y61224D01*
X224153Y61600D01*
D02*
G37*
G36*
X222925D02*
X222697D01*
X221292Y61224D01*
X220031Y60496D01*
X219002Y59467D01*
X218274Y58206D01*
X217898Y56801D01*
Y56573D01*
X222925D01*
Y61600D01*
D02*
G37*
G36*
X163129D02*
X162901D01*
Y56573D01*
X167929D01*
Y56801D01*
X167552Y58206D01*
X166825Y59467D01*
X165796Y60496D01*
X164535Y61224D01*
X163129Y61600D01*
D02*
G37*
G36*
X161901D02*
X161674D01*
X160268Y61224D01*
X159008Y60496D01*
X157978Y59467D01*
X157251Y58206D01*
X156874Y56801D01*
Y56573D01*
X161901D01*
Y61600D01*
D02*
G37*
G36*
X228953Y55573D02*
X223925D01*
Y50545D01*
X224153D01*
X225559Y50922D01*
X226819Y51650D01*
X227848Y52679D01*
X228576Y53939D01*
X228953Y55345D01*
Y55573D01*
D02*
G37*
G36*
X222925D02*
X217898D01*
Y55345D01*
X218274Y53939D01*
X219002Y52679D01*
X220031Y51650D01*
X221292Y50922D01*
X222697Y50545D01*
X222925D01*
Y55573D01*
D02*
G37*
G36*
X167929D02*
X162901D01*
Y50545D01*
X163129D01*
X164535Y50922D01*
X165796Y51650D01*
X166825Y52679D01*
X167552Y53939D01*
X167929Y55345D01*
Y55573D01*
D02*
G37*
G36*
X161901D02*
X156874D01*
Y55345D01*
X157251Y53939D01*
X157978Y52679D01*
X159008Y51650D01*
X160268Y50922D01*
X161674Y50545D01*
X161901D01*
Y55573D01*
D02*
G37*
G36*
X277993Y52969D02*
X277125D01*
X276324Y52636D01*
X275710Y52023D01*
X275378Y51221D01*
Y50354D01*
X275710Y49552D01*
X276030Y49232D01*
Y44110D01*
X274787D01*
Y43144D01*
X268377D01*
X267927Y43923D01*
X267191Y44659D01*
X266289Y45179D01*
X265284Y45449D01*
X264243D01*
X263238Y45179D01*
X262337Y44659D01*
X261601Y43923D01*
X261080Y43022D01*
X260811Y42016D01*
Y40976D01*
X261080Y39970D01*
X261601Y39069D01*
X262337Y38333D01*
X263238Y37813D01*
X264243Y37543D01*
X265284D01*
X266289Y37813D01*
X267191Y38333D01*
X267927Y39069D01*
X268447Y39970D01*
X268478Y40085D01*
X274787D01*
Y39354D01*
X280331D01*
Y44110D01*
X279088D01*
Y49232D01*
X279408Y49552D01*
X279740Y50354D01*
Y51221D01*
X279408Y52023D01*
X278795Y52636D01*
X277993Y52969D01*
D02*
G37*
G36*
X280331Y38598D02*
X278059D01*
Y36720D01*
X280331D01*
Y38598D01*
D02*
G37*
G36*
X277059D02*
X274787D01*
Y36720D01*
X277059D01*
Y38598D01*
D02*
G37*
G36*
X216142Y51463D02*
X214685D01*
X213256Y51178D01*
X211909Y50621D01*
X210698Y49811D01*
X209667Y48781D01*
X208858Y47569D01*
X208300Y46223D01*
X208016Y44793D01*
Y43336D01*
X208300Y41907D01*
X208858Y40561D01*
X209667Y39349D01*
X210698Y38319D01*
X211909Y37509D01*
X213256Y36952D01*
X214685Y36667D01*
X216142D01*
X217571Y36952D01*
X218917Y37509D01*
X220129Y38319D01*
X221160Y39349D01*
X221969Y40561D01*
X222527Y41907D01*
X222811Y43336D01*
Y44793D01*
X222527Y46223D01*
X221969Y47569D01*
X221160Y48781D01*
X220129Y49811D01*
X218917Y50621D01*
X217571Y51178D01*
X216142Y51463D01*
D02*
G37*
G36*
X171142D02*
X169685D01*
X168255Y51178D01*
X166909Y50621D01*
X165698Y49811D01*
X164667Y48781D01*
X163858Y47569D01*
X163300Y46223D01*
X163016Y44793D01*
Y43336D01*
X163300Y41907D01*
X163858Y40561D01*
X164667Y39349D01*
X165698Y38319D01*
X166909Y37509D01*
X168255Y36952D01*
X169685Y36667D01*
X171142D01*
X172571Y36952D01*
X173917Y37509D01*
X175129Y38319D01*
X176160Y39349D01*
X176969Y40561D01*
X177527Y41907D01*
X177811Y43336D01*
Y44793D01*
X177527Y46223D01*
X176969Y47569D01*
X176160Y48781D01*
X175129Y49811D01*
X173917Y50621D01*
X172571Y51178D01*
X171142Y51463D01*
D02*
G37*
G36*
X280331Y35721D02*
X278059D01*
Y33843D01*
X280331D01*
Y35721D01*
D02*
G37*
G36*
X277059D02*
X274787D01*
Y33843D01*
X277059D01*
Y35721D01*
D02*
G37*
G36*
X265284Y35449D02*
X265264D01*
Y31996D01*
X268717D01*
Y32016D01*
X268447Y33022D01*
X267927Y33923D01*
X267191Y34659D01*
X266289Y35179D01*
X265284Y35449D01*
D02*
G37*
G36*
X264264D02*
X264243D01*
X263238Y35179D01*
X262337Y34659D01*
X261601Y33923D01*
X261080Y33022D01*
X260811Y32016D01*
Y31996D01*
X264264D01*
Y35449D01*
D02*
G37*
G36*
X268717Y30996D02*
X265264D01*
Y27543D01*
X265284D01*
X266289Y27813D01*
X267191Y28333D01*
X267927Y29069D01*
X268447Y29970D01*
X268717Y30976D01*
Y30996D01*
D02*
G37*
G36*
X264264D02*
X260811D01*
Y30976D01*
X261080Y29970D01*
X261601Y29069D01*
X262337Y28333D01*
X263238Y27813D01*
X264243Y27543D01*
X264264D01*
Y30996D01*
D02*
G37*
G36*
X361551Y25035D02*
X353295D01*
Y22035D01*
X361551D01*
Y25035D01*
D02*
G37*
G36*
X352295D02*
X344039D01*
Y22035D01*
X352295D01*
Y25035D01*
D02*
G37*
G36*
X361551Y21035D02*
X353295D01*
Y18035D01*
X361551D01*
Y21035D01*
D02*
G37*
G36*
X352295D02*
X344039D01*
Y18035D01*
X352295D01*
Y21035D01*
D02*
G37*
G36*
X280331Y14976D02*
X278059D01*
Y13098D01*
X280331D01*
Y14976D01*
D02*
G37*
G36*
X277059D02*
X274787D01*
Y13098D01*
X277059D01*
Y14976D01*
D02*
G37*
G36*
X361551Y15035D02*
X353295D01*
Y12035D01*
X361551D01*
Y15035D01*
D02*
G37*
G36*
X352295D02*
X344039D01*
Y12035D01*
X352295D01*
Y15035D01*
D02*
G37*
G36*
X302693Y14854D02*
X298650D01*
Y10811D01*
X298748D01*
X299903Y11121D01*
X300939Y11719D01*
X301785Y12565D01*
X302383Y13601D01*
X302693Y14756D01*
Y14854D01*
D02*
G37*
G36*
X297650D02*
X293606D01*
Y14756D01*
X293916Y13601D01*
X294514Y12565D01*
X295360Y11719D01*
X296396Y11121D01*
X297551Y10811D01*
X297650D01*
Y14854D01*
D02*
G37*
G36*
X280331Y12098D02*
X278059D01*
Y10221D01*
X280331D01*
Y12098D01*
D02*
G37*
G36*
X277059D02*
X274787D01*
Y10221D01*
X277059D01*
Y12098D01*
D02*
G37*
G36*
X361551Y11035D02*
X353295D01*
Y8035D01*
X361551D01*
Y11035D01*
D02*
G37*
G36*
X352295D02*
X344039D01*
Y8035D01*
X352295D01*
Y11035D01*
D02*
G37*
G36*
X268717Y25449D02*
X260811D01*
Y17543D01*
X268717D01*
Y19967D01*
X274787D01*
Y15732D01*
X280331D01*
Y19967D01*
X296052D01*
X296186Y19467D01*
X295360Y18990D01*
X294514Y18144D01*
X293916Y17108D01*
X293606Y15953D01*
Y15854D01*
X298149D01*
X302693D01*
Y15953D01*
X302383Y17108D01*
X301785Y18144D01*
X300939Y18990D01*
X300113Y19467D01*
X300247Y19967D01*
X306052D01*
X306186Y19467D01*
X305360Y18990D01*
X304514Y18144D01*
X303916Y17108D01*
X303606Y15953D01*
Y14756D01*
X303916Y13601D01*
X304514Y12565D01*
X305360Y11719D01*
X306396Y11121D01*
X307551Y10811D01*
X308748D01*
X309903Y11121D01*
X310939Y11719D01*
X311785Y12565D01*
X312383Y13601D01*
X312693Y14756D01*
Y15953D01*
X312383Y17108D01*
X311785Y18144D01*
X310939Y18990D01*
X310113Y19467D01*
X310247Y19967D01*
X319551D01*
Y18035D01*
X325597D01*
Y15035D01*
X319551D01*
Y8035D01*
X337063D01*
Y15035D01*
X328655D01*
Y18035D01*
X337063D01*
Y25035D01*
X319551D01*
Y23025D01*
X268717D01*
Y25449D01*
D02*
G37*
%LPD*%
G36*
X320035Y192408D02*
X320393Y191544D01*
X320962Y190803D01*
X321704Y190234D01*
X322280Y189995D01*
Y185843D01*
X321146D01*
Y180496D01*
Y175378D01*
X322486D01*
Y169980D01*
Y161527D01*
X322457Y161039D01*
X320919D01*
Y166191D01*
Y172643D01*
X320803Y173228D01*
X320471Y173724D01*
X319885Y174310D01*
X319389Y174641D01*
X318804Y174758D01*
X318065D01*
Y175476D01*
X319406D01*
Y180595D01*
Y185941D01*
X317840D01*
Y190275D01*
X318528Y190803D01*
X319097Y191544D01*
X319455Y192408D01*
X319493Y192698D01*
X319997D01*
X320035Y192408D01*
D02*
G37*
G36*
X233618D02*
X233976Y191544D01*
X234545Y190803D01*
X235286Y190234D01*
X235862Y189995D01*
Y185843D01*
X234728D01*
Y180496D01*
Y175378D01*
X236069D01*
Y169980D01*
Y161527D01*
X236039Y161039D01*
X234502D01*
Y166191D01*
Y172643D01*
X234385Y173228D01*
X234054Y173724D01*
X233468Y174310D01*
X232972Y174641D01*
X232387Y174758D01*
X231647D01*
Y175476D01*
X232988D01*
Y180595D01*
Y185941D01*
X231423D01*
Y190275D01*
X232111Y190803D01*
X232680Y191544D01*
X233037Y192408D01*
X233076Y192698D01*
X233580D01*
X233618Y192408D01*
D02*
G37*
G36*
X139551Y191987D02*
X139909Y191123D01*
X140478Y190382D01*
X141219Y189812D01*
X141795Y189574D01*
Y185421D01*
X140661D01*
Y180075D01*
Y174957D01*
X142002D01*
Y169559D01*
Y161106D01*
X141972Y160618D01*
X140435D01*
Y165770D01*
Y172221D01*
X140319Y172807D01*
X139987Y173303D01*
X139401Y173889D01*
X138905Y174220D01*
X138320Y174337D01*
X137581D01*
Y175055D01*
X138921D01*
Y180173D01*
Y185520D01*
X137356D01*
Y189854D01*
X138044Y190382D01*
X138613Y191123D01*
X138970Y191987D01*
X139009Y192277D01*
X139513D01*
X139551Y191987D01*
D02*
G37*
G36*
X52095Y191955D02*
X52452Y191092D01*
X53021Y190350D01*
X53763Y189781D01*
X54339Y189542D01*
Y185390D01*
X53205D01*
Y180043D01*
Y174925D01*
X54545D01*
Y169528D01*
Y161074D01*
X54516Y160587D01*
X52978D01*
Y165738D01*
Y172190D01*
X52862Y172775D01*
X52530Y173271D01*
X51944Y173857D01*
X51448Y174189D01*
X50863Y174305D01*
X50124D01*
Y175024D01*
X51464D01*
Y180142D01*
Y185488D01*
X49899D01*
Y189822D01*
X50587Y190350D01*
X51156Y191092D01*
X51514Y191955D01*
X51552Y192246D01*
X52056D01*
X52095Y191955D01*
D02*
G37*
G36*
X322457Y150575D02*
X322486Y150087D01*
Y146452D01*
X322603Y145867D01*
X322934Y145370D01*
X323520Y144785D01*
X324016Y144453D01*
X324602Y144337D01*
X329315D01*
Y143291D01*
X339779D01*
Y144632D01*
X341285D01*
Y141774D01*
X340899Y141457D01*
X340466Y141543D01*
X338274D01*
X337374Y141364D01*
X336612Y140855D01*
X336102Y140092D01*
X335923Y139193D01*
X336102Y138294D01*
X336612Y137531D01*
X337374Y137022D01*
X337745Y136948D01*
Y136438D01*
X337374Y136364D01*
X336612Y135855D01*
X336411Y135555D01*
X332097D01*
X331944Y135707D01*
X331142Y136039D01*
X330275D01*
X329473Y135707D01*
X328860Y135094D01*
X328527Y134292D01*
Y133840D01*
X325410Y130722D01*
X318595D01*
X318506Y130855D01*
X317744Y131364D01*
X317373Y131438D01*
Y131948D01*
X317744Y132021D01*
X318506Y132531D01*
X318615Y132693D01*
X320128D01*
X320418Y132403D01*
X321220Y132071D01*
X322087D01*
X322889Y132403D01*
X323503Y133017D01*
X323835Y133818D01*
Y134686D01*
X323503Y135487D01*
X322889Y136101D01*
X322087Y136433D01*
X321220D01*
X320418Y136101D01*
X320069Y135752D01*
X318575D01*
X318506Y135855D01*
X317744Y136364D01*
X317626Y136388D01*
X317675Y136888D01*
X319150D01*
Y141498D01*
X317277D01*
Y142772D01*
X320471Y145966D01*
X320803Y146462D01*
X320919Y147047D01*
Y150575D01*
X322457D01*
D02*
G37*
G36*
X236039D02*
X236069Y150087D01*
Y146452D01*
X236185Y145867D01*
X236517Y145370D01*
X237103Y144785D01*
X237599Y144453D01*
X238184Y144337D01*
X242898D01*
Y143291D01*
X253362D01*
Y144632D01*
X254868D01*
Y141774D01*
X254482Y141457D01*
X254049Y141543D01*
X251856D01*
X250957Y141364D01*
X250194Y140855D01*
X249685Y140092D01*
X249506Y139193D01*
X249685Y138294D01*
X250194Y137531D01*
X250957Y137022D01*
X251327Y136948D01*
Y136438D01*
X250957Y136364D01*
X250194Y135855D01*
X250106Y135722D01*
X245491D01*
X244725Y136039D01*
X243858D01*
X243056Y135707D01*
X242442Y135094D01*
X242208Y134529D01*
X238402Y130722D01*
X232178D01*
X232089Y130855D01*
X231327Y131364D01*
X230956Y131438D01*
Y131948D01*
X231327Y132021D01*
X232089Y132531D01*
X232197Y132693D01*
X233711D01*
X234001Y132403D01*
X234802Y132071D01*
X235670D01*
X236472Y132403D01*
X237085Y133017D01*
X237417Y133818D01*
Y134686D01*
X237085Y135487D01*
X236472Y136101D01*
X235670Y136433D01*
X234802D01*
X234001Y136101D01*
X233651Y135752D01*
X232158D01*
X232089Y135855D01*
X231327Y136364D01*
X231208Y136388D01*
X231258Y136888D01*
X232732D01*
Y141498D01*
X230860D01*
Y142772D01*
X234054Y145966D01*
X234385Y146462D01*
X234502Y147047D01*
Y150575D01*
X236039D01*
D02*
G37*
G36*
X141972Y150154D02*
X142002Y149666D01*
Y146031D01*
X142119Y145445D01*
X142450Y144949D01*
X143036Y144363D01*
X143532Y144032D01*
X144117Y143915D01*
X148831D01*
Y142870D01*
X159295D01*
Y144211D01*
X160801D01*
Y141353D01*
X160415Y141036D01*
X159982Y141122D01*
X157789D01*
X156890Y140943D01*
X156127Y140434D01*
X155618Y139671D01*
X155439Y138772D01*
X155618Y137872D01*
X156127Y137110D01*
X156890Y136600D01*
X157261Y136527D01*
Y136017D01*
X156890Y135943D01*
X156127Y135433D01*
X156039Y135301D01*
X151424D01*
X150658Y135618D01*
X149791D01*
X148989Y135286D01*
X148375Y134672D01*
X148141Y134107D01*
X144335Y130301D01*
X138111D01*
X138022Y130433D01*
X137260Y130943D01*
X136889Y131017D01*
Y131527D01*
X137260Y131600D01*
X138022Y132110D01*
X138130Y132272D01*
X139644D01*
X139934Y131982D01*
X140735Y131650D01*
X141603D01*
X142405Y131982D01*
X143018Y132595D01*
X143350Y133397D01*
Y134265D01*
X143018Y135066D01*
X142405Y135680D01*
X141603Y136012D01*
X140735D01*
X139934Y135680D01*
X139585Y135331D01*
X138091D01*
X138022Y135433D01*
X137260Y135943D01*
X137142Y135967D01*
X137191Y136467D01*
X138665D01*
Y141077D01*
X136793D01*
Y142351D01*
X139987Y145545D01*
X140319Y146041D01*
X140435Y146626D01*
Y150154D01*
X141972D01*
D02*
G37*
G36*
X54516Y150122D02*
X54545Y149634D01*
Y145999D01*
X54662Y145414D01*
X54993Y144918D01*
X55579Y144332D01*
X56075Y144000D01*
X56661Y143884D01*
X61374D01*
Y142839D01*
X71838D01*
Y143884D01*
X73345D01*
Y141322D01*
X72958Y141004D01*
X72526Y141090D01*
X70333D01*
X69433Y140911D01*
X68671Y140402D01*
X68161Y139640D01*
X67982Y138740D01*
X68161Y137841D01*
X68671Y137078D01*
X69433Y136569D01*
X69804Y136495D01*
Y135985D01*
X69433Y135912D01*
X68671Y135402D01*
X68582Y135270D01*
X63967D01*
X63201Y135587D01*
X62334D01*
X61532Y135255D01*
X60919Y134641D01*
X60685Y134076D01*
X56878Y130270D01*
X50654D01*
X50565Y130402D01*
X49803Y130912D01*
X49432Y130985D01*
Y131495D01*
X49803Y131569D01*
X50565Y132078D01*
X50674Y132240D01*
X52187D01*
X52477Y131950D01*
X53279Y131618D01*
X54146D01*
X54948Y131950D01*
X55562Y132564D01*
X55894Y133365D01*
Y134233D01*
X55562Y135035D01*
X54948Y135648D01*
X54146Y135980D01*
X53279D01*
X52477Y135648D01*
X52128Y135299D01*
X50634D01*
X50565Y135402D01*
X49803Y135912D01*
X49685Y135935D01*
X49734Y136435D01*
X51209D01*
Y141045D01*
X49336D01*
Y142319D01*
X52530Y145513D01*
X52862Y146009D01*
X52978Y146595D01*
Y150122D01*
X54516D01*
D02*
G37*
G36*
X352703Y136827D02*
X351362D01*
Y131480D01*
Y126362D01*
X352703D01*
Y125722D01*
X349462D01*
Y126559D01*
X350705D01*
Y131315D01*
X345161D01*
Y126559D01*
X346404D01*
Y125722D01*
X342217D01*
X342128Y125855D01*
X341366Y126364D01*
X340995Y126438D01*
Y126948D01*
X341366Y127022D01*
X342128Y127531D01*
X342638Y128294D01*
X342717Y128693D01*
X336023D01*
X336102Y128294D01*
X336612Y127531D01*
X337374Y127022D01*
X337745Y126948D01*
Y126438D01*
X337374Y126364D01*
X336612Y125855D01*
X336102Y125092D01*
X335923Y124193D01*
X336102Y123293D01*
X336612Y122531D01*
X337374Y122021D01*
X337841Y121929D01*
Y114878D01*
X331382D01*
Y113282D01*
X328503D01*
X328016Y113185D01*
X327602Y112909D01*
X327461Y112767D01*
X327319Y112909D01*
X326905Y113185D01*
X326418Y113282D01*
X323539D01*
Y114878D01*
X317277D01*
Y121929D01*
X317744Y122021D01*
X318506Y122531D01*
X319016Y123293D01*
X319195Y124193D01*
X319016Y125092D01*
X318506Y125855D01*
X317744Y126364D01*
X317373Y126438D01*
Y126948D01*
X317744Y127022D01*
X318506Y127531D01*
X318595Y127664D01*
X326043D01*
X326628Y127780D01*
X327125Y128112D01*
X330690Y131677D01*
X331142D01*
X331944Y132009D01*
X332431Y132496D01*
X336664D01*
X337374Y132021D01*
X337745Y131948D01*
Y131438D01*
X337374Y131364D01*
X336612Y130855D01*
X336102Y130092D01*
X336023Y129693D01*
X342717D01*
X342638Y130092D01*
X342128Y130855D01*
X341366Y131364D01*
X340995Y131438D01*
Y131948D01*
X341366Y132021D01*
X342128Y132531D01*
X342638Y133293D01*
X342817Y134193D01*
X342638Y135092D01*
X342128Y135855D01*
X341366Y136364D01*
X340995Y136438D01*
Y136948D01*
X341366Y137022D01*
X342128Y137531D01*
X342217Y137663D01*
X346404D01*
Y136827D01*
X345161D01*
Y132071D01*
X350705D01*
Y136827D01*
X349462D01*
Y137663D01*
X352703D01*
Y136827D01*
D02*
G37*
G36*
X312346Y136888D02*
X313821D01*
X313870Y136388D01*
X313752Y136364D01*
X312990Y135855D01*
X312480Y135092D01*
X312301Y134193D01*
X312480Y133293D01*
X312990Y132531D01*
X313752Y132021D01*
X314123Y131948D01*
Y131438D01*
X313752Y131364D01*
X312990Y130855D01*
X312480Y130092D01*
X312301Y129193D01*
X312480Y128294D01*
X312990Y127531D01*
X313752Y127022D01*
X314123Y126948D01*
Y126438D01*
X313752Y126364D01*
X312990Y125855D01*
X312901Y125722D01*
X308714D01*
Y126559D01*
X309957D01*
Y131315D01*
X304413D01*
Y126559D01*
X305656D01*
Y125722D01*
X302415D01*
Y126461D01*
X303756D01*
Y131579D01*
Y136925D01*
X302247D01*
Y137663D01*
X305656D01*
Y136827D01*
X304413D01*
Y132071D01*
X309957D01*
Y136827D01*
X308714D01*
Y137663D01*
X312346D01*
Y136888D01*
D02*
G37*
G36*
X266285Y136827D02*
X264945D01*
Y131480D01*
Y126362D01*
X266285D01*
Y125722D01*
X263045D01*
Y126559D01*
X264287D01*
Y131315D01*
X258744D01*
Y126559D01*
X259986D01*
Y125722D01*
X255800D01*
X255711Y125855D01*
X254949Y126364D01*
X254578Y126438D01*
Y126948D01*
X254949Y127022D01*
X255711Y127531D01*
X256221Y128294D01*
X256300Y128693D01*
X249605D01*
X249685Y128294D01*
X250194Y127531D01*
X250957Y127022D01*
X251327Y126948D01*
Y126438D01*
X250957Y126364D01*
X250194Y125855D01*
X249685Y125092D01*
X249506Y124193D01*
X249685Y123293D01*
X250194Y122531D01*
X250957Y122021D01*
X251423Y121929D01*
Y114878D01*
X244965D01*
Y113282D01*
X242095D01*
X241607Y113185D01*
X241194Y112909D01*
X240890Y112605D01*
X240780Y112616D01*
X240487Y112909D01*
X240074Y113185D01*
X239586Y113282D01*
X237122D01*
Y114878D01*
X230860D01*
Y121929D01*
X231327Y122021D01*
X232089Y122531D01*
X232598Y123293D01*
X232777Y124193D01*
X232598Y125092D01*
X232089Y125855D01*
X231327Y126364D01*
X230956Y126438D01*
Y126948D01*
X231327Y127022D01*
X232089Y127531D01*
X232178Y127664D01*
X239035D01*
X239621Y127780D01*
X240117Y128112D01*
X243734Y131728D01*
X243858Y131677D01*
X244725D01*
X245527Y132009D01*
X246140Y132623D01*
X246157Y132664D01*
X250106D01*
X250194Y132531D01*
X250957Y132021D01*
X251327Y131948D01*
Y131438D01*
X250957Y131364D01*
X250194Y130855D01*
X249685Y130092D01*
X249605Y129693D01*
X256300D01*
X256221Y130092D01*
X255711Y130855D01*
X254949Y131364D01*
X254578Y131438D01*
Y131948D01*
X254949Y132021D01*
X255711Y132531D01*
X256221Y133293D01*
X256399Y134193D01*
X256221Y135092D01*
X255711Y135855D01*
X254949Y136364D01*
X254578Y136438D01*
Y136948D01*
X254949Y137022D01*
X255711Y137531D01*
X255800Y137663D01*
X259986D01*
Y136827D01*
X258744D01*
Y132071D01*
X264287D01*
Y136827D01*
X263045D01*
Y137663D01*
X266285D01*
Y136827D01*
D02*
G37*
G36*
X225929Y136888D02*
X227404D01*
X227453Y136388D01*
X227335Y136364D01*
X226572Y135855D01*
X226063Y135092D01*
X225884Y134193D01*
X226063Y133293D01*
X226572Y132531D01*
X227335Y132021D01*
X227706Y131948D01*
Y131438D01*
X227335Y131364D01*
X226572Y130855D01*
X226063Y130092D01*
X225884Y129193D01*
X226063Y128294D01*
X226572Y127531D01*
X227335Y127022D01*
X227706Y126948D01*
Y126438D01*
X227335Y126364D01*
X226572Y125855D01*
X226484Y125722D01*
X222297D01*
Y126559D01*
X223539D01*
Y131315D01*
X217996D01*
Y126559D01*
X219238D01*
Y125722D01*
X215998D01*
Y126461D01*
X217338D01*
Y131579D01*
Y136925D01*
X215829D01*
Y137663D01*
X219238D01*
Y136827D01*
X217996D01*
Y132071D01*
X223539D01*
Y136827D01*
X222297D01*
Y137663D01*
X225929D01*
Y136888D01*
D02*
G37*
G36*
X172219Y136406D02*
X170878D01*
Y131059D01*
Y125941D01*
X172219D01*
Y125301D01*
X168978D01*
Y126138D01*
X170220D01*
Y130894D01*
X164677D01*
Y126138D01*
X165919D01*
Y125301D01*
X161733D01*
X161644Y125434D01*
X160882Y125943D01*
X160511Y126017D01*
Y126526D01*
X160882Y126600D01*
X161644Y127110D01*
X162154Y127872D01*
X162233Y128272D01*
X155538D01*
X155618Y127872D01*
X156127Y127110D01*
X156890Y126600D01*
X157261Y126526D01*
Y126017D01*
X156890Y125943D01*
X156127Y125434D01*
X155618Y124671D01*
X155439Y123772D01*
X155618Y122872D01*
X156127Y122110D01*
X156890Y121600D01*
X157356Y121508D01*
Y114457D01*
X150898D01*
Y112861D01*
X148019D01*
X147531Y112764D01*
X147118Y112488D01*
X146976Y112346D01*
X146835Y112488D01*
X146421Y112764D01*
X145933Y112861D01*
X143055D01*
Y114457D01*
X136793D01*
Y121508D01*
X137260Y121600D01*
X138022Y122110D01*
X138532Y122872D01*
X138710Y123772D01*
X138532Y124671D01*
X138022Y125434D01*
X137260Y125943D01*
X136889Y126017D01*
Y126526D01*
X137260Y126600D01*
X138022Y127110D01*
X138111Y127242D01*
X144968D01*
X145554Y127359D01*
X146050Y127690D01*
X149667Y131307D01*
X149791Y131256D01*
X150658D01*
X151460Y131588D01*
X152073Y132202D01*
X152090Y132242D01*
X156039D01*
X156127Y132110D01*
X156890Y131600D01*
X157261Y131527D01*
Y131017D01*
X156890Y130943D01*
X156127Y130433D01*
X155618Y129671D01*
X155538Y129272D01*
X162233D01*
X162154Y129671D01*
X161644Y130433D01*
X160882Y130943D01*
X160511Y131017D01*
Y131527D01*
X160882Y131600D01*
X161644Y132110D01*
X162154Y132872D01*
X162332Y133772D01*
X162154Y134671D01*
X161644Y135433D01*
X160882Y135943D01*
X160511Y136017D01*
Y136527D01*
X160882Y136600D01*
X161644Y137110D01*
X161733Y137242D01*
X165919D01*
Y136406D01*
X164677D01*
Y131650D01*
X170220D01*
Y136406D01*
X168978D01*
Y137242D01*
X172219D01*
Y136406D01*
D02*
G37*
G36*
X131862Y136467D02*
X133337D01*
X133386Y135967D01*
X133268Y135943D01*
X132505Y135433D01*
X131996Y134671D01*
X131817Y133772D01*
X131996Y132872D01*
X132505Y132110D01*
X133268Y131600D01*
X133639Y131527D01*
Y131017D01*
X133268Y130943D01*
X132505Y130433D01*
X131996Y129671D01*
X131817Y128772D01*
X131996Y127872D01*
X132505Y127110D01*
X133268Y126600D01*
X133639Y126526D01*
Y126017D01*
X133268Y125943D01*
X132505Y125434D01*
X132417Y125301D01*
X128230D01*
Y126138D01*
X129472D01*
Y130894D01*
X123929D01*
Y126138D01*
X125171D01*
Y125301D01*
X121931D01*
Y126039D01*
X123272D01*
Y131158D01*
Y136504D01*
X121762D01*
Y137242D01*
X125171D01*
Y136406D01*
X123929D01*
Y131650D01*
X129472D01*
Y136406D01*
X128230D01*
Y137242D01*
X131862D01*
Y136467D01*
D02*
G37*
G36*
X84762Y136374D02*
X83421D01*
Y131028D01*
Y125909D01*
X84762D01*
Y125270D01*
X81521D01*
Y126106D01*
X82764D01*
Y130862D01*
X77220D01*
Y126106D01*
X78463D01*
Y125270D01*
X74276D01*
X74187Y125402D01*
X73425Y125911D01*
X73054Y125985D01*
Y126495D01*
X73425Y126569D01*
X74187Y127078D01*
X74697Y127841D01*
X74776Y128240D01*
X68082D01*
X68161Y127841D01*
X68671Y127078D01*
X69433Y126569D01*
X69804Y126495D01*
Y125985D01*
X69433Y125911D01*
X68671Y125402D01*
X68161Y124640D01*
X67982Y123740D01*
X68161Y122841D01*
X68671Y122078D01*
X69433Y121569D01*
X69900Y121476D01*
Y114425D01*
X63441D01*
Y112830D01*
X60563D01*
X60075Y112733D01*
X59661Y112456D01*
X59377Y112428D01*
X59349Y112456D01*
X58936Y112733D01*
X58448Y112830D01*
X55598D01*
Y114425D01*
X49336D01*
Y121476D01*
X49803Y121569D01*
X50565Y122078D01*
X51075Y122841D01*
X51254Y123740D01*
X51075Y124640D01*
X50565Y125402D01*
X49803Y125911D01*
X49432Y125985D01*
Y126495D01*
X49803Y126569D01*
X50565Y127078D01*
X50654Y127211D01*
X57512D01*
X58097Y127327D01*
X58593Y127659D01*
X62210Y131276D01*
X62334Y131224D01*
X63201D01*
X64003Y131556D01*
X64617Y132170D01*
X64634Y132211D01*
X68582D01*
X68671Y132078D01*
X69433Y131569D01*
X69804Y131495D01*
Y130985D01*
X69433Y130912D01*
X68671Y130402D01*
X68161Y129640D01*
X68082Y129240D01*
X74776D01*
X74697Y129640D01*
X74187Y130402D01*
X73425Y130912D01*
X73054Y130985D01*
Y131495D01*
X73425Y131569D01*
X74187Y132078D01*
X74697Y132841D01*
X74876Y133740D01*
X74697Y134640D01*
X74187Y135402D01*
X73425Y135912D01*
X73054Y135985D01*
Y136495D01*
X73425Y136569D01*
X74187Y137078D01*
X74276Y137211D01*
X78463D01*
Y136374D01*
X77220D01*
Y131618D01*
X82764D01*
Y136374D01*
X81521D01*
Y137211D01*
X84762D01*
Y136374D01*
D02*
G37*
G36*
X44405Y136435D02*
X45880D01*
X45929Y135935D01*
X45811Y135912D01*
X45049Y135402D01*
X44539Y134640D01*
X44360Y133740D01*
X44539Y132841D01*
X45049Y132078D01*
X45811Y131569D01*
X46182Y131495D01*
Y130985D01*
X45811Y130912D01*
X45049Y130402D01*
X44539Y129640D01*
X44360Y128740D01*
X44539Y127841D01*
X45049Y127078D01*
X45811Y126569D01*
X46182Y126495D01*
Y125985D01*
X45811Y125911D01*
X45049Y125402D01*
X44960Y125270D01*
X40773D01*
Y126106D01*
X42016D01*
Y130862D01*
X36472D01*
Y126106D01*
X37715D01*
Y125270D01*
X34474D01*
Y126008D01*
X35815D01*
Y131126D01*
Y136472D01*
X34306D01*
Y137211D01*
X37715D01*
Y136374D01*
X36472D01*
Y131618D01*
X42016D01*
Y136374D01*
X40773D01*
Y137211D01*
X44405D01*
Y136435D01*
D02*
G37*
D15*
X41409Y120118D02*
D03*
X35898D02*
D03*
X128866Y120150D02*
D03*
X123354D02*
D03*
X222933Y120571D02*
D03*
X217421D02*
D03*
X309350D02*
D03*
X303838D02*
D03*
X246161Y169980D02*
D03*
X251673D02*
D03*
X252165Y183858D02*
D03*
X246654D02*
D03*
X227657Y166043D02*
D03*
X222146D02*
D03*
X64638Y169528D02*
D03*
X70150D02*
D03*
X70642Y183405D02*
D03*
X65130D02*
D03*
X46134Y165591D02*
D03*
X40622D02*
D03*
X152094Y169559D02*
D03*
X157606D02*
D03*
X152587Y183437D02*
D03*
X158098D02*
D03*
X128079Y165622D02*
D03*
X133590D02*
D03*
X338090Y169980D02*
D03*
X332579D02*
D03*
X333071Y183858D02*
D03*
X338583D02*
D03*
X308563Y166043D02*
D03*
X314075D02*
D03*
D16*
X214469Y134252D02*
D03*
Y129134D02*
D03*
X267815Y134153D02*
D03*
Y129035D02*
D03*
X233169Y158366D02*
D03*
Y153248D02*
D03*
X230118Y178150D02*
D03*
Y183268D02*
D03*
X237598Y183169D02*
D03*
Y178051D02*
D03*
X86291Y128583D02*
D03*
Y133701D02*
D03*
X56075Y177598D02*
D03*
Y182717D02*
D03*
X51646Y152795D02*
D03*
Y157913D02*
D03*
X48594Y182815D02*
D03*
Y177697D02*
D03*
X32945Y128681D02*
D03*
Y133799D02*
D03*
X120402Y128713D02*
D03*
Y133831D02*
D03*
X173748Y128614D02*
D03*
Y133732D02*
D03*
X139102Y152827D02*
D03*
Y157945D02*
D03*
X136051Y177728D02*
D03*
Y182846D02*
D03*
X143532Y177630D02*
D03*
Y182748D02*
D03*
X300886Y129134D02*
D03*
Y134252D02*
D03*
X354232Y129035D02*
D03*
Y134153D02*
D03*
X319587Y153248D02*
D03*
Y158366D02*
D03*
X316535Y183268D02*
D03*
Y178150D02*
D03*
X324016Y183169D02*
D03*
Y178051D02*
D03*
D17*
X245571Y146161D02*
D03*
X250689D02*
D03*
X252756Y112008D02*
D03*
X247638D02*
D03*
X229331Y112008D02*
D03*
X234449D02*
D03*
X66114Y111555D02*
D03*
X71232D02*
D03*
X69165Y145709D02*
D03*
X64047D02*
D03*
X52925Y111555D02*
D03*
X47807D02*
D03*
X156622Y145740D02*
D03*
X151504D02*
D03*
X153571Y111587D02*
D03*
X158689D02*
D03*
X140382Y111587D02*
D03*
X135264D02*
D03*
X334055Y112008D02*
D03*
X339173D02*
D03*
X315748Y112008D02*
D03*
X320866D02*
D03*
X337106Y146161D02*
D03*
X331988D02*
D03*
D18*
X252953Y139193D02*
D03*
Y134193D02*
D03*
Y129193D02*
D03*
Y124193D02*
D03*
X229331D02*
D03*
Y129193D02*
D03*
Y134193D02*
D03*
X47807Y133740D02*
D03*
Y128740D02*
D03*
Y123740D02*
D03*
X71429D02*
D03*
Y128740D02*
D03*
Y133740D02*
D03*
Y138740D02*
D03*
X158886Y138772D02*
D03*
Y133772D02*
D03*
Y128772D02*
D03*
Y123772D02*
D03*
X135264D02*
D03*
Y128772D02*
D03*
Y133772D02*
D03*
X339370Y139193D02*
D03*
Y134193D02*
D03*
Y129193D02*
D03*
Y124193D02*
D03*
X315748D02*
D03*
Y129193D02*
D03*
Y134193D02*
D03*
D19*
X229331Y139193D02*
D03*
X47807Y138740D02*
D03*
X135264Y138772D02*
D03*
X315748Y139193D02*
D03*
D20*
X261516Y134449D02*
D03*
Y128937D02*
D03*
X220768Y134449D02*
D03*
Y128937D02*
D03*
X265846Y113091D02*
D03*
Y118602D02*
D03*
X259154Y113091D02*
D03*
Y118602D02*
D03*
X77630Y112638D02*
D03*
Y118150D02*
D03*
X84323Y112638D02*
D03*
Y118150D02*
D03*
X79992Y133996D02*
D03*
Y128484D02*
D03*
X39244Y133996D02*
D03*
Y128484D02*
D03*
X167449Y128516D02*
D03*
Y134028D02*
D03*
X126701Y128516D02*
D03*
Y134028D02*
D03*
X171780Y118181D02*
D03*
Y112669D02*
D03*
X165087Y118181D02*
D03*
Y112669D02*
D03*
X347933Y128937D02*
D03*
Y134449D02*
D03*
X307185Y128937D02*
D03*
Y134449D02*
D03*
X352264Y118602D02*
D03*
Y113091D02*
D03*
X345571D02*
D03*
Y118602D02*
D03*
X277559Y41732D02*
D03*
Y36220D02*
D03*
Y18110D02*
D03*
Y12598D02*
D03*
D21*
X245079Y161909D02*
D03*
X252953D02*
D03*
X71429Y161457D02*
D03*
X63555D02*
D03*
X158886Y161488D02*
D03*
X151012D02*
D03*
X339370Y161909D02*
D03*
X331496D02*
D03*
D22*
X352795Y11535D02*
D03*
Y21535D02*
D03*
X328307Y11535D02*
D03*
Y21535D02*
D03*
D32*
X352441Y245335D02*
D03*
X302441Y235335D02*
D03*
Y225335D02*
D03*
Y245335D02*
D03*
X352441Y235335D02*
D03*
Y225335D02*
D03*
X266024D02*
D03*
Y235335D02*
D03*
X216024Y245335D02*
D03*
Y225335D02*
D03*
Y235335D02*
D03*
X266024Y245335D02*
D03*
X171957Y244913D02*
D03*
X121957Y234913D02*
D03*
Y224913D02*
D03*
Y244913D02*
D03*
X171957Y234913D02*
D03*
Y224913D02*
D03*
X84500Y224882D02*
D03*
Y234882D02*
D03*
X34500Y244882D02*
D03*
Y224882D02*
D03*
Y234882D02*
D03*
X84500Y244882D02*
D03*
D42*
X186681Y75428D02*
X187197Y74978D01*
X184400Y78047D02*
X185119Y77139D01*
X185880Y76265D01*
X186681Y75428D01*
X186519Y78049D02*
X186919Y77072D01*
X187561Y76232D01*
X188400Y75590D01*
X189378Y75190D01*
X225035Y96457D02*
X239879Y111301D01*
X216132Y96457D02*
X225035D01*
X216753Y94957D02*
X225656D01*
X234449Y112008D02*
X239586D01*
X239879Y111715D01*
Y111301D02*
Y111715D01*
X241379Y110679D02*
Y111292D01*
X242095Y112008D01*
X247638D01*
X225656Y94957D02*
X241379Y110679D01*
X234449Y112008D02*
X234449Y112008D01*
X175394Y69065D02*
Y74469D01*
X185394Y69065D02*
X189045Y72716D01*
X184400Y78047D02*
Y78733D01*
X187197Y74978D02*
X189045Y73131D01*
X186681Y75428D02*
X186681Y75428D01*
X184400Y78733D02*
X184400Y78876D01*
X189045Y72716D02*
Y73131D01*
X185900Y78668D02*
Y81970D01*
X189378Y75190D02*
X189720Y74848D01*
X190533Y74035D01*
X184400Y78876D02*
Y81348D01*
X185900Y78668D02*
X186519Y78049D01*
X170816Y94932D02*
X184400Y81348D01*
X171437Y96432D02*
X185900Y81970D01*
X161552Y94932D02*
X170816D01*
X162174Y96432D02*
X171437D01*
X60563Y111555D02*
X66114D01*
X60563Y86546D02*
Y111555D01*
X59063Y85924D02*
Y110941D01*
Y85924D02*
X62629Y82358D01*
X60563Y86546D02*
X63250Y83858D01*
X52925Y111555D02*
X58448D01*
X59063Y110941D01*
X146226Y110258D02*
X161552Y94932D01*
X66114Y111555D02*
X66114Y111555D01*
X202607Y82931D02*
X216132Y96457D01*
X204167Y82371D02*
X216753Y94957D01*
X167504Y82358D02*
X175394Y74469D01*
X62629Y82358D02*
X167504D01*
X63250Y83858D02*
X168125D01*
X176449Y75535D01*
X176863D02*
X180394Y79065D01*
X176449Y75535D02*
X176863D01*
X208320Y84071D02*
X325348D01*
X208942Y82571D02*
X325970D01*
X205900Y69571D02*
Y81650D01*
X205394Y69065D02*
X205900Y69571D01*
X194400Y83071D02*
X202053D01*
X190394Y79065D02*
X194400Y83071D01*
X153571Y111587D02*
X153571Y111587D01*
X148019Y111587D02*
X153571D01*
X147726Y111294D02*
X148019Y111587D01*
X147726Y110880D02*
Y111294D01*
Y110880D02*
X162174Y96432D01*
X190533Y74035D02*
X195363D01*
X200394Y79065D01*
X140382Y111587D02*
X145933D01*
X146226Y111294D01*
Y110258D02*
Y111294D01*
X204167Y80957D02*
Y82371D01*
Y80957D02*
X204400Y80724D01*
X196059Y69065D02*
X204400Y77406D01*
X195394Y69065D02*
X196059D01*
X202192Y82931D02*
X202607D01*
X202053Y83071D02*
X202192Y82931D01*
X204400Y77406D02*
Y80724D01*
X207400Y81029D02*
X208942Y82571D01*
X207400Y80615D02*
Y81029D01*
Y80615D02*
X207693Y80322D01*
X207781D01*
X209037Y79065D02*
X210394D01*
X205900Y81650D02*
X208320Y84071D01*
X207781Y80322D02*
X209037Y79065D01*
X325348Y84071D02*
X326711Y85433D01*
X325970Y82571D02*
X328211Y84812D01*
Y111715D01*
X326711Y85433D02*
Y111715D01*
X326418Y112008D02*
X326711Y111715D01*
X320866Y112008D02*
X326418D01*
X328503D02*
X334055D01*
X334055Y112008D01*
X328211Y111715D02*
X328503Y112008D01*
D43*
X214272Y134843D02*
X214300Y134871D01*
X214469Y124779D02*
Y127902D01*
X220768Y124390D02*
Y128937D01*
X229331Y134193D02*
X229360Y134222D01*
X235207D01*
X229724Y129193D02*
X239035D01*
X235207Y134222D02*
X235236Y134252D01*
X252953Y112205D02*
X253051Y112106D01*
X214469Y124779D02*
X215054Y124193D01*
X220965D01*
X220768Y124390D02*
X220965Y124193D01*
X222933Y120571D02*
X223031Y120472D01*
X226650D01*
X220965Y124193D02*
X229331D01*
Y112106D02*
Y124193D01*
X252953Y112205D02*
Y124193D01*
X256102Y118110D02*
X256348Y118356D01*
X252953Y124193D02*
X261417D01*
X256348Y118356D02*
X258908D01*
X259154Y118602D01*
X260032Y119480D01*
X260992D01*
X261295Y119783D01*
X261417Y124193D02*
X261516Y124291D01*
X261295Y119783D02*
X265846D01*
X261417Y124193D02*
X267229D01*
X265846Y119783D02*
X265945Y119882D01*
X271161D01*
X239035Y129193D02*
X244035Y134193D01*
X252953D01*
X261516Y124291D02*
Y128937D01*
X267229Y124193D02*
X267815Y124779D01*
Y128248D01*
X214300Y134871D02*
Y138316D01*
X215177Y139193D01*
X220768D01*
X220768Y134449D02*
Y139193D01*
X220768Y139193D01*
X229331D01*
Y143405D01*
X232972Y147047D01*
X237598Y146452D02*
X238184Y145866D01*
X227657Y166043D02*
X232825D01*
X237598Y146452D02*
Y169980D01*
X232972Y147047D02*
Y153445D01*
X237992Y161909D02*
X245079D01*
X232972Y166191D02*
Y172643D01*
X237598Y169980D02*
Y177953D01*
X229894Y183492D02*
X230118Y183268D01*
Y173814D02*
Y178150D01*
Y173814D02*
X230704Y173228D01*
X232387D01*
X232972Y172643D01*
X237392Y183376D02*
X237598Y183169D01*
X232972Y158366D02*
Y166191D01*
X232825Y166043D02*
X232972Y166191D01*
X261516Y134449D02*
Y139193D01*
X267815Y135138D02*
Y138607D01*
X267229Y139193D02*
X267815Y138607D01*
X261516Y139193D02*
X261516Y139193D01*
X252953D02*
X256398D01*
X261516D01*
X267229D01*
X252277Y195222D02*
X252390Y195335D01*
X252277Y185053D02*
Y195222D01*
X237598Y169980D02*
X246161D01*
X251673D02*
X252165Y170472D01*
Y177165D01*
Y183858D01*
Y184941D02*
X252277Y185053D01*
X238184Y145866D02*
X245275D01*
X256398Y139193D02*
Y145719D01*
X255955Y146161D02*
X256398Y145719D01*
X250689Y146161D02*
X255955D01*
X245275Y145866D02*
X245571Y146161D01*
X229894Y183492D02*
Y195335D01*
X237392Y183376D02*
Y195335D01*
X342372Y146161D02*
X342815Y145719D01*
X337106Y146161D02*
X342372D01*
X319390Y158366D02*
Y166191D01*
X156622Y145740D02*
X161888D01*
X162331Y145297D01*
X138906Y157945D02*
Y165770D01*
X51449Y157913D02*
Y165738D01*
X56075Y153091D02*
Y169528D01*
Y145999D02*
Y153091D01*
X69165Y145413D02*
X74726D01*
X338090Y169980D02*
X338583Y170472D01*
Y177165D01*
X338583Y177165D02*
X338583Y177165D01*
X338583Y177165D02*
Y183858D01*
X330876Y134026D02*
X339203D01*
X326043Y129193D02*
X330876Y134026D01*
X316142Y129193D02*
X326043D01*
X339203Y134026D02*
X339370Y134193D01*
X347713Y119783D02*
X352264D01*
X345571Y118602D02*
X346449Y119480D01*
X345325Y118356D02*
X345571Y118602D01*
X149969Y133772D02*
X158886D01*
X144968Y128772D02*
X149969Y133772D01*
X62512Y133740D02*
X71429D01*
X167228Y119362D02*
X171780D01*
X165087Y118181D02*
X165965Y119059D01*
X164840Y117935D02*
X165087Y118181D01*
X57512Y128740D02*
X62512Y133740D01*
X79772Y119331D02*
X84323D01*
X77630Y118150D02*
X78508Y119028D01*
X77384Y117904D02*
X77630Y118150D01*
X32748Y134390D02*
X32776Y134418D01*
Y137863D01*
X33654Y138740D01*
X39244D01*
X39244Y133996D02*
Y138740D01*
X39244Y138740D01*
X47807D01*
Y142953D01*
X51449Y146595D01*
X56075Y145999D02*
X56661Y145413D01*
X63752D01*
X64047Y145709D01*
X86291Y124326D02*
Y127795D01*
X79894Y123740D02*
X85706D01*
X86291Y124326D01*
X71429Y138740D02*
X74874D01*
X74726Y145413D02*
X74874Y145266D01*
Y138740D02*
Y145266D01*
Y138740D02*
X79992D01*
X79992Y133996D02*
Y138740D01*
X79992Y138740D01*
X85706D01*
X86291Y138154D01*
Y134685D02*
Y138154D01*
X79894Y123740D02*
X79992Y123839D01*
Y128484D01*
X47807Y111653D02*
Y123740D01*
X71429Y111752D02*
Y123740D01*
X74579Y117657D02*
X74825Y117904D01*
X77384D01*
X71429Y123740D02*
X79894D01*
X71429Y111752D02*
X71527Y111653D01*
X39441Y123740D02*
X47807D01*
X41409Y120118D02*
X41508Y120020D01*
X45126D01*
X32945Y124326D02*
Y127450D01*
Y124326D02*
X33531Y123740D01*
X39441D01*
X39244Y123937D02*
Y128484D01*
Y123937D02*
X39441Y123740D01*
X47807Y133740D02*
X47837Y133770D01*
X53683D01*
X48201Y128740D02*
X57512D01*
X53683Y133770D02*
X53713Y133799D01*
X46134Y165591D02*
X51301D01*
X51449Y165738D01*
Y146595D02*
Y152992D01*
Y165738D02*
Y172190D01*
X56468Y161457D02*
X63555D01*
X48370Y183039D02*
X48594Y182815D01*
Y173361D02*
Y177697D01*
Y173361D02*
X49180Y172776D01*
X50863D01*
X51449Y172190D01*
X55868Y182923D02*
X56075Y182717D01*
X56075Y169528D02*
Y177500D01*
Y169528D02*
X64638D01*
X70150D02*
X70642Y170020D01*
Y176713D01*
Y183405D01*
X48370Y183039D02*
Y194882D01*
X55868Y182923D02*
Y194882D01*
X70642Y184488D02*
X70754Y184600D01*
Y194770D01*
X70866Y194882D01*
X78508Y119028D02*
X79469D01*
X79772Y119331D01*
X84323D02*
X84421Y119429D01*
X89638D01*
X166925Y119059D02*
X167228Y119362D01*
X171878Y119461D02*
X177094D01*
X171780Y119362D02*
X171878Y119461D01*
X165965Y119059D02*
X166925D01*
X143925Y161488D02*
X151012D01*
X158098Y170051D02*
Y176744D01*
Y183437D01*
X157606Y169559D02*
X158098Y170051D01*
X135657Y128772D02*
X144968D01*
X162282Y117935D02*
X164840D01*
X162035Y117689D02*
X162282Y117935D01*
X135264Y111685D02*
Y123772D01*
X158886Y111783D02*
X158984Y111685D01*
X158886Y111783D02*
Y123772D01*
X143325Y182955D02*
Y194913D01*
Y182955D02*
X143532Y182748D01*
X158211Y194801D02*
X158323Y194913D01*
X158098Y184520D02*
X158211Y184632D01*
Y194801D01*
X135827Y183071D02*
Y194913D01*
Y183071D02*
X136051Y182846D01*
X141140Y133801D02*
X141169Y133831D01*
X135293Y133801D02*
X141140D01*
X135264Y133772D02*
X135293Y133801D01*
X128964Y120051D02*
X132583D01*
X128866Y120150D02*
X128964Y120051D01*
X151209Y145445D02*
X151504Y145740D01*
X144117Y145445D02*
X151209D01*
X143532Y169559D02*
X152094D01*
X143532D02*
Y177532D01*
Y146031D02*
X144117Y145445D01*
X143532Y146031D02*
Y169559D01*
X135264Y142984D02*
X138906Y146626D01*
Y153024D01*
X135264Y138772D02*
Y142984D01*
X138906Y165770D02*
Y172221D01*
X138758Y165622D02*
X138906Y165770D01*
X138320Y172807D02*
X138906Y172221D01*
X136051Y173393D02*
X136637Y172807D01*
X136051Y173393D02*
Y177728D01*
X136637Y172807D02*
X138320D01*
X133590Y165622D02*
X138758D01*
X173748Y124357D02*
Y127827D01*
X167449Y123870D02*
Y128516D01*
X173162Y123772D02*
X173748Y124357D01*
X167350Y123772D02*
X173162D01*
X167350D02*
X167449Y123870D01*
X158886Y123772D02*
X167350D01*
X173162Y138772D02*
X173748Y138186D01*
Y134716D02*
Y138186D01*
X167449Y138772D02*
X167449Y138772D01*
X173162D01*
X167449Y134028D02*
Y138772D01*
X158886Y138772D02*
X162331D01*
Y145297D01*
Y138772D02*
X167449D01*
X126701Y123969D02*
X126898Y123772D01*
X135264D01*
X126701Y123969D02*
Y128516D01*
X120402Y124357D02*
Y127481D01*
X120987Y123772D02*
X126898D01*
X120402Y124357D02*
X120987Y123772D01*
X126701Y138772D02*
X135264D01*
X126701Y134028D02*
Y138772D01*
X121110Y138772D02*
X126701D01*
X126701Y138772D02*
X126701Y138772D01*
X120233Y137894D02*
X121110Y138772D01*
X120233Y134450D02*
Y137894D01*
X120205Y134421D02*
X120233Y134450D01*
X316311Y183492D02*
X316535Y183268D01*
X316311Y183492D02*
Y195335D01*
X317121Y173228D02*
X318804D01*
X319390Y166191D02*
Y172643D01*
X318804Y173228D02*
X319390Y172643D01*
X319242Y166043D02*
X319390Y166191D01*
X316535Y173814D02*
Y178150D01*
Y173814D02*
X317121Y173228D01*
X315748Y112106D02*
Y124193D01*
X339370Y112205D02*
Y124193D01*
Y112205D02*
X339469Y112106D01*
X342520Y118110D02*
X342766Y118356D01*
X300886Y124779D02*
X301472Y124193D01*
X307382D01*
X307185Y124390D02*
X307382Y124193D01*
X309350Y120571D02*
X309449Y120472D01*
X313067D01*
X307382Y124193D02*
X315748D01*
X339370D02*
X347835D01*
X342766Y118356D02*
X345325D01*
X346449Y119480D02*
X347409D01*
X347713Y119783D01*
X347835Y124193D02*
X347933Y124291D01*
X347835Y124193D02*
X353646D01*
X352264Y119783D02*
X352362Y119882D01*
X353646Y124193D02*
X354232Y124779D01*
X352362Y119882D02*
X357579D01*
X300717Y138316D02*
X301594Y139193D01*
X307185D01*
X347933Y134449D02*
Y139193D01*
X354232Y135138D02*
Y138607D01*
X353646Y139193D02*
X354232Y138607D01*
X307185Y139193D02*
X307185Y139193D01*
X347933Y139193D02*
X347933Y139193D01*
X353646D01*
X339370D02*
X342815D01*
X307185D02*
X315748D01*
X342815D02*
X347933D01*
X315748Y143405D02*
X319390Y147047D01*
X315748Y139193D02*
Y143405D01*
X342815Y139193D02*
Y145719D01*
X314075Y166043D02*
X319242D01*
X319390Y147047D02*
Y153445D01*
X324016Y146452D02*
Y169980D01*
Y146452D02*
X324602Y145866D01*
X324409Y161909D02*
X331496D01*
X324602Y145866D02*
X331693D01*
X324016Y169980D02*
X332579D01*
X331693Y145866D02*
X331988Y146161D01*
X324016Y169980D02*
Y177953D01*
X323809Y183376D02*
X324016Y183169D01*
X323809Y183376D02*
Y195335D01*
X338583Y184941D02*
X338695Y185053D01*
Y195222D01*
X338807Y195335D01*
X300689Y134843D02*
X300717Y134871D01*
Y138316D01*
X300886Y124779D02*
Y127902D01*
X307185Y124390D02*
Y128937D01*
X315777Y134222D02*
X321624D01*
X307185Y134449D02*
Y139193D01*
X315748Y134193D02*
X315777Y134222D01*
X354232Y124779D02*
Y128248D01*
X321624Y134222D02*
X321654Y134252D01*
X347933Y124291D02*
Y128937D01*
X306968Y15354D02*
X307671Y14651D01*
X307874Y21496D02*
X308150Y21220D01*
Y15354D02*
Y21220D01*
X307874Y15630D02*
X308150Y15354D01*
X277559Y21496D02*
X307874D01*
X264764D02*
X277559D01*
X277559Y18110D02*
Y21496D01*
X277559Y21496D02*
X277559Y21496D01*
X307874Y21496D02*
X327087D01*
X327126Y11535D02*
Y21535D01*
X327087Y21496D02*
X327126Y21535D01*
X264882Y41614D02*
X277441D01*
X277559Y41732D01*
X264764Y41496D02*
X264882Y41614D01*
X277559Y42126D02*
Y50787D01*
X90256Y295264D02*
Y298189D01*
D44*
X315996Y195335D02*
D03*
X323494D02*
D03*
X330994D02*
D03*
X338492D02*
D03*
X252075D02*
D03*
X244577D02*
D03*
X237077D02*
D03*
X229579D02*
D03*
X135512Y194913D02*
D03*
X143010D02*
D03*
X150510D02*
D03*
X158008D02*
D03*
X70551Y194882D02*
D03*
X63053D02*
D03*
X55553D02*
D03*
X48055D02*
D03*
D45*
X374016Y11811D02*
D03*
X9843Y372047D02*
D03*
X11811Y11811D02*
D03*
X375984Y372047D02*
D03*
D46*
X223425Y56073D02*
D03*
X162401D02*
D03*
D47*
X215413Y44065D02*
D03*
X170413D02*
D03*
D48*
X210394Y79065D02*
D03*
X205394Y69065D02*
D03*
X200394Y79065D02*
D03*
X195394Y69065D02*
D03*
X190394Y79065D02*
D03*
X185394Y69065D02*
D03*
X180394Y79065D02*
D03*
X175394Y69065D02*
D03*
D49*
X231358Y338189D02*
D03*
X255531Y298189D02*
D03*
X271358D02*
D03*
X295531Y338189D02*
D03*
X351358Y298189D02*
D03*
X311358Y338189D02*
D03*
X335531Y298189D02*
D03*
X215571Y338189D02*
D03*
X34468D02*
D03*
X154429Y298189D02*
D03*
X130256Y338189D02*
D03*
X170256Y298189D02*
D03*
X114429Y338189D02*
D03*
X90256Y298189D02*
D03*
X74429D02*
D03*
X50256Y338189D02*
D03*
D50*
X308150Y15354D02*
D03*
X298150D02*
D03*
D51*
X264764Y21496D02*
D03*
D52*
Y31496D02*
D03*
Y41496D02*
D03*
D53*
X211614Y120079D02*
D03*
X226650Y120472D02*
D03*
X235236Y134252D02*
D03*
X241142Y125591D02*
D03*
Y137992D02*
D03*
X244291Y133858D02*
D03*
X256102Y118110D02*
D03*
X259842Y157480D02*
D03*
X262795Y110236D02*
D03*
Y100394D02*
D03*
X271161Y119882D02*
D03*
X214567Y166339D02*
D03*
X244587Y177067D02*
D03*
X252165Y177165D02*
D03*
X349409Y100394D02*
D03*
X168307D02*
D03*
X346457Y157480D02*
D03*
X165354D02*
D03*
X349409Y110236D02*
D03*
X297244Y120079D02*
D03*
X301181Y166339D02*
D03*
X120079Y165354D02*
D03*
X168307Y110236D02*
D03*
X118110Y120079D02*
D03*
X78740Y157480D02*
D03*
X31496Y120079D02*
D03*
X81693Y109252D02*
D03*
X338583Y177165D02*
D03*
X330709Y133858D02*
D03*
X327559Y137795D02*
D03*
X74579Y117657D02*
D03*
X89638Y119429D02*
D03*
X45126Y120020D02*
D03*
X59618Y125138D02*
D03*
X62768Y133405D02*
D03*
X53713Y133799D02*
D03*
X59618Y136850D02*
D03*
X70642Y176713D02*
D03*
X177094Y119461D02*
D03*
X158098Y176744D02*
D03*
X150224Y133437D02*
D03*
X162035Y117689D02*
D03*
X141169Y133831D02*
D03*
X132583Y120051D02*
D03*
X146976Y125169D02*
D03*
Y136685D02*
D03*
X342520Y118110D02*
D03*
X357579Y119882D02*
D03*
X313067Y120472D02*
D03*
X327559Y125591D02*
D03*
X321654Y134252D02*
D03*
X330709Y177165D02*
D03*
X277559Y50787D02*
D03*
M02*
