G04*
G04 #@! TF.GenerationSoftware,Altium Limited,Altium Designer,22.9.1 (49)*
G04*
G04 Layer_Color=8388736*
%FSLAX25Y25*%
%MOIN*%
G70*
G04*
G04 #@! TF.SameCoordinates,3C18945F-2A23-418A-B3D5-6108012D2850*
G04*
G04*
G04 #@! TF.FilePolarity,Negative*
G04*
G01*
G75*
%ADD22R,0.15512X0.05000*%
%ADD23R,0.03556X0.04343*%
%ADD24R,0.04540X0.04147*%
%ADD25R,0.04147X0.04540*%
%ADD26O,0.05603X0.03410*%
%ADD27R,0.05603X0.03410*%
%ADD28R,0.04343X0.03556*%
%ADD29R,0.06115X0.06902*%
%ADD30O,0.05900X0.09900*%
%ADD31O,0.10800X0.08300*%
%ADD32O,0.10000X0.07500*%
%ADD33C,0.13005*%
%ADD34C,0.09855*%
%ADD35C,0.04993*%
%ADD36C,0.06312*%
%ADD37C,0.12611*%
%ADD38C,0.07887*%
%ADD39R,0.06706X0.06706*%
%ADD40C,0.06706*%
%ADD41C,0.03162*%
D22*
X352795Y11535D02*
D03*
Y21535D02*
D03*
X328307Y11535D02*
D03*
Y21535D02*
D03*
D23*
X41409Y120118D02*
D03*
X35898D02*
D03*
X128866Y120150D02*
D03*
X123354D02*
D03*
X222933Y120571D02*
D03*
X217421D02*
D03*
X309350D02*
D03*
X303838D02*
D03*
X246161Y169980D02*
D03*
X251673D02*
D03*
X252165Y183858D02*
D03*
X246654D02*
D03*
X227657Y166043D02*
D03*
X222146D02*
D03*
X64638Y169528D02*
D03*
X70150D02*
D03*
X70642Y183405D02*
D03*
X65130D02*
D03*
X46134Y165591D02*
D03*
X40622D02*
D03*
X152094Y169559D02*
D03*
X157606D02*
D03*
X152587Y183437D02*
D03*
X158098D02*
D03*
X128079Y165622D02*
D03*
X133590D02*
D03*
X338090Y169980D02*
D03*
X332579D02*
D03*
X333071Y183858D02*
D03*
X338583D02*
D03*
X308563Y166043D02*
D03*
X314075D02*
D03*
D24*
X214469Y134252D02*
D03*
Y129134D02*
D03*
X267815Y134153D02*
D03*
Y129035D02*
D03*
X233169Y158366D02*
D03*
Y153248D02*
D03*
X230118Y178150D02*
D03*
Y183268D02*
D03*
X237598Y183169D02*
D03*
Y178051D02*
D03*
X86291Y128583D02*
D03*
Y133701D02*
D03*
X56075Y177598D02*
D03*
Y182717D02*
D03*
X51646Y152795D02*
D03*
Y157913D02*
D03*
X48594Y182815D02*
D03*
Y177697D02*
D03*
X32945Y128681D02*
D03*
Y133799D02*
D03*
X120402Y128713D02*
D03*
Y133831D02*
D03*
X173748Y128614D02*
D03*
Y133732D02*
D03*
X139102Y152827D02*
D03*
Y157945D02*
D03*
X136051Y177728D02*
D03*
Y182846D02*
D03*
X143532Y177630D02*
D03*
Y182748D02*
D03*
X300886Y129134D02*
D03*
Y134252D02*
D03*
X354232Y129035D02*
D03*
Y134153D02*
D03*
X319587Y153248D02*
D03*
Y158366D02*
D03*
X316535Y183268D02*
D03*
Y178150D02*
D03*
X324016Y183169D02*
D03*
Y178051D02*
D03*
D25*
X245571Y146161D02*
D03*
X250689D02*
D03*
X252756Y112008D02*
D03*
X247638D02*
D03*
X229331Y112008D02*
D03*
X234449D02*
D03*
X66114Y111555D02*
D03*
X71232D02*
D03*
X69165Y145709D02*
D03*
X64047D02*
D03*
X52925Y111555D02*
D03*
X47807D02*
D03*
X156622Y145740D02*
D03*
X151504D02*
D03*
X153571Y111587D02*
D03*
X158689D02*
D03*
X140382Y111587D02*
D03*
X135264D02*
D03*
X334055Y112008D02*
D03*
X339173D02*
D03*
X315748Y112008D02*
D03*
X320866D02*
D03*
X337106Y146161D02*
D03*
X331988D02*
D03*
D26*
X252953Y139193D02*
D03*
Y134193D02*
D03*
Y129193D02*
D03*
Y124193D02*
D03*
X229331D02*
D03*
Y129193D02*
D03*
Y134193D02*
D03*
X47807Y133740D02*
D03*
Y128740D02*
D03*
Y123740D02*
D03*
X71429D02*
D03*
Y128740D02*
D03*
Y133740D02*
D03*
Y138740D02*
D03*
X158886Y138772D02*
D03*
Y133772D02*
D03*
Y128772D02*
D03*
Y123772D02*
D03*
X135264D02*
D03*
Y128772D02*
D03*
Y133772D02*
D03*
X339370Y139193D02*
D03*
Y134193D02*
D03*
Y129193D02*
D03*
Y124193D02*
D03*
X315748D02*
D03*
Y129193D02*
D03*
Y134193D02*
D03*
D27*
X229331Y139193D02*
D03*
X47807Y138740D02*
D03*
X135264Y138772D02*
D03*
X315748Y139193D02*
D03*
D28*
X261516Y134449D02*
D03*
Y128937D02*
D03*
X220768Y134449D02*
D03*
Y128937D02*
D03*
X265846Y113091D02*
D03*
Y118602D02*
D03*
X259154Y113091D02*
D03*
Y118602D02*
D03*
X77630Y112638D02*
D03*
Y118150D02*
D03*
X84323Y112638D02*
D03*
Y118150D02*
D03*
X79992Y133996D02*
D03*
Y128484D02*
D03*
X39244Y133996D02*
D03*
Y128484D02*
D03*
X167449Y128516D02*
D03*
Y134028D02*
D03*
X126701Y128516D02*
D03*
Y134028D02*
D03*
X171780Y118181D02*
D03*
Y112669D02*
D03*
X165087Y118181D02*
D03*
Y112669D02*
D03*
X347933Y128937D02*
D03*
Y134449D02*
D03*
X307185Y128937D02*
D03*
Y134449D02*
D03*
X352264Y118602D02*
D03*
Y113091D02*
D03*
X345571D02*
D03*
Y118602D02*
D03*
X277559Y41732D02*
D03*
Y36220D02*
D03*
Y18110D02*
D03*
Y12598D02*
D03*
D29*
X245079Y161909D02*
D03*
X252953D02*
D03*
X71429Y161457D02*
D03*
X63555D02*
D03*
X158886Y161488D02*
D03*
X151012D02*
D03*
X339370Y161909D02*
D03*
X331496D02*
D03*
D30*
X315996Y195335D02*
D03*
X323494D02*
D03*
X330994D02*
D03*
X338492D02*
D03*
X252075D02*
D03*
X244577D02*
D03*
X237077D02*
D03*
X229579D02*
D03*
X135512Y194913D02*
D03*
X143010D02*
D03*
X150510D02*
D03*
X158008D02*
D03*
X70551Y194882D02*
D03*
X63053D02*
D03*
X55553D02*
D03*
X48055D02*
D03*
D31*
X352441Y245335D02*
D03*
X302441D02*
D03*
X216024D02*
D03*
X266024D02*
D03*
X171957Y244913D02*
D03*
X121957D02*
D03*
X34500Y244882D02*
D03*
X84500D02*
D03*
D32*
X302441Y235335D02*
D03*
Y225335D02*
D03*
X352441Y235335D02*
D03*
Y225335D02*
D03*
X266024D02*
D03*
Y235335D02*
D03*
X216024Y225335D02*
D03*
Y235335D02*
D03*
X121957Y234913D02*
D03*
Y224913D02*
D03*
X171957Y234913D02*
D03*
Y224913D02*
D03*
X84500Y224882D02*
D03*
Y234882D02*
D03*
X34500Y224882D02*
D03*
Y234882D02*
D03*
D33*
X374016Y11811D02*
D03*
X9843Y372047D02*
D03*
X11811Y11811D02*
D03*
X375984Y372047D02*
D03*
D34*
X223425Y56073D02*
D03*
X162401D02*
D03*
D35*
X215413Y44065D02*
D03*
X170413D02*
D03*
D36*
X210394Y79065D02*
D03*
X205394Y69065D02*
D03*
X200394Y79065D02*
D03*
X195394Y69065D02*
D03*
X190394Y79065D02*
D03*
X185394Y69065D02*
D03*
X180394Y79065D02*
D03*
X175394Y69065D02*
D03*
D37*
X231358Y338189D02*
D03*
X255531Y298189D02*
D03*
X271358D02*
D03*
X295531Y338189D02*
D03*
X351358Y298189D02*
D03*
X311358Y338189D02*
D03*
X335531Y298189D02*
D03*
X215571Y338189D02*
D03*
X34468D02*
D03*
X154429Y298189D02*
D03*
X130256Y338189D02*
D03*
X170256Y298189D02*
D03*
X114429Y338189D02*
D03*
X90256Y298189D02*
D03*
X74429D02*
D03*
X50256Y338189D02*
D03*
D38*
X308150Y15354D02*
D03*
X298150D02*
D03*
D39*
X264764Y21496D02*
D03*
D40*
Y31496D02*
D03*
Y41496D02*
D03*
D41*
X226650Y120472D02*
D03*
X235236Y134252D02*
D03*
X241142Y125591D02*
D03*
X244291Y133858D02*
D03*
X330709D02*
D03*
X45126Y120020D02*
D03*
X62768Y133405D02*
D03*
X53713Y133799D02*
D03*
X150224Y133437D02*
D03*
X141169Y133831D02*
D03*
X132583Y120051D02*
D03*
X313067Y120472D02*
D03*
X327559Y125591D02*
D03*
X321654Y134252D02*
D03*
X330709Y177165D02*
D03*
M02*
