999
"DXF R12 Output" (www.mydxf.blogspot.com)
 0 
SECTION
 2 
HEADER
 9 
$ACADVER
 1 
AC1009
 9 
$EXTMIN
 10 
 0 
 20 
 0 
 9 
$EXTMAX
 10 
 8.5 
 20 
 11 
 0 
ENDSEC
 0 
SECTION
 2 
ENTITIES
0
POLYLINE
8
Ebene 1
62
7
70
0
10
0.000000
20
0.000000
66
1
0
VERTEX
8
Ebene 1
10
82.479881
20
38.540061
70
0
0
VERTEX
8
Ebene 1
10
67.586290
20
38.540061
70
0
0
VERTEX
8
Ebene 1
10
67.064267
20
38.646310
70
0
0
VERTEX
8
Ebene 1
10
66.638131
20
38.934312
70
0
0
VERTEX
8
Ebene 1
10
66.350902
20
39.360970
70
0
0
VERTEX
8
Ebene 1
10
66.245600
20
39.883185
70
0
0
VERTEX
8
Ebene 1
10
66.245600
20
59.222221
70
0
0
VERTEX
8
Ebene 1
10
66.395260
20
59.583532
70
0
0
VERTEX
8
Ebene 1
10
66.756571
20
59.733192
70
0
0
VERTEX
8
Ebene 1
10
66.756571
20
59.733192
70
0
0
VERTEX
8
Ebene 1
10
67.116310
20
59.582674
70
0
0
VERTEX
8
Ebene 1
10
67.265108
20
59.222221
70
0
0
VERTEX
8
Ebene 1
10
67.265108
20
40.082707
70
0
0
VERTEX
8
Ebene 1
10
67.414914
20
39.722253
70
0
0
VERTEX
8
Ebene 1
10
67.776079
20
39.574169
70
0
0
VERTEX
8
Ebene 1
10
82.479881
20
39.574169
70
0
0
VERTEX
8
Ebene 1
10
82.586936
20
39.630139
70
0
0
VERTEX
8
Ebene 1
10
96.592411
20
58.609060
70
0
0
VERTEX
8
Ebene 1
10
96.604519
20
58.750307
70
0
0
VERTEX
8
Ebene 1
10
96.482919
20
58.823182
70
0
0
VERTEX
8
Ebene 1
10
83.277966
20
58.823182
70
0
0
VERTEX
8
Ebene 1
10
82.916652
20
58.673523
70
0
0
VERTEX
8
Ebene 1
10
82.766991
20
58.312211
70
0
0
VERTEX
8
Ebene 1
10
82.766991
20
45.202155
70
0
0
VERTEX
8
Ebene 1
10
82.618909
20
44.840993
70
0
0
VERTEX
8
Ebene 1
10
82.258461
20
44.691184
70
0
0
VERTEX
8
Ebene 1
10
82.258461
20
44.691184
70
0
0
VERTEX
8
Ebene 1
10
81.897147
20
44.840843
70
0
0
VERTEX
8
Ebene 1
10
81.747486
20
45.202155
70
0
0
VERTEX
8
Ebene 1
10
81.747486
20
58.492267
70
0
0
VERTEX
8
Ebene 1
10
81.852844
20
59.014123
70
0
0
VERTEX
8
Ebene 1
10
82.140164
20
59.440276
70
0
0
VERTEX
8
Ebene 1
10
82.566316
20
59.727598
70
0
0
VERTEX
8
Ebene 1
10
83.088172
20
59.832957
70
0
0
VERTEX
8
Ebene 1
10
97.444028
20
59.832957
70
0
0
VERTEX
8
Ebene 1
10
97.809317
20
59.748014
70
0
0
VERTEX
8
Ebene 1
10
98.067404
20
59.475906
70
0
0
VERTEX
8
Ebene 1
10
98.132922
20
59.106639
70
0
0
VERTEX
8
Ebene 1
10
97.984202
20
58.762352
70
0
0
VERTEX
8
Ebene 1
10
83.402062
20
39.026705
70
0
0
VERTEX
8
Ebene 1
10
82.995749
20
38.679582
70
0
0
VERTEX
8
Ebene 1
10
82.479881
20
38.540066
70
0
0
VERTEX
8
Ebene 1
10
82.479881
20
38.540061
70
0
0
SEQEND
8
Ebene 1
0
POLYLINE
8
Ebene 1
62
7
70
0
10
0.000000
20
0.000000
66
1
0
VERTEX
8
Ebene 1
10
125.763990
20
38.540061
70
0
0
VERTEX
8
Ebene 1
10
120.303900
20
38.540061
70
0
0
VERTEX
8
Ebene 1
10
119.781877
20
38.646310
70
0
0
VERTEX
8
Ebene 1
10
119.355741
20
38.934312
70
0
0
VERTEX
8
Ebene 1
10
119.068512
20
39.360970
70
0
0
VERTEX
8
Ebene 1
10
118.963210
20
39.883185
70
0
0
VERTEX
8
Ebene 1
10
118.963210
20
58.304906
70
0
0
VERTEX
8
Ebene 1
10
118.814411
20
58.665360
70
0
0
VERTEX
8
Ebene 1
10
118.454670
20
58.815877
70
0
0
VERTEX
8
Ebene 1
10
103.402930
20
58.815877
70
0
0
VERTEX
8
Ebene 1
10
103.043189
20
58.665360
70
0
0
VERTEX
8
Ebene 1
10
102.894390
20
58.304906
70
0
0
VERTEX
8
Ebene 1
10
102.894390
20
39.895351
70
0
0
VERTEX
8
Ebene 1
10
102.796124
20
39.378747
70
0
0
VERTEX
8
Ebene 1
10
102.507039
20
38.939468
70
0
0
VERTEX
8
Ebene 1
10
102.071450
20
38.644852
70
0
0
VERTEX
8
Ebene 1
10
101.556130
20
38.540061
70
0
0
VERTEX
8
Ebene 1
10
88.570168
20
38.540061
70
0
0
VERTEX
8
Ebene 1
10
88.208854
20
38.689720
70
0
0
VERTEX
8
Ebene 1
10
88.059193
20
39.051032
70
0
0
VERTEX
8
Ebene 1
10
88.059193
20
39.051032
70
0
0
VERTEX
8
Ebene 1
10
88.208854
20
39.412344
70
0
0
VERTEX
8
Ebene 1
10
88.570168
20
39.562003
70
0
0
VERTEX
8
Ebene 1
10
101.363910
20
39.562003
70
0
0
VERTEX
8
Ebene 1
10
101.725067
20
39.710091
70
0
0
VERTEX
8
Ebene 1
10
101.874870
20
40.070541
70
0
0
VERTEX
8
Ebene 1
10
101.874870
20
58.492262
70
0
0
VERTEX
8
Ebene 1
10
101.976925
20
59.005324
70
0
0
VERTEX
8
Ebene 1
10
102.267553
20
59.440276
70
0
0
VERTEX
8
Ebene 1
10
102.702507
20
59.730901
70
0
0
VERTEX
8
Ebene 1
10
103.215570
20
59.832952
70
0
0
VERTEX
8
Ebene 1
10
118.642020
20
59.832952
70
0
0
VERTEX
8
Ebene 1
10
119.155083
20
59.730901
70
0
0
VERTEX
8
Ebene 1
10
119.590037
20
59.440276
70
0
0
VERTEX
8
Ebene 1
10
119.880665
20
59.005324
70
0
0
VERTEX
8
Ebene 1
10
119.982720
20
58.492262
70
0
0
VERTEX
8
Ebene 1
10
119.982720
20
40.080274
70
0
0
VERTEX
8
Ebene 1
10
120.132526
20
39.719821
70
0
0
VERTEX
8
Ebene 1
10
120.493690
20
39.571736
70
0
0
VERTEX
8
Ebene 1
10
125.763990
20
39.571736
70
0
0
VERTEX
8
Ebene 1
10
126.123724
20
39.421216
70
0
0
VERTEX
8
Ebene 1
10
126.272520
20
39.060765
70
0
0
VERTEX
8
Ebene 1
10
126.272520
20
39.060765
70
0
0
VERTEX
8
Ebene 1
10
126.127201
20
38.694014
70
0
0
VERTEX
8
Ebene 1
10
125.763990
20
38.540061
70
0
0
VERTEX
8
Ebene 1
10
125.763990
20
38.540061
70
0
0
SEQEND
8
Ebene 1
0
POLYLINE
8
Ebene 1
62
255
70
0
10
0.000000
20
0.000000
66
1
0
VERTEX
8
Ebene 1
10
49.797200
20
20.169437
70
0
0
VERTEX
8
Ebene 1
10
48.521165
20
20.233807
70
0
0
VERTEX
8
Ebene 1
10
47.266676
20
20.476020
70
0
0
VERTEX
8
Ebene 1
10
46.355402
20
20.812828
70
0
0
VERTEX
8
Ebene 1
10
45.519643
20
21.308173
70
0
0
VERTEX
8
Ebene 1
10
44.906346
20
21.866779
70
0
0
VERTEX
8
Ebene 1
10
44.417405
20
22.536936
70
0
0
VERTEX
8
Ebene 1
10
43.796940
20
24.035784
70
0
0
VERTEX
8
Ebene 1
10
43.531722
20
25.685491
70
0
0
VERTEX
8
Ebene 1
10
43.478192
20
27.349796
70
0
0
VERTEX
8
Ebene 1
10
43.478192
20
36.885489
70
0
0
VERTEX
8
Ebene 1
10
44.694789
20
36.885489
70
0
0
VERTEX
8
Ebene 1
10
44.694789
20
27.396027
70
0
0
VERTEX
8
Ebene 1
10
44.760798
20
25.858767
70
0
0
VERTEX
8
Ebene 1
10
45.035437
20
24.344800
70
0
0
VERTEX
8
Ebene 1
10
45.417973
20
23.363129
70
0
0
VERTEX
8
Ebene 1
10
46.033047
20
22.507738
70
0
0
VERTEX
8
Ebene 1
10
46.772886
20
21.947350
70
0
0
VERTEX
8
Ebene 1
10
47.636523
20
21.607456
70
0
0
VERTEX
8
Ebene 1
10
49.804499
20
21.364136
70
0
0
VERTEX
8
Ebene 1
10
51.994375
20
21.607456
70
0
0
VERTEX
8
Ebene 1
10
52.861151
20
21.946340
70
0
0
VERTEX
8
Ebene 1
10
53.597850
20
22.515037
70
0
0
VERTEX
8
Ebene 1
10
54.197660
20
23.373611
70
0
0
VERTEX
8
Ebene 1
10
54.571129
20
24.352100
70
0
0
VERTEX
8
Ebene 1
10
54.838919
20
25.862939
70
0
0
VERTEX
8
Ebene 1
10
54.902043
20
27.396027
70
0
0
VERTEX
8
Ebene 1
10
54.902043
20
36.885489
70
0
0
VERTEX
8
Ebene 1
10
56.118641
20
36.885489
70
0
0
VERTEX
8
Ebene 1
10
56.118641
20
27.347363
70
0
0
VERTEX
8
Ebene 1
10
56.055252
20
25.826311
70
0
0
VERTEX
8
Ebene 1
10
55.831524
20
24.320468
70
0
0
VERTEX
8
Ebene 1
10
55.460366
20
23.135070
70
0
0
VERTEX
8
Ebene 1
10
54.833914
20
22.062463
70
0
0
VERTEX
8
Ebene 1
10
53.959780
20
21.225749
70
0
0
VERTEX
8
Ebene 1
10
52.892224
20
20.656076
70
0
0
VERTEX
8
Ebene 1
10
51.367382
20
20.268573
70
0
0
VERTEX
8
Ebene 1
10
49.797200
20
20.169437
70
0
0
VERTEX
8
Ebene 1
10
49.797200
20
20.169437
70
0
0
SEQEND
8
Ebene 1
0
POLYLINE
8
Ebene 1
62
255
70
0
10
0.000000
20
0.000000
66
1
0
VERTEX
8
Ebene 1
10
61.559266
20
20.468720
70
0
0
VERTEX
8
Ebene 1
10
60.342668
20
20.468720
70
0
0
VERTEX
8
Ebene 1
10
60.342668
20
36.885489
70
0
0
VERTEX
8
Ebene 1
10
61.559266
20
36.885489
70
0
0
VERTEX
8
Ebene 1
10
61.559266
20
20.468720
70
0
0
SEQEND
8
Ebene 1
0
POLYLINE
8
Ebene 1
62
255
70
0
10
0.000000
20
0.000000
66
1
0
VERTEX
8
Ebene 1
10
69.299260
20
20.364093
70
0
0
VERTEX
8
Ebene 1
10
68.785855
20
20.317863
70
0
0
VERTEX
8
Ebene 1
10
68.272451
20
20.303263
70
0
0
VERTEX
8
Ebene 1
10
67.009623
20
20.522250
70
0
0
VERTEX
8
Ebene 1
10
66.591018
20
20.788269
70
0
0
VERTEX
8
Ebene 1
10
66.279665
20
21.174347
70
0
0
VERTEX
8
Ebene 1
10
65.953616
20
22.259552
70
0
0
VERTEX
8
Ebene 1
10
65.878186
20
23.782732
70
0
0
VERTEX
8
Ebene 1
10
65.878186
20
30.887663
70
0
0
VERTEX
8
Ebene 1
10
64.381771
20
30.887663
70
0
0
VERTEX
8
Ebene 1
10
64.381771
20
32.087227
70
0
0
VERTEX
8
Ebene 1
10
65.878186
20
32.087227
70
0
0
VERTEX
8
Ebene 1
10
65.878186
20
35.133588
70
0
0
VERTEX
8
Ebene 1
10
67.094784
20
35.133588
70
0
0
VERTEX
8
Ebene 1
10
67.094784
20
32.089661
70
0
0
VERTEX
8
Ebene 1
10
69.014574
20
32.089661
70
0
0
VERTEX
8
Ebene 1
10
69.014574
20
30.890095
70
0
0
VERTEX
8
Ebene 1
10
67.094784
20
30.890095
70
0
0
VERTEX
8
Ebene 1
10
67.094784
20
23.680538
70
0
0
VERTEX
8
Ebene 1
10
67.201844
20
22.532070
70
0
0
VERTEX
8
Ebene 1
10
67.518160
20
21.872674
70
0
0
VERTEX
8
Ebene 1
10
68.038863
20
21.573391
70
0
0
VERTEX
8
Ebene 1
10
68.742057
20
21.505261
70
0
0
VERTEX
8
Ebene 1
10
69.029174
20
21.505261
70
0
0
VERTEX
8
Ebene 1
10
69.301691
20
21.519861
70
0
0
VERTEX
8
Ebene 1
10
69.299260
20
20.364093
70
0
0
SEQEND
8
Ebene 1
0
POLYLINE
8
Ebene 1
62
255
70
0
10
0.000000
20
0.000000
66
1
0
VERTEX
8
Ebene 1
10
77.297171
20
31.157747
70
0
0
VERTEX
8
Ebene 1
10
76.934624
20
31.186947
70
0
0
VERTEX
8
Ebene 1
10
76.494218
20
31.186947
70
0
0
VERTEX
8
Ebene 1
10
75.494174
20
30.977692
70
0
0
VERTEX
8
Ebene 1
10
74.571993
20
30.430224
70
0
0
VERTEX
8
Ebene 1
10
73.756873
20
29.666200
70
0
0
VERTEX
8
Ebene 1
10
73.107210
20
28.790250
70
0
0
VERTEX
8
Ebene 1
10
73.107210
20
20.468720
70
0
0
VERTEX
8
Ebene 1
10
71.890612
20
20.468720
70
0
0
VERTEX
8
Ebene 1
10
71.890612
20
32.087227
70
0
0
VERTEX
8
Ebene 1
10
73.107210
20
32.087227
70
0
0
VERTEX
8
Ebene 1
10
73.107210
20
30.483752
70
0
0
VERTEX
8
Ebene 1
10
74.126719
20
31.457030
70
0
0
VERTEX
8
Ebene 1
10
75.099997
20
32.043430
70
0
0
VERTEX
8
Ebene 1
10
76.014879
20
32.320814
70
0
0
VERTEX
8
Ebene 1
10
76.815403
20
32.386514
70
0
0
VERTEX
8
Ebene 1
10
77.041688
20
32.386514
70
0
0
VERTEX
8
Ebene 1
10
77.285004
20
32.364614
70
0
0
VERTEX
8
Ebene 1
10
77.297171
20
31.157747
70
0
0
SEQEND
8
Ebene 1
0
POLYLINE
8
Ebene 1
62
255
70
0
10
0.000000
20
0.000000
66
1
0
VERTEX
8
Ebene 1
10
87.273274
20
21.967569
70
0
0
VERTEX
8
Ebene 1
10
86.056674
20
21.077019
70
0
0
VERTEX
8
Ebene 1
10
84.900907
20
20.522251
70
0
0
VERTEX
8
Ebene 1
10
83.774338
20
20.244866
70
0
0
VERTEX
8
Ebene 1
10
82.640468
20
20.169436
70
0
0
VERTEX
8
Ebene 1
10
81.204884
20
20.400590
70
0
0
VERTEX
8
Ebene 1
10
80.056419
20
21.059986
70
0
0
VERTEX
8
Ebene 1
10
79.292397
20
22.096527
70
0
0
VERTEX
8
Ebene 1
10
79.078703
20
22.751473
70
0
0
VERTEX
8
Ebene 1
10
79.012571
20
23.437217
70
0
0
VERTEX
8
Ebene 1
10
79.113043
20
24.366270
70
0
0
VERTEX
8
Ebene 1
10
79.448304
20
25.221706
70
0
0
VERTEX
8
Ebene 1
10
79.994551
20
25.960478
70
0
0
VERTEX
8
Ebene 1
10
80.727981
20
26.539541
70
0
0
VERTEX
8
Ebene 1
10
81.693046
20
27.024963
70
0
0
VERTEX
8
Ebene 1
10
82.872840
20
27.371694
70
0
0
VERTEX
8
Ebene 1
10
84.267365
20
27.579732
70
0
0
VERTEX
8
Ebene 1
10
85.876619
20
27.649078
70
0
0
VERTEX
8
Ebene 1
10
87.265973
20
27.649078
70
0
0
VERTEX
8
Ebene 1
10
87.175940
20
29.057900
70
0
0
VERTEX
8
Ebene 1
10
86.752569
20
30.174736
70
0
0
VERTEX
8
Ebene 1
10
86.319578
20
30.616154
70
0
0
VERTEX
8
Ebene 1
10
85.779294
20
30.916861
70
0
0
VERTEX
8
Ebene 1
10
84.907764
20
31.136625
70
0
0
VERTEX
8
Ebene 1
10
84.010362
20
31.186945
70
0
0
VERTEX
8
Ebene 1
10
82.570513
20
31.059811
70
0
0
VERTEX
8
Ebene 1
10
81.540660
20
30.678408
70
0
0
VERTEX
8
Ebene 1
10
80.874032
20
30.019248
70
0
0
VERTEX
8
Ebene 1
10
80.567385
20
29.133329
70
0
0
VERTEX
8
Ebene 1
10
79.372690
20
29.133329
70
0
0
VERTEX
8
Ebene 1
10
79.788767
20
30.571347
70
0
0
VERTEX
8
Ebene 1
10
80.171993
20
31.131591
70
0
0
VERTEX
8
Ebene 1
10
80.672012
20
31.585990
70
0
0
VERTEX
8
Ebene 1
10
82.061977
20
32.187597
70
0
0
VERTEX
8
Ebene 1
10
83.998195
20
32.386511
70
0
0
VERTEX
8
Ebene 1
10
85.049670
20
32.323667
70
0
0
VERTEX
8
Ebene 1
10
86.076142
20
32.087227
70
0
0
VERTEX
8
Ebene 1
10
86.823513
20
31.739733
70
0
0
VERTEX
8
Ebene 1
10
87.467924
20
31.225876
70
0
0
VERTEX
8
Ebene 1
10
87.938947
20
30.589973
70
0
0
VERTEX
8
Ebene 1
10
88.246549
20
29.860854
70
0
0
VERTEX
8
Ebene 1
10
88.489866
20
28.055423
70
0
0
VERTEX
8
Ebene 1
10
88.489866
20
20.468720
70
0
0
VERTEX
8
Ebene 1
10
87.273274
20
20.468720
70
0
0
VERTEX
8
Ebene 1
10
87.273274
20
21.967569
70
0
0
SEQEND
8
Ebene 1
0
POLYLINE
8
Ebene 1
62
255
70
0
10
0.000000
20
0.000000
66
1
0
VERTEX
8
Ebene 1
10
87.273274
20
26.449514
70
0
0
VERTEX
8
Ebene 1
10
85.445946
20
26.449514
70
0
0
VERTEX
8
Ebene 1
10
83.148402
20
26.262158
70
0
0
VERTEX
8
Ebene 1
10
81.521201
20
25.700090
70
0
0
VERTEX
8
Ebene 1
10
80.976988
20
25.320174
70
0
0
VERTEX
8
Ebene 1
10
80.566882
20
24.814090
70
0
0
VERTEX
8
Ebene 1
10
80.310929
20
24.215095
70
0
0
VERTEX
8
Ebene 1
10
80.229172
20
23.556445
70
0
0
VERTEX
8
Ebene 1
10
80.429459
20
22.645238
70
0
0
VERTEX
8
Ebene 1
10
81.046725
20
21.945670
70
0
0
VERTEX
8
Ebene 1
10
82.013311
20
21.513170
70
0
0
VERTEX
8
Ebene 1
10
83.282831
20
21.369003
70
0
0
VERTEX
8
Ebene 1
10
84.484828
20
21.556358
70
0
0
VERTEX
8
Ebene 1
10
85.582198
20
22.042998
70
0
0
VERTEX
8
Ebene 1
10
86.526284
20
22.709693
70
0
0
VERTEX
8
Ebene 1
10
87.273274
20
23.422619
70
0
0
VERTEX
8
Ebene 1
10
87.273274
20
26.449514
70
0
0
SEQEND
8
Ebene 1
0
POLYLINE
8
Ebene 1
62
255
70
0
10
0.000000
20
0.000000
66
1
0
VERTEX
8
Ebene 1
10
103.478350
20
20.468720
70
0
0
VERTEX
8
Ebene 1
10
90.747877
20
20.468720
70
0
0
VERTEX
8
Ebene 1
10
90.747877
20
22.057597
70
0
0
VERTEX
8
Ebene 1
10
101.921100
20
35.683490
70
0
0
VERTEX
8
Ebene 1
10
91.730882
20
35.683490
70
0
0
VERTEX
8
Ebene 1
10
91.730882
20
36.885489
70
0
0
VERTEX
8
Ebene 1
10
103.166900
20
36.885489
70
0
0
VERTEX
8
Ebene 1
10
103.166900
20
35.279580
70
0
0
VERTEX
8
Ebene 1
10
91.974208
20
21.668286
70
0
0
VERTEX
8
Ebene 1
10
103.478350
20
21.668286
70
0
0
VERTEX
8
Ebene 1
10
103.478350
20
20.468720
70
0
0
SEQEND
8
Ebene 1
0
POLYLINE
8
Ebene 1
62
255
70
0
10
0.000000
20
0.000000
66
1
0
VERTEX
8
Ebene 1
10
110.558950
20
32.386511
70
0
0
VERTEX
8
Ebene 1
10
111.662876
20
32.288583
70
0
0
VERTEX
8
Ebene 1
10
112.724490
20
31.970434
70
0
0
VERTEX
8
Ebene 1
10
113.617513
20
31.465937
70
0
0
VERTEX
8
Ebene 1
10
114.371760
20
30.770869
70
0
0
VERTEX
8
Ebene 1
10
114.995788
20
29.866906
70
0
0
VERTEX
8
Ebene 1
10
115.425340
20
28.855944
70
0
0
VERTEX
8
Ebene 1
10
115.701813
20
27.578681
70
0
0
VERTEX
8
Ebene 1
10
115.793971
20
26.281623
70
0
0
VERTEX
8
Ebene 1
10
115.701813
20
24.984566
70
0
0
VERTEX
8
Ebene 1
10
115.425340
20
23.707303
70
0
0
VERTEX
8
Ebene 1
10
114.997723
20
22.691116
70
0
0
VERTEX
8
Ebene 1
10
114.376640
20
21.780212
70
0
0
VERTEX
8
Ebene 1
10
113.620663
20
21.085704
70
0
0
VERTEX
8
Ebene 1
10
112.726930
20
20.580647
70
0
0
VERTEX
8
Ebene 1
10
111.670226
20
20.275248
70
0
0
VERTEX
8
Ebene 1
10
110.584500
20
20.173448
70
0
0
VERTEX
8
Ebene 1
10
109.498774
20
20.275248
70
0
0
VERTEX
8
Ebene 1
10
108.442070
20
20.580647
70
0
0
VERTEX
8
Ebene 1
10
107.552142
20
21.080573
70
0
0
VERTEX
8
Ebene 1
10
106.802100
20
21.772913
70
0
0
VERTEX
8
Ebene 1
10
106.176929
20
22.683758
70
0
0
VERTEX
8
Ebene 1
10
105.743660
20
23.700004
70
0
0
VERTEX
8
Ebene 1
10
105.463511
20
24.984359
70
0
0
VERTEX
8
Ebene 1
10
105.370127
20
26.288923
70
0
0
VERTEX
8
Ebene 1
10
105.463511
20
27.593488
70
0
0
VERTEX
8
Ebene 1
10
105.743660
20
28.877843
70
0
0
VERTEX
8
Ebene 1
10
106.171866
20
29.887602
70
0
0
VERTEX
8
Ebene 1
10
106.794800
20
30.790334
70
0
0
VERTEX
8
Ebene 1
10
107.549887
20
31.481175
70
0
0
VERTEX
8
Ebene 1
10
108.442070
20
31.982601
70
0
0
VERTEX
8
Ebene 1
10
109.480218
20
32.290904
70
0
0
VERTEX
8
Ebene 1
10
110.558950
20
32.386511
70
0
0
VERTEX
8
Ebene 1
10
110.558950
20
32.386511
70
0
0
SEQEND
8
Ebene 1
0
POLYLINE
8
Ebene 1
62
255
70
0
10
0.000000
20
0.000000
66
1
0
VERTEX
8
Ebene 1
10
110.558950
20
21.369003
70
0
0
VERTEX
8
Ebene 1
10
111.386964
20
21.441052
70
0
0
VERTEX
8
Ebene 1
10
112.184330
20
21.675585
70
0
0
VERTEX
8
Ebene 1
10
112.871594
20
22.064447
70
0
0
VERTEX
8
Ebene 1
10
113.447160
20
22.605066
70
0
0
VERTEX
8
Ebene 1
10
113.936341
20
23.336103
70
0
0
VERTEX
8
Ebene 1
10
114.269580
20
24.150145
70
0
0
VERTEX
8
Ebene 1
10
114.566429
20
26.293790
70
0
0
VERTEX
8
Ebene 1
10
114.269580
20
28.437434
70
0
0
VERTEX
8
Ebene 1
10
113.937267
20
29.243921
70
0
0
VERTEX
8
Ebene 1
10
113.447160
20
29.965482
70
0
0
VERTEX
8
Ebene 1
10
112.869312
20
30.496862
70
0
0
VERTEX
8
Ebene 1
10
112.184330
20
30.880363
70
0
0
VERTEX
8
Ebene 1
10
111.378783
20
31.110256
70
0
0
VERTEX
8
Ebene 1
10
110.551655
20
31.186887
70
0
0
VERTEX
8
Ebene 1
10
109.724527
20
31.110256
70
0
0
VERTEX
8
Ebene 1
10
108.918980
20
30.880363
70
0
0
VERTEX
8
Ebene 1
10
108.233998
20
30.496862
70
0
0
VERTEX
8
Ebene 1
10
107.656150
20
29.965482
70
0
0
VERTEX
8
Ebene 1
10
107.168254
20
29.244312
70
0
0
VERTEX
8
Ebene 1
10
106.841030
20
28.437434
70
0
0
VERTEX
8
Ebene 1
10
106.553929
20
26.293790
70
0
0
VERTEX
8
Ebene 1
10
106.841030
20
24.150145
70
0
0
VERTEX
8
Ebene 1
10
107.169336
20
23.335795
70
0
0
VERTEX
8
Ebene 1
10
107.656150
20
22.605066
70
0
0
VERTEX
8
Ebene 1
10
108.231716
20
22.064447
70
0
0
VERTEX
8
Ebene 1
10
108.918980
20
21.675585
70
0
0
VERTEX
8
Ebene 1
10
109.723651
20
21.440376
70
0
0
VERTEX
8
Ebene 1
10
110.558950
20
21.369003
70
0
0
VERTEX
8
Ebene 1
10
110.558950
20
21.369003
70
0
0
SEQEND
8
Ebene 1
0
POLYLINE
8
Ebene 1
62
255
70
0
10
0.000000
20
0.000000
66
1
0
VERTEX
8
Ebene 1
10
119.934050
20
30.362093
70
0
0
VERTEX
8
Ebene 1
10
121.058190
20
31.413233
70
0
0
VERTEX
8
Ebene 1
10
122.133660
20
32.026398
70
0
0
VERTEX
8
Ebene 1
10
123.131270
20
32.311081
70
0
0
VERTEX
8
Ebene 1
10
124.029120
20
32.386511
70
0
0
VERTEX
8
Ebene 1
10
125.609939
20
32.122357
70
0
0
VERTEX
8
Ebene 1
10
126.230975
20
31.792165
70
0
0
VERTEX
8
Ebene 1
10
126.739095
20
31.329896
70
0
0
VERTEX
8
Ebene 1
10
127.134300
20
30.735550
70
0
0
VERTEX
8
Ebene 1
10
127.416589
20
30.009127
70
0
0
VERTEX
8
Ebene 1
10
127.642420
20
28.160050
70
0
0
VERTEX
8
Ebene 1
10
127.642420
20
20.468720
70
0
0
VERTEX
8
Ebene 1
10
126.425820
20
20.468720
70
0
0
VERTEX
8
Ebene 1
10
126.425820
20
28.055423
70
0
0
VERTEX
8
Ebene 1
10
126.282260
20
29.456944
70
0
0
VERTEX
8
Ebene 1
10
125.815090
20
30.430222
70
0
0
VERTEX
8
Ebene 1
10
124.968340
20
30.999589
70
0
0
VERTEX
8
Ebene 1
10
123.690910
20
31.186945
70
0
0
VERTEX
8
Ebene 1
10
122.691992
20
31.034699
70
0
0
VERTEX
8
Ebene 1
10
121.778410
20
30.602978
70
0
0
VERTEX
8
Ebene 1
10
120.794521
20
29.843291
70
0
0
VERTEX
8
Ebene 1
10
119.926750
20
28.953272
70
0
0
VERTEX
8
Ebene 1
10
119.926750
20
20.468720
70
0
0
VERTEX
8
Ebene 1
10
118.710150
20
20.468720
70
0
0
VERTEX
8
Ebene 1
10
118.710150
20
36.885490
70
0
0
VERTEX
8
Ebene 1
10
119.926750
20
36.885490
70
0
0
VERTEX
8
Ebene 1
10
119.934050
20
30.362093
70
0
0
SEQEND
8
Ebene 1
0
POLYLINE
8
Ebene 1
62
255
70
0
10
0.000000
20
0.000000
66
1
0
VERTEX
8
Ebene 1
10
146.521580
20
20.468720
70
0
0
VERTEX
8
Ebene 1
10
145.304980
20
20.468720
70
0
0
VERTEX
8
Ebene 1
10
145.304980
20
28.055423
70
0
0
VERTEX
8
Ebene 1
10
145.174802
20
29.486750
70
0
0
VERTEX
8
Ebene 1
10
144.784270
20
30.452120
70
0
0
VERTEX
8
Ebene 1
10
144.059184
20
30.999589
70
0
0
VERTEX
8
Ebene 1
10
142.947210
20
31.182079
70
0
0
VERTEX
8
Ebene 1
10
141.962123
20
31.024815
70
0
0
VERTEX
8
Ebene 1
10
141.063920
20
30.590813
70
0
0
VERTEX
8
Ebene 1
10
140.108538
20
29.826487
70
0
0
VERTEX
8
Ebene 1
10
139.287690
20
28.919207
70
0
0
VERTEX
8
Ebene 1
10
139.287690
20
20.463854
70
0
0
VERTEX
8
Ebene 1
10
138.071090
20
20.463854
70
0
0
VERTEX
8
Ebene 1
10
138.071090
20
28.055423
70
0
0
VERTEX
8
Ebene 1
10
137.959160
20
29.478842
70
0
0
VERTEX
8
Ebene 1
10
137.572280
20
30.452120
70
0
0
VERTEX
8
Ebene 1
10
136.842320
20
31.006888
70
0
0
VERTEX
8
Ebene 1
10
135.747390
20
31.186945
70
0
0
VERTEX
8
Ebene 1
10
134.794140
20
31.031516
70
0
0
VERTEX
8
Ebene 1
10
133.932230
20
30.595679
70
0
0
VERTEX
8
Ebene 1
10
133.003933
20
29.821863
70
0
0
VERTEX
8
Ebene 1
10
132.194920
20
28.924074
70
0
0
VERTEX
8
Ebene 1
10
132.194920
20
20.468720
70
0
0
VERTEX
8
Ebene 1
10
130.978330
20
20.468720
70
0
0
VERTEX
8
Ebene 1
10
130.978330
20
32.087227
70
0
0
VERTEX
8
Ebene 1
10
132.194920
20
32.087227
70
0
0
VERTEX
8
Ebene 1
10
132.194920
20
30.362093
70
0
0
VERTEX
8
Ebene 1
10
133.336090
20
31.435131
70
0
0
VERTEX
8
Ebene 1
10
134.348310
20
32.043430
70
0
0
VERTEX
8
Ebene 1
10
135.255880
20
32.320814
70
0
0
VERTEX
8
Ebene 1
10
136.078300
20
32.386514
70
0
0
VERTEX
8
Ebene 1
10
137.090490
20
32.269727
70
0
0
VERTEX
8
Ebene 1
10
138.024860
20
31.863377
70
0
0
VERTEX
8
Ebene 1
10
138.746126
20
31.160952
70
0
0
VERTEX
8
Ebene 1
10
139.190360
20
30.257468
70
0
0
VERTEX
8
Ebene 1
10
140.149040
20
31.301308
70
0
0
VERTEX
8
Ebene 1
10
141.178280
20
31.953405
70
0
0
VERTEX
8
Ebene 1
10
142.229420
20
32.289186
70
0
0
VERTEX
8
Ebene 1
10
143.256230
20
32.386516
70
0
0
VERTEX
8
Ebene 1
10
144.679344
20
32.122362
70
0
0
VERTEX
8
Ebene 1
10
145.238293
20
31.792170
70
0
0
VERTEX
8
Ebene 1
10
145.695505
20
31.329901
70
0
0
VERTEX
8
Ebene 1
10
146.304714
20
30.009132
70
0
0
VERTEX
8
Ebene 1
10
146.506970
20
28.160055
70
0
0
VERTEX
8
Ebene 1
10
146.521580
20
20.468720
70
0
0
SEQEND
8
Ebene 1
 0 
ENDSEC
 0 
EOF