M48
;Layer_Color=9474304
;FILE_FORMAT=2:4
INCH,TZ
;TYPE=PLATED
T01F00S00C0.0118
T02F00S00C0.0197
T03F00S00C0.0320
T04F00S00C0.0354
T05F00S00C0.0400
T06F00S00C0.0510
T07F00S00C0.0581
T08F00S00C0.0630
;TYPE=NON_PLATED
T09F00S00C0.1280
T10F00S00C0.1339
%
T01
X3701Y630
X2759Y2272
X2335Y2798
Y3232
X2335Y3911
X6064Y3918
Y3244
Y2811
X7165Y3504
X9692Y3267
Y2834
Y2160
Y1727
X8733Y574
X9692Y3941
X10164Y1146
X11814Y972
X12956Y579
X15413Y976
X15952Y2130
Y2642
X16030Y3548
X15479Y3154
X14534
X13983Y3548
X14980Y2315
X18274Y3823
X18921Y3346
X19787
X20566
X21417
X22268
X22798Y972
X25378Y3858
X25890
X58997Y14433
X59489Y19453
X57791Y19439
X55197Y19291
X54646Y19252
X55120Y17485
X54967Y16973
X55906Y17437
X56209Y16382
X56411Y15198
X53970
X54135Y16382
X52566Y19020
X51537Y14374
X43247Y14433
X43739Y19453
X42041Y19439
X39449Y19291
X38898
X39370Y17485
X39219Y16894
X38386Y16382
X38220Y15198
X40661
X40460Y16382
X40157Y17437
X36816Y19020
X35787Y14374
X27500Y14433
X27992Y19453
X26294Y19439
X27386Y5669
X25212Y6168
X24276Y6024
Y5669
X24315Y6614
Y7126
X23803Y7874
X23314Y5083
X22347Y5079
X21496
X20645
X19866
X19000
X17652Y5328
Y6096
X17210Y5691
X16786Y5328
Y6096
X15591Y5852
X15082Y5815
X14613Y6382
X14967Y7563
X15755Y7760
X17251Y7091
X17723Y7288
X17720Y8295
X18662Y7911
X19967Y7839
Y7262
Y6684
Y6107
X17417Y4256
X17063
X16621Y4217
X13117Y6894
X12802
X12369
X12054
X11582
X11267
X10833
X10519
X10204Y5398
X9964Y4949
X11719Y14433
X12211Y19453
X10513Y19439
X21069Y19020
X23150Y19252
X23701Y19291
X23623Y17485
X23505Y16815
X22639Y16382
X22473Y15198
X24914
X24712Y16382
X24409Y17437
X20040Y14374
X9132Y15198
X8931Y16382
X8628Y17437
X7841Y17485
X7684Y16933
X6857Y16382
X6691Y15198
X4259Y14374
X5288Y19020
X7362Y19291
X7913
X8032Y10709
Y10276
Y9602
Y9169
X7605Y8075
X9369Y7800
X9456Y7209
X8981Y6049
X8756
X7172Y6107
X7211Y5674
Y5162
X6064Y5025
Y5458
X6064Y6137
Y6570
X6064Y4351
X8117Y4138
X9692Y4374
X2335Y4344
Y5018
Y5451
Y6125
Y6558
X2448Y7209
X2999
X1739Y7878
X1700Y8863
X2561Y9365
X3112
X5243Y20437
X5597Y21146
Y21717
Y22288
X7481Y22943
X8207Y22407
X9888Y22287
X9101Y20201
X6602Y20723
X10513Y20201
X12211
X21024Y20437
X21379Y21146
Y21717
Y22288
X23263Y22943
X23983Y22406
X24889Y20201
X22384Y20723
X26294Y20201
X27992
X25669Y22287
X37126Y22288
Y21717
Y21146
X36772Y20437
X38131Y20723
X40636Y20210
X39731Y22524
X39010Y22943
X41417Y22287
X42041Y20201
X43739
X52521Y20437
X52876Y21146
Y21717
Y22288
X54759Y22943
X55479Y22406
X56383Y20200
X53880Y20722
X57791Y20201
X59489
X57166Y22287
T02
X25755Y8075
X25715Y8666
X25046
T03
X6673Y23760
X7461
X8248
X9035
X22421
X23209
X23996
X24783
X38169
X38957
X39744
X40531
X53917
X54705
X55492
X56280
T04
X36841Y4485
X37841
X38841
X39841
X40341Y5485
X39341
X38341
X37341
T05
X3956Y1619
X4956
T06
X5354Y26760
Y27760
Y28760
Y29760
Y30760
X10354
Y29760
Y28760
Y27760
Y26760
X21102
Y27760
Y28760
Y29760
Y30760
X26102
Y29760
Y28760
Y27760
Y26760
X36850
Y27760
Y28760
Y29760
Y30760
X41850
Y29760
Y28760
Y27760
Y26760
X52598
Y27760
Y28760
Y29760
Y30760
X57598
Y29760
Y28760
Y27760
Y26760
T07
X3748Y34433
X4748
X5748
X10000
X11000
X12000
X19496
X20496
X21496
X25748
X26748
X27748
X35244
X36244
X37244
X41496
X42496
X43496
X50992
X51992
X52992
X57244
X58244
X59244
Y35433
Y36433
X58244
X57244
Y35433
X58244
X52992
Y36433
X51992
X50992
Y35433
X51992
X43496
Y36433
X42496
X41496
Y35433
X42496
X37244
Y36433
X36244
X35244
Y35433
X36244
X27748
Y36433
X26748
X25748
Y35433
X26748
X21496
X20496
Y36433
X21496
X19496
Y35433
X12000
X11000
Y36433
X12000
X10000
Y35433
X5748
Y36433
X4748
X3748
Y35433
X4748
T08
X35541Y807
X41634
T09
X36343Y1985
X40843
T10
X1378Y1378
X61614
X1378Y21850
X61614Y21850
M30
