M48
;Layer_Color=9474304
;FILE_FORMAT=2:4
INCH,TZ
;TYPE=PLATED
T1F00S00C0.0118
T2F00S00C0.0320
T3F00S00C0.0354
T4F00S00C0.0394
T5F00S00C0.0510
T6F00S00C0.0598
T7F00S00C0.0630
;TYPE=NON_PLATED
T8F00S00C0.1280
T9F00S00C0.1339
%
T01
X27756Y5079
X26280Y10039
Y11024
X25610Y11811
X27116Y11988
X29724Y12008
X31307Y12047
X32756Y12559
X33071Y13386
X32756Y13780
X32165Y13425
X34252Y11811
X34941Y11024
Y10039
X35758Y11988
X34646Y15748
X33858Y17717
X33071
X30118Y16634
X25984Y15748
X25217Y17717
X24459Y17707
X21457Y16634
X21161Y12008
X22665Y12047
X24114Y12559
X24429Y13386
X24114Y13799
X23524Y13425
X17709Y11946
X16204Y11769
X16831Y11024
Y10039
X14698Y12517
X15022Y13344
X14698Y13669
X14117Y13383
X13258Y12005
X11811Y12008
X8964Y11943
X7458Y11766
X8169Y10925
X5962Y12514
X6277Y13341
X5962Y13685
X5371Y13380
X7874Y15748
X7064Y17671
X12008Y16535
X15810Y17674
X16535Y15748
X4513Y12002
X3150Y12008
T02
X22958Y19533
X23708
X24458
X25207
X31600
X32349
X33099
X33849
X15801Y19491
X15051
X14301
X13551
X7055Y19488
X6305
X5555
X4806
T03
X21039Y7906
X20039
X19039
X18039
X18539Y6906
X19539
X20539
X17539
T04
X26476Y2150
Y3150
X29815Y1535
X30815
X26476Y4150
T05
X3450Y22488
Y23488
Y24488
X8450
Y23488
Y22488
X12196Y22491
Y23491
Y24491
X17196
Y23491
Y22491
X21602Y22533
Y23533
Y24533
X26602
Y23533
Y22533
X30244
Y23533
Y24533
X35244
Y23533
Y22533
T06
X3447Y33819
X5026
X11443
X13026
X15443Y29819
X17026
X9026
X7443
X25553
X27136
X29553Y33819
X31136
X33553Y29819
X35136
X23136Y33819
X21557
T07
X22343Y5607
X16240
T08
X21541Y4406
X17041
T09
X1181Y1181
X37402
X37598Y37205
X984
M30
