ISO-10303-21;
HEADER;
FILE_DESCRIPTION (( 'STEP AP214' ),
    '1' );
FILE_NAME ('CRH0805-FW-1504ELF.STEP',
    '2019-12-28T00:06:48',
    ( '' ),
    ( '' ),
    'SwSTEP 2.0',
    'SolidWorks 2018',
    '' );
FILE_SCHEMA (( 'AUTOMOTIVE_DESIGN' ));
ENDSEC;

DATA;
#1 = CARTESIAN_POINT ( 'NONE',  ( -0.9699999999999996403, 0.5699999999999998401, -2.638752715702699092 ) ) ;
#2 = VECTOR ( 'NONE', #385, 1000.000000000000000 ) ;
#3 = CARTESIAN_POINT ( 'NONE',  ( -0.5999999999999996447, 0.02999999999999998501, 0.6250000000000000000 ) ) ;
#4 = FILL_AREA_STYLE ('',( #525 ) ) ;
#5 = EDGE_CURVE ( 'NONE', #605, #906, #138, .T. ) ;
#6 = CARTESIAN_POINT ( 'NONE',  ( 0.5999999999999992006, -1.162772345116344974, -0.6250000000000000000 ) ) ;
#7 = CARTESIAN_POINT ( 'NONE',  ( -0.5999999999999996447, 0.5699999999999997291, 0.6250000000000000000 ) ) ;
#8 = CARTESIAN_POINT ( 'NONE',  ( -0.9999999999999995559, -1.224646799147352714E-16, 0.6250000000000000000 ) ) ;
#9 = ORIENTED_EDGE ( 'NONE', *, *, #814, .F. ) ;
#10 = DIRECTION ( 'NONE',  ( 0.0000000000000000000, 0.0000000000000000000, -1.000000000000000000 ) ) ;
#11 = CARTESIAN_POINT ( 'NONE',  ( 0.5999999999999996447, 0.02999999999999998501, 0.6250000000000000000 ) ) ;
#12 = SURFACE_SIDE_STYLE ('',( #762 ) ) ;
#13 = CARTESIAN_POINT ( 'NONE',  ( 0.5999999999999996447, 0.5699999999999998401, 0.6250000000000000000 ) ) ;
#14 = DIRECTION ( 'NONE',  ( -1.000000000000000000, -0.0000000000000000000, -0.0000000000000000000 ) ) ;
#15 = EDGE_CURVE ( 'NONE', #273, #642, #505, .T. ) ;
#16 = VECTOR ( 'NONE', #233, 1000.000000000000000 ) ;
#17 = AXIS2_PLACEMENT_3D ( 'NONE', #65, #281, #948 ) ;
#18 = DIRECTION ( 'NONE',  ( -1.000000000000000000, 0.0000000000000000000, 0.0000000000000000000 ) ) ;
#19 = VECTOR ( 'NONE', #488, 1000.000000000000000 ) ;
#20 = VERTEX_POINT ( 'NONE', #852 ) ;
#21 = CARTESIAN_POINT ( 'NONE',  ( 0.5999999999999996447, 0.02999999999999998501, 0.6250000000000000000 ) ) ;
#22 = ORIENTED_EDGE ( 'NONE', *, *, #359, .T. ) ;
#23 = AXIS2_PLACEMENT_3D ( 'NONE', #428, #441, #660 ) ;
#24 = CARTESIAN_POINT ( 'NONE',  ( 0.5999999999999996447, 0.02999999999999998501, 0.6250000000000000000 ) ) ;
#25 = EDGE_LOOP ( 'NONE', ( #652, #145, #636, #464 ) ) ;
#26 = ORIENTED_EDGE ( 'NONE', *, *, #552, .T. ) ;
#27 = FACE_OUTER_BOUND ( 'NONE', #115, .T. ) ;
#28 = ORIENTED_EDGE ( 'NONE', *, *, #847, .T. ) ;
#29 = ADVANCED_FACE ( 'NONE', ( #356 ), #417, .F. ) ;
#30 = VERTEX_POINT ( 'NONE', #124 ) ;
#31 = FACE_OUTER_BOUND ( 'NONE', #695, .T. ) ;
#32 = ORIENTED_EDGE ( 'NONE', *, *, #486, .F. ) ;
#33 = EDGE_CURVE ( 'NONE', #869, #861, #681, .T. ) ;
#34 = EDGE_LOOP ( 'NONE', ( #801, #936, #587, #543 ) ) ;
#35 = ORIENTED_EDGE ( 'NONE', *, *, #15, .T. ) ;
#36 = ORIENTED_EDGE ( 'NONE', *, *, #161, .T. ) ;
#37 = UNCERTAINTY_MEASURE_WITH_UNIT (LENGTH_MEASURE( 1.000000000000000082E-05 ), #48, 'distance_accuracy_value', 'NONE');
#38 = MECHANICAL_DESIGN_GEOMETRIC_PRESENTATION_REPRESENTATION (  '', ( #382 ), #398 ) ;
#39 = VECTOR ( 'NONE', #134, 1000.000000000000000 ) ;
#40 = LINE ( 'NONE', #88, #456 ) ;
#41 = ORIENTED_EDGE ( 'NONE', *, *, #252, .T. ) ;
#42 = ADVANCED_FACE ( 'NONE', ( #163 ), #787, .F. ) ;
#43 = CARTESIAN_POINT ( 'NONE',  ( 0.0000000000000000000, 0.0000000000000000000, 0.6250000000000000000 ) ) ;
#44 = AXIS2_PLACEMENT_3D ( 'NONE', #744, #296, #288 ) ;
#45 = ORIENTED_EDGE ( 'NONE', *, *, #516, .F. ) ;
#46 = DIRECTION ( 'NONE',  ( 0.0000000000000000000, 0.0000000000000000000, 1.000000000000000000 ) ) ;
#47 = VECTOR ( 'NONE', #506, 1000.000000000000000 ) ;
#48 =( LENGTH_UNIT ( ) NAMED_UNIT ( * ) SI_UNIT ( .MILLI., .METRE. ) );
#49 = ADVANCED_FACE ( 'NONE', ( #205 ), #928, .F. ) ;
#50 = CARTESIAN_POINT ( 'NONE',  ( 0.9699999999999996403, 0.02999999999999994338, -2.638752715702699092 ) ) ;
#51 = CARTESIAN_POINT ( 'NONE',  ( 0.5999999999999996447, 0.5999999999999998668, 0.6250000000000000000 ) ) ;
#52 = EDGE_CURVE ( 'NONE', #757, #133, #823, .T. ) ;
#53 = DIRECTION ( 'NONE',  ( 1.000000000000000000, 0.0000000000000000000, 0.0000000000000000000 ) ) ;
#54 =( NAMED_UNIT ( * ) SI_UNIT ( $, .STERADIAN. ) SOLID_ANGLE_UNIT ( ) );
#55 = DIRECTION ( 'NONE',  ( -1.190424682627665521E-16, -1.000000000000000000, 0.0000000000000000000 ) ) ;
#56 = PRODUCT_DEFINITION_SHAPE ( 'NONE', 'NONE',  #955 ) ;
#57 = LINE ( 'NONE', #157, #321 ) ;
#58 = PLANE ( 'NONE',  #148 ) ;
#59 = FACE_OUTER_BOUND ( 'NONE', #682, .T. ) ;
#60 = EDGE_CURVE ( 'NONE', #312, #605, #477, .T. ) ;
#61 = ORIENTED_EDGE ( 'NONE', *, *, #635, .T. ) ;
#62 = ADVANCED_FACE ( 'NONE', ( #59 ), #641, .F. ) ;
#63 = PRESENTATION_LAYER_ASSIGNMENT (  '', '', ( #685 ) ) ;
#64 = CARTESIAN_POINT ( 'NONE',  ( 0.5999999999999994227, 0.5999999999999997558, -0.6250000000000000000 ) ) ;
#65 = CARTESIAN_POINT ( 'NONE',  ( -0.9699999999999996403, 0.5699999999999998401, -2.638752715702699092 ) ) ;
#66 = CARTESIAN_POINT ( 'NONE',  ( -0.5999999999999996447, 0.5999999999999998668, 0.6250000000000000000 ) ) ;
#67 = ORIENTED_EDGE ( 'NONE', *, *, #354, .T. ) ;
#68 = DIRECTION ( 'NONE',  ( -1.000000000000000000, 3.061616997868382155E-16, 0.0000000000000000000 ) ) ;
#69 = PRESENTATION_STYLE_ASSIGNMENT (( #669 ) ) ;
#70 = DIRECTION ( 'NONE',  ( -1.000000000000000000, -0.0000000000000000000, -0.0000000000000000000 ) ) ;
#71 = ORIENTED_EDGE ( 'NONE', *, *, #774, .F. ) ;
#72 = EDGE_LOOP ( 'NONE', ( #846, #840, #756, #409 ) ) ;
#73 = DIRECTION ( 'NONE',  ( 0.0000000000000000000, 1.000000000000000000, 0.0000000000000000000 ) ) ;
#74 = CARTESIAN_POINT ( 'NONE',  ( -0.9699999999999996403, 0.02999999999999993991, 0.6250000000000000000 ) ) ;
#75 = DIRECTION ( 'NONE',  ( -0.0000000000000000000, -0.0000000000000000000, -1.000000000000000000 ) ) ;
#76 = PRESENTATION_STYLE_ASSIGNMENT (( #732 ) ) ;
#77 =( NAMED_UNIT ( * ) SI_UNIT ( $, .STERADIAN. ) SOLID_ANGLE_UNIT ( ) );
#78 = CLOSED_SHELL ( 'NONE', ( #264, #42, #173, #29, #705, #700, #872, #558, #280, #184 ) ) ;
#79 = PLANE ( 'NONE',  #809 ) ;
#80 =( LENGTH_UNIT ( ) NAMED_UNIT ( * ) SI_UNIT ( .MILLI., .METRE. ) );
#81 = DIRECTION ( 'NONE',  ( -1.000000000000000000, 0.0000000000000000000, -0.0000000000000000000 ) ) ;
#82 = DIRECTION ( 'NONE',  ( -0.0000000000000000000, 1.000000000000000000, -0.0000000000000000000 ) ) ;
#83 = AXIS2_PLACEMENT_3D ( 'NONE', #818, #602, #678 ) ;
#84 = PLANE ( 'NONE',  #191 ) ;
#85 = VECTOR ( 'NONE', #517, 1000.000000000000000 ) ;
#86 = CARTESIAN_POINT ( 'NONE',  ( -0.9999999999999995559, 0.5999999999999998668, 0.6250000000000000000 ) ) ;
#87 =( NAMED_UNIT ( * ) SI_UNIT ( $, .STERADIAN. ) SOLID_ANGLE_UNIT ( ) );
#88 = CARTESIAN_POINT ( 'NONE',  ( 0.9699999999999996403, 0.5699999999999998401, 0.6250000000000000000 ) ) ;
#89 = SURFACE_SIDE_STYLE ('',( #99 ) ) ;
#90 = ORIENTED_EDGE ( 'NONE', *, *, #354, .F. ) ;
#91 = CARTESIAN_POINT ( 'NONE',  ( 0.5999999999999992006, -1.162772345116344974, -0.6250000000000000000 ) ) ;
#92 = VECTOR ( 'NONE', #900, 1000.000000000000000 ) ;
#93 = ORIENTED_EDGE ( 'NONE', *, *, #822, .F. ) ;
#94 = DIRECTION ( 'NONE',  ( -1.734723475976807094E-16, -0.0000000000000000000, -1.000000000000000000 ) ) ;
#95 = PRESENTATION_LAYER_ASSIGNMENT (  '', '', ( #945 ) ) ;
#96 = EDGE_LOOP ( 'NONE', ( #614, #884, #186, #643, #246, #578, #863, #71 ) ) ;
#97 =( LENGTH_UNIT ( ) NAMED_UNIT ( * ) SI_UNIT ( .MILLI., .METRE. ) );
#98 = EDGE_CURVE ( 'NONE', #845, #941, #909, .T. ) ;
#99 = SURFACE_STYLE_FILL_AREA ( #600 ) ;
#100 = DIRECTION ( 'NONE',  ( 0.0000000000000000000, -0.0000000000000000000, -1.000000000000000000 ) ) ;
#101 = FACE_OUTER_BOUND ( 'NONE', #364, .T. ) ;
#102 = MECHANICAL_DESIGN_GEOMETRIC_PRESENTATION_REPRESENTATION (  '', ( #848 ), #659 ) ;
#103 = ORIENTED_EDGE ( 'NONE', *, *, #330, .T. ) ;
#104 = VERTEX_POINT ( 'NONE', #526 ) ;
#105 = ORIENTED_EDGE ( 'NONE', *, *, #136, .F. ) ;
#106 = LINE ( 'NONE', #944, #39 ) ;
#107 = VECTOR ( 'NONE', #167, 1000.000000000000000 ) ;
#108 = EDGE_CURVE ( 'NONE', #642, #133, #301, .T. ) ;
#109 = FACE_OUTER_BOUND ( 'NONE', #616, .T. ) ;
#110 = ORIENTED_EDGE ( 'NONE', *, *, #655, .F. ) ;
#111 = VECTOR ( 'NONE', #905, 1000.000000000000000 ) ;
#112 = EDGE_CURVE ( 'NONE', #757, #802, #279, .T. ) ;
#113 = ORIENTED_EDGE ( 'NONE', *, *, #737, .F. ) ;
#114 = AXIS2_PLACEMENT_3D ( 'NONE', #457, #886, #812 ) ;
#115 = EDGE_LOOP ( 'NONE', ( #768, #513, #135, #850 ) ) ;
#116 = VECTOR ( 'NONE', #510, 1000.000000000000000 ) ;
#117 = VECTOR ( 'NONE', #939, 1000.000000000000000 ) ;
#118 = VECTOR ( 'NONE', #952, 1000.000000000000000 ) ;
#119 = FACE_OUTER_BOUND ( 'NONE', #403, .T. ) ;
#120 = ADVANCED_FACE ( 'NONE', ( #182 ), #395, .F. ) ;
#121 = CARTESIAN_POINT ( 'NONE',  ( -0.9699999999999996403, 0.5699999999999998401, -2.638752715702699092 ) ) ;
#122 = AXIS2_PLACEMENT_3D ( 'NONE', #171, #268, #783 ) ;
#123 = ORIENTED_EDGE ( 'NONE', *, *, #467, .F. ) ;
#124 = CARTESIAN_POINT ( 'NONE',  ( -0.9699999999999996403, 0.02999999999999993991, 0.6250000000000000000 ) ) ;
#125 = DIRECTION ( 'NONE',  ( -1.000000000000000000, 0.0000000000000000000, 0.0000000000000000000 ) ) ;
#126 = VECTOR ( 'NONE', #957, 1000.000000000000000 ) ;
#127 = CARTESIAN_POINT ( 'NONE',  ( -0.9699999999999996403, 0.5699999999999998401, 0.6250000000000000000 ) ) ;
#128 = VECTOR ( 'NONE', #566, 1000.000000000000000 ) ;
#129 = CARTESIAN_POINT ( 'NONE',  ( 0.5999999999999994227, 0.5699999999999997291, -0.6250000000000000000 ) ) ;
#130 = ORIENTED_EDGE ( 'NONE', *, *, #60, .T. ) ;
#131 = ORIENTED_EDGE ( 'NONE', *, *, #538, .F. ) ;
#132 = DIRECTION ( 'NONE',  ( 9.856383386231858827E-17, 1.000000000000000000, 0.0000000000000000000 ) ) ;
#133 = VERTEX_POINT ( 'NONE', #203 ) ;
#134 = DIRECTION ( 'NONE',  ( -0.0000000000000000000, -0.0000000000000000000, -1.000000000000000000 ) ) ;
#135 = ORIENTED_EDGE ( 'NONE', *, *, #502, .F. ) ;
#136 = EDGE_CURVE ( 'NONE', #251, #668, #633, .T. ) ;
#137 = CARTESIAN_POINT ( 'NONE',  ( -0.5999999999999996447, 0.5699999999999998401, 0.6250000000000000000 ) ) ;
#138 = LINE ( 'NONE', #419, #726 ) ;
#139 = DIRECTION ( 'NONE',  ( 1.000000000000000000, -3.061616997868382155E-16, 0.0000000000000000000 ) ) ;
#140 = EDGE_CURVE ( 'NONE', #208, #104, #649, .T. ) ;
#141 = VERTEX_POINT ( 'NONE', #907 ) ;
#142 = CARTESIAN_POINT ( 'NONE',  ( 0.0000000000000000000, 0.0000000000000000000, 0.6250000000000000000 ) ) ;
#143 = CARTESIAN_POINT ( 'NONE',  ( -0.5999999999999996447, 0.5999999999999998668, 0.6250000000000000000 ) ) ;
#144 = CARTESIAN_POINT ( 'NONE',  ( 0.5999999999999994227, 0.5699999999999997291, -0.6250000000000000000 ) ) ;
#145 = ORIENTED_EDGE ( 'NONE', *, *, #873, .F. ) ;
#146 = EDGE_LOOP ( 'NONE', ( #478, #177, #172, #838 ) ) ;
#147 = DIRECTION ( 'NONE',  ( -0.0000000000000000000, -1.000000000000000000, -0.0000000000000000000 ) ) ;
#148 = AXIS2_PLACEMENT_3D ( 'NONE', #572, #73, #153 ) ;
#149 = LINE ( 'NONE', #767, #401 ) ;
#150 = CARTESIAN_POINT ( 'NONE',  ( -0.9999999999999995559, 0.5999999999999998668, -0.6250000000000000000 ) ) ;
#151 = DIRECTION ( 'NONE',  ( -1.000000000000000000, 0.0000000000000000000, 0.0000000000000000000 ) ) ;
#152 = FACE_OUTER_BOUND ( 'NONE', #72, .T. ) ;
#153 = DIRECTION ( 'NONE',  ( 0.0000000000000000000, -0.0000000000000000000, 1.000000000000000000 ) ) ;
#154 = VECTOR ( 'NONE', #159, 1000.000000000000000 ) ;
#155 = LINE ( 'NONE', #137, #404 ) ;
#156 = DIRECTION ( 'NONE',  ( 0.0000000000000000000, 1.000000000000000000, 0.0000000000000000000 ) ) ;
#157 = CARTESIAN_POINT ( 'NONE',  ( -0.5999999999999996447, 0.5999999999999999778, -0.6250000000000000000 ) ) ;
#158 = SURFACE_STYLE_USAGE ( .BOTH. , #89 ) ;
#159 = DIRECTION ( 'NONE',  ( -1.000000000000000000, -1.190424682627665521E-16, 0.0000000000000000000 ) ) ;
#160 = EDGE_LOOP ( 'NONE', ( #470, #763, #90, #197 ) ) ;
#161 = EDGE_CURVE ( 'NONE', #381, #183, #777, .T. ) ;
#162 = MECHANICAL_DESIGN_GEOMETRIC_PRESENTATION_REPRESENTATION (  '', ( #665 ), #174 ) ;
#163 = FACE_OUTER_BOUND ( 'NONE', #237, .T. ) ;
#164 = PLANE ( 'NONE',  #937 ) ;
#165 = EDGE_CURVE ( 'NONE', #312, #405, #193, .T. ) ;
#166 = AXIS2_PLACEMENT_3D ( 'NONE', #574, #653, #139 ) ;
#167 = DIRECTION ( 'NONE',  ( 0.0000000000000000000, 1.000000000000000000, 0.0000000000000000000 ) ) ;
#168 = MANIFOLD_SOLID_BREP ( 'Boss-Extrude3', #331 ) ;
#169 = VECTOR ( 'NONE', #82, 1000.000000000000000 ) ;
#170 = VECTOR ( 'NONE', #81, 1000.000000000000000 ) ;
#171 = CARTESIAN_POINT ( 'NONE',  ( 0.9699999999999996403, 0.02999999999999993991, 0.6250000000000000000 ) ) ;
#172 = ORIENTED_EDGE ( 'NONE', *, *, #590, .F. ) ;
#173 = ADVANCED_FACE ( 'NONE', ( #462 ), #895, .F. ) ;
#174 =( GEOMETRIC_REPRESENTATION_CONTEXT ( 3 ) GLOBAL_UNCERTAINTY_ASSIGNED_CONTEXT ( ( #835 ) ) GLOBAL_UNIT_ASSIGNED_CONTEXT ( ( #80, #603, #77 ) ) REPRESENTATION_CONTEXT ( 'NONE', 'WORKASPACE' ) );
#175 = VECTOR ( 'NONE', #501, 1000.000000000000000 ) ;
#176 = ORIENTED_EDGE ( 'NONE', *, *, #467, .T. ) ;
#177 = ORIENTED_EDGE ( 'NONE', *, *, #617, .T. ) ;
#178 = ADVANCED_BREP_SHAPE_REPRESENTATION ( 'CRH0805-FW-1504ELF', ( #925, #514, #394, #168, #619 ), #243 ) ;
#179 = COLOUR_RGB ( '',0.7921568627450980005, 0.8196078431372548767, 0.9333333333333333481 ) ;
#180 = VECTOR ( 'NONE', #805, 1000.000000000000000 ) ;
#181 = UNCERTAINTY_MEASURE_WITH_UNIT (LENGTH_MEASURE( 1.000000000000000082E-05 ), #494, 'distance_accuracy_value', 'NONE');
#182 = FACE_OUTER_BOUND ( 'NONE', #752, .T. ) ;
#183 = VERTEX_POINT ( 'NONE', #562 ) ;
#184 = ADVANCED_FACE ( 'NONE', ( #109 ), #722, .T. ) ;
#185 = ORIENTED_EDGE ( 'NONE', *, *, #359, .F. ) ;
#186 = ORIENTED_EDGE ( 'NONE', *, *, #650, .F. ) ;
#187 = ADVANCED_FACE ( 'NONE', ( #152 ), #79, .F. ) ;
#188 = ORIENTED_EDGE ( 'NONE', *, *, #538, .T. ) ;
#189 = CARTESIAN_POINT ( 'NONE',  ( 0.5999999999999996447, 0.0000000000000000000, 0.6250000000000000000 ) ) ;
#190 = LINE ( 'NONE', #230, #849 ) ;
#191 = AXIS2_PLACEMENT_3D ( 'NONE', #314, #376, #534 ) ;
#192 = CARTESIAN_POINT ( 'NONE',  ( 0.9699999999999996403, 0.5699999999999998401, 0.6250000000000000000 ) ) ;
#193 = LINE ( 'NONE', #21, #423 ) ;
#194 = VECTOR ( 'NONE', #68, 1000.000000000000000 ) ;
#195 = DIRECTION ( 'NONE',  ( -1.734723475976807341E-16, 0.0000000000000000000, -1.000000000000000000 ) ) ;
#196 = EDGE_CURVE ( 'NONE', #802, #778, #553, .T. ) ;
#197 = ORIENTED_EDGE ( 'NONE', *, *, #418, .T. ) ;
#198 = VERTEX_POINT ( 'NONE', #676 ) ;
#199 = CARTESIAN_POINT ( 'NONE',  ( -0.5999999999999998668, -1.162772345116344974, -0.6250000000000000000 ) ) ;
#200 = ADVANCED_FACE ( 'NONE', ( #119 ), #229, .T. ) ;
#201 = LINE ( 'NONE', #11, #920 ) ;
#202 = LINE ( 'NONE', #885, #290 ) ;
#203 = CARTESIAN_POINT ( 'NONE',  ( -0.9699999999999996403, 0.5699999999999998401, 0.6250000000000000000 ) ) ;
#204 = EDGE_CURVE ( 'NONE', #20, #569, #576, .T. ) ;
#205 = FACE_OUTER_BOUND ( 'NONE', #698, .T. ) ;
#206 = CARTESIAN_POINT ( 'NONE',  ( -0.9999999999999995559, -1.224646799147352714E-16, 0.6250000000000000000 ) ) ;
#207 = ORIENTED_EDGE ( 'NONE', *, *, #252, .F. ) ;
#208 = VERTEX_POINT ( 'NONE', #215 ) ;
#209 = ORIENTED_EDGE ( 'NONE', *, *, #839, .T. ) ;
#210 = PLANE ( 'NONE',  #702 ) ;
#211 = PRODUCT_CONTEXT ( 'NONE', #940, 'mechanical' ) ;
#212 = VERTEX_POINT ( 'NONE', #295 ) ;
#213 = ORIENTED_EDGE ( 'NONE', *, *, #542, .F. ) ;
#214 = AXIS2_PLACEMENT_3D ( 'NONE', #6, #228, #460 ) ;
#215 = CARTESIAN_POINT ( 'NONE',  ( -0.9999999999999995559, -1.224646799147352714E-16, 0.6250000000000000000 ) ) ;
#216 =( NAMED_UNIT ( * ) SI_UNIT ( $, .STERADIAN. ) SOLID_ANGLE_UNIT ( ) );
#217 = DIRECTION ( 'NONE',  ( 0.0000000000000000000, 1.000000000000000000, 0.0000000000000000000 ) ) ;
#218 = DIRECTION ( 'NONE',  ( -0.0000000000000000000, 1.000000000000000000, -0.0000000000000000000 ) ) ;
#219 = LINE ( 'NONE', #785, #118 ) ;
#220 = FACE_OUTER_BOUND ( 'NONE', #34, .T. ) ;
#221 = AXIS2_PLACEMENT_3D ( 'NONE', #390, #739, #811 ) ;
#222 = CARTESIAN_POINT ( 'NONE',  ( -0.5999999999999996447, 0.5999999999999999778, -0.6250000000000000000 ) ) ;
#223 = DIRECTION ( 'NONE',  ( 0.0000000000000000000, 0.0000000000000000000, 1.000000000000000000 ) ) ;
#224 = ORIENTED_EDGE ( 'NONE', *, *, #697, .T. ) ;
#225 = LINE ( 'NONE', #306, #92 ) ;
#226 = DIRECTION ( 'NONE',  ( 0.0000000000000000000, 1.000000000000000000, 0.0000000000000000000 ) ) ;
#227 = CARTESIAN_POINT ( 'NONE',  ( -0.9999999999999995559, 0.5999999999999998668, 0.6250000000000000000 ) ) ;
#228 = DIRECTION ( 'NONE',  ( 1.000000000000000000, -9.856383386231858827E-17, -1.734723475976807094E-16 ) ) ;
#229 = PLANE ( 'NONE',  #44 ) ;
#230 = CARTESIAN_POINT ( 'NONE',  ( -0.9999999999999995559, -1.224646799147352714E-16, -0.6250000000000000000 ) ) ;
#231 = CARTESIAN_POINT ( 'NONE',  ( 0.9699999999999996403, 0.02999999999999993991, 0.6250000000000000000 ) ) ;
#232 = VECTOR ( 'NONE', #828, 1000.000000000000000 ) ;
#233 = DIRECTION ( 'NONE',  ( 1.000000000000000000, 1.746459685060413992E-18, 0.0000000000000000000 ) ) ;
#234 = FILL_AREA_STYLE_COLOUR ( '', #445 ) ;
#235 = ORIENTED_EDGE ( 'NONE', *, *, #204, .T. ) ;
#236 = DIRECTION ( 'NONE',  ( 0.0000000000000000000, -1.000000000000000000, 0.0000000000000000000 ) ) ;
#237 = EDGE_LOOP ( 'NONE', ( #213, #865, #176, #267 ) ) ;
#238 = DIRECTION ( 'NONE',  ( 0.0000000000000000000, 1.000000000000000000, 0.0000000000000000000 ) ) ;
#239 = DIRECTION ( 'NONE',  ( 0.0000000000000000000, -0.0000000000000000000, -1.000000000000000000 ) ) ;
#240 = DIRECTION ( 'NONE',  ( -1.000000000000000000, -3.061616997868382155E-16, 0.0000000000000000000 ) ) ;
#241 = ORIENTED_EDGE ( 'NONE', *, *, #623, .F. ) ;
#242 =( NAMED_UNIT ( * ) PLANE_ANGLE_UNIT ( ) SI_UNIT ( $, .RADIAN. ) );
#243 =( GEOMETRIC_REPRESENTATION_CONTEXT ( 3 ) GLOBAL_UNCERTAINTY_ASSIGNED_CONTEXT ( ( #414 ) ) GLOBAL_UNIT_ASSIGNED_CONTEXT ( ( #949, #503, #54 ) ) REPRESENTATION_CONTEXT ( 'NONE', 'WORKASPACE' ) );
#244 = LINE ( 'NONE', #875, #289 ) ;
#245 = VECTOR ( 'NONE', #14, 1000.000000000000000 ) ;
#246 = ORIENTED_EDGE ( 'NONE', *, *, #549, .F. ) ;
#247 = DIRECTION ( 'NONE',  ( 1.000000000000000000, 0.0000000000000000000, 0.0000000000000000000 ) ) ;
#248 = EDGE_LOOP ( 'NONE', ( #397, #434, #764, #942 ) ) ;
#249 = AXIS2_PLACEMENT_3D ( 'NONE', #573, #934, #947 ) ;
#250 = LINE ( 'NONE', #888, #500 ) ;
#251 = VERTEX_POINT ( 'NONE', #879 ) ;
#252 = EDGE_CURVE ( 'NONE', #381, #305, #876, .T. ) ;
#253 = LINE ( 'NONE', #374, #594 ) ;
#254 = LINE ( 'NONE', #521, #169 ) ;
#255 = ORIENTED_EDGE ( 'NONE', *, *, #486, .T. ) ;
#256 = ORIENTED_EDGE ( 'NONE', *, *, #5, .T. ) ;
#257 = PRESENTATION_LAYER_ASSIGNMENT (  '', '', ( #848 ) ) ;
#258 = ADVANCED_FACE ( 'NONE', ( #391 ), #954, .F. ) ;
#259 = ORIENTED_EDGE ( 'NONE', *, *, #112, .F. ) ;
#260 = ORIENTED_EDGE ( 'NONE', *, *, #822, .T. ) ;
#261 = EDGE_CURVE ( 'NONE', #915, #845, #564, .T. ) ;
#262 = LINE ( 'NONE', #673, #455 ) ;
#263 = LINE ( 'NONE', #626, #770 ) ;
#264 = ADVANCED_FACE ( 'NONE', ( #322 ), #666, .F. ) ;
#265 = FACE_OUTER_BOUND ( 'NONE', #96, .T. ) ;
#266 = ORIENTED_EDGE ( 'NONE', *, *, #302, .F. ) ;
#267 = ORIENTED_EDGE ( 'NONE', *, *, #388, .T. ) ;
#268 = DIRECTION ( 'NONE',  ( 1.000000000000000000, 0.0000000000000000000, -0.0000000000000000000 ) ) ;
#269 = VERTEX_POINT ( 'NONE', #601 ) ;
#270 = DIRECTION ( 'NONE',  ( -1.000000000000000000, 3.061616997868382155E-16, 0.0000000000000000000 ) ) ;
#271 = CARTESIAN_POINT ( 'NONE',  ( -0.5999999999999996447, 0.02999999999999998501, 0.6250000000000000000 ) ) ;
#272 = EDGE_CURVE ( 'NONE', #861, #312, #598, .T. ) ;
#273 = VERTEX_POINT ( 'NONE', #435 ) ;
#274 = DIRECTION ( 'NONE',  ( 0.0000000000000000000, 0.0000000000000000000, 1.000000000000000000 ) ) ;
#275 = DIRECTION ( 'NONE',  ( 0.0000000000000000000, 0.0000000000000000000, -1.000000000000000000 ) ) ;
#276 = LINE ( 'NONE', #591, #126 ) ;
#277 = CARTESIAN_POINT ( 'NONE',  ( 0.9999999999999995559, 0.5999999999999998668, 0.6250000000000000000 ) ) ;
#278 = AXIS2_PLACEMENT_3D ( 'NONE', #422, #647, #728 ) ;
#279 = LINE ( 'NONE', #379, #933 ) ;
#280 = ADVANCED_FACE ( 'NONE', ( #729 ), #504, .F. ) ;
#281 = DIRECTION ( 'NONE',  ( 0.0000000000000000000, 1.000000000000000000, 0.0000000000000000000 ) ) ;
#282 = LINE ( 'NONE', #582, #841 ) ;
#283 = ORIENTED_EDGE ( 'NONE', *, *, #272, .F. ) ;
#284 = EDGE_CURVE ( 'NONE', #530, #731, #706, .T. ) ;
#285 = PLANE ( 'NONE',  #166 ) ;
#286 = EDGE_LOOP ( 'NONE', ( #185, #26, #241, #474 ) ) ;
#287 = FILL_AREA_STYLE_COLOUR ( '', #701 ) ;
#288 = DIRECTION ( 'NONE',  ( -1.000000000000000000, 1.807003620809175618E-16, 0.0000000000000000000 ) ) ;
#289 = VECTOR ( 'NONE', #738, 1000.000000000000000 ) ;
#290 = VECTOR ( 'NONE', #466, 1000.000000000000000 ) ;
#291 = CARTESIAN_POINT ( 'NONE',  ( -0.5999999999999996447, 0.5999999999999998668, -0.6250000000000000000 ) ) ;
#292 = EDGE_CURVE ( 'NONE', #861, #704, #629, .T. ) ;
#293 = PLANE ( 'NONE',  #325 ) ;
#294 = EDGE_LOOP ( 'NONE', ( #323, #472, #550, #773 ) ) ;
#295 = CARTESIAN_POINT ( 'NONE',  ( -0.9699999999999996403, 0.5699999999999998401, 0.6250000000000000000 ) ) ;
#296 = DIRECTION ( 'NONE',  ( 1.807003620809175618E-16, 1.000000000000000000, -3.134651602192769242E-32 ) ) ;
#297 = CARTESIAN_POINT ( 'NONE',  ( -0.5999999999999996447, -1.162772345116344974, 0.6250000000000000000 ) ) ;
#298 = PLANE ( 'NONE',  #114 ) ;
#299 = DIRECTION ( 'NONE',  ( -1.000000000000000000, -0.0000000000000000000, -0.0000000000000000000 ) ) ;
#300 = VECTOR ( 'NONE', #195, 1000.000000000000000 ) ;
#301 = LINE ( 'NONE', #693, #612 ) ;
#302 = EDGE_CURVE ( 'NONE', #198, #269, #155, .T. ) ;
#303 = CARTESIAN_POINT ( 'NONE',  ( 0.9699999999999996403, 0.02999999999999994338, -0.6250000000000001110 ) ) ;
#304 = ORIENTED_EDGE ( 'NONE', *, *, #725, .T. ) ;
#305 = VERTEX_POINT ( 'NONE', #882 ) ;
#306 = CARTESIAN_POINT ( 'NONE',  ( 0.9699999999999996403, 0.02999999999999993991, 0.6250000000000000000 ) ) ;
#307 = VECTOR ( 'NONE', #450, 1000.000000000000000 ) ;
#308 = ORIENTED_EDGE ( 'NONE', *, *, #33, .T. ) ;
#309 = CARTESIAN_POINT ( 'NONE',  ( -0.9999999999999995559, -1.224646799147352714E-16, 0.6250000000000000000 ) ) ;
#310 = CARTESIAN_POINT ( 'NONE',  ( -0.5999999999999998668, 0.5699999999999997291, -0.6250000000000000000 ) ) ;
#311 = ORIENTED_EDGE ( 'NONE', *, *, #833, .T. ) ;
#312 = VERTEX_POINT ( 'NONE', #509 ) ;
#313 = LINE ( 'NONE', #360, #439 ) ;
#314 = CARTESIAN_POINT ( 'NONE',  ( -0.5999999999999998668, -1.162772345116344974, -0.6250000000000000000 ) ) ;
#315 = CARTESIAN_POINT ( 'NONE',  ( 0.9699999999999996403, 0.5699999999999998401, -0.6250000000000000000 ) ) ;
#316 = VECTOR ( 'NONE', #800, 1000.000000000000000 ) ;
#317 = EDGE_CURVE ( 'NONE', #749, #707, #282, .T. ) ;
#318 = CARTESIAN_POINT ( 'NONE',  ( -0.9699999999999996403, 0.02999999999999993991, 0.6250000000000000000 ) ) ;
#319 = VERTEX_POINT ( 'NONE', #687 ) ;
#320 = VERTEX_POINT ( 'NONE', #231 ) ;
#321 = VECTOR ( 'NONE', #371, 1000.000000000000000 ) ;
#322 = FACE_OUTER_BOUND ( 'NONE', #734, .T. ) ;
#323 = ORIENTED_EDGE ( 'NONE', *, *, #98, .F. ) ;
#324 = LINE ( 'NONE', #820, #348 ) ;
#325 = AXIS2_PLACEMENT_3D ( 'NONE', #199, #275, #429 ) ;
#326 = VECTOR ( 'NONE', #759, 1000.000000000000000 ) ;
#327 = ADVANCED_FACE ( 'NONE', ( #896 ), #383, .T. ) ;
#328 = FACE_OUTER_BOUND ( 'NONE', #730, .T. ) ;
#329 = VERTEX_POINT ( 'NONE', #609 ) ;
#330 = EDGE_CURVE ( 'NONE', #645, #30, #547, .T. ) ;
#331 = CLOSED_SHELL ( 'NONE', ( #353, #877, #634, #438, #200, #554 ) ) ;
#332 = LINE ( 'NONE', #446, #116 ) ;
#333 = VECTOR ( 'NONE', #485, 1000.000000000000000 ) ;
#334 = ORIENTED_EDGE ( 'NONE', *, *, #866, .F. ) ;
#335 = LINE ( 'NONE', #646, #606 ) ;
#336 = EDGE_CURVE ( 'NONE', #802, #692, #324, .T. ) ;
#337 = PRODUCT_DEFINITION_FORMATION_WITH_SPECIFIED_SOURCE ( 'ANY', '', #402, .NOT_KNOWN. ) ;
#338 = ORIENTED_EDGE ( 'NONE', *, *, #370, .F. ) ;
#339 = ORIENTED_EDGE ( 'NONE', *, *, #856, .F. ) ;
#340 = DIRECTION ( 'NONE',  ( 0.0000000000000000000, -1.000000000000000000, -0.0000000000000000000 ) ) ;
#341 = DIRECTION ( 'NONE',  ( -1.000000000000000000, 0.0000000000000000000, 0.0000000000000000000 ) ) ;
#342 = AXIS2_PLACEMENT_3D ( 'NONE', #50, #53, #938 ) ;
#343 = CARTESIAN_POINT ( 'NONE',  ( 0.9999999999999995559, -1.224646799147352714E-16, 0.6250000000000000000 ) ) ;
#344 = FACE_OUTER_BOUND ( 'NONE', #736, .T. ) ;
#345 = PLANE ( 'NONE',  #249 ) ;
#346 = APPLICATION_PROTOCOL_DEFINITION ( 'draft international standard', 'automotive_design', 1998, #940 ) ;
#347 = VERTEX_POINT ( 'NONE', #761 ) ;
#348 = VECTOR ( 'NONE', #461, 1000.000000000000000 ) ;
#349 = CARTESIAN_POINT ( 'NONE',  ( -0.5999999999999996447, 0.5999999999999998668, -0.6250000000000000000 ) ) ;
#350 = VERTEX_POINT ( 'NONE', #891 ) ;
#351 = CARTESIAN_POINT ( 'NONE',  ( -0.9999999999999995559, 0.5999999999999998668, -0.6250000000000000000 ) ) ;
#352 = ORIENTED_EDGE ( 'NONE', *, *, #635, .F. ) ;
#353 = ADVANCED_FACE ( 'NONE', ( #524 ), #84, .T. ) ;
#354 = EDGE_CURVE ( 'NONE', #463, #208, #644, .T. ) ;
#355 = DIRECTION ( 'NONE',  ( 0.0000000000000000000, 0.0000000000000000000, -1.000000000000000000 ) ) ;
#356 = FACE_OUTER_BOUND ( 'NONE', #440, .T. ) ;
#357 = ORIENTED_EDGE ( 'NONE', *, *, #272, .T. ) ;
#358 = DIRECTION ( 'NONE',  ( 1.000000000000000000, 0.0000000000000000000, -0.0000000000000000000 ) ) ;
#359 = EDGE_CURVE ( 'NONE', #842, #915, #751, .T. ) ;
#360 = CARTESIAN_POINT ( 'NONE',  ( -0.5999999999999998668, -1.162772345116344974, -0.6250000000000000000 ) ) ;
#361 = AXIS2_PLACEMENT_3D ( 'NONE', #765, #396, #240 ) ;
#362 = CARTESIAN_POINT ( 'NONE',  ( 0.0000000000000000000, 0.0000000000000000000, 0.6250000000000000000 ) ) ;
#363 = ORIENTED_EDGE ( 'NONE', *, *, #136, .T. ) ;
#364 = EDGE_LOOP ( 'NONE', ( #113, #207, #36, #919 ) ) ;
#365 = CARTESIAN_POINT ( 'NONE',  ( -0.5999999999999996447, 0.5699999999999997291, 0.6250000000000000000 ) ) ;
#366 = DIRECTION ( 'NONE',  ( 0.0000000000000000000, 0.0000000000000000000, -1.000000000000000000 ) ) ;
#367 = DIRECTION ( 'NONE',  ( 0.0000000000000000000, -0.0000000000000000000, -1.000000000000000000 ) ) ;
#368 = LINE ( 'NONE', #222, #821 ) ;
#369 = CARTESIAN_POINT ( 'NONE',  ( -0.9999999999999995559, 0.5999999999999998668, 0.6250000000000000000 ) ) ;
#370 = EDGE_CURVE ( 'NONE', #778, #350, #495, .T. ) ;
#371 = DIRECTION ( 'NONE',  ( -1.000000000000000000, 1.807003620809175618E-16, -0.0000000000000000000 ) ) ;
#372 = CARTESIAN_POINT ( 'NONE',  ( 0.5999999999999996447, 0.02999999999999998501, 0.6250000000000000000 ) ) ;
#373 = VECTOR ( 'NONE', #746, 1000.000000000000000 ) ;
#374 = CARTESIAN_POINT ( 'NONE',  ( -0.5999999999999996447, 0.0000000000000000000, 0.6250000000000000000 ) ) ;
#375 = CARTESIAN_POINT ( 'NONE',  ( -0.5999999999999996447, -1.162772345116344974, 0.6250000000000000000 ) ) ;
#376 = DIRECTION ( 'NONE',  ( -1.000000000000000000, 9.856383386231858827E-17, 1.734723475976807094E-16 ) ) ;
#377 = CARTESIAN_POINT ( 'NONE',  ( -0.9699999999999996403, 0.02999999999999993991, -0.6250000000000001110 ) ) ;
#378 = DIRECTION ( 'NONE',  ( 1.000000000000000000, 3.061616997868382155E-16, -0.0000000000000000000 ) ) ;
#379 = CARTESIAN_POINT ( 'NONE',  ( -0.9699999999999996403, 0.02999999999999993991, -0.6250000000000001110 ) ) ;
#380 = DIRECTION ( 'NONE',  ( 1.000000000000000000, 1.746459685060413992E-18, 0.0000000000000000000 ) ) ;
#381 = VERTEX_POINT ( 'NONE', #13 ) ;
#382 = STYLED_ITEM ( 'NONE', ( #946 ), #925 ) ;
#383 = PLANE ( 'NONE',  #825 ) ;
#384 = CARTESIAN_POINT ( 'NONE',  ( 0.5999999999999994227, 0.5999999999999997558, -0.6250000000000000000 ) ) ;
#385 = DIRECTION ( 'NONE',  ( 0.0000000000000000000, 1.000000000000000000, 0.0000000000000000000 ) ) ;
#386 = CARTESIAN_POINT ( 'NONE',  ( -0.5999999999999996447, 0.02999999999999998501, 0.6250000000000000000 ) ) ;
#387 = DIRECTION ( 'NONE',  ( 0.0000000000000000000, 0.0000000000000000000, 1.000000000000000000 ) ) ;
#388 = EDGE_CURVE ( 'NONE', #320, #251, #225, .T. ) ;
#389 = CARTESIAN_POINT ( 'NONE',  ( 0.9699999999999996403, 0.02999999999999993991, 0.6250000000000000000 ) ) ;
#390 = CARTESIAN_POINT ( 'NONE',  ( 0.0000000000000000000, 0.0000000000000000000, -0.6250000000000000000 ) ) ;
#391 = FACE_OUTER_BOUND ( 'NONE', #690, .T. ) ;
#392 = PLANE ( 'NONE',  #361 ) ;
#393 = ORIENTED_EDGE ( 'NONE', *, *, #839, .F. ) ;
#394 = MANIFOLD_SOLID_BREP ( 'Boss-Extrude2', #831 ) ;
#395 = PLANE ( 'NONE',  #902 ) ;
#396 = DIRECTION ( 'NONE',  ( -3.061616997868382155E-16, 1.000000000000000000, 0.0000000000000000000 ) ) ;
#397 = ORIENTED_EDGE ( 'NONE', *, *, #336, .F. ) ;
#398 =( GEOMETRIC_REPRESENTATION_CONTEXT ( 3 ) GLOBAL_UNCERTAINTY_ASSIGNED_CONTEXT ( ( #589 ) ) GLOBAL_UNIT_ASSIGNED_CONTEXT ( ( #686, #242, #399 ) ) REPRESENTATION_CONTEXT ( 'NONE', 'WORKASPACE' ) );
#399 =( NAMED_UNIT ( * ) SI_UNIT ( $, .STERADIAN. ) SOLID_ANGLE_UNIT ( ) );
#400 = PRESENTATION_STYLE_ASSIGNMENT (( #519 ) ) ;
#401 = VECTOR ( 'NONE', #618, 1000.000000000000000 ) ;
#402 = PRODUCT ( 'CRH0805-FW-1504ELF', 'CRH0805-FW-1504ELF', '', ( #211 ) ) ;
#403 = EDGE_LOOP ( 'NONE', ( #918, #408, #696, #904 ) ) ;
#404 = VECTOR ( 'NONE', #75, 1000.000000000000000 ) ;
#405 = VERTEX_POINT ( 'NONE', #529 ) ;
#406 = LINE ( 'NONE', #143, #747 ) ;
#407 = PRESENTATION_STYLE_ASSIGNMENT (( #537 ) ) ;
#408 = ORIENTED_EDGE ( 'NONE', *, *, #479, .T. ) ;
#409 = ORIENTED_EDGE ( 'NONE', *, *, #302, .T. ) ;
#410 = ORIENTED_EDGE ( 'NONE', *, *, #292, .T. ) ;
#411 = ORIENTED_EDGE ( 'NONE', *, *, #922, .T. ) ;
#412 = ORIENTED_EDGE ( 'NONE', *, *, #108, .T. ) ;
#413 = AXIS2_PLACEMENT_3D ( 'NONE', #1, #226, #452 ) ;
#414 = UNCERTAINTY_MEASURE_WITH_UNIT (LENGTH_MEASURE( 1.000000000000000082E-05 ), #949, 'distance_accuracy_value', 'NONE');
#415 = VECTOR ( 'NONE', #790, 1000.000000000000000 ) ;
#416 = ORIENTED_EDGE ( 'NONE', *, *, #799, .F. ) ;
#417 = PLANE ( 'NONE',  #709 ) ;
#418 = EDGE_CURVE ( 'NONE', #463, #481, #766, .T. ) ;
#419 = CARTESIAN_POINT ( 'NONE',  ( 0.5999999999999996447, 0.02999999999999998501, -0.6250000000000000000 ) ) ;
#420 = LINE ( 'NONE', #622, #107 ) ;
#421 = CARTESIAN_POINT ( 'NONE',  ( 0.0000000000000000000, 0.0000000000000000000, 0.0000000000000000000 ) ) ;
#422 = CARTESIAN_POINT ( 'NONE',  ( 0.9999999999999995559, -1.224646799147352714E-16, 0.6250000000000000000 ) ) ;
#423 = VECTOR ( 'NONE', #531, 1000.000000000000000 ) ;
#424 =( NAMED_UNIT ( * ) SI_UNIT ( $, .STERADIAN. ) SOLID_ANGLE_UNIT ( ) );
#425 = ORIENTED_EDGE ( 'NONE', *, *, #922, .F. ) ;
#426 = EDGE_CURVE ( 'NONE', #915, #710, #708, .T. ) ;
#427 = ORIENTED_EDGE ( 'NONE', *, *, #916, .F. ) ;
#428 = CARTESIAN_POINT ( 'NONE',  ( 0.0000000000000000000, 0.0000000000000000000, -0.6250000000000000000 ) ) ;
#429 = DIRECTION ( 'NONE',  ( -1.000000000000000000, 0.0000000000000000000, -0.0000000000000000000 ) ) ;
#430 = LINE ( 'NONE', #684, #776 ) ;
#431 = EDGE_CURVE ( 'NONE', #668, #305, #444, .T. ) ;
#432 = CARTESIAN_POINT ( 'NONE',  ( -0.5999999999999996447, 0.02999999999999998501, -0.6250000000000000000 ) ) ;
#433 = ADVANCED_FACE ( 'NONE', ( #548 ), #58, .F. ) ;
#434 = ORIENTED_EDGE ( 'NONE', *, *, #196, .T. ) ;
#435 = CARTESIAN_POINT ( 'NONE',  ( 0.9699999999999996403, 0.5699999999999998401, -0.6250000000000001110 ) ) ;
#436 = FACE_OUTER_BOUND ( 'NONE', #588, .T. ) ;
#437 = LINE ( 'NONE', #656, #931 ) ;
#438 = ADVANCED_FACE ( 'NONE', ( #792 ), #596, .T. ) ;
#439 = VECTOR ( 'NONE', #132, 1000.000000000000000 ) ;
#440 = EDGE_LOOP ( 'NONE', ( #559, #32, #541, #41 ) ) ;
#441 = DIRECTION ( 'NONE',  ( 0.0000000000000000000, 0.0000000000000000000, -1.000000000000000000 ) ) ;
#442 = ORIENTED_EDGE ( 'NONE', *, *, #691, .F. ) ;
#443 = DIRECTION ( 'NONE',  ( 1.734723475976807341E-16, 0.0000000000000000000, 1.000000000000000000 ) ) ;
#444 = LINE ( 'NONE', #489, #923 ) ;
#445 = COLOUR_RGB ( '',1.000000000000000000, 1.000000000000000000, 1.000000000000000000 ) ;
#446 = CARTESIAN_POINT ( 'NONE',  ( 0.9699999999999996403, 0.5699999999999998401, 0.6250000000000000000 ) ) ;
#447 = CARTESIAN_POINT ( 'NONE',  ( 0.9699999999999996403, 0.02999999999999993991, -0.6250000000000000000 ) ) ;
#448 = CARTESIAN_POINT ( 'NONE',  ( -0.5999999999999996447, 0.02999999999999998501, -0.6250000000000000000 ) ) ;
#449 = AXIS2_PLACEMENT_3D ( 'NONE', #454, #10, #523 ) ;
#450 = DIRECTION ( 'NONE',  ( 0.0000000000000000000, -0.0000000000000000000, -1.000000000000000000 ) ) ;
#451 = ORIENTED_EDGE ( 'NONE', *, *, #873, .T. ) ;
#452 = DIRECTION ( 'NONE',  ( 0.0000000000000000000, -0.0000000000000000000, 1.000000000000000000 ) ) ;
#453 = DIRECTION ( 'NONE',  ( 1.734723475976807094E-16, 0.0000000000000000000, 1.000000000000000000 ) ) ;
#454 = CARTESIAN_POINT ( 'NONE',  ( 0.0000000000000000000, 0.0000000000000000000, -0.6250000000000000000 ) ) ;
#455 = VECTOR ( 'NONE', #894, 1000.000000000000000 ) ;
#456 = VECTOR ( 'NONE', #608, 1000.000000000000000 ) ;
#457 = CARTESIAN_POINT ( 'NONE',  ( -0.5999999999999996447, 0.02999999999999998501, 0.6250000000000000000 ) ) ;
#458 = FILL_AREA_STYLE ('',( #468 ) ) ;
#459 = AXIS2_PLACEMENT_3D ( 'NONE', #788, #55, #727 ) ;
#460 = DIRECTION ( 'NONE',  ( -1.734723475976807094E-16, 0.0000000000000000000, -1.000000000000000000 ) ) ;
#461 = DIRECTION ( 'NONE',  ( 0.0000000000000000000, 0.0000000000000000000, 1.000000000000000000 ) ) ;
#462 = FACE_OUTER_BOUND ( 'NONE', #480, .T. ) ;
#463 = VERTEX_POINT ( 'NONE', #369 ) ;
#464 = ORIENTED_EDGE ( 'NONE', *, *, #630, .T. ) ;
#465 = SURFACE_SIDE_STYLE ('',( #733 ) ) ;
#466 = DIRECTION ( 'NONE',  ( -1.000000000000000000, -1.190424682627665521E-16, 0.0000000000000000000 ) ) ;
#467 = EDGE_CURVE ( 'NONE', #405, #320, #201, .T. ) ;
#468 = FILL_AREA_STYLE_COLOUR ( '', #892 ) ;
#469 = EDGE_LOOP ( 'NONE', ( #741, #9, #442, #451 ) ) ;
#470 = ORIENTED_EDGE ( 'NONE', *, *, #650, .T. ) ;
#471 = LINE ( 'NONE', #389, #518 ) ;
#472 = ORIENTED_EDGE ( 'NONE', *, *, #742, .T. ) ;
#473 = AXIS2_PLACEMENT_3D ( 'NONE', #754, #824, #380 ) ;
#474 = ORIENTED_EDGE ( 'NONE', *, *, #426, .F. ) ;
#475 = ORIENTED_EDGE ( 'NONE', *, *, #866, .T. ) ;
#476 = VECTOR ( 'NONE', #94, 1000.000000000000000 ) ;
#477 = LINE ( 'NONE', #189, #921 ) ;
#478 = ORIENTED_EDGE ( 'NONE', *, *, #725, .F. ) ;
#479 = EDGE_CURVE ( 'NONE', #347, #141, #262, .T. ) ;
#480 = EDGE_LOOP ( 'NONE', ( #105, #699, #260, #255 ) ) ;
#481 = VERTEX_POINT ( 'NONE', #150 ) ;
#482 = SURFACE_STYLE_FILL_AREA ( #4 ) ;
#483 = FACE_OUTER_BOUND ( 'NONE', #248, .T. ) ;
#484 = ORIENTED_EDGE ( 'NONE', *, *, #165, .F. ) ;
#485 = DIRECTION ( 'NONE',  ( 0.0000000000000000000, -0.0000000000000000000, -1.000000000000000000 ) ) ;
#486 = EDGE_CURVE ( 'NONE', #810, #668, #332, .T. ) ;
#487 = ADVANCED_FACE ( 'NONE', ( #775 ), #597, .T. ) ;
#488 = DIRECTION ( 'NONE',  ( 0.0000000000000000000, 0.0000000000000000000, 1.000000000000000000 ) ) ;
#489 = CARTESIAN_POINT ( 'NONE',  ( 0.9699999999999996403, 0.5699999999999998401, -0.6250000000000000000 ) ) ;
#490 = DIRECTION ( 'NONE',  ( 0.0000000000000000000, 0.0000000000000000000, 1.000000000000000000 ) ) ;
#491 =( NAMED_UNIT ( * ) PLANE_ANGLE_UNIT ( ) SI_UNIT ( $, .RADIAN. ) );
#492 = PLANE ( 'NONE',  #342 ) ;
#493 = LINE ( 'NONE', #375, #694 ) ;
#494 =( LENGTH_UNIT ( ) NAMED_UNIT ( * ) SI_UNIT ( .MILLI., .METRE. ) );
#495 = LINE ( 'NONE', #522, #772 ) ;
#496 = VECTOR ( 'NONE', #615, 1000.000000000000000 ) ;
#497 = CARTESIAN_POINT ( 'NONE',  ( 0.5999999999999994227, -1.162772345116344974, 0.6250000000000000000 ) ) ;
#498 = ORIENTED_EDGE ( 'NONE', *, *, #737, .T. ) ;
#499 = ORIENTED_EDGE ( 'NONE', *, *, #292, .F. ) ;
#500 = VECTOR ( 'NONE', #270, 1000.000000000000000 ) ;
#501 = DIRECTION ( 'NONE',  ( -0.0000000000000000000, 1.000000000000000000, -0.0000000000000000000 ) ) ;
#502 = EDGE_CURVE ( 'NONE', #208, #581, #253, .T. ) ;
#503 =( NAMED_UNIT ( * ) PLANE_ANGLE_UNIT ( ) SI_UNIT ( $, .RADIAN. ) );
#504 = PLANE ( 'NONE',  #632 ) ;
#505 = LINE ( 'NONE', #932, #794 ) ;
#506 = DIRECTION ( 'NONE',  ( -0.0000000000000000000, -0.0000000000000000000, -1.000000000000000000 ) ) ;
#507 = ADVANCED_FACE ( 'NONE', ( #661 ), #298, .F. ) ;
#508 = FILL_AREA_STYLE ('',( #912 ) ) ;
#509 = CARTESIAN_POINT ( 'NONE',  ( 0.5999999999999996447, 0.0000000000000000000, 0.6250000000000000000 ) ) ;
#510 = DIRECTION ( 'NONE',  ( 0.0000000000000000000, -0.0000000000000000000, -1.000000000000000000 ) ) ;
#511 = EDGE_LOOP ( 'NONE', ( #557, #927, #796, #411 ) ) ;
#512 = DIRECTION ( 'NONE',  ( -1.000000000000000000, 0.0000000000000000000, 0.0000000000000000000 ) ) ;
#513 = ORIENTED_EDGE ( 'NONE', *, *, #565, .F. ) ;
#514 = MANIFOLD_SOLID_BREP ( 'Mirror2', #78 ) ;
#515 = SURFACE_SIDE_STYLE ('',( #482 ) ) ;
#516 = EDGE_CURVE ( 'NONE', #704, #605, #250, .T. ) ;
#517 = DIRECTION ( 'NONE',  ( -0.0000000000000000000, -0.0000000000000000000, -1.000000000000000000 ) ) ;
#518 = VECTOR ( 'NONE', #156, 1000.000000000000000 ) ;
#519 = SURFACE_STYLE_USAGE ( .BOTH. , #515 ) ;
#520 = VECTOR ( 'NONE', #367, 1000.000000000000000 ) ;
#521 = CARTESIAN_POINT ( 'NONE',  ( -0.5999999999999996447, 0.02999999999999998501, 0.6250000000000000000 ) ) ;
#522 = CARTESIAN_POINT ( 'NONE',  ( 0.9699999999999996403, 0.02999999999999994338, -2.638752715702699092 ) ) ;
#523 = DIRECTION ( 'NONE',  ( -1.000000000000000000, 0.0000000000000000000, -0.0000000000000000000 ) ) ;
#524 = FACE_OUTER_BOUND ( 'NONE', #146, .T. ) ;
#525 = FILL_AREA_STYLE_COLOUR ( '', #179 ) ;
#526 = CARTESIAN_POINT ( 'NONE',  ( -0.9999999999999995559, -1.224646799147352714E-16, -0.6250000000000000000 ) ) ;
#527 = CARTESIAN_POINT ( 'NONE',  ( 0.9699999999999996403, 0.5699999999999998401, 0.6250000000000000000 ) ) ;
#528 = AXIS2_PLACEMENT_3D ( 'NONE', #142, #355, #950 ) ;
#529 = CARTESIAN_POINT ( 'NONE',  ( 0.5999999999999996447, 0.02999999999999998501, 0.6250000000000000000 ) ) ;
#530 = VERTEX_POINT ( 'NONE', #716 ) ;
#531 = DIRECTION ( 'NONE',  ( 0.0000000000000000000, 1.000000000000000000, 0.0000000000000000000 ) ) ;
#532 = ORIENTED_EDGE ( 'NONE', *, *, #165, .T. ) ;
#533 = DIRECTION ( 'NONE',  ( -0.0000000000000000000, -1.000000000000000000, -0.0000000000000000000 ) ) ;
#534 = DIRECTION ( 'NONE',  ( 1.734723475976807094E-16, 0.0000000000000000000, 1.000000000000000000 ) ) ;
#535 = EDGE_CURVE ( 'NONE', #183, #329, #540, .T. ) ;
#536 = SHAPE_DEFINITION_REPRESENTATION ( #56, #178 ) ;
#537 = SURFACE_STYLE_USAGE ( .BOTH. , #12 ) ;
#538 = EDGE_CURVE ( 'NONE', #350, #642, #335, .T. ) ;
#539 = CARTESIAN_POINT ( 'NONE',  ( -0.5999999999999996447, 0.0000000000000000000, 0.6250000000000000000 ) ) ;
#540 = LINE ( 'NONE', #51, #333 ) ;
#541 = ORIENTED_EDGE ( 'NONE', *, *, #655, .T. ) ;
#542 = EDGE_CURVE ( 'NONE', #906, #251, #219, .T. ) ;
#543 = ORIENTED_EDGE ( 'NONE', *, *, #742, .F. ) ;
#544 = LINE ( 'NONE', #303, #610 ) ;
#545 = VECTOR ( 'NONE', #901, 1000.000000000000000 ) ;
#546 = ADVANCED_FACE ( 'NONE', ( #688 ), #807, .T. ) ;
#547 = LINE ( 'NONE', #3, #154 ) ;
#548 = FACE_OUTER_BOUND ( 'NONE', #743, .T. ) ;
#549 = EDGE_CURVE ( 'NONE', #269, #731, #575, .T. ) ;
#550 = ORIENTED_EDGE ( 'NONE', *, *, #479, .F. ) ;
#551 = ORIENTED_EDGE ( 'NONE', *, *, #565, .T. ) ;
#552 = EDGE_CURVE ( 'NONE', #842, #878, #313, .T. ) ;
#553 = LINE ( 'NONE', #871, #316 ) ;
#554 = ADVANCED_FACE ( 'NONE', ( #328 ), #803, .F. ) ;
#555 = ORIENTED_EDGE ( 'NONE', *, *, #98, .T. ) ;
#556 = ORIENTED_EDGE ( 'NONE', *, *, #830, .F. ) ;
#557 = ORIENTED_EDGE ( 'NONE', *, *, #697, .F. ) ;
#558 = ADVANCED_FACE ( 'NONE', ( #436 ), #285, .F. ) ;
#559 = ORIENTED_EDGE ( 'NONE', *, *, #431, .F. ) ;
#560 = ORIENTED_EDGE ( 'NONE', *, *, #108, .F. ) ;
#561 = MECHANICAL_DESIGN_GEOMETRIC_PRESENTATION_REPRESENTATION (  '', ( #685 ), #624 ) ;
#562 = CARTESIAN_POINT ( 'NONE',  ( 0.5999999999999996447, 0.5999999999999998668, 0.6250000000000000000 ) ) ;
#563 = LINE ( 'NONE', #384, #476 ) ;
#564 = LINE ( 'NONE', #144, #786 ) ;
#565 = EDGE_CURVE ( 'NONE', #581, #20, #430, .T. ) ;
#566 = DIRECTION ( 'NONE',  ( 0.0000000000000000000, -1.000000000000000000, -0.0000000000000000000 ) ) ;
#567 = PRESENTATION_LAYER_ASSIGNMENT (  '', '', ( #382 ) ) ;
#568 = DIRECTION ( 'NONE',  ( 0.0000000000000000000, 1.000000000000000000, 0.0000000000000000000 ) ) ;
#569 = VERTEX_POINT ( 'NONE', #448 ) ;
#570 = DIRECTION ( 'NONE',  ( -1.000000000000000000, 0.0000000000000000000, -0.0000000000000000000 ) ) ;
#571 = CARTESIAN_POINT ( 'NONE',  ( -0.5999999999999996447, 0.5999999999999999778, -0.6250000000000000000 ) ) ;
#572 = CARTESIAN_POINT ( 'NONE',  ( -0.9699999999999996403, 0.5699999999999998401, 0.6250000000000000000 ) ) ;
#573 = CARTESIAN_POINT ( 'NONE',  ( 0.5999999999999996447, 0.5999999999999998668, 0.6250000000000000000 ) ) ;
#574 = CARTESIAN_POINT ( 'NONE',  ( 0.5999999999999996447, 0.0000000000000000000, 0.6250000000000000000 ) ) ;
#575 = LINE ( 'NONE', #291, #175 ) ;
#576 = LINE ( 'NONE', #432, #373 ) ;
#577 = EDGE_CURVE ( 'NONE', #778, #273, #544, .T. ) ;
#578 = ORIENTED_EDGE ( 'NONE', *, *, #953, .F. ) ;
#579 = CARTESIAN_POINT ( 'NONE',  ( 0.5999999999999996447, 0.02999999999999998501, -0.6250000000000000000 ) ) ;
#580 = EDGE_CURVE ( 'NONE', #692, #350, #663, .T. ) ;
#581 = VERTEX_POINT ( 'NONE', #539 ) ;
#582 = CARTESIAN_POINT ( 'NONE',  ( -0.9699999999999996403, 0.02999999999999993991, -0.6250000000000000000 ) ) ;
#583 = APPLICATION_CONTEXT ( 'automotive_design' ) ;
#584 = CARTESIAN_POINT ( 'NONE',  ( 0.9699999999999996403, 0.02999999999999994338, -0.6250000000000001110 ) ) ;
#585 = CARTESIAN_POINT ( 'NONE',  ( 0.9999999999999995559, 0.5999999999999998668, 0.6250000000000000000 ) ) ;
#586 = DIRECTION ( 'NONE',  ( 1.000000000000000000, 0.0000000000000000000, 0.0000000000000000000 ) ) ;
#587 = ORIENTED_EDGE ( 'NONE', *, *, #780, .F. ) ;
#588 = EDGE_LOOP ( 'NONE', ( #45, #499, #357, #130 ) ) ;
#589 = UNCERTAINTY_MEASURE_WITH_UNIT (LENGTH_MEASURE( 1.000000000000000082E-05 ), #686, 'distance_accuracy_value', 'NONE');
#590 = EDGE_CURVE ( 'NONE', #878, #347, #368, .T. ) ;
#591 = CARTESIAN_POINT ( 'NONE',  ( -0.5999999999999996447, 0.0000000000000000000, -0.6250000000000000000 ) ) ;
#592 = DIRECTION ( 'NONE',  ( 1.000000000000000000, 0.0000000000000000000, 0.0000000000000000000 ) ) ;
#593 = CARTESIAN_POINT ( 'NONE',  ( -0.5999999999999996447, 0.5999999999999998668, 0.6250000000000000000 ) ) ;
#594 = VECTOR ( 'NONE', #378, 1000.000000000000000 ) ;
#595 = FACE_OUTER_BOUND ( 'NONE', #469, .T. ) ;
#596 = PLANE ( 'NONE',  #851 ) ;
#597 = PLANE ( 'NONE',  #413 ) ;
#598 = LINE ( 'NONE', #798, #194 ) ;
#599 = CARTESIAN_POINT ( 'NONE',  ( 0.5999999999999996447, 0.0000000000000000000, -0.6250000000000000000 ) ) ;
#600 = FILL_AREA_STYLE ('',( #287 ) ) ;
#601 = CARTESIAN_POINT ( 'NONE',  ( -0.5999999999999996447, 0.5699999999999998401, -0.6250000000000000000 ) ) ;
#602 = DIRECTION ( 'NONE',  ( -1.000000000000000000, 0.0000000000000000000, 0.0000000000000000000 ) ) ;
#603 =( NAMED_UNIT ( * ) PLANE_ANGLE_UNIT ( ) SI_UNIT ( $, .RADIAN. ) );
#604 = DIRECTION ( 'NONE',  ( -0.0000000000000000000, -0.0000000000000000000, -1.000000000000000000 ) ) ;
#605 = VERTEX_POINT ( 'NONE', #599 ) ;
#606 = VECTOR ( 'NONE', #217, 1000.000000000000000 ) ;
#607 = DIRECTION ( 'NONE',  ( 0.0000000000000000000, -1.000000000000000000, 0.0000000000000000000 ) ) ;
#608 = DIRECTION ( 'NONE',  ( -1.000000000000000000, 0.0000000000000000000, 0.0000000000000000000 ) ) ;
#609 = CARTESIAN_POINT ( 'NONE',  ( 0.5999999999999996447, 0.5999999999999998668, -0.6250000000000000000 ) ) ;
#610 = VECTOR ( 'NONE', #889, 1000.000000000000000 ) ;
#611 = CARTESIAN_POINT ( 'NONE',  ( 0.9699999999999996403, 0.5699999999999998401, 0.6250000000000000000 ) ) ;
#612 = VECTOR ( 'NONE', #299, 1000.000000000000000 ) ;
#613 = ORIENTED_EDGE ( 'NONE', *, *, #916, .T. ) ;
#614 = ORIENTED_EDGE ( 'NONE', *, *, #204, .F. ) ;
#615 = DIRECTION ( 'NONE',  ( 9.856383386231858827E-17, 1.000000000000000000, 0.0000000000000000000 ) ) ;
#616 = EDGE_LOOP ( 'NONE', ( #256, #951, #363, #860, #498, #224, #613, #797 ) ) ;
#617 = EDGE_CURVE ( 'NONE', #941, #347, #493, .T. ) ;
#618 = DIRECTION ( 'NONE',  ( 1.000000000000000000, -0.0000000000000000000, -0.0000000000000000000 ) ) ;
#619 = AXIS2_PLACEMENT_3D ( 'NONE', #421, #890, #247 ) ;
#620 = ORIENTED_EDGE ( 'NONE', *, *, #577, .F. ) ;
#621 = ORIENTED_EDGE ( 'NONE', *, *, #33, .F. ) ;
#622 = CARTESIAN_POINT ( 'NONE',  ( -0.9699999999999996403, 0.02999999999999993991, 0.6250000000000000000 ) ) ;
#623 = EDGE_CURVE ( 'NONE', #710, #878, #57, .T. ) ;
#624 =( GEOMETRIC_REPRESENTATION_CONTEXT ( 3 ) GLOBAL_UNCERTAINTY_ASSIGNED_CONTEXT ( ( #37 ) ) GLOBAL_UNIT_ASSIGNED_CONTEXT ( ( #48, #491, #424 ) ) REPRESENTATION_CONTEXT ( 'NONE', 'WORKASPACE' ) );
#625 = LINE ( 'NONE', #760, #232 ) ;
#626 = CARTESIAN_POINT ( 'NONE',  ( -0.9699999999999996403, 0.5699999999999998401, -0.6250000000000000000 ) ) ;
#627 = ORIENTED_EDGE ( 'NONE', *, *, #112, .T. ) ;
#628 = EDGE_LOOP ( 'NONE', ( #259, #556, #620, #683 ) ) ;
#629 = LINE ( 'NONE', #662, #307 ) ;
#630 = EDGE_CURVE ( 'NONE', #645, #569, #887, .T. ) ;
#631 = VECTOR ( 'NONE', #568, 1000.000000000000000 ) ;
#632 = AXIS2_PLACEMENT_3D ( 'NONE', #362, #958, #586 ) ;
#633 = LINE ( 'NONE', #447, #545 ) ;
#634 = ADVANCED_FACE ( 'NONE', ( #220 ), #675, .T. ) ;
#635 = EDGE_CURVE ( 'NONE', #581, #645, #254, .T. ) ;
#636 = ORIENTED_EDGE ( 'NONE', *, *, #330, .F. ) ;
#637 = ADVANCED_FACE ( 'NONE', ( #483 ), #758, .T. ) ;
#638 = VECTOR ( 'NONE', #147, 1000.000000000000000 ) ;
#639 = AXIS2_PLACEMENT_3D ( 'NONE', #271, #125, #274 ) ;
#640 = ORIENTED_EDGE ( 'NONE', *, *, #284, .T. ) ;
#641 = PLANE ( 'NONE',  #639 ) ;
#642 = VERTEX_POINT ( 'NONE', #527 ) ;
#643 = ORIENTED_EDGE ( 'NONE', *, *, #847, .F. ) ;
#644 = LINE ( 'NONE', #8, #326 ) ;
#645 = VERTEX_POINT ( 'NONE', #386 ) ;
#646 = CARTESIAN_POINT ( 'NONE',  ( 0.9699999999999996403, 0.02999999999999994338, 0.6250000000000000000 ) ) ;
#647 = DIRECTION ( 'NONE',  ( -1.000000000000000000, 0.0000000000000000000, 0.0000000000000000000 ) ) ;
#648 = VECTOR ( 'NONE', #70, 1000.000000000000000 ) ;
#649 = LINE ( 'NONE', #309, #714 ) ;
#650 = EDGE_CURVE ( 'NONE', #481, #104, #190, .T. ) ;
#651 = CARTESIAN_POINT ( 'NONE',  ( -0.9699999999999996403, 0.02999999999999993991, -0.6250000000000000000 ) ) ;
#652 = ORIENTED_EDGE ( 'NONE', *, *, #774, .T. ) ;
#653 = DIRECTION ( 'NONE',  ( 3.061616997868382155E-16, 1.000000000000000000, 0.0000000000000000000 ) ) ;
#654 = CARTESIAN_POINT ( 'NONE',  ( 0.5999999999999996447, 0.5699999999999997291, 0.6250000000000000000 ) ) ;
#655 = EDGE_CURVE ( 'NONE', #810, #381, #40, .T. ) ;
#656 = CARTESIAN_POINT ( 'NONE',  ( 0.9999999999999995559, 0.5999999999999998668, 0.6250000000000000000 ) ) ;
#657 = ORIENTED_EDGE ( 'NONE', *, *, #161, .F. ) ;
#658 = DIRECTION ( 'NONE',  ( 0.0000000000000000000, 0.0000000000000000000, 1.000000000000000000 ) ) ;
#659 =( GEOMETRIC_REPRESENTATION_CONTEXT ( 3 ) GLOBAL_UNCERTAINTY_ASSIGNED_CONTEXT ( ( #181 ) ) GLOBAL_UNIT_ASSIGNED_CONTEXT ( ( #494, #943, #216 ) ) REPRESENTATION_CONTEXT ( 'NONE', 'WORKASPACE' ) );
#660 = DIRECTION ( 'NONE',  ( -1.000000000000000000, 0.0000000000000000000, -0.0000000000000000000 ) ) ;
#661 = FACE_OUTER_BOUND ( 'NONE', #25, .T. ) ;
#662 = CARTESIAN_POINT ( 'NONE',  ( 0.9999999999999995559, -1.224646799147352714E-16, 0.6250000000000000000 ) ) ;
#663 = LINE ( 'NONE', #899, #16 ) ;
#664 = ORIENTED_EDGE ( 'NONE', *, *, #502, .T. ) ;
#665 = STYLED_ITEM ( 'NONE', ( #400 ), #514 ) ;
#666 = PLANE ( 'NONE',  #789 ) ;
#667 = ADVANCED_FACE ( 'NONE', ( #27 ), #392, .F. ) ;
#668 = VERTEX_POINT ( 'NONE', #315 ) ;
#669 = SURFACE_STYLE_USAGE ( .BOTH. , #881 ) ;
#670 = CARTESIAN_POINT ( 'NONE',  ( -0.5999999999999998668, 0.5699999999999997291, -0.6250000000000000000 ) ) ;
#671 = DIRECTION ( 'NONE',  ( 9.856383386231858827E-17, 1.000000000000000000, 0.0000000000000000000 ) ) ;
#672 = ORIENTED_EDGE ( 'NONE', *, *, #261, .T. ) ;
#673 = CARTESIAN_POINT ( 'NONE',  ( -0.5999999999999994227, 0.5999999999999999778, 0.6250000000000000000 ) ) ;
#674 = EDGE_CURVE ( 'NONE', #405, #906, #679, .T. ) ;
#675 = PLANE ( 'NONE',  #214 ) ;
#676 = CARTESIAN_POINT ( 'NONE',  ( -0.5999999999999996447, 0.5699999999999998401, 0.6250000000000000000 ) ) ;
#677 = LINE ( 'NONE', #277, #180 ) ;
#678 = DIRECTION ( 'NONE',  ( 0.0000000000000000000, 0.0000000000000000000, 1.000000000000000000 ) ) ;
#679 = LINE ( 'NONE', #24, #859 ) ;
#680 = DIRECTION ( 'NONE',  ( -0.0000000000000000000, 0.0000000000000000000, 1.000000000000000000 ) ) ;
#681 = LINE ( 'NONE', #343, #128 ) ;
#682 = EDGE_LOOP ( 'NONE', ( #235, #898, #352, #551 ) ) ;
#683 = ORIENTED_EDGE ( 'NONE', *, *, #196, .F. ) ;
#684 = CARTESIAN_POINT ( 'NONE',  ( -0.5999999999999996447, 0.0000000000000000000, 0.6250000000000000000 ) ) ;
#685 = STYLED_ITEM ( 'NONE', ( #76 ), #394 ) ;
#686 =( LENGTH_UNIT ( ) NAMED_UNIT ( * ) SI_UNIT ( .MILLI., .METRE. ) );
#687 = CARTESIAN_POINT ( 'NONE',  ( 0.9999999999999995559, 0.5999999999999998668, -0.6250000000000000000 ) ) ;
#688 = FACE_OUTER_BOUND ( 'NONE', #628, .T. ) ;
#689 = PLANE ( 'NONE',  #83 ) ;
#690 = EDGE_LOOP ( 'NONE', ( #61, #103, #750, #475, #311, #816, #67, #664 ) ) ;
#691 = EDGE_CURVE ( 'NONE', #30, #212, #420, .T. ) ;
#692 = VERTEX_POINT ( 'NONE', #318 ) ;
#693 = CARTESIAN_POINT ( 'NONE',  ( -0.9699999999999996403, 0.5699999999999998401, 0.6250000000000000000 ) ) ;
#694 = VECTOR ( 'NONE', #671, 1000.000000000000000 ) ;
#695 = EDGE_LOOP ( 'NONE', ( #338, #897, #35, #131 ) ) ;
#696 = ORIENTED_EDGE ( 'NONE', *, *, #780, .T. ) ;
#697 = EDGE_CURVE ( 'NONE', #329, #319, #149, .T. ) ;
#698 = EDGE_LOOP ( 'NONE', ( #209, #862, #188, #412 ) ) ;
#699 = ORIENTED_EDGE ( 'NONE', *, *, #388, .F. ) ;
#700 = ADVANCED_FACE ( 'NONE', ( #784 ), #164, .F. ) ;
#701 = COLOUR_RGB ( '',0.7921568627450980005, 0.8196078431372548767, 0.9333333333333333481 ) ;
#702 = AXIS2_PLACEMENT_3D ( 'NONE', #206, #592, #366 ) ;
#703 = LINE ( 'NONE', #351, #648 ) ;
#704 = VERTEX_POINT ( 'NONE', #868 ) ;
#705 = ADVANCED_FACE ( 'NONE', ( #101 ), #345, .F. ) ;
#706 = LINE ( 'NONE', #66, #47 ) ;
#707 = VERTEX_POINT ( 'NONE', #720 ) ;
#708 = LINE ( 'NONE', #91, #496 ) ;
#709 = AXIS2_PLACEMENT_3D ( 'NONE', #192, #930, #46 ) ;
#710 = VERTEX_POINT ( 'NONE', #64 ) ;
#711 = ORIENTED_EDGE ( 'NONE', *, *, #52, .T. ) ;
#712 = FACE_OUTER_BOUND ( 'NONE', #160, .T. ) ;
#713 = PRODUCT_RELATED_PRODUCT_CATEGORY ( 'part', '', ( #402 ) ) ;
#714 = VECTOR ( 'NONE', #753, 1000.000000000000000 ) ;
#715 = ORIENTED_EDGE ( 'NONE', *, *, #953, .T. ) ;
#716 = CARTESIAN_POINT ( 'NONE',  ( -0.5999999999999996447, 0.5999999999999998668, 0.6250000000000000000 ) ) ;
#717 = DIRECTION ( 'NONE',  ( 0.0000000000000000000, 0.0000000000000000000, -1.000000000000000000 ) ) ;
#718 = ADVANCED_FACE ( 'NONE', ( #31 ), #492, .T. ) ;
#719 = EDGE_LOOP ( 'NONE', ( #883, #832, #711, #560 ) ) ;
#720 = CARTESIAN_POINT ( 'NONE',  ( -0.9699999999999996403, 0.5699999999999998401, -0.6250000000000000000 ) ) ;
#721 = ORIENTED_EDGE ( 'NONE', *, *, #336, .T. ) ;
#722 = PLANE ( 'NONE',  #221 ) ;
#723 = CARTESIAN_POINT ( 'NONE',  ( -0.5999999999999996447, 0.5699999999999997291, -0.6250000000000000000 ) ) ;
#724 = LINE ( 'NONE', #74, #638 ) ;
#725 = EDGE_CURVE ( 'NONE', #941, #842, #961, .T. ) ;
#726 = VECTOR ( 'NONE', #855, 1000.000000000000000 ) ;
#727 = DIRECTION ( 'NONE',  ( -1.000000000000000000, 1.190424682627665521E-16, 0.0000000000000000000 ) ) ;
#728 = DIRECTION ( 'NONE',  ( 0.0000000000000000000, 0.0000000000000000000, -1.000000000000000000 ) ) ;
#729 = FACE_OUTER_BOUND ( 'NONE', #956, .T. ) ;
#730 = EDGE_LOOP ( 'NONE', ( #304, #22, #672, #555 ) ) ;
#731 = VERTEX_POINT ( 'NONE', #349 ) ;
#732 = SURFACE_STYLE_USAGE ( .BOTH. , #465 ) ;
#733 = SURFACE_STYLE_FILL_AREA ( #827 ) ;
#734 = EDGE_LOOP ( 'NONE', ( #854, #926, #532, #808 ) ) ;
#735 = PRESENTATION_LAYER_ASSIGNMENT (  '', '', ( #665 ) ) ;
#736 = EDGE_LOOP ( 'NONE', ( #427, #425, #308, #410 ) ) ;
#737 = EDGE_CURVE ( 'NONE', #305, #329, #771, .T. ) ;
#738 = DIRECTION ( 'NONE',  ( 0.0000000000000000000, -1.000000000000000000, -0.0000000000000000000 ) ) ;
#739 = DIRECTION ( 'NONE',  ( 0.0000000000000000000, 0.0000000000000000000, -1.000000000000000000 ) ) ;
#740 = CARTESIAN_POINT ( 'NONE',  ( 0.9999999999999995559, -1.224646799147352714E-16, 0.6250000000000000000 ) ) ;
#741 = ORIENTED_EDGE ( 'NONE', *, *, #317, .T. ) ;
#742 = EDGE_CURVE ( 'NONE', #845, #141, #843, .T. ) ;
#743 = EDGE_LOOP ( 'NONE', ( #715, #266, #334, #870 ) ) ;
#744 = CARTESIAN_POINT ( 'NONE',  ( 1.084202172485505174E-16, 0.5999999999999998668, -1.880790961315661108E-32 ) ) ;
#745 = DIRECTION ( 'NONE',  ( 1.000000000000000000, -1.190424682627665521E-16, 0.0000000000000000000 ) ) ;
#746 = DIRECTION ( 'NONE',  ( -0.0000000000000000000, 1.000000000000000000, -0.0000000000000000000 ) ) ;
#747 = VECTOR ( 'NONE', #218, 1000.000000000000000 ) ;
#748 =( NAMED_UNIT ( * ) PLANE_ANGLE_UNIT ( ) SI_UNIT ( $, .RADIAN. ) );
#749 = VERTEX_POINT ( 'NONE', #651 ) ;
#750 = ORIENTED_EDGE ( 'NONE', *, *, #691, .T. ) ;
#751 = LINE ( 'NONE', #310, #111 ) ;
#752 = EDGE_LOOP ( 'NONE', ( #28, #826, #416, #640 ) ) ;
#753 = DIRECTION ( 'NONE',  ( -0.0000000000000000000, -0.0000000000000000000, -1.000000000000000000 ) ) ;
#754 = CARTESIAN_POINT ( 'NONE',  ( -0.9699999999999996403, 0.02999999999999993991, -2.638752715702699092 ) ) ;
#755 = CARTESIAN_POINT ( 'NONE',  ( -0.9999999999999995559, 0.5999999999999998668, 0.6250000000000000000 ) ) ;
#756 = ORIENTED_EDGE ( 'NONE', *, *, #833, .F. ) ;
#757 = VERTEX_POINT ( 'NONE', #864 ) ;
#758 = PLANE ( 'NONE',  #473 ) ;
#759 = DIRECTION ( 'NONE',  ( -0.0000000000000000000, -1.000000000000000000, -0.0000000000000000000 ) ) ;
#760 = CARTESIAN_POINT ( 'NONE',  ( -0.9699999999999996403, 0.5699999999999998401, 0.6250000000000000000 ) ) ;
#761 = CARTESIAN_POINT ( 'NONE',  ( -0.5999999999999994227, 0.5999999999999999778, 0.6250000000000000000 ) ) ;
#762 = SURFACE_STYLE_FILL_AREA ( #458 ) ;
#763 = ORIENTED_EDGE ( 'NONE', *, *, #140, .F. ) ;
#764 = ORIENTED_EDGE ( 'NONE', *, *, #370, .T. ) ;
#765 = CARTESIAN_POINT ( 'NONE',  ( -0.5999999999999996447, 0.0000000000000000000, 0.6250000000000000000 ) ) ;
#766 = LINE ( 'NONE', #755, #910 ) ;
#767 = CARTESIAN_POINT ( 'NONE',  ( 0.9999999999999995559, 0.5999999999999998668, -0.6250000000000000000 ) ) ;
#768 = ORIENTED_EDGE ( 'NONE', *, *, #844, .T. ) ;
#769 = EDGE_LOOP ( 'NONE', ( #911, #627, #721, #393 ) ) ;
#770 = VECTOR ( 'NONE', #935, 1000.000000000000000 ) ;
#771 = LINE ( 'NONE', #791, #631 ) ;
#772 = VECTOR ( 'NONE', #387, 1000.000000000000000 ) ;
#773 = ORIENTED_EDGE ( 'NONE', *, *, #617, .F. ) ;
#774 = EDGE_CURVE ( 'NONE', #569, #749, #202, .T. ) ;
#775 = FACE_OUTER_BOUND ( 'NONE', #719, .T. ) ;
#776 = VECTOR ( 'NONE', #604, 1000.000000000000000 ) ;
#777 = LINE ( 'NONE', #813, #2 ) ;
#778 = VERTEX_POINT ( 'NONE', #584 ) ;
#779 = ADVANCED_FACE ( 'NONE', ( #595 ), #689, .F. ) ;
#780 = EDGE_CURVE ( 'NONE', #141, #710, #563, .T. ) ;
#781 = ADVANCED_FACE ( 'NONE', ( #265 ), #893, .T. ) ;
#782 = AXIS2_PLACEMENT_3D ( 'NONE', #43, #717, #570 ) ;
#783 = DIRECTION ( 'NONE',  ( 0.0000000000000000000, 0.0000000000000000000, 1.000000000000000000 ) ) ;
#784 = FACE_OUTER_BOUND ( 'NONE', #511, .T. ) ;
#785 = CARTESIAN_POINT ( 'NONE',  ( 0.5999999999999996447, 0.02999999999999998501, -0.6250000000000000000 ) ) ;
#786 = VECTOR ( 'NONE', #443, 1000.000000000000000 ) ;
#787 = PLANE ( 'NONE',  #459 ) ;
#788 = CARTESIAN_POINT ( 'NONE',  ( 0.5999999999999996447, 0.02999999999999998501, 0.6250000000000000000 ) ) ;
#789 = AXIS2_PLACEMENT_3D ( 'NONE', #372, #358, #223 ) ;
#790 = DIRECTION ( 'NONE',  ( 9.856383386231858827E-17, 1.000000000000000000, 0.0000000000000000000 ) ) ;
#791 = CARTESIAN_POINT ( 'NONE',  ( 0.5999999999999996447, 0.5999999999999998668, -0.6250000000000000000 ) ) ;
#792 = FACE_OUTER_BOUND ( 'NONE', #294, .T. ) ;
#793 = VECTOR ( 'NONE', #512, 1000.000000000000000 ) ;
#794 = VECTOR ( 'NONE', #490, 1000.000000000000000 ) ;
#795 = DIRECTION ( 'NONE',  ( -0.0000000000000000000, 0.0000000000000000000, -1.000000000000000000 ) ) ;
#796 = ORIENTED_EDGE ( 'NONE', *, *, #856, .T. ) ;
#797 = ORIENTED_EDGE ( 'NONE', *, *, #516, .T. ) ;
#798 = CARTESIAN_POINT ( 'NONE',  ( 0.5999999999999996447, 0.0000000000000000000, 0.6250000000000000000 ) ) ;
#799 = EDGE_CURVE ( 'NONE', #530, #463, #914, .T. ) ;
#800 = DIRECTION ( 'NONE',  ( 1.000000000000000000, 1.746459685060413992E-18, 0.0000000000000000000 ) ) ;
#801 = ORIENTED_EDGE ( 'NONE', *, *, #261, .F. ) ;
#802 = VERTEX_POINT ( 'NONE', #377 ) ;
#803 = PLANE ( 'NONE',  #17 ) ;
#804 = PLANE ( 'NONE',  #278 ) ;
#805 = DIRECTION ( 'NONE',  ( 0.0000000000000000000, -0.0000000000000000000, -1.000000000000000000 ) ) ;
#806 = LINE ( 'NONE', #127, #117 ) ;
#807 = PLANE ( 'NONE',  #23 ) ;
#808 = ORIENTED_EDGE ( 'NONE', *, *, #674, .T. ) ;
#809 = AXIS2_PLACEMENT_3D ( 'NONE', #593, #151, #658 ) ;
#810 = VERTEX_POINT ( 'NONE', #611 ) ;
#811 = DIRECTION ( 'NONE',  ( 1.000000000000000000, 0.0000000000000000000, 0.0000000000000000000 ) ) ;
#812 = DIRECTION ( 'NONE',  ( 1.000000000000000000, 1.190424682627665521E-16, 0.0000000000000000000 ) ) ;
#813 = CARTESIAN_POINT ( 'NONE',  ( 0.5999999999999996447, 0.5999999999999998668, 0.6250000000000000000 ) ) ;
#814 = EDGE_CURVE ( 'NONE', #212, #707, #625, .T. ) ;
#815 = CARTESIAN_POINT ( 'NONE',  ( -0.5999999999999996447, 0.02999999999999998501, 0.6250000000000000000 ) ) ;
#816 = ORIENTED_EDGE ( 'NONE', *, *, #799, .T. ) ;
#817 = DIRECTION ( 'NONE',  ( 0.0000000000000000000, 0.0000000000000000000, 1.000000000000000000 ) ) ;
#818 = CARTESIAN_POINT ( 'NONE',  ( -0.9699999999999996403, 0.02999999999999993991, 0.6250000000000000000 ) ) ;
#819 = DIRECTION ( 'NONE',  ( 1.000000000000000000, 0.0000000000000000000, 0.0000000000000000000 ) ) ;
#820 = CARTESIAN_POINT ( 'NONE',  ( -0.9699999999999996403, 0.02999999999999993991, -2.638752715702699092 ) ) ;
#821 = VECTOR ( 'NONE', #453, 1000.000000000000000 ) ;
#822 = EDGE_CURVE ( 'NONE', #320, #810, #471, .T. ) ;
#823 = LINE ( 'NONE', #121, #19 ) ;
#824 = DIRECTION ( 'NONE',  ( 1.746459685060413992E-18, -1.000000000000000000, 0.0000000000000000000 ) ) ;
#825 = AXIS2_PLACEMENT_3D ( 'NONE', #829, #18, #817 ) ;
#826 = ORIENTED_EDGE ( 'NONE', *, *, #418, .F. ) ;
#827 = FILL_AREA_STYLE ('',( #234 ) ) ;
#828 = DIRECTION ( 'NONE',  ( -0.0000000000000000000, -0.0000000000000000000, -1.000000000000000000 ) ) ;
#829 = CARTESIAN_POINT ( 'NONE',  ( -0.9699999999999996403, 0.02999999999999993991, -2.638752715702699092 ) ) ;
#830 = EDGE_CURVE ( 'NONE', #273, #757, #837, .T. ) ;
#831 = CLOSED_SHELL ( 'NONE', ( #546, #49, #637, #718, #487, #327 ) ) ;
#832 = ORIENTED_EDGE ( 'NONE', *, *, #830, .T. ) ;
#833 = EDGE_CURVE ( 'NONE', #198, #530, #406, .T. ) ;
#834 = APPLICATION_PROTOCOL_DEFINITION ( 'draft international standard', 'automotive_design', 1998, #583 ) ;
#835 = UNCERTAINTY_MEASURE_WITH_UNIT (LENGTH_MEASURE( 1.000000000000000082E-05 ), #80, 'distance_accuracy_value', 'NONE');
#836 = PRODUCT_DEFINITION_CONTEXT ( 'detailed design', #583, 'design' ) ;
#837 = LINE ( 'NONE', #959, #793 ) ;
#838 = ORIENTED_EDGE ( 'NONE', *, *, #552, .F. ) ;
#839 = EDGE_CURVE ( 'NONE', #133, #692, #724, .T. ) ;
#840 = ORIENTED_EDGE ( 'NONE', *, *, #284, .F. ) ;
#841 = VECTOR ( 'NONE', #238, 1000.000000000000000 ) ;
#842 = VERTEX_POINT ( 'NONE', #670 ) ;
#843 = LINE ( 'NONE', #497, #415 ) ;
#844 = EDGE_CURVE ( 'NONE', #104, #20, #276, .T. ) ;
#845 = VERTEX_POINT ( 'NONE', #654 ) ;
#846 = ORIENTED_EDGE ( 'NONE', *, *, #549, .T. ) ;
#847 = EDGE_CURVE ( 'NONE', #731, #481, #703, .T. ) ;
#848 = STYLED_ITEM ( 'NONE', ( #69 ), #178 ) ;
#849 = VECTOR ( 'NONE', #533, 1000.000000000000000 ) ;
#850 = ORIENTED_EDGE ( 'NONE', *, *, #140, .T. ) ;
#851 = AXIS2_PLACEMENT_3D ( 'NONE', #297, #680, #819 ) ;
#852 = CARTESIAN_POINT ( 'NONE',  ( -0.5999999999999996447, 0.0000000000000000000, -0.6250000000000000000 ) ) ;
#853 = DIRECTION ( 'NONE',  ( 0.0000000000000000000, -0.0000000000000000000, -1.000000000000000000 ) ) ;
#854 = ORIENTED_EDGE ( 'NONE', *, *, #5, .F. ) ;
#855 = DIRECTION ( 'NONE',  ( 0.0000000000000000000, 1.000000000000000000, 0.0000000000000000000 ) ) ;
#856 = EDGE_CURVE ( 'NONE', #183, #869, #437, .T. ) ;
#857 = SURFACE_STYLE_FILL_AREA ( #508 ) ;
#858 = DIRECTION ( 'NONE',  ( -0.0000000000000000000, -0.0000000000000000000, -1.000000000000000000 ) ) ;
#859 = VECTOR ( 'NONE', #100, 1000.000000000000000 ) ;
#860 = ORIENTED_EDGE ( 'NONE', *, *, #431, .T. ) ;
#861 = VERTEX_POINT ( 'NONE', #740 ) ;
#862 = ORIENTED_EDGE ( 'NONE', *, *, #580, .T. ) ;
#863 = ORIENTED_EDGE ( 'NONE', *, *, #317, .F. ) ;
#864 = CARTESIAN_POINT ( 'NONE',  ( -0.9699999999999996403, 0.5699999999999998401, -0.6250000000000001110 ) ) ;
#865 = ORIENTED_EDGE ( 'NONE', *, *, #674, .F. ) ;
#866 = EDGE_CURVE ( 'NONE', #212, #198, #806, .T. ) ;
#867 = DIRECTION ( 'NONE',  ( 1.000000000000000000, -0.0000000000000000000, -0.0000000000000000000 ) ) ;
#868 = CARTESIAN_POINT ( 'NONE',  ( 0.9999999999999995559, -1.224646799147352714E-16, -0.6250000000000000000 ) ) ;
#869 = VERTEX_POINT ( 'NONE', #585 ) ;
#870 = ORIENTED_EDGE ( 'NONE', *, *, #814, .T. ) ;
#871 = CARTESIAN_POINT ( 'NONE',  ( -0.9699999999999996403, 0.02999999999999993991, -0.6250000000000001110 ) ) ;
#872 = ADVANCED_FACE ( 'NONE', ( #344 ), #804, .F. ) ;
#873 = EDGE_CURVE ( 'NONE', #30, #749, #106, .T. ) ;
#874 = FACE_OUTER_BOUND ( 'NONE', #286, .T. ) ;
#875 = CARTESIAN_POINT ( 'NONE',  ( 0.9999999999999995559, -1.224646799147352714E-16, -0.6250000000000000000 ) ) ;
#876 = LINE ( 'NONE', #960, #520 ) ;
#877 = ADVANCED_FACE ( 'NONE', ( #874 ), #293, .T. ) ;
#878 = VERTEX_POINT ( 'NONE', #571 ) ;
#879 = CARTESIAN_POINT ( 'NONE',  ( 0.9699999999999996403, 0.02999999999999993991, -0.6250000000000000000 ) ) ;
#880 = MECHANICAL_DESIGN_GEOMETRIC_PRESENTATION_REPRESENTATION (  '', ( #945 ), #929 ) ;
#881 = SURFACE_SIDE_STYLE ('',( #857 ) ) ;
#882 = CARTESIAN_POINT ( 'NONE',  ( 0.5999999999999996447, 0.5699999999999998401, -0.6250000000000000000 ) ) ;
#883 = ORIENTED_EDGE ( 'NONE', *, *, #15, .F. ) ;
#884 = ORIENTED_EDGE ( 'NONE', *, *, #844, .F. ) ;
#885 = CARTESIAN_POINT ( 'NONE',  ( -0.5999999999999996447, 0.02999999999999998501, -0.6250000000000000000 ) ) ;
#886 = DIRECTION ( 'NONE',  ( 1.190424682627665521E-16, -1.000000000000000000, 0.0000000000000000000 ) ) ;
#887 = LINE ( 'NONE', #815, #85 ) ;
#888 = CARTESIAN_POINT ( 'NONE',  ( 0.5999999999999996447, 0.0000000000000000000, -0.6250000000000000000 ) ) ;
#889 = DIRECTION ( 'NONE',  ( 0.0000000000000000000, 1.000000000000000000, 0.0000000000000000000 ) ) ;
#890 = DIRECTION ( 'NONE',  ( 0.0000000000000000000, 0.0000000000000000000, 1.000000000000000000 ) ) ;
#891 = CARTESIAN_POINT ( 'NONE',  ( 0.9699999999999996403, 0.02999999999999994338, 0.6250000000000000000 ) ) ;
#892 = COLOUR_RGB ( '',0.2509803921568627416, 0.2509803921568627416, 0.2509803921568627416 ) ;
#893 = PLANE ( 'NONE',  #449 ) ;
#894 = DIRECTION ( 'NONE',  ( 1.000000000000000000, -1.807003620809175618E-16, 0.0000000000000000000 ) ) ;
#895 = PLANE ( 'NONE',  #122 ) ;
#896 = FACE_OUTER_BOUND ( 'NONE', #769, .T. ) ;
#897 = ORIENTED_EDGE ( 'NONE', *, *, #577, .T. ) ;
#898 = ORIENTED_EDGE ( 'NONE', *, *, #630, .F. ) ;
#899 = CARTESIAN_POINT ( 'NONE',  ( -0.9699999999999996403, 0.02999999999999993991, 0.6250000000000000000 ) ) ;
#900 = DIRECTION ( 'NONE',  ( 0.0000000000000000000, -0.0000000000000000000, -1.000000000000000000 ) ) ;
#901 = DIRECTION ( 'NONE',  ( 0.0000000000000000000, 1.000000000000000000, 0.0000000000000000000 ) ) ;
#902 = AXIS2_PLACEMENT_3D ( 'NONE', #227, #236, #239 ) ;
#903 = CARTESIAN_POINT ( 'NONE',  ( 0.9999999999999995559, 0.5999999999999998668, 0.6250000000000000000 ) ) ;
#904 = ORIENTED_EDGE ( 'NONE', *, *, #623, .T. ) ;
#905 = DIRECTION ( 'NONE',  ( 1.000000000000000000, -0.0000000000000000000, 0.0000000000000000000 ) ) ;
#906 = VERTEX_POINT ( 'NONE', #579 ) ;
#907 = CARTESIAN_POINT ( 'NONE',  ( 0.5999999999999996447, 0.5999999999999997558, 0.6250000000000000000 ) ) ;
#908 = UNCERTAINTY_MEASURE_WITH_UNIT (LENGTH_MEASURE( 1.000000000000000082E-05 ), #97, 'distance_accuracy_value', 'NONE');
#909 = LINE ( 'NONE', #365, #170 ) ;
#910 = VECTOR ( 'NONE', #858, 1000.000000000000000 ) ;
#911 = ORIENTED_EDGE ( 'NONE', *, *, #52, .F. ) ;
#912 = FILL_AREA_STYLE_COLOUR ( '', #913 ) ;
#913 = COLOUR_RGB ( '',0.7921568627450980005, 0.8196078431372548767, 0.9333333333333333481 ) ;
#914 = LINE ( 'NONE', #86, #245 ) ;
#915 = VERTEX_POINT ( 'NONE', #129 ) ;
#916 = EDGE_CURVE ( 'NONE', #319, #704, #244, .T. ) ;
#917 = CLOSED_SHELL ( 'NONE', ( #62, #507, #779, #433, #187, #120, #924, #667, #258, #781 ) ) ;
#918 = ORIENTED_EDGE ( 'NONE', *, *, #590, .T. ) ;
#919 = ORIENTED_EDGE ( 'NONE', *, *, #535, .T. ) ;
#920 = VECTOR ( 'NONE', #745, 1000.000000000000000 ) ;
#921 = VECTOR ( 'NONE', #853, 1000.000000000000000 ) ;
#922 = EDGE_CURVE ( 'NONE', #869, #319, #677, .T. ) ;
#923 = VECTOR ( 'NONE', #341, 1000.000000000000000 ) ;
#924 = ADVANCED_FACE ( 'NONE', ( #712 ), #210, .F. ) ;
#925 = MANIFOLD_SOLID_BREP ( 'Boss-Extrude1', #917 ) ;
#926 = ORIENTED_EDGE ( 'NONE', *, *, #60, .F. ) ;
#927 = ORIENTED_EDGE ( 'NONE', *, *, #535, .F. ) ;
#928 = PLANE ( 'NONE',  #782 ) ;
#929 =( GEOMETRIC_REPRESENTATION_CONTEXT ( 3 ) GLOBAL_UNCERTAINTY_ASSIGNED_CONTEXT ( ( #908 ) ) GLOBAL_UNIT_ASSIGNED_CONTEXT ( ( #97, #748, #87 ) ) REPRESENTATION_CONTEXT ( 'NONE', 'WORKASPACE' ) );
#930 = DIRECTION ( 'NONE',  ( 0.0000000000000000000, 1.000000000000000000, 0.0000000000000000000 ) ) ;
#931 = VECTOR ( 'NONE', #867, 1000.000000000000000 ) ;
#932 = CARTESIAN_POINT ( 'NONE',  ( 0.9699999999999996403, 0.5699999999999998401, -2.638752715702699092 ) ) ;
#933 = VECTOR ( 'NONE', #607, 1000.000000000000000 ) ;
#934 = DIRECTION ( 'NONE',  ( 1.000000000000000000, 0.0000000000000000000, -0.0000000000000000000 ) ) ;
#935 = DIRECTION ( 'NONE',  ( 1.000000000000000000, 0.0000000000000000000, 0.0000000000000000000 ) ) ;
#936 = ORIENTED_EDGE ( 'NONE', *, *, #426, .T. ) ;
#937 = AXIS2_PLACEMENT_3D ( 'NONE', #903, #340, #795 ) ;
#938 = DIRECTION ( 'NONE',  ( 0.0000000000000000000, 0.0000000000000000000, -1.000000000000000000 ) ) ;
#939 = DIRECTION ( 'NONE',  ( 1.000000000000000000, 0.0000000000000000000, 0.0000000000000000000 ) ) ;
#940 = APPLICATION_CONTEXT ( 'automotive_design' ) ;
#941 = VERTEX_POINT ( 'NONE', #7 ) ;
#942 = ORIENTED_EDGE ( 'NONE', *, *, #580, .F. ) ;
#943 =( NAMED_UNIT ( * ) PLANE_ANGLE_UNIT ( ) SI_UNIT ( $, .RADIAN. ) );
#944 = CARTESIAN_POINT ( 'NONE',  ( -0.9699999999999996403, 0.02999999999999993991, 0.6250000000000000000 ) ) ;
#945 = STYLED_ITEM ( 'NONE', ( #407 ), #168 ) ;
#946 = PRESENTATION_STYLE_ASSIGNMENT (( #158 ) ) ;
#947 = DIRECTION ( 'NONE',  ( 0.0000000000000000000, 0.0000000000000000000, 1.000000000000000000 ) ) ;
#948 = DIRECTION ( 'NONE',  ( 0.0000000000000000000, -0.0000000000000000000, 1.000000000000000000 ) ) ;
#949 =( LENGTH_UNIT ( ) NAMED_UNIT ( * ) SI_UNIT ( .MILLI., .METRE. ) );
#950 = DIRECTION ( 'NONE',  ( -1.000000000000000000, 0.0000000000000000000, -0.0000000000000000000 ) ) ;
#951 = ORIENTED_EDGE ( 'NONE', *, *, #542, .T. ) ;
#952 = DIRECTION ( 'NONE',  ( 1.000000000000000000, -1.190424682627665521E-16, 0.0000000000000000000 ) ) ;
#953 = EDGE_CURVE ( 'NONE', #707, #269, #263, .T. ) ;
#954 = PLANE ( 'NONE',  #528 ) ;
#955 = PRODUCT_DEFINITION ( 'UNKNOWN', '', #337, #836 ) ;
#956 = EDGE_LOOP ( 'NONE', ( #484, #283, #621, #339, #657, #110, #93, #123 ) ) ;
#957 = DIRECTION ( 'NONE',  ( 1.000000000000000000, 3.061616997868382155E-16, -0.0000000000000000000 ) ) ;
#958 = DIRECTION ( 'NONE',  ( 0.0000000000000000000, 0.0000000000000000000, -1.000000000000000000 ) ) ;
#959 = CARTESIAN_POINT ( 'NONE',  ( -0.9699999999999996403, 0.5699999999999998401, -0.6250000000000001110 ) ) ;
#960 = CARTESIAN_POINT ( 'NONE',  ( 0.5999999999999996447, 0.5699999999999998401, 0.6250000000000000000 ) ) ;
#961 = LINE ( 'NONE', #723, #300 ) ;
ENDSEC;
END-ISO-10303-21;
