ISO-10303-21;
HEADER;
FILE_DESCRIPTION (( 'STEP AP214' ),
    '1' );
FILE_NAME ('User Library-CR2012-0805.STEP',
    '2022-04-29T00:57:12',
    ( '' ),
    ( '' ),
    'SwSTEP 2.0',
    'SolidWorks 2021',
    '' );
FILE_SCHEMA (( 'AUTOMOTIVE_DESIGN' ));
ENDSEC;

DATA;
#1 = DIRECTION ( 'NONE',  ( -1.734723475976806848E-16, -0.0000000000000000000, 1.000000000000000000 ) ) ;
#2 = EDGE_LOOP ( 'NONE', ( #516, #1220, #90, #257 ) ) ;
#3 = FACE_OUTER_BOUND ( 'NONE', #215, .T. ) ;
#4 = LINE ( 'NONE', #387, #86 ) ;
#5 = DIRECTION ( 'NONE',  ( 2.710505431213760592E-16, 1.000000000000000000, 0.0000000000000000000 ) ) ;
#6 = PLANE ( 'NONE',  #1096 ) ;
#7 = EDGE_CURVE ( 'NONE', #242, #370, #649, .T. ) ;
#8 = VERTEX_POINT ( 'NONE', #933 ) ;
#9 = VECTOR ( 'NONE', #512, 1000.000000000000000 ) ;
#10 = PLANE ( 'NONE',  #248 ) ;
#11 = VECTOR ( 'NONE', #431, 1000.000000000000000 ) ;
#12 = PRESENTATION_LAYER_ASSIGNMENT (  '', '', ( #745 ) ) ;
#13 = CARTESIAN_POINT ( 'NONE',  ( -0.9500000000000002887, 0.5500000000000001554, -0.6249999999999998890 ) ) ;
#14 = VECTOR ( 'NONE', #186, 1000.000000000000000 ) ;
#15 = ORIENTED_EDGE ( 'NONE', *, *, #183, .T. ) ;
#16 = CARTESIAN_POINT ( 'NONE',  ( 1.000000000000000666, 0.6000000000000004219, 0.6250000000000000000 ) ) ;
#17 = ORIENTED_EDGE ( 'NONE', *, *, #605, .F. ) ;
#18 = ORIENTED_EDGE ( 'NONE', *, *, #1213, .F. ) ;
#19 = DIRECTION ( 'NONE',  ( 6.505213034913025618E-16, -2.233439266562345827E-31, 1.000000000000000000 ) ) ;
#20 =( LENGTH_UNIT ( ) NAMED_UNIT ( * ) SI_UNIT ( .MILLI., .METRE. ) );
#21 = SURFACE_SIDE_STYLE ('',( #974 ) ) ;
#22 = ORIENTED_EDGE ( 'NONE', *, *, #411, .T. ) ;
#23 = CARTESIAN_POINT ( 'NONE',  ( -0.9500000000000002887, 0.5500000000000000444, -0.6249999999999998890 ) ) ;
#24 = CARTESIAN_POINT ( 'NONE',  ( -0.6000000000000001998, 0.5500000000000000444, 0.6250000000000002220 ) ) ;
#25 = ADVANCED_FACE ( 'NONE', ( #462 ), #1018, .F. ) ;
#26 = DIRECTION ( 'NONE',  ( 0.0000000000000000000, 0.0000000000000000000, 1.000000000000000000 ) ) ;
#27 = VERTEX_POINT ( 'NONE', #1029 ) ;
#28 = VECTOR ( 'NONE', #549, 1000.000000000000000 ) ;
#29 = VECTOR ( 'NONE', #260, 1000.000000000000000 ) ;
#30 = DIRECTION ( 'NONE',  ( -0.0000000000000000000, -1.000000000000000000, -0.0000000000000000000 ) ) ;
#31 = CARTESIAN_POINT ( 'NONE',  ( -0.9500000000000002887, 0.5500000000000001554, -0.6249999999999998890 ) ) ;
#32 = ADVANCED_FACE ( 'NONE', ( #942 ), #69, .T. ) ;
#33 = CARTESIAN_POINT ( 'NONE',  ( 0.6000000000000003109, 0.5999999999999999778, 0.6250000000000004441 ) ) ;
#34 = DIRECTION ( 'NONE',  ( 4.017254365419974609E-16, 0.0000000000000000000, 1.000000000000000000 ) ) ;
#35 = EDGE_CURVE ( 'NONE', #926, #319, #288, .T. ) ;
#36 = VERTEX_POINT ( 'NONE', #1198 ) ;
#37 = LINE ( 'NONE', #135, #9 ) ;
#38 = EDGE_LOOP ( 'NONE', ( #1038, #732, #759, #921 ) ) ;
#39 = EDGE_CURVE ( 'NONE', #855, #712, #730, .T. ) ;
#40 = ORIENTED_EDGE ( 'NONE', *, *, #283, .T. ) ;
#41 = CARTESIAN_POINT ( 'NONE',  ( 0.9499999999999996225, 0.5500000000000000444, 0.6250000000000001110 ) ) ;
#42 = LINE ( 'NONE', #426, #269 ) ;
#43 = ORIENTED_EDGE ( 'NONE', *, *, #411, .F. ) ;
#44 = AXIS2_PLACEMENT_3D ( 'NONE', #85, #279, #543 ) ;
#45 = EDGE_CURVE ( 'NONE', #796, #497, #570, .T. ) ;
#46 = VERTEX_POINT ( 'NONE', #1110 ) ;
#47 = VECTOR ( 'NONE', #1131, 1000.000000000000000 ) ;
#48 = CARTESIAN_POINT ( 'NONE',  ( -0.6000000000000001998, 0.04999999999999996808, -0.6249999999999998890 ) ) ;
#49 = DIRECTION ( 'NONE',  ( 0.0000000000000000000, 0.0000000000000000000, -1.000000000000000000 ) ) ;
#50 = ORIENTED_EDGE ( 'NONE', *, *, #443, .T. ) ;
#51 = CARTESIAN_POINT ( 'NONE',  ( -0.9500000000000000666, 0.5500000000000000444, 0.6250000000000003331 ) ) ;
#52 = ORIENTED_EDGE ( 'NONE', *, *, #878, .T. ) ;
#53 = CARTESIAN_POINT ( 'NONE',  ( -0.8500000000000001998, -0.001000000000000132727, -0.6249999999999998890 ) ) ;
#54 = EDGE_CURVE ( 'NONE', #8, #263, #267, .T. ) ;
#55 = VERTEX_POINT ( 'NONE', #1155 ) ;
#56 = DIRECTION ( 'NONE',  ( 2.710505431213760592E-16, 1.000000000000000000, 4.701977403289148390E-32 ) ) ;
#57 = ORIENTED_EDGE ( 'NONE', *, *, #399, .T. ) ;
#58 = CARTESIAN_POINT ( 'NONE',  ( -0.6000000000000001998, 0.02500000000000002567, 0.0000000000000000000 ) ) ;
#59 = ADVANCED_FACE ( 'NONE', ( #412 ), #1145, .F. ) ;
#60 =( NAMED_UNIT ( * ) PLANE_ANGLE_UNIT ( ) SI_UNIT ( $, .RADIAN. ) );
#61 = ORIENTED_EDGE ( 'NONE', *, *, #564, .F. ) ;
#62 = CARTESIAN_POINT ( 'NONE',  ( 0.8499999999999997558, -0.001000000000000566408, -0.4749999999999999778 ) ) ;
#63 = EDGE_LOOP ( 'NONE', ( #532, #1082, #561, #156 ) ) ;
#64 = VECTOR ( 'NONE', #325, 1000.000000000000000 ) ;
#65 = AXIS2_PLACEMENT_3D ( 'NONE', #821, #1091, #142 ) ;
#66 = CARTESIAN_POINT ( 'NONE',  ( -0.6000000000000001998, -0.001000000000000241147, -0.4749999999999998113 ) ) ;
#67 = PRESENTATION_STYLE_ASSIGNMENT (( #728 ) ) ;
#68 = DIRECTION ( 'NONE',  ( 4.949449898199115069E-31, 1.000000000000000000, 2.168404344971012812E-15 ) ) ;
#69 = PLANE ( 'NONE',  #123 ) ;
#70 = FACE_OUTER_BOUND ( 'NONE', #644, .T. ) ;
#71 = EDGE_CURVE ( 'NONE', #278, #254, #326, .T. ) ;
#72 = ORIENTED_EDGE ( 'NONE', *, *, #491, .F. ) ;
#73 = FACE_OUTER_BOUND ( 'NONE', #577, .T. ) ;
#74 = LINE ( 'NONE', #1036, #622 ) ;
#75 = ORIENTED_EDGE ( 'NONE', *, *, #711, .F. ) ;
#76 = LINE ( 'NONE', #388, #486 ) ;
#77 = ORIENTED_EDGE ( 'NONE', *, *, #1224, .F. ) ;
#78 = EDGE_CURVE ( 'NONE', #1090, #8, #437, .T. ) ;
#79 = FILL_AREA_STYLE ('',( #460 ) ) ;
#80 = SURFACE_STYLE_FILL_AREA ( #919 ) ;
#81 = LINE ( 'NONE', #550, #1217 ) ;
#82 = ORIENTED_EDGE ( 'NONE', *, *, #291, .T. ) ;
#83 = CARTESIAN_POINT ( 'NONE',  ( -0.8500000000000003109, 0.5500000000000001554, 0.6250000000000003331 ) ) ;
#84 = EDGE_LOOP ( 'NONE', ( #270, #904, #379, #75, #611, #976, #485, #478 ) ) ;
#85 = CARTESIAN_POINT ( 'NONE',  ( -0.9500000000000002887, 0.04999999999999991257, -0.6249999999999998890 ) ) ;
#86 = VECTOR ( 'NONE', #1044, 1000.000000000000000 ) ;
#87 = VECTOR ( 'NONE', #533, 1000.000000000000000 ) ;
#88 = CARTESIAN_POINT ( 'NONE',  ( -0.6000000000000001998, 0.3000000000000001554, 0.6249999999999995559 ) ) ;
#89 = LINE ( 'NONE', #472, #47 ) ;
#90 = ORIENTED_EDGE ( 'NONE', *, *, #39, .T. ) ;
#91 = DIRECTION ( 'NONE',  ( -1.000000000000000000, 2.710505431213760592E-16, 0.0000000000000000000 ) ) ;
#92 = ORIENTED_EDGE ( 'NONE', *, *, #438, .T. ) ;
#93 = DIRECTION ( 'NONE',  ( 1.000000000000000000, -3.761581922631326594E-31, 0.0000000000000000000 ) ) ;
#94 = DIRECTION ( 'NONE',  ( 0.0000000000000000000, -1.000000000000000000, 0.0000000000000000000 ) ) ;
#95 = EDGE_CURVE ( 'NONE', #475, #46, #716, .T. ) ;
#96 = DIRECTION ( 'NONE',  ( 1.000000000000000000, 0.0000000000000000000, 1.734723475976807587E-16 ) ) ;
#97 = ORIENTED_EDGE ( 'NONE', *, *, #1072, .T. ) ;
#98 = DIRECTION ( 'NONE',  ( -0.0000000000000000000, -0.0000000000000000000, 1.000000000000000000 ) ) ;
#99 = VERTEX_POINT ( 'NONE', #813 ) ;
#100 = CARTESIAN_POINT ( 'NONE',  ( 0.6000000000000000888, 0.5500000000000000444, 0.4750000000000002554 ) ) ;
#101 = CARTESIAN_POINT ( 'NONE',  ( -1.000000000000000444, 0.6000000000000004219, 0.6250000000000002220 ) ) ;
#102 = DIRECTION ( 'NONE',  ( -1.000000000000000000, 0.0000000000000000000, -2.168404344971008868E-16 ) ) ;
#103 = PLANE ( 'NONE',  #770 ) ;
#104 = ORIENTED_EDGE ( 'NONE', *, *, #1072, .F. ) ;
#105 = VECTOR ( 'NONE', #236, 1000.000000000000000 ) ;
#106 = CARTESIAN_POINT ( 'NONE',  ( -2.225999600319681360, 0.6000000000000004219, 0.6250000000000002220 ) ) ;
#107 = VECTOR ( 'NONE', #1153, 1000.000000000000000 ) ;
#108 = DIRECTION ( 'NONE',  ( 0.0000000000000000000, 1.000000000000000000, 0.0000000000000000000 ) ) ;
#109 = VECTOR ( 'NONE', #984, 1000.000000000000000 ) ;
#110 = AXIS2_PLACEMENT_3D ( 'NONE', #557, #633, #1009 ) ;
#111 = ORIENTED_EDGE ( 'NONE', *, *, #7, .F. ) ;
#112 = EDGE_CURVE ( 'NONE', #994, #915, #42, .T. ) ;
#113 = LINE ( 'NONE', #686, #295 ) ;
#114 = DIRECTION ( 'NONE',  ( 2.168404344971008868E-16, -1.175494350822288192E-32, -1.000000000000000000 ) ) ;
#115 = CARTESIAN_POINT ( 'NONE',  ( -0.6000000000000000888, 0.5500000000000000444, -0.4749999999999998113 ) ) ;
#116 = ORIENTED_EDGE ( 'NONE', *, *, #681, .T. ) ;
#117 = EDGE_CURVE ( 'NONE', #627, #691, #337, .T. ) ;
#118 = CARTESIAN_POINT ( 'NONE',  ( -2.225999600319680916, 0.5500000000000004885, -0.6249999999999998890 ) ) ;
#119 = CARTESIAN_POINT ( 'NONE',  ( -0.8500000000000003109, 0.5500000000000001554, 0.6250000000000003331 ) ) ;
#120 = EDGE_LOOP ( 'NONE', ( #667, #880, #804, #1173 ) ) ;
#121 = CARTESIAN_POINT ( 'NONE',  ( 0.9499999999999996225, 0.5500000000000000444, 0.6250000000000001110 ) ) ;
#122 = PLANE ( 'NONE',  #1094 ) ;
#123 = AXIS2_PLACEMENT_3D ( 'NONE', #473, #834, #451 ) ;
#124 = EDGE_CURVE ( 'NONE', #691, #1065, #907, .T. ) ;
#125 = AXIS2_PLACEMENT_3D ( 'NONE', #320, #19, #953 ) ;
#126 = CARTESIAN_POINT ( 'NONE',  ( 1.000000000000000444, 0.0000000000000000000, 0.6250000000000000000 ) ) ;
#127 = VECTOR ( 'NONE', #598, 1000.000000000000000 ) ;
#128 = ORIENTED_EDGE ( 'NONE', *, *, #761, .T. ) ;
#129 = DIRECTION ( 'NONE',  ( 2.710505431213760592E-16, 1.000000000000000000, 4.701977403289148390E-32 ) ) ;
#130 = ADVANCED_FACE ( 'NONE', ( #1190 ), #525, .F. ) ;
#131 = DIRECTION ( 'NONE',  ( -3.761581922631327032E-31, 1.000000000000000000, -6.525304467998537167E-47 ) ) ;
#132 = ORIENTED_EDGE ( 'NONE', *, *, #892, .F. ) ;
#133 = ORIENTED_EDGE ( 'NONE', *, *, #491, .T. ) ;
#134 = CARTESIAN_POINT ( 'NONE',  ( -0.9500000000000002887, 0.04999999999999996808, -0.6249999999999998890 ) ) ;
#135 = CARTESIAN_POINT ( 'NONE',  ( 0.8499999999999999778, -0.001000000000000566408, 0.6250000000000003331 ) ) ;
#136 = ORIENTED_EDGE ( 'NONE', *, *, #1049, .F. ) ;
#137 = VERTEX_POINT ( 'NONE', #985 ) ;
#138 = LINE ( 'NONE', #517, #702 ) ;
#139 = CARTESIAN_POINT ( 'NONE',  ( 2.225999600319681360, 0.6000000000000004219, 0.6249999999999996669 ) ) ;
#140 = VECTOR ( 'NONE', #799, 1000.000000000000000 ) ;
#141 = ORIENTED_EDGE ( 'NONE', *, *, #256, .F. ) ;
#142 = DIRECTION ( 'NONE',  ( -1.000000000000000000, 0.0000000000000000000, 2.282530889443167515E-16 ) ) ;
#143 = VECTOR ( 'NONE', #1124, 1000.000000000000000 ) ;
#144 = VECTOR ( 'NONE', #1, 1000.000000000000000 ) ;
#145 = EDGE_LOOP ( 'NONE', ( #349, #1006, #1004, #983 ) ) ;
#146 = EDGE_CURVE ( 'NONE', #27, #319, #891, .T. ) ;
#147 = PRESENTATION_LAYER_ASSIGNMENT (  '', '', ( #1197 ) ) ;
#148 = CARTESIAN_POINT ( 'NONE',  ( 0.9500000000000001776, 0.5500000000000001554, 0.6249999999999998890 ) ) ;
#149 = CARTESIAN_POINT ( 'NONE',  ( 0.8500000000000001998, 0.5999999999999995337, 0.6250000000000003331 ) ) ;
#150 = ORIENTED_EDGE ( 'NONE', *, *, #711, .T. ) ;
#151 = DIRECTION ( 'NONE',  ( -0.0000000000000000000, -0.0000000000000000000, -1.000000000000000000 ) ) ;
#152 = EDGE_LOOP ( 'NONE', ( #77, #165, #1107, #205 ) ) ;
#153 = EDGE_CURVE ( 'NONE', #585, #926, #1098, .T. ) ;
#154 = CARTESIAN_POINT ( 'NONE',  ( 0.6000000000000003109, 0.5500000000000000444, 0.6250000000000012212 ) ) ;
#155 =( LENGTH_UNIT ( ) NAMED_UNIT ( * ) SI_UNIT ( .MILLI., .METRE. ) );
#156 = ORIENTED_EDGE ( 'NONE', *, *, #112, .T. ) ;
#157 = DIRECTION ( 'NONE',  ( 1.000000000000000000, -2.710505431213760592E-16, -0.0000000000000000000 ) ) ;
#158 = ORIENTED_EDGE ( 'NONE', *, *, #124, .F. ) ;
#159 = CARTESIAN_POINT ( 'NONE',  ( 0.9499999999999996225, 0.5500000000000000444, -0.6249999999999998890 ) ) ;
#160 = PLANE ( 'NONE',  #958 ) ;
#161 = CARTESIAN_POINT ( 'NONE',  ( -0.9500000000000002887, 0.05000000000000002359, -0.6249999999999996669 ) ) ;
#162 = ORIENTED_EDGE ( 'NONE', *, *, #670, .F. ) ;
#163 = DIRECTION ( 'NONE',  ( 0.0000000000000000000, -0.0000000000000000000, -1.000000000000000000 ) ) ;
#164 = VECTOR ( 'NONE', #1023, 1000.000000000000000 ) ;
#165 = ORIENTED_EDGE ( 'NONE', *, *, #203, .T. ) ;
#166 = VECTOR ( 'NONE', #886, 1000.000000000000000 ) ;
#167 = VECTOR ( 'NONE', #345, 1000.000000000000000 ) ;
#168 = CARTESIAN_POINT ( 'NONE',  ( 0.9500000000000001776, 0.5500000000000001554, -0.6250000000000001110 ) ) ;
#169 = AXIS2_PLACEMENT_3D ( 'NONE', #662, #569, #96 ) ;
#170 = CARTESIAN_POINT ( 'NONE',  ( 0.9500000000000001776, 0.5500000000000000444, -0.6250000000000001110 ) ) ;
#171 = CARTESIAN_POINT ( 'NONE',  ( 2.225999600319681360, 0.5500000000000004885, 0.6249999999999995559 ) ) ;
#172 = EDGE_CURVE ( 'NONE', #1031, #36, #699, .T. ) ;
#173 = CARTESIAN_POINT ( 'NONE',  ( 1.000000000000000444, 0.0000000000000000000, 0.6250000000000000000 ) ) ;
#174 = DIRECTION ( 'NONE',  ( 0.0000000000000000000, 0.0000000000000000000, 1.000000000000000000 ) ) ;
#175 = ORIENTED_EDGE ( 'NONE', *, *, #1043, .F. ) ;
#176 = DIRECTION ( 'NONE',  ( -1.000000000000000000, -2.710505431213760592E-16, 2.282530889443167515E-16 ) ) ;
#177 = CARTESIAN_POINT ( 'NONE',  ( 0.9499999999999996225, 0.04999999999999999584, 0.6250000000000002220 ) ) ;
#178 = CARTESIAN_POINT ( 'NONE',  ( -0.9500000000000000666, 0.5500000000000001554, 0.6250000000000001110 ) ) ;
#179 = VERTEX_POINT ( 'NONE', #508 ) ;
#180 = PLANE ( 'NONE',  #271 ) ;
#181 = EDGE_CURVE ( 'NONE', #600, #691, #37, .T. ) ;
#182 = ORIENTED_EDGE ( 'NONE', *, *, #783, .T. ) ;
#183 = EDGE_CURVE ( 'NONE', #465, #722, #1080, .T. ) ;
#184 = FACE_OUTER_BOUND ( 'NONE', #120, .T. ) ;
#185 = SURFACE_STYLE_FILL_AREA ( #931 ) ;
#186 = DIRECTION ( 'NONE',  ( -4.017254365419974116E-16, 0.0000000000000000000, -1.000000000000000000 ) ) ;
#187 = ORIENTED_EDGE ( 'NONE', *, *, #928, .F. ) ;
#188 = LINE ( 'NONE', #766, #1077 ) ;
#189 = ORIENTED_EDGE ( 'NONE', *, *, #776, .F. ) ;
#190 = EDGE_CURVE ( 'NONE', #627, #263, #827, .T. ) ;
#191 = DIRECTION ( 'NONE',  ( -0.0000000000000000000, -0.0000000000000000000, -1.000000000000000000 ) ) ;
#192 =( GEOMETRIC_REPRESENTATION_CONTEXT ( 3 ) GLOBAL_UNCERTAINTY_ASSIGNED_CONTEXT ( ( #513 ) ) GLOBAL_UNIT_ASSIGNED_CONTEXT ( ( #749, #645, #201 ) ) REPRESENTATION_CONTEXT ( 'NONE', 'WORKASPACE' ) );
#193 = AXIS2_PLACEMENT_3D ( 'NONE', #66, #924, #843 ) ;
#194 = DIRECTION ( 'NONE',  ( 1.000000000000000000, -2.710505431213760592E-16, -0.0000000000000000000 ) ) ;
#195 = CARTESIAN_POINT ( 'NONE',  ( -0.8500000000000001998, 0.5999999999999999778, 0.6250000000000003331 ) ) ;
#196 = FACE_OUTER_BOUND ( 'NONE', #145, .T. ) ;
#197 = EDGE_LOOP ( 'NONE', ( #97, #553, #1200, #719 ) ) ;
#198 = LINE ( 'NONE', #216, #563 ) ;
#199 = CARTESIAN_POINT ( 'NONE',  ( -0.8500000000000004219, -0.001000000000000132727, 0.4750000000000003109 ) ) ;
#200 = EDGE_LOOP ( 'NONE', ( #762, #50, #548, #520 ) ) ;
#201 =( NAMED_UNIT ( * ) SI_UNIT ( $, .STERADIAN. ) SOLID_ANGLE_UNIT ( ) );
#202 = CARTESIAN_POINT ( 'NONE',  ( -0.6000000000000001998, -1.626303258728256651E-16, 0.6250000000000002220 ) ) ;
#203 = EDGE_CURVE ( 'NONE', #254, #913, #259, .T. ) ;
#204 =( NAMED_UNIT ( * ) PLANE_ANGLE_UNIT ( ) SI_UNIT ( $, .RADIAN. ) );
#205 = ORIENTED_EDGE ( 'NONE', *, *, #601, .F. ) ;
#206 = FACE_OUTER_BOUND ( 'NONE', #767, .T. ) ;
#207 = VECTOR ( 'NONE', #131, 1000.000000000000000 ) ;
#208 = CARTESIAN_POINT ( 'NONE',  ( 0.9500000000000001776, 0.05000000000000021094, 0.6249999999999998890 ) ) ;
#209 = VECTOR ( 'NONE', #1062, 1000.000000000000000 ) ;
#210 = FILL_AREA_STYLE_COLOUR ( '', #809 ) ;
#211 = AXIS2_PLACEMENT_3D ( 'NONE', #956, #1148, #93 ) ;
#212 = LINE ( 'NONE', #676, #884 ) ;
#213 = VECTOR ( 'NONE', #948, 1000.000000000000000 ) ;
#214 = EDGE_CURVE ( 'NONE', #1010, #910, #833, .T. ) ;
#215 = EDGE_LOOP ( 'NONE', ( #333, #534, #1078, #861 ) ) ;
#216 = CARTESIAN_POINT ( 'NONE',  ( -0.9500000000000000666, 0.04999999999999999584, -0.6250000000000000000 ) ) ;
#217 = LINE ( 'NONE', #297, #312 ) ;
#218 =( NAMED_UNIT ( * ) PLANE_ANGLE_UNIT ( ) SI_UNIT ( $, .RADIAN. ) );
#219 = FACE_OUTER_BOUND ( 'NONE', #683, .T. ) ;
#220 = ORIENTED_EDGE ( 'NONE', *, *, #783, .F. ) ;
#221 = ADVANCED_FACE ( 'NONE', ( #73 ), #1202, .F. ) ;
#222 = LINE ( 'NONE', #713, #1139 ) ;
#223 = APPLICATION_CONTEXT ( 'automotive_design' ) ;
#224 = CARTESIAN_POINT ( 'NONE',  ( -0.9500000000000000666, 0.5500000000000000444, 0.6250000000000003331 ) ) ;
#225 = SHAPE_DEFINITION_REPRESENTATION ( #748, #708 ) ;
#226 = DIRECTION ( 'NONE',  ( 2.710505431213760592E-16, 1.000000000000000000, 4.701977403289148390E-32 ) ) ;
#227 = ORIENTED_EDGE ( 'NONE', *, *, #324, .T. ) ;
#228 = EDGE_CURVE ( 'NONE', #46, #328, #274, .T. ) ;
#229 = DIRECTION ( 'NONE',  ( -0.0000000000000000000, -1.000000000000000000, -0.0000000000000000000 ) ) ;
#230 = CARTESIAN_POINT ( 'NONE',  ( 0.6000000000000000888, 0.04999999999999991257, -0.6250000000000000000 ) ) ;
#231 = AXIS2_PLACEMENT_3D ( 'NONE', #415, #521, #163 ) ;
#232 = VERTEX_POINT ( 'NONE', #177 ) ;
#233 = ORIENTED_EDGE ( 'NONE', *, *, #336, .F. ) ;
#234 = MANIFOLD_SOLID_BREP ( 'Extruir2', #663 ) ;
#235 = CARTESIAN_POINT ( 'NONE',  ( 0.5999999999999999778, -0.001000000000000457988, 0.4750000000000002554 ) ) ;
#236 = DIRECTION ( 'NONE',  ( -0.0000000000000000000, 4.701977403289150032E-32, 1.000000000000000000 ) ) ;
#237 = VERTEX_POINT ( 'NONE', #1108 ) ;
#238 = EDGE_LOOP ( 'NONE', ( #1194, #1075, #894, #1166 ) ) ;
#239 = LINE ( 'NONE', #243, #11 ) ;
#240 = MANIFOLD_SOLID_BREP ( 'Extruir4[2]', #1172 ) ;
#241 = LINE ( 'NONE', #1193, #127 ) ;
#242 = VERTEX_POINT ( 'NONE', #170 ) ;
#243 = CARTESIAN_POINT ( 'NONE',  ( -0.9500000000000002887, 0.04999999999999991257, -0.6249999999999998890 ) ) ;
#244 = DIRECTION ( 'NONE',  ( 0.0000000000000000000, -1.000000000000000000, 0.0000000000000000000 ) ) ;
#245 = VECTOR ( 'NONE', #619, 1000.000000000000000 ) ;
#246 = ORIENTED_EDGE ( 'NONE', *, *, #318, .T. ) ;
#247 = DIRECTION ( 'NONE',  ( 1.000000000000000000, 2.710505431213760592E-16, 2.168404344971008868E-16 ) ) ;
#248 = AXIS2_PLACEMENT_3D ( 'NONE', #395, #675, #579 ) ;
#249 = ADVANCED_FACE ( 'NONE', ( #471 ), #160, .T. ) ;
#250 = VECTOR ( 'NONE', #862, 1000.000000000000000 ) ;
#251 = ORIENTED_EDGE ( 'NONE', *, *, #183, .F. ) ;
#252 = VECTOR ( 'NONE', #226, 1000.000000000000000 ) ;
#253 = DIRECTION ( 'NONE',  ( 1.000000000000000000, -4.336808689942017736E-16, 6.505213034913026604E-16 ) ) ;
#254 = VERTEX_POINT ( 'NONE', #653 ) ;
#255 = CARTESIAN_POINT ( 'NONE',  ( 0.8499999999999999778, 0.5999999999999995337, -0.6249999999999998890 ) ) ;
#256 = EDGE_CURVE ( 'NONE', #722, #558, #857, .T. ) ;
#257 = ORIENTED_EDGE ( 'NONE', *, *, #805, .F. ) ;
#258 = EDGE_CURVE ( 'NONE', #509, #328, #967, .T. ) ;
#259 = LINE ( 'NONE', #356, #740 ) ;
#260 = DIRECTION ( 'NONE',  ( 1.000000000000000000, 0.0000000000000000000, 0.0000000000000000000 ) ) ;
#261 = CARTESIAN_POINT ( 'NONE',  ( -0.8500000000000001998, -0.001000000000000132727, -0.4749999999999999778 ) ) ;
#262 = FACE_OUTER_BOUND ( 'NONE', #806, .T. ) ;
#263 = VERTEX_POINT ( 'NONE', #574 ) ;
#264 = FACE_OUTER_BOUND ( 'NONE', #889, .T. ) ;
#265 = ADVANCED_FACE ( 'NONE', ( #868 ), #1048, .F. ) ;
#266 = LINE ( 'NONE', #641, #14 ) ;
#267 = LINE ( 'NONE', #173, #975 ) ;
#268 = CARTESIAN_POINT ( 'NONE',  ( 0.5999999999999999778, 0.5999999999999996447, -0.4749999999999998113 ) ) ;
#269 = VECTOR ( 'NONE', #1180, 1000.000000000000000 ) ;
#270 = ORIENTED_EDGE ( 'NONE', *, *, #470, .T. ) ;
#271 = AXIS2_PLACEMENT_3D ( 'NONE', #378, #174, #474 ) ;
#272 = SURFACE_STYLE_FILL_AREA ( #79 ) ;
#273 = EDGE_CURVE ( 'NONE', #276, #636, #772, .T. ) ;
#274 = LINE ( 'NONE', #88, #143 ) ;
#275 = FACE_OUTER_BOUND ( 'NONE', #743, .T. ) ;
#276 = VERTEX_POINT ( 'NONE', #101 ) ;
#277 = DIRECTION ( 'NONE',  ( 1.000000000000000000, 2.710505431213760592E-16, -2.282530889443167515E-16 ) ) ;
#278 = VERTEX_POINT ( 'NONE', #679 ) ;
#279 = DIRECTION ( 'NONE',  ( 0.0000000000000000000, -1.000000000000000000, 4.701977403289150032E-32 ) ) ;
#280 = DIRECTION ( 'NONE',  ( 0.0000000000000000000, 1.000000000000000000, -4.701977403289149484E-32 ) ) ;
#281 = ORIENTED_EDGE ( 'NONE', *, *, #399, .F. ) ;
#282 = DIRECTION ( 'NONE',  ( -1.000000000000000000, -2.710505431213760592E-16, 2.282530889443167515E-16 ) ) ;
#283 = EDGE_CURVE ( 'NONE', #709, #465, #568, .T. ) ;
#284 = VERTEX_POINT ( 'NONE', #208 ) ;
#285 = PLANE ( 'NONE',  #211 ) ;
#286 =( NAMED_UNIT ( * ) PLANE_ANGLE_UNIT ( ) SI_UNIT ( $, .RADIAN. ) );
#287 = DIRECTION ( 'NONE',  ( 2.710505431213760592E-16, 1.000000000000000000, 4.701977403289148390E-32 ) ) ;
#288 = LINE ( 'NONE', #853, #823 ) ;
#289 = DIRECTION ( 'NONE',  ( -2.951412382729594902E-47, -1.088878977603803073E-31, 1.000000000000000000 ) ) ;
#290 = EDGE_LOOP ( 'NONE', ( #40, #15, #300, #846 ) ) ;
#291 = EDGE_CURVE ( 'NONE', #323, #855, #957, .T. ) ;
#292 = CLOSED_SHELL ( 'NONE', ( #515, #1092, #1032, #690, #130, #888, #567, #25, #640, #597, #898, #575, #852, #348 ) ) ;
#293 = VECTOR ( 'NONE', #1189, 1000.000000000000000 ) ;
#294 = CARTESIAN_POINT ( 'NONE',  ( -1.000000000000000222, 0.6000000000000000888, -0.6250000000000000000 ) ) ;
#295 = VECTOR ( 'NONE', #191, 1000.000000000000000 ) ;
#296 = AXIS2_PLACEMENT_3D ( 'NONE', #887, #26, #792 ) ;
#297 = CARTESIAN_POINT ( 'NONE',  ( -0.8499999999999999778, 0.5999999999999999778, -0.6249999999999998890 ) ) ;
#298 = PLANE ( 'NONE',  #746 ) ;
#299 = CARTESIAN_POINT ( 'NONE',  ( 0.8500000000000000888, 0.5500000000000001554, 0.6250000000000003331 ) ) ;
#300 = ORIENTED_EDGE ( 'NONE', *, *, #256, .T. ) ;
#301 = DIRECTION ( 'NONE',  ( -0.0000000000000000000, 1.000000000000000000, 0.0000000000000000000 ) ) ;
#302 = EDGE_CURVE ( 'NONE', #951, #1150, #493, .T. ) ;
#303 = DIRECTION ( 'NONE',  ( 0.0000000000000000000, -1.000000000000000000, 0.0000000000000000000 ) ) ;
#304 = DIRECTION ( 'NONE',  ( -1.000000000000000000, -0.0000000000000000000, -0.0000000000000000000 ) ) ;
#305 = ORIENTED_EDGE ( 'NONE', *, *, #739, .T. ) ;
#306 = CARTESIAN_POINT ( 'NONE',  ( 0.8500000000000000888, 0.5500000000000001554, 0.4750000000000003109 ) ) ;
#307 = EDGE_CURVE ( 'NONE', #908, #497, #217, .T. ) ;
#308 = CARTESIAN_POINT ( 'NONE',  ( 0.8499999999999998668, 0.5500000000000000444, -0.6249999999999998890 ) ) ;
#309 = ORIENTED_EDGE ( 'NONE', *, *, #391, .T. ) ;
#310 = ORIENTED_EDGE ( 'NONE', *, *, #1084, .T. ) ;
#311 = DIRECTION ( 'NONE',  ( 0.0000000000000000000, 0.0000000000000000000, 1.000000000000000000 ) ) ;
#312 = VECTOR ( 'NONE', #311, 1000.000000000000000 ) ;
#313 = APPLICATION_PROTOCOL_DEFINITION ( 'draft international standard', 'automotive_design', 1998, #725 ) ;
#314 = VECTOR ( 'NONE', #718, 1000.000000000000000 ) ;
#315 = EDGE_CURVE ( 'NONE', #1090, #910, #672, .T. ) ;
#316 = VECTOR ( 'NONE', #777, 1000.000000000000000 ) ;
#317 = UNCERTAINTY_MEASURE_WITH_UNIT (LENGTH_MEASURE( 1.000000000000000082E-05 ), #784, 'distance_accuracy_value', 'NONE');
#318 = EDGE_CURVE ( 'NONE', #636, #999, #877, .T. ) ;
#319 = VERTEX_POINT ( 'NONE', #24 ) ;
#320 = CARTESIAN_POINT ( 'NONE',  ( 0.5999999999999997558, -0.001000000000000457988, -0.4749999999999998113 ) ) ;
#321 = PRODUCT_CONTEXT ( 'NONE', #223, 'mechanical' ) ;
#322 = LINE ( 'NONE', #199, #252 ) ;
#323 = VERTEX_POINT ( 'NONE', #409 ) ;
#324 = EDGE_CURVE ( 'NONE', #276, #509, #791, .T. ) ;
#325 = DIRECTION ( 'NONE',  ( -0.0000000000000000000, -1.000000000000000000, -0.0000000000000000000 ) ) ;
#326 = LINE ( 'NONE', #982, #207 ) ;
#327 = CARTESIAN_POINT ( 'NONE',  ( 0.6000000000000000888, 0.04999999999999996808, -0.6250000000000000000 ) ) ;
#328 = VERTEX_POINT ( 'NONE', #202 ) ;
#329 = CARTESIAN_POINT ( 'NONE',  ( -0.8500000000000000888, 0.5500000000000001554, -0.6249999999999998890 ) ) ;
#330 = VECTOR ( 'NONE', #1149, 1000.000000000000000 ) ;
#331 = DIRECTION ( 'NONE',  ( 2.282530889443167515E-16, 4.701977403289150032E-32, 1.000000000000000000 ) ) ;
#332 = VECTOR ( 'NONE', #282, 1000.000000000000000 ) ;
#333 = ORIENTED_EDGE ( 'NONE', *, *, #750, .T. ) ;
#334 = ORIENTED_EDGE ( 'NONE', *, *, #71, .T. ) ;
#335 = LINE ( 'NONE', #148, #825 ) ;
#336 = EDGE_CURVE ( 'NONE', #276, #712, #1034, .T. ) ;
#337 = LINE ( 'NONE', #139, #245 ) ;
#338 = EDGE_LOOP ( 'NONE', ( #707, #162, #714, #592 ) ) ;
#339 = CARTESIAN_POINT ( 'NONE',  ( -2.225999600319680916, 0.6000000000000004219, -0.6249999999999998890 ) ) ;
#340 = ORIENTED_EDGE ( 'NONE', *, *, #436, .F. ) ;
#341 = CARTESIAN_POINT ( 'NONE',  ( 0.9499999999999996225, 0.5500000000000000444, -0.6249999999999998890 ) ) ;
#342 = EDGE_CURVE ( 'NONE', #36, #55, #4, .T. ) ;
#343 = DIRECTION ( 'NONE',  ( -1.000000000000000000, 2.710505431213760592E-16, 0.0000000000000000000 ) ) ;
#344 = ORIENTED_EDGE ( 'NONE', *, *, #1102, .F. ) ;
#345 = DIRECTION ( 'NONE',  ( 1.734723475976806848E-16, 0.0000000000000000000, -1.000000000000000000 ) ) ;
#346 = EDGE_LOOP ( 'NONE', ( #949, #334, #642, #849 ) ) ;
#347 = CARTESIAN_POINT ( 'NONE',  ( -2.225999600319680916, 0.5500000000000004885, -0.6249999999999998890 ) ) ;
#348 = ADVANCED_FACE ( 'NONE', ( #482 ), #10, .F. ) ;
#349 = ORIENTED_EDGE ( 'NONE', *, *, #382, .F. ) ;
#350 = PLANE ( 'NONE',  #65 ) ;
#351 = AXIS2_PLACEMENT_3D ( 'NONE', #454, #1206, #1201 ) ;
#352 = PRESENTATION_LAYER_ASSIGNMENT (  '', '', ( #469 ) ) ;
#353 = ORIENTED_EDGE ( 'NONE', *, *, #342, .F. ) ;
#354 = VECTOR ( 'NONE', #922, 1000.000000000000000 ) ;
#355 = SURFACE_STYLE_USAGE ( .BOTH. , #449 ) ;
#356 = CARTESIAN_POINT ( 'NONE',  ( 1.850999600319680916, 0.5999999999999999778, -0.6249999999999994449 ) ) ;
#357 = ORIENTED_EDGE ( 'NONE', *, *, #112, .F. ) ;
#358 = LINE ( 'NONE', #339, #826 ) ;
#359 = ORIENTED_EDGE ( 'NONE', *, *, #78, .T. ) ;
#360 = ADVANCED_FACE ( 'NONE', ( #502 ), #122, .F. ) ;
#361 = DIRECTION ( 'NONE',  ( -4.017254365419974609E-16, 2.163653586757409554E-46, -1.000000000000000000 ) ) ;
#362 = CARTESIAN_POINT ( 'NONE',  ( -0.9500000000000002887, 0.5500000000000000444, -0.6249999999999996669 ) ) ;
#363 = DIRECTION ( 'NONE',  ( 0.0000000000000000000, 4.701977403289149484E-32, 1.000000000000000000 ) ) ;
#364 = ORIENTED_EDGE ( 'NONE', *, *, #476, .F. ) ;
#365 = DIRECTION ( 'NONE',  ( -2.282530889443167022E-16, 0.0000000000000000000, -1.000000000000000000 ) ) ;
#366 = ORIENTED_EDGE ( 'NONE', *, *, #936, .F. ) ;
#367 = CARTESIAN_POINT ( 'NONE',  ( 0.9499999999999996225, 0.5500000000000000444, 0.6250000000000001110 ) ) ;
#368 = FILL_AREA_STYLE_COLOUR ( '', #562 ) ;
#369 = DIRECTION ( 'NONE',  ( -2.282530889443173431E-16, 2.168404344971012812E-15, -1.000000000000000000 ) ) ;
#370 = VERTEX_POINT ( 'NONE', #612 ) ;
#371 = PLANE ( 'NONE',  #1097 ) ;
#372 = ORIENTED_EDGE ( 'NONE', *, *, #1154, .F. ) ;
#373 = VECTOR ( 'NONE', #1106, 1000.000000000000000 ) ;
#374 = CARTESIAN_POINT ( 'NONE',  ( 2.225999600319681360, 0.6000000000000004219, 0.6249999999999996669 ) ) ;
#375 = AXIS2_PLACEMENT_3D ( 'NONE', #13, #874, #1146 ) ;
#376 = LINE ( 'NONE', #381, #213 ) ;
#377 = EDGE_LOOP ( 'NONE', ( #1020, #717, #305, #61, #613, #755, #383, #822 ) ) ;
#378 = CARTESIAN_POINT ( 'NONE',  ( -2.225999600319680916, 0.6000000000000004219, -0.6249999999999998890 ) ) ;
#379 = ORIENTED_EDGE ( 'NONE', *, *, #302, .F. ) ;
#380 = LINE ( 'NONE', #952, #427 ) ;
#381 = CARTESIAN_POINT ( 'NONE',  ( 1.000000000000000444, 0.6000000000000000888, 0.6250000000000000000 ) ) ;
#382 = EDGE_CURVE ( 'NONE', #528, #284, #335, .T. ) ;
#383 = ORIENTED_EDGE ( 'NONE', *, *, #273, .F. ) ;
#384 = LINE ( 'NONE', #463, #848 ) ;
#385 = ORIENTED_EDGE ( 'NONE', *, *, #959, .T. ) ;
#386 = DIRECTION ( 'NONE',  ( -1.000000000000000000, 0.0000000000000000000, 2.282530889443167515E-16 ) ) ;
#387 = CARTESIAN_POINT ( 'NONE',  ( 0.6000000000000003109, 0.3000000000000001554, 0.6249999999999994449 ) ) ;
#388 = CARTESIAN_POINT ( 'NONE',  ( 0.9499999999999996225, 0.04999999999999999584, -0.6250000000000000000 ) ) ;
#389 = VERTEX_POINT ( 'NONE', #329 ) ;
#390 = VECTOR ( 'NONE', #244, 1000.000000000000000 ) ;
#391 = EDGE_CURVE ( 'NONE', #999, #816, #1074, .T. ) ;
#392 = VECTOR ( 'NONE', #989, 1000.000000000000000 ) ;
#393 = DIRECTION ( 'NONE',  ( 1.000000000000000000, -2.710505431213760592E-16, -0.0000000000000000000 ) ) ;
#394 = VECTOR ( 'NONE', #393, 1000.000000000000000 ) ;
#395 = CARTESIAN_POINT ( 'NONE',  ( -0.8500000000000004219, -0.001000000000000132727, 0.6250000000000003331 ) ) ;
#396 = SURFACE_STYLE_FILL_AREA ( #873 ) ;
#397 = DIRECTION ( 'NONE',  ( 1.000000000000000000, 3.761581922631326594E-31, -4.017254365419974609E-16 ) ) ;
#398 = EDGE_LOOP ( 'NONE', ( #480, #72, #811, #116 ) ) ;
#399 = EDGE_CURVE ( 'NONE', #319, #514, #710, .T. ) ;
#400 = CARTESIAN_POINT ( 'NONE',  ( -0.6000000000000001998, 0.5999999999999999778, 0.6250000000000002220 ) ) ;
#401 = CARTESIAN_POINT ( 'NONE',  ( -1.000000000000000444, -1.626303258728256651E-16, 0.6250000000000002220 ) ) ;
#402 = LINE ( 'NONE', #863, #316 ) ;
#403 = DIRECTION ( 'NONE',  ( -1.734723475976806848E-16, 0.0000000000000000000, -1.000000000000000000 ) ) ;
#404 = CARTESIAN_POINT ( 'NONE',  ( 0.8500000000000001998, 0.5999999999999995337, 0.6250000000000003331 ) ) ;
#405 = CARTESIAN_POINT ( 'NONE',  ( 2.225999600319680916, 0.6000000000000004219, -0.6250000000000004441 ) ) ;
#406 =( LENGTH_UNIT ( ) NAMED_UNIT ( * ) SI_UNIT ( .MILLI., .METRE. ) );
#407 = VERTEX_POINT ( 'NONE', #134 ) ;
#408 = FACE_OUTER_BOUND ( 'NONE', #290, .T. ) ;
#409 = CARTESIAN_POINT ( 'NONE',  ( -0.6000000000000001998, 0.5999999999999999778, 0.4750000000000002554 ) ) ;
#410 = VECTOR ( 'NONE', #56, 1000.000000000000000 ) ;
#411 = EDGE_CURVE ( 'NONE', #999, #509, #1083, .T. ) ;
#412 = FACE_OUTER_BOUND ( 'NONE', #38, .T. ) ;
#413 = CARTESIAN_POINT ( 'NONE',  ( 0.8500000000000001998, 0.5999999999999995337, 0.4750000000000003109 ) ) ;
#414 = ORIENTED_EDGE ( 'NONE', *, *, #928, .T. ) ;
#415 = CARTESIAN_POINT ( 'NONE',  ( -0.9500000000000000666, 0.5500000000000000444, 0.6250000000000003331 ) ) ;
#416 = CARTESIAN_POINT ( 'NONE',  ( 1.000000000000000000, -5.877471754111438635E-32, -0.6250000000000004441 ) ) ;
#417 = DIRECTION ( 'NONE',  ( 1.274473528905961335E-47, 4.701977403289149484E-32, -1.000000000000000000 ) ) ;
#418 = ORIENTED_EDGE ( 'NONE', *, *, #258, .T. ) ;
#419 = CARTESIAN_POINT ( 'NONE',  ( -1.000000000000000222, 0.0000000000000000000, 0.6250000000000002220 ) ) ;
#420 = ORIENTED_EDGE ( 'NONE', *, *, #878, .F. ) ;
#421 = ORIENTED_EDGE ( 'NONE', *, *, #459, .T. ) ;
#422 = EDGE_CURVE ( 'NONE', #389, #908, #511, .T. ) ;
#423 = CARTESIAN_POINT ( 'NONE',  ( -0.6000000000000001998, 0.5500000000000000444, 0.4750000000000003664 ) ) ;
#424 = VECTOR ( 'NONE', #331, 1000.000000000000000 ) ;
#425 = VECTOR ( 'NONE', #303, 1000.000000000000000 ) ;
#426 = CARTESIAN_POINT ( 'NONE',  ( -0.6000000000000001998, -0.001000000000000241147, -0.4749999999999998113 ) ) ;
#427 = VECTOR ( 'NONE', #671, 1000.000000000000000 ) ;
#428 = ORIENTED_EDGE ( 'NONE', *, *, #436, .T. ) ;
#429 = VERTEX_POINT ( 'NONE', #524 ) ;
#430 = EDGE_CURVE ( 'NONE', #1150, #456, #1079, .T. ) ;
#431 = DIRECTION ( 'NONE',  ( -4.701977403289150032E-32, -4.701977403289150032E-32, -1.000000000000000000 ) ) ;
#432 = EDGE_LOOP ( 'NONE', ( #1073, #615, #842, #500 ) ) ;
#433 = LINE ( 'NONE', #731, #314 ) ;
#434 = EDGE_LOOP ( 'NONE', ( #869, #453, #444, #526, #779, #572, #1170, #896 ) ) ;
#435 = DIRECTION ( 'NONE',  ( 0.0000000000000000000, -1.000000000000000000, 0.0000000000000000000 ) ) ;
#436 = EDGE_CURVE ( 'NONE', #722, #510, #995, .T. ) ;
#437 = LINE ( 'NONE', #609, #140 ) ;
#438 = EDGE_CURVE ( 'NONE', #456, #323, #803, .T. ) ;
#439 = EDGE_LOOP ( 'NONE', ( #1218, #786, #923, #1122 ) ) ;
#440 = CARTESIAN_POINT ( 'NONE',  ( -0.6000000000000001998, 0.5999999999999999778, 0.6250000000000002220 ) ) ;
#441 = LINE ( 'NONE', #118, #394 ) ;
#442 = VECTOR ( 'NONE', #1171, 1000.000000000000000 ) ;
#443 = EDGE_CURVE ( 'NONE', #278, #514, #895, .T. ) ;
#444 = ORIENTED_EDGE ( 'NONE', *, *, #1165, .F. ) ;
#445 = DIRECTION ( 'NONE',  ( 1.000000000000000000, 0.0000000000000000000, 0.0000000000000000000 ) ) ;
#446 = VECTOR ( 'NONE', #498, 1000.000000000000000 ) ;
#447 = ORIENTED_EDGE ( 'NONE', *, *, #318, .F. ) ;
#448 = PRODUCT ( 'User Library-CR2012-0805', 'User Library-CR2012-0805', '', ( #321 ) ) ;
#449 = SURFACE_SIDE_STYLE ('',( #272 ) ) ;
#450 = DIRECTION ( 'NONE',  ( 1.000000000000000000, 3.761581922631326594E-31, -4.017254365419974609E-16 ) ) ;
#451 = DIRECTION ( 'NONE',  ( 2.282530889443167022E-16, 0.0000000000000000000, 1.000000000000000000 ) ) ;
#452 = LINE ( 'NONE', #1030, #332 ) ;
#453 = ORIENTED_EDGE ( 'NONE', *, *, #181, .F. ) ;
#454 = CARTESIAN_POINT ( 'NONE',  ( -2.225999600319681360, 0.6000000000000004219, 0.6250000000000002220 ) ) ;
#455 = CARTESIAN_POINT ( 'NONE',  ( 0.6000000000000003109, 0.5999999999999999778, 0.6250000000000001110 ) ) ;
#456 = VERTEX_POINT ( 'NONE', #423 ) ;
#457 = CARTESIAN_POINT ( 'NONE',  ( -0.5999999999999999778, 0.5999999999999999778, -0.6249999999999998890 ) ) ;
#458 = ORIENTED_EDGE ( 'NONE', *, *, #214, .T. ) ;
#459 = EDGE_CURVE ( 'NONE', #737, #407, #239, .T. ) ;
#460 = FILL_AREA_STYLE_COLOUR ( '', #587 ) ;
#461 = PLANE ( 'NONE',  #110 ) ;
#462 = FACE_OUTER_BOUND ( 'NONE', #970, .T. ) ;
#463 = CARTESIAN_POINT ( 'NONE',  ( -0.9500000000000002887, 0.5500000000000000444, -0.6249999999999998890 ) ) ;
#464 = VECTOR ( 'NONE', #1105, 1000.000000000000000 ) ;
#465 = VERTEX_POINT ( 'NONE', #817 ) ;
#466 = VECTOR ( 'NONE', #194, 1000.000000000000000 ) ;
#467 = MECHANICAL_DESIGN_GEOMETRIC_PRESENTATION_REPRESENTATION (  '', ( #745 ), #192 ) ;
#468 = PLANE ( 'NONE',  #721 ) ;
#469 = STYLED_ITEM ( 'NONE', ( #1051 ), #1057 ) ;
#470 = EDGE_CURVE ( 'NONE', #994, #456, #138, .T. ) ;
#471 = FACE_OUTER_BOUND ( 'NONE', #346, .T. ) ;
#472 = CARTESIAN_POINT ( 'NONE',  ( 2.225999600319681360, 0.5500000000000004885, 0.6249999999999995559 ) ) ;
#473 = CARTESIAN_POINT ( 'NONE',  ( 1.000000000000000444, 0.6000000000000000888, 0.6250000000000000000 ) ) ;
#474 = DIRECTION ( 'NONE',  ( 1.000000000000000000, 0.0000000000000000000, -0.0000000000000000000 ) ) ;
#475 = VERTEX_POINT ( 'NONE', #48 ) ;
#476 = EDGE_CURVE ( 'NONE', #674, #237, #973, .T. ) ;
#477 = FACE_OUTER_BOUND ( 'NONE', #434, .T. ) ;
#478 = ORIENTED_EDGE ( 'NONE', *, *, #554, .F. ) ;
#479 = FACE_OUTER_BOUND ( 'NONE', #1133, .T. ) ;
#480 = ORIENTED_EDGE ( 'NONE', *, *, #776, .T. ) ;
#481 = CARTESIAN_POINT ( 'NONE',  ( -2.225999600319681360, 0.5500000000000004885, 0.6250000000000001110 ) ) ;
#482 = FACE_OUTER_BOUND ( 'NONE', #2, .T. ) ;
#483 = PLANE ( 'NONE',  #375 ) ;
#484 = EDGE_CURVE ( 'NONE', #726, #1205, #698, .T. ) ;
#485 = ORIENTED_EDGE ( 'NONE', *, *, #1041, .F. ) ;
#486 = VECTOR ( 'NONE', #98, 1000.000000000000000 ) ;
#487 = VECTOR ( 'NONE', #1109, 1000.000000000000000 ) ;
#488 = CARTESIAN_POINT ( 'NONE',  ( 0.9499999999999996225, 0.5500000000000000444, 0.6250000000000001110 ) ) ;
#489 = SURFACE_SIDE_STYLE ('',( #396 ) ) ;
#490 = ORIENTED_EDGE ( 'NONE', *, *, #95, .T. ) ;
#491 = EDGE_CURVE ( 'NONE', #8, #137, #812, .T. ) ;
#492 = DIRECTION ( 'NONE',  ( -1.734723475976807094E-16, 0.0000000000000000000, 1.000000000000000000 ) ) ;
#493 = LINE ( 'NONE', #119, #845 ) ;
#494 =( NAMED_UNIT ( * ) PLANE_ANGLE_UNIT ( ) SI_UNIT ( $, .RADIAN. ) );
#495 = DIRECTION ( 'NONE',  ( -1.000000000000000000, 4.336808689942017736E-16, -2.168404344971008868E-16 ) ) ;
#496 = UNCERTAINTY_MEASURE_WITH_UNIT (LENGTH_MEASURE( 1.000000000000000082E-05 ), #155, 'distance_accuracy_value', 'NONE');
#497 = VERTEX_POINT ( 'NONE', #1183 ) ;
#498 = DIRECTION ( 'NONE',  ( -1.000000000000000000, 0.0000000000000000000, 2.282530889443167515E-16 ) ) ;
#499 = DIRECTION ( 'NONE',  ( -1.000000000000000000, -2.710505431213760592E-16, 2.282530889443167515E-16 ) ) ;
#500 = ORIENTED_EDGE ( 'NONE', *, *, #45, .F. ) ;
#501 = LINE ( 'NONE', #883, #519 ) ;
#502 = FACE_OUTER_BOUND ( 'NONE', #735, .T. ) ;
#503 = VECTOR ( 'NONE', #386, 1000.000000000000000 ) ;
#504 = EDGE_CURVE ( 'NONE', #709, #429, #715, .T. ) ;
#505 = LINE ( 'NONE', #700, #487 ) ;
#506 = ORIENTED_EDGE ( 'NONE', *, *, #1008, .F. ) ;
#507 = DIRECTION ( 'NONE',  ( -1.000000000000000000, 0.0000000000000000000, 1.141265444721583757E-16 ) ) ;
#508 = CARTESIAN_POINT ( 'NONE',  ( 0.8499999999999998668, 0.5500000000000001554, -0.4749999999999999778 ) ) ;
#509 = VERTEX_POINT ( 'NONE', #603 ) ;
#510 = VERTEX_POINT ( 'NONE', #980 ) ;
#511 = LINE ( 'NONE', #53, #1137 ) ;
#512 = DIRECTION ( 'NONE',  ( 2.710505431213760592E-16, 1.000000000000000000, 4.701977403289148390E-32 ) ) ;
#513 = UNCERTAINTY_MEASURE_WITH_UNIT (LENGTH_MEASURE( 1.000000000000000082E-05 ), #749, 'distance_accuracy_value', 'NONE');
#514 = VERTEX_POINT ( 'NONE', #1088 ) ;
#515 = ADVANCED_FACE ( 'NONE', ( #616 ), #535, .F. ) ;
#516 = ORIENTED_EDGE ( 'NONE', *, *, #302, .T. ) ;
#517 = CARTESIAN_POINT ( 'NONE',  ( -0.5999999999999999778, 0.5500000000000000444, -0.6249999999999998890 ) ) ;
#518 = VECTOR ( 'NONE', #94, 1000.000000000000000 ) ;
#519 = VECTOR ( 'NONE', #1127, 1000.000000000000000 ) ;
#520 = ORIENTED_EDGE ( 'NONE', *, *, #203, .F. ) ;
#521 = DIRECTION ( 'NONE',  ( 0.0000000000000000000, -1.000000000000000000, 0.0000000000000000000 ) ) ;
#522 = PRODUCT_RELATED_PRODUCT_CATEGORY ( 'part', '', ( #448 ) ) ;
#523 = ORIENTED_EDGE ( 'NONE', *, *, #146, .F. ) ;
#524 = CARTESIAN_POINT ( 'NONE',  ( 0.9499999999999996225, 0.04999999999999999584, -0.6250000000000000000 ) ) ;
#525 = PLANE ( 'NONE',  #1136 ) ;
#526 = ORIENTED_EDGE ( 'NONE', *, *, #382, .T. ) ;
#527 = CARTESIAN_POINT ( 'NONE',  ( -0.9500000000000000666, 0.05000000000000021094, 0.6250000000000001110 ) ) ;
#528 = VERTEX_POINT ( 'NONE', #1123 ) ;
#529 = FACE_OUTER_BOUND ( 'NONE', #1182, .T. ) ;
#530 = ADVANCED_FACE ( 'NONE', ( #184 ), #468, .F. ) ;
#531 = FILL_AREA_STYLE_COLOUR ( '', #941 ) ;
#532 = ORIENTED_EDGE ( 'NONE', *, *, #739, .F. ) ;
#533 = DIRECTION ( 'NONE',  ( 2.710505431213760592E-16, 1.000000000000000000, 4.701977403289148390E-32 ) ) ;
#534 = ORIENTED_EDGE ( 'NONE', *, *, #920, .F. ) ;
#535 = PLANE ( 'NONE',  #44 ) ;
#536 = VECTOR ( 'NONE', #998, 1000.000000000000000 ) ;
#537 = PLANE ( 'NONE',  #169 ) ;
#538 = ORIENTED_EDGE ( 'NONE', *, *, #1084, .F. ) ;
#539 = CARTESIAN_POINT ( 'NONE',  ( 0.9500000000000001776, 0.5500000000000001554, -0.6250000000000001110 ) ) ;
#540 = AXIS2_PLACEMENT_3D ( 'NONE', #754, #91, #547 ) ;
#541 = AXIS2_PLACEMENT_3D ( 'NONE', #969, #582, #403 ) ;
#542 = ORIENTED_EDGE ( 'NONE', *, *, #124, .T. ) ;
#543 = DIRECTION ( 'NONE',  ( 0.0000000000000000000, -4.701977403289150032E-32, -1.000000000000000000 ) ) ;
#544 = DIRECTION ( 'NONE',  ( -1.000000000000000000, 3.761581922631326594E-31, -1.734723475976807094E-16 ) ) ;
#545 = CARTESIAN_POINT ( 'NONE',  ( -0.9500000000000002887, 0.04999999999999996808, -0.6249999999999998890 ) ) ;
#546 = DIRECTION ( 'NONE',  ( 2.282530889443167022E-16, 4.701977403289149484E-32, 1.000000000000000000 ) ) ;
#547 = DIRECTION ( 'NONE',  ( -2.710505431213760592E-16, -1.000000000000000000, 0.0000000000000000000 ) ) ;
#548 = ORIENTED_EDGE ( 'NONE', *, *, #837, .T. ) ;
#549 = DIRECTION ( 'NONE',  ( -1.000000000000000000, 3.761581922631326594E-31, -1.734723475976807094E-16 ) ) ;
#550 = CARTESIAN_POINT ( 'NONE',  ( 0.5999999999999997558, -0.001000000000000457988, -0.4749999999999998113 ) ) ;
#551 = ORIENTED_EDGE ( 'NONE', *, *, #625, .F. ) ;
#552 = CARTESIAN_POINT ( 'NONE',  ( -0.8499999999999999778, 0.5999999999999999778, -0.6249999999999998890 ) ) ;
#553 = ORIENTED_EDGE ( 'NONE', *, *, #1102, .T. ) ;
#554 = EDGE_CURVE ( 'NONE', #994, #796, #652, .T. ) ;
#555 = LINE ( 'NONE', #168, #1116 ) ;
#556 = SURFACE_STYLE_USAGE ( .BOTH. , #632 ) ;
#557 = CARTESIAN_POINT ( 'NONE',  ( -0.6000000000000001998, 0.5500000000000000444, 0.6250000000000002220 ) ) ;
#558 = VERTEX_POINT ( 'NONE', #367 ) ;
#559 = FACE_OUTER_BOUND ( 'NONE', #432, .T. ) ;
#560 =( GEOMETRIC_REPRESENTATION_CONTEXT ( 3 ) GLOBAL_UNCERTAINTY_ASSIGNED_CONTEXT ( ( #965 ) ) GLOBAL_UNIT_ASSIGNED_CONTEXT ( ( #1207, #286, #1117 ) ) REPRESENTATION_CONTEXT ( 'NONE', 'WORKASPACE' ) );
#561 = ORIENTED_EDGE ( 'NONE', *, *, #470, .F. ) ;
#562 = COLOUR_RGB ( '',0.8431372549019607865, 0.8156862745098039102, 0.7529411764705882248 ) ;
#563 = VECTOR ( 'NONE', #1042, 1000.000000000000000 ) ;
#564 = EDGE_CURVE ( 'NONE', #497, #915, #1003, .T. ) ;
#565 = DIRECTION ( 'NONE',  ( 0.0000000000000000000, -0.0000000000000000000, 1.000000000000000000 ) ) ;
#566 = MECHANICAL_DESIGN_GEOMETRIC_PRESENTATION_REPRESENTATION (  '', ( #469 ), #790 ) ;
#567 = ADVANCED_FACE ( 'NONE', ( #631 ), #1026, .F. ) ;
#568 = LINE ( 'NONE', #1055, #1174 ) ;
#569 = DIRECTION ( 'NONE',  ( -1.734723475976807587E-16, 0.0000000000000000000, 1.000000000000000000 ) ) ;
#570 = LINE ( 'NONE', #261, #1013 ) ;
#571 = DIRECTION ( 'NONE',  ( -1.000000000000000000, -0.0000000000000000000, -0.0000000000000000000 ) ) ;
#572 = ORIENTED_EDGE ( 'NONE', *, *, #342, .T. ) ;
#573 = LINE ( 'NONE', #481, #250 ) ;
#574 = CARTESIAN_POINT ( 'NONE',  ( 1.000000000000000666, -1.626303258728256651E-16, 0.6250000000000000000 ) ) ;
#575 = ADVANCED_FACE ( 'NONE', ( #264 ), #1212, .F. ) ;
#576 = FACE_OUTER_BOUND ( 'NONE', #902, .T. ) ;
#577 = EDGE_LOOP ( 'NONE', ( #17, #1058, #57, #820 ) ) ;
#578 = FACE_OUTER_BOUND ( 'NONE', #152, .T. ) ;
#579 = DIRECTION ( 'NONE',  ( -2.710505431213760592E-16, -1.000000000000000000, 0.0000000000000000000 ) ) ;
#580 = LINE ( 'NONE', #1138, #900 ) ;
#581 = EDGE_CURVE ( 'NONE', #242, #528, #555, .T. ) ;
#582 = DIRECTION ( 'NONE',  ( 1.000000000000000000, 0.0000000000000000000, -1.734723475976806848E-16 ) ) ;
#583 = ORIENTED_EDGE ( 'NONE', *, *, #703, .F. ) ;
#584 = AXIS2_PLACEMENT_3D ( 'NONE', #1203, #753, #655 ) ;
#585 = VERTEX_POINT ( 'NONE', #1114 ) ;
#586 = CARTESIAN_POINT ( 'NONE',  ( 0.9500000000000001776, 0.05000000000000021094, 0.6249999999999998890 ) ) ;
#587 = COLOUR_RGB ( '',0.8980392156862745390, 0.9176470588235293713, 0.9294117647058823817 ) ;
#588 = AXIS2_PLACEMENT_3D ( 'NONE', #1028, #940, #5 ) ;
#589 = DIRECTION ( 'NONE',  ( -1.000000000000000000, 0.0000000000000000000, 2.168404344971008868E-16 ) ) ;
#590 = FACE_OUTER_BOUND ( 'NONE', #1012, .T. ) ;
#591 = CARTESIAN_POINT ( 'NONE',  ( 0.5999999999999999778, 0.5500000000000000444, -0.4749999999999997558 ) ) ;
#592 = ORIENTED_EDGE ( 'NONE', *, *, #859, .T. ) ;
#593 = CARTESIAN_POINT ( 'NONE',  ( 0.9499999999999996225, 0.5500000000000000444, -0.6249999999999998890 ) ) ;
#594 = DIRECTION ( 'NONE',  ( -1.000000000000000000, 0.0000000000000000000, 1.141265444721583757E-16 ) ) ;
#595 = FILL_AREA_STYLE_COLOUR ( '', #1060 ) ;
#596 = ORIENTED_EDGE ( 'NONE', *, *, #703, .T. ) ;
#597 = ADVANCED_FACE ( 'NONE', ( #937 ), #850, .T. ) ;
#598 = DIRECTION ( 'NONE',  ( -2.282530889443167515E-16, -4.701977403289149484E-32, -1.000000000000000000 ) ) ;
#599 = CARTESIAN_POINT ( 'NONE',  ( -0.6000000000000004219, -0.001000000000000132727, 0.4750000000000002554 ) ) ;
#600 = VERTEX_POINT ( 'NONE', #626 ) ;
#601 = EDGE_CURVE ( 'NONE', #585, #27, #720, .T. ) ;
#602 = VECTOR ( 'NONE', #899, 1000.000000000000000 ) ;
#603 = CARTESIAN_POINT ( 'NONE',  ( -1.000000000000000444, -1.626303258728256651E-16, 0.6250000000000002220 ) ) ;
#604 = AXIS2_PLACEMENT_3D ( 'NONE', #400, #1061, #492 ) ;
#605 = EDGE_CURVE ( 'NONE', #926, #278, #637, .T. ) ;
#606 = ORIENTED_EDGE ( 'NONE', *, *, #273, .T. ) ;
#607 = DIRECTION ( 'NONE',  ( 4.701977403289150032E-32, -4.701977403289150579E-32, 1.000000000000000000 ) ) ;
#608 = ADVANCED_FACE ( 'NONE', ( #529 ), #911, .F. ) ;
#609 = CARTESIAN_POINT ( 'NONE',  ( 1.000000000000000000, 0.6000000000000000888, -0.6250000000000002220 ) ) ;
#610 = EDGE_LOOP ( 'NONE', ( #128, #596, #340, #251 ) ) ;
#611 = ORIENTED_EDGE ( 'NONE', *, *, #484, .F. ) ;
#612 = CARTESIAN_POINT ( 'NONE',  ( 0.9500000000000001776, 0.04999999999999996808, -0.6250000000000001110 ) ) ;
#613 = ORIENTED_EDGE ( 'NONE', *, *, #307, .F. ) ;
#614 = CARTESIAN_POINT ( 'NONE',  ( -0.8500000000000001998, 0.5999999999999999778, 0.6250000000000003331 ) ) ;
#615 = ORIENTED_EDGE ( 'NONE', *, *, #422, .T. ) ;
#616 = FACE_OUTER_BOUND ( 'NONE', #238, .T. ) ;
#617 = MANIFOLD_SOLID_BREP ( 'Extruir4[1]', #292 ) ;
#618 = PRESENTATION_LAYER_ASSIGNMENT (  '', '', ( #787 ) ) ;
#619 = DIRECTION ( 'NONE',  ( -1.000000000000000000, -2.710505431213760592E-16, 2.282530889443167515E-16 ) ) ;
#620 = VECTOR ( 'NONE', #1011, 1000.000000000000000 ) ;
#621 = ORIENTED_EDGE ( 'NONE', *, *, #1154, .T. ) ;
#622 = VECTOR ( 'NONE', #1119, 1000.000000000000000 ) ;
#623 = CARTESIAN_POINT ( 'NONE',  ( -0.6000000000000004219, -0.001000000000000132727, 0.4750000000000002554 ) ) ;
#624 = ORIENTED_EDGE ( 'NONE', *, *, #228, .F. ) ;
#625 = EDGE_CURVE ( 'NONE', #726, #389, #441, .T. ) ;
#626 = CARTESIAN_POINT ( 'NONE',  ( 0.8500000000000000888, 0.5500000000000001554, 0.6249999999999998890 ) ) ;
#627 = VERTEX_POINT ( 'NONE', #16 ) ;
#628 = PLANE ( 'NONE',  #231 ) ;
#629 = ORIENTED_EDGE ( 'NONE', *, *, #947, .T. ) ;
#630 = EDGE_CURVE ( 'NONE', #558, #709, #113, .T. ) ;
#631 = FACE_OUTER_BOUND ( 'NONE', #377, .T. ) ;
#632 = SURFACE_SIDE_STYLE ('',( #185 ) ) ;
#633 = DIRECTION ( 'NONE',  ( 1.000000000000000000, 0.0000000000000000000, 1.734723475976807094E-16 ) ) ;
#634 = DIRECTION ( 'NONE',  ( 2.710505431213760592E-16, 1.000000000000000000, 4.701977403289148390E-32 ) ) ;
#635 = LINE ( 'NONE', #1100, #620 ) ;
#636 = VERTEX_POINT ( 'NONE', #294 ) ;
#637 = LINE ( 'NONE', #154, #1037 ) ;
#638 =( NAMED_UNIT ( * ) SI_UNIT ( $, .STERADIAN. ) SOLID_ANGLE_UNIT ( ) );
#639 = VECTOR ( 'NONE', #757, 1000.000000000000000 ) ;
#640 = ADVANCED_FACE ( 'NONE', ( #1130 ), #771, .F. ) ;
#641 = CARTESIAN_POINT ( 'NONE',  ( 0.6000000000000003109, 0.5999999999999999778, 0.6250000000000001110 ) ) ;
#642 = ORIENTED_EDGE ( 'NONE', *, *, #1224, .T. ) ;
#643 = CARTESIAN_POINT ( 'NONE',  ( 0.8499999999999999778, 0.5999999999999995337, -0.6249999999999998890 ) ) ;
#644 = EDGE_LOOP ( 'NONE', ( #945, #866, #551, #629, #966, #420, #651, #447 ) ) ;
#645 =( NAMED_UNIT ( * ) PLANE_ANGLE_UNIT ( ) SI_UNIT ( $, .RADIAN. ) );
#646 = DIRECTION ( 'NONE',  ( 2.710505431213760592E-16, 1.000000000000000000, 4.701977403289148390E-32 ) ) ;
#647 = FACE_OUTER_BOUND ( 'NONE', #1126, .T. ) ;
#648 = EDGE_CURVE ( 'NONE', #991, #99, #1143, .T. ) ;
#649 = LINE ( 'NONE', #1225, #164 ) ;
#650 = CARTESIAN_POINT ( 'NONE',  ( 2.225999600319680916, 0.5500000000000004885, -0.6250000000000004441 ) ) ;
#651 = ORIENTED_EDGE ( 'NONE', *, *, #391, .F. ) ;
#652 = LINE ( 'NONE', #1095, #668 ) ;
#653 = CARTESIAN_POINT ( 'NONE',  ( 0.6000000000000000888, 0.5999999999999999778, -0.6249999999999996669 ) ) ;
#654 = PLANE ( 'NONE',  #588 ) ;
#655 = DIRECTION ( 'NONE',  ( 0.0000000000000000000, 1.000000000000000000, 2.168404344971012812E-15 ) ) ;
#656 = LINE ( 'NONE', #1045, #687 ) ;
#657 = ADVANCED_FACE ( 'NONE', ( #756 ), #678, .F. ) ;
#658 = UNCERTAINTY_MEASURE_WITH_UNIT (LENGTH_MEASURE( 1.000000000000000082E-05 ), #20, 'distance_accuracy_value', 'NONE');
#659 = ADVANCED_FACE ( 'NONE', ( #578 ), #285, .F. ) ;
#660 = CARTESIAN_POINT ( 'NONE',  ( -0.9500000000000000666, 0.04999999999999999584, -0.6250000000000000000 ) ) ;
#661 = DIRECTION ( 'NONE',  ( 0.0000000000000000000, -1.000000000000000000, 0.0000000000000000000 ) ) ;
#662 = CARTESIAN_POINT ( 'NONE',  ( 1.850999600319680916, 0.5999999999999999778, -0.6249999999999994449 ) ) ;
#663 = CLOSED_SHELL ( 'NONE', ( #1002, #360, #696, #530, #802, #657 ) ) ;
#664 = DIRECTION ( 'NONE',  ( -1.000000000000000000, 3.761581922631326594E-31, -1.734723475976807094E-16 ) ) ;
#665 = PLANE ( 'NONE',  #1159 ) ;
#666 =( GEOMETRIC_REPRESENTATION_CONTEXT ( 3 ) GLOBAL_UNCERTAINTY_ASSIGNED_CONTEXT ( ( #496 ) ) GLOBAL_UNIT_ASSIGNED_CONTEXT ( ( #155, #60, #638 ) ) REPRESENTATION_CONTEXT ( 'NONE', 'WORKASPACE' ) );
#667 = ORIENTED_EDGE ( 'NONE', *, *, #504, .T. ) ;
#668 = VECTOR ( 'NONE', #1196, 1000.000000000000000 ) ;
#669 = AXIS2_PLACEMENT_3D ( 'NONE', #171, #369, #68 ) ;
#670 = EDGE_CURVE ( 'NONE', #284, #36, #1033, .T. ) ;
#671 = DIRECTION ( 'NONE',  ( -2.282530889443167022E-16, -4.701977403289150032E-32, -1.000000000000000000 ) ) ;
#672 = LINE ( 'NONE', #405, #1076 ) ;
#673 = PLANE ( 'NONE',  #540 ) ;
#674 = VERTEX_POINT ( 'NONE', #100 ) ;
#675 = DIRECTION ( 'NONE',  ( -1.000000000000000000, 2.710505431213760592E-16, 0.0000000000000000000 ) ) ;
#676 = CARTESIAN_POINT ( 'NONE',  ( -0.9500000000000000666, 0.04999999999999999584, 0.6250000000000002220 ) ) ;
#677 = ORIENTED_EDGE ( 'NONE', *, *, #844, .F. ) ;
#678 = PLANE ( 'NONE',  #961 ) ;
#679 = CARTESIAN_POINT ( 'NONE',  ( 0.5999999999999998668, 0.5500000000000000444, -0.6249999999999996669 ) ) ;
#680 = APPLICATION_PROTOCOL_DEFINITION ( 'draft international standard', 'automotive_design', 1998, #223 ) ;
#681 = EDGE_CURVE ( 'NONE', #263, #55, #1221, .T. ) ;
#682 = CARTESIAN_POINT ( 'NONE',  ( -0.8500000000000000888, 0.5500000000000001554, -0.6249999999999998890 ) ) ;
#683 = EDGE_LOOP ( 'NONE', ( #1081, #421, #1151, #929 ) ) ;
#684 = STYLED_ITEM ( 'NONE', ( #851 ), #234 ) ;
#685 = VERTEX_POINT ( 'NONE', #306 ) ;
#686 = CARTESIAN_POINT ( 'NONE',  ( 0.9499999999999996225, 0.5500000000000000444, -0.6249999999999998890 ) ) ;
#687 = VECTOR ( 'NONE', #835, 1000.000000000000000 ) ;
#688 =( GEOMETRIC_REPRESENTATION_CONTEXT ( 3 ) GLOBAL_UNCERTAINTY_ASSIGNED_CONTEXT ( ( #317 ) ) GLOBAL_UNIT_ASSIGNED_CONTEXT ( ( #784, #494, #1050 ) ) REPRESENTATION_CONTEXT ( 'NONE', 'WORKASPACE' ) );
#689 =( NAMED_UNIT ( * ) SI_UNIT ( $, .STERADIAN. ) SOLID_ANGLE_UNIT ( ) );
#690 = ADVANCED_FACE ( 'NONE', ( #206 ), #871, .T. ) ;
#691 = VERTEX_POINT ( 'NONE', #404 ) ;
#692 = DIRECTION ( 'NONE',  ( -0.0000000000000000000, -1.000000000000000000, -0.0000000000000000000 ) ) ;
#693 = DIRECTION ( 'NONE',  ( 2.710505431213760592E-16, 1.000000000000000000, 4.701977403289148390E-32 ) ) ;
#694 = DIRECTION ( 'NONE',  ( 2.282530889443167515E-16, 4.701977403289149484E-32, 1.000000000000000000 ) ) ;
#695 = ORIENTED_EDGE ( 'NONE', *, *, #228, .T. ) ;
#696 = ADVANCED_FACE ( 'NONE', ( #3 ), #781, .F. ) ;
#697 = EDGE_CURVE ( 'NONE', #284, #370, #380, .T. ) ;
#698 = LINE ( 'NONE', #31, #865 ) ;
#699 = LINE ( 'NONE', #230, #424 ) ;
#700 = CARTESIAN_POINT ( 'NONE',  ( 0.5999999999999996447, 0.5500000000000000444, -0.4749999999999998113 ) ) ;
#701 = EDGE_LOOP ( 'NONE', ( #1071, #104, #840, #987, #875, #1001, #1141, #780 ) ) ;
#702 = VECTOR ( 'NONE', #1068, 1000.000000000000000 ) ;
#703 = EDGE_CURVE ( 'NONE', #1147, #510, #198, .T. ) ;
#704 = DIRECTION ( 'NONE',  ( 1.734723475976806848E-16, 0.0000000000000000000, -1.000000000000000000 ) ) ;
#705 = VECTOR ( 'NONE', #445, 1000.000000000000000 ) ;
#706 = DIRECTION ( 'NONE',  ( -1.000000000000000000, 0.0000000000000000000, -1.734723475976807587E-16 ) ) ;
#707 = ORIENTED_EDGE ( 'NONE', *, *, #172, .T. ) ;
#708 = ADVANCED_BREP_SHAPE_REPRESENTATION ( 'User Library-CR2012-0805', ( #234, #1057, #617, #240, #296 ), #688 ) ;
#709 = VERTEX_POINT ( 'NONE', #593 ) ;
#710 = LINE ( 'NONE', #890, #977 ) ;
#711 = EDGE_CURVE ( 'NONE', #1205, #951, #573, .T. ) ;
#712 = VERTEX_POINT ( 'NONE', #614 ) ;
#713 = CARTESIAN_POINT ( 'NONE',  ( -0.9500000000000002887, 0.5500000000000000444, -0.6249999999999996669 ) ) ;
#714 = ORIENTED_EDGE ( 'NONE', *, *, #697, .T. ) ;
#715 = LINE ( 'NONE', #341, #1175 ) ;
#716 = LINE ( 'NONE', #990, #105 ) ;
#717 = ORIENTED_EDGE ( 'NONE', *, *, #291, .F. ) ;
#718 = DIRECTION ( 'NONE',  ( -0.0000000000000000000, 1.000000000000000000, -0.0000000000000000000 ) ) ;
#719 = ORIENTED_EDGE ( 'NONE', *, *, #724, .F. ) ;
#720 = LINE ( 'NONE', #916, #28 ) ;
#721 = AXIS2_PLACEMENT_3D ( 'NONE', #159, #824, #930 ) ;
#722 = VERTEX_POINT ( 'NONE', #51 ) ;
#723 = LINE ( 'NONE', #255, #768 ) ;
#724 = EDGE_CURVE ( 'NONE', #179, #99, #992, .T. ) ;
#725 = APPLICATION_CONTEXT ( 'automotive_design' ) ;
#726 = VERTEX_POINT ( 'NONE', #23 ) ;
#727 = DIRECTION ( 'NONE',  ( 1.000000000000000000, 0.0000000000000000000, 0.0000000000000000000 ) ) ;
#728 = SURFACE_STYLE_USAGE ( .BOTH. , #1215 ) ;
#729 = FACE_OUTER_BOUND ( 'NONE', #200, .T. ) ;
#730 = LINE ( 'NONE', #195, #464 ) ;
#731 = CARTESIAN_POINT ( 'NONE',  ( -0.5999999999999999778, 0.5999999999999999778, -0.6249999999999998890 ) ) ;
#732 = ORIENTED_EDGE ( 'NONE', *, *, #601, .T. ) ;
#733 = DIRECTION ( 'NONE',  ( 2.710505431213760592E-16, -1.000000000000000000, -1.088878977603803073E-31 ) ) ;
#734 = FACE_OUTER_BOUND ( 'NONE', #439, .T. ) ;
#735 = EDGE_LOOP ( 'NONE', ( #428, #175, #1087, #141 ) ) ;
#736 = DIRECTION ( 'NONE',  ( 1.000000000000000000, -2.710505431213760592E-16, 0.0000000000000000000 ) ) ;
#737 = VERTEX_POINT ( 'NONE', #1000 ) ;
#738 = DIRECTION ( 'NONE',  ( 2.282530889443167022E-16, -4.701977403289150579E-32, 1.000000000000000000 ) ) ;
#739 = EDGE_CURVE ( 'NONE', #323, #915, #815, .T. ) ;
#740 = VECTOR ( 'NONE', #544, 1000.000000000000000 ) ;
#741 = DIRECTION ( 'NONE',  ( -2.282530889443167515E-16, 0.0000000000000000000, -1.000000000000000000 ) ) ;
#742 = MECHANICAL_DESIGN_GEOMETRIC_PRESENTATION_REPRESENTATION (  '', ( #684 ), #560 ) ;
#743 = EDGE_LOOP ( 'NONE', ( #353, #836, #18, #189 ) ) ;
#744 = CARTESIAN_POINT ( 'NONE',  ( 0.9500000000000001776, 0.04999999999999991257, -0.6250000000000001110 ) ) ;
#745 = STYLED_ITEM ( 'NONE', ( #1103 ), #617 ) ;
#746 = AXIS2_PLACEMENT_3D ( 'NONE', #964, #114, #102 ) ;
#747 = ORIENTED_EDGE ( 'NONE', *, *, #54, .F. ) ;
#748 = PRODUCT_DEFINITION_SHAPE ( 'NONE', 'NONE',  #1184 ) ;
#749 =( LENGTH_UNIT ( ) NAMED_UNIT ( * ) SI_UNIT ( .MILLI., .METRE. ) );
#750 = EDGE_CURVE ( 'NONE', #558, #232, #903, .T. ) ;
#751 = CARTESIAN_POINT ( 'NONE',  ( 1.000000000000000666, 0.6000000000000004219, 0.6250000000000000000 ) ) ;
#752 = FACE_OUTER_BOUND ( 'NONE', #1129, .T. ) ;
#753 = DIRECTION ( 'NONE',  ( 5.877471754111447174E-31, 2.168404344971012812E-15, -1.000000000000000000 ) ) ;
#754 = CARTESIAN_POINT ( 'NONE',  ( -0.8500000000000001998, -0.001000000000000132727, -0.6249999999999998890 ) ) ;
#755 = ORIENTED_EDGE ( 'NONE', *, *, #829, .F. ) ;
#756 = FACE_OUTER_BOUND ( 'NONE', #988, .T. ) ;
#757 = DIRECTION ( 'NONE',  ( 1.734723475976807094E-16, 0.0000000000000000000, 1.000000000000000000 ) ) ;
#758 = LINE ( 'NONE', #545, #29 ) ;
#759 = ORIENTED_EDGE ( 'NONE', *, *, #146, .T. ) ;
#760 = DIRECTION ( 'NONE',  ( -2.710505431213760592E-16, 1.000000000000000000, 1.088878977603803073E-31 ) ) ;
#761 = EDGE_CURVE ( 'NONE', #465, #1147, #222, .T. ) ;
#762 = ORIENTED_EDGE ( 'NONE', *, *, #71, .F. ) ;
#763 = CARTESIAN_POINT ( 'NONE',  ( 0.9499999999999996225, 0.5500000000000000444, -0.6249999999999998890 ) ) ;
#764 = CARTESIAN_POINT ( 'NONE',  ( -0.6000000000000001998, 0.5999999999999999778, 0.4750000000000002554 ) ) ;
#765 = CLOSED_SHELL ( 'NONE', ( #59, #221, #1178, #659, #1142, #249 ) ) ;
#766 = CARTESIAN_POINT ( 'NONE',  ( -0.9500000000000000666, 0.04999999999999999584, -0.6250000000000000000 ) ) ;
#767 = EDGE_LOOP ( 'NONE', ( #246, #22, #960, #606 ) ) ;
#768 = VECTOR ( 'NONE', #151, 1000.000000000000000 ) ;
#769 = ADVANCED_FACE ( 'NONE', ( #1086 ), #350, .F. ) ;
#770 = AXIS2_PLACEMENT_3D ( 'NONE', #1063, #397, #34 ) ;
#771 = PLANE ( 'NONE',  #604 ) ;
#772 = LINE ( 'NONE', #872, #107 ) ;
#773 = PLANE ( 'NONE',  #541 ) ;
#774 = ORIENTED_EDGE ( 'NONE', *, *, #859, .F. ) ;
#775 = DIRECTION ( 'NONE',  ( 1.000000000000000000, -4.336808689942017736E-16, -6.505213034913026604E-16 ) ) ;
#776 = EDGE_CURVE ( 'NONE', #55, #137, #241, .T. ) ;
#777 = DIRECTION ( 'NONE',  ( 4.017254365419974609E-16, -2.163653586757409554E-46, 1.000000000000000000 ) ) ;
#778 = FILL_AREA_STYLE ('',( #595 ) ) ;
#779 = ORIENTED_EDGE ( 'NONE', *, *, #670, .T. ) ;
#780 = ORIENTED_EDGE ( 'NONE', *, *, #818, .F. ) ;
#781 = PLANE ( 'NONE',  #1214 ) ;
#782 = DIRECTION ( 'NONE',  ( 1.274473528905961335E-47, 4.701977403289149484E-32, -1.000000000000000000 ) ) ;
#783 = EDGE_CURVE ( 'NONE', #328, #816, #635, .T. ) ;
#784 =( LENGTH_UNIT ( ) NAMED_UNIT ( * ) SI_UNIT ( .MILLI., .METRE. ) );
#785 = CARTESIAN_POINT ( 'NONE',  ( 0.6000000000000001998, 0.5999999999999996447, 0.4750000000000002554 ) ) ;
#786 = ORIENTED_EDGE ( 'NONE', *, *, #724, .T. ) ;
#787 = STYLED_ITEM ( 'NONE', ( #67 ), #240 ) ;
#788 = CARTESIAN_POINT ( 'NONE',  ( -0.6000000000000001998, -5.877471754111438635E-32, -0.6250000000000002220 ) ) ;
#789 = VECTOR ( 'NONE', #247, 1000.000000000000000 ) ;
#790 =( GEOMETRIC_REPRESENTATION_CONTEXT ( 3 ) GLOBAL_UNCERTAINTY_ASSIGNED_CONTEXT ( ( #1128 ) ) GLOBAL_UNIT_ASSIGNED_CONTEXT ( ( #406, #204, #689 ) ) REPRESENTATION_CONTEXT ( 'NONE', 'WORKASPACE' ) );
#791 = LINE ( 'NONE', #1162, #425 ) ;
#792 = DIRECTION ( 'NONE',  ( 1.000000000000000000, 0.0000000000000000000, 0.0000000000000000000 ) ) ;
#793 = EDGE_CURVE ( 'NONE', #99, #910, #723, .T. ) ;
#794 = FACE_OUTER_BOUND ( 'NONE', #398, .T. ) ;
#795 = EDGE_CURVE ( 'NONE', #737, #46, #1187, .T. ) ;
#796 = VERTEX_POINT ( 'NONE', #909 ) ;
#797 = CARTESIAN_POINT ( 'NONE',  ( 0.5999999999999998668, 0.5500000000000000444, 0.4750000000000002554 ) ) ;
#798 = CARTESIAN_POINT ( 'NONE',  ( -0.6000000000000003109, 0.5500000000000000444, 0.4750000000000002554 ) ) ;
#799 = DIRECTION ( 'NONE',  ( 0.0000000000000000000, -1.000000000000000000, 0.0000000000000000000 ) ) ;
#800 = SURFACE_STYLE_USAGE ( .BOTH. , #21 ) ;
#801 = ORIENTED_EDGE ( 'NONE', *, *, #78, .F. ) ;
#802 = ADVANCED_FACE ( 'NONE', ( #408 ), #628, .F. ) ;
#803 = LINE ( 'NONE', #599, #917 ) ;
#804 = ORIENTED_EDGE ( 'NONE', *, *, #761, .F. ) ;
#805 = EDGE_CURVE ( 'NONE', #951, #712, #1005, .T. ) ;
#806 = EDGE_LOOP ( 'NONE', ( #832, #92, #82, #506 ) ) ;
#807 = AXIS2_PLACEMENT_3D ( 'NONE', #901, #819, #706 ) ;
#808 = VECTOR ( 'NONE', #775, 1000.000000000000000 ) ;
#809 = COLOUR_RGB ( '',0.8980392156862745390, 0.9176470588235293713, 0.9294117647058823817 ) ;
#810 = ORIENTED_EDGE ( 'NONE', *, *, #905, .T. ) ;
#811 = ORIENTED_EDGE ( 'NONE', *, *, #54, .T. ) ;
#812 = LINE ( 'NONE', #416, #109 ) ;
#813 = CARTESIAN_POINT ( 'NONE',  ( 0.8499999999999999778, 0.5999999999999995337, -0.4749999999999999778 ) ) ;
#814 = EDGE_LOOP ( 'NONE', ( #810, #458, #1112, #359, #133, #1052, #774, #111 ) ) ;
#815 = LINE ( 'NONE', #440, #167 ) ;
#816 = VERTEX_POINT ( 'NONE', #788 ) ;
#817 = CARTESIAN_POINT ( 'NONE',  ( -0.9500000000000002887, 0.5500000000000000444, -0.6249999999999996669 ) ) ;
#818 = EDGE_CURVE ( 'NONE', #674, #685, #1199, .T. ) ;
#819 = DIRECTION ( 'NONE',  ( 1.734723475976807587E-16, 0.0000000000000000000, -1.000000000000000000 ) ) ;
#820 = ORIENTED_EDGE ( 'NONE', *, *, #443, .F. ) ;
#821 = CARTESIAN_POINT ( 'NONE',  ( 2.225999600319680916, 0.6000000000000004219, -0.6250000000000004441 ) ) ;
#822 = ORIENTED_EDGE ( 'NONE', *, *, #336, .T. ) ;
#823 = VECTOR ( 'NONE', #664, 1000.000000000000000 ) ;
#824 = DIRECTION ( 'NONE',  ( 1.141265444721583757E-16, -0.0000000000000000000, 1.000000000000000000 ) ) ;
#825 = VECTOR ( 'NONE', #435, 1000.000000000000000 ) ;
#826 = VECTOR ( 'NONE', #157, 1000.000000000000000 ) ;
#827 = LINE ( 'NONE', #751, #1113 ) ;
#828 =( GEOMETRIC_REPRESENTATION_CONTEXT ( 3 ) GLOBAL_UNCERTAINTY_ASSIGNED_CONTEXT ( ( #658 ) ) GLOBAL_UNIT_ASSIGNED_CONTEXT ( ( #20, #218, #968 ) ) REPRESENTATION_CONTEXT ( 'NONE', 'WORKASPACE' ) );
#829 = EDGE_CURVE ( 'NONE', #636, #908, #358, .T. ) ;
#830 = ORIENTED_EDGE ( 'NONE', *, *, #1049, .T. ) ;
#831 = CARTESIAN_POINT ( 'NONE',  ( -0.9500000000000000666, 0.5500000000000001554, 0.6250000000000001110 ) ) ;
#832 = ORIENTED_EDGE ( 'NONE', *, *, #430, .T. ) ;
#833 = LINE ( 'NONE', #838, #881 ) ;
#834 = DIRECTION ( 'NONE',  ( 1.000000000000000000, 0.0000000000000000000, -2.282530889443167022E-16 ) ) ;
#835 = DIRECTION ( 'NONE',  ( 2.710505431213760592E-16, 1.000000000000000000, 4.701977403289148390E-32 ) ) ;
#836 = ORIENTED_EDGE ( 'NONE', *, *, #172, .F. ) ;
#837 = EDGE_CURVE ( 'NONE', #514, #913, #433, .T. ) ;
#838 = CARTESIAN_POINT ( 'NONE',  ( 0.8499999999999997558, -0.001000000000000566408, -0.6249999999999998890 ) ) ;
#839 = CARTESIAN_POINT ( 'NONE',  ( 0.6000000000000001998, 0.02500000000000002567, -1.369518533665901051E-16 ) ) ;
#840 = ORIENTED_EDGE ( 'NONE', *, *, #986, .F. ) ;
#841 = PLANE ( 'NONE',  #885 ) ;
#842 = ORIENTED_EDGE ( 'NONE', *, *, #307, .T. ) ;
#843 = DIRECTION ( 'NONE',  ( 1.000000000000000000, 0.0000000000000000000, 6.505213034913025618E-16 ) ) ;
#844 = EDGE_CURVE ( 'NONE', #1205, #737, #914, .T. ) ;
#845 = VECTOR ( 'NONE', #782, 1000.000000000000000 ) ;
#846 = ORIENTED_EDGE ( 'NONE', *, *, #630, .T. ) ;
#847 = DIRECTION ( 'NONE',  ( -1.000000000000000000, 0.0000000000000000000, 2.282530889443167022E-16 ) ) ;
#848 = VECTOR ( 'NONE', #1204, 1000.000000000000000 ) ;
#849 = ORIENTED_EDGE ( 'NONE', *, *, #153, .T. ) ;
#850 = PLANE ( 'NONE',  #882 ) ;
#851 = PRESENTATION_STYLE_ASSIGNMENT (( #556 ) ) ;
#852 = ADVANCED_FACE ( 'NONE', ( #262 ), #1167, .F. ) ;
#853 = CARTESIAN_POINT ( 'NONE',  ( 1.850999600319680471, 0.5500000000000000444, 0.6250000000000006661 ) ) ;
#854 = LINE ( 'NONE', #1140, #144 ) ;
#855 = VERTEX_POINT ( 'NONE', #971 ) ;
#856 = DIRECTION ( 'NONE',  ( -1.000000000000000000, 0.0000000000000000000, 4.701977403289149484E-32 ) ) ;
#857 = LINE ( 'NONE', #488, #330 ) ;
#858 = PLANE ( 'NONE',  #944 ) ;
#859 = EDGE_CURVE ( 'NONE', #370, #1031, #501, .T. ) ;
#860 = CARTESIAN_POINT ( 'NONE',  ( 0.8499999999999998668, 0.5500000000000001554, -0.6249999999999998890 ) ) ;
#861 = ORIENTED_EDGE ( 'NONE', *, *, #630, .F. ) ;
#862 = DIRECTION ( 'NONE',  ( 1.000000000000000000, -2.710505431213760592E-16, -0.0000000000000000000 ) ) ;
#863 = CARTESIAN_POINT ( 'NONE',  ( 0.6000000000000003109, 0.5999999999999999778, 0.6250000000000012212 ) ) ;
#864 = FACE_OUTER_BOUND ( 'NONE', #610, .T. ) ;
#865 = VECTOR ( 'NONE', #607, 1000.000000000000000 ) ;
#866 = ORIENTED_EDGE ( 'NONE', *, *, #422, .F. ) ;
#867 = VECTOR ( 'NONE', #253, 1000.000000000000000 ) ;
#868 = FACE_OUTER_BOUND ( 'NONE', #197, .T. ) ;
#869 = ORIENTED_EDGE ( 'NONE', *, *, #117, .T. ) ;
#870 = ADVANCED_FACE ( 'NONE', ( #1019 ), #6, .F. ) ;
#871 = PLANE ( 'NONE',  #1015 ) ;
#872 = CARTESIAN_POINT ( 'NONE',  ( -1.000000000000000222, 0.6000000000000000888, 0.6250000000000002220 ) ) ;
#873 = FILL_AREA_STYLE ('',( #210 ) ) ;
#874 = DIRECTION ( 'NONE',  ( 1.000000000000000000, 0.0000000000000000000, -4.701977403289150032E-32 ) ) ;
#875 = ORIENTED_EDGE ( 'NONE', *, *, #581, .T. ) ;
#876 = CARTESIAN_POINT ( 'NONE',  ( -0.8500000000000004219, -0.001000000000000132727, 0.6250000000000003331 ) ) ;
#877 = LINE ( 'NONE', #1144, #518 ) ;
#878 = EDGE_CURVE ( 'NONE', #816, #475, #1024, .T. ) ;
#879 = LINE ( 'NONE', #785, #1160 ) ;
#880 = ORIENTED_EDGE ( 'NONE', *, *, #892, .T. ) ;
#881 = VECTOR ( 'NONE', #646, 1000.000000000000000 ) ;
#882 = AXIS2_PLACEMENT_3D ( 'NONE', #58, #727, #1021 ) ;
#883 = CARTESIAN_POINT ( 'NONE',  ( 0.9500000000000001776, 0.04999999999999996808, -0.6250000000000001110 ) ) ;
#884 = VECTOR ( 'NONE', #304, 1000.000000000000000 ) ;
#885 = AXIS2_PLACEMENT_3D ( 'NONE', #1219, #736, #1039 ) ;
#886 = DIRECTION ( 'NONE',  ( 2.710505431213760592E-16, 1.000000000000000000, 4.701977403289148390E-32 ) ) ;
#887 = CARTESIAN_POINT ( 'NONE',  ( 0.0000000000000000000, 0.0000000000000000000, 0.0000000000000000000 ) ) ;
#888 = ADVANCED_FACE ( 'NONE', ( #70 ), #180, .F. ) ;
#889 = EDGE_LOOP ( 'NONE', ( #1093, #1101, #1186, #357 ) ) ;
#890 = CARTESIAN_POINT ( 'NONE',  ( -0.6000000000000001998, 0.5500000000000000444, 0.6250000000000002220 ) ) ;
#891 = LINE ( 'NONE', #1089, #390 ) ;
#892 = EDGE_CURVE ( 'NONE', #429, #1147, #188, .T. ) ;
#893 = ORIENTED_EDGE ( 'NONE', *, *, #476, .T. ) ;
#894 = ORIENTED_EDGE ( 'NONE', *, *, #459, .F. ) ;
#895 = LINE ( 'NONE', #906, #392 ) ;
#896 = ORIENTED_EDGE ( 'NONE', *, *, #190, .F. ) ;
#897 = EDGE_LOOP ( 'NONE', ( #801, #538, #1209, #747 ) ) ;
#898 = ADVANCED_FACE ( 'NONE', ( #559 ), #673, .F. ) ;
#899 = DIRECTION ( 'NONE',  ( 1.000000000000000000, -2.710505431213760592E-16, -2.168404344971008868E-16 ) ) ;
#900 = VECTOR ( 'NONE', #108, 1000.000000000000000 ) ;
#901 = CARTESIAN_POINT ( 'NONE',  ( 1.850999600319680471, 0.5999999999999999778, 0.6250000000000006661 ) ) ;
#902 = EDGE_LOOP ( 'NONE', ( #621, #344, #1053, #893 ) ) ;
#903 = LINE ( 'NONE', #121, #1195 ) ;
#904 = ORIENTED_EDGE ( 'NONE', *, *, #430, .F. ) ;
#905 = EDGE_CURVE ( 'NONE', #242, #1010, #452, .T. ) ;
#906 = CARTESIAN_POINT ( 'NONE',  ( 1.850999600319680916, 0.5500000000000000444, -0.6249999999999994449 ) ) ;
#907 = LINE ( 'NONE', #149, #939 ) ;
#908 = VERTEX_POINT ( 'NONE', #552 ) ;
#909 = CARTESIAN_POINT ( 'NONE',  ( -0.8500000000000000888, 0.5500000000000001554, -0.4749999999999999778 ) ) ;
#910 = VERTEX_POINT ( 'NONE', #643 ) ;
#911 = PLANE ( 'NONE',  #978 ) ;
#912 = DIRECTION ( 'NONE',  ( 4.017254365419974609E-16, 0.0000000000000000000, 1.000000000000000000 ) ) ;
#913 = VERTEX_POINT ( 'NONE', #457 ) ;
#914 = LINE ( 'NONE', #831, #373 ) ;
#915 = VERTEX_POINT ( 'NONE', #927 ) ;
#916 = CARTESIAN_POINT ( 'NONE',  ( 1.850999600319680471, 0.5999999999999999778, 0.6250000000000006661 ) ) ;
#917 = VECTOR ( 'NONE', #129, 1000.000000000000000 ) ;
#918 = VECTOR ( 'NONE', #943, 1000.000000000000000 ) ;
#919 = FILL_AREA_STYLE ('',( #531 ) ) ;
#920 = EDGE_CURVE ( 'NONE', #429, #232, #76, .T. ) ;
#921 = ORIENTED_EDGE ( 'NONE', *, *, #35, .F. ) ;
#922 = DIRECTION ( 'NONE',  ( -2.951412382729594902E-47, -1.088878977603803073E-31, 1.000000000000000000 ) ) ;
#923 = ORIENTED_EDGE ( 'NONE', *, *, #793, .T. ) ;
#924 = DIRECTION ( 'NONE',  ( -6.505213034913025618E-16, 1.293043785904516040E-31, 1.000000000000000000 ) ) ;
#925 = PLANE ( 'NONE',  #979 ) ;
#926 = VERTEX_POINT ( 'NONE', #934 ) ;
#927 = CARTESIAN_POINT ( 'NONE',  ( -0.5999999999999999778, 0.5999999999999999778, -0.4749999999999998113 ) ) ;
#928 = EDGE_CURVE ( 'NONE', #685, #1065, #656, .T. ) ;
#929 = ORIENTED_EDGE ( 'NONE', *, *, #484, .T. ) ;
#930 = DIRECTION ( 'NONE',  ( 1.000000000000000000, 0.0000000000000000000, -1.141265444721583757E-16 ) ) ;
#931 = FILL_AREA_STYLE ('',( #368 ) ) ;
#932 = CARTESIAN_POINT ( 'NONE',  ( -1.000000000000000222, 0.0000000000000000000, 0.6250000000000002220 ) ) ;
#933 = CARTESIAN_POINT ( 'NONE',  ( 1.000000000000000000, -5.877471754111438635E-32, -0.6250000000000004441 ) ) ;
#934 = CARTESIAN_POINT ( 'NONE',  ( 0.6000000000000000888, 0.5500000000000000444, 0.6250000000000004441 ) ) ;
#935 = ORIENTED_EDGE ( 'NONE', *, *, #920, .T. ) ;
#936 = EDGE_CURVE ( 'NONE', #913, #27, #854, .T. ) ;
#937 = FACE_OUTER_BOUND ( 'NONE', #1120, .T. ) ;
#938 = DIRECTION ( 'NONE',  ( -1.000000000000000000, 3.761581922631326594E-31, 0.0000000000000000000 ) ) ;
#939 = VECTOR ( 'NONE', #49, 1000.000000000000000 ) ;
#940 = DIRECTION ( 'NONE',  ( 1.000000000000000000, -2.710505431213760592E-16, 0.0000000000000000000 ) ) ;
#941 = COLOUR_RGB ( '',0.8980392156862745390, 0.9176470588235293713, 0.9294117647058823817 ) ;
#942 = FACE_OUTER_BOUND ( 'NONE', #897, .T. ) ;
#943 = DIRECTION ( 'NONE',  ( 0.0000000000000000000, 1.000000000000000000, -0.0000000000000000000 ) ) ;
#944 = AXIS2_PLACEMENT_3D ( 'NONE', #932, #280, #363 ) ;
#945 = ORIENTED_EDGE ( 'NONE', *, *, #829, .T. ) ;
#946 = CARTESIAN_POINT ( 'NONE',  ( 0.5999999999999999778, 0.5999999999999996447, -0.4749999999999998113 ) ) ;
#947 = EDGE_CURVE ( 'NONE', #726, #407, #384, .T. ) ;
#948 = DIRECTION ( 'NONE',  ( -2.282530889443167022E-16, 4.701977403289150032E-32, -1.000000000000000000 ) ) ;
#949 = ORIENTED_EDGE ( 'NONE', *, *, #605, .T. ) ;
#950 = CARTESIAN_POINT ( 'NONE',  ( -0.6000000000000001998, 0.3000000000000000444, -0.6249999999999998890 ) ) ;
#951 = VERTEX_POINT ( 'NONE', #83 ) ;
#952 = CARTESIAN_POINT ( 'NONE',  ( 0.9500000000000001776, 0.04999999999999991257, -0.6250000000000001110 ) ) ;
#953 = DIRECTION ( 'NONE',  ( 1.000000000000000000, 0.0000000000000000000, -6.505213034913025618E-16 ) ) ;
#954 = CARTESIAN_POINT ( 'NONE',  ( -1.000000000000000222, -5.877471754111438635E-32, -0.6250000000000002220 ) ) ;
#955 = ORIENTED_EDGE ( 'NONE', *, *, #181, .T. ) ;
#956 = CARTESIAN_POINT ( 'NONE',  ( 1.850999600319680471, 0.5999999999999999778, 0.6250000000000006661 ) ) ;
#957 = LINE ( 'NONE', #764, #1014 ) ;
#958 = AXIS2_PLACEMENT_3D ( 'NONE', #455, #450, #912 ) ;
#959 = EDGE_CURVE ( 'NONE', #685, #600, #1132, .T. ) ;
#960 = ORIENTED_EDGE ( 'NONE', *, *, #324, .F. ) ;
#961 = AXIS2_PLACEMENT_3D ( 'NONE', #660, #301, #565 ) ;
#962 = VECTOR ( 'NONE', #417, 1000.000000000000000 ) ;
#963 = DIRECTION ( 'NONE',  ( 4.701977403289149484E-32, 0.0000000000000000000, 1.000000000000000000 ) ) ;
#964 = CARTESIAN_POINT ( 'NONE',  ( 0.5999999999999999778, -0.001000000000000457988, 0.4750000000000002554 ) ) ;
#965 = UNCERTAINTY_MEASURE_WITH_UNIT (LENGTH_MEASURE( 1.000000000000000082E-05 ), #1207, 'distance_accuracy_value', 'NONE');
#966 = ORIENTED_EDGE ( 'NONE', *, *, #1118, .T. ) ;
#967 = LINE ( 'NONE', #401, #209 ) ;
#968 =( NAMED_UNIT ( * ) SI_UNIT ( $, .STERADIAN. ) SOLID_ANGLE_UNIT ( ) );
#969 = CARTESIAN_POINT ( 'NONE',  ( -0.9500000000000002887, 0.5500000000000000444, -0.6249999999999996669 ) ) ;
#970 = EDGE_LOOP ( 'NONE', ( #150, #1040, #233, #227, #418, #624, #1192, #677 ) ) ;
#971 = CARTESIAN_POINT ( 'NONE',  ( -0.8500000000000001998, 0.5999999999999999778, 0.4750000000000003109 ) ) ;
#972 = ADVANCED_FACE ( 'NONE', ( #196 ), #665, .T. ) ;
#973 = LINE ( 'NONE', #235, #166 ) ;
#974 = SURFACE_STYLE_FILL_AREA ( #778 ) ;
#975 = VECTOR ( 'NONE', #546, 1000.000000000000000 ) ;
#976 = ORIENTED_EDGE ( 'NONE', *, *, #625, .T. ) ;
#977 = VECTOR ( 'NONE', #704, 1000.000000000000000 ) ;
#978 = AXIS2_PLACEMENT_3D ( 'NONE', #374, #733, #176 ) ;
#979 = AXIS2_PLACEMENT_3D ( 'NONE', #839, #1208, #741 ) ;
#980 = CARTESIAN_POINT ( 'NONE',  ( -0.9500000000000000666, 0.04999999999999999584, 0.6250000000000002220 ) ) ;
#981 = ADVANCED_FACE ( 'NONE', ( #479 ), #841, .F. ) ;
#982 = CARTESIAN_POINT ( 'NONE',  ( 0.5999999999999998668, 0.5999999999999999778, -0.6249999999999996669 ) ) ;
#983 = ORIENTED_EDGE ( 'NONE', *, *, #697, .F. ) ;
#984 = DIRECTION ( 'NONE',  ( -1.000000000000000000, 0.0000000000000000000, 2.282530889443167515E-16 ) ) ;
#985 = CARTESIAN_POINT ( 'NONE',  ( 0.6000000000000000888, -5.877471754111438635E-32, -0.6250000000000003331 ) ) ;
#986 = EDGE_CURVE ( 'NONE', #1010, #179, #1111, .T. ) ;
#987 = ORIENTED_EDGE ( 'NONE', *, *, #905, .F. ) ;
#988 = EDGE_LOOP ( 'NONE', ( #1211, #583, #132, #935 ) ) ;
#989 = DIRECTION ( 'NONE',  ( -1.000000000000000000, 3.761581922631326594E-31, -1.734723475976807094E-16 ) ) ;
#990 = CARTESIAN_POINT ( 'NONE',  ( -0.6000000000000001998, 0.04999999999999991257, -0.6249999999999998890 ) ) ;
#991 = VERTEX_POINT ( 'NONE', #268 ) ;
#992 = LINE ( 'NONE', #62, #410 ) ;
#993 = ADVANCED_FACE ( 'NONE', ( #1210 ), #371, .F. ) ;
#994 = VERTEX_POINT ( 'NONE', #115 ) ;
#995 = LINE ( 'NONE', #224, #64 ) ;
#996 = VECTOR ( 'NONE', #289, 1000.000000000000000 ) ;
#997 = PRODUCT_DEFINITION_FORMATION_WITH_SPECIFIED_SOURCE ( 'ANY', '', #448, .NOT_KNOWN. ) ;
#998 = DIRECTION ( 'NONE',  ( 3.761581922631327032E-31, -1.000000000000000000, 6.525304467998537167E-47 ) ) ;
#999 = VERTEX_POINT ( 'NONE', #954 ) ;
#1000 = CARTESIAN_POINT ( 'NONE',  ( -0.9500000000000000666, 0.05000000000000021094, 0.6250000000000001110 ) ) ;
#1001 = ORIENTED_EDGE ( 'NONE', *, *, #1165, .T. ) ;
#1002 = ADVANCED_FACE ( 'NONE', ( #864 ), #773, .F. ) ;
#1003 = LINE ( 'NONE', #1007, #867 ) ;
#1004 = ORIENTED_EDGE ( 'NONE', *, *, #7, .T. ) ;
#1005 = LINE ( 'NONE', #876, #87 ) ;
#1006 = ORIENTED_EDGE ( 'NONE', *, *, #581, .F. ) ;
#1007 = CARTESIAN_POINT ( 'NONE',  ( -0.5999999999999999778, 0.5999999999999998668, -0.4749999999999998113 ) ) ;
#1008 = EDGE_CURVE ( 'NONE', #1150, #855, #322, .T. ) ;
#1009 = DIRECTION ( 'NONE',  ( 1.734723475976807094E-16, 0.0000000000000000000, -1.000000000000000000 ) ) ;
#1010 = VERTEX_POINT ( 'NONE', #308 ) ;
#1011 = DIRECTION ( 'NONE',  ( 0.0000000000000000000, -4.701977403289149484E-32, -1.000000000000000000 ) ) ;
#1012 = EDGE_LOOP ( 'NONE', ( #1046, #414, #830, #364 ) ) ;
#1013 = VECTOR ( 'NONE', #634, 1000.000000000000000 ) ;
#1014 = VECTOR ( 'NONE', #589, 1000.000000000000000 ) ;
#1015 = AXIS2_PLACEMENT_3D ( 'NONE', #1054, #856, #963 ) ;
#1016 = ADVANCED_FACE ( 'NONE', ( #576 ), #103, .F. ) ;
#1017 = AXIS2_PLACEMENT_3D ( 'NONE', #126, #1056, #694 ) ;
#1018 = PLANE ( 'NONE',  #584 ) ;
#1019 = FACE_OUTER_BOUND ( 'NONE', #701, .T. ) ;
#1020 = ORIENTED_EDGE ( 'NONE', *, *, #39, .F. ) ;
#1021 = DIRECTION ( 'NONE',  ( 0.0000000000000000000, 0.0000000000000000000, -1.000000000000000000 ) ) ;
#1022 = DIRECTION ( 'NONE',  ( 3.761581922631326594E-31, 1.000000000000000000, 6.525304467998535223E-47 ) ) ;
#1023 = DIRECTION ( 'NONE',  ( 0.0000000000000000000, -1.000000000000000000, 0.0000000000000000000 ) ) ;
#1024 = LINE ( 'NONE', #950, #918 ) ;
#1025 = VERTEX_POINT ( 'NONE', #591 ) ;
#1026 = PLANE ( 'NONE',  #351 ) ;
#1027 = CARTESIAN_POINT ( 'NONE',  ( 1.850999600319680471, 0.5500000000000000444, 0.6250000000000006661 ) ) ;
#1028 = CARTESIAN_POINT ( 'NONE',  ( 0.8499999999999997558, -0.001000000000000566408, -0.6249999999999998890 ) ) ;
#1029 = CARTESIAN_POINT ( 'NONE',  ( -0.6000000000000001998, 0.5999999999999999778, 0.6250000000000002220 ) ) ;
#1030 = CARTESIAN_POINT ( 'NONE',  ( 2.225999600319680916, 0.5500000000000004885, -0.6250000000000004441 ) ) ;
#1031 = VERTEX_POINT ( 'NONE', #327 ) ;
#1032 = ADVANCED_FACE ( 'NONE', ( #219 ), #483, .T. ) ;
#1033 = LINE ( 'NONE', #586, #446 ) ;
#1034 = LINE ( 'NONE', #106, #466 ) ;
#1035 = MECHANICAL_DESIGN_GEOMETRIC_PRESENTATION_REPRESENTATION (  '', ( #787 ), #666 ) ;
#1036 = CARTESIAN_POINT ( 'NONE',  ( 0.5999999999999998668, 0.5500000000000000444, -0.6250000000000000000 ) ) ;
#1037 = VECTOR ( 'NONE', #361, 1000.000000000000000 ) ;
#1038 = ORIENTED_EDGE ( 'NONE', *, *, #153, .F. ) ;
#1039 = DIRECTION ( 'NONE',  ( 2.710505431213760592E-16, 1.000000000000000000, 0.0000000000000000000 ) ) ;
#1040 = ORIENTED_EDGE ( 'NONE', *, *, #805, .T. ) ;
#1041 = EDGE_CURVE ( 'NONE', #796, #389, #1156, .T. ) ;
#1042 = DIRECTION ( 'NONE',  ( -0.0000000000000000000, -0.0000000000000000000, 1.000000000000000000 ) ) ;
#1043 = EDGE_CURVE ( 'NONE', #232, #510, #212, .T. ) ;
#1044 = DIRECTION ( 'NONE',  ( 4.949449898199115945E-31, -1.000000000000000000, 2.168404344971013207E-15 ) ) ;
#1045 = CARTESIAN_POINT ( 'NONE',  ( 0.8499999999999999778, -0.001000000000000566408, 0.4750000000000003109 ) ) ;
#1046 = ORIENTED_EDGE ( 'NONE', *, *, #818, .T. ) ;
#1047 = CARTESIAN_POINT ( 'NONE',  ( 1.000000000000000666, -1.626303258728256651E-16, 0.6250000000000000000 ) ) ;
#1048 = PLANE ( 'NONE',  #125 ) ;
#1049 = EDGE_CURVE ( 'NONE', #1065, #237, #879, .T. ) ;
#1050 =( NAMED_UNIT ( * ) SI_UNIT ( $, .STERADIAN. ) SOLID_ANGLE_UNIT ( ) );
#1051 = PRESENTATION_STYLE_ASSIGNMENT (( #800 ) ) ;
#1052 = ORIENTED_EDGE ( 'NONE', *, *, #1213, .T. ) ;
#1053 = ORIENTED_EDGE ( 'NONE', *, *, #1134, .T. ) ;
#1054 = CARTESIAN_POINT ( 'NONE',  ( -1.000000000000000222, 0.6000000000000000888, 0.6250000000000002220 ) ) ;
#1055 = CARTESIAN_POINT ( 'NONE',  ( 0.9499999999999996225, 0.5500000000000000444, -0.6249999999999998890 ) ) ;
#1056 = DIRECTION ( 'NONE',  ( -1.073240866447125706E-47, 1.000000000000000000, -4.701977403289149484E-32 ) ) ;
#1057 = MANIFOLD_SOLID_BREP ( 'Extruir3', #765 ) ;
#1058 = ORIENTED_EDGE ( 'NONE', *, *, #35, .T. ) ;
#1059 = AXIS2_PLACEMENT_3D ( 'NONE', #623, #1161, #1067 ) ;
#1060 = COLOUR_RGB ( '',0.09803921568627450844, 0.09803921568627450844, 0.09803921568627450844 ) ;
#1061 = DIRECTION ( 'NONE',  ( -1.000000000000000000, 3.761581922631326594E-31, -1.734723475976807094E-16 ) ) ;
#1062 = DIRECTION ( 'NONE',  ( 1.000000000000000000, 0.0000000000000000000, 0.0000000000000000000 ) ) ;
#1063 = CARTESIAN_POINT ( 'NONE',  ( 0.6000000000000003109, 0.5999999999999999778, 0.6250000000000001110 ) ) ;
#1064 = PRODUCT_DEFINITION_CONTEXT ( 'detailed design', #725, 'design' ) ;
#1065 = VERTEX_POINT ( 'NONE', #413 ) ;
#1066 = ADVANCED_FACE ( 'NONE', ( #794 ), #1164, .F. ) ;
#1067 = DIRECTION ( 'NONE',  ( -1.000000000000000000, 0.0000000000000000000, 2.168404344971008868E-16 ) ) ;
#1068 = DIRECTION ( 'NONE',  ( -1.734723475976807094E-16, 0.0000000000000000000, 1.000000000000000000 ) ) ;
#1069 = PRESENTATION_STYLE_ASSIGNMENT (( #1163 ) ) ;
#1070 = DIRECTION ( 'NONE',  ( -2.282530889443167515E-16, -4.701977403289150032E-32, -1.000000000000000000 ) ) ;
#1071 = ORIENTED_EDGE ( 'NONE', *, *, #1134, .F. ) ;
#1072 = EDGE_CURVE ( 'NONE', #179, #1025, #505, .T. ) ;
#1073 = ORIENTED_EDGE ( 'NONE', *, *, #1041, .T. ) ;
#1074 = LINE ( 'NONE', #1179, #293 ) ;
#1075 = ORIENTED_EDGE ( 'NONE', *, *, #1118, .F. ) ;
#1076 = VECTOR ( 'NONE', #499, 1000.000000000000000 ) ;
#1077 = VECTOR ( 'NONE', #571, 1000.000000000000000 ) ;
#1078 = ORIENTED_EDGE ( 'NONE', *, *, #504, .F. ) ;
#1079 = LINE ( 'NONE', #798, #602 ) ;
#1080 = LINE ( 'NONE', #362, #639 ) ;
#1081 = ORIENTED_EDGE ( 'NONE', *, *, #844, .T. ) ;
#1082 = ORIENTED_EDGE ( 'NONE', *, *, #438, .F. ) ;
#1083 = LINE ( 'NONE', #419, #442 ) ;
#1084 = EDGE_CURVE ( 'NONE', #627, #1090, #376, .T. ) ;
#1085 = ORIENTED_EDGE ( 'NONE', *, *, #117, .F. ) ;
#1086 = FACE_OUTER_BOUND ( 'NONE', #814, .T. ) ;
#1087 = ORIENTED_EDGE ( 'NONE', *, *, #750, .F. ) ;
#1088 = CARTESIAN_POINT ( 'NONE',  ( -0.5999999999999999778, 0.5500000000000000444, -0.6249999999999998890 ) ) ;
#1089 = CARTESIAN_POINT ( 'NONE',  ( -0.6000000000000001998, 0.5999999999999999778, 0.6250000000000002220 ) ) ;
#1090 = VERTEX_POINT ( 'NONE', #1223 ) ;
#1091 = DIRECTION ( 'NONE',  ( 2.282530889443167515E-16, 0.0000000000000000000, 1.000000000000000000 ) ) ;
#1092 = ADVANCED_FACE ( 'NONE', ( #752 ), #858, .F. ) ;
#1093 = ORIENTED_EDGE ( 'NONE', *, *, #554, .T. ) ;
#1094 = AXIS2_PLACEMENT_3D ( 'NONE', #41, #1168, #507 ) ;
#1095 = CARTESIAN_POINT ( 'NONE',  ( -0.6000000000000000888, 0.5500000000000000444, -0.4749999999999998113 ) ) ;
#1096 = AXIS2_PLACEMENT_3D ( 'NONE', #650, #760, #277 ) ;
#1097 = AXIS2_PLACEMENT_3D ( 'NONE', #744, #1121, #1070 ) ;
#1098 = LINE ( 'NONE', #33, #536 ) ;
#1099 = ORIENTED_EDGE ( 'NONE', *, *, #837, .F. ) ;
#1100 = CARTESIAN_POINT ( 'NONE',  ( -0.6000000000000001998, 0.0000000000000000000, 0.6250000000000002220 ) ) ;
#1101 = ORIENTED_EDGE ( 'NONE', *, *, #45, .T. ) ;
#1102 = EDGE_CURVE ( 'NONE', #1025, #991, #81, .T. ) ;
#1103 = PRESENTATION_STYLE_ASSIGNMENT (( #355 ) ) ;
#1104 = PLANE ( 'NONE',  #669 ) ;
#1105 = DIRECTION ( 'NONE',  ( -0.0000000000000000000, -0.0000000000000000000, 1.000000000000000000 ) ) ;
#1106 = DIRECTION ( 'NONE',  ( 0.0000000000000000000, -1.000000000000000000, 0.0000000000000000000 ) ) ;
#1107 = ORIENTED_EDGE ( 'NONE', *, *, #936, .T. ) ;
#1108 = CARTESIAN_POINT ( 'NONE',  ( 0.6000000000000001998, 0.5999999999999999778, 0.4750000000000002554 ) ) ;
#1109 = DIRECTION ( 'NONE',  ( -1.000000000000000000, -2.710505431213760592E-16, 6.505213034913025618E-16 ) ) ;
#1110 = CARTESIAN_POINT ( 'NONE',  ( -0.6000000000000001998, 0.04999999999999991257, 0.6250000000000001110 ) ) ;
#1111 = LINE ( 'NONE', #860, #354 ) ;
#1112 = ORIENTED_EDGE ( 'NONE', *, *, #315, .F. ) ;
#1113 = VECTOR ( 'NONE', #661, 1000.000000000000000 ) ;
#1114 = CARTESIAN_POINT ( 'NONE',  ( 0.6000000000000003109, 0.5999999999999999778, 0.6250000000000006661 ) ) ;
#1115 = AXIS2_PLACEMENT_3D ( 'NONE', #1027, #1022, #938 ) ;
#1116 = VECTOR ( 'NONE', #738, 1000.000000000000000 ) ;
#1117 =( NAMED_UNIT ( * ) SI_UNIT ( $, .STERADIAN. ) SOLID_ANGLE_UNIT ( ) );
#1118 = EDGE_CURVE ( 'NONE', #407, #475, #758, .T. ) ;
#1119 = DIRECTION ( 'NONE',  ( 4.017254365419974609E-16, 0.0000000000000000000, 1.000000000000000000 ) ) ;
#1120 = EDGE_LOOP ( 'NONE', ( #695, #182, #52, #490 ) ) ;
#1121 = DIRECTION ( 'NONE',  ( 1.073240866447125828E-47, -1.000000000000000000, 4.701977403289150032E-32 ) ) ;
#1122 = ORIENTED_EDGE ( 'NONE', *, *, #214, .F. ) ;
#1123 = CARTESIAN_POINT ( 'NONE',  ( 0.9500000000000001776, 0.5500000000000001554, 0.6249999999999998890 ) ) ;
#1124 = DIRECTION ( 'NONE',  ( 0.0000000000000000000, -1.000000000000000000, 2.168404344971013207E-15 ) ) ;
#1125 = ADVANCED_FACE ( 'NONE', ( #734 ), #654, .F. ) ;
#1126 = EDGE_LOOP ( 'NONE', ( #1099, #281, #523, #366 ) ) ;
#1127 = DIRECTION ( 'NONE',  ( -1.000000000000000000, 0.0000000000000000000, 2.282530889443167515E-16 ) ) ;
#1128 = UNCERTAINTY_MEASURE_WITH_UNIT (LENGTH_MEASURE( 1.000000000000000082E-05 ), #406, 'distance_accuracy_value', 'NONE');
#1129 = EDGE_LOOP ( 'NONE', ( #220, #1176, #43, #309 ) ) ;
#1130 = FACE_OUTER_BOUND ( 'NONE', #63, .T. ) ;
#1131 = DIRECTION ( 'NONE',  ( -1.000000000000000000, -2.710505431213760592E-16, 2.282530889443167515E-16 ) ) ;
#1132 = LINE ( 'NONE', #299, #996 ) ;
#1133 = EDGE_LOOP ( 'NONE', ( #385, #955, #542, #187 ) ) ;
#1134 = EDGE_CURVE ( 'NONE', #1025, #674, #74, .T. ) ;
#1135 = DIRECTION ( 'NONE',  ( 0.0000000000000000000, 0.0000000000000000000, 1.000000000000000000 ) ) ;
#1136 = AXIS2_PLACEMENT_3D ( 'NONE', #347, #1169, #343 ) ;
#1137 = VECTOR ( 'NONE', #693, 1000.000000000000000 ) ;
#1138 = CARTESIAN_POINT ( 'NONE',  ( 0.6000000000000000888, 0.3000000000000000444, -0.6250000000000000000 ) ) ;
#1139 = VECTOR ( 'NONE', #30, 1000.000000000000000 ) ;
#1140 = CARTESIAN_POINT ( 'NONE',  ( -0.6000000000000001998, 0.5999999999999999778, 0.6250000000000002220 ) ) ;
#1141 = ORIENTED_EDGE ( 'NONE', *, *, #959, .F. ) ;
#1142 = ADVANCED_FACE ( 'NONE', ( #647 ), #461, .F. ) ;
#1143 = LINE ( 'NONE', #946, #808 ) ;
#1144 = CARTESIAN_POINT ( 'NONE',  ( -1.000000000000000222, 0.6000000000000000888, -0.6250000000000000000 ) ) ;
#1145 = PLANE ( 'NONE',  #807 ) ;
#1146 = DIRECTION ( 'NONE',  ( -4.701977403289150032E-32, 0.0000000000000000000, -1.000000000000000000 ) ) ;
#1147 = VERTEX_POINT ( 'NONE', #161 ) ;
#1148 = DIRECTION ( 'NONE',  ( -3.761581922631326594E-31, -1.000000000000000000, -6.525304467998535223E-47 ) ) ;
#1149 = DIRECTION ( 'NONE',  ( 1.000000000000000000, -0.0000000000000000000, -1.141265444721583757E-16 ) ) ;
#1150 = VERTEX_POINT ( 'NONE', #1216 ) ;
#1151 = ORIENTED_EDGE ( 'NONE', *, *, #947, .F. ) ;
#1152 = DIRECTION ( 'NONE',  ( -1.000000000000000000, 0.0000000000000000000, 0.0000000000000000000 ) ) ;
#1153 = DIRECTION ( 'NONE',  ( -4.701977403289149484E-32, 4.701977403289150032E-32, -1.000000000000000000 ) ) ;
#1154 = EDGE_CURVE ( 'NONE', #237, #991, #266, .T. ) ;
#1155 = CARTESIAN_POINT ( 'NONE',  ( 0.6000000000000003109, -1.626303258728256651E-16, 0.6250000000000001110 ) ) ;
#1156 = LINE ( 'NONE', #682, #962 ) ;
#1157 = PRESENTATION_LAYER_ASSIGNMENT (  '', '', ( #684 ) ) ;
#1158 = ORIENTED_EDGE ( 'NONE', *, *, #793, .F. ) ;
#1159 = AXIS2_PLACEMENT_3D ( 'NONE', #539, #847, #365 ) ;
#1160 = VECTOR ( 'NONE', #495, 1000.000000000000000 ) ;
#1161 = DIRECTION ( 'NONE',  ( -2.168404344971008868E-16, 1.057944915740058538E-31, -1.000000000000000000 ) ) ;
#1162 = CARTESIAN_POINT ( 'NONE',  ( -1.000000000000000444, 0.6000000000000004219, 0.6250000000000002220 ) ) ;
#1163 = SURFACE_STYLE_USAGE ( .BOTH. , #489 ) ;
#1164 = PLANE ( 'NONE',  #1017 ) ;
#1165 = EDGE_CURVE ( 'NONE', #528, #600, #89, .T. ) ;
#1166 = ORIENTED_EDGE ( 'NONE', *, *, #795, .T. ) ;
#1167 = PLANE ( 'NONE',  #1059 ) ;
#1168 = DIRECTION ( 'NONE',  ( -1.141265444721583757E-16, 0.0000000000000000000, -1.000000000000000000 ) ) ;
#1169 = DIRECTION ( 'NONE',  ( 2.710505431213760592E-16, 1.000000000000000000, 4.701977403289149484E-32 ) ) ;
#1170 = ORIENTED_EDGE ( 'NONE', *, *, #681, .F. ) ;
#1171 = DIRECTION ( 'NONE',  ( 4.701977403289149484E-32, 4.701977403289149484E-32, 1.000000000000000000 ) ) ;
#1172 = CLOSED_SHELL ( 'NONE', ( #993, #1066, #972, #32, #870, #769, #608, #1185, #1016, #1191, #981, #1222, #265, #1125 ) ) ;
#1173 = ORIENTED_EDGE ( 'NONE', *, *, #283, .F. ) ;
#1174 = VECTOR ( 'NONE', #594, 1000.000000000000000 ) ;
#1175 = VECTOR ( 'NONE', #229, 1000.000000000000000 ) ;
#1176 = ORIENTED_EDGE ( 'NONE', *, *, #258, .F. ) ;
#1177 = MECHANICAL_DESIGN_GEOMETRIC_PRESENTATION_REPRESENTATION (  '', ( #1197 ), #828 ) ;
#1178 = ADVANCED_FACE ( 'NONE', ( #729 ), #537, .F. ) ;
#1179 = CARTESIAN_POINT ( 'NONE',  ( -1.000000000000000222, -5.877471754111438635E-32, -0.6250000000000002220 ) ) ;
#1180 = DIRECTION ( 'NONE',  ( 2.710505431213760592E-16, 1.000000000000000000, 4.701977403289148390E-32 ) ) ;
#1181 = ORIENTED_EDGE ( 'NONE', *, *, #648, .F. ) ;
#1182 = EDGE_LOOP ( 'NONE', ( #1158, #1181, #372, #136, #158, #1085, #310, #1188 ) ) ;
#1183 = CARTESIAN_POINT ( 'NONE',  ( -0.8499999999999999778, 0.5999999999999999778, -0.4749999999999999778 ) ) ;
#1184 = PRODUCT_DEFINITION ( 'UNKNOWN', '', #997, #1064 ) ;
#1185 = ADVANCED_FACE ( 'NONE', ( #477 ), #1104, .F. ) ;
#1186 = ORIENTED_EDGE ( 'NONE', *, *, #564, .T. ) ;
#1187 = LINE ( 'NONE', #527, #705 ) ;
#1188 = ORIENTED_EDGE ( 'NONE', *, *, #315, .T. ) ;
#1189 = DIRECTION ( 'NONE',  ( 1.000000000000000000, 0.0000000000000000000, 0.0000000000000000000 ) ) ;
#1190 = FACE_OUTER_BOUND ( 'NONE', #84, .T. ) ;
#1191 = ADVANCED_FACE ( 'NONE', ( #275 ), #925, .T. ) ;
#1192 = ORIENTED_EDGE ( 'NONE', *, *, #795, .F. ) ;
#1193 = CARTESIAN_POINT ( 'NONE',  ( 0.6000000000000003109, 0.0000000000000000000, 0.6250000000000001110 ) ) ;
#1194 = ORIENTED_EDGE ( 'NONE', *, *, #95, .F. ) ;
#1195 = VECTOR ( 'NONE', #692, 1000.000000000000000 ) ;
#1196 = DIRECTION ( 'NONE',  ( -1.000000000000000000, 2.710505431213760592E-16, -6.505213034913025618E-16 ) ) ;
#1197 = STYLED_ITEM ( 'NONE', ( #1069 ), #708 ) ;
#1198 = CARTESIAN_POINT ( 'NONE',  ( 0.6000000000000003109, 0.04999999999999991257, 0.6250000000000000000 ) ) ;
#1199 = LINE ( 'NONE', #797, #789 ) ;
#1200 = ORIENTED_EDGE ( 'NONE', *, *, #648, .T. ) ;
#1201 = DIRECTION ( 'NONE',  ( 1.000000000000000000, -2.710505431213760592E-16, 0.0000000000000000000 ) ) ;
#1202 = PLANE ( 'NONE',  #1115 ) ;
#1203 = CARTESIAN_POINT ( 'NONE',  ( -2.225999600319681360, 0.5500000000000004885, 0.6250000000000001110 ) ) ;
#1204 = DIRECTION ( 'NONE',  ( 0.0000000000000000000, -1.000000000000000000, 0.0000000000000000000 ) ) ;
#1205 = VERTEX_POINT ( 'NONE', #178 ) ;
#1206 = DIRECTION ( 'NONE',  ( -2.710505431213760592E-16, -1.000000000000000000, -4.701977403289148390E-32 ) ) ;
#1207 =( LENGTH_UNIT ( ) NAMED_UNIT ( * ) SI_UNIT ( .MILLI., .METRE. ) );
#1208 = DIRECTION ( 'NONE',  ( -1.000000000000000000, 0.0000000000000000000, 2.282530889443167515E-16 ) ) ;
#1209 = ORIENTED_EDGE ( 'NONE', *, *, #190, .T. ) ;
#1210 = FACE_OUTER_BOUND ( 'NONE', #338, .T. ) ;
#1211 = ORIENTED_EDGE ( 'NONE', *, *, #1043, .T. ) ;
#1212 = PLANE ( 'NONE',  #193 ) ;
#1213 = EDGE_CURVE ( 'NONE', #137, #1031, #580, .T. ) ;
#1214 = AXIS2_PLACEMENT_3D ( 'NONE', #763, #1152, #1135 ) ;
#1215 = SURFACE_SIDE_STYLE ('',( #80 ) ) ;
#1216 = CARTESIAN_POINT ( 'NONE',  ( -0.8500000000000003109, 0.5500000000000001554, 0.4750000000000003109 ) ) ;
#1217 = VECTOR ( 'NONE', #287, 1000.000000000000000 ) ;
#1218 = ORIENTED_EDGE ( 'NONE', *, *, #986, .T. ) ;
#1219 = CARTESIAN_POINT ( 'NONE',  ( 0.8499999999999999778, -0.001000000000000566408, 0.6250000000000003331 ) ) ;
#1220 = ORIENTED_EDGE ( 'NONE', *, *, #1008, .T. ) ;
#1221 = LINE ( 'NONE', #1047, #503 ) ;
#1222 = ADVANCED_FACE ( 'NONE', ( #590 ), #298, .F. ) ;
#1223 = CARTESIAN_POINT ( 'NONE',  ( 1.000000000000000000, 0.6000000000000000888, -0.6250000000000002220 ) ) ;
#1224 = EDGE_CURVE ( 'NONE', #254, #585, #402, .T. ) ;
#1225 = CARTESIAN_POINT ( 'NONE',  ( 0.9500000000000001776, 0.5500000000000000444, -0.6250000000000001110 ) ) ;
ENDSEC;
END-ISO-10303-21;
