ISO-10303-21;
HEADER;

/* File generated by Shapr3D Version 3.0 */

FILE_DESCRIPTION(('HOOPS Exchange Step'),'2;1');

FILE_NAME('/private/var/mobile/Containers/Data/Application/89EAFF3B-FD6E-48C0-8948-8AF8FE5B2F4F/tmp/export/temp_export',
'2022-05-06T16:30:38+02:00',
('mobile'),
('Shapr3D Limited'),
'HOOPS Exchange 2021.2',
'Shapr3D',
'Authorized');

FILE_SCHEMA( ('AP203_CONFIGURATION_CONTROLLED_3D_DESIGN_OF_MECHANICAL_PARTS_AND_ASSEMBLIES_MIM_LF') );

ENDSEC;

DATA;
#3=(NAMED_UNIT(*)PLANE_ANGLE_UNIT()SI_UNIT($,.RADIAN.));
#4=PLANE_ANGLE_MEASURE_WITH_UNIT(PLANE_ANGLE_MEASURE(0.0174532925),#3);
#5=(CONVERSION_BASED_UNIT('DEGREE',#4)NAMED_UNIT(#6)PLANE_ANGLE_UNIT());
#6=DIMENSIONAL_EXPONENTS(0.,0.,0.,0.,0.,0.,0.);
#7=(NAMED_UNIT(*)SI_UNIT($,.STERADIAN.)SOLID_ANGLE_UNIT());
#8=(LENGTH_UNIT()NAMED_UNIT(*)SI_UNIT(.MILLI.,.METRE.));
#9=UNCERTAINTY_MEASURE_WITH_UNIT(LENGTH_MEASURE(1.000000E-05),#8,'DISTANCE_ACCURACY_VALUE','Maximum Tolerance applied to model');
#10=(GEOMETRIC_REPRESENTATION_CONTEXT(3)GLOBAL_UNCERTAINTY_ASSIGNED_CONTEXT((#9))GLOBAL_UNIT_ASSIGNED_CONTEXT((#8,#5,#7))REPRESENTATION_CONTEXT('','root'));
#12=CARTESIAN_POINT('',(0.,0.,0.));
#13=DIRECTION('',(0.,0.,1.));
#14=DIRECTION('',(1.,0.,0.));
#15=AXIS2_PLACEMENT_3D('',#12,#13,#14);
#27=CARTESIAN_POINT('',(0.,0.,0.));
#28=DIRECTION('',(0.,0.,1.));
#29=DIRECTION('',(1.,0.,0.));
#30=AXIS2_PLACEMENT_3D('',#27,#28,#29);
#31=PLANE('',#30);
#32=CARTESIAN_POINT('',(10.511221522,10.9,0.));
#33=VERTEX_POINT('',#32);
#34=CARTESIAN_POINT('',(10.511221522,9.7,0.));
#35=VERTEX_POINT('',#34);
#36=CARTESIAN_POINT('',(10.511221522,10.9,0.));
#37=DIRECTION('',(0.,-1.,0.));
#38=VECTOR('',#37,1.2);
#39=LINE('',#36,#38);
#40=EDGE_CURVE('',#33,#35,#39,.T.);
#41=ORIENTED_EDGE('',*,*,#40,.F.);
#42=CARTESIAN_POINT('',(12.9,10.9,0.));
#43=VERTEX_POINT('',#42);
#44=CARTESIAN_POINT('',(12.9,10.9,0.));
#45=DIRECTION('',(-1.,-0.,0.));
#46=VECTOR('',#45,2.388778478);
#47=LINE('',#44,#46);
#48=EDGE_CURVE('',#43,#33,#47,.T.);
#49=ORIENTED_EDGE('',*,*,#48,.F.);
#50=CARTESIAN_POINT('',(12.9,0.,0.));
#51=VERTEX_POINT('',#50);
#52=CARTESIAN_POINT('',(12.9,0.,0.));
#53=DIRECTION('',(0.,1.,0.));
#54=VECTOR('',#53,10.9);
#55=LINE('',#52,#54);
#56=EDGE_CURVE('',#51,#43,#55,.T.);
#57=ORIENTED_EDGE('',*,*,#56,.F.);
#58=CARTESIAN_POINT('',(10.511221522,0.,0.));
#59=VERTEX_POINT('',#58);
#60=CARTESIAN_POINT('',(10.511221522,0.,0.));
#61=DIRECTION('',(1.,0.,0.));
#62=VECTOR('',#61,2.388778478);
#63=LINE('',#60,#62);
#64=EDGE_CURVE('',#59,#51,#63,.T.);
#65=ORIENTED_EDGE('',*,*,#64,.F.);
#66=CARTESIAN_POINT('',(10.511221522,1.2,0.));
#67=VERTEX_POINT('',#66);
#68=CARTESIAN_POINT('',(10.511221522,1.2,0.));
#69=DIRECTION('',(0.,-1.,0.));
#70=VECTOR('',#69,1.2);
#71=LINE('',#68,#70);
#72=EDGE_CURVE('',#67,#59,#71,.T.);
#73=ORIENTED_EDGE('',*,*,#72,.F.);
#74=CARTESIAN_POINT('',(10.011221522,1.2,0.));
#75=VERTEX_POINT('',#74);
#76=CARTESIAN_POINT('',(10.011221522,1.2,0.));
#77=DIRECTION('',(1.,0.,0.));
#78=VECTOR('',#77,0.5);
#79=LINE('',#76,#78);
#80=EDGE_CURVE('',#75,#67,#79,.T.);
#81=ORIENTED_EDGE('',*,*,#80,.F.);
#82=CARTESIAN_POINT('',(10.011221522,0.,0.));
#83=VERTEX_POINT('',#82);
#84=CARTESIAN_POINT('',(10.011221522,0.,0.));
#85=DIRECTION('',(-0.,1.,0.));
#86=VECTOR('',#85,1.2);
#87=LINE('',#84,#86);
#88=EDGE_CURVE('',#83,#75,#87,.T.);
#89=ORIENTED_EDGE('',*,*,#88,.F.);
#90=CARTESIAN_POINT('',(5.431221522,0.,0.));
#91=VERTEX_POINT('',#90);
#92=CARTESIAN_POINT('',(5.431221522,0.,0.));
#93=DIRECTION('',(1.,0.,0.));
#94=VECTOR('',#93,4.58);
#95=LINE('',#92,#94);
#96=EDGE_CURVE('',#91,#83,#95,.T.);
#97=ORIENTED_EDGE('',*,*,#96,.F.);
#98=CARTESIAN_POINT('',(5.431221522,1.2,0.));
#99=VERTEX_POINT('',#98);
#100=CARTESIAN_POINT('',(5.431221522,1.2,0.));
#101=DIRECTION('',(0.,-1.,0.));
#102=VECTOR('',#101,1.2);
#103=LINE('',#100,#102);
#104=EDGE_CURVE('',#99,#91,#103,.T.);
#105=ORIENTED_EDGE('',*,*,#104,.F.);
#106=CARTESIAN_POINT('',(4.931221522,1.2,0.));
#107=VERTEX_POINT('',#106);
#108=CARTESIAN_POINT('',(4.931221522,1.2,0.));
#109=DIRECTION('',(1.,0.,0.));
#110=VECTOR('',#109,0.5);
#111=LINE('',#108,#110);
#112=EDGE_CURVE('',#107,#99,#111,.T.);
#113=ORIENTED_EDGE('',*,*,#112,.F.);
#114=CARTESIAN_POINT('',(4.931221522,0.,0.));
#115=VERTEX_POINT('',#114);
#116=CARTESIAN_POINT('',(4.931221522,0.,0.));
#117=DIRECTION('',(0.,1.,0.));
#118=VECTOR('',#117,1.2);
#119=LINE('',#116,#118);
#120=EDGE_CURVE('',#115,#107,#119,.T.);
#121=ORIENTED_EDGE('',*,*,#120,.F.);
#122=CARTESIAN_POINT('',(2.891221522,0.,0.));
#123=VERTEX_POINT('',#122);
#124=CARTESIAN_POINT('',(2.891221522,0.,0.));
#125=DIRECTION('',(1.,0.,0.));
#126=VECTOR('',#125,2.04);
#127=LINE('',#124,#126);
#128=EDGE_CURVE('',#123,#115,#127,.T.);
#129=ORIENTED_EDGE('',*,*,#128,.F.);
#130=CARTESIAN_POINT('',(2.891221522,1.2,0.));
#131=VERTEX_POINT('',#130);
#132=CARTESIAN_POINT('',(2.891221522,1.2,0.));
#133=DIRECTION('',(0.,-1.,0.));
#134=VECTOR('',#133,1.2);
#135=LINE('',#132,#134);
#136=EDGE_CURVE('',#131,#123,#135,.T.);
#137=ORIENTED_EDGE('',*,*,#136,.F.);
#138=CARTESIAN_POINT('',(2.391221522,1.2,0.));
#139=VERTEX_POINT('',#138);
#140=CARTESIAN_POINT('',(2.391221522,1.2,0.));
#141=DIRECTION('',(1.,0.,-0.));
#142=VECTOR('',#141,0.5);
#143=LINE('',#140,#142);
#144=EDGE_CURVE('',#139,#131,#143,.T.);
#145=ORIENTED_EDGE('',*,*,#144,.F.);
#146=CARTESIAN_POINT('',(2.391221522,0.,0.));
#147=VERTEX_POINT('',#146);
#148=CARTESIAN_POINT('',(2.391221522,0.,0.));
#149=DIRECTION('',(-0.,1.,0.));
#150=VECTOR('',#149,1.2);
#151=LINE('',#148,#150);
#152=EDGE_CURVE('',#147,#139,#151,.T.);
#153=ORIENTED_EDGE('',*,*,#152,.F.);
#154=CARTESIAN_POINT('',(0.,0.,0.));
#155=VERTEX_POINT('',#154);
#156=CARTESIAN_POINT('',(0.,0.,0.));
#157=DIRECTION('',(1.,0.,0.));
#158=VECTOR('',#157,2.391221522);
#159=LINE('',#156,#158);
#160=EDGE_CURVE('',#155,#147,#159,.T.);
#161=ORIENTED_EDGE('',*,*,#160,.F.);
#162=CARTESIAN_POINT('',(0.,10.9,0.));
#163=VERTEX_POINT('',#162);
#164=CARTESIAN_POINT('',(0.,10.9,0.));
#165=DIRECTION('',(-0.,-1.,-0.));
#166=VECTOR('',#165,10.9);
#167=LINE('',#164,#166);
#168=EDGE_CURVE('',#163,#155,#167,.T.);
#169=ORIENTED_EDGE('',*,*,#168,.F.);
#170=CARTESIAN_POINT('',(2.391221522,10.9,0.));
#171=VERTEX_POINT('',#170);
#172=CARTESIAN_POINT('',(2.391221522,10.9,0.));
#173=DIRECTION('',(-1.,-0.,0.));
#174=VECTOR('',#173,2.391221522);
#175=LINE('',#172,#174);
#176=EDGE_CURVE('',#171,#163,#175,.T.);
#177=ORIENTED_EDGE('',*,*,#176,.F.);
#178=CARTESIAN_POINT('',(2.391221522,9.7,0.));
#179=VERTEX_POINT('',#178);
#180=CARTESIAN_POINT('',(2.391221522,9.7,0.));
#181=DIRECTION('',(-0.,1.,0.));
#182=VECTOR('',#181,1.2);
#183=LINE('',#180,#182);
#184=EDGE_CURVE('',#179,#171,#183,.T.);
#185=ORIENTED_EDGE('',*,*,#184,.F.);
#186=CARTESIAN_POINT('',(2.891221522,9.7,0.));
#187=VERTEX_POINT('',#186);
#188=CARTESIAN_POINT('',(2.891221522,9.7,0.));
#189=DIRECTION('',(-1.,0.,0.));
#190=VECTOR('',#189,0.5);
#191=LINE('',#188,#190);
#192=EDGE_CURVE('',#187,#179,#191,.T.);
#193=ORIENTED_EDGE('',*,*,#192,.F.);
#194=CARTESIAN_POINT('',(2.891221522,10.9,0.));
#195=VERTEX_POINT('',#194);
#196=CARTESIAN_POINT('',(2.891221522,10.9,0.));
#197=DIRECTION('',(0.,-1.,0.));
#198=VECTOR('',#197,1.2);
#199=LINE('',#196,#198);
#200=EDGE_CURVE('',#195,#187,#199,.T.);
#201=ORIENTED_EDGE('',*,*,#200,.F.);
#202=CARTESIAN_POINT('',(10.011221522,10.9,0.));
#203=VERTEX_POINT('',#202);
#204=CARTESIAN_POINT('',(10.011221522,10.9,0.));
#205=DIRECTION('',(-1.,-0.,0.));
#206=VECTOR('',#205,7.12);
#207=LINE('',#204,#206);
#208=EDGE_CURVE('',#203,#195,#207,.T.);
#209=ORIENTED_EDGE('',*,*,#208,.F.);
#210=CARTESIAN_POINT('',(10.011221522,9.7,0.));
#211=VERTEX_POINT('',#210);
#212=CARTESIAN_POINT('',(10.011221522,9.7,0.));
#213=DIRECTION('',(0.,1.,0.));
#214=VECTOR('',#213,1.2);
#215=LINE('',#212,#214);
#216=EDGE_CURVE('',#211,#203,#215,.T.);
#217=ORIENTED_EDGE('',*,*,#216,.F.);
#218=CARTESIAN_POINT('',(10.511221522,9.7,0.));
#219=DIRECTION('',(-1.,0.,0.));
#220=VECTOR('',#219,0.5);
#221=LINE('',#218,#220);
#222=EDGE_CURVE('',#35,#211,#221,.T.);
#223=ORIENTED_EDGE('',*,*,#222,.F.);
#224=EDGE_LOOP('',(#41,#49,#57,#65,#73,#81,#89,#97,#105,#113,#121,#129,#137,#145,#153,#161,#169,#177,#185,#193,#201,#209,#217,#223));
#225=FACE_BOUND('',#224,.T.);
#226=ADVANCED_FACE('',(#225),#31,.F.);
#227=CARTESIAN_POINT('',(0.,0.,6.9));
#228=DIRECTION('',(0.,1.,0.));
#229=DIRECTION('',(0.,0.,1.));
#230=AXIS2_PLACEMENT_3D('',#227,#228,#229);
#231=PLANE('',#230);
#232=ORIENTED_EDGE('',*,*,#160,.T.);
#233=CARTESIAN_POINT('',(2.391221522,0.,0.));
#234=DIRECTION('',(1.,0.,0.));
#235=VECTOR('',#234,0.5);
#236=LINE('',#233,#235);
#237=EDGE_CURVE('',#147,#123,#236,.T.);
#238=ORIENTED_EDGE('',*,*,#237,.T.);
#239=ORIENTED_EDGE('',*,*,#128,.T.);
#240=CARTESIAN_POINT('',(4.931221522,0.,0.));
#241=DIRECTION('',(1.,0.,0.));
#242=VECTOR('',#241,0.5);
#243=LINE('',#240,#242);
#244=EDGE_CURVE('',#115,#91,#243,.T.);
#245=ORIENTED_EDGE('',*,*,#244,.T.);
#246=ORIENTED_EDGE('',*,*,#96,.T.);
#247=CARTESIAN_POINT('',(10.011221522,0.,0.));
#248=DIRECTION('',(1.,0.,0.));
#249=VECTOR('',#248,0.5);
#250=LINE('',#247,#249);
#251=EDGE_CURVE('',#83,#59,#250,.T.);
#252=ORIENTED_EDGE('',*,*,#251,.T.);
#253=ORIENTED_EDGE('',*,*,#64,.T.);
#254=CARTESIAN_POINT('',(12.9,0.,6.9));
#255=VERTEX_POINT('',#254);
#256=CARTESIAN_POINT('',(12.9,0.,6.9));
#257=DIRECTION('',(0.,0.,-1.));
#258=VECTOR('',#257,6.9);
#259=LINE('',#256,#258);
#260=EDGE_CURVE('',#255,#51,#259,.T.);
#261=ORIENTED_EDGE('',*,*,#260,.F.);
#262=CARTESIAN_POINT('',(0.,0.,6.9));
#263=VERTEX_POINT('',#262);
#264=CARTESIAN_POINT('',(0.,0.,6.9));
#265=DIRECTION('',(1.,0.,-0.));
#266=VECTOR('',#265,12.9);
#267=LINE('',#264,#266);
#268=EDGE_CURVE('',#263,#255,#267,.T.);
#269=ORIENTED_EDGE('',*,*,#268,.F.);
#270=CARTESIAN_POINT('',(0.,0.,6.9));
#271=DIRECTION('',(0.,0.,-1.));
#272=VECTOR('',#271,6.9);
#273=LINE('',#270,#272);
#274=EDGE_CURVE('',#263,#155,#273,.T.);
#275=ORIENTED_EDGE('',*,*,#274,.T.);
#276=EDGE_LOOP('',(#232,#238,#239,#245,#246,#252,#253,#261,#269,#275));
#277=FACE_BOUND('',#276,.T.);
#278=ADVANCED_FACE('',(#277),#231,.F.);
#279=CARTESIAN_POINT('',(12.9,5.45,6.9));
#280=DIRECTION('',(-1.,0.,0.));
#281=DIRECTION('',(-0.,-1.,0.));
#282=AXIS2_PLACEMENT_3D('',#279,#280,#281);
#283=PLANE('',#282);
#284=ORIENTED_EDGE('',*,*,#56,.T.);
#285=CARTESIAN_POINT('',(12.9,10.9,6.9));
#286=VERTEX_POINT('',#285);
#287=CARTESIAN_POINT('',(12.9,10.9,6.9));
#288=DIRECTION('',(0.,0.,-1.));
#289=VECTOR('',#288,6.9);
#290=LINE('',#287,#289);
#291=EDGE_CURVE('',#286,#43,#290,.T.);
#292=ORIENTED_EDGE('',*,*,#291,.F.);
#293=CARTESIAN_POINT('',(12.9,0.,6.9));
#294=DIRECTION('',(0.,1.,0.));
#295=VECTOR('',#294,10.9);
#296=LINE('',#293,#295);
#297=EDGE_CURVE('',#255,#286,#296,.T.);
#298=ORIENTED_EDGE('',*,*,#297,.F.);
#299=ORIENTED_EDGE('',*,*,#260,.T.);
#300=EDGE_LOOP('',(#284,#292,#298,#299));
#301=FACE_BOUND('',#300,.T.);
#302=ADVANCED_FACE('',(#301),#283,.F.);
#303=CARTESIAN_POINT('',(6.45,10.9,6.9));
#304=DIRECTION('',(0.,-1.,0.));
#305=DIRECTION('',(1.,0.,0.));
#306=AXIS2_PLACEMENT_3D('',#303,#304,#305);
#307=PLANE('',#306);
#308=ORIENTED_EDGE('',*,*,#48,.T.);
#309=CARTESIAN_POINT('',(10.511221522,10.9,0.));
#310=DIRECTION('',(-1.,-0.,0.));
#311=VECTOR('',#310,0.5);
#312=LINE('',#309,#311);
#313=EDGE_CURVE('',#33,#203,#312,.T.);
#314=ORIENTED_EDGE('',*,*,#313,.T.);
#315=ORIENTED_EDGE('',*,*,#208,.T.);
#316=CARTESIAN_POINT('',(2.891221522,10.9,0.));
#317=DIRECTION('',(-1.,-0.,0.));
#318=VECTOR('',#317,0.5);
#319=LINE('',#316,#318);
#320=EDGE_CURVE('',#195,#171,#319,.T.);
#321=ORIENTED_EDGE('',*,*,#320,.T.);
#322=ORIENTED_EDGE('',*,*,#176,.T.);
#323=CARTESIAN_POINT('',(0.,10.9,6.9));
#324=VERTEX_POINT('',#323);
#325=CARTESIAN_POINT('',(0.,10.9,6.9));
#326=DIRECTION('',(0.,0.,-1.));
#327=VECTOR('',#326,6.9);
#328=LINE('',#325,#327);
#329=EDGE_CURVE('',#324,#163,#328,.T.);
#330=ORIENTED_EDGE('',*,*,#329,.F.);
#331=CARTESIAN_POINT('',(12.9,10.9,6.9));
#332=DIRECTION('',(-1.,-0.,0.));
#333=VECTOR('',#332,12.9);
#334=LINE('',#331,#333);
#335=EDGE_CURVE('',#286,#324,#334,.T.);
#336=ORIENTED_EDGE('',*,*,#335,.F.);
#337=ORIENTED_EDGE('',*,*,#291,.T.);
#338=EDGE_LOOP('',(#308,#314,#315,#321,#322,#330,#336,#337));
#339=FACE_BOUND('',#338,.T.);
#340=ADVANCED_FACE('',(#339),#307,.F.);
#341=CARTESIAN_POINT('',(0.,0.,6.9));
#342=DIRECTION('',(1.,0.,0.));
#343=DIRECTION('',(0.,0.,-1.));
#344=AXIS2_PLACEMENT_3D('',#341,#342,#343);
#345=PLANE('',#344);
#346=ORIENTED_EDGE('',*,*,#168,.T.);
#347=ORIENTED_EDGE('',*,*,#274,.F.);
#348=CARTESIAN_POINT('',(0.,10.9,6.9));
#349=DIRECTION('',(-0.,-1.,-0.));
#350=VECTOR('',#349,10.9);
#351=LINE('',#348,#350);
#352=EDGE_CURVE('',#324,#263,#351,.T.);
#353=ORIENTED_EDGE('',*,*,#352,.F.);
#354=ORIENTED_EDGE('',*,*,#329,.T.);
#355=EDGE_LOOP('',(#346,#347,#353,#354));
#356=FACE_BOUND('',#355,.T.);
#357=ADVANCED_FACE('',(#356),#345,.F.);
#358=CARTESIAN_POINT('',(0.,0.,6.9));
#359=DIRECTION('',(0.,0.,1.));
#360=DIRECTION('',(1.,0.,0.));
#361=AXIS2_PLACEMENT_3D('',#358,#359,#360);
#362=PLANE('',#361);
#363=ORIENTED_EDGE('',*,*,#268,.T.);
#364=ORIENTED_EDGE('',*,*,#297,.T.);
#365=ORIENTED_EDGE('',*,*,#335,.T.);
#366=ORIENTED_EDGE('',*,*,#352,.T.);
#367=EDGE_LOOP('',(#363,#364,#365,#366));
#368=FACE_BOUND('',#367,.T.);
#369=ADVANCED_FACE('',(#368),#362,.T.);
#370=CARTESIAN_POINT('',(0.,0.,0.));
#371=DIRECTION('',(0.,0.,1.));
#372=DIRECTION('',(1.,0.,0.));
#373=AXIS2_PLACEMENT_3D('',#370,#371,#372);
#374=PLANE('',#373);
#375=ORIENTED_EDGE('',*,*,#320,.F.);
#376=CARTESIAN_POINT('',(2.891221522,11.,0.));
#377=VERTEX_POINT('',#376);
#378=CARTESIAN_POINT('',(2.891221522,11.,0.));
#379=DIRECTION('',(0.,-1.,0.));
#380=VECTOR('',#379,0.1);
#381=LINE('',#378,#380);
#382=EDGE_CURVE('',#377,#195,#381,.T.);
#383=ORIENTED_EDGE('',*,*,#382,.F.);
#384=CARTESIAN_POINT('',(2.391221522,11.,0.));
#385=VERTEX_POINT('',#384);
#386=CARTESIAN_POINT('',(2.391221522,11.,0.));
#387=DIRECTION('',(1.,0.,0.));
#388=VECTOR('',#387,0.5);
#389=LINE('',#386,#388);
#390=EDGE_CURVE('',#385,#377,#389,.T.);
#391=ORIENTED_EDGE('',*,*,#390,.F.);
#392=CARTESIAN_POINT('',(2.391221522,10.9,0.));
#393=DIRECTION('',(-0.,1.,0.));
#394=VECTOR('',#393,0.1);
#395=LINE('',#392,#394);
#396=EDGE_CURVE('',#171,#385,#395,.T.);
#397=ORIENTED_EDGE('',*,*,#396,.F.);
#398=EDGE_LOOP('',(#375,#383,#391,#397));
#399=FACE_BOUND('',#398,.T.);
#400=ADVANCED_FACE('',(#399),#374,.T.);
#401=CARTESIAN_POINT('',(2.891221522,10.35,-0.25));
#402=DIRECTION('',(-1.,-0.,0.));
#403=DIRECTION('',(0.,-1.,0.));
#404=AXIS2_PLACEMENT_3D('',#401,#402,#403);
#405=PLANE('',#404);
#406=ORIENTED_EDGE('',*,*,#382,.T.);
#407=ORIENTED_EDGE('',*,*,#200,.T.);
#408=CARTESIAN_POINT('',(2.891221522,9.7,-0.25));
#409=VERTEX_POINT('',#408);
#410=CARTESIAN_POINT('',(2.891221522,9.7,-0.25));
#411=DIRECTION('',(0.,0.,1.));
#412=VECTOR('',#411,0.25);
#413=LINE('',#410,#412);
#414=EDGE_CURVE('',#409,#187,#413,.T.);
#415=ORIENTED_EDGE('',*,*,#414,.F.);
#416=CARTESIAN_POINT('',(2.891221522,11.,-0.25));
#417=VERTEX_POINT('',#416);
#418=CARTESIAN_POINT('',(2.891221522,11.,-0.25));
#419=DIRECTION('',(0.,-1.,0.));
#420=VECTOR('',#419,1.3);
#421=LINE('',#418,#420);
#422=EDGE_CURVE('',#417,#409,#421,.T.);
#423=ORIENTED_EDGE('',*,*,#422,.F.);
#424=CARTESIAN_POINT('',(2.891221522,11.,-0.25));
#425=DIRECTION('',(0.,0.,1.));
#426=VECTOR('',#425,0.25);
#427=LINE('',#424,#426);
#428=EDGE_CURVE('',#417,#377,#427,.T.);
#429=ORIENTED_EDGE('',*,*,#428,.T.);
#430=EDGE_LOOP('',(#406,#407,#415,#423,#429));
#431=FACE_BOUND('',#430,.T.);
#432=ADVANCED_FACE('',(#431),#405,.F.);
#433=CARTESIAN_POINT('',(2.641221522,11.,-0.25));
#434=DIRECTION('',(0.,-1.,0.));
#435=DIRECTION('',(1.,0.,0.));
#436=AXIS2_PLACEMENT_3D('',#433,#434,#435);
#437=PLANE('',#436);
#438=ORIENTED_EDGE('',*,*,#390,.T.);
#439=ORIENTED_EDGE('',*,*,#428,.F.);
#440=CARTESIAN_POINT('',(2.391221522,11.,-0.25));
#441=VERTEX_POINT('',#440);
#442=CARTESIAN_POINT('',(2.391221522,11.,-0.25));
#443=DIRECTION('',(1.,0.,0.));
#444=VECTOR('',#443,0.5);
#445=LINE('',#442,#444);
#446=EDGE_CURVE('',#441,#417,#445,.T.);
#447=ORIENTED_EDGE('',*,*,#446,.F.);
#448=CARTESIAN_POINT('',(2.391221522,11.,-0.25));
#449=DIRECTION('',(0.,0.,1.));
#450=VECTOR('',#449,0.25);
#451=LINE('',#448,#450);
#452=EDGE_CURVE('',#441,#385,#451,.T.);
#453=ORIENTED_EDGE('',*,*,#452,.T.);
#454=EDGE_LOOP('',(#438,#439,#447,#453));
#455=FACE_BOUND('',#454,.T.);
#456=ADVANCED_FACE('',(#455),#437,.F.);
#457=CARTESIAN_POINT('',(2.391221522,10.35,-0.25));
#458=DIRECTION('',(1.,0.,0.));
#459=DIRECTION('',(-0.,1.,0.));
#460=AXIS2_PLACEMENT_3D('',#457,#458,#459);
#461=PLANE('',#460);
#462=ORIENTED_EDGE('',*,*,#184,.T.);
#463=ORIENTED_EDGE('',*,*,#396,.T.);
#464=ORIENTED_EDGE('',*,*,#452,.F.);
#465=CARTESIAN_POINT('',(2.391221522,9.7,-0.25));
#466=VERTEX_POINT('',#465);
#467=CARTESIAN_POINT('',(2.391221522,9.7,-0.25));
#468=DIRECTION('',(-0.,1.,0.));
#469=VECTOR('',#468,1.3);
#470=LINE('',#467,#469);
#471=EDGE_CURVE('',#466,#441,#470,.T.);
#472=ORIENTED_EDGE('',*,*,#471,.F.);
#473=CARTESIAN_POINT('',(2.391221522,9.7,-0.25));
#474=DIRECTION('',(0.,0.,1.));
#475=VECTOR('',#474,0.25);
#476=LINE('',#473,#475);
#477=EDGE_CURVE('',#466,#179,#476,.T.);
#478=ORIENTED_EDGE('',*,*,#477,.T.);
#479=EDGE_LOOP('',(#462,#463,#464,#472,#478));
#480=FACE_BOUND('',#479,.T.);
#481=ADVANCED_FACE('',(#480),#461,.F.);
#482=CARTESIAN_POINT('',(2.641221522,9.7,-0.25));
#483=DIRECTION('',(0.,1.,0.));
#484=DIRECTION('',(0.,0.,1.));
#485=AXIS2_PLACEMENT_3D('',#482,#483,#484);
#486=PLANE('',#485);
#487=ORIENTED_EDGE('',*,*,#192,.T.);
#488=ORIENTED_EDGE('',*,*,#477,.F.);
#489=CARTESIAN_POINT('',(2.891221522,9.7,-0.25));
#490=DIRECTION('',(-1.,0.,0.));
#491=VECTOR('',#490,0.5);
#492=LINE('',#489,#491);
#493=EDGE_CURVE('',#409,#466,#492,.T.);
#494=ORIENTED_EDGE('',*,*,#493,.F.);
#495=ORIENTED_EDGE('',*,*,#414,.T.);
#496=EDGE_LOOP('',(#487,#488,#494,#495));
#497=FACE_BOUND('',#496,.T.);
#498=ADVANCED_FACE('',(#497),#486,.F.);
#499=CARTESIAN_POINT('',(0.,0.,-0.25));
#500=DIRECTION('',(0.,0.,1.));
#501=DIRECTION('',(1.,0.,0.));
#502=AXIS2_PLACEMENT_3D('',#499,#500,#501);
#503=PLANE('',#502);
#504=ORIENTED_EDGE('',*,*,#422,.T.);
#505=ORIENTED_EDGE('',*,*,#493,.T.);
#506=ORIENTED_EDGE('',*,*,#471,.T.);
#507=ORIENTED_EDGE('',*,*,#446,.T.);
#508=EDGE_LOOP('',(#504,#505,#506,#507));
#509=FACE_BOUND('',#508,.T.);
#510=ADVANCED_FACE('',(#509),#503,.F.);
#511=CARTESIAN_POINT('',(0.,0.,0.));
#512=DIRECTION('',(0.,0.,1.));
#513=DIRECTION('',(1.,0.,0.));
#514=AXIS2_PLACEMENT_3D('',#511,#512,#513);
#515=PLANE('',#514);
#516=ORIENTED_EDGE('',*,*,#244,.F.);
#517=CARTESIAN_POINT('',(4.931221522,-0.1,0.));
#518=VERTEX_POINT('',#517);
#519=CARTESIAN_POINT('',(4.931221522,-0.1,0.));
#520=DIRECTION('',(0.,1.,0.));
#521=VECTOR('',#520,0.1);
#522=LINE('',#519,#521);
#523=EDGE_CURVE('',#518,#115,#522,.T.);
#524=ORIENTED_EDGE('',*,*,#523,.F.);
#525=CARTESIAN_POINT('',(5.431221522,-0.1,0.));
#526=VERTEX_POINT('',#525);
#527=CARTESIAN_POINT('',(5.431221522,-0.1,0.));
#528=DIRECTION('',(-1.,-0.,0.));
#529=VECTOR('',#528,0.5);
#530=LINE('',#527,#529);
#531=EDGE_CURVE('',#526,#518,#530,.T.);
#532=ORIENTED_EDGE('',*,*,#531,.F.);
#533=CARTESIAN_POINT('',(5.431221522,0.,0.));
#534=DIRECTION('',(0.,-1.,0.));
#535=VECTOR('',#534,0.1);
#536=LINE('',#533,#535);
#537=EDGE_CURVE('',#91,#526,#536,.T.);
#538=ORIENTED_EDGE('',*,*,#537,.F.);
#539=EDGE_LOOP('',(#516,#524,#532,#538));
#540=FACE_BOUND('',#539,.T.);
#541=ADVANCED_FACE('',(#540),#515,.T.);
#542=CARTESIAN_POINT('',(5.431221522,0.55,-0.25));
#543=DIRECTION('',(-1.,-0.,0.));
#544=DIRECTION('',(0.,-1.,0.));
#545=AXIS2_PLACEMENT_3D('',#542,#543,#544);
#546=PLANE('',#545);
#547=ORIENTED_EDGE('',*,*,#104,.T.);
#548=ORIENTED_EDGE('',*,*,#537,.T.);
#549=CARTESIAN_POINT('',(5.431221522,-0.1,-0.25));
#550=VERTEX_POINT('',#549);
#551=CARTESIAN_POINT('',(5.431221522,-0.1,-0.25));
#552=DIRECTION('',(0.,0.,1.));
#553=VECTOR('',#552,0.25);
#554=LINE('',#551,#553);
#555=EDGE_CURVE('',#550,#526,#554,.T.);
#556=ORIENTED_EDGE('',*,*,#555,.F.);
#557=CARTESIAN_POINT('',(5.431221522,1.2,-0.25));
#558=VERTEX_POINT('',#557);
#559=CARTESIAN_POINT('',(5.431221522,1.2,-0.25));
#560=DIRECTION('',(0.,-1.,0.));
#561=VECTOR('',#560,1.3);
#562=LINE('',#559,#561);
#563=EDGE_CURVE('',#558,#550,#562,.T.);
#564=ORIENTED_EDGE('',*,*,#563,.F.);
#565=CARTESIAN_POINT('',(5.431221522,1.2,-0.25));
#566=DIRECTION('',(0.,0.,1.));
#567=VECTOR('',#566,0.25);
#568=LINE('',#565,#567);
#569=EDGE_CURVE('',#558,#99,#568,.T.);
#570=ORIENTED_EDGE('',*,*,#569,.T.);
#571=EDGE_LOOP('',(#547,#548,#556,#564,#570));
#572=FACE_BOUND('',#571,.T.);
#573=ADVANCED_FACE('',(#572),#546,.F.);
#574=CARTESIAN_POINT('',(5.181221522,1.2,-0.25));
#575=DIRECTION('',(0.,-1.,0.));
#576=DIRECTION('',(1.,0.,0.));
#577=AXIS2_PLACEMENT_3D('',#574,#575,#576);
#578=PLANE('',#577);
#579=ORIENTED_EDGE('',*,*,#112,.T.);
#580=ORIENTED_EDGE('',*,*,#569,.F.);
#581=CARTESIAN_POINT('',(4.931221522,1.2,-0.25));
#582=VERTEX_POINT('',#581);
#583=CARTESIAN_POINT('',(4.931221522,1.2,-0.25));
#584=DIRECTION('',(1.,0.,0.));
#585=VECTOR('',#584,0.5);
#586=LINE('',#583,#585);
#587=EDGE_CURVE('',#582,#558,#586,.T.);
#588=ORIENTED_EDGE('',*,*,#587,.F.);
#589=CARTESIAN_POINT('',(4.931221522,1.2,-0.25));
#590=DIRECTION('',(0.,0.,1.));
#591=VECTOR('',#590,0.25);
#592=LINE('',#589,#591);
#593=EDGE_CURVE('',#582,#107,#592,.T.);
#594=ORIENTED_EDGE('',*,*,#593,.T.);
#595=EDGE_LOOP('',(#579,#580,#588,#594));
#596=FACE_BOUND('',#595,.T.);
#597=ADVANCED_FACE('',(#596),#578,.F.);
#598=CARTESIAN_POINT('',(4.931221522,0.55,-0.25));
#599=DIRECTION('',(1.,0.,0.));
#600=DIRECTION('',(0.,0.,-1.));
#601=AXIS2_PLACEMENT_3D('',#598,#599,#600);
#602=PLANE('',#601);
#603=ORIENTED_EDGE('',*,*,#523,.T.);
#604=ORIENTED_EDGE('',*,*,#120,.T.);
#605=ORIENTED_EDGE('',*,*,#593,.F.);
#606=CARTESIAN_POINT('',(4.931221522,-0.1,-0.25));
#607=VERTEX_POINT('',#606);
#608=CARTESIAN_POINT('',(4.931221522,-0.1,-0.25));
#609=DIRECTION('',(0.,1.,0.));
#610=VECTOR('',#609,1.3);
#611=LINE('',#608,#610);
#612=EDGE_CURVE('',#607,#582,#611,.T.);
#613=ORIENTED_EDGE('',*,*,#612,.F.);
#614=CARTESIAN_POINT('',(4.931221522,-0.1,-0.25));
#615=DIRECTION('',(0.,0.,1.));
#616=VECTOR('',#615,0.25);
#617=LINE('',#614,#616);
#618=EDGE_CURVE('',#607,#518,#617,.T.);
#619=ORIENTED_EDGE('',*,*,#618,.T.);
#620=EDGE_LOOP('',(#603,#604,#605,#613,#619));
#621=FACE_BOUND('',#620,.T.);
#622=ADVANCED_FACE('',(#621),#602,.F.);
#623=CARTESIAN_POINT('',(5.181221522,-0.1,-0.25));
#624=DIRECTION('',(-0.,1.,0.));
#625=DIRECTION('',(-1.,-0.,0.));
#626=AXIS2_PLACEMENT_3D('',#623,#624,#625);
#627=PLANE('',#626);
#628=ORIENTED_EDGE('',*,*,#531,.T.);
#629=ORIENTED_EDGE('',*,*,#618,.F.);
#630=CARTESIAN_POINT('',(5.431221522,-0.1,-0.25));
#631=DIRECTION('',(-1.,-0.,0.));
#632=VECTOR('',#631,0.5);
#633=LINE('',#630,#632);
#634=EDGE_CURVE('',#550,#607,#633,.T.);
#635=ORIENTED_EDGE('',*,*,#634,.F.);
#636=ORIENTED_EDGE('',*,*,#555,.T.);
#637=EDGE_LOOP('',(#628,#629,#635,#636));
#638=FACE_BOUND('',#637,.T.);
#639=ADVANCED_FACE('',(#638),#627,.F.);
#640=CARTESIAN_POINT('',(0.,0.,-0.25));
#641=DIRECTION('',(0.,0.,1.));
#642=DIRECTION('',(1.,0.,0.));
#643=AXIS2_PLACEMENT_3D('',#640,#641,#642);
#644=PLANE('',#643);
#645=ORIENTED_EDGE('',*,*,#563,.T.);
#646=ORIENTED_EDGE('',*,*,#634,.T.);
#647=ORIENTED_EDGE('',*,*,#612,.T.);
#648=ORIENTED_EDGE('',*,*,#587,.T.);
#649=EDGE_LOOP('',(#645,#646,#647,#648));
#650=FACE_BOUND('',#649,.T.);
#651=ADVANCED_FACE('',(#650),#644,.F.);
#652=CARTESIAN_POINT('',(0.,0.,0.));
#653=DIRECTION('',(0.,0.,1.));
#654=DIRECTION('',(1.,0.,0.));
#655=AXIS2_PLACEMENT_3D('',#652,#653,#654);
#656=PLANE('',#655);
#657=ORIENTED_EDGE('',*,*,#251,.F.);
#658=CARTESIAN_POINT('',(10.011221522,-0.1,0.));
#659=VERTEX_POINT('',#658);
#660=CARTESIAN_POINT('',(10.011221522,-0.1,0.));
#661=DIRECTION('',(-0.,1.,0.));
#662=VECTOR('',#661,0.1);
#663=LINE('',#660,#662);
#664=EDGE_CURVE('',#659,#83,#663,.T.);
#665=ORIENTED_EDGE('',*,*,#664,.F.);
#666=CARTESIAN_POINT('',(10.511221522,-0.1,0.));
#667=VERTEX_POINT('',#666);
#668=CARTESIAN_POINT('',(10.511221522,-0.1,0.));
#669=DIRECTION('',(-1.,-0.,0.));
#670=VECTOR('',#669,0.5);
#671=LINE('',#668,#670);
#672=EDGE_CURVE('',#667,#659,#671,.T.);
#673=ORIENTED_EDGE('',*,*,#672,.F.);
#674=CARTESIAN_POINT('',(10.511221522,0.,0.));
#675=DIRECTION('',(0.,-1.,0.));
#676=VECTOR('',#675,0.1);
#677=LINE('',#674,#676);
#678=EDGE_CURVE('',#59,#667,#677,.T.);
#679=ORIENTED_EDGE('',*,*,#678,.F.);
#680=EDGE_LOOP('',(#657,#665,#673,#679));
#681=FACE_BOUND('',#680,.T.);
#682=ADVANCED_FACE('',(#681),#656,.T.);
#683=CARTESIAN_POINT('',(10.511221522,0.55,-0.25));
#684=DIRECTION('',(-1.,-0.,0.));
#685=DIRECTION('',(0.,-1.,0.));
#686=AXIS2_PLACEMENT_3D('',#683,#684,#685);
#687=PLANE('',#686);
#688=ORIENTED_EDGE('',*,*,#72,.T.);
#689=ORIENTED_EDGE('',*,*,#678,.T.);
#690=CARTESIAN_POINT('',(10.511221522,-0.1,-0.25));
#691=VERTEX_POINT('',#690);
#692=CARTESIAN_POINT('',(10.511221522,-0.1,-0.25));
#693=DIRECTION('',(0.,0.,1.));
#694=VECTOR('',#693,0.25);
#695=LINE('',#692,#694);
#696=EDGE_CURVE('',#691,#667,#695,.T.);
#697=ORIENTED_EDGE('',*,*,#696,.F.);
#698=CARTESIAN_POINT('',(10.511221522,1.2,-0.25));
#699=VERTEX_POINT('',#698);
#700=CARTESIAN_POINT('',(10.511221522,1.2,-0.25));
#701=DIRECTION('',(0.,-1.,0.));
#702=VECTOR('',#701,1.3);
#703=LINE('',#700,#702);
#704=EDGE_CURVE('',#699,#691,#703,.T.);
#705=ORIENTED_EDGE('',*,*,#704,.F.);
#706=CARTESIAN_POINT('',(10.511221522,1.2,-0.25));
#707=DIRECTION('',(0.,0.,1.));
#708=VECTOR('',#707,0.25);
#709=LINE('',#706,#708);
#710=EDGE_CURVE('',#699,#67,#709,.T.);
#711=ORIENTED_EDGE('',*,*,#710,.T.);
#712=EDGE_LOOP('',(#688,#689,#697,#705,#711));
#713=FACE_BOUND('',#712,.T.);
#714=ADVANCED_FACE('',(#713),#687,.F.);
#715=CARTESIAN_POINT('',(10.261221522,1.2,-0.25));
#716=DIRECTION('',(0.,-1.,0.));
#717=DIRECTION('',(1.,0.,0.));
#718=AXIS2_PLACEMENT_3D('',#715,#716,#717);
#719=PLANE('',#718);
#720=ORIENTED_EDGE('',*,*,#80,.T.);
#721=ORIENTED_EDGE('',*,*,#710,.F.);
#722=CARTESIAN_POINT('',(10.011221522,1.2,-0.25));
#723=VERTEX_POINT('',#722);
#724=CARTESIAN_POINT('',(10.011221522,1.2,-0.25));
#725=DIRECTION('',(1.,0.,0.));
#726=VECTOR('',#725,0.5);
#727=LINE('',#724,#726);
#728=EDGE_CURVE('',#723,#699,#727,.T.);
#729=ORIENTED_EDGE('',*,*,#728,.F.);
#730=CARTESIAN_POINT('',(10.011221522,1.2,-0.25));
#731=DIRECTION('',(0.,0.,1.));
#732=VECTOR('',#731,0.25);
#733=LINE('',#730,#732);
#734=EDGE_CURVE('',#723,#75,#733,.T.);
#735=ORIENTED_EDGE('',*,*,#734,.T.);
#736=EDGE_LOOP('',(#720,#721,#729,#735));
#737=FACE_BOUND('',#736,.T.);
#738=ADVANCED_FACE('',(#737),#719,.F.);
#739=CARTESIAN_POINT('',(10.011221522,0.55,-0.25));
#740=DIRECTION('',(1.,0.,0.));
#741=DIRECTION('',(-0.,1.,0.));
#742=AXIS2_PLACEMENT_3D('',#739,#740,#741);
#743=PLANE('',#742);
#744=ORIENTED_EDGE('',*,*,#664,.T.);
#745=ORIENTED_EDGE('',*,*,#88,.T.);
#746=ORIENTED_EDGE('',*,*,#734,.F.);
#747=CARTESIAN_POINT('',(10.011221522,-0.1,-0.25));
#748=VERTEX_POINT('',#747);
#749=CARTESIAN_POINT('',(10.011221522,-0.1,-0.25));
#750=DIRECTION('',(-0.,1.,0.));
#751=VECTOR('',#750,1.3);
#752=LINE('',#749,#751);
#753=EDGE_CURVE('',#748,#723,#752,.T.);
#754=ORIENTED_EDGE('',*,*,#753,.F.);
#755=CARTESIAN_POINT('',(10.011221522,-0.1,-0.25));
#756=DIRECTION('',(0.,0.,1.));
#757=VECTOR('',#756,0.25);
#758=LINE('',#755,#757);
#759=EDGE_CURVE('',#748,#659,#758,.T.);
#760=ORIENTED_EDGE('',*,*,#759,.T.);
#761=EDGE_LOOP('',(#744,#745,#746,#754,#760));
#762=FACE_BOUND('',#761,.T.);
#763=ADVANCED_FACE('',(#762),#743,.F.);
#764=CARTESIAN_POINT('',(10.261221522,-0.1,-0.25));
#765=DIRECTION('',(-0.,1.,0.));
#766=DIRECTION('',(-1.,-0.,0.));
#767=AXIS2_PLACEMENT_3D('',#764,#765,#766);
#768=PLANE('',#767);
#769=ORIENTED_EDGE('',*,*,#672,.T.);
#770=ORIENTED_EDGE('',*,*,#759,.F.);
#771=CARTESIAN_POINT('',(10.511221522,-0.1,-0.25));
#772=DIRECTION('',(-1.,-0.,0.));
#773=VECTOR('',#772,0.5);
#774=LINE('',#771,#773);
#775=EDGE_CURVE('',#691,#748,#774,.T.);
#776=ORIENTED_EDGE('',*,*,#775,.F.);
#777=ORIENTED_EDGE('',*,*,#696,.T.);
#778=EDGE_LOOP('',(#769,#770,#776,#777));
#779=FACE_BOUND('',#778,.T.);
#780=ADVANCED_FACE('',(#779),#768,.F.);
#781=CARTESIAN_POINT('',(0.,0.,-0.25));
#782=DIRECTION('',(0.,0.,1.));
#783=DIRECTION('',(1.,0.,0.));
#784=AXIS2_PLACEMENT_3D('',#781,#782,#783);
#785=PLANE('',#784);
#786=ORIENTED_EDGE('',*,*,#704,.T.);
#787=ORIENTED_EDGE('',*,*,#775,.T.);
#788=ORIENTED_EDGE('',*,*,#753,.T.);
#789=ORIENTED_EDGE('',*,*,#728,.T.);
#790=EDGE_LOOP('',(#786,#787,#788,#789));
#791=FACE_BOUND('',#790,.T.);
#792=ADVANCED_FACE('',(#791),#785,.F.);
#793=CARTESIAN_POINT('',(0.,0.,0.));
#794=DIRECTION('',(0.,0.,1.));
#795=DIRECTION('',(1.,0.,0.));
#796=AXIS2_PLACEMENT_3D('',#793,#794,#795);
#797=PLANE('',#796);
#798=ORIENTED_EDGE('',*,*,#237,.F.);
#799=CARTESIAN_POINT('',(2.391221522,-0.1,0.));
#800=VERTEX_POINT('',#799);
#801=CARTESIAN_POINT('',(2.391221522,-0.1,0.));
#802=DIRECTION('',(-0.,1.,0.));
#803=VECTOR('',#802,0.1);
#804=LINE('',#801,#803);
#805=EDGE_CURVE('',#800,#147,#804,.T.);
#806=ORIENTED_EDGE('',*,*,#805,.F.);
#807=CARTESIAN_POINT('',(2.891221522,-0.1,0.));
#808=VERTEX_POINT('',#807);
#809=CARTESIAN_POINT('',(2.891221522,-0.1,0.));
#810=DIRECTION('',(-1.,-0.,0.));
#811=VECTOR('',#810,0.5);
#812=LINE('',#809,#811);
#813=EDGE_CURVE('',#808,#800,#812,.T.);
#814=ORIENTED_EDGE('',*,*,#813,.F.);
#815=CARTESIAN_POINT('',(2.891221522,0.,0.));
#816=DIRECTION('',(0.,-1.,0.));
#817=VECTOR('',#816,0.1);
#818=LINE('',#815,#817);
#819=EDGE_CURVE('',#123,#808,#818,.T.);
#820=ORIENTED_EDGE('',*,*,#819,.F.);
#821=EDGE_LOOP('',(#798,#806,#814,#820));
#822=FACE_BOUND('',#821,.T.);
#823=ADVANCED_FACE('',(#822),#797,.T.);
#824=CARTESIAN_POINT('',(2.891221522,0.55,-0.25));
#825=DIRECTION('',(-1.,-0.,0.));
#826=DIRECTION('',(0.,-1.,0.));
#827=AXIS2_PLACEMENT_3D('',#824,#825,#826);
#828=PLANE('',#827);
#829=ORIENTED_EDGE('',*,*,#136,.T.);
#830=ORIENTED_EDGE('',*,*,#819,.T.);
#831=CARTESIAN_POINT('',(2.891221522,-0.1,-0.25));
#832=VERTEX_POINT('',#831);
#833=CARTESIAN_POINT('',(2.891221522,-0.1,-0.25));
#834=DIRECTION('',(0.,0.,1.));
#835=VECTOR('',#834,0.25);
#836=LINE('',#833,#835);
#837=EDGE_CURVE('',#832,#808,#836,.T.);
#838=ORIENTED_EDGE('',*,*,#837,.F.);
#839=CARTESIAN_POINT('',(2.891221522,1.2,-0.25));
#840=VERTEX_POINT('',#839);
#841=CARTESIAN_POINT('',(2.891221522,1.2,-0.25));
#842=DIRECTION('',(0.,-1.,0.));
#843=VECTOR('',#842,1.3);
#844=LINE('',#841,#843);
#845=EDGE_CURVE('',#840,#832,#844,.T.);
#846=ORIENTED_EDGE('',*,*,#845,.F.);
#847=CARTESIAN_POINT('',(2.891221522,1.2,-0.25));
#848=DIRECTION('',(0.,0.,1.));
#849=VECTOR('',#848,0.25);
#850=LINE('',#847,#849);
#851=EDGE_CURVE('',#840,#131,#850,.T.);
#852=ORIENTED_EDGE('',*,*,#851,.T.);
#853=EDGE_LOOP('',(#829,#830,#838,#846,#852));
#854=FACE_BOUND('',#853,.T.);
#855=ADVANCED_FACE('',(#854),#828,.F.);
#856=CARTESIAN_POINT('',(2.641221522,1.2,-0.25));
#857=DIRECTION('',(0.,-1.,0.));
#858=DIRECTION('',(0.,0.,-1.));
#859=AXIS2_PLACEMENT_3D('',#856,#857,#858);
#860=PLANE('',#859);
#861=ORIENTED_EDGE('',*,*,#144,.T.);
#862=ORIENTED_EDGE('',*,*,#851,.F.);
#863=CARTESIAN_POINT('',(2.391221522,1.2,-0.25));
#864=VERTEX_POINT('',#863);
#865=CARTESIAN_POINT('',(2.391221522,1.2,-0.25));
#866=DIRECTION('',(1.,0.,-0.));
#867=VECTOR('',#866,0.5);
#868=LINE('',#865,#867);
#869=EDGE_CURVE('',#864,#840,#868,.T.);
#870=ORIENTED_EDGE('',*,*,#869,.F.);
#871=CARTESIAN_POINT('',(2.391221522,1.2,-0.25));
#872=DIRECTION('',(0.,0.,1.));
#873=VECTOR('',#872,0.25);
#874=LINE('',#871,#873);
#875=EDGE_CURVE('',#864,#139,#874,.T.);
#876=ORIENTED_EDGE('',*,*,#875,.T.);
#877=EDGE_LOOP('',(#861,#862,#870,#876));
#878=FACE_BOUND('',#877,.T.);
#879=ADVANCED_FACE('',(#878),#860,.F.);
#880=CARTESIAN_POINT('',(2.391221522,0.55,-0.25));
#881=DIRECTION('',(1.,0.,0.));
#882=DIRECTION('',(-0.,1.,0.));
#883=AXIS2_PLACEMENT_3D('',#880,#881,#882);
#884=PLANE('',#883);
#885=ORIENTED_EDGE('',*,*,#805,.T.);
#886=ORIENTED_EDGE('',*,*,#152,.T.);
#887=ORIENTED_EDGE('',*,*,#875,.F.);
#888=CARTESIAN_POINT('',(2.391221522,-0.1,-0.25));
#889=VERTEX_POINT('',#888);
#890=CARTESIAN_POINT('',(2.391221522,-0.1,-0.25));
#891=DIRECTION('',(-0.,1.,0.));
#892=VECTOR('',#891,1.3);
#893=LINE('',#890,#892);
#894=EDGE_CURVE('',#889,#864,#893,.T.);
#895=ORIENTED_EDGE('',*,*,#894,.F.);
#896=CARTESIAN_POINT('',(2.391221522,-0.1,-0.25));
#897=DIRECTION('',(0.,0.,1.));
#898=VECTOR('',#897,0.25);
#899=LINE('',#896,#898);
#900=EDGE_CURVE('',#889,#800,#899,.T.);
#901=ORIENTED_EDGE('',*,*,#900,.T.);
#902=EDGE_LOOP('',(#885,#886,#887,#895,#901));
#903=FACE_BOUND('',#902,.T.);
#904=ADVANCED_FACE('',(#903),#884,.F.);
#905=CARTESIAN_POINT('',(2.641221522,-0.1,-0.25));
#906=DIRECTION('',(-0.,1.,0.));
#907=DIRECTION('',(-1.,-0.,0.));
#908=AXIS2_PLACEMENT_3D('',#905,#906,#907);
#909=PLANE('',#908);
#910=ORIENTED_EDGE('',*,*,#813,.T.);
#911=ORIENTED_EDGE('',*,*,#900,.F.);
#912=CARTESIAN_POINT('',(2.891221522,-0.1,-0.25));
#913=DIRECTION('',(-1.,-0.,0.));
#914=VECTOR('',#913,0.5);
#915=LINE('',#912,#914);
#916=EDGE_CURVE('',#832,#889,#915,.T.);
#917=ORIENTED_EDGE('',*,*,#916,.F.);
#918=ORIENTED_EDGE('',*,*,#837,.T.);
#919=EDGE_LOOP('',(#910,#911,#917,#918));
#920=FACE_BOUND('',#919,.T.);
#921=ADVANCED_FACE('',(#920),#909,.F.);
#922=CARTESIAN_POINT('',(0.,0.,-0.25));
#923=DIRECTION('',(0.,0.,1.));
#924=DIRECTION('',(1.,0.,0.));
#925=AXIS2_PLACEMENT_3D('',#922,#923,#924);
#926=PLANE('',#925);
#927=ORIENTED_EDGE('',*,*,#845,.T.);
#928=ORIENTED_EDGE('',*,*,#916,.T.);
#929=ORIENTED_EDGE('',*,*,#894,.T.);
#930=ORIENTED_EDGE('',*,*,#869,.T.);
#931=EDGE_LOOP('',(#927,#928,#929,#930));
#932=FACE_BOUND('',#931,.T.);
#933=ADVANCED_FACE('',(#932),#926,.F.);
#934=CARTESIAN_POINT('',(0.,0.,0.));
#935=DIRECTION('',(0.,0.,1.));
#936=DIRECTION('',(1.,0.,0.));
#937=AXIS2_PLACEMENT_3D('',#934,#935,#936);
#938=PLANE('',#937);
#939=ORIENTED_EDGE('',*,*,#313,.F.);
#940=CARTESIAN_POINT('',(10.511221522,11.,0.));
#941=VERTEX_POINT('',#940);
#942=CARTESIAN_POINT('',(10.511221522,11.,0.));
#943=DIRECTION('',(0.,-1.,0.));
#944=VECTOR('',#943,0.1);
#945=LINE('',#942,#944);
#946=EDGE_CURVE('',#941,#33,#945,.T.);
#947=ORIENTED_EDGE('',*,*,#946,.F.);
#948=CARTESIAN_POINT('',(10.011221522,11.,0.));
#949=VERTEX_POINT('',#948);
#950=CARTESIAN_POINT('',(10.011221522,11.,0.));
#951=DIRECTION('',(1.,0.,-0.));
#952=VECTOR('',#951,0.5);
#953=LINE('',#950,#952);
#954=EDGE_CURVE('',#949,#941,#953,.T.);
#955=ORIENTED_EDGE('',*,*,#954,.F.);
#956=CARTESIAN_POINT('',(10.011221522,10.9,0.));
#957=DIRECTION('',(0.,1.,0.));
#958=VECTOR('',#957,0.1);
#959=LINE('',#956,#958);
#960=EDGE_CURVE('',#203,#949,#959,.T.);
#961=ORIENTED_EDGE('',*,*,#960,.F.);
#962=EDGE_LOOP('',(#939,#947,#955,#961));
#963=FACE_BOUND('',#962,.T.);
#964=ADVANCED_FACE('',(#963),#938,.T.);
#965=CARTESIAN_POINT('',(10.511221522,10.35,-0.25));
#966=DIRECTION('',(-1.,0.,0.));
#967=DIRECTION('',(0.,0.,1.));
#968=AXIS2_PLACEMENT_3D('',#965,#966,#967);
#969=PLANE('',#968);
#970=ORIENTED_EDGE('',*,*,#946,.T.);
#971=ORIENTED_EDGE('',*,*,#40,.T.);
#972=CARTESIAN_POINT('',(10.511221522,9.7,-0.25));
#973=VERTEX_POINT('',#972);
#974=CARTESIAN_POINT('',(10.511221522,9.7,-0.25));
#975=DIRECTION('',(0.,0.,1.));
#976=VECTOR('',#975,0.25);
#977=LINE('',#974,#976);
#978=EDGE_CURVE('',#973,#35,#977,.T.);
#979=ORIENTED_EDGE('',*,*,#978,.F.);
#980=CARTESIAN_POINT('',(10.511221522,11.,-0.25));
#981=VERTEX_POINT('',#980);
#982=CARTESIAN_POINT('',(10.511221522,11.,-0.25));
#983=DIRECTION('',(0.,-1.,0.));
#984=VECTOR('',#983,1.3);
#985=LINE('',#982,#984);
#986=EDGE_CURVE('',#981,#973,#985,.T.);
#987=ORIENTED_EDGE('',*,*,#986,.F.);
#988=CARTESIAN_POINT('',(10.511221522,11.,-0.25));
#989=DIRECTION('',(0.,0.,1.));
#990=VECTOR('',#989,0.25);
#991=LINE('',#988,#990);
#992=EDGE_CURVE('',#981,#941,#991,.T.);
#993=ORIENTED_EDGE('',*,*,#992,.T.);
#994=EDGE_LOOP('',(#970,#971,#979,#987,#993));
#995=FACE_BOUND('',#994,.T.);
#996=ADVANCED_FACE('',(#995),#969,.F.);
#997=CARTESIAN_POINT('',(10.261221522,11.,-0.25));
#998=DIRECTION('',(0.,-1.,0.));
#999=DIRECTION('',(0.,0.,-1.));
#1000=AXIS2_PLACEMENT_3D('',#997,#998,#999);
#1001=PLANE('',#1000);
#1002=ORIENTED_EDGE('',*,*,#954,.T.);
#1003=ORIENTED_EDGE('',*,*,#992,.F.);
#1004=CARTESIAN_POINT('',(10.011221522,11.,-0.25));
#1005=VERTEX_POINT('',#1004);
#1006=CARTESIAN_POINT('',(10.011221522,11.,-0.25));
#1007=DIRECTION('',(1.,0.,-0.));
#1008=VECTOR('',#1007,0.5);
#1009=LINE('',#1006,#1008);
#1010=EDGE_CURVE('',#1005,#981,#1009,.T.);
#1011=ORIENTED_EDGE('',*,*,#1010,.F.);
#1012=CARTESIAN_POINT('',(10.011221522,11.,-0.25));
#1013=DIRECTION('',(0.,0.,1.));
#1014=VECTOR('',#1013,0.25);
#1015=LINE('',#1012,#1014);
#1016=EDGE_CURVE('',#1005,#949,#1015,.T.);
#1017=ORIENTED_EDGE('',*,*,#1016,.T.);
#1018=EDGE_LOOP('',(#1002,#1003,#1011,#1017));
#1019=FACE_BOUND('',#1018,.T.);
#1020=ADVANCED_FACE('',(#1019),#1001,.F.);
#1021=CARTESIAN_POINT('',(10.011221522,10.35,-0.25));
#1022=DIRECTION('',(1.,0.,0.));
#1023=DIRECTION('',(0.,0.,-1.));
#1024=AXIS2_PLACEMENT_3D('',#1021,#1022,#1023);
#1025=PLANE('',#1024);
#1026=ORIENTED_EDGE('',*,*,#216,.T.);
#1027=ORIENTED_EDGE('',*,*,#960,.T.);
#1028=ORIENTED_EDGE('',*,*,#1016,.F.);
#1029=CARTESIAN_POINT('',(10.011221522,9.7,-0.25));
#1030=VERTEX_POINT('',#1029);
#1031=CARTESIAN_POINT('',(10.011221522,9.7,-0.25));
#1032=DIRECTION('',(0.,1.,0.));
#1033=VECTOR('',#1032,1.3);
#1034=LINE('',#1031,#1033);
#1035=EDGE_CURVE('',#1030,#1005,#1034,.T.);
#1036=ORIENTED_EDGE('',*,*,#1035,.F.);
#1037=CARTESIAN_POINT('',(10.011221522,9.7,-0.25));
#1038=DIRECTION('',(0.,0.,1.));
#1039=VECTOR('',#1038,0.25);
#1040=LINE('',#1037,#1039);
#1041=EDGE_CURVE('',#1030,#211,#1040,.T.);
#1042=ORIENTED_EDGE('',*,*,#1041,.T.);
#1043=EDGE_LOOP('',(#1026,#1027,#1028,#1036,#1042));
#1044=FACE_BOUND('',#1043,.T.);
#1045=ADVANCED_FACE('',(#1044),#1025,.F.);
#1046=CARTESIAN_POINT('',(10.261221522,9.7,-0.25));
#1047=DIRECTION('',(0.,1.,0.));
#1048=DIRECTION('',(0.,0.,1.));
#1049=AXIS2_PLACEMENT_3D('',#1046,#1047,#1048);
#1050=PLANE('',#1049);
#1051=ORIENTED_EDGE('',*,*,#222,.T.);
#1052=ORIENTED_EDGE('',*,*,#1041,.F.);
#1053=CARTESIAN_POINT('',(10.511221522,9.7,-0.25));
#1054=DIRECTION('',(-1.,0.,0.));
#1055=VECTOR('',#1054,0.5);
#1056=LINE('',#1053,#1055);
#1057=EDGE_CURVE('',#973,#1030,#1056,.T.);
#1058=ORIENTED_EDGE('',*,*,#1057,.F.);
#1059=ORIENTED_EDGE('',*,*,#978,.T.);
#1060=EDGE_LOOP('',(#1051,#1052,#1058,#1059));
#1061=FACE_BOUND('',#1060,.T.);
#1062=ADVANCED_FACE('',(#1061),#1050,.F.);
#1063=CARTESIAN_POINT('',(0.,0.,-0.25));
#1064=DIRECTION('',(0.,0.,1.));
#1065=DIRECTION('',(1.,0.,0.));
#1066=AXIS2_PLACEMENT_3D('',#1063,#1064,#1065);
#1067=PLANE('',#1066);
#1068=ORIENTED_EDGE('',*,*,#986,.T.);
#1069=ORIENTED_EDGE('',*,*,#1057,.T.);
#1070=ORIENTED_EDGE('',*,*,#1035,.T.);
#1071=ORIENTED_EDGE('',*,*,#1010,.T.);
#1072=EDGE_LOOP('',(#1068,#1069,#1070,#1071));
#1073=FACE_BOUND('',#1072,.T.);
#1074=ADVANCED_FACE('',(#1073),#1067,.F.);
#1075=CLOSED_SHELL('',(#226,#278,#302,#340,#357,#369,#400,#432,#456,#481,#498,#510,#541,#573,#597,#622,#639,#651,#682,#714,#738,#763,#780,#792,#823,#855,
#879,#904,#921,#933,#964,#996,#1020,#1045,#1062,#1074));
#1076=MANIFOLD_SOLID_BREP('K\S\vrper 01',#1075);
#1077=COLOUR_RGB('',0.494117647,0.494117647,0.525490224);
#1078=FILL_AREA_STYLE_COLOUR('',#1077);
#1079=FILL_AREA_STYLE('',(#1078));
#1080=SURFACE_STYLE_FILL_AREA(#1079);
#1081=SURFACE_SIDE_STYLE('',(#1080));
#1082=SURFACE_STYLE_USAGE(.BOTH.,#1081);
#1083=PRESENTATION_STYLE_ASSIGNMENT((#1082));
#26=STYLED_ITEM('',(#1083),#1076);
#16=SHAPE_REPRESENTATION('root',(#15),#10);
#17=ADVANCED_BREP_SHAPE_REPRESENTATION('root',(#1076),#10);
#1091=SHAPE_REPRESENTATION_RELATIONSHIP('','',#16,#17);
#1092=APPLICATION_CONTEXT('configuration controlled 3D design of mechanical parts and assemblies');
#1093=APPLICATION_PROTOCOL_DEFINITION('international standard','configuration_control_3d_design_ed2_mim',2004,#1092);
#1094=PRODUCT_CONTEXT('',#1092,'mechanical');
#1095=PRODUCT_DEFINITION_CONTEXT('part definition',#1092,'design');
#24=PRODUCT('root','root','',(#1094));
#1096=PRODUCT_RELATED_PRODUCT_CATEGORY('part','',(#24));
#1097=PRODUCT_DEFINITION_FORMATION_WITH_SPECIFIED_SOURCE('','',#24,.NOT_KNOWN.);
#25=PRODUCT_DEFINITION('design','',#1097,#1095);
#23=PRODUCT_DEFINITION_SHAPE('','',#25);
#1098=SHAPE_DEFINITION_REPRESENTATION(#23,#16);
#11=DRAUGHTING_MODEL('',(),#10);
#1=MECHANICAL_DESIGN_GEOMETRIC_PRESENTATION_REPRESENTATION('',(#26),#10);
ENDSEC;
END-ISO-10303-21;
