M48
;Layer_Color=9474304
;FILE_FORMAT=2:4
INCH,TZ
;TYPE=PLATED
T01F00S00C0.0079
T02F00S00C0.0118
T03F00S00C0.0197
T04F00S00C0.0320
T05F00S00C0.0354
T06F00S00C0.0394
T07F00S00C0.0510
T08F00S00C0.0630
T09F00S00C0.0787
;TYPE=NON_PLATED
T10F00S00C0.1280
T11F00S00C0.1339
%
T01
X13327Y7057
X13681
X13504Y7293
X13327Y7530
X13681
T02
X1654Y2480
X7638Y945
X8189Y433
X9055
X10000Y748
X11181Y827
Y1181
Y472
X12520Y551
X13150Y551
X15984Y1929
X17008
X17126Y3465
Y3819
X18976Y3898
X19646Y3937
X17953Y748
X25734Y11220
X28175
X29002Y11593
X29474Y11585
X28886Y12762
X27663Y13543
X27317Y14019
X26411Y14058
X25859Y16835
X27761Y16260
X27307Y18520
X26757Y18622
X29120Y18504
X35489Y18361
Y17790
Y17219
X36483Y16835
X38386Y16260
X37941Y14019
X38307Y13504
X37638Y13150
X37036Y14058
X36063Y12598
X35709Y11693
X36378Y11220
X38819
X39567Y11575
X40079
X39511Y12762
X39803Y18465
X37931Y18520
X37362Y18661
X24828Y18386
Y17795
Y17205
X25336Y12594
X18262Y12753
X18341Y11611
X18847
X17548Y11220
X15107
X14005Y11772
X14676Y12501
X15787Y14049
X16693Y14010
X16544Y14578
X16997Y13504
X17137Y16251
X15585Y15982
Y16533
X15235Y16826
X14500Y16341
X14258Y17219
Y17790
Y18361
X16136Y18619
X16683Y18511
X18493Y18425
X13358Y16971
X13020Y10945
X12677Y7953
X11535Y8071
X11811Y6457
X13543Y6693
X13465Y5512
X13701Y4843
X13386Y4134
X14724Y4764
X15669Y4803
X15776Y5472
X16850Y5276
X17165
X17126Y4173
X17993Y6130
X17992Y6772
X18032Y7283
X17441Y7874
X16220Y7992
X16299Y6496
X18990Y6261
X19502Y7285
Y7678
X21181Y5709
X14370Y7953
X9291Y8031
X8740Y8150
X8150Y7559
X7717Y6024
X7047Y6102
X6732Y5709
X6220Y5984
X5984Y5827
Y4685
X3701Y5315
X3150Y4843
X2362Y4882
X1220Y4409
X827
Y11181
X1850
X2362Y10394
X2874Y12165
X3425Y11693
X4094Y12559
X4449Y11142
X6929Y11181
X7717Y11575
X8268Y11535
X7638Y12717
X6417Y13504
X6069Y13973
X5920Y14542
X5163Y14013
X4961Y16496
X4610Y16790
X3622Y17205
Y17776
Y18346
X5512Y18583
X6058Y18475
X7953Y18386
X6513Y16215
X4250Y8663
X3228Y8858
X9528Y5591
X9291Y4724
X9685Y4409
T03
X30028Y12486
X40652Y12486
X24828Y11929
X19404Y12478
X19567Y6732
X8780Y12441
T04
X25857Y19488
X26607
X27357
X28107
X36481
X37231
X37981
X38731
X17483
X16733
X15983
X15233
X6858
X6108
X5358
X4609
T05
X34970Y5610
X35970
X36970
X37970
X37470Y6610
X36470
X35470
X38470
T06
X1024Y5130
Y6130
T07
X3214Y22488
Y23488
Y24488
X8214
Y23488
Y22488
X13838
Y23488
Y24488
X18838
Y23488
Y22488
X24462
Y23488
Y24488
X29462
Y23488
Y22488
X35087
Y23488
Y24488
X40087
Y23488
Y22488
T08
X33671Y1932
X39764
T09
X3659Y29929
X7659
Y33929
X3659
X14520
X18520
Y29929
X14520
X24720
Y33929
X28720
Y29929
X35685
X39685
Y33929
X35685
T10
X34472Y3110
X38972
T11
X945Y1181
X42323
X42323Y38189
X1024
M30
