M48
;Layer_Color=9474304
;FILE_FORMAT=2:4
INCH,TZ
;TYPE=PLATED
T01F00S00C0.0079
T02F00S00C0.0118
T03F00S00C0.0197
T04F00S00C0.0320
T05F00S00C0.0354
T06F00S00C0.0394
T07F00S00C0.0510
T08F00S00C0.0630
T09F00S00C0.0787
;TYPE=NON_PLATED
T10F00S00C0.1280
T11F00S00C0.1339
%
T01
X13563Y7018
X13917
X13740Y7254
X13563Y7490
X13917
T02
X1890Y2441
X7874Y906
X8425Y394
X9291
X10236Y709
X11417Y787
Y1142
Y433
X12756Y512
X13386Y512
X16220Y1890
X17244
X17362Y3425
Y3780
X19213Y3858
X19882Y3898
X18189Y709
X21417Y5669
X22835Y11220
X22437Y12594
X23512Y14058
X24418Y14019
X24764Y13543
X25987Y12762
X26102Y11593
X26575Y11585
X25276Y11220
X24862Y16260
X22960Y16835
X21929Y17205
Y17795
Y18386
X23858Y18622
X24407Y18520
X26220Y18504
X30608Y18361
Y17790
Y17219
X31601Y16835
X33504Y16260
X33059Y14019
X33425Y13504
X32756Y13150
X32154Y14058
X31181Y12598
X30827Y11693
X31496Y11220
X33937
X34685Y11575
X35197
X34629Y12762
X34921Y18465
X33049Y18520
X32480Y18661
X16811Y18425
X15001Y18511
X14454Y18619
X12576Y18361
Y17790
Y17219
X12818Y16341
X13553Y16826
X13903Y16533
Y15982
X15456Y16251
X14862Y14578
X15011Y14010
X15315Y13504
X14106Y14049
X12994Y12501
X12323Y11772
X13425Y11220
X11339Y10945
X11772Y8031
X12913Y7913
X14606
X16457Y7953
X17677Y7835
X18268Y7244
X18228Y6732
X18229Y6090
X19227Y6222
X19738Y7245
Y7639
X16535Y6457
X16012Y5433
X15906Y4764
X14961Y4724
X13937Y4803
X13701Y5472
X13780Y6654
X12047Y6417
X9764Y5551
X9528Y4685
X9921Y4370
X7244Y5591
X6850Y6378
X6457Y6732
X7283Y6850
X7953Y6772
X7992Y6378
X8386Y7520
X8976Y8110
X9528Y7992
X8465Y11535
X7913Y11575
X7126Y11181
X7835Y12717
X6614Y13504
X6265Y13973
X6117Y14542
X5360Y14013
X6710Y16215
X6255Y18475
X5709Y18583
X8150Y18386
X11676Y16971
X16580Y12753
X16659Y11611
X17165
X15866Y11220
X17087Y5236
X17402
X17362Y4134
X13622Y4094
X3937Y5276
X3386Y4803
X2598Y4843
X1457Y4370
X1063
X1102Y11142
X2126
X2638Y10354
X3071Y12165
X3622Y11693
X4291Y12559
X4646Y11142
X4486Y8624
X3465Y8819
X3819Y17205
Y17776
Y18346
X4807Y16790
X5157Y16496
T03
X21929Y11929
X27129Y12486
X35770
X17722Y12478
X19803Y6693
X8976Y12441
T04
X22958Y19533
X23708
X24458
X25207
X31600
X32349
X33099
X33849
X15801Y19525
X15051
X14301
X13551
X7055Y19488
X6305
X5555
X4806
T05
X29744Y6887
X30744
X31744
X32744
X33244Y7887
X32244
X31244
X30244
T06
X1260Y5091
Y6091
T07
X3411Y22488
Y23488
Y24488
X8411
Y23488
Y22488
X12156Y22525
Y23525
Y24525
X17156
Y23525
Y22525
X21563Y22533
Y23533
Y24533
X26563
Y23533
Y22533
X30205
Y23533
Y24533
X35205
Y23533
Y22533
T08
X28445Y5588
X34547
T09
X3856Y29929
Y33929
X7856
Y29929
X12838
Y33929
X16838
Y29929
X21821
Y33929
X25821
Y29929
X30803
Y33929
X34803
Y29929
T10
X29246Y4387
X33746
T11
X1181Y1181
X37402
X37598Y37205
X984
M30
