ISO-10303-21;
HEADER;
FILE_DESCRIPTION (( 'STEP AP214' ),
    '1' );
FILE_NAME ('pressfit support for eike.STEP',
    '2025-10-01T12:32:32',
    ( '' ),
    ( '' ),
    'SwSTEP 2.0',
    'SolidWorks 2024',
    '' );
FILE_SCHEMA (( 'AUTOMOTIVE_DESIGN' ));
ENDSEC;

DATA;
#1 = CARTESIAN_POINT ( 'NONE',  ( 6.000000000000002665, 5.000000000000000000, 5.540000000000007141 ) ) ;
#2 = ORIENTED_EDGE ( 'NONE', *, *, #1006, .F. ) ;
#3 = DIRECTION ( 'NONE',  ( 0.000000000000000000, 1.000000000000000000, -0.000000000000000000 ) ) ;
#4 = ORIENTED_EDGE ( 'NONE', *, *, #725, .F. ) ;
#5 = DIRECTION ( 'NONE',  ( 0.000000000000000000, 0.000000000000000000, 1.000000000000000000 ) ) ;
#6 = CIRCLE ( 'NONE', #280, 1.000000000000000222 ) ;
#7 = DIRECTION ( 'NONE',  ( 0.000000000000000000, 1.000000000000000000, -0.000000000000000000 ) ) ;
#8 = ORIENTED_EDGE ( 'NONE', *, *, #314, .F. ) ;
#9 = CARTESIAN_POINT ( 'NONE',  ( 2.602085213965210642E-15, 5.000000000000000000, 2.540000000000005809 ) ) ;
#10 = ORIENTED_EDGE ( 'NONE', *, *, #355, .T. ) ;
#11 = EDGE_CURVE ( 'NONE', #60, #532, #778, .T. ) ;
#12 = LINE ( 'NONE', #189, #782 ) ;
#13 = VERTEX_POINT ( 'NONE', #457 ) ;
#14 = FACE_OUTER_BOUND ( 'NONE', #587, .T. ) ;
#15 = AXIS2_PLACEMENT_3D ( 'NONE', #713, #951, #1065 ) ;
#16 = ORIENTED_EDGE ( 'NONE', *, *, #407, .T. ) ;
#17 = CARTESIAN_POINT ( 'NONE',  ( -6.000000000000000000, -4.599999999999999645, 9.701730409336969174 ) ) ;
#18 = LINE ( 'NONE', #1051, #641 ) ;
#19 = EDGE_LOOP ( 'NONE', ( #1055, #385, #123, #1026, #571, #887, #846, #861 ) ) ;
#20 = CIRCLE ( 'NONE', #646, 1.000000000000000000 ) ;
#21 = EDGE_LOOP ( 'NONE', ( #915, #199, #517, #33 ) ) ;
#22 = DIRECTION ( 'NONE',  ( -0.000000000000000000, -1.000000000000000000, -0.000000000000000000 ) ) ;
#23 = VECTOR ( 'NONE', #462, 1000.000000000000000 ) ;
#24 = FACE_BOUND ( 'NONE', #219, .T. ) ;
#25 = EDGE_CURVE ( 'NONE', #205, #283, #334, .T. ) ;
#26 = ORIENTED_EDGE ( 'NONE', *, *, #936, .T. ) ;
#27 = DIRECTION ( 'NONE',  ( 0.000000000000000000, 0.000000000000000000, -1.000000000000000000 ) ) ;
#28 = EDGE_CURVE ( 'NONE', #1053, #964, #1066, .T. ) ;
#29 = ORIENTED_EDGE ( 'NONE', *, *, #858, .F. ) ;
#30 = CARTESIAN_POINT ( 'NONE',  ( -3.599999999999999645, -4.599999999999999645, -10.14000000000000057 ) ) ;
#31 = CIRCLE ( 'NONE', #174, 1.000000000000000000 ) ;
#32 = FACE_BOUND ( 'NONE', #320, .T. ) ;
#33 = ORIENTED_EDGE ( 'NONE', *, *, #552, .F. ) ;
#34 = DIRECTION ( 'NONE',  ( 1.000000000000000000, 0.000000000000000000, 0.000000000000000000 ) ) ;
#35 = VERTEX_POINT ( 'NONE', #216 ) ;
#36 = FACE_OUTER_BOUND ( 'NONE', #780, .T. ) ;
#37 = DIRECTION ( 'NONE',  ( 0.000000000000000000, 1.000000000000000000, -0.000000000000000000 ) ) ;
#38 = ORIENTED_EDGE ( 'NONE', *, *, #28, .T. ) ;
#39 = DIRECTION ( 'NONE',  ( 1.000000000000000000, 0.000000000000000000, -1.659493121151281900E-16 ) ) ;
#40 = ORIENTED_EDGE ( 'NONE', *, *, #472, .F. ) ;
#41 = CARTESIAN_POINT ( 'NONE',  ( 0.000000000000000000, 5.000000000000000000, 0.000000000000000000 ) ) ;
#42 = EDGE_CURVE ( 'NONE', #270, #810, #222, .T. ) ;
#43 = DIRECTION ( 'NONE',  ( 0.000000000000000000, 1.000000000000000000, -0.000000000000000000 ) ) ;
#44 = FACE_OUTER_BOUND ( 'NONE', #445, .T. ) ;
#45 = ORIENTED_EDGE ( 'NONE', *, *, #1020, .F. ) ;
#46 = DIRECTION ( 'NONE',  ( -0.000000000000000000, -1.000000000000000000, -0.000000000000000000 ) ) ;
#47 = VECTOR ( 'NONE', #786, 1000.000000000000000 ) ;
#48 = PRODUCT_DEFINITION ( 'UNKNOWN', '', #753, #1013 ) ;
#49 = CARTESIAN_POINT ( 'NONE',  ( 0.000000000000000000, -8.000000000000000000, 0.000000000000000000 ) ) ;
#50 = CARTESIAN_POINT ( 'NONE',  ( 5.999999999999999112, -8.000000000000000000, 5.540000000000007141 ) ) ;
#51 = ORIENTED_EDGE ( 'NONE', *, *, #534, .T. ) ;
#52 = CYLINDRICAL_SURFACE ( 'NONE', #508, 1.000000000000000000 ) ;
#53 = LINE ( 'NONE', #236, #171 ) ;
#54 = CARTESIAN_POINT ( 'NONE',  ( 0.000000000000000000, 0.000000000000000000, -1.000000000000000000 ) ) ;
#55 = ORIENTED_EDGE ( 'NONE', *, *, #245, .T. ) ;
#56 = LINE ( 'NONE', #147, #857 ) ;
#57 = AXIS2_PLACEMENT_3D ( 'NONE', #254, #325, #503 ) ;
#58 = CARTESIAN_POINT ( 'NONE',  ( 2.724549893879946184E-15, 0.000000000000000000, 3.540000000000005809 ) ) ;
#59 = CARTESIAN_POINT ( 'NONE',  ( 2.540000000000006697, 5.000000000000000000, -2.540000000000000480 ) ) ;
#60 = VERTEX_POINT ( 'NONE', #555 ) ;
#61 = AXIS2_PLACEMENT_3D ( 'NONE', #867, #3, #346 ) ;
#62 = LINE ( 'NONE', #401, #370 ) ;
#63 = DIRECTION ( 'NONE',  ( -0.000000000000000000, -1.000000000000000000, -0.000000000000000000 ) ) ;
#64 = CYLINDRICAL_SURFACE ( 'NONE', #850, 1.000000000000000000 ) ;
#65 = EDGE_CURVE ( 'NONE', #577, #283, #993, .T. ) ;
#66 = ORIENTED_EDGE ( 'NONE', *, *, #671, .F. ) ;
#67 = DIRECTION ( 'NONE',  ( -0.000000000000000000, -1.000000000000000000, -0.000000000000000000 ) ) ;
#68 = AXIS2_PLACEMENT_3D ( 'NONE', #869, #1057, #281 ) ;
#69 = CARTESIAN_POINT ( 'NONE',  ( -2.540000000000004032, 5.000000000000000000, -1.539999999999999813 ) ) ;
#70 = EDGE_LOOP ( 'NONE', ( #565, #452, #488, #879 ) ) ;
#71 = DIRECTION ( 'NONE',  ( 1.000000000000000000, 0.000000000000000000, -1.445602896647339163E-16 ) ) ;
#72 = EDGE_CURVE ( 'NONE', #995, #345, #564, .T. ) ;
#73 = EDGE_CURVE ( 'NONE', #537, #1009, #982, .T. ) ;
#74 = CARTESIAN_POINT ( 'NONE',  ( 2.602085213965210642E-15, 5.000000000000000000, 2.540000000000005809 ) ) ;
#75 = ORIENTED_EDGE ( 'NONE', *, *, #72, .T. ) ;
#76 = AXIS2_PLACEMENT_3D ( 'NONE', #979, #120, #721 ) ;
#77 = DIRECTION ( 'NONE',  ( 1.000000000000000000, 0.000000000000000000, -1.445602896647339163E-16 ) ) ;
#78 = VERTEX_POINT ( 'NONE', #550 ) ;
#79 = AXIS2_PLACEMENT_3D ( 'NONE', #458, #802, #34 ) ;
#80 = PRODUCT_DEFINITION_SHAPE ( 'NONE', 'NONE',  #48 ) ;
#81 = ORIENTED_EDGE ( 'NONE', *, *, #282, .F. ) ;
#82 = VECTOR ( 'NONE', #77, 1000.000000000000000 ) ;
#83 = CARTESIAN_POINT ( 'NONE',  ( 0.000000000000000000, 5.000000000000000000, -2.540000000000000036 ) ) ;
#84 = ORIENTED_EDGE ( 'NONE', *, *, #389, .F. ) ;
#85 = PLANE ( 'NONE',  #558 ) ;
#86 = CARTESIAN_POINT ( 'NONE',  ( 2.540000000000009361, 5.000000000000000000, 3.540000000000005809 ) ) ;
#87 = ORIENTED_EDGE ( 'NONE', *, *, #791, .T. ) ;
#88 = CARTESIAN_POINT ( 'NONE',  ( 1.224646799147353207E-16, 5.000000000000000000, -1.540000000000000036 ) ) ;
#89 = DIRECTION ( 'NONE',  ( 0.000000000000000000, 1.000000000000000000, -0.000000000000000000 ) ) ;
#90 = CARTESIAN_POINT ( 'NONE',  ( -3.599999999999999645, -8.000000000000000000, 5.540000000000008029 ) ) ;
#91 = VERTEX_POINT ( 'NONE', #149 ) ;
#92 = LINE ( 'NONE', #1035, #906 ) ;
#93 = ORIENTED_EDGE ( 'NONE', *, *, #459, .T. ) ;
#94 = ADVANCED_FACE ( 'NONE', ( #44 ), #305, .F. ) ;
#95 = VECTOR ( 'NONE', #933, 1000.000000000000000 ) ;
#96 = DIRECTION ( 'NONE',  ( -1.000000000000000000, 0.000000000000000000, 1.445602896647339163E-16 ) ) ;
#97 = VERTEX_POINT ( 'NONE', #726 ) ;
#98 = CARTESIAN_POINT ( 'NONE',  ( 3.600000000000000533, -4.599999999999999645, -10.14000000000000057 ) ) ;
#99 = ORIENTED_EDGE ( 'NONE', *, *, #1070, .T. ) ;
#100 = FACE_OUTER_BOUND ( 'NONE', #21, .T. ) ;
#101 = FACE_OUTER_BOUND ( 'NONE', #156, .T. ) ;
#102 = VERTEX_POINT ( 'NONE', #54 ) ;
#103 = ORIENTED_EDGE ( 'NONE', *, *, #472, .T. ) ;
#104 = CARTESIAN_POINT ( 'NONE',  ( -2.540000000000004032, 5.000000000000000000, -2.540000000000000036 ) ) ;
#105 = ADVANCED_FACE ( 'NONE', ( #910 ), #64, .F. ) ;
#106 = CARTESIAN_POINT ( 'NONE',  ( 2.540000000000008473, 5.000000000000000000, -8.673617379884035472E-16 ) ) ;
#107 = ADVANCED_FACE ( 'NONE', ( #481 ), #398, .T. ) ;
#108 = ORIENTED_EDGE ( 'NONE', *, *, #1108, .F. ) ;
#109 = DIRECTION ( 'NONE',  ( -1.659493121151281900E-16, 0.000000000000000000, -1.000000000000000000 ) ) ;
#110 = CIRCLE ( 'NONE', #790, 1.000000000000000222 ) ;
#111 = EDGE_LOOP ( 'NONE', ( #882, #75, #693, #672 ) ) ;
#112 = DIRECTION ( 'NONE',  ( 0.000000000000000000, 0.000000000000000000, -1.000000000000000000 ) ) ;
#113 = MANIFOLD_SOLID_BREP ( 'Boss-Extrude3', #153 ) ;
#114 = AXIS2_PLACEMENT_3D ( 'NONE', #569, #814, #914 ) ;
#115 = DIRECTION ( 'NONE',  ( 0.000000000000000000, 1.000000000000000000, -0.000000000000000000 ) ) ;
#116 = ORIENTED_EDGE ( 'NONE', *, *, #666, .T. ) ;
#117 = AXIS2_PLACEMENT_3D ( 'NONE', #140, #823, #998 ) ;
#118 = CARTESIAN_POINT ( 'NONE',  ( -5.999999999999998224, 5.000000000000000000, 9.956958726907689918E-16 ) ) ;
#119 = ORIENTED_EDGE ( 'NONE', *, *, #218, .F. ) ;
#120 = DIRECTION ( 'NONE',  ( 0.000000000000000000, -1.000000000000000000, 0.000000000000000000 ) ) ;
#121 = AXIS2_PLACEMENT_3D ( 'NONE', #839, #1005, #239 ) ;
#122 = CARTESIAN_POINT ( 'NONE',  ( -2.540000000000004032, 5.000000000000000000, 0.000000000000000000 ) ) ;
#123 = ORIENTED_EDGE ( 'NONE', *, *, #1023, .F. ) ;
#124 = LINE ( 'NONE', #118, #383 ) ;
#125 = VERTEX_POINT ( 'NONE', #826 ) ;
#126 = VECTOR ( 'NONE', #1045, 1000.000000000000000 ) ;
#127 = DIRECTION ( 'NONE',  ( 0.000000000000000000, 0.000000000000000000, 1.000000000000000000 ) ) ;
#128 = DIRECTION ( 'NONE',  ( -0.000000000000000000, -1.000000000000000000, -0.000000000000000000 ) ) ;
#129 = DIRECTION ( 'NONE',  ( 0.000000000000000000, 0.000000000000000000, -1.000000000000000000 ) ) ;
#130 = EDGE_CURVE ( 'NONE', #911, #467, #651, .T. ) ;
#131 = EDGE_LOOP ( 'NONE', ( #617, #704, #714, #711 ) ) ;
#132 = DIRECTION ( 'NONE',  ( 1.000000000000000000, 0.000000000000000000, 0.000000000000000000 ) ) ;
#133 = AXIS2_PLACEMENT_3D ( 'NONE', #104, #631, #127 ) ;
#134 = MECHANICAL_DESIGN_GEOMETRIC_PRESENTATION_REPRESENTATION (  '', ( #186 ), #589 ) ;
#135 =( LENGTH_UNIT ( ) NAMED_UNIT ( * ) SI_UNIT ( .MILLI., .METRE. ) );
#136 = CIRCLE ( 'NONE', #921, 1.000000000000000000 ) ;
#137 = EDGE_LOOP ( 'NONE', ( #421, #352 ) ) ;
#138 = DIRECTION ( 'NONE',  ( -1.000000000000000000, -0.000000000000000000, -0.000000000000000000 ) ) ;
#139 = AXIS2_PLACEMENT_3D ( 'NONE', #902, #837, #831 ) ;
#140 = CARTESIAN_POINT ( 'NONE',  ( 2.602085213965210642E-15, 0.000000000000000000, 2.540000000000005809 ) ) ;
#141 = EDGE_LOOP ( 'NONE', ( #884, #888, #55, #248 ) ) ;
#142 = DIRECTION ( 'NONE',  ( 0.000000000000000000, 0.000000000000000000, -1.000000000000000000 ) ) ;
#143 = ADVANCED_FACE ( 'NONE', ( #237 ), #1071, .F. ) ;
#144 = EDGE_CURVE ( 'NONE', #759, #13, #145, .T. ) ;
#145 = LINE ( 'NONE', #918, #773 ) ;
#146 = EDGE_LOOP ( 'NONE', ( #919, #877, #99, #515 ) ) ;
#147 = CARTESIAN_POINT ( 'NONE',  ( 0.000000000000000000, 5.000000000000000000, -20.13999999999999702 ) ) ;
#148 = FACE_BOUND ( 'NONE', #984, .T. ) ;
#149 = CARTESIAN_POINT ( 'NONE',  ( 6.000000000000002665, 0.000000000000000000, 5.540000000000007141 ) ) ;
#150 = EDGE_LOOP ( 'NONE', ( #855, #643 ) ) ;
#151 = VECTOR ( 'NONE', #439, 1000.000000000000000 ) ;
#152 = DIRECTION ( 'NONE',  ( -0.000000000000000000, -1.000000000000000000, -0.000000000000000000 ) ) ;
#153 = CLOSED_SHELL ( 'NONE', ( #536, #377, #275, #809, #232, #524, #990, #585, #311, #107, #1081, #824, #1113, #388, #746, #655, #708, #240, #1064, #1106, #987, #105, #143, #409, #626, #435, #699, #618, #94, #702, #783, #737 ) ) ;
#154 = AXIS2_PLACEMENT_3D ( 'NONE', #776, #1022, #403 ) ;
#155 = DIRECTION ( 'NONE',  ( 0.000000000000000000, 1.000000000000000000, -0.000000000000000000 ) ) ;
#156 = EDGE_LOOP ( 'NONE', ( #423, #580, #682, #871 ) ) ;
#157 = LINE ( 'NONE', #327, #741 ) ;
#158 = EDGE_CURVE ( 'NONE', #924, #810, #330, .T. ) ;
#159 = AXIS2_PLACEMENT_3D ( 'NONE', #621, #115, #881 ) ;
#160 = FACE_OUTER_BOUND ( 'NONE', #234, .T. ) ;
#161 = VERTEX_POINT ( 'NONE', #1100 ) ;
#162 = DIRECTION ( 'NONE',  ( 0.000000000000000000, 0.000000000000000000, 1.000000000000000000 ) ) ;
#163 = VERTEX_POINT ( 'NONE', #670 ) ;
#164 = VECTOR ( 'NONE', #747, 1000.000000000000000 ) ;
#165 = LINE ( 'NONE', #1, #164 ) ;
#166 = VERTEX_POINT ( 'NONE', #662 ) ;
#167 = AXIS2_PLACEMENT_3D ( 'NONE', #529, #446, #294 ) ;
#168 = CARTESIAN_POINT ( 'NONE',  ( 8.008640047426269609E-16, 5.000000000000000000, 5.540000000000008029 ) ) ;
#169 = EDGE_LOOP ( 'NONE', ( #988, #429 ) ) ;
#170 = CARTESIAN_POINT ( 'NONE',  ( 6.000000000000000000, -8.000000000000000000, 5.540000000000007141 ) ) ;
#171 = VECTOR ( 'NONE', #891, 1000.000000000000000 ) ;
#172 = DIRECTION ( 'NONE',  ( 0.000000000000000000, 0.000000000000000000, 1.000000000000000000 ) ) ;
#173 = ORIENTED_EDGE ( 'NONE', *, *, #843, .T. ) ;
#174 = AXIS2_PLACEMENT_3D ( 'NONE', #1002, #572, #916 ) ;
#175 = CARTESIAN_POINT ( 'NONE',  ( 2.540000000000008473, 5.000000000000000000, -8.673617379884035472E-16 ) ) ;
#176 = ORIENTED_EDGE ( 'NONE', *, *, #1007, .T. ) ;
#177 = LINE ( 'NONE', #513, #684 ) ;
#178 = DIRECTION ( 'NONE',  ( -0.000000000000000000, -1.000000000000000000, -0.000000000000000000 ) ) ;
#179 = EDGE_CURVE ( 'NONE', #1029, #1004, #1008, .T. ) ;
#180 = ORIENTED_EDGE ( 'NONE', *, *, #908, .F. ) ;
#181 = CARTESIAN_POINT ( 'NONE',  ( 2.540000000000008473, 0.000000000000000000, -8.673617379884035472E-16 ) ) ;
#182 = DIRECTION ( 'NONE',  ( 0.000000000000000000, 0.000000000000000000, 1.000000000000000000 ) ) ;
#183 = DIRECTION ( 'NONE',  ( 0.000000000000000000, 0.000000000000000000, -1.000000000000000000 ) ) ;
#184 = EDGE_LOOP ( 'NONE', ( #678, #316, #647, #434 ) ) ;
#185 = DIRECTION ( 'NONE',  ( 0.000000000000000000, 0.000000000000000000, 1.000000000000000000 ) ) ;
#186 = STYLED_ITEM ( 'NONE', ( #642 ), #113 ) ;
#187 = DIRECTION ( 'NONE',  ( 0.000000000000000000, 1.000000000000000000, -0.000000000000000000 ) ) ;
#188 = AXIS2_PLACEMENT_3D ( 'NONE', #175, #929, #511 ) ;
#189 = CARTESIAN_POINT ( 'NONE',  ( -6.000000000000000888, -8.000000000000000000, 5.540000000000008029 ) ) ;
#190 = AXIS2_PLACEMENT_3D ( 'NONE', #364, #700, #801 ) ;
#191 = ORIENTED_EDGE ( 'NONE', *, *, #671, .T. ) ;
#192 = DIRECTION ( 'NONE',  ( 0.000000000000000000, 0.000000000000000000, 1.000000000000000000 ) ) ;
#193 = ORIENTED_EDGE ( 'NONE', *, *, #1028, .T. ) ;
#194 = EDGE_CURVE ( 'NONE', #796, #91, #165, .T. ) ;
#195 = DIRECTION ( 'NONE',  ( -0.000000000000000000, -1.000000000000000000, -0.000000000000000000 ) ) ;
#196 = EDGE_CURVE ( 'NONE', #166, #966, #498, .T. ) ;
#197 = DIRECTION ( 'NONE',  ( 0.000000000000000000, 0.000000000000000000, -1.000000000000000000 ) ) ;
#198 = CARTESIAN_POINT ( 'NONE',  ( -6.000000000000000000, -8.000000000000000000, -0.000000000000000000 ) ) ;
#199 = ORIENTED_EDGE ( 'NONE', *, *, #830, .T. ) ;
#200 = DIRECTION ( 'NONE',  ( -1.445602896647339163E-16, 0.000000000000000000, -1.000000000000000000 ) ) ;
#201 = EDGE_CURVE ( 'NONE', #841, #532, #677, .T. ) ;
#202 = CARTESIAN_POINT ( 'NONE',  ( -6.000000000000000000, -4.599999999999999645, 5.540000000000008029 ) ) ;
#203 = EDGE_LOOP ( 'NONE', ( #904, #848, #116, #1001 ) ) ;
#204 = AXIS2_PLACEMENT_3D ( 'NONE', #74, #844, #945 ) ;
#205 = VERTEX_POINT ( 'NONE', #852 ) ;
#206 = DIRECTION ( 'NONE',  ( 0.000000000000000000, 1.000000000000000000, -0.000000000000000000 ) ) ;
#207 = AXIS2_PLACEMENT_3D ( 'NONE', #899, #883, #623 ) ;
#208 = FACE_BOUND ( 'NONE', #506, .T. ) ;
#209 = ORIENTED_EDGE ( 'NONE', *, *, #194, .T. ) ;
#210 = CIRCLE ( 'NONE', #836, 1.000000000000000000 ) ;
#211 = FACE_OUTER_BOUND ( 'NONE', #735, .T. ) ;
#212 = VERTEX_POINT ( 'NONE', #596 ) ;
#213 = DIRECTION ( 'NONE',  ( 0.000000000000000000, 0.000000000000000000, -1.000000000000000000 ) ) ;
#214 = DIRECTION ( 'NONE',  ( -0.000000000000000000, -1.000000000000000000, -0.000000000000000000 ) ) ;
#215 = EDGE_CURVE ( 'NONE', #283, #205, #253, .T. ) ;
#216 = CARTESIAN_POINT ( 'NONE',  ( -2.540000000000004032, 0.000000000000000000, 3.540000000000005809 ) ) ;
#217 = DIRECTION ( 'NONE',  ( -0.000000000000000000, -1.000000000000000000, -0.000000000000000000 ) ) ;
#218 = EDGE_CURVE ( 'NONE', #13, #371, #110, .T. ) ;
#219 = EDGE_LOOP ( 'NONE', ( #331, #45 ) ) ;
#220 = VECTOR ( 'NONE', #128, 1000.000000000000000 ) ;
#221 = DIRECTION ( 'NONE',  ( 0.000000000000000000, 0.000000000000000000, 1.000000000000000000 ) ) ;
#222 = LINE ( 'NONE', #559, #960 ) ;
#223 = ORIENTED_EDGE ( 'NONE', *, *, #42, .T. ) ;
#224 = AXIS2_PLACEMENT_3D ( 'NONE', #404, #864, #859 ) ;
#225 = PLANE ( 'NONE',  #1091 ) ;
#226 = AXIS2_PLACEMENT_3D ( 'NONE', #471, #195, #112 ) ;
#227 = LINE ( 'NONE', #909, #738 ) ;
#228 = CARTESIAN_POINT ( 'NONE',  ( -1.465841337200401995E-15, -8.000000000000000000, -10.14000000000000057 ) ) ;
#229 = EDGE_LOOP ( 'NONE', ( #1046, #1111 ) ) ;
#230 = LINE ( 'NONE', #557, #318 ) ;
#231 = EDGE_CURVE ( 'NONE', #345, #940, #845, .T. ) ;
#232 = ADVANCED_FACE ( 'NONE', ( #160 ), #495, .F. ) ;
#233 = CARTESIAN_POINT ( 'NONE',  ( -2.540000000000004032, 0.000000000000000000, 1.540000000000005587 ) ) ;
#234 = EDGE_LOOP ( 'NONE', ( #176, #1015, #932, #628 ) ) ;
#235 = PLANE ( 'NONE',  #460 ) ;
#236 = CARTESIAN_POINT ( 'NONE',  ( 6.000000000000000000, -4.599999999999999645, 9.701730409336969174 ) ) ;
#237 = FACE_OUTER_BOUND ( 'NONE', #308, .T. ) ;
#238 = EDGE_LOOP ( 'NONE', ( #1101, #16 ) ) ;
#239 = DIRECTION ( 'NONE',  ( 0.000000000000000000, 0.000000000000000000, 1.000000000000000000 ) ) ;
#240 = ADVANCED_FACE ( 'NONE', ( #1032 ), #763, .F. ) ;
#241 = CARTESIAN_POINT ( 'NONE',  ( -2.540000000000004032, 0.000000000000000000, 0.000000000000000000 ) ) ;
#242 = ORIENTED_EDGE ( 'NONE', *, *, #342, .F. ) ;
#243 = CARTESIAN_POINT ( 'NONE',  ( 8.008640047426269609E-16, 0.000000000000000000, 5.540000000000008029 ) ) ;
#244 = CARTESIAN_POINT ( 'NONE',  ( 2.540000000000008473, 0.000000000000000000, -8.673617379884035472E-16 ) ) ;
#245 = EDGE_CURVE ( 'NONE', #374, #1083, #543, .T. ) ;
#246 = VERTEX_POINT ( 'NONE', #1024 ) ;
#247 = LINE ( 'NONE', #88, #997 ) ;
#248 = ORIENTED_EDGE ( 'NONE', *, *, #974, .T. ) ;
#249 = CARTESIAN_POINT ( 'NONE',  ( -5.999999999999997335, 5.000000000000000000, 5.540000000000008029 ) ) ;
#250 = VERTEX_POINT ( 'NONE', #754 ) ;
#251 = FACE_OUTER_BOUND ( 'NONE', #415, .T. ) ;
#252 = FACE_OUTER_BOUND ( 'NONE', #184, .T. ) ;
#253 = CIRCLE ( 'NONE', #697, 1.000000000000000222 ) ;
#254 = CARTESIAN_POINT ( 'NONE',  ( -2.540000000000004032, 5.000000000000000000, -2.540000000000000036 ) ) ;
#255 = ORIENTED_EDGE ( 'NONE', *, *, #926, .T. ) ;
#256 = DIRECTION ( 'NONE',  ( 0.000000000000000000, 1.000000000000000000, 0.000000000000000000 ) ) ;
#257 = VECTOR ( 'NONE', #544, 1000.000000000000000 ) ;
#258 = CIRCLE ( 'NONE', #399, 1.000000000000000000 ) ;
#259 = EDGE_CURVE ( 'NONE', #832, #796, #1107, .T. ) ;
#260 = UNCERTAINTY_MEASURE_WITH_UNIT (LENGTH_MEASURE( 1.000000000000000082E-05 ), #450, 'distance_accuracy_value', 'NONE');
#261 = CARTESIAN_POINT ( 'NONE',  ( 0.000000000000000000, 0.000000000000000000, -2.540000000000000036 ) ) ;
#262 = ORIENTED_EDGE ( 'NONE', *, *, #1070, .F. ) ;
#263 = VECTOR ( 'NONE', #1079, 1000.000000000000000 ) ;
#264 = DIRECTION ( 'NONE',  ( -0.000000000000000000, -1.000000000000000000, -0.000000000000000000 ) ) ;
#265 = EDGE_LOOP ( 'NONE', ( #556, #496, #1116, #788 ) ) ;
#266 = AXIS2_PLACEMENT_3D ( 'NONE', #769, #7, #1039 ) ;
#267 = LINE ( 'NONE', #724, #220 ) ;
#268 = ORIENTED_EDGE ( 'NONE', *, *, #772, .F. ) ;
#269 = DIRECTION ( 'NONE',  ( 0.000000000000000000, 1.000000000000000000, -0.000000000000000000 ) ) ;
#270 = VERTEX_POINT ( 'NONE', #249 ) ;
#271 = DIRECTION ( 'NONE',  ( 0.000000000000000000, 0.000000000000000000, 1.000000000000000000 ) ) ;
#272 = EDGE_CURVE ( 'NONE', #348, #371, #922, .T. ) ;
#273 = ORIENTED_EDGE ( 'NONE', *, *, #1023, .T. ) ;
#274 = CARTESIAN_POINT ( 'NONE',  ( -5.999999999999998224, 5.000000000000000000, 9.956958726907689918E-16 ) ) ;
#275 = ADVANCED_FACE ( 'NONE', ( #582 ), #410, .F. ) ;
#276 = AXIS2_PLACEMENT_3D ( 'NONE', #300, #285, #221 ) ;
#277 = ORIENTED_EDGE ( 'NONE', *, *, #936, .F. ) ;
#278 = COLOUR_RGB ( '',0.7921568627450980005, 0.8196078431372548767, 0.9333333333333333481 ) ;
#279 = LINE ( 'NONE', #613, #23 ) ;
#280 = AXIS2_PLACEMENT_3D ( 'NONE', #715, #808, #192 ) ;
#281 = DIRECTION ( 'NONE',  ( 0.000000000000000000, 0.000000000000000000, 1.000000000000000000 ) ) ;
#282 = EDGE_CURVE ( 'NONE', #78, #293, #20, .T. ) ;
#283 = VERTEX_POINT ( 'NONE', #509 ) ;
#284 = ORIENTED_EDGE ( 'NONE', *, *, #389, .T. ) ;
#285 = DIRECTION ( 'NONE',  ( 0.000000000000000000, 1.000000000000000000, -0.000000000000000000 ) ) ;
#286 = FACE_BOUND ( 'NONE', #709, .T. ) ;
#287 = VERTEX_POINT ( 'NONE', #86 ) ;
#288 = APPLICATION_PROTOCOL_DEFINITION ( 'draft international standard', 'automotive_design', 1998, #1063 ) ;
#289 = ORIENTED_EDGE ( 'NONE', *, *, #259, .T. ) ;
#290 = FACE_OUTER_BOUND ( 'NONE', #1034, .T. ) ;
#291 = VERTEX_POINT ( 'NONE', #425 ) ;
#292 = CARTESIAN_POINT ( 'NONE',  ( -6.000000000000000888, -4.599999999999999645, 5.540000000000008029 ) ) ;
#293 = VERTEX_POINT ( 'NONE', #514 ) ;
#294 = DIRECTION ( 'NONE',  ( 0.000000000000000000, 0.000000000000000000, 1.000000000000000000 ) ) ;
#295 = EDGE_CURVE ( 'NONE', #1009, #1029, #742, .T. ) ;
#296 = DIRECTION ( 'NONE',  ( -0.000000000000000000, -1.000000000000000000, -0.000000000000000000 ) ) ;
#297 = VECTOR ( 'NONE', #1077, 1000.000000000000000 ) ;
#298 = FACE_OUTER_BOUND ( 'NONE', #400, .T. ) ;
#299 = ORIENTED_EDGE ( 'NONE', *, *, #194, .F. ) ;
#300 = CARTESIAN_POINT ( 'NONE',  ( 0.000000000000000000, 0.000000000000000000, 0.000000000000000000 ) ) ;
#301 = SURFACE_SIDE_STYLE ('',( #384 ) ) ;
#302 = VERTEX_POINT ( 'NONE', #535 ) ;
#303 = CARTESIAN_POINT ( 'NONE',  ( -3.599999999999999645, -8.000000000000000000, 5.540000000000008029 ) ) ;
#304 = DIRECTION ( 'NONE',  ( 1.000000000000000000, 0.000000000000000000, -1.445602896647339163E-16 ) ) ;
#305 = PLANE ( 'NONE',  #139 ) ;
#306 = APPLICATION_PROTOCOL_DEFINITION ( 'draft international standard', 'automotive_design', 1998, #1117 ) ;
#307 = EDGE_CURVE ( 'NONE', #995, #978, #1096, .T. ) ;
#308 = EDGE_LOOP ( 'NONE', ( #411, #299, #958, #223 ) ) ;
#309 = VECTOR ( 'NONE', #674, 1000.000000000000000 ) ;
#310 = DIRECTION ( 'NONE',  ( -0.000000000000000000, -1.000000000000000000, -0.000000000000000000 ) ) ;
#311 = ADVANCED_FACE ( 'NONE', ( #101 ), #799, .F. ) ;
#312 = CIRCLE ( 'NONE', #133, 1.000000000000000222 ) ;
#313 = DIRECTION ( 'NONE',  ( 1.445602896647339163E-16, -0.000000000000000000, 1.000000000000000000 ) ) ;
#314 = EDGE_CURVE ( 'NONE', #478, #900, #948, .T. ) ;
#315 = AXIS2_PLACEMENT_3D ( 'NONE', #835, #63, #1037 ) ;
#316 = ORIENTED_EDGE ( 'NONE', *, *, #734, .T. ) ;
#317 = DIRECTION ( 'NONE',  ( 1.000000000000000000, -0.000000000000000000, 0.000000000000000000 ) ) ;
#318 = VECTOR ( 'NONE', #479, 1000.000000000000000 ) ;
#319 = SURFACE_STYLE_USAGE ( .BOTH. , #301 ) ;
#320 = EDGE_LOOP ( 'NONE', ( #81, #66 ) ) ;
#321 = CARTESIAN_POINT ( 'NONE',  ( -2.540000000000004032, 5.000000000000000000, -3.540000000000000480 ) ) ;
#322 = VECTOR ( 'NONE', #214, 1000.000000000000000 ) ;
#323 = DIRECTION ( 'NONE',  ( -0.000000000000000000, -1.000000000000000000, -0.000000000000000000 ) ) ;
#324 = PRODUCT ( 'pressfit support for eike', 'pressfit support for eike', '', ( #970 ) ) ;
#325 = DIRECTION ( 'NONE',  ( -0.000000000000000000, -1.000000000000000000, -0.000000000000000000 ) ) ;
#326 = ORIENTED_EDGE ( 'NONE', *, *, #520, .T. ) ;
#327 = CARTESIAN_POINT ( 'NONE',  ( -6.000000000000000000, -8.000000000000000000, 5.540000000000008029 ) ) ;
#328 = AXIS2_PLACEMENT_3D ( 'NONE', #547, #372, #554 ) ;
#329 = EDGE_CURVE ( 'NONE', #97, #302, #494, .T. ) ;
#330 = LINE ( 'NONE', #667, #309 ) ;
#331 = ORIENTED_EDGE ( 'NONE', *, *, #581, .F. ) ;
#332 = AXIS2_PLACEMENT_3D ( 'NONE', #274, #610, #959 ) ;
#333 = LINE ( 'NONE', #669, #977 ) ;
#334 = CIRCLE ( 'NONE', #190, 1.000000000000000222 ) ;
#335 = CARTESIAN_POINT ( 'NONE',  ( 6.000000000000001776, 5.000000000000000000, -9.956958726907693862E-16 ) ) ;
#336 = ORIENTED_EDGE ( 'NONE', *, *, #634, .F. ) ;
#337 = CARTESIAN_POINT ( 'NONE',  ( -1.465841337200401995E-15, 0.000000000000000000, -10.14000000000000057 ) ) ;
#338 = ORIENTED_EDGE ( 'NONE', *, *, #1094, .F. ) ;
#339 = DIRECTION ( 'NONE',  ( 0.000000000000000000, 0.000000000000000000, 1.000000000000000000 ) ) ;
#340 = EDGE_LOOP ( 'NONE', ( #827, #51, #180, #695 ) ) ;
#341 = DIRECTION ( 'NONE',  ( 1.000000000000000000, 0.000000000000000000, -1.445602896647339163E-16 ) ) ;
#342 = EDGE_CURVE ( 'NONE', #978, #995, #356, .T. ) ;
#343 = EDGE_CURVE ( 'NONE', #374, #1053, #12, .T. ) ;
#344 = CARTESIAN_POINT ( 'NONE',  ( -3.599999999999999645, -8.000000000000000000, 9.701730409336969174 ) ) ;
#345 = VERTEX_POINT ( 'NONE', #792 ) ;
#346 = DIRECTION ( 'NONE',  ( 0.000000000000000000, 0.000000000000000000, 1.000000000000000000 ) ) ;
#347 = AXIS2_PLACEMENT_3D ( 'NONE', #9, #432, #683 ) ;
#348 = VERTEX_POINT ( 'NONE', #627 ) ;
#349 = CARTESIAN_POINT ( 'NONE',  ( 5.999999999999998224, -8.000000000000000000, -20.13999999999999702 ) ) ;
#350 = CIRCLE ( 'NONE', #154, 1.000000000000000222 ) ;
#351 = CARTESIAN_POINT ( 'NONE',  ( -2.540000000000004032, 0.000000000000000000, -1.539999999999999813 ) ) ;
#352 = ORIENTED_EDGE ( 'NONE', *, *, #215, .T. ) ;
#353 = DIRECTION ( 'NONE',  ( -0.000000000000000000, -1.000000000000000000, -0.000000000000000000 ) ) ;
#354 = ORIENTED_EDGE ( 'NONE', *, *, #418, .F. ) ;
#355 = EDGE_CURVE ( 'NONE', #757, #924, #777, .T. ) ;
#356 = CIRCLE ( 'NONE', #464, 1.000000000000000222 ) ;
#357 = CARTESIAN_POINT ( 'NONE',  ( -6.000000000000000000, -8.000000000000000000, -10.14000000000000057 ) ) ;
#358 = ORIENTED_EDGE ( 'NONE', *, *, #723, .F. ) ;
#359 = CARTESIAN_POINT ( 'NONE',  ( -3.599999999999999645, -8.000000000000000000, -10.14000000000000057 ) ) ;
#360 = ORIENTED_EDGE ( 'NONE', *, *, #144, .F. ) ;
#361 = FACE_BOUND ( 'NONE', #169, .T. ) ;
#362 = VECTOR ( 'NONE', #1112, 1000.000000000000000 ) ;
#363 = FACE_OUTER_BOUND ( 'NONE', #838, .T. ) ;
#364 = CARTESIAN_POINT ( 'NONE',  ( -2.540000000000004032, 0.000000000000000000, 0.000000000000000000 ) ) ;
#365 = AXIS2_PLACEMENT_3D ( 'NONE', #1069, #811, #213 ) ;
#366 = EDGE_LOOP ( 'NONE', ( #358, #930, #1078, #1043 ) ) ;
#367 = FACE_OUTER_BOUND ( 'NONE', #739, .T. ) ;
#368 = DIRECTION ( 'NONE',  ( 0.000000000000000000, 0.000000000000000000, 1.000000000000000000 ) ) ;
#369 = ORIENTED_EDGE ( 'NONE', *, *, #520, .F. ) ;
#370 = VECTOR ( 'NONE', #67, 1000.000000000000000 ) ;
#371 = VERTEX_POINT ( 'NONE', #351 ) ;
#372 = DIRECTION ( 'NONE',  ( 0.000000000000000000, 1.000000000000000000, -0.000000000000000000 ) ) ;
#373 = FACE_BOUND ( 'NONE', #971, .T. ) ;
#374 = VERTEX_POINT ( 'NONE', #90 ) ;
#375 = EDGE_LOOP ( 'NONE', ( #354, #691, #444, #8 ) ) ;
#376 = FACE_BOUND ( 'NONE', #137, .T. ) ;
#377 = ADVANCED_FACE ( 'NONE', ( #363 ), #607, .F. ) ;
#378 = FACE_OUTER_BOUND ( 'NONE', #70, .T. ) ;
#379 = VERTEX_POINT ( 'NONE', #202 ) ;
#380 = DIRECTION ( 'NONE',  ( -0.000000000000000000, -1.000000000000000000, -0.000000000000000000 ) ) ;
#381 = ORIENTED_EDGE ( 'NONE', *, *, #656, .F. ) ;
#382 = CARTESIAN_POINT ( 'NONE',  ( 2.540000000000006697, 5.000000000000000000, -3.540000000000000480 ) ) ;
#383 = VECTOR ( 'NONE', #1054, 1000.000000000000000 ) ;
#384 = SURFACE_STYLE_FILL_AREA ( #394 ) ;
#385 = ORIENTED_EDGE ( 'NONE', *, *, #568, .F. ) ;
#386 = PLANE ( 'NONE',  #502 ) ;
#387 = DIRECTION ( 'NONE',  ( 0.000000000000000000, 1.000000000000000000, -0.000000000000000000 ) ) ;
#388 = ADVANCED_FACE ( 'NONE', ( #688 ), #886, .F. ) ;
#389 = EDGE_CURVE ( 'NONE', #597, #537, #18, .T. ) ;
#390 =( NAMED_UNIT ( * ) SI_UNIT ( $, .STERADIAN. ) SOLID_ANGLE_UNIT ( ) );
#391 = SHAPE_DEFINITION_REPRESENTATION ( #80, #570 ) ;
#392 = ORIENTED_EDGE ( 'NONE', *, *, #73, .F. ) ;
#393 = DIRECTION ( 'NONE',  ( 0.000000000000000000, -1.000000000000000000, 0.000000000000000000 ) ) ;
#394 = FILL_AREA_STYLE ('',( #1090 ) ) ;
#395 = ORIENTED_EDGE ( 'NONE', *, *, #830, .F. ) ;
#396 = AXIS2_PLACEMENT_3D ( 'NONE', #261, #155, #339 ) ;
#397 = DIRECTION ( 'NONE',  ( 0.000000000000000000, 0.000000000000000000, -1.000000000000000000 ) ) ;
#398 = PLANE ( 'NONE',  #1011 ) ;
#399 = AXIS2_PLACEMENT_3D ( 'NONE', #992, #43, #548 ) ;
#400 = EDGE_LOOP ( 'NONE', ( #873, #338, #40, #284, #652, #476, #289, #209 ) ) ;
#401 = CARTESIAN_POINT ( 'NONE',  ( 1.224646799147353207E-16, 5.000000000000000000, 1.000000000000000000 ) ) ;
#402 = VECTOR ( 'NONE', #71, 1000.000000000000000 ) ;
#403 = DIRECTION ( 'NONE',  ( 0.000000000000000000, 0.000000000000000000, 1.000000000000000000 ) ) ;
#404 = CARTESIAN_POINT ( 'NONE',  ( 2.540000000000009361, 0.000000000000000000, 2.540000000000005809 ) ) ;
#405 = VERTEX_POINT ( 'NONE', #530 ) ;
#406 = LINE ( 'NONE', #745, #545 ) ;
#407 = EDGE_CURVE ( 'NONE', #371, #13, #897, .T. ) ;
#408 = CIRCLE ( 'NONE', #549, 1.000000000000000000 ) ;
#409 = ADVANCED_FACE ( 'NONE', ( #24, #973, #286, #208, #602, #968, #455, #32, #373, #542 ), #430, .T. ) ;
#410 = CYLINDRICAL_SURFACE ( 'NONE', #57, 1.000000000000000444 ) ;
#411 = ORIENTED_EDGE ( 'NONE', *, *, #860, .T. ) ;
#412 = LINE ( 'NONE', #644, #263 ) ;
#413 = AXIS2_PLACEMENT_3D ( 'NONE', #41, #901, #817 ) ;
#414 = DIRECTION ( 'NONE',  ( -0.000000000000000000, -1.000000000000000000, -0.000000000000000000 ) ) ;
#415 = EDGE_LOOP ( 'NONE', ( #277, #612, #326, #553 ) ) ;
#416 = CARTESIAN_POINT ( 'NONE',  ( 2.540000000000008473, 0.000000000000000000, -1.000000000000001110 ) ) ;
#417 = ORIENTED_EDGE ( 'NONE', *, *, #812, .F. ) ;
#418 = EDGE_CURVE ( 'NONE', #961, #478, #267, .T. ) ;
#419 = CARTESIAN_POINT ( 'NONE',  ( -2.540000000000004032, 0.000000000000000000, -2.540000000000000036 ) ) ;
#420 = EDGE_CURVE ( 'NONE', #750, #291, #408, .T. ) ;
#421 = ORIENTED_EDGE ( 'NONE', *, *, #25, .T. ) ;
#422 = DIRECTION ( 'NONE',  ( 0.000000000000000000, 0.000000000000000000, -1.000000000000000000 ) ) ;
#423 = ORIENTED_EDGE ( 'NONE', *, *, #456, .T. ) ;
#424 = CARTESIAN_POINT ( 'NONE',  ( -2.540000000000004032, 5.000000000000000000, 2.540000000000005809 ) ) ;
#425 = CARTESIAN_POINT ( 'NONE',  ( 0.000000000000000000, 5.000000000000000000, -3.540000000000000036 ) ) ;
#426 = PRODUCT_RELATED_PRODUCT_CATEGORY ( 'part', '', ( #324 ) ) ;
#427 = EDGE_LOOP ( 'NONE', ( #720, #821 ) ) ;
#428 = CARTESIAN_POINT ( 'NONE',  ( 2.540000000000008473, 5.000000000000000000, 0.9999999999999993339 ) ) ;
#429 = ORIENTED_EDGE ( 'NONE', *, *, #329, .T. ) ;
#430 = PLANE ( 'NONE',  #266 ) ;
#431 = ORIENTED_EDGE ( 'NONE', *, *, #307, .T. ) ;
#432 = DIRECTION ( 'NONE',  ( 0.000000000000000000, 1.000000000000000000, -0.000000000000000000 ) ) ;
#433 = AXIS2_PLACEMENT_3D ( 'NONE', #1019, #756, #162 ) ;
#434 = ORIENTED_EDGE ( 'NONE', *, *, #666, .F. ) ;
#435 = ADVANCED_FACE ( 'NONE', ( #1075 ), #645, .F. ) ;
#436 = DIRECTION ( 'NONE',  ( 0.000000000000000000, 0.000000000000000000, -1.000000000000000000 ) ) ;
#437 = DIRECTION ( 'NONE',  ( 0.000000000000000000, 0.000000000000000000, 1.000000000000000000 ) ) ;
#438 = ORIENTED_EDGE ( 'NONE', *, *, #1108, .T. ) ;
#439 = DIRECTION ( 'NONE',  ( 1.000000000000000000, 0.000000000000000000, -1.445602896647339163E-16 ) ) ;
#440 = EDGE_LOOP ( 'NONE', ( #417, #934, #560, #38, #173, #4, #803, #1109 ) ) ;
#441 = FACE_OUTER_BOUND ( 'NONE', #141, .T. ) ;
#442 = EDGE_CURVE ( 'NONE', #761, #900, #639, .T. ) ;
#443 = DIRECTION ( 'NONE',  ( 0.000000000000000000, 1.000000000000000000, -0.000000000000000000 ) ) ;
#444 = ORIENTED_EDGE ( 'NONE', *, *, #442, .T. ) ;
#445 = EDGE_LOOP ( 'NONE', ( #1098, #816, #108, #29 ) ) ;
#446 = DIRECTION ( 'NONE',  ( 0.000000000000000000, 1.000000000000000000, -0.000000000000000000 ) ) ;
#447 = AXIS2_PLACEMENT_3D ( 'NONE', #1097, #414, #758 ) ;
#448 = DIRECTION ( 'NONE',  ( -0.000000000000000000, -1.000000000000000000, -0.000000000000000000 ) ) ;
#449 = ORIENTED_EDGE ( 'NONE', *, *, #1061, .T. ) ;
#450 =( LENGTH_UNIT ( ) NAMED_UNIT ( * ) SI_UNIT ( .MILLI., .METRE. ) );
#451 = VECTOR ( 'NONE', #999, 1000.000000000000000 ) ;
#452 = ORIENTED_EDGE ( 'NONE', *, *, #723, .T. ) ;
#453 = DIRECTION ( 'NONE',  ( -1.000000000000000000, 0.000000000000000000, 1.445602896647339163E-16 ) ) ;
#454 = VECTOR ( 'NONE', #942, 1000.000000000000000 ) ;
#455 = FACE_BOUND ( 'NONE', #622, .T. ) ;
#456 = EDGE_CURVE ( 'NONE', #512, #577, #1089, .T. ) ;
#457 = CARTESIAN_POINT ( 'NONE',  ( -2.540000000000004032, 0.000000000000000000, -3.540000000000000480 ) ) ;
#458 = CARTESIAN_POINT ( 'NONE',  ( 0.000000000000000000, 0.000000000000000000, 0.000000000000000000 ) ) ;
#459 = EDGE_CURVE ( 'NONE', #1029, #597, #633, .T. ) ;
#460 = AXIS2_PLACEMENT_3D ( 'NONE', #1084, #925, #822 ) ;
#461 = ORIENTED_EDGE ( 'NONE', *, *, #1076, .T. ) ;
#462 = DIRECTION ( 'NONE',  ( -1.734723475976807587E-16, 0.000000000000000000, -1.000000000000000000 ) ) ;
#463 = CARTESIAN_POINT ( 'NONE',  ( 0.000000000000000000, 5.000000000000000000, -3.540000000000000036 ) ) ;
#464 = AXIS2_PLACEMENT_3D ( 'NONE', #963, #784, #437 ) ;
#465 = ORIENTED_EDGE ( 'NONE', *, *, #42, .F. ) ;
#466 = CARTESIAN_POINT ( 'NONE',  ( -6.000000000000000000, -8.000000000000000000, 5.540000000000008029 ) ) ;
#467 = VERTEX_POINT ( 'NONE', #233 ) ;
#468 = FACE_OUTER_BOUND ( 'NONE', #131, .T. ) ;
#469 = CARTESIAN_POINT ( 'NONE',  ( 2.540000000000008473, 5.000000000000000000, 0.9999999999999993339 ) ) ;
#470 = ORIENTED_EDGE ( 'NONE', *, *, #944, .T. ) ;
#471 = CARTESIAN_POINT ( 'NONE',  ( 2.540000000000009361, 5.000000000000000000, 2.540000000000005809 ) ) ;
#472 = EDGE_CURVE ( 'NONE', #597, #730, #53, .T. ) ;
#473 = PRESENTATION_LAYER_ASSIGNMENT (  '', '', ( #186 ) ) ;
#474 = AXIS2_PLACEMENT_3D ( 'NONE', #872, #269, #771 ) ;
#475 = VECTOR ( 'NONE', #1086, 1000.000000000000000 ) ;
#476 = ORIENTED_EDGE ( 'NONE', *, *, #937, .F. ) ;
#477 = FACE_OUTER_BOUND ( 'NONE', #340, .T. ) ;
#478 = VERTEX_POINT ( 'NONE', #58 ) ;
#479 = DIRECTION ( 'NONE',  ( -0.000000000000000000, -0.000000000000000000, -1.000000000000000000 ) ) ;
#480 = CARTESIAN_POINT ( 'NONE',  ( 2.602085213965210642E-15, 5.000000000000000000, 1.540000000000005809 ) ) ;
#481 = FACE_OUTER_BOUND ( 'NONE', #19, .T. ) ;
#482 = ORIENTED_EDGE ( 'NONE', *, *, #1076, .F. ) ;
#483 = CARTESIAN_POINT ( 'NONE',  ( 6.000000000000002665, 5.000000000000000000, 5.540000000000007141 ) ) ;
#484 = FACE_BOUND ( 'NONE', #427, .T. ) ;
#485 = AXIS2_PLACEMENT_3D ( 'NONE', #894, #217, #27 ) ;
#486 = CARTESIAN_POINT ( 'NONE',  ( -2.540000000000004032, 5.000000000000000000, 1.540000000000005587 ) ) ;
#487 = AXIS2_PLACEMENT_3D ( 'NONE', #1095, #323, #436 ) ;
#488 = ORIENTED_EDGE ( 'NONE', *, *, #874, .F. ) ;
#489 = DIRECTION ( 'NONE',  ( 1.000000000000000000, 0.000000000000000000, -1.445602896647339163E-16 ) ) ;
#490 = EDGE_CURVE ( 'NONE', #287, #60, #258, .T. ) ;
#491 = DIRECTION ( 'NONE',  ( 0.000000000000000000, 0.000000000000000000, 1.000000000000000000 ) ) ;
#492 = ORIENTED_EDGE ( 'NONE', *, *, #459, .F. ) ;
#493 = CARTESIAN_POINT ( 'NONE',  ( -5.999999999999997335, 0.000000000000000000, 5.540000000000008029 ) ) ;
#494 = CIRCLE ( 'NONE', #68, 1.000000000000000222 ) ;
#495 = CYLINDRICAL_SURFACE ( 'NONE', #447, 1.000000000000000000 ) ;
#496 = ORIENTED_EDGE ( 'NONE', *, *, #295, .T. ) ;
#497 = DIRECTION ( 'NONE',  ( -0.000000000000000000, -1.000000000000000000, -0.000000000000000000 ) ) ;
#498 = CIRCLE ( 'NONE', #396, 1.000000000000000000 ) ;
#499 = ORIENTED_EDGE ( 'NONE', *, *, #825, .F. ) ;
#500 = EDGE_CURVE ( 'NONE', #250, #91, #227, .T. ) ;
#501 = EDGE_CURVE ( 'NONE', #900, #478, #593, .T. ) ;
#502 = AXIS2_PLACEMENT_3D ( 'NONE', #638, #132, #885 ) ;
#503 = DIRECTION ( 'NONE',  ( 0.000000000000000000, 0.000000000000000000, -1.000000000000000000 ) ) ;
#504 = ORIENTED_EDGE ( 'NONE', *, *, #752, .T. ) ;
#505 = CARTESIAN_POINT ( 'NONE',  ( -6.000000000000000000, 0.000000000000000000, -10.14000000000000057 ) ) ;
#506 = EDGE_LOOP ( 'NONE', ( #2, #531 ) ) ;
#507 = CARTESIAN_POINT ( 'NONE',  ( 6.000000000000000000, -4.599999999999999645, 5.540000000000007141 ) ) ;
#508 = AXIS2_PLACEMENT_3D ( 'NONE', #905, #152, #142 ) ;
#509 = CARTESIAN_POINT ( 'NONE',  ( -2.540000000000004032, 0.000000000000000000, 1.000000000000000222 ) ) ;
#510 = EDGE_LOOP ( 'NONE', ( #953, #268 ) ) ;
#511 = DIRECTION ( 'NONE',  ( 0.000000000000000000, 0.000000000000000000, -1.000000000000000000 ) ) ;
#512 = VERTEX_POINT ( 'NONE', #563 ) ;
#513 = CARTESIAN_POINT ( 'NONE',  ( 3.600000000000000533, -8.000000000000000000, -10.14000000000000057 ) ) ;
#514 = CARTESIAN_POINT ( 'NONE',  ( 1.224646799147353207E-16, 5.000000000000000000, 1.000000000000000000 ) ) ;
#515 = ORIENTED_EDGE ( 'NONE', *, *, #907, .T. ) ;
#516 = CYLINDRICAL_SURFACE ( 'NONE', #722, 1.000000000000000000 ) ;
#517 = ORIENTED_EDGE ( 'NONE', *, *, #661, .F. ) ;
#518 = DIRECTION ( 'NONE',  ( -0.000000000000000000, -0.000000000000000000, -1.000000000000000000 ) ) ;
#519 = DIRECTION ( 'NONE',  ( 0.000000000000000000, 1.000000000000000000, -0.000000000000000000 ) ) ;
#520 = EDGE_CURVE ( 'NONE', #291, #966, #913, .T. ) ;
#521 = ORIENTED_EDGE ( 'NONE', *, *, #534, .F. ) ;
#522 = CARTESIAN_POINT ( 'NONE',  ( 5.999999999999998224, 5.000000000000000000, -20.13999999999999702 ) ) ;
#523 = CARTESIAN_POINT ( 'NONE',  ( -3.599999999999999645, -8.000000000000000000, 9.701730409336969174 ) ) ;
#524 = ADVANCED_FACE ( 'NONE', ( #378 ), #718, .F. ) ;
#525 = CARTESIAN_POINT ( 'NONE',  ( 0.000000000000000000, 5.000000000000000000, -2.540000000000000036 ) ) ;
#526 = EDGE_LOOP ( 'NONE', ( #574, #1021 ) ) ;
#527 = CARTESIAN_POINT ( 'NONE',  ( 2.540000000000006697, 5.000000000000000000, -1.540000000000000258 ) ) ;
#528 = ORIENTED_EDGE ( 'NONE', *, *, #923, .T. ) ;
#529 = CARTESIAN_POINT ( 'NONE',  ( 2.540000000000009361, 5.000000000000000000, 2.540000000000005809 ) ) ;
#530 = CARTESIAN_POINT ( 'NONE',  ( 3.600000000000000533, -8.000000000000000000, -10.14000000000000057 ) ) ;
#531 = ORIENTED_EDGE ( 'NONE', *, *, #579, .F. ) ;
#532 = VERTEX_POINT ( 'NONE', #679 ) ;
#533 = CARTESIAN_POINT ( 'NONE',  ( 2.540000000000006697, 0.000000000000000000, -2.540000000000000480 ) ) ;
#534 = EDGE_CURVE ( 'NONE', #163, #35, #875, .T. ) ;
#535 = CARTESIAN_POINT ( 'NONE',  ( 2.540000000000006697, 0.000000000000000000, -3.540000000000000480 ) ) ;
#536 = ADVANCED_FACE ( 'NONE', ( #252 ), #606, .F. ) ;
#537 = VERTEX_POINT ( 'NONE', #170 ) ;
#538 = EDGE_LOOP ( 'NONE', ( #616, #748 ) ) ;
#539 = FACE_OUTER_BOUND ( 'NONE', #366, .T. ) ;
#540 = CIRCLE ( 'NONE', #1031, 1.000000000000000222 ) ;
#541 = AXIS2_PLACEMENT_3D ( 'NONE', #599, #863, #588 ) ;
#542 = FACE_OUTER_BOUND ( 'NONE', #146, .T. ) ;
#543 = LINE ( 'NONE', #344, #732 ) ;
#544 = DIRECTION ( 'NONE',  ( 0.000000000000000000, 1.000000000000000000, 0.000000000000000000 ) ) ;
#545 = VECTOR ( 'NONE', #1099, 1000.000000000000000 ) ;
#546 = ORIENTED_EDGE ( 'NONE', *, *, #908, .T. ) ;
#547 = CARTESIAN_POINT ( 'NONE',  ( 0.000000000000000000, 0.000000000000000000, 0.000000000000000000 ) ) ;
#548 = DIRECTION ( 'NONE',  ( 0.000000000000000000, 0.000000000000000000, 1.000000000000000000 ) ) ;
#549 = AXIS2_PLACEMENT_3D ( 'NONE', #819, #37, #829 ) ;
#550 = CARTESIAN_POINT ( 'NONE',  ( 0.000000000000000000, 5.000000000000000000, -1.000000000000000000 ) ) ;
#551 = LINE ( 'NONE', #292, #151 ) ;
#552 = EDGE_CURVE ( 'NONE', #78, #102, #762, .T. ) ;
#553 = ORIENTED_EDGE ( 'NONE', *, *, #196, .F. ) ;
#554 = DIRECTION ( 'NONE',  ( 0.000000000000000000, 0.000000000000000000, 1.000000000000000000 ) ) ;
#555 = CARTESIAN_POINT ( 'NONE',  ( 2.540000000000009361, 5.000000000000000000, 1.540000000000005587 ) ) ;
#556 = ORIENTED_EDGE ( 'NONE', *, *, #768, .F. ) ;
#557 = CARTESIAN_POINT ( 'NONE',  ( 3.600000000000000533, -8.000000000000000000, 9.701730409336969174 ) ) ;
#558 = AXIS2_PLACEMENT_3D ( 'NONE', #523, #1030, #182 ) ;
#559 = CARTESIAN_POINT ( 'NONE',  ( -5.999999999999997335, 5.000000000000000000, 5.540000000000008029 ) ) ;
#560 = ORIENTED_EDGE ( 'NONE', *, *, #343, .T. ) ;
#561 = FACE_OUTER_BOUND ( 'NONE', #668, .T. ) ;
#562 = VECTOR ( 'NONE', #489, 1000.000000000000000 ) ;
#563 = CARTESIAN_POINT ( 'NONE',  ( -2.540000000000004032, 5.000000000000000000, -1.000000000000000222 ) ) ;
#564 = LINE ( 'NONE', #469, #1105 ) ;
#565 = ORIENTED_EDGE ( 'NONE', *, *, #687, .T. ) ;
#566 = CARTESIAN_POINT ( 'NONE',  ( -6.000000000000000000, -4.599999999999999645, -10.14000000000000057 ) ) ;
#567 = FACE_BOUND ( 'NONE', #538, .T. ) ;
#568 = EDGE_CURVE ( 'NONE', #1004, #405, #177, .T. ) ;
#569 = CARTESIAN_POINT ( 'NONE',  ( 8.008640047426269609E-16, 5.000000000000000000, 5.540000000000008029 ) ) ;
#570 = ADVANCED_BREP_SHAPE_REPRESENTATION ( 'pressfit support for eike', ( #113, #79 ), #834 ) ;
#571 = ORIENTED_EDGE ( 'NONE', *, *, #981, .F. ) ;
#572 = DIRECTION ( 'NONE',  ( 0.000000000000000000, 1.000000000000000000, -0.000000000000000000 ) ) ;
#573 = DIRECTION ( 'NONE',  ( 0.000000000000000000, 1.000000000000000000, -0.000000000000000000 ) ) ;
#574 = ORIENTED_EDGE ( 'NONE', *, *, #634, .T. ) ;
#575 = CARTESIAN_POINT ( 'NONE',  ( 5.999999999999998224, 5.000000000000000000, -20.13999999999999702 ) ) ;
#576 = DIRECTION ( 'NONE',  ( 0.000000000000000000, 1.000000000000000000, -0.000000000000000000 ) ) ;
#577 = VERTEX_POINT ( 'NONE', #955 ) ;
#578 = DIRECTION ( 'NONE',  ( -0.000000000000000000, -1.000000000000000000, -0.000000000000000000 ) ) ;
#579 = EDGE_CURVE ( 'NONE', #163, #911, #210, .T. ) ;
#580 = ORIENTED_EDGE ( 'NONE', *, *, #65, .T. ) ;
#581 = EDGE_CURVE ( 'NONE', #125, #1092, #350, .T. ) ;
#582 = FACE_OUTER_BOUND ( 'NONE', #637, .T. ) ;
#583 = VERTEX_POINT ( 'NONE', #349 ) ;
#584 = CARTESIAN_POINT ( 'NONE',  ( 2.602085213965210642E-15, 0.000000000000000000, 1.540000000000005809 ) ) ;
#585 = ADVANCED_FACE ( 'NONE', ( #100 ), #686, .F. ) ;
#586 = VECTOR ( 'NONE', #1014, 1000.000000000000000 ) ;
#587 = EDGE_LOOP ( 'NONE', ( #470, #1087, #663, #727, #10, #764, #465, #262 ) ) ;
#588 = DIRECTION ( 'NONE',  ( 0.000000000000000000, 0.000000000000000000, -1.000000000000000000 ) ) ;
#589 =( GEOMETRIC_REPRESENTATION_CONTEXT ( 3 ) GLOBAL_UNCERTAINTY_ASSIGNED_CONTEXT ( ( #601 ) ) GLOBAL_UNIT_ASSIGNED_CONTEXT ( ( #135, #1003, #390 ) ) REPRESENTATION_CONTEXT ( 'NONE', 'WORKASPACE' ) );
#590 = DIRECTION ( 'NONE',  ( 0.000000000000000000, 1.000000000000000000, -0.000000000000000000 ) ) ;
#591 = ORIENTED_EDGE ( 'NONE', *, *, #144, .T. ) ;
#592 = FACE_OUTER_BOUND ( 'NONE', #111, .T. ) ;
#593 = CIRCLE ( 'NONE', #117, 1.000000000000000000 ) ;
#594 = CARTESIAN_POINT ( 'NONE',  ( 0.000000000000000000, 5.000000000000000000, -1.000000000000000000 ) ) ;
#595 = CIRCLE ( 'NONE', #121, 1.000000000000000000 ) ;
#596 = CARTESIAN_POINT ( 'NONE',  ( -3.599999999999999645, -4.599999999999999645, 5.540000000000008029 ) ) ;
#597 = VERTEX_POINT ( 'NONE', #507 ) ;
#598 = LINE ( 'NONE', #337, #1052 ) ;
#599 = CARTESIAN_POINT ( 'NONE',  ( 2.540000000000009361, 5.000000000000000000, 2.540000000000005809 ) ) ;
#600 = AXIS2_PLACEMENT_3D ( 'NONE', #106, #443, #271 ) ;
#601 = UNCERTAINTY_MEASURE_WITH_UNIT (LENGTH_MEASURE( 1.000000000000000082E-05 ), #135, 'distance_accuracy_value', 'NONE');
#602 = FACE_BOUND ( 'NONE', #510, .T. ) ;
#603 = EDGE_CURVE ( 'NONE', #577, #512, #798, .T. ) ;
#604 = ORIENTED_EDGE ( 'NONE', *, *, #865, .T. ) ;
#605 = CARTESIAN_POINT ( 'NONE',  ( 2.540000000000006697, 5.000000000000000000, -2.540000000000000480 ) ) ;
#606 = CYLINDRICAL_SURFACE ( 'NONE', #487, 1.000000000000000000 ) ;
#607 = CYLINDRICAL_SURFACE ( 'NONE', #743, 1.000000000000000000 ) ;
#608 = VECTOR ( 'NONE', #518, 1000.000000000000000 ) ;
#609 = CARTESIAN_POINT ( 'NONE',  ( 2.540000000000009361, 5.000000000000000000, 1.540000000000005587 ) ) ;
#610 = DIRECTION ( 'NONE',  ( 1.000000000000000000, 0.000000000000000000, -1.659493121151281900E-16 ) ) ;
#611 = CIRCLE ( 'NONE', #870, 1.000000000000000222 ) ;
#612 = ORIENTED_EDGE ( 'NONE', *, *, #420, .T. ) ;
#613 = CARTESIAN_POINT ( 'NONE',  ( 6.000000000000001776, -8.000000000000000000, -1.040834085586084848E-15 ) ) ;
#614 = VECTOR ( 'NONE', #733, 1000.000000000000000 ) ;
#615 = DIRECTION ( 'NONE',  ( 0.000000000000000000, -1.000000000000000000, 0.000000000000000000 ) ) ;
#616 = ORIENTED_EDGE ( 'NONE', *, *, #501, .T. ) ;
#617 = ORIENTED_EDGE ( 'NONE', *, *, #158, .F. ) ;
#618 = ADVANCED_FACE ( 'NONE', ( #441 ), #85, .F. ) ;
#619 = LINE ( 'NONE', #382, #956 ) ;
#620 = EDGE_CURVE ( 'NONE', #379, #757, #781, .T. ) ;
#621 = CARTESIAN_POINT ( 'NONE',  ( -2.540000000000004032, 0.000000000000000000, -2.540000000000000036 ) ) ;
#622 = EDGE_LOOP ( 'NONE', ( #242, #1114 ) ) ;
#623 = DIRECTION ( 'NONE',  ( 0.000000000000000000, 0.000000000000000000, -1.000000000000000000 ) ) ;
#624 = EDGE_LOOP ( 'NONE', ( #893, #969, #449, #689 ) ) ;
#625 = FACE_OUTER_BOUND ( 'NONE', #866, .T. ) ;
#626 = ADVANCED_FACE ( 'NONE', ( #361, #696, #868, #1049, #567, #917, #148, #484, #376, #468 ), #717, .F. ) ;
#627 = CARTESIAN_POINT ( 'NONE',  ( -2.540000000000004032, 5.000000000000000000, -1.539999999999999813 ) ) ;
#628 = ORIENTED_EDGE ( 'NONE', *, *, #442, .F. ) ;
#629 =( NAMED_UNIT ( * ) PLANE_ANGLE_UNIT ( ) SI_UNIT ( $, .RADIAN. ) );
#630 = VERTEX_POINT ( 'NONE', #30 ) ;
#631 = DIRECTION ( 'NONE',  ( 0.000000000000000000, 1.000000000000000000, -0.000000000000000000 ) ) ;
#632 = CIRCLE ( 'NONE', #61, 1.000000000000000000 ) ;
#633 = LINE ( 'NONE', #657, #890 ) ;
#634 = EDGE_CURVE ( 'NONE', #966, #166, #815, .T. ) ;
#635 = CARTESIAN_POINT ( 'NONE',  ( -2.540000000000004032, 5.000000000000000000, 1.000000000000000222 ) ) ;
#636 = FACE_OUTER_BOUND ( 'NONE', #766, .T. ) ;
#637 = EDGE_LOOP ( 'NONE', ( #1018, #1040, #119, #360 ) ) ;
#638 = CARTESIAN_POINT ( 'NONE',  ( 3.600000000000000533, -8.000000000000000000, 9.701730409336969174 ) ) ;
#639 = LINE ( 'NONE', #480, #322 ) ;
#640 = EDGE_CURVE ( 'NONE', #302, #97, #1102, .T. ) ;
#641 = VECTOR ( 'NONE', #615, 1000.000000000000000 ) ;
#642 = PRESENTATION_STYLE_ASSIGNMENT (( #319 ) ) ;
#643 = ORIENTED_EDGE ( 'NONE', *, *, #201, .T. ) ;
#644 = CARTESIAN_POINT ( 'NONE',  ( -3.599999999999999645, -4.599999999999999645, 9.701730409336969174 ) ) ;
#645 = PLANE ( 'NONE',  #805 ) ;
#646 = AXIS2_PLACEMENT_3D ( 'NONE', #931, #590, #172 ) ;
#647 = ORIENTED_EDGE ( 'NONE', *, *, #640, .F. ) ;
#648 = DIRECTION ( 'NONE',  ( 0.000000000000000000, 0.000000000000000000, -1.000000000000000000 ) ) ;
#649 = VECTOR ( 'NONE', #789, 1000.000000000000000 ) ;
#650 = DIRECTION ( 'NONE',  ( 1.659493121151281900E-16, 0.000000000000000000, 1.000000000000000000 ) ) ;
#651 = LINE ( 'NONE', #486, #451 ) ;
#652 = ORIENTED_EDGE ( 'NONE', *, *, #725, .T. ) ;
#653 = CARTESIAN_POINT ( 'NONE',  ( -1.465841337200401995E-15, -8.000000000000000000, -10.14000000000000057 ) ) ;
#654 = VECTOR ( 'NONE', #138, 1000.000000000000000 ) ;
#655 = ADVANCED_FACE ( 'NONE', ( #290 ), #1056, .F. ) ;
#656 = EDGE_CURVE ( 'NONE', #759, #348, #312, .T. ) ;
#657 = CARTESIAN_POINT ( 'NONE',  ( 5.999999999999999112, -4.599999999999999645, 5.540000000000007141 ) ) ;
#658 = DIRECTION ( 'NONE',  ( 1.000000000000000000, 0.000000000000000000, -1.445602896647339163E-16 ) ) ;
#659 = ORIENTED_EDGE ( 'NONE', *, *, #272, .F. ) ;
#660 = CYLINDRICAL_SURFACE ( 'NONE', #943, 1.000000000000000222 ) ;
#661 = EDGE_CURVE ( 'NONE', #102, #161, #751, .T. ) ;
#662 = CARTESIAN_POINT ( 'NONE',  ( 1.224646799147353207E-16, 0.000000000000000000, -1.540000000000000036 ) ) ;
#663 = ORIENTED_EDGE ( 'NONE', *, *, #858, .T. ) ;
#664 = LINE ( 'NONE', #243, #402 ) ;
#665 = AXIS2_PLACEMENT_3D ( 'NONE', #701, #39, #109 ) ;
#666 = EDGE_CURVE ( 'NONE', #125, #302, #619, .T. ) ;
#667 = CARTESIAN_POINT ( 'NONE',  ( -5.999999999999998224, 0.000000000000000000, 9.956958726907689918E-16 ) ) ;
#668 = EDGE_LOOP ( 'NONE', ( #853, #93, #103, #273 ) ) ;
#669 = CARTESIAN_POINT ( 'NONE',  ( 6.000000000000000000, -4.599999999999999645, -10.14000000000000057 ) ) ;
#670 = CARTESIAN_POINT ( 'NONE',  ( -2.540000000000004032, 5.000000000000000000, 3.540000000000005809 ) ) ;
#671 = EDGE_CURVE ( 'NONE', #293, #78, #1050, .T. ) ;
#672 = ORIENTED_EDGE ( 'NONE', *, *, #926, .F. ) ;
#673 = CARTESIAN_POINT ( 'NONE',  ( -6.000000000000000000, -8.000000000000000000, -20.13999999999999702 ) ) ;
#674 = DIRECTION ( 'NONE',  ( 1.659493121151281900E-16, 0.000000000000000000, 1.000000000000000000 ) ) ;
#675 = ORIENTED_EDGE ( 'NONE', *, *, #295, .F. ) ;
#676 = CARTESIAN_POINT ( 'NONE',  ( 2.724549893879946184E-15, 5.000000000000000000, 3.540000000000005809 ) ) ;
#677 = CIRCLE ( 'NONE', #224, 1.000000000000000000 ) ;
#678 = ORIENTED_EDGE ( 'NONE', *, *, #581, .T. ) ;
#679 = CARTESIAN_POINT ( 'NONE',  ( 2.540000000000009361, 0.000000000000000000, 1.540000000000005587 ) ) ;
#680 = CARTESIAN_POINT ( 'NONE',  ( 3.600000000000000533, -4.599999999999999645, 9.701730409336969174 ) ) ;
#681 = CIRCLE ( 'NONE', #347, 1.000000000000000000 ) ;
#682 = ORIENTED_EDGE ( 'NONE', *, *, #25, .F. ) ;
#683 = DIRECTION ( 'NONE',  ( 0.000000000000000000, 0.000000000000000000, 1.000000000000000000 ) ) ;
#684 = VECTOR ( 'NONE', #767, 1000.000000000000000 ) ;
#685 = ORIENTED_EDGE ( 'NONE', *, *, #620, .F. ) ;
#686 = CYLINDRICAL_SURFACE ( 'NONE', #315, 1.000000000000000000 ) ;
#687 = EDGE_CURVE ( 'NONE', #60, #287, #903, .T. ) ;
#688 = FACE_OUTER_BOUND ( 'NONE', #624, .T. ) ;
#689 = ORIENTED_EDGE ( 'NONE', *, *, #215, .F. ) ;
#690 = DIRECTION ( 'NONE',  ( 0.000000000000000000, 1.000000000000000000, -0.000000000000000000 ) ) ;
#691 = ORIENTED_EDGE ( 'NONE', *, *, #772, .T. ) ;
#692 = CARTESIAN_POINT ( 'NONE',  ( -2.540000000000004032, 5.000000000000000000, 0.000000000000000000 ) ) ;
#693 = ORIENTED_EDGE ( 'NONE', *, *, #923, .F. ) ;
#694 = PLANE ( 'NONE',  #332 ) ;
#695 = ORIENTED_EDGE ( 'NONE', *, *, #130, .F. ) ;
#696 = FACE_BOUND ( 'NONE', #526, .T. ) ;
#697 = AXIS2_PLACEMENT_3D ( 'NONE', #241, #1017, #491 ) ;
#698 = CARTESIAN_POINT ( 'NONE',  ( 2.602085213965210642E-15, 0.000000000000000000, 2.540000000000005809 ) ) ;
#699 = ADVANCED_FACE ( 'NONE', ( #625 ), #728, .F. ) ;
#700 = DIRECTION ( 'NONE',  ( 0.000000000000000000, 1.000000000000000000, -0.000000000000000000 ) ) ;
#701 = CARTESIAN_POINT ( 'NONE',  ( 6.000000000000001776, 5.000000000000000000, -9.956958726907693862E-16 ) ) ;
#702 = ADVANCED_FACE ( 'NONE', ( #1074 ), #386, .F. ) ;
#703 = VECTOR ( 'NONE', #264, 1000.000000000000000 ) ;
#704 = ORIENTED_EDGE ( 'NONE', *, *, #981, .T. ) ;
#705 = PLANE ( 'NONE',  #1000 ) ;
#706 = DIRECTION ( 'NONE',  ( 0.000000000000000000, 1.000000000000000000, 0.000000000000000000 ) ) ;
#707 = CIRCLE ( 'NONE', #474, 1.000000000000000000 ) ;
#708 = ADVANCED_FACE ( 'NONE', ( #539 ), #880, .F. ) ;
#709 = EDGE_LOOP ( 'NONE', ( #381, #482 ) ) ;
#710 = CARTESIAN_POINT ( 'NONE',  ( -2.540000000000004032, 5.000000000000000000, -1.000000000000000222 ) ) ;
#711 = ORIENTED_EDGE ( 'NONE', *, *, #860, .F. ) ;
#712 = LINE ( 'NONE', #962, #649 ) ;
#713 = CARTESIAN_POINT ( 'NONE',  ( -2.540000000000004032, 5.000000000000000000, 0.000000000000000000 ) ) ;
#714 = ORIENTED_EDGE ( 'NONE', *, *, #500, .T. ) ;
#715 = CARTESIAN_POINT ( 'NONE',  ( -2.540000000000004032, 5.000000000000000000, -2.540000000000000036 ) ) ;
#716 = EDGE_LOOP ( 'NONE', ( #546, #193 ) ) ;
#717 = PLANE ( 'NONE',  #328 ) ;
#718 = CYLINDRICAL_SURFACE ( 'NONE', #541, 1.000000000000000222 ) ;
#719 = LINE ( 'NONE', #1067, #257 ) ;
#720 = ORIENTED_EDGE ( 'NONE', *, *, #661, .T. ) ;
#721 = DIRECTION ( 'NONE',  ( 0.000000000000000000, -0.000000000000000000, -1.000000000000000000 ) ) ;
#722 = AXIS2_PLACEMENT_3D ( 'NONE', #83, #578, #422 ) ;
#723 = EDGE_CURVE ( 'NONE', #287, #841, #804, .T. ) ;
#724 = CARTESIAN_POINT ( 'NONE',  ( 2.724549893879946184E-15, 5.000000000000000000, 3.540000000000005809 ) ) ;
#725 = EDGE_CURVE ( 'NONE', #537, #583, #279, .T. ) ;
#726 = CARTESIAN_POINT ( 'NONE',  ( 2.540000000000006697, 0.000000000000000000, -1.540000000000000258 ) ) ;
#727 = ORIENTED_EDGE ( 'NONE', *, *, #620, .T. ) ;
#728 = PLANE ( 'NONE',  #76 ) ;
#729 = DIRECTION ( 'NONE',  ( 0.000000000000000000, 0.000000000000000000, 1.000000000000000000 ) ) ;
#730 = VERTEX_POINT ( 'NONE', #972 ) ;
#731 = LINE ( 'NONE', #303, #800 ) ;
#732 = VECTOR ( 'NONE', #840, 1000.000000000000000 ) ;
#733 = DIRECTION ( 'NONE',  ( -1.000000000000000000, 0.000000000000000000, 1.445602896647339163E-16 ) ) ;
#734 = EDGE_CURVE ( 'NONE', #1092, #97, #712, .T. ) ;
#735 = EDGE_LOOP ( 'NONE', ( #521, #1073, #949, #1048 ) ) ;
#736 = CARTESIAN_POINT ( 'NONE',  ( 1.224646799147353207E-16, 5.000000000000000000, -1.540000000000000036 ) ) ;
#737 = ADVANCED_FACE ( 'NONE', ( #367 ), #705, .F. ) ;
#738 = VECTOR ( 'NONE', #650, 1000.000000000000000 ) ;
#739 = EDGE_LOOP ( 'NONE', ( #492, #675, #392, #84 ) ) ;
#740 = CARTESIAN_POINT ( 'NONE',  ( 2.540000000000009361, 0.000000000000000000, 3.540000000000005809 ) ) ;
#741 = VECTOR ( 'NONE', #842, 1000.000000000000000 ) ;
#742 = LINE ( 'NONE', #876, #1085 ) ;
#743 = AXIS2_PLACEMENT_3D ( 'NONE', #525, #957, #197 ) ;
#744 = ORIENTED_EDGE ( 'NONE', *, *, #687, .F. ) ;
#745 = CARTESIAN_POINT ( 'NONE',  ( 0.000000000000000000, -8.000000000000000000, -20.13999999999999702 ) ) ;
#746 = ADVANCED_FACE ( 'NONE', ( #36 ), #52, .F. ) ;
#747 = DIRECTION ( 'NONE',  ( -0.000000000000000000, -1.000000000000000000, -0.000000000000000000 ) ) ;
#748 = ORIENTED_EDGE ( 'NONE', *, *, #314, .T. ) ;
#749 = DIRECTION ( 'NONE',  ( 0.000000000000000000, 1.000000000000000000, -0.000000000000000000 ) ) ;
#750 = VERTEX_POINT ( 'NONE', #736 ) ;
#751 = CIRCLE ( 'NONE', #276, 1.000000000000000000 ) ;
#752 = EDGE_CURVE ( 'NONE', #246, #832, #56, .T. ) ;
#753 = PRODUCT_DEFINITION_FORMATION_WITH_SPECIFIED_SOURCE ( 'ANY', '', #324, .NOT_KNOWN. ) ;
#754 = CARTESIAN_POINT ( 'NONE',  ( 6.000000000000000000, 0.000000000000000000, -10.14000000000000057 ) ) ;
#755 = ORIENTED_EDGE ( 'NONE', *, *, #456, .F. ) ;
#756 = DIRECTION ( 'NONE',  ( 0.000000000000000000, 1.000000000000000000, -0.000000000000000000 ) ) ;
#757 = VERTEX_POINT ( 'NONE', #1088 ) ;
#758 = DIRECTION ( 'NONE',  ( 0.000000000000000000, 0.000000000000000000, -1.000000000000000000 ) ) ;
#759 = VERTEX_POINT ( 'NONE', #321 ) ;
#760 = CYLINDRICAL_SURFACE ( 'NONE', #188, 1.000000000000000222 ) ;
#761 = VERTEX_POINT ( 'NONE', #1093 ) ;
#762 = LINE ( 'NONE', #594, #454 ) ;
#763 = CYLINDRICAL_SURFACE ( 'NONE', #204, 1.000000000000000000 ) ;
#764 = ORIENTED_EDGE ( 'NONE', *, *, #158, .T. ) ;
#765 = DIRECTION ( 'NONE',  ( 0.000000000000000000, 1.000000000000000000, -0.000000000000000000 ) ) ;
#766 = EDGE_LOOP ( 'NONE', ( #659, #461, #591, #807 ) ) ;
#767 = DIRECTION ( 'NONE',  ( -0.000000000000000000, -1.000000000000000000, -0.000000000000000000 ) ) ;
#768 = EDGE_CURVE ( 'NONE', #1009, #405, #230, .T. ) ;
#769 = CARTESIAN_POINT ( 'NONE',  ( 0.000000000000000000, 5.000000000000000000, 0.000000000000000000 ) ) ;
#770 = ORIENTED_EDGE ( 'NONE', *, *, #944, .F. ) ;
#771 = DIRECTION ( 'NONE',  ( 0.000000000000000000, 0.000000000000000000, 1.000000000000000000 ) ) ;
#772 = EDGE_CURVE ( 'NONE', #961, #761, #31, .T. ) ;
#773 = VECTOR ( 'NONE', #296, 1000.000000000000000 ) ;
#774 = VECTOR ( 'NONE', #806, 1000.000000000000000 ) ;
#775 = ORIENTED_EDGE ( 'NONE', *, *, #843, .F. ) ;
#776 = CARTESIAN_POINT ( 'NONE',  ( 2.540000000000006697, 5.000000000000000000, -2.540000000000000480 ) ) ;
#777 = LINE ( 'NONE', #357, #126 ) ;
#778 = LINE ( 'NONE', #609, #47 ) ;
#779 = DIRECTION ( 'NONE',  ( -1.000000000000000000, 0.000000000000000000, 0.000000000000000000 ) ) ;
#780 = EDGE_LOOP ( 'NONE', ( #395, #191, #1036, #499 ) ) ;
#781 = LINE ( 'NONE', #17, #608 ) ;
#782 = VECTOR ( 'NONE', #96, 1000.000000000000000 ) ;
#783 = ADVANCED_FACE ( 'NONE', ( #561 ), #235, .F. ) ;
#784 = DIRECTION ( 'NONE',  ( 0.000000000000000000, 1.000000000000000000, -0.000000000000000000 ) ) ;
#785 = EDGE_CURVE ( 'NONE', #212, #374, #731, .T. ) ;
#786 = DIRECTION ( 'NONE',  ( -0.000000000000000000, -1.000000000000000000, -0.000000000000000000 ) ) ;
#787 = CARTESIAN_POINT ( 'NONE',  ( 3.600000000000000533, -4.599999999999999645, 5.540000000000007141 ) ) ;
#788 = ORIENTED_EDGE ( 'NONE', *, *, #568, .T. ) ;
#789 = DIRECTION ( 'NONE',  ( -0.000000000000000000, -1.000000000000000000, -0.000000000000000000 ) ) ;
#790 = AXIS2_PLACEMENT_3D ( 'NONE', #419, #573, #938 ) ;
#791 = EDGE_CURVE ( 'NONE', #630, #757, #920, .T. ) ;
#792 = CARTESIAN_POINT ( 'NONE',  ( 2.540000000000008473, 0.000000000000000000, 0.9999999999999993339 ) ) ;
#793 = AXIS2_PLACEMENT_3D ( 'NONE', #797, #206, #896 ) ;
#794 = EDGE_LOOP ( 'NONE', ( #744, #1068 ) ) ;
#795 = LINE ( 'NONE', #710, #1012 ) ;
#796 = VERTEX_POINT ( 'NONE', #483 ) ;
#797 = CARTESIAN_POINT ( 'NONE',  ( 0.000000000000000000, 0.000000000000000000, -2.540000000000000036 ) ) ;
#798 = CIRCLE ( 'NONE', #939, 1.000000000000000222 ) ;
#799 = CYLINDRICAL_SURFACE ( 'NONE', #986, 1.000000000000000222 ) ;
#800 = VECTOR ( 'NONE', #393, 1000.000000000000000 ) ;
#801 = DIRECTION ( 'NONE',  ( 0.000000000000000000, 0.000000000000000000, 1.000000000000000000 ) ) ;
#802 = DIRECTION ( 'NONE',  ( 0.000000000000000000, 0.000000000000000000, 1.000000000000000000 ) ) ;
#803 = ORIENTED_EDGE ( 'NONE', *, *, #73, .T. ) ;
#804 = LINE ( 'NONE', #889, #994 ) ;
#805 = AXIS2_PLACEMENT_3D ( 'NONE', #49, #813, #729 ) ;
#806 = DIRECTION ( 'NONE',  ( -0.000000000000000000, -1.000000000000000000, -0.000000000000000000 ) ) ;
#807 = ORIENTED_EDGE ( 'NONE', *, *, #407, .F. ) ;
#808 = DIRECTION ( 'NONE',  ( 0.000000000000000000, 1.000000000000000000, -0.000000000000000000 ) ) ;
#809 = ADVANCED_FACE ( 'NONE', ( #477 ), #660, .F. ) ;
#810 = VERTEX_POINT ( 'NONE', #493 ) ;
#811 = DIRECTION ( 'NONE',  ( -0.000000000000000000, -1.000000000000000000, -0.000000000000000000 ) ) ;
#812 = EDGE_CURVE ( 'NONE', #1083, #405, #828, .T. ) ;
#813 = DIRECTION ( 'NONE',  ( 0.000000000000000000, 1.000000000000000000, -0.000000000000000000 ) ) ;
#814 = DIRECTION ( 'NONE',  ( -1.445602896647339163E-16, 0.000000000000000000, -1.000000000000000000 ) ) ;
#815 = CIRCLE ( 'NONE', #793, 1.000000000000000000 ) ;
#816 = ORIENTED_EDGE ( 'NONE', *, *, #785, .F. ) ;
#817 = DIRECTION ( 'NONE',  ( 0.000000000000000000, 0.000000000000000000, 1.000000000000000000 ) ) ;
#818 = CIRCLE ( 'NONE', #433, 1.000000000000000000 ) ;
#819 = CARTESIAN_POINT ( 'NONE',  ( 0.000000000000000000, 5.000000000000000000, -2.540000000000000036 ) ) ;
#820 = DIRECTION ( 'NONE',  ( -0.000000000000000000, -1.000000000000000000, -0.000000000000000000 ) ) ;
#821 = ORIENTED_EDGE ( 'NONE', *, *, #825, .T. ) ;
#822 = DIRECTION ( 'NONE',  ( 0.000000000000000000, -0.000000000000000000, -1.000000000000000000 ) ) ;
#823 = DIRECTION ( 'NONE',  ( 0.000000000000000000, 1.000000000000000000, -0.000000000000000000 ) ) ;
#824 = ADVANCED_FACE ( 'NONE', ( #833 ), #225, .T. ) ;
#825 = EDGE_CURVE ( 'NONE', #161, #102, #595, .T. ) ;
#826 = CARTESIAN_POINT ( 'NONE',  ( 2.540000000000006697, 5.000000000000000000, -3.540000000000000480 ) ) ;
#827 = ORIENTED_EDGE ( 'NONE', *, *, #1006, .T. ) ;
#828 = LINE ( 'NONE', #653, #562 ) ;
#829 = DIRECTION ( 'NONE',  ( 0.000000000000000000, 0.000000000000000000, 1.000000000000000000 ) ) ;
#830 = EDGE_CURVE ( 'NONE', #293, #161, #62, .T. ) ;
#831 = DIRECTION ( 'NONE',  ( -1.000000000000000000, 0.000000000000000000, 1.445602896647339163E-16 ) ) ;
#832 = VERTEX_POINT ( 'NONE', #575 ) ;
#833 = FACE_OUTER_BOUND ( 'NONE', #975, .T. ) ;
#834 =( GEOMETRIC_REPRESENTATION_CONTEXT ( 3 ) GLOBAL_UNCERTAINTY_ASSIGNED_CONTEXT ( ( #260 ) ) GLOBAL_UNIT_ASSIGNED_CONTEXT ( ( #450, #629, #1059 ) ) REPRESENTATION_CONTEXT ( 'NONE', 'WORKASPACE' ) );
#835 = CARTESIAN_POINT ( 'NONE',  ( 0.000000000000000000, 5.000000000000000000, 0.000000000000000000 ) ) ;
#836 = AXIS2_PLACEMENT_3D ( 'NONE', #424, #89, #5 ) ;
#837 = DIRECTION ( 'NONE',  ( -1.445602896647339163E-16, 0.000000000000000000, -1.000000000000000000 ) ) ;
#838 = EDGE_LOOP ( 'NONE', ( #1060, #26, #336, #369 ) ) ;
#839 = CARTESIAN_POINT ( 'NONE',  ( 0.000000000000000000, 0.000000000000000000, 0.000000000000000000 ) ) ;
#840 = DIRECTION ( 'NONE',  ( -0.000000000000000000, -0.000000000000000000, -1.000000000000000000 ) ) ;
#841 = VERTEX_POINT ( 'NONE', #740 ) ;
#842 = DIRECTION ( 'NONE',  ( 0.000000000000000000, 1.000000000000000000, 0.000000000000000000 ) ) ;
#843 = EDGE_CURVE ( 'NONE', #964, #583, #406, .T. ) ;
#844 = DIRECTION ( 'NONE',  ( -0.000000000000000000, -1.000000000000000000, -0.000000000000000000 ) ) ;
#845 = CIRCLE ( 'NONE', #1025, 1.000000000000000222 ) ;
#846 = ORIENTED_EDGE ( 'NONE', *, *, #791, .F. ) ;
#847 = LINE ( 'NONE', #522, #95 ) ;
#848 = ORIENTED_EDGE ( 'NONE', *, *, #1020, .T. ) ;
#849 = AXIS2_PLACEMENT_3D ( 'NONE', #533, #985, #1062 ) ;
#850 = AXIS2_PLACEMENT_3D ( 'NONE', #59, #898, #129 ) ;
#851 = VECTOR ( 'NONE', #256, 1000.000000000000000 ) ;
#852 = CARTESIAN_POINT ( 'NONE',  ( -2.540000000000004032, 0.000000000000000000, -1.000000000000000222 ) ) ;
#853 = ORIENTED_EDGE ( 'NONE', *, *, #179, .F. ) ;
#854 = CARTESIAN_POINT ( 'NONE',  ( 0.000000000000000000, 0.000000000000000000, -3.540000000000000036 ) ) ;
#855 = ORIENTED_EDGE ( 'NONE', *, *, #874, .T. ) ;
#856 = CARTESIAN_POINT ( 'NONE',  ( -2.540000000000004032, 5.000000000000000000, 0.000000000000000000 ) ) ;
#857 = VECTOR ( 'NONE', #317, 1000.000000000000000 ) ;
#858 = EDGE_CURVE ( 'NONE', #1053, #379, #157, .T. ) ;
#859 = DIRECTION ( 'NONE',  ( 0.000000000000000000, 0.000000000000000000, 1.000000000000000000 ) ) ;
#860 = EDGE_CURVE ( 'NONE', #810, #91, #664, .T. ) ;
#861 = ORIENTED_EDGE ( 'NONE', *, *, #974, .F. ) ;
#862 = LINE ( 'NONE', #941, #703 ) ;
#863 = DIRECTION ( 'NONE',  ( -0.000000000000000000, -1.000000000000000000, -0.000000000000000000 ) ) ;
#864 = DIRECTION ( 'NONE',  ( 0.000000000000000000, 1.000000000000000000, -0.000000000000000000 ) ) ;
#865 = EDGE_CURVE ( 'NONE', #212, #630, #412, .T. ) ;
#866 = EDGE_LOOP ( 'NONE', ( #685, #438, #604, #87 ) ) ;
#867 = CARTESIAN_POINT ( 'NONE',  ( -2.540000000000004032, 5.000000000000000000, 2.540000000000005809 ) ) ;
#868 = FACE_BOUND ( 'NONE', #238, .T. ) ;
#869 = CARTESIAN_POINT ( 'NONE',  ( 2.540000000000006697, 0.000000000000000000, -2.540000000000000480 ) ) ;
#870 = AXIS2_PLACEMENT_3D ( 'NONE', #605, #749, #1103 ) ;
#871 = ORIENTED_EDGE ( 'NONE', *, *, #1061, .F. ) ;
#872 = CARTESIAN_POINT ( 'NONE',  ( -2.540000000000004032, 0.000000000000000000, 2.540000000000005809 ) ) ;
#873 = ORIENTED_EDGE ( 'NONE', *, *, #500, .F. ) ;
#874 = EDGE_CURVE ( 'NONE', #532, #841, #892, .T. ) ;
#875 = LINE ( 'NONE', #1044, #1033 ) ;
#876 = CARTESIAN_POINT ( 'NONE',  ( 3.600000000000000533, -8.000000000000000000, 5.540000000000007141 ) ) ;
#877 = ORIENTED_EDGE ( 'NONE', *, *, #752, .F. ) ;
#878 = CARTESIAN_POINT ( 'NONE',  ( -2.540000000000004032, 0.000000000000000000, 2.540000000000005809 ) ) ;
#879 = ORIENTED_EDGE ( 'NONE', *, *, #11, .F. ) ;
#880 = CYLINDRICAL_SURFACE ( 'NONE', #226, 1.000000000000000222 ) ;
#881 = DIRECTION ( 'NONE',  ( 0.000000000000000000, 0.000000000000000000, 1.000000000000000000 ) ) ;
#882 = ORIENTED_EDGE ( 'NONE', *, *, #342, .T. ) ;
#883 = DIRECTION ( 'NONE',  ( -0.000000000000000000, -1.000000000000000000, -0.000000000000000000 ) ) ;
#884 = ORIENTED_EDGE ( 'NONE', *, *, #865, .F. ) ;
#885 = DIRECTION ( 'NONE',  ( 0.000000000000000000, 0.000000000000000000, -1.000000000000000000 ) ) ;
#886 = CYLINDRICAL_SURFACE ( 'NONE', #15, 1.000000000000000222 ) ;
#887 = ORIENTED_EDGE ( 'NONE', *, *, #355, .F. ) ;
#888 = ORIENTED_EDGE ( 'NONE', *, *, #785, .T. ) ;
#889 = CARTESIAN_POINT ( 'NONE',  ( 2.540000000000009361, 5.000000000000000000, 3.540000000000005809 ) ) ;
#890 = VECTOR ( 'NONE', #304, 1000.000000000000000 ) ;
#891 = DIRECTION ( 'NONE',  ( -0.000000000000000000, -0.000000000000000000, -1.000000000000000000 ) ) ;
#892 = CIRCLE ( 'NONE', #1038, 1.000000000000000000 ) ;
#893 = ORIENTED_EDGE ( 'NONE', *, *, #65, .F. ) ;
#894 = CARTESIAN_POINT ( 'NONE',  ( -2.540000000000004032, 5.000000000000000000, -2.540000000000000036 ) ) ;
#895 = ORIENTED_EDGE ( 'NONE', *, *, #603, .F. ) ;
#896 = DIRECTION ( 'NONE',  ( 0.000000000000000000, 0.000000000000000000, 1.000000000000000000 ) ) ;
#897 = CIRCLE ( 'NONE', #159, 1.000000000000000222 ) ;
#898 = DIRECTION ( 'NONE',  ( -0.000000000000000000, -1.000000000000000000, -0.000000000000000000 ) ) ;
#899 = CARTESIAN_POINT ( 'NONE',  ( -2.540000000000004032, 5.000000000000000000, 2.540000000000005809 ) ) ;
#900 = VERTEX_POINT ( 'NONE', #584 ) ;
#901 = DIRECTION ( 'NONE',  ( 0.000000000000000000, 1.000000000000000000, -0.000000000000000000 ) ) ;
#902 = CARTESIAN_POINT ( 'NONE',  ( 8.008640047426269609E-16, 5.000000000000000000, 5.540000000000008029 ) ) ;
#903 = CIRCLE ( 'NONE', #167, 1.000000000000000000 ) ;
#904 = ORIENTED_EDGE ( 'NONE', *, *, #734, .F. ) ;
#905 = CARTESIAN_POINT ( 'NONE',  ( 0.000000000000000000, 5.000000000000000000, 0.000000000000000000 ) ) ;
#906 = VECTOR ( 'NONE', #497, 1000.000000000000000 ) ;
#907 = EDGE_CURVE ( 'NONE', #270, #796, #1115, .T. ) ;
#908 = EDGE_CURVE ( 'NONE', #467, #35, #707, .T. ) ;
#909 = CARTESIAN_POINT ( 'NONE',  ( 6.000000000000001776, 0.000000000000000000, -9.956958726907693862E-16 ) ) ;
#910 = FACE_OUTER_BOUND ( 'NONE', #203, .T. ) ;
#911 = VERTEX_POINT ( 'NONE', #947 ) ;
#912 = CARTESIAN_POINT ( 'NONE',  ( -2.540000000000004032, 5.000000000000000000, 2.540000000000005809 ) ) ;
#913 = LINE ( 'NONE', #463, #774 ) ;
#914 = DIRECTION ( 'NONE',  ( -1.000000000000000000, 0.000000000000000000, 1.445602896647339163E-16 ) ) ;
#915 = ORIENTED_EDGE ( 'NONE', *, *, #282, .T. ) ;
#916 = DIRECTION ( 'NONE',  ( 0.000000000000000000, 0.000000000000000000, 1.000000000000000000 ) ) ;
#917 = FACE_BOUND ( 'NONE', #150, .T. ) ;
#918 = CARTESIAN_POINT ( 'NONE',  ( -2.540000000000004032, 5.000000000000000000, -3.540000000000000480 ) ) ;
#919 = ORIENTED_EDGE ( 'NONE', *, *, #259, .F. ) ;
#920 = LINE ( 'NONE', #566, #654 ) ;
#921 = AXIS2_PLACEMENT_3D ( 'NONE', #878, #976, #965 ) ;
#922 = LINE ( 'NONE', #69, #991 ) ;
#923 = EDGE_CURVE ( 'NONE', #940, #345, #540, .T. ) ;
#924 = VERTEX_POINT ( 'NONE', #505 ) ;
#925 = DIRECTION ( 'NONE',  ( 0.000000000000000000, -1.000000000000000000, 0.000000000000000000 ) ) ;
#926 = EDGE_CURVE ( 'NONE', #978, #940, #92, .T. ) ;
#927 = DIRECTION ( 'NONE',  ( 0.000000000000000000, 0.000000000000000000, 1.000000000000000000 ) ) ;
#928 = ORIENTED_EDGE ( 'NONE', *, *, #72, .F. ) ;
#929 = DIRECTION ( 'NONE',  ( -0.000000000000000000, -1.000000000000000000, -0.000000000000000000 ) ) ;
#930 = ORIENTED_EDGE ( 'NONE', *, *, #490, .T. ) ;
#931 = CARTESIAN_POINT ( 'NONE',  ( 0.000000000000000000, 5.000000000000000000, 0.000000000000000000 ) ) ;
#932 = ORIENTED_EDGE ( 'NONE', *, *, #501, .F. ) ;
#933 = DIRECTION ( 'NONE',  ( -0.000000000000000000, -1.000000000000000000, -0.000000000000000000 ) ) ;
#934 = ORIENTED_EDGE ( 'NONE', *, *, #245, .F. ) ;
#935 = DIRECTION ( 'NONE',  ( -0.000000000000000000, -1.000000000000000000, -0.000000000000000000 ) ) ;
#936 = EDGE_CURVE ( 'NONE', #750, #166, #247, .T. ) ;
#937 = EDGE_CURVE ( 'NONE', #832, #583, #847, .T. ) ;
#938 = DIRECTION ( 'NONE',  ( 0.000000000000000000, 0.000000000000000000, 1.000000000000000000 ) ) ;
#939 = AXIS2_PLACEMENT_3D ( 'NONE', #856, #187, #950 ) ;
#940 = VERTEX_POINT ( 'NONE', #416 ) ;
#941 = CARTESIAN_POINT ( 'NONE',  ( -6.000000000000000000, 5.000000000000000000, -20.13999999999999702 ) ) ;
#942 = DIRECTION ( 'NONE',  ( -0.000000000000000000, -1.000000000000000000, -0.000000000000000000 ) ) ;
#943 = AXIS2_PLACEMENT_3D ( 'NONE', #912, #310, #648 ) ;
#944 = EDGE_CURVE ( 'NONE', #246, #964, #862, .T. ) ;
#945 = DIRECTION ( 'NONE',  ( 0.000000000000000000, 0.000000000000000000, -1.000000000000000000 ) ) ;
#946 = ORIENTED_EDGE ( 'NONE', *, *, #937, .T. ) ;
#947 = CARTESIAN_POINT ( 'NONE',  ( -2.540000000000004032, 5.000000000000000000, 1.540000000000005587 ) ) ;
#948 = CIRCLE ( 'NONE', #1042, 1.000000000000000000 ) ;
#949 = ORIENTED_EDGE ( 'NONE', *, *, #130, .T. ) ;
#950 = DIRECTION ( 'NONE',  ( 0.000000000000000000, 0.000000000000000000, 1.000000000000000000 ) ) ;
#951 = DIRECTION ( 'NONE',  ( -0.000000000000000000, -1.000000000000000000, -0.000000000000000000 ) ) ;
#952 = EDGE_CURVE ( 'NONE', #291, #750, #818, .T. ) ;
#953 = ORIENTED_EDGE ( 'NONE', *, *, #1007, .F. ) ;
#954 = LINE ( 'NONE', #1110, #851 ) ;
#955 = CARTESIAN_POINT ( 'NONE',  ( -2.540000000000004032, 5.000000000000000000, 1.000000000000000222 ) ) ;
#956 = VECTOR ( 'NONE', #22, 1000.000000000000000 ) ;
#957 = DIRECTION ( 'NONE',  ( -0.000000000000000000, -1.000000000000000000, -0.000000000000000000 ) ) ;
#958 = ORIENTED_EDGE ( 'NONE', *, *, #907, .F. ) ;
#959 = DIRECTION ( 'NONE',  ( -1.659493121151281900E-16, 0.000000000000000000, -1.000000000000000000 ) ) ;
#960 = VECTOR ( 'NONE', #820, 1000.000000000000000 ) ;
#961 = VERTEX_POINT ( 'NONE', #676 ) ;
#962 = CARTESIAN_POINT ( 'NONE',  ( 2.540000000000006697, 5.000000000000000000, -1.540000000000000258 ) ) ;
#963 = CARTESIAN_POINT ( 'NONE',  ( 2.540000000000008473, 5.000000000000000000, -8.673617379884035472E-16 ) ) ;
#964 = VERTEX_POINT ( 'NONE', #673 ) ;
#965 = DIRECTION ( 'NONE',  ( 0.000000000000000000, 0.000000000000000000, 1.000000000000000000 ) ) ;
#966 = VERTEX_POINT ( 'NONE', #854 ) ;
#967 = CARTESIAN_POINT ( 'NONE',  ( 8.008640047426269609E-16, 5.000000000000000000, 5.540000000000008029 ) ) ;
#968 = FACE_BOUND ( 'NONE', #794, .T. ) ;
#969 = ORIENTED_EDGE ( 'NONE', *, *, #603, .T. ) ;
#970 = PRODUCT_CONTEXT ( 'NONE', #1063, 'mechanical' ) ;
#971 = EDGE_LOOP ( 'NONE', ( #755, #895 ) ) ;
#972 = CARTESIAN_POINT ( 'NONE',  ( 6.000000000000000000, -4.600000000000000533, -10.14000000000000057 ) ) ;
#973 = FACE_BOUND ( 'NONE', #229, .T. ) ;
#974 = EDGE_CURVE ( 'NONE', #1083, #630, #954, .T. ) ;
#975 = EDGE_LOOP ( 'NONE', ( #946, #775, #770, #504 ) ) ;
#976 = DIRECTION ( 'NONE',  ( 0.000000000000000000, 1.000000000000000000, -0.000000000000000000 ) ) ;
#977 = VECTOR ( 'NONE', #779, 1000.000000000000000 ) ;
#978 = VERTEX_POINT ( 'NONE', #1016 ) ;
#979 = CARTESIAN_POINT ( 'NONE',  ( -6.000000000000000000, -4.599999999999999645, 9.701730409336969174 ) ) ;
#980 = AXIS2_PLACEMENT_3D ( 'NONE', #122, #387, #1080 ) ;
#981 = EDGE_CURVE ( 'NONE', #924, #250, #598, .T. ) ;
#982 = LINE ( 'NONE', #50, #614 ) ;
#983 = CYLINDRICAL_SURFACE ( 'NONE', #485, 1.000000000000000444 ) ;
#984 = EDGE_LOOP ( 'NONE', ( #528, #1058 ) ) ;
#985 = DIRECTION ( 'NONE',  ( 0.000000000000000000, 1.000000000000000000, -0.000000000000000000 ) ) ;
#986 = AXIS2_PLACEMENT_3D ( 'NONE', #692, #448, #183 ) ;
#987 = ADVANCED_FACE ( 'NONE', ( #251 ), #516, .F. ) ;
#988 = ORIENTED_EDGE ( 'NONE', *, *, #640, .T. ) ;
#989 = CARTESIAN_POINT ( 'NONE',  ( 2.540000000000009361, 0.000000000000000000, 2.540000000000005809 ) ) ;
#990 = ADVANCED_FACE ( 'NONE', ( #592 ), #760, .F. ) ;
#991 = VECTOR ( 'NONE', #178, 1000.000000000000000 ) ;
#992 = CARTESIAN_POINT ( 'NONE',  ( 2.540000000000009361, 5.000000000000000000, 2.540000000000005809 ) ) ;
#993 = LINE ( 'NONE', #635, #475 ) ;
#994 = VECTOR ( 'NONE', #46, 1000.000000000000000 ) ;
#995 = VERTEX_POINT ( 'NONE', #428 ) ;
#996 = DIRECTION ( 'NONE',  ( -1.000000000000000000, 0.000000000000000000, -0.000000000000000000 ) ) ;
#997 = VECTOR ( 'NONE', #353, 1000.000000000000000 ) ;
#998 = DIRECTION ( 'NONE',  ( 0.000000000000000000, 0.000000000000000000, 1.000000000000000000 ) ) ;
#999 = DIRECTION ( 'NONE',  ( -0.000000000000000000, -1.000000000000000000, -0.000000000000000000 ) ) ;
#1000 = AXIS2_PLACEMENT_3D ( 'NONE', #967, #200, #453 ) ;
#1001 = ORIENTED_EDGE ( 'NONE', *, *, #329, .F. ) ;
#1002 = CARTESIAN_POINT ( 'NONE',  ( 2.602085213965210642E-15, 5.000000000000000000, 2.540000000000005809 ) ) ;
#1003 =( NAMED_UNIT ( * ) PLANE_ANGLE_UNIT ( ) SI_UNIT ( $, .RADIAN. ) );
#1004 = VERTEX_POINT ( 'NONE', #98 ) ;
#1005 = DIRECTION ( 'NONE',  ( 0.000000000000000000, 1.000000000000000000, -0.000000000000000000 ) ) ;
#1006 = EDGE_CURVE ( 'NONE', #911, #163, #632, .T. ) ;
#1007 = EDGE_CURVE ( 'NONE', #761, #961, #681, .T. ) ;
#1008 = LINE ( 'NONE', #680, #586 ) ;
#1009 = VERTEX_POINT ( 'NONE', #1041 ) ;
#1010 = CARTESIAN_POINT ( 'NONE',  ( 0.000000000000000000, 5.000000000000000000, -20.13999999999999702 ) ) ;
#1011 = AXIS2_PLACEMENT_3D ( 'NONE', #228, #313, #658 ) ;
#1012 = VECTOR ( 'NONE', #380, 1000.000000000000000 ) ;
#1013 = PRODUCT_DEFINITION_CONTEXT ( 'detailed design', #1117, 'design' ) ;
#1014 = DIRECTION ( 'NONE',  ( -0.000000000000000000, -0.000000000000000000, -1.000000000000000000 ) ) ;
#1015 = ORIENTED_EDGE ( 'NONE', *, *, #418, .T. ) ;
#1016 = CARTESIAN_POINT ( 'NONE',  ( 2.540000000000008473, 5.000000000000000000, -1.000000000000001110 ) ) ;
#1017 = DIRECTION ( 'NONE',  ( 0.000000000000000000, 1.000000000000000000, -0.000000000000000000 ) ) ;
#1018 = ORIENTED_EDGE ( 'NONE', *, *, #656, .T. ) ;
#1019 = CARTESIAN_POINT ( 'NONE',  ( 0.000000000000000000, 5.000000000000000000, -2.540000000000000036 ) ) ;
#1020 = EDGE_CURVE ( 'NONE', #1092, #125, #611, .T. ) ;
#1021 = ORIENTED_EDGE ( 'NONE', *, *, #196, .T. ) ;
#1022 = DIRECTION ( 'NONE',  ( 0.000000000000000000, 1.000000000000000000, -0.000000000000000000 ) ) ;
#1023 = EDGE_CURVE ( 'NONE', #730, #1004, #333, .T. ) ;
#1024 = CARTESIAN_POINT ( 'NONE',  ( -6.000000000000000000, 5.000000000000000000, -20.13999999999999702 ) ) ;
#1025 = AXIS2_PLACEMENT_3D ( 'NONE', #244, #576, #927 ) ;
#1026 = ORIENTED_EDGE ( 'NONE', *, *, #1094, .T. ) ;
#1027 = DIRECTION ( 'NONE',  ( 0.000000000000000000, 0.000000000000000000, 1.000000000000000000 ) ) ;
#1028 = EDGE_CURVE ( 'NONE', #35, #467, #136, .T. ) ;
#1029 = VERTEX_POINT ( 'NONE', #787 ) ;
#1030 = DIRECTION ( 'NONE',  ( -1.000000000000000000, 0.000000000000000000, 0.000000000000000000 ) ) ;
#1031 = AXIS2_PLACEMENT_3D ( 'NONE', #181, #690, #185 ) ;
#1032 = FACE_OUTER_BOUND ( 'NONE', #375, .T. ) ;
#1033 = VECTOR ( 'NONE', #935, 1000.000000000000000 ) ;
#1034 = EDGE_LOOP ( 'NONE', ( #928, #431, #255, #1104 ) ) ;
#1035 = CARTESIAN_POINT ( 'NONE',  ( 2.540000000000008473, 5.000000000000000000, -1.000000000000001110 ) ) ;
#1036 = ORIENTED_EDGE ( 'NONE', *, *, #552, .T. ) ;
#1037 = DIRECTION ( 'NONE',  ( 0.000000000000000000, 0.000000000000000000, -1.000000000000000000 ) ) ;
#1038 = AXIS2_PLACEMENT_3D ( 'NONE', #989, #765, #1027 ) ;
#1039 = DIRECTION ( 'NONE',  ( 0.000000000000000000, 0.000000000000000000, 1.000000000000000000 ) ) ;
#1040 = ORIENTED_EDGE ( 'NONE', *, *, #272, .T. ) ;
#1041 = CARTESIAN_POINT ( 'NONE',  ( 3.600000000000000533, -8.000000000000000000, 5.540000000000007141 ) ) ;
#1042 = AXIS2_PLACEMENT_3D ( 'NONE', #698, #519, #368 ) ;
#1043 = ORIENTED_EDGE ( 'NONE', *, *, #201, .F. ) ;
#1044 = CARTESIAN_POINT ( 'NONE',  ( -2.540000000000004032, 5.000000000000000000, 3.540000000000005809 ) ) ;
#1045 = DIRECTION ( 'NONE',  ( 0.000000000000000000, 1.000000000000000000, 0.000000000000000000 ) ) ;
#1046 = ORIENTED_EDGE ( 'NONE', *, *, #952, .F. ) ;
#1047 = PLANE ( 'NONE',  #665 ) ;
#1048 = ORIENTED_EDGE ( 'NONE', *, *, #1028, .F. ) ;
#1049 = FACE_BOUND ( 'NONE', #716, .T. ) ;
#1050 = CIRCLE ( 'NONE', #413, 1.000000000000000000 ) ;
#1051 = CARTESIAN_POINT ( 'NONE',  ( 6.000000000000000000, -8.000000000000000000, 5.540000000000007141 ) ) ;
#1052 = VECTOR ( 'NONE', #341, 1000.000000000000000 ) ;
#1053 = VERTEX_POINT ( 'NONE', #466 ) ;
#1054 = DIRECTION ( 'NONE',  ( 1.659493121151281900E-16, 0.000000000000000000, 1.000000000000000000 ) ) ;
#1055 = ORIENTED_EDGE ( 'NONE', *, *, #812, .T. ) ;
#1056 = CYLINDRICAL_SURFACE ( 'NONE', #365, 1.000000000000000222 ) ;
#1057 = DIRECTION ( 'NONE',  ( 0.000000000000000000, 1.000000000000000000, -0.000000000000000000 ) ) ;
#1058 = ORIENTED_EDGE ( 'NONE', *, *, #231, .T. ) ;
#1059 =( NAMED_UNIT ( * ) SI_UNIT ( $, .STERADIAN. ) SOLID_ANGLE_UNIT ( ) );
#1060 = ORIENTED_EDGE ( 'NONE', *, *, #952, .T. ) ;
#1061 = EDGE_CURVE ( 'NONE', #512, #205, #795, .T. ) ;
#1062 = DIRECTION ( 'NONE',  ( 0.000000000000000000, 0.000000000000000000, 1.000000000000000000 ) ) ;
#1063 = APPLICATION_CONTEXT ( 'automotive_design' ) ;
#1064 = ADVANCED_FACE ( 'NONE', ( #211 ), #1072, .F. ) ;
#1065 = DIRECTION ( 'NONE',  ( 0.000000000000000000, 0.000000000000000000, -1.000000000000000000 ) ) ;
#1066 = LINE ( 'NONE', #198, #297 ) ;
#1067 = CARTESIAN_POINT ( 'NONE',  ( 6.000000000000000000, -8.000000000000000000, -10.14000000000000057 ) ) ;
#1068 = ORIENTED_EDGE ( 'NONE', *, *, #490, .F. ) ;
#1069 = CARTESIAN_POINT ( 'NONE',  ( 2.540000000000008473, 5.000000000000000000, -8.673617379884035472E-16 ) ) ;
#1070 = EDGE_CURVE ( 'NONE', #246, #270, #124, .T. ) ;
#1071 = PLANE ( 'NONE',  #114 ) ;
#1072 = CYLINDRICAL_SURFACE ( 'NONE', #207, 1.000000000000000222 ) ;
#1073 = ORIENTED_EDGE ( 'NONE', *, *, #579, .T. ) ;
#1074 = FACE_OUTER_BOUND ( 'NONE', #265, .T. ) ;
#1075 = FACE_OUTER_BOUND ( 'NONE', #440, .T. ) ;
#1076 = EDGE_CURVE ( 'NONE', #348, #759, #6, .T. ) ;
#1077 = DIRECTION ( 'NONE',  ( 0.000000000000000000, 0.000000000000000000, -1.000000000000000000 ) ) ;
#1078 = ORIENTED_EDGE ( 'NONE', *, *, #11, .T. ) ;
#1079 = DIRECTION ( 'NONE',  ( -0.000000000000000000, -0.000000000000000000, -1.000000000000000000 ) ) ;
#1080 = DIRECTION ( 'NONE',  ( 0.000000000000000000, 0.000000000000000000, 1.000000000000000000 ) ) ;
#1081 = ADVANCED_FACE ( 'NONE', ( #298 ), #1047, .T. ) ;
#1082 = DIRECTION ( 'NONE',  ( -0.000000000000000000, -1.000000000000000000, -0.000000000000000000 ) ) ;
#1083 = VERTEX_POINT ( 'NONE', #359 ) ;
#1084 = CARTESIAN_POINT ( 'NONE',  ( 6.000000000000000000, -4.599999999999999645, 9.701730409336969174 ) ) ;
#1085 = VECTOR ( 'NONE', #706, 1000.000000000000000 ) ;
#1086 = DIRECTION ( 'NONE',  ( -0.000000000000000000, -1.000000000000000000, -0.000000000000000000 ) ) ;
#1087 = ORIENTED_EDGE ( 'NONE', *, *, #28, .F. ) ;
#1088 = CARTESIAN_POINT ( 'NONE',  ( -6.000000000000000000, -4.599999999999999645, -10.14000000000000057 ) ) ;
#1089 = CIRCLE ( 'NONE', #980, 1.000000000000000222 ) ;
#1090 = FILL_AREA_STYLE_COLOUR ( '', #278 ) ;
#1091 = AXIS2_PLACEMENT_3D ( 'NONE', #1010, #397, #996 ) ;
#1092 = VERTEX_POINT ( 'NONE', #527 ) ;
#1093 = CARTESIAN_POINT ( 'NONE',  ( 2.602085213965210642E-15, 5.000000000000000000, 1.540000000000005809 ) ) ;
#1094 = EDGE_CURVE ( 'NONE', #730, #250, #719, .T. ) ;
#1095 = CARTESIAN_POINT ( 'NONE',  ( 2.540000000000006697, 5.000000000000000000, -2.540000000000000480 ) ) ;
#1096 = CIRCLE ( 'NONE', #600, 1.000000000000000222 ) ;
#1097 = CARTESIAN_POINT ( 'NONE',  ( 2.602085213965210642E-15, 5.000000000000000000, 2.540000000000005809 ) ) ;
#1098 = ORIENTED_EDGE ( 'NONE', *, *, #343, .F. ) ;
#1099 = DIRECTION ( 'NONE',  ( 1.000000000000000000, -0.000000000000000000, 0.000000000000000000 ) ) ;
#1100 = CARTESIAN_POINT ( 'NONE',  ( 1.224646799147353207E-16, 0.000000000000000000, 1.000000000000000000 ) ) ;
#1101 = ORIENTED_EDGE ( 'NONE', *, *, #218, .T. ) ;
#1102 = CIRCLE ( 'NONE', #849, 1.000000000000000222 ) ;
#1103 = DIRECTION ( 'NONE',  ( 0.000000000000000000, 0.000000000000000000, 1.000000000000000000 ) ) ;
#1104 = ORIENTED_EDGE ( 'NONE', *, *, #231, .F. ) ;
#1105 = VECTOR ( 'NONE', #1082, 1000.000000000000000 ) ;
#1106 = ADVANCED_FACE ( 'NONE', ( #636 ), #983, .F. ) ;
#1107 = LINE ( 'NONE', #335, #362 ) ;
#1108 = EDGE_CURVE ( 'NONE', #379, #212, #551, .T. ) ;
#1109 = ORIENTED_EDGE ( 'NONE', *, *, #768, .T. ) ;
#1110 = CARTESIAN_POINT ( 'NONE',  ( -3.599999999999999645, -8.000000000000000000, -10.14000000000000057 ) ) ;
#1111 = ORIENTED_EDGE ( 'NONE', *, *, #420, .F. ) ;
#1112 = DIRECTION ( 'NONE',  ( 1.659493121151281900E-16, 0.000000000000000000, 1.000000000000000000 ) ) ;
#1113 = ADVANCED_FACE ( 'NONE', ( #14 ), #694, .F. ) ;
#1114 = ORIENTED_EDGE ( 'NONE', *, *, #307, .F. ) ;
#1115 = LINE ( 'NONE', #168, #82 ) ;
#1116 = ORIENTED_EDGE ( 'NONE', *, *, #179, .T. ) ;
#1117 = APPLICATION_CONTEXT ( 'automotive_design' ) ;
ENDSEC;
END-ISO-10303-21;
