G04*
G04 #@! TF.GenerationSoftware,Altium Limited,Altium Designer,24.10.1 (45)*
G04*
G04 Layer_Color=16711935*
%FSLAX25Y25*%
%MOIN*%
G70*
G04*
G04 #@! TF.SameCoordinates,FAF2AA73-2D8A-4798-B806-2245389A78C8*
G04*
G04*
G04 #@! TF.FilePolarity,Negative*
G04*
G01*
G75*
%ADD67O,0.10000X0.07500*%
%ADD68O,0.10800X0.08300*%
%ADD69O,0.05900X0.09900*%
%ADD70R,0.12611X0.12611*%
%ADD71C,0.12611*%
%ADD72C,0.06312*%
%ADD73C,0.04993*%
%ADD74C,0.09855*%
%ADD75C,0.14973*%
%ADD76C,0.07887*%
%ADD77C,0.03162*%
%ADD78C,0.02769*%
%ADD79C,0.02800*%
D67*
X138382Y224882D02*
D03*
Y234882D02*
D03*
X188382Y224882D02*
D03*
Y234882D02*
D03*
X294622D02*
D03*
Y224882D02*
D03*
X244622Y234882D02*
D03*
Y224882D02*
D03*
X350866D02*
D03*
Y234882D02*
D03*
X400866Y224882D02*
D03*
Y234882D02*
D03*
X82138D02*
D03*
Y224882D02*
D03*
X32138Y234882D02*
D03*
Y224882D02*
D03*
D68*
X188382Y244882D02*
D03*
X138382D02*
D03*
X244622D02*
D03*
X294622D02*
D03*
X400866D02*
D03*
X350866D02*
D03*
X32138D02*
D03*
X82138D02*
D03*
D69*
X152331Y194882D02*
D03*
X159829D02*
D03*
X167329D02*
D03*
X174827D02*
D03*
X281067D02*
D03*
X273569D02*
D03*
X266069D02*
D03*
X258571D02*
D03*
X364815D02*
D03*
X372313D02*
D03*
X379813D02*
D03*
X387311D02*
D03*
X68583D02*
D03*
X61085D02*
D03*
X53585D02*
D03*
X46087D02*
D03*
D70*
X185202Y339287D02*
D03*
X76591D02*
D03*
X396850D02*
D03*
X287199D02*
D03*
D71*
X185202Y299287D02*
D03*
X145202Y339287D02*
D03*
Y299287D02*
D03*
X76591D02*
D03*
X36590Y339287D02*
D03*
Y299287D02*
D03*
X396850D02*
D03*
X356850Y339287D02*
D03*
Y299287D02*
D03*
X247200D02*
D03*
Y339287D02*
D03*
X287199Y299287D02*
D03*
D72*
X349705Y56104D02*
D03*
X354705Y66104D02*
D03*
X359705Y56104D02*
D03*
X364705Y66104D02*
D03*
X369705Y56104D02*
D03*
X374705Y66104D02*
D03*
X379705Y56104D02*
D03*
X384705Y66104D02*
D03*
D73*
X344724Y31104D02*
D03*
X389724D02*
D03*
D74*
X336713Y19323D02*
D03*
X397638D02*
D03*
D75*
X9449Y11811D02*
D03*
X423228D02*
D03*
X10236Y381890D02*
D03*
X423228D02*
D03*
D76*
X10236Y51299D02*
D03*
Y61299D02*
D03*
D77*
X166929Y140099D02*
D03*
X157874Y140492D02*
D03*
X146760Y125013D02*
D03*
X60685Y139732D02*
D03*
X51630Y140126D02*
D03*
X40945Y125591D02*
D03*
X253362Y125945D02*
D03*
X81890Y4331D02*
D03*
X100000Y7480D02*
D03*
X400787Y115748D02*
D03*
X360630Y125984D02*
D03*
X379413Y140185D02*
D03*
X273169Y140185D02*
D03*
X370358Y140579D02*
D03*
X264114Y140579D02*
D03*
X31496Y48425D02*
D03*
X111811Y4724D02*
D03*
Y8268D02*
D03*
X76378Y9449D02*
D03*
X118110Y64567D02*
D03*
X126772Y79528D02*
D03*
X276630Y135433D02*
D03*
X376378Y131496D02*
D03*
X373622Y186614D02*
D03*
D78*
X77165Y60236D02*
D03*
X70472Y61024D02*
D03*
D79*
X135039Y72933D02*
D03*
X133268Y75295D02*
D03*
X136811D02*
D03*
X133268Y70571D02*
D03*
X136811D02*
D03*
M02*
