G04*
G04 #@! TF.GenerationSoftware,Altium Limited,Altium Designer,25.2.1 (25)*
G04*
G04 Layer_Color=8388736*
%FSLAX25Y25*%
%MOIN*%
G70*
G04*
G04 #@! TF.SameCoordinates,F407CCA4-E1A1-4AAD-8540-8404F0AA80AE*
G04*
G04*
G04 #@! TF.FilePolarity,Negative*
G04*
G01*
G75*
%ADD35R,0.05000X0.15512*%
%ADD45R,0.13386X0.07087*%
%ADD46R,0.04737X0.03556*%
%ADD47C,0.04737*%
%ADD48R,0.04343X0.03556*%
%ADD49R,0.03556X0.04343*%
%ADD50R,0.06312X0.04737*%
%ADD51R,0.05564X0.07965*%
%ADD52R,0.03556X0.04737*%
%ADD53R,0.07099X0.12611*%
%ADD54R,0.04343X0.04147*%
%ADD55R,0.07965X0.05564*%
%ADD56R,0.05603X0.03410*%
%ADD57O,0.05603X0.03410*%
G04:AMPARAMS|DCode=58|XSize=31.62mil|YSize=47.37mil|CornerRadius=6.01mil|HoleSize=0mil|Usage=FLASHONLY|Rotation=90.000|XOffset=0mil|YOffset=0mil|HoleType=Round|Shape=RoundedRectangle|*
%AMROUNDEDRECTD58*
21,1,0.03162,0.03535,0,0,90.0*
21,1,0.01961,0.04737,0,0,90.0*
1,1,0.01202,0.01768,0.00980*
1,1,0.01202,0.01768,-0.00980*
1,1,0.01202,-0.01768,-0.00980*
1,1,0.01202,-0.01768,0.00980*
%
%ADD58ROUNDEDRECTD58*%
%ADD59R,0.04147X0.04343*%
%ADD60R,0.03950X0.03950*%
%ADD61R,0.02572X0.06509*%
%ADD62O,0.07493X0.02572*%
%ADD63R,0.06981X0.08241*%
%ADD64R,0.07414X0.08359*%
%ADD65R,0.14973X0.11430*%
%ADD66R,0.04737X0.06312*%
%ADD67C,0.14973*%
%ADD68C,0.09855*%
%ADD69C,0.04993*%
%ADD70C,0.06312*%
%ADD71O,0.05900X0.09900*%
%ADD72O,0.10800X0.08300*%
%ADD73O,0.10000X0.07500*%
%ADD74C,0.07887*%
%ADD75C,0.12611*%
%ADD76R,0.12611X0.12611*%
%ADD77C,0.02769*%
%ADD78C,0.03162*%
%ADD79C,0.02800*%
D35*
X11142Y76732D02*
D03*
X21142D02*
D03*
X11142Y101221D02*
D03*
X21142D02*
D03*
D45*
X58780Y175094D02*
D03*
X146236Y175461D02*
D03*
X240303Y175547D02*
D03*
X326720D02*
D03*
X75366Y175531D02*
D03*
X162823Y175898D02*
D03*
X256890Y175984D02*
D03*
X343307D02*
D03*
D46*
X192126Y48714D02*
D03*
Y42612D02*
D03*
X78740Y19193D02*
D03*
Y13091D02*
D03*
X93307Y28445D02*
D03*
Y34547D02*
D03*
X89764Y77854D02*
D03*
Y71752D02*
D03*
X25984Y52461D02*
D03*
Y58563D02*
D03*
X103937Y59153D02*
D03*
Y65256D02*
D03*
X122047Y80216D02*
D03*
Y74114D02*
D03*
X79528Y78248D02*
D03*
Y72146D02*
D03*
D47*
X182008Y35827D02*
D03*
X127559Y33858D02*
D03*
X133858Y9449D02*
D03*
X80709Y83465D02*
D03*
X202756Y72047D02*
D03*
D48*
X198819Y48031D02*
D03*
Y42520D02*
D03*
X267701Y135165D02*
D03*
Y140677D02*
D03*
X323846Y153996D02*
D03*
Y159508D02*
D03*
X237429D02*
D03*
Y153996D02*
D03*
X334870Y159508D02*
D03*
Y153996D02*
D03*
X248453Y159508D02*
D03*
Y153996D02*
D03*
X261402Y135264D02*
D03*
Y140776D02*
D03*
X347819Y135264D02*
D03*
Y140776D02*
D03*
X220654Y135264D02*
D03*
Y140776D02*
D03*
X307071Y135264D02*
D03*
Y140776D02*
D03*
X265732Y124929D02*
D03*
Y119417D02*
D03*
X352150D02*
D03*
Y124929D02*
D03*
X259827D02*
D03*
Y119417D02*
D03*
X346244D02*
D03*
Y124929D02*
D03*
X120287Y135177D02*
D03*
Y140689D02*
D03*
X173634Y135079D02*
D03*
Y140591D02*
D03*
X143362Y153909D02*
D03*
Y159421D02*
D03*
X154386D02*
D03*
Y153909D02*
D03*
X167335Y135177D02*
D03*
Y140689D02*
D03*
X126587Y135177D02*
D03*
Y140689D02*
D03*
X171665Y119331D02*
D03*
Y124843D02*
D03*
X165760Y119331D02*
D03*
Y124843D02*
D03*
X86177Y134713D02*
D03*
Y140224D02*
D03*
X66929Y159055D02*
D03*
Y153543D02*
D03*
X55905Y159055D02*
D03*
Y153543D02*
D03*
X32831Y134811D02*
D03*
Y140323D02*
D03*
X78303Y118965D02*
D03*
Y124476D02*
D03*
X84209Y118965D02*
D03*
Y124476D02*
D03*
X79878Y134811D02*
D03*
Y140323D02*
D03*
X39130D02*
D03*
Y134811D02*
D03*
X300772Y135264D02*
D03*
Y140776D02*
D03*
X214354D02*
D03*
Y135264D02*
D03*
X354118Y135165D02*
D03*
Y140677D02*
D03*
D49*
X138299Y112146D02*
D03*
X143811D02*
D03*
X50842Y111780D02*
D03*
X56354D02*
D03*
X149323Y118445D02*
D03*
X143811D02*
D03*
X61866Y118079D02*
D03*
X56354D02*
D03*
X45724D02*
D03*
X51236D02*
D03*
X133181Y118445D02*
D03*
X138693D02*
D03*
X334925Y118532D02*
D03*
X329807Y118532D02*
D03*
Y112232D02*
D03*
X324295D02*
D03*
Y118532D02*
D03*
X319177D02*
D03*
X248508Y118532D02*
D03*
X243390Y118532D02*
D03*
Y112232D02*
D03*
X232760Y118532D02*
D03*
X237878Y112232D02*
D03*
Y118532D02*
D03*
X154441Y118445D02*
D03*
X149323Y112146D02*
D03*
X66984Y118079D02*
D03*
X61866Y111780D02*
D03*
X227248Y118532D02*
D03*
X313665D02*
D03*
X254020Y118532D02*
D03*
X340437D02*
D03*
X229161Y172500D02*
D03*
X223650D02*
D03*
X315579D02*
D03*
X310067D02*
D03*
X252165Y183858D02*
D03*
X257677D02*
D03*
X338583D02*
D03*
X344094D02*
D03*
X205118Y57087D02*
D03*
X210630D02*
D03*
X192520Y66929D02*
D03*
X187008D02*
D03*
X127685Y125819D02*
D03*
X122173D02*
D03*
X154835Y112146D02*
D03*
X159953Y118445D02*
D03*
X135094Y172413D02*
D03*
X129583D02*
D03*
X158098Y183772D02*
D03*
X163610D02*
D03*
X40228Y125453D02*
D03*
X34717D02*
D03*
X216240Y125906D02*
D03*
X221752D02*
D03*
X308169D02*
D03*
X302658D02*
D03*
X67378Y111780D02*
D03*
X232366Y112232D02*
D03*
X248902D02*
D03*
X335319D02*
D03*
X318783D02*
D03*
X72496Y118079D02*
D03*
X42126Y172047D02*
D03*
X47638D02*
D03*
X76153Y183405D02*
D03*
X70642D02*
D03*
X135094Y178319D02*
D03*
X129583D02*
D03*
X135094Y184224D02*
D03*
X129583D02*
D03*
X42126Y177953D02*
D03*
X47638D02*
D03*
X223650Y178405D02*
D03*
X229161D02*
D03*
X310067D02*
D03*
X315579D02*
D03*
X42126Y183858D02*
D03*
X47638D02*
D03*
X223650Y184311D02*
D03*
X229161D02*
D03*
X310067D02*
D03*
X315579D02*
D03*
D50*
X183465Y47244D02*
D03*
X173228D02*
D03*
X45669Y64961D02*
D03*
X55905D02*
D03*
X165748Y61024D02*
D03*
X155512D02*
D03*
D51*
X192717Y79134D02*
D03*
X181299D02*
D03*
X56102Y80315D02*
D03*
X44685D02*
D03*
X149016Y61024D02*
D03*
X137598D02*
D03*
X165551Y47638D02*
D03*
X154134D02*
D03*
D52*
X187106Y72441D02*
D03*
X193209D02*
D03*
X160138Y69685D02*
D03*
X154035D02*
D03*
X131004Y62992D02*
D03*
X124902D02*
D03*
X81201Y39764D02*
D03*
X87303D02*
D03*
X157579Y54331D02*
D03*
X163681D02*
D03*
D53*
X167323Y36220D02*
D03*
Y18898D02*
D03*
X109055Y25197D02*
D03*
Y7874D02*
D03*
D54*
X181890Y24114D02*
D03*
Y30217D02*
D03*
X127177Y22145D02*
D03*
Y28248D02*
D03*
X95276Y76279D02*
D03*
Y70177D02*
D03*
X101575Y71358D02*
D03*
Y77461D02*
D03*
X97793Y65476D02*
D03*
Y59374D02*
D03*
X8661Y30610D02*
D03*
Y24508D02*
D03*
D55*
X34646Y71850D02*
D03*
Y83268D02*
D03*
X93307Y19882D02*
D03*
Y8465D02*
D03*
X85433Y19882D02*
D03*
Y8465D02*
D03*
X33465Y64370D02*
D03*
Y52953D02*
D03*
X129568Y55496D02*
D03*
Y44079D02*
D03*
X64567Y72244D02*
D03*
Y83661D02*
D03*
X72835Y72244D02*
D03*
Y83661D02*
D03*
D56*
X315579Y145748D02*
D03*
X229161D02*
D03*
X135094Y145661D02*
D03*
X47638Y145295D02*
D03*
D57*
X315579Y140748D02*
D03*
Y135748D02*
D03*
Y130748D02*
D03*
X339201D02*
D03*
Y135748D02*
D03*
Y140748D02*
D03*
Y145748D02*
D03*
X252783D02*
D03*
Y140748D02*
D03*
Y135748D02*
D03*
Y130748D02*
D03*
X229161D02*
D03*
Y135748D02*
D03*
Y140748D02*
D03*
X135094Y140661D02*
D03*
Y135661D02*
D03*
Y130661D02*
D03*
X158716D02*
D03*
Y135661D02*
D03*
Y140661D02*
D03*
Y145661D02*
D03*
X71260Y145295D02*
D03*
Y140295D02*
D03*
Y135295D02*
D03*
Y130295D02*
D03*
X47638D02*
D03*
Y135295D02*
D03*
Y140295D02*
D03*
D58*
X186811Y61122D02*
D03*
Y57382D02*
D03*
Y53642D02*
D03*
X197638D02*
D03*
Y57382D02*
D03*
Y61122D02*
D03*
D59*
X88090Y34252D02*
D03*
X81988D02*
D03*
X154331Y74410D02*
D03*
X160433D02*
D03*
Y79134D02*
D03*
X154331D02*
D03*
X99114Y39764D02*
D03*
X93012D02*
D03*
D60*
X127797Y15354D02*
D03*
Y9055D02*
D03*
X181890Y17323D02*
D03*
Y11024D02*
D03*
X14567Y24409D02*
D03*
Y30709D02*
D03*
D61*
X84744Y46457D02*
D03*
X87303D02*
D03*
X89862D02*
D03*
X92421D02*
D03*
X84744Y63779D02*
D03*
X87303D02*
D03*
X89862D02*
D03*
X92421D02*
D03*
D62*
X145669Y68701D02*
D03*
Y71260D02*
D03*
Y73819D02*
D03*
Y76378D02*
D03*
X129134Y68701D02*
D03*
Y71260D02*
D03*
Y73819D02*
D03*
Y76378D02*
D03*
D63*
X137402Y72539D02*
D03*
D64*
X74319Y63410D02*
D03*
Y48606D02*
D03*
D65*
X55118Y38583D02*
D03*
Y7087D02*
D03*
D66*
X120472Y56693D02*
D03*
Y46457D02*
D03*
D67*
X11811Y11811D02*
D03*
X374016D02*
D03*
X9843Y372047D02*
D03*
X375984D02*
D03*
D68*
X345472Y55876D02*
D03*
X284449D02*
D03*
D69*
X337461Y43868D02*
D03*
X292461D02*
D03*
D70*
X332441Y78868D02*
D03*
X327441Y68868D02*
D03*
X322441Y78868D02*
D03*
X317441Y68868D02*
D03*
X312441Y78868D02*
D03*
X307441Y68868D02*
D03*
X302441Y78868D02*
D03*
X297441Y68868D02*
D03*
D71*
X338492Y195335D02*
D03*
X330994D02*
D03*
X323494D02*
D03*
X315996D02*
D03*
X229579D02*
D03*
X237077D02*
D03*
X244577D02*
D03*
X252075D02*
D03*
X158008Y195248D02*
D03*
X150510D02*
D03*
X143010D02*
D03*
X135512D02*
D03*
X48055Y194882D02*
D03*
X55553D02*
D03*
X63053D02*
D03*
X70551D02*
D03*
D72*
X302047Y245335D02*
D03*
X352047D02*
D03*
X265630D02*
D03*
X215630D02*
D03*
X121563Y245248D02*
D03*
X171563D02*
D03*
X84106Y244882D02*
D03*
X34106D02*
D03*
D73*
X352047Y235335D02*
D03*
Y225335D02*
D03*
X302047Y235335D02*
D03*
Y225335D02*
D03*
X215630D02*
D03*
Y235335D02*
D03*
X265630Y225335D02*
D03*
Y235335D02*
D03*
X171563Y235248D02*
D03*
Y225248D02*
D03*
X121563Y235248D02*
D03*
Y225248D02*
D03*
X34106Y224882D02*
D03*
Y234882D02*
D03*
X84106Y224882D02*
D03*
Y234882D02*
D03*
D74*
X12598Y50906D02*
D03*
Y60905D02*
D03*
D75*
X38559Y299287D02*
D03*
Y339287D02*
D03*
X78559Y299287D02*
D03*
X128383D02*
D03*
Y339287D02*
D03*
X168383Y299287D02*
D03*
X218207D02*
D03*
Y339287D02*
D03*
X258207Y299287D02*
D03*
X308032D02*
D03*
Y339287D02*
D03*
X348031Y299287D02*
D03*
D76*
X78559Y339287D02*
D03*
X168383D02*
D03*
X258207D02*
D03*
X348031D02*
D03*
D77*
X79528Y67716D02*
D03*
X72835Y68504D02*
D03*
D78*
X224370Y125945D02*
D03*
X84252Y3937D02*
D03*
X102362Y7087D02*
D03*
X351969Y115748D02*
D03*
X311811Y125984D02*
D03*
X42913Y125591D02*
D03*
X129941Y125013D02*
D03*
X150110Y140099D02*
D03*
X141055Y140492D02*
D03*
X330594Y140185D02*
D03*
X244177D02*
D03*
X62653Y139732D02*
D03*
X321539Y140579D02*
D03*
X235122D02*
D03*
X53598Y140126D02*
D03*
X33858Y48031D02*
D03*
X114173Y4331D02*
D03*
Y7874D02*
D03*
X78740Y9055D02*
D03*
X120472Y64173D02*
D03*
X129134Y79134D02*
D03*
X247638Y135433D02*
D03*
X327559Y131496D02*
D03*
X324803Y186614D02*
D03*
D79*
X137402Y72539D02*
D03*
X135630Y74902D02*
D03*
X139173D02*
D03*
X135630Y70177D02*
D03*
X139173D02*
D03*
M02*
