G04*
G04 #@! TF.GenerationSoftware,Altium Limited,Altium Designer,24.10.1 (45)*
G04*
G04 Layer_Color=8388736*
%FSLAX25Y25*%
%MOIN*%
G70*
G04*
G04 #@! TF.SameCoordinates,0BDD1144-D272-426E-A156-C709E6277962*
G04*
G04*
G04 #@! TF.FilePolarity,Negative*
G04*
G01*
G75*
%ADD29R,0.13386X0.07087*%
%ADD37R,0.05000X0.15512*%
%ADD46R,0.08359X0.07414*%
%ADD47R,0.03556X0.04343*%
%ADD48R,0.04343X0.03556*%
%ADD49O,0.05603X0.03410*%
%ADD50R,0.05603X0.03410*%
%ADD51R,0.04737X0.03556*%
%ADD52C,0.04737*%
%ADD53R,0.06312X0.04737*%
%ADD54R,0.05564X0.07965*%
%ADD55R,0.03556X0.04737*%
%ADD56R,0.07099X0.12611*%
%ADD57R,0.04343X0.04147*%
%ADD58R,0.07965X0.05564*%
G04:AMPARAMS|DCode=59|XSize=31.62mil|YSize=47.37mil|CornerRadius=6.01mil|HoleSize=0mil|Usage=FLASHONLY|Rotation=90.000|XOffset=0mil|YOffset=0mil|HoleType=Round|Shape=RoundedRectangle|*
%AMROUNDEDRECTD59*
21,1,0.03162,0.03535,0,0,90.0*
21,1,0.01961,0.04737,0,0,90.0*
1,1,0.01202,0.01768,0.00980*
1,1,0.01202,0.01768,-0.00980*
1,1,0.01202,-0.01768,-0.00980*
1,1,0.01202,-0.01768,0.00980*
%
%ADD59ROUNDEDRECTD59*%
%ADD60R,0.04147X0.04343*%
%ADD61R,0.03950X0.03950*%
%ADD62R,0.02572X0.06509*%
%ADD63O,0.07493X0.02572*%
%ADD64R,0.06981X0.08241*%
%ADD65R,0.14973X0.11430*%
%ADD66R,0.04737X0.06312*%
%ADD67O,0.10000X0.07500*%
%ADD68O,0.10800X0.08300*%
%ADD69O,0.05900X0.09900*%
%ADD70R,0.12611X0.12611*%
%ADD71C,0.12611*%
%ADD72C,0.06312*%
%ADD73C,0.04993*%
%ADD74C,0.09855*%
%ADD75C,0.14973*%
%ADD76C,0.07887*%
%ADD77C,0.03162*%
%ADD78C,0.02769*%
%ADD79C,0.02800*%
D29*
X179642Y175898D02*
D03*
X138079Y158661D02*
D03*
X163055Y175461D02*
D03*
X31496Y158661D02*
D03*
X56811Y175094D02*
D03*
X73398Y175531D02*
D03*
X243114Y158661D02*
D03*
X350342Y158661D02*
D03*
X269295Y175547D02*
D03*
X375539Y175547D02*
D03*
X285882Y175984D02*
D03*
X392126Y175984D02*
D03*
D37*
X8779Y77126D02*
D03*
X18779D02*
D03*
X8779Y101614D02*
D03*
X18779D02*
D03*
D46*
X73835Y53059D02*
D03*
X59031D02*
D03*
D47*
X160630Y112146D02*
D03*
X155118D02*
D03*
X155512Y118445D02*
D03*
X150000D02*
D03*
X138992Y125819D02*
D03*
X144504D02*
D03*
X171654Y112146D02*
D03*
X166142D02*
D03*
X176772Y118445D02*
D03*
X171260D02*
D03*
X160630Y118445D02*
D03*
X166142D02*
D03*
X174917Y183772D02*
D03*
X180429D02*
D03*
X146402Y172413D02*
D03*
X151913D02*
D03*
Y184224D02*
D03*
X146402D02*
D03*
Y178319D02*
D03*
X151913D02*
D03*
X32748Y125453D02*
D03*
X38260D02*
D03*
X65409Y111780D02*
D03*
X59898D02*
D03*
X54386D02*
D03*
X48874D02*
D03*
X54386Y118079D02*
D03*
X59898D02*
D03*
X45669Y177953D02*
D03*
X40157D02*
D03*
Y183858D02*
D03*
X45669D02*
D03*
X70528Y118079D02*
D03*
X65016D02*
D03*
X49268Y118079D02*
D03*
X43756D02*
D03*
X68673Y183405D02*
D03*
X74185D02*
D03*
X45669Y172047D02*
D03*
X40157D02*
D03*
X286669Y183858D02*
D03*
X281157D02*
D03*
X392913Y183858D02*
D03*
X387402D02*
D03*
X258154Y184311D02*
D03*
X252642D02*
D03*
X364398Y184311D02*
D03*
X358886D02*
D03*
X383744Y118532D02*
D03*
X378626Y118532D02*
D03*
Y112232D02*
D03*
X373114D02*
D03*
Y118532D02*
D03*
X367996D02*
D03*
X277500Y118532D02*
D03*
X272382Y118532D02*
D03*
Y112232D02*
D03*
X261752Y118532D02*
D03*
X266870Y112232D02*
D03*
Y118532D02*
D03*
X256240D02*
D03*
X362484Y118532D02*
D03*
X283012Y118532D02*
D03*
X389256Y118532D02*
D03*
X258154Y172500D02*
D03*
X252642D02*
D03*
X364398Y172500D02*
D03*
X358886D02*
D03*
X202756Y57480D02*
D03*
X208268D02*
D03*
X190157Y67323D02*
D03*
X184646D02*
D03*
X245232Y125906D02*
D03*
X250744D02*
D03*
X356988Y125906D02*
D03*
X351476D02*
D03*
X261358Y112232D02*
D03*
X277894D02*
D03*
X384138Y112232D02*
D03*
X367602D02*
D03*
X252642Y178405D02*
D03*
X258154D02*
D03*
X358886Y178405D02*
D03*
X364398D02*
D03*
D48*
X184153Y140689D02*
D03*
Y135177D02*
D03*
X188484Y124843D02*
D03*
Y119331D02*
D03*
X182579Y124843D02*
D03*
Y119331D02*
D03*
X190453Y140591D02*
D03*
Y135079D02*
D03*
X143405Y140689D02*
D03*
Y135177D02*
D03*
X137106Y140689D02*
D03*
Y135177D02*
D03*
X160181Y159421D02*
D03*
Y153909D02*
D03*
X171205D02*
D03*
Y159421D02*
D03*
X84209Y140224D02*
D03*
Y134713D02*
D03*
X64961Y153543D02*
D03*
Y159055D02*
D03*
X53937Y153543D02*
D03*
Y159055D02*
D03*
X30862Y140323D02*
D03*
Y134811D02*
D03*
X76335Y124476D02*
D03*
Y118965D02*
D03*
X82240Y124476D02*
D03*
Y118965D02*
D03*
X77909Y140323D02*
D03*
Y134811D02*
D03*
X37161D02*
D03*
Y140323D02*
D03*
X196457Y48425D02*
D03*
Y42913D02*
D03*
X296693Y135165D02*
D03*
Y140677D02*
D03*
X372665Y153996D02*
D03*
Y159508D02*
D03*
X266421Y159508D02*
D03*
Y153996D02*
D03*
X383689Y159508D02*
D03*
Y153996D02*
D03*
X277445Y159508D02*
D03*
Y153996D02*
D03*
X290394Y135264D02*
D03*
Y140776D02*
D03*
X396638Y135264D02*
D03*
Y140776D02*
D03*
X249646Y135264D02*
D03*
Y140776D02*
D03*
X355890Y135264D02*
D03*
Y140776D02*
D03*
X294724Y124929D02*
D03*
Y119417D02*
D03*
X400969Y119417D02*
D03*
Y124929D02*
D03*
X288819Y124929D02*
D03*
Y119417D02*
D03*
X395063Y119417D02*
D03*
Y124929D02*
D03*
X349590Y135264D02*
D03*
Y140776D02*
D03*
X243346Y140776D02*
D03*
Y135264D02*
D03*
X402937Y135165D02*
D03*
Y140677D02*
D03*
D49*
X175535Y145661D02*
D03*
Y140661D02*
D03*
Y135661D02*
D03*
Y130661D02*
D03*
X151913D02*
D03*
Y135661D02*
D03*
Y140661D02*
D03*
X45669Y140295D02*
D03*
Y135295D02*
D03*
Y130295D02*
D03*
X69291D02*
D03*
Y135295D02*
D03*
Y140295D02*
D03*
Y145295D02*
D03*
X364398Y140748D02*
D03*
Y135748D02*
D03*
Y130748D02*
D03*
X388020D02*
D03*
Y135748D02*
D03*
Y140748D02*
D03*
Y145748D02*
D03*
X281776Y145748D02*
D03*
Y140748D02*
D03*
Y135748D02*
D03*
Y130748D02*
D03*
X258154D02*
D03*
Y135748D02*
D03*
Y140748D02*
D03*
D50*
X151913Y145661D02*
D03*
X45669Y145295D02*
D03*
X364398Y145748D02*
D03*
X258154Y145748D02*
D03*
D51*
X189764Y49108D02*
D03*
Y43005D02*
D03*
X76378Y19587D02*
D03*
Y13484D02*
D03*
X90945Y28839D02*
D03*
Y34941D02*
D03*
X87402Y78248D02*
D03*
Y72146D02*
D03*
X23622Y52854D02*
D03*
Y58957D02*
D03*
X101575Y59547D02*
D03*
Y65650D02*
D03*
X119685Y80610D02*
D03*
Y74508D02*
D03*
X77165Y70768D02*
D03*
Y64665D02*
D03*
D52*
X179646Y36220D02*
D03*
X125197Y34252D02*
D03*
X131496Y9843D02*
D03*
X78346Y83858D02*
D03*
X200394Y72441D02*
D03*
D53*
X181102Y47638D02*
D03*
X170866D02*
D03*
X43307Y71653D02*
D03*
X53543D02*
D03*
X163386Y61417D02*
D03*
X153150D02*
D03*
D54*
X190354Y79528D02*
D03*
X178937D02*
D03*
X53740Y80709D02*
D03*
X42323D02*
D03*
X146653Y61417D02*
D03*
X135236D02*
D03*
X163189Y48031D02*
D03*
X151772D02*
D03*
D55*
X184744Y72835D02*
D03*
X190847D02*
D03*
X157776Y70079D02*
D03*
X151673D02*
D03*
X128642Y63386D02*
D03*
X122539D02*
D03*
X78839Y40157D02*
D03*
X84941D02*
D03*
X155217Y54724D02*
D03*
X161319D02*
D03*
D56*
X164961Y36614D02*
D03*
Y19291D02*
D03*
X106693Y25591D02*
D03*
Y8268D02*
D03*
D57*
X179527Y24508D02*
D03*
Y30610D02*
D03*
X124815Y22539D02*
D03*
Y28642D02*
D03*
X92913Y76673D02*
D03*
Y70571D02*
D03*
X99213Y71752D02*
D03*
Y77854D02*
D03*
X95431Y65870D02*
D03*
Y59768D02*
D03*
X6299Y31004D02*
D03*
Y24902D02*
D03*
D58*
X32283Y71457D02*
D03*
Y82874D02*
D03*
X90945Y20276D02*
D03*
Y8858D02*
D03*
X83071Y20276D02*
D03*
Y8858D02*
D03*
X31102Y64764D02*
D03*
Y53347D02*
D03*
X127206Y55890D02*
D03*
Y44472D02*
D03*
X62205Y64764D02*
D03*
Y76181D02*
D03*
X70472Y64764D02*
D03*
Y76181D02*
D03*
D59*
X184449Y61516D02*
D03*
Y57776D02*
D03*
Y54035D02*
D03*
X195276D02*
D03*
Y57776D02*
D03*
Y61516D02*
D03*
D60*
X85728Y34646D02*
D03*
X79626D02*
D03*
X151969Y74803D02*
D03*
X158071D02*
D03*
Y79528D02*
D03*
X151969D02*
D03*
X96752Y40157D02*
D03*
X90650D02*
D03*
D61*
X125435Y15748D02*
D03*
Y9449D02*
D03*
X179527Y17717D02*
D03*
Y11417D02*
D03*
X12205Y24803D02*
D03*
Y31102D02*
D03*
D62*
X82382Y46850D02*
D03*
X84941D02*
D03*
X87500D02*
D03*
X90059D02*
D03*
X82382Y64173D02*
D03*
X84941D02*
D03*
X87500D02*
D03*
X90059D02*
D03*
D63*
X143307Y69095D02*
D03*
Y71653D02*
D03*
Y74213D02*
D03*
Y76772D02*
D03*
X126772Y69095D02*
D03*
Y71653D02*
D03*
Y74213D02*
D03*
Y76772D02*
D03*
D64*
X135039Y72933D02*
D03*
D65*
X52756Y38976D02*
D03*
Y7480D02*
D03*
D66*
X118110Y57087D02*
D03*
Y46850D02*
D03*
D67*
X138382Y224882D02*
D03*
Y234882D02*
D03*
X188382Y224882D02*
D03*
Y234882D02*
D03*
X294622D02*
D03*
Y224882D02*
D03*
X244622Y234882D02*
D03*
Y224882D02*
D03*
X350866D02*
D03*
Y234882D02*
D03*
X400866Y224882D02*
D03*
Y234882D02*
D03*
X82138D02*
D03*
Y224882D02*
D03*
X32138Y234882D02*
D03*
Y224882D02*
D03*
D68*
X188382Y244882D02*
D03*
X138382D02*
D03*
X244622D02*
D03*
X294622D02*
D03*
X400866D02*
D03*
X350866D02*
D03*
X32138D02*
D03*
X82138D02*
D03*
D69*
X152331Y194882D02*
D03*
X159829D02*
D03*
X167329D02*
D03*
X174827D02*
D03*
X281067D02*
D03*
X273569D02*
D03*
X266069D02*
D03*
X258571D02*
D03*
X364815D02*
D03*
X372313D02*
D03*
X379813D02*
D03*
X387311D02*
D03*
X68583D02*
D03*
X61085D02*
D03*
X53585D02*
D03*
X46087D02*
D03*
D70*
X185202Y339287D02*
D03*
X76591D02*
D03*
X396850D02*
D03*
X287199D02*
D03*
D71*
X185202Y299287D02*
D03*
X145202Y339287D02*
D03*
Y299287D02*
D03*
X76591D02*
D03*
X36590Y339287D02*
D03*
Y299287D02*
D03*
X396850D02*
D03*
X356850Y339287D02*
D03*
Y299287D02*
D03*
X247200D02*
D03*
Y339287D02*
D03*
X287199Y299287D02*
D03*
D72*
X349705Y56104D02*
D03*
X354705Y66104D02*
D03*
X359705Y56104D02*
D03*
X364705Y66104D02*
D03*
X369705Y56104D02*
D03*
X374705Y66104D02*
D03*
X379705Y56104D02*
D03*
X384705Y66104D02*
D03*
D73*
X344724Y31104D02*
D03*
X389724D02*
D03*
D74*
X336713Y19323D02*
D03*
X397638D02*
D03*
D75*
X9449Y11811D02*
D03*
X423228D02*
D03*
X10236Y381890D02*
D03*
X423228D02*
D03*
D76*
X10236Y51299D02*
D03*
Y61299D02*
D03*
D77*
X166929Y140099D02*
D03*
X157874Y140492D02*
D03*
X146760Y125013D02*
D03*
X60685Y139732D02*
D03*
X51630Y140126D02*
D03*
X40945Y125591D02*
D03*
X253362Y125945D02*
D03*
X81890Y4331D02*
D03*
X100000Y7480D02*
D03*
X400787Y115748D02*
D03*
X360630Y125984D02*
D03*
X379413Y140185D02*
D03*
X273169Y140185D02*
D03*
X370358Y140579D02*
D03*
X264114Y140579D02*
D03*
X31496Y48425D02*
D03*
X111811Y4724D02*
D03*
Y8268D02*
D03*
X76378Y9449D02*
D03*
X118110Y64567D02*
D03*
X126772Y79528D02*
D03*
X276630Y135433D02*
D03*
X376378Y131496D02*
D03*
X373622Y186614D02*
D03*
D78*
X77165Y60236D02*
D03*
X70472Y61024D02*
D03*
D79*
X135039Y72933D02*
D03*
X133268Y75295D02*
D03*
X136811D02*
D03*
X133268Y70571D02*
D03*
X136811D02*
D03*
M02*
