G04*
G04 #@! TF.GenerationSoftware,Altium Limited,Altium Designer,25.2.1 (25)*
G04*
G04 Layer_Color=8421504*
%FSLAX25Y25*%
%MOIN*%
G70*
G04*
G04 #@! TF.SameCoordinates,F407CCA4-E1A1-4AAD-8540-8404F0AA80AE*
G04*
G04*
G04 #@! TF.FilePolarity,Positive*
G04*
G01*
G75*
%ADD24R,0.03937X0.02756*%
%ADD25R,0.03543X0.02756*%
%ADD26R,0.02756X0.03543*%
%ADD27R,0.05512X0.03937*%
%ADD28R,0.04764X0.07165*%
%ADD29R,0.02756X0.03937*%
%ADD30R,0.06299X0.11811*%
%ADD31R,0.03543X0.03347*%
%ADD32R,0.07165X0.04764*%
%ADD33R,0.04803X0.02610*%
%ADD34O,0.04803X0.02610*%
%ADD35R,0.05000X0.15512*%
G04:AMPARAMS|DCode=36|XSize=23.62mil|YSize=39.37mil|CornerRadius=2.01mil|HoleSize=0mil|Usage=FLASHONLY|Rotation=90.000|XOffset=0mil|YOffset=0mil|HoleType=Round|Shape=RoundedRectangle|*
%AMROUNDEDRECTD36*
21,1,0.02362,0.03535,0,0,90.0*
21,1,0.01961,0.03937,0,0,90.0*
1,1,0.00402,0.01768,0.00980*
1,1,0.00402,0.01768,-0.00980*
1,1,0.00402,-0.01768,-0.00980*
1,1,0.00402,-0.01768,0.00980*
%
%ADD36ROUNDEDRECTD36*%
%ADD37R,0.03347X0.03543*%
%ADD38R,0.03150X0.03150*%
%ADD39R,0.01772X0.05709*%
%ADD40O,0.06693X0.01772*%
%ADD41R,0.06181X0.07441*%
%ADD42R,0.06614X0.07559*%
%ADD43R,0.14173X0.10630*%
%ADD44R,0.03937X0.05512*%
%ADD45R,0.13386X0.07087*%
D24*
X192126Y48714D02*
D03*
Y42612D02*
D03*
X78740Y19193D02*
D03*
Y13091D02*
D03*
X93307Y28445D02*
D03*
Y34547D02*
D03*
X89764Y77854D02*
D03*
Y71752D02*
D03*
X25984Y52461D02*
D03*
Y58563D02*
D03*
X103937Y59153D02*
D03*
Y65256D02*
D03*
X122047Y80216D02*
D03*
Y74114D02*
D03*
X79528Y78248D02*
D03*
Y72146D02*
D03*
D25*
X198819Y48031D02*
D03*
Y42520D02*
D03*
X267701Y135165D02*
D03*
Y140677D02*
D03*
X323846Y153996D02*
D03*
Y159508D02*
D03*
X237429D02*
D03*
Y153996D02*
D03*
X334870Y159508D02*
D03*
Y153996D02*
D03*
X248453Y159508D02*
D03*
Y153996D02*
D03*
X261402Y135264D02*
D03*
Y140776D02*
D03*
X347819Y135264D02*
D03*
Y140776D02*
D03*
X220654Y135264D02*
D03*
Y140776D02*
D03*
X307071Y135264D02*
D03*
Y140776D02*
D03*
X265732Y124929D02*
D03*
Y119417D02*
D03*
X352150D02*
D03*
Y124929D02*
D03*
X259827D02*
D03*
Y119417D02*
D03*
X346244D02*
D03*
Y124929D02*
D03*
X120287Y135177D02*
D03*
Y140689D02*
D03*
X173634Y135079D02*
D03*
Y140591D02*
D03*
X143362Y153909D02*
D03*
Y159421D02*
D03*
X154386D02*
D03*
Y153909D02*
D03*
X167335Y135177D02*
D03*
Y140689D02*
D03*
X126587Y135177D02*
D03*
Y140689D02*
D03*
X171665Y119331D02*
D03*
Y124843D02*
D03*
X165760Y119331D02*
D03*
Y124843D02*
D03*
X86177Y134713D02*
D03*
Y140224D02*
D03*
X66929Y159055D02*
D03*
Y153543D02*
D03*
X55905Y159055D02*
D03*
Y153543D02*
D03*
X32831Y134811D02*
D03*
Y140323D02*
D03*
X78303Y118965D02*
D03*
Y124476D02*
D03*
X84209Y118965D02*
D03*
Y124476D02*
D03*
X79878Y134811D02*
D03*
Y140323D02*
D03*
X39130D02*
D03*
Y134811D02*
D03*
X300772Y135264D02*
D03*
Y140776D02*
D03*
X214354D02*
D03*
Y135264D02*
D03*
X354118Y135165D02*
D03*
Y140677D02*
D03*
D26*
X138299Y112146D02*
D03*
X143811D02*
D03*
X50842Y111780D02*
D03*
X56354D02*
D03*
X149323Y118445D02*
D03*
X143811D02*
D03*
X61866Y118079D02*
D03*
X56354D02*
D03*
X45724D02*
D03*
X51236D02*
D03*
X133181Y118445D02*
D03*
X138693D02*
D03*
X334925Y118532D02*
D03*
X329807Y118532D02*
D03*
Y112232D02*
D03*
X324295D02*
D03*
Y118532D02*
D03*
X319177D02*
D03*
X248508Y118532D02*
D03*
X243390Y118532D02*
D03*
Y112232D02*
D03*
X232760Y118532D02*
D03*
X237878Y112232D02*
D03*
Y118532D02*
D03*
X154441Y118445D02*
D03*
X149323Y112146D02*
D03*
X66984Y118079D02*
D03*
X61866Y111780D02*
D03*
X227248Y118532D02*
D03*
X313665D02*
D03*
X254020Y118532D02*
D03*
X340437D02*
D03*
X229161Y172500D02*
D03*
X223650D02*
D03*
X315579D02*
D03*
X310067D02*
D03*
X252165Y183858D02*
D03*
X257677D02*
D03*
X338583D02*
D03*
X344094D02*
D03*
X205118Y57087D02*
D03*
X210630D02*
D03*
X192520Y66929D02*
D03*
X187008D02*
D03*
X127685Y125819D02*
D03*
X122173D02*
D03*
X154835Y112146D02*
D03*
X159953Y118445D02*
D03*
X135094Y172413D02*
D03*
X129583D02*
D03*
X158098Y183772D02*
D03*
X163610D02*
D03*
X40228Y125453D02*
D03*
X34717D02*
D03*
X216240Y125906D02*
D03*
X221752D02*
D03*
X308169D02*
D03*
X302658D02*
D03*
X67378Y111780D02*
D03*
X232366Y112232D02*
D03*
X248902D02*
D03*
X335319D02*
D03*
X318783D02*
D03*
X72496Y118079D02*
D03*
X42126Y172047D02*
D03*
X47638D02*
D03*
X76153Y183405D02*
D03*
X70642D02*
D03*
X135094Y178319D02*
D03*
X129583D02*
D03*
X135094Y184224D02*
D03*
X129583D02*
D03*
X42126Y177953D02*
D03*
X47638D02*
D03*
X223650Y178405D02*
D03*
X229161D02*
D03*
X310067D02*
D03*
X315579D02*
D03*
X42126Y183858D02*
D03*
X47638D02*
D03*
X223650Y184311D02*
D03*
X229161D02*
D03*
X310067D02*
D03*
X315579D02*
D03*
D27*
X183465Y47244D02*
D03*
X173228D02*
D03*
X45669Y64961D02*
D03*
X55905D02*
D03*
X165748Y61024D02*
D03*
X155512D02*
D03*
D28*
X192717Y79134D02*
D03*
X181299D02*
D03*
X56102Y80315D02*
D03*
X44685D02*
D03*
X149016Y61024D02*
D03*
X137598D02*
D03*
X165551Y47638D02*
D03*
X154134D02*
D03*
D29*
X187106Y72441D02*
D03*
X193209D02*
D03*
X160138Y69685D02*
D03*
X154035D02*
D03*
X131004Y62992D02*
D03*
X124902D02*
D03*
X81201Y39764D02*
D03*
X87303D02*
D03*
X157579Y54331D02*
D03*
X163681D02*
D03*
D30*
X167323Y36220D02*
D03*
Y18898D02*
D03*
X109055Y25197D02*
D03*
Y7874D02*
D03*
D31*
X181890Y24114D02*
D03*
Y30217D02*
D03*
X127177Y22145D02*
D03*
Y28248D02*
D03*
X95276Y76279D02*
D03*
Y70177D02*
D03*
X101575Y71358D02*
D03*
Y77461D02*
D03*
X97793Y65476D02*
D03*
Y59374D02*
D03*
X8661Y30610D02*
D03*
Y24508D02*
D03*
D32*
X34646Y71850D02*
D03*
Y83268D02*
D03*
X93307Y19882D02*
D03*
Y8465D02*
D03*
X85433Y19882D02*
D03*
Y8465D02*
D03*
X33465Y64370D02*
D03*
Y52953D02*
D03*
X129568Y55496D02*
D03*
Y44079D02*
D03*
X64567Y72244D02*
D03*
Y83661D02*
D03*
X72835Y72244D02*
D03*
Y83661D02*
D03*
D33*
X315579Y145748D02*
D03*
X229161D02*
D03*
X135094Y145661D02*
D03*
X47638Y145295D02*
D03*
D34*
X315579Y140748D02*
D03*
Y135748D02*
D03*
Y130748D02*
D03*
X339201D02*
D03*
Y135748D02*
D03*
Y140748D02*
D03*
Y145748D02*
D03*
X252783D02*
D03*
Y140748D02*
D03*
Y135748D02*
D03*
Y130748D02*
D03*
X229161D02*
D03*
Y135748D02*
D03*
Y140748D02*
D03*
X135094Y140661D02*
D03*
Y135661D02*
D03*
Y130661D02*
D03*
X158716D02*
D03*
Y135661D02*
D03*
Y140661D02*
D03*
Y145661D02*
D03*
X71260Y145295D02*
D03*
Y140295D02*
D03*
Y135295D02*
D03*
Y130295D02*
D03*
X47638D02*
D03*
Y135295D02*
D03*
Y140295D02*
D03*
D35*
X11142Y76732D02*
D03*
X21142D02*
D03*
X11142Y101221D02*
D03*
X21142D02*
D03*
D36*
X186811Y61122D02*
D03*
Y57382D02*
D03*
Y53642D02*
D03*
X197638D02*
D03*
Y57382D02*
D03*
Y61122D02*
D03*
D37*
X88090Y34252D02*
D03*
X81988D02*
D03*
X154331Y74410D02*
D03*
X160433D02*
D03*
Y79134D02*
D03*
X154331D02*
D03*
X99114Y39764D02*
D03*
X93012D02*
D03*
D38*
X127797Y15354D02*
D03*
Y9055D02*
D03*
X181890Y17323D02*
D03*
Y11024D02*
D03*
X14567Y24409D02*
D03*
Y30709D02*
D03*
D39*
X84744Y46457D02*
D03*
X87303D02*
D03*
X89862D02*
D03*
X92421D02*
D03*
X84744Y63779D02*
D03*
X87303D02*
D03*
X89862D02*
D03*
X92421D02*
D03*
D40*
X145669Y68701D02*
D03*
Y71260D02*
D03*
Y73819D02*
D03*
Y76378D02*
D03*
X129134Y68701D02*
D03*
Y71260D02*
D03*
Y73819D02*
D03*
Y76378D02*
D03*
D41*
X137402Y72539D02*
D03*
D42*
X74319Y63410D02*
D03*
Y48606D02*
D03*
D43*
X55118Y38583D02*
D03*
Y7087D02*
D03*
D44*
X120472Y56693D02*
D03*
Y46457D02*
D03*
D45*
X58780Y175094D02*
D03*
X146236Y175461D02*
D03*
X240303Y175547D02*
D03*
X326720D02*
D03*
X75366Y175531D02*
D03*
X162823Y175898D02*
D03*
X256890Y175984D02*
D03*
X343307D02*
D03*
M02*
