G04*
G04 #@! TF.GenerationSoftware,Altium Limited,Altium Designer,25.2.1 (25)*
G04*
G04 Layer_Physical_Order=1*
G04 Layer_Color=255*
%FSLAX25Y25*%
%MOIN*%
G70*
G04*
G04 #@! TF.SameCoordinates,F407CCA4-E1A1-4AAD-8540-8404F0AA80AE*
G04*
G04*
G04 #@! TF.FilePolarity,Positive*
G04*
G01*
G75*
%ADD12C,0.00500*%
%ADD17C,0.01181*%
%ADD20C,0.01000*%
%ADD24R,0.03937X0.02756*%
%ADD25R,0.03543X0.02756*%
%ADD26R,0.02756X0.03543*%
%ADD27R,0.05512X0.03937*%
%ADD28R,0.04764X0.07165*%
%ADD29R,0.02756X0.03937*%
%ADD30R,0.06299X0.11811*%
%ADD31R,0.03543X0.03347*%
%ADD32R,0.07165X0.04764*%
%ADD33R,0.04803X0.02610*%
%ADD34O,0.04803X0.02610*%
%ADD35R,0.05000X0.15512*%
G04:AMPARAMS|DCode=36|XSize=23.62mil|YSize=39.37mil|CornerRadius=2.01mil|HoleSize=0mil|Usage=FLASHONLY|Rotation=90.000|XOffset=0mil|YOffset=0mil|HoleType=Round|Shape=RoundedRectangle|*
%AMROUNDEDRECTD36*
21,1,0.02362,0.03535,0,0,90.0*
21,1,0.01961,0.03937,0,0,90.0*
1,1,0.00402,0.01768,0.00980*
1,1,0.00402,0.01768,-0.00980*
1,1,0.00402,-0.01768,-0.00980*
1,1,0.00402,-0.01768,0.00980*
%
%ADD36ROUNDEDRECTD36*%
%ADD37R,0.03347X0.03543*%
%ADD38R,0.03150X0.03150*%
%ADD39R,0.01772X0.05709*%
%ADD40O,0.06693X0.01772*%
%ADD41R,0.06181X0.07441*%
%ADD42R,0.06614X0.07559*%
%ADD43R,0.14173X0.10630*%
%ADD44R,0.03937X0.05512*%
%ADD45R,0.13386X0.07087*%
%ADD73O,0.10000X0.07500*%
%ADD80C,0.03937*%
%ADD81C,0.01968*%
%ADD82C,0.01575*%
%ADD83C,0.01378*%
%ADD84C,0.03000*%
%ADD85C,0.14173*%
%ADD86C,0.09055*%
%ADD87C,0.04193*%
%ADD88C,0.05512*%
%ADD89O,0.05100X0.09100*%
%ADD90C,0.07087*%
%ADD91C,0.11811*%
%ADD92R,0.11811X0.11811*%
%ADD93C,0.02362*%
%ADD94C,0.01968*%
%ADD95C,0.02000*%
G36*
X370744Y211062D02*
X327437D01*
Y352127D01*
X370744D01*
Y211062D01*
D02*
G37*
G36*
X319525D02*
X288683D01*
Y352111D01*
X319525D01*
Y211062D01*
D02*
G37*
G36*
X280771D02*
X242909D01*
Y352111D01*
X242923Y352127D01*
X280771D01*
Y211062D01*
D02*
G37*
G36*
X234997D02*
X198709D01*
Y352111D01*
X234997D01*
Y211062D01*
D02*
G37*
G36*
X190797D02*
X152935D01*
Y352111D01*
X152950Y352127D01*
X190797D01*
Y211062D01*
D02*
G37*
G36*
X145023D02*
X102503D01*
Y352111D01*
X145023D01*
Y211062D01*
D02*
G37*
G36*
X94591Y352111D02*
Y211062D01*
X62961D01*
Y352111D01*
X62976Y352127D01*
X94576D01*
X94591Y352111D01*
D02*
G37*
G36*
X55049Y211062D02*
X12529D01*
Y352111D01*
X55049D01*
Y211062D01*
D02*
G37*
G36*
X381563Y15971D02*
X381063Y15819D01*
X380297Y16966D01*
X379171Y18092D01*
X377846Y18977D01*
X376375Y19587D01*
X374812Y19898D01*
X373219D01*
X371657Y19587D01*
X370185Y18977D01*
X368861Y18092D01*
X367735Y16966D01*
X366849Y15642D01*
X366240Y14170D01*
X365929Y12607D01*
Y11015D01*
X366240Y9452D01*
X366849Y7981D01*
X367735Y6656D01*
X368861Y5530D01*
X370185Y4645D01*
X371657Y4035D01*
X373219Y3724D01*
X374812D01*
X376375Y4035D01*
X377846Y4645D01*
X379171Y5530D01*
X380297Y6656D01*
X381063Y7803D01*
X381563Y7651D01*
Y1020D01*
X113137D01*
X112795Y1378D01*
X112795Y1519D01*
Y7382D01*
X112131D01*
Y8366D01*
X112795D01*
Y14370D01*
X109547D01*
Y13706D01*
X108563D01*
Y14370D01*
X105315D01*
Y8366D01*
X105979D01*
Y7382D01*
X105315D01*
Y1519D01*
X105315Y1378D01*
X104973Y1020D01*
X64405D01*
Y16303D01*
X122835D01*
X123225Y16381D01*
X123556Y16602D01*
X123777Y16933D01*
X123854Y17323D01*
Y32329D01*
X125014D01*
X125184Y32036D01*
X125736Y31483D01*
X125844Y31421D01*
X125709Y30921D01*
X124405D01*
Y25574D01*
X129948D01*
Y30921D01*
X129409D01*
X129275Y31421D01*
X129382Y31483D01*
X129934Y32036D01*
X130325Y32713D01*
X130527Y33468D01*
Y34249D01*
X130325Y35004D01*
X129934Y35681D01*
X129382Y36234D01*
X128705Y36625D01*
X127950Y36827D01*
X127168D01*
X126413Y36625D01*
X125736Y36234D01*
X125184Y35681D01*
X125014Y35388D01*
X123854D01*
Y37402D01*
Y42520D01*
Y50213D01*
X123777Y50603D01*
X123556Y50934D01*
X123225Y51155D01*
X122835Y51232D01*
X118635D01*
X118184Y51684D01*
X118430Y52145D01*
X118504Y52130D01*
X124985D01*
Y52114D01*
X134150D01*
Y56792D01*
X134626Y56850D01*
X134650Y56850D01*
X137106D01*
Y57514D01*
X138091D01*
Y56850D01*
X140571D01*
Y60532D01*
X139907D01*
Y61516D01*
X140571D01*
Y65197D01*
X138091D01*
Y64533D01*
X137106D01*
Y65197D01*
X134626D01*
Y61516D01*
X135290D01*
Y60532D01*
X134626D01*
Y58937D01*
X134150Y58878D01*
X134126Y58878D01*
X132968D01*
X132890Y58894D01*
X128800D01*
X127522Y60172D01*
Y66047D01*
X129026D01*
X129035Y65551D01*
X129035Y65547D01*
Y63484D01*
X129699D01*
Y62500D01*
X129035D01*
Y60433D01*
X130512D01*
Y61097D01*
X131496D01*
Y60433D01*
X132972D01*
Y62500D01*
X132308D01*
Y63484D01*
X132972D01*
Y65551D01*
X132505D01*
X132496Y66047D01*
X132886Y66125D01*
X133217Y66346D01*
X133438Y66677D01*
X133516Y67067D01*
Y67813D01*
X133721Y68228D01*
X134016Y68228D01*
X136909D01*
Y68892D01*
X137894D01*
Y68228D01*
X140870D01*
X141053Y68228D01*
X141272Y68076D01*
X141458Y67927D01*
X141500Y67863D01*
Y61811D01*
X141578Y61421D01*
X141799Y61090D01*
X145634Y57255D01*
Y56441D01*
X152398D01*
Y56461D01*
X155610D01*
Y54823D01*
X156274D01*
Y53839D01*
X155610D01*
Y51811D01*
X154626D01*
Y51147D01*
X153642D01*
Y51811D01*
X151161D01*
Y48130D01*
X151825D01*
Y47146D01*
X151161D01*
Y43465D01*
X153642D01*
Y44129D01*
X154626D01*
Y43465D01*
X157106D01*
Y47146D01*
X156442D01*
Y48130D01*
X157106D01*
Y51772D01*
X159547D01*
Y53839D01*
X158883D01*
Y54823D01*
X159547D01*
Y56890D01*
X159547D01*
X159269Y57390D01*
X159287Y57480D01*
Y63030D01*
X160886Y64628D01*
X161386Y64421D01*
Y57299D01*
X161303D01*
Y51362D01*
X161386D01*
Y28346D01*
X161463Y27956D01*
X161685Y27626D01*
X162015Y27404D01*
X162406Y27327D01*
X177953D01*
X178343Y27404D01*
X178618Y27588D01*
X179118Y27543D01*
X179118Y27543D01*
X184661D01*
Y32890D01*
X183771D01*
Y33417D01*
X183831Y33451D01*
X184384Y34004D01*
X184774Y34681D01*
X184977Y35436D01*
Y36218D01*
X184774Y36973D01*
X184384Y37650D01*
X183831Y38202D01*
X183154Y38593D01*
X182399Y38795D01*
X181617D01*
X180862Y38593D01*
X180186Y38202D01*
X179633Y37650D01*
X179472Y37372D01*
X178972Y37505D01*
Y43730D01*
X179134Y43862D01*
X189157D01*
X189567Y43434D01*
Y43104D01*
X190231D01*
Y42120D01*
X189567D01*
Y40643D01*
X191634D01*
Y41307D01*
X192618D01*
Y40643D01*
X194685D01*
Y42120D01*
X194021D01*
Y43104D01*
X194685D01*
Y43434D01*
X195095Y43862D01*
X196047D01*
X196457Y43543D01*
Y43012D01*
X197121D01*
Y42028D01*
X196457D01*
Y40551D01*
X198327D01*
Y41215D01*
X199311D01*
Y40551D01*
X201181D01*
Y42028D01*
X200517D01*
Y43012D01*
X201181D01*
Y43878D01*
X201591D01*
X201725Y43905D01*
X201862Y43915D01*
X201919Y43943D01*
X201981Y43956D01*
X202095Y44032D01*
X202218Y44094D01*
X202595Y44388D01*
X202637Y44436D01*
X202690Y44471D01*
X202766Y44585D01*
X202855Y44689D01*
X202875Y44750D01*
X202910Y44802D01*
X202937Y44937D01*
X202980Y45067D01*
X202976Y45130D01*
X202988Y45192D01*
Y54315D01*
X207496D01*
Y59858D01*
X202740D01*
Y58909D01*
X202228D01*
X202153Y58941D01*
X201957Y59117D01*
X201807Y59355D01*
Y68818D01*
X202204Y69122D01*
X202365Y69079D01*
X203147D01*
X203902Y69281D01*
X204579Y69672D01*
X205131Y70224D01*
X205522Y70901D01*
X205724Y71656D01*
Y72438D01*
X205522Y73193D01*
X205131Y73870D01*
X204579Y74423D01*
X203902Y74813D01*
X203147Y75016D01*
X202365D01*
X202204Y74972D01*
X201807Y75277D01*
Y78740D01*
X201729Y79130D01*
X201508Y79461D01*
X201178Y79682D01*
X200787Y79760D01*
X196098D01*
Y83716D01*
X189335D01*
Y79309D01*
X189216Y79130D01*
X189138Y78740D01*
Y75474D01*
X189075Y75000D01*
X188638Y75000D01*
X187598D01*
Y74336D01*
X186614D01*
Y75000D01*
X185138D01*
Y72933D01*
X185802D01*
Y71949D01*
X185138D01*
Y69882D01*
X186614D01*
Y70546D01*
X187598D01*
Y69882D01*
X188653Y69882D01*
X188731Y69747D01*
X188478Y69291D01*
X187500D01*
Y68627D01*
X186516D01*
Y69291D01*
X185039D01*
Y67421D01*
X185703D01*
Y66437D01*
X185039D01*
Y64567D01*
X186516D01*
Y65231D01*
X187500D01*
Y64567D01*
X188976D01*
X189138Y64134D01*
Y63236D01*
X188638Y62897D01*
X188579Y62909D01*
X187303D01*
Y62230D01*
X186319D01*
Y62909D01*
X185043D01*
X184734Y62848D01*
X184473Y62673D01*
X184298Y62411D01*
X184237Y62102D01*
Y61614D01*
X184916D01*
Y60630D01*
X184237D01*
Y60142D01*
X184298Y59833D01*
X184473Y59571D01*
X184524Y59537D01*
Y58967D01*
X184473Y58933D01*
X184298Y58671D01*
X184237Y58362D01*
Y57874D01*
X184916D01*
Y56890D01*
X184237D01*
Y56402D01*
X184268Y56244D01*
X184032Y55841D01*
X183930Y55744D01*
X179134D01*
X178744Y55666D01*
X178543Y55532D01*
X178343Y55666D01*
X177953Y55744D01*
X169905Y55744D01*
Y66470D01*
X169828Y66861D01*
X169607Y67191D01*
X169276Y67412D01*
X168886Y67490D01*
X162516D01*
Y71638D01*
X163106D01*
Y77181D01*
X162697D01*
Y78642D01*
X162033D01*
Y79626D01*
X162697D01*
Y81496D01*
X160925D01*
Y80832D01*
X159941D01*
Y81496D01*
X158169D01*
Y79626D01*
X158833D01*
Y78642D01*
X158169D01*
Y77181D01*
X157760D01*
Y71638D01*
Y66716D01*
X157941D01*
X158148Y66216D01*
X156962Y65030D01*
X152398D01*
Y65606D01*
X152201D01*
Y66535D01*
X152349Y66716D01*
X156413D01*
Y71638D01*
X157004D01*
Y76362D01*
Y81906D01*
X151657D01*
Y76362D01*
Y72789D01*
X150266D01*
X149947Y73289D01*
X150053Y73819D01*
X149906Y74555D01*
X149489Y75178D01*
X149223Y75357D01*
X149521Y75802D01*
X149635Y76378D01*
X149521Y76954D01*
X149473Y77025D01*
X148947Y76499D01*
X148251Y77195D01*
X148777Y77721D01*
X148706Y77769D01*
X148130Y77883D01*
X146161D01*
Y77190D01*
X145177D01*
Y77883D01*
X143209D01*
X142633Y77769D01*
X142561Y77721D01*
X143088Y77195D01*
X142392Y76499D01*
X141866Y77025D01*
X141818Y76954D01*
X141703Y76378D01*
X141818Y75802D01*
X142115Y75357D01*
X141849Y75178D01*
X141583Y74780D01*
X141083Y74932D01*
Y76850D01*
X137894D01*
Y76186D01*
X136909D01*
Y76850D01*
X133933D01*
X133750Y76850D01*
X133531Y77002D01*
X133345Y77152D01*
X132954Y77737D01*
X132330Y78154D01*
X131683Y78283D01*
X131315Y78700D01*
Y79568D01*
X130983Y80369D01*
X130369Y80983D01*
X129568Y81315D01*
X128700D01*
X127898Y80983D01*
X127285Y80369D01*
X126953Y79568D01*
Y78700D01*
X126584Y78283D01*
X125937Y78154D01*
X125314Y77737D01*
X124897Y77114D01*
X124773Y76492D01*
X119079D01*
Y71736D01*
X124451D01*
X124768Y71350D01*
X124750Y71260D01*
X124791Y71055D01*
X124474Y70669D01*
X123333D01*
X122943Y70591D01*
X122613Y70370D01*
X117783Y65541D01*
X117562Y65210D01*
X117484Y64820D01*
Y53150D01*
X117499Y53076D01*
X117470Y53033D01*
X117124Y52848D01*
X117038Y52829D01*
X115015Y54852D01*
Y68165D01*
X114861Y68939D01*
X114423Y69595D01*
X105816Y78202D01*
X105160Y78641D01*
X104385Y78795D01*
X104347D01*
Y80134D01*
X98803D01*
Y74787D01*
X101917D01*
X102112Y74748D01*
X103404D01*
X103573Y74532D01*
X103328Y74032D01*
X98803D01*
Y68685D01*
X100045D01*
Y68150D01*
X98047D01*
Y72850D01*
X92732D01*
Y73606D01*
X98047D01*
Y78953D01*
X97685D01*
X97407Y79369D01*
X97457Y79487D01*
Y80355D01*
X97125Y81157D01*
X96511Y81770D01*
X95709Y82102D01*
X94842D01*
X94040Y81770D01*
X93427Y81157D01*
X93094Y80355D01*
Y79550D01*
X92949Y79329D01*
X92748Y79111D01*
X92430Y79127D01*
X92323Y79378D01*
Y79823D01*
X90256D01*
Y79159D01*
X89272D01*
Y79823D01*
X87205Y79823D01*
X87078Y80271D01*
Y86221D01*
X87001Y86611D01*
X86780Y86941D01*
X86449Y87163D01*
X86059Y87240D01*
X53150D01*
X52759Y87163D01*
X52429Y86941D01*
X52208Y86611D01*
X52130Y86221D01*
Y73032D01*
Y62598D01*
X52150Y62500D01*
Y61992D01*
X52352D01*
X52429Y61878D01*
X52759Y61656D01*
X53150Y61579D01*
X58661D01*
X59052Y61656D01*
X59382Y61878D01*
X59459Y61992D01*
X59661D01*
Y62500D01*
X59681Y62598D01*
Y72590D01*
X59947Y72697D01*
X60394Y72352D01*
Y69272D01*
X64075D01*
Y69936D01*
X65059D01*
Y69272D01*
X72342D01*
Y69936D01*
X73327D01*
Y69272D01*
X77008D01*
Y70177D01*
X79035D01*
Y70841D01*
X80020D01*
Y70177D01*
X82051D01*
X82051Y61024D01*
X82129Y60633D01*
X82350Y60303D01*
X82681Y60082D01*
X82858Y60046D01*
Y59925D01*
X94307D01*
Y63947D01*
X95021D01*
Y62803D01*
X100499D01*
X100565Y62803D01*
X100565Y62803D01*
X100969Y62878D01*
Y62878D01*
X106905D01*
Y67634D01*
X103104D01*
Y68685D01*
X104347D01*
Y73296D01*
X104808Y73488D01*
X110969Y67327D01*
Y54014D01*
X111123Y53240D01*
X111562Y52584D01*
X117091Y47055D01*
Y37824D01*
X111389Y32122D01*
X96756D01*
X96276Y32169D01*
Y33018D01*
X101272D01*
X101857Y33134D01*
X102353Y33466D01*
X105412Y36525D01*
X105744Y37021D01*
X105860Y37606D01*
Y56776D01*
X106905D01*
Y61532D01*
X100969D01*
Y56776D01*
X102801D01*
Y38239D01*
X101818Y37256D01*
X101378Y37523D01*
X101378Y37851D01*
Y39272D01*
X100714D01*
Y40256D01*
X101378D01*
Y42126D01*
X99606D01*
Y41462D01*
X98622D01*
Y42126D01*
X96850D01*
Y40256D01*
X97514D01*
Y39272D01*
X96850D01*
Y37402D01*
X98622D01*
Y38066D01*
X99606D01*
Y37402D01*
X100895D01*
X101256Y37402D01*
X101524Y36962D01*
X100638Y36077D01*
X96276D01*
Y36925D01*
X96157D01*
X95685Y36992D01*
Y42535D01*
X93955D01*
X93898Y43012D01*
X93898D01*
Y45965D01*
X93234D01*
Y46949D01*
X93898D01*
Y49902D01*
X92913D01*
Y49237D01*
X91929D01*
Y49902D01*
X91748D01*
Y50311D01*
X86453D01*
Y52362D01*
X86375Y52752D01*
X86154Y53083D01*
X85823Y53304D01*
X85433Y53382D01*
X78626D01*
Y53386D01*
X70012D01*
Y53369D01*
X69688Y53304D01*
X69358Y53083D01*
X61389Y45114D01*
X47638D01*
X47248Y45037D01*
X47040Y44898D01*
X47032D01*
Y44892D01*
X46917Y44815D01*
X46696Y44485D01*
X46618Y44094D01*
Y32283D01*
X46696Y31893D01*
X46917Y31563D01*
X47248Y31341D01*
X47638Y31264D01*
X51610D01*
X51801Y30802D01*
X46917Y25918D01*
X46696Y25587D01*
X46618Y25197D01*
Y1020D01*
X1020D01*
X1020Y203150D01*
X381563D01*
Y15971D01*
D02*
G37*
G36*
X86059Y70129D02*
X85890Y69877D01*
X85774Y69291D01*
Y67634D01*
X85417D01*
Y61024D01*
X83071D01*
X83071Y71653D01*
X82496Y72228D01*
Y74524D01*
X77417D01*
Y75626D01*
X59984D01*
Y74016D01*
X58661D01*
Y62598D01*
X53150D01*
Y73032D01*
Y86221D01*
X86059D01*
Y70129D01*
D02*
G37*
G36*
X200787Y59355D02*
X200287Y59204D01*
X200271Y59228D01*
X199874Y59493D01*
X199406Y59587D01*
X195870D01*
X195402Y59493D01*
X195004Y59228D01*
X194889Y59055D01*
X190157D01*
Y78740D01*
X200787D01*
Y59355D01*
D02*
G37*
G36*
X151181Y66535D02*
Y64010D01*
X158268D01*
Y57480D01*
X146850D01*
X142520Y61811D01*
Y69253D01*
X148463D01*
X151181Y66535D01*
D02*
G37*
G36*
X125937Y69483D02*
X126673Y69337D01*
X131595D01*
X131996Y69417D01*
X132496Y69039D01*
Y67067D01*
X126502D01*
Y59750D01*
X128378Y57874D01*
X132890D01*
Y53756D01*
X132283Y53150D01*
X118504D01*
Y64820D01*
X123333Y69649D01*
X125689D01*
X125937Y69483D01*
D02*
G37*
G36*
X201969Y45192D02*
X201591Y44898D01*
X196047D01*
Y44882D01*
X195095D01*
Y44990D01*
X189157D01*
Y44882D01*
X179134D01*
Y54724D01*
X179134Y54724D01*
X201969D01*
Y45192D01*
D02*
G37*
G36*
X85433Y50311D02*
X85417D01*
Y42732D01*
X84925D01*
Y36795D01*
X85417D01*
Y32283D01*
X47638D01*
Y44094D01*
X61811D01*
X70079Y52362D01*
X85433D01*
Y50311D01*
D02*
G37*
G36*
X122835Y42520D02*
Y37402D01*
Y17323D01*
X63386D01*
Y1020D01*
X47638D01*
Y25197D01*
X53543Y31102D01*
X111811Y31102D01*
X118110Y37402D01*
Y49606D01*
X118504Y50213D01*
X122835D01*
Y42520D01*
D02*
G37*
G36*
X168886Y54724D02*
X177953Y54724D01*
Y28346D01*
X162406D01*
Y66470D01*
X168886D01*
Y54724D01*
D02*
G37*
%LPC*%
G36*
X338492Y200915D02*
X337565Y200793D01*
X336702Y200435D01*
X335960Y199866D01*
X335391Y199125D01*
X335033Y198261D01*
X334995Y197971D01*
X334491D01*
X334453Y198261D01*
X334095Y199125D01*
X333526Y199866D01*
X332784Y200435D01*
X331921Y200793D01*
X330994Y200915D01*
X330067Y200793D01*
X329204Y200435D01*
X328462Y199866D01*
X327893Y199125D01*
X327535Y198261D01*
X327496Y197964D01*
X326992D01*
X326953Y198261D01*
X326595Y199125D01*
X326509Y199236D01*
X325680Y198407D01*
X324566Y199520D01*
X325396Y200350D01*
X325284Y200435D01*
X324421Y200793D01*
X323494Y200915D01*
X322567Y200793D01*
X321704Y200435D01*
X321592Y200350D01*
X322422Y199520D01*
X321308Y198407D01*
X320479Y199236D01*
X320393Y199125D01*
X320035Y198261D01*
X319997Y197971D01*
X319493D01*
X319455Y198261D01*
X319097Y199125D01*
X318528Y199866D01*
X317786Y200435D01*
X316923Y200793D01*
X315996Y200915D01*
X315069Y200793D01*
X314206Y200435D01*
X313464Y199866D01*
X312895Y199125D01*
X312537Y198261D01*
X312415Y197335D01*
Y193335D01*
X312537Y192408D01*
X312895Y191544D01*
X313464Y190803D01*
X314140Y190284D01*
Y187083D01*
X313201D01*
Y181539D01*
X313201D01*
Y181177D01*
X313201D01*
Y175634D01*
X313201D01*
Y175272D01*
X313201D01*
Y169728D01*
X313828D01*
X314016Y169228D01*
X313831Y168784D01*
Y167917D01*
X314163Y167115D01*
X314777Y166501D01*
X315579Y166169D01*
X316446D01*
X317248Y166501D01*
X317862Y167115D01*
X318194Y167917D01*
Y168784D01*
X318002Y169247D01*
X317957Y169728D01*
X317957Y169728D01*
X317957Y169728D01*
Y175272D01*
X317957D01*
Y175634D01*
X317957D01*
Y179214D01*
X317992Y179390D01*
X317992Y179390D01*
Y185679D01*
X317992Y185679D01*
X317957Y185855D01*
Y187083D01*
X317785D01*
Y190233D01*
X317786Y190234D01*
X318528Y190803D01*
X319097Y191544D01*
X319455Y192408D01*
X319493Y192698D01*
X319997D01*
X320035Y192408D01*
X320393Y191544D01*
X320479Y191433D01*
X321308Y192262D01*
X322422Y191149D01*
X321592Y190319D01*
X321704Y190234D01*
X322567Y189876D01*
X323494Y189754D01*
X324421Y189876D01*
X325284Y190234D01*
X325396Y190319D01*
X324566Y191149D01*
X325680Y192262D01*
X326509Y191433D01*
X326595Y191544D01*
X326953Y192408D01*
X326992Y192706D01*
X327496D01*
X327535Y192408D01*
X327893Y191544D01*
X328462Y190803D01*
X328819Y190529D01*
Y186612D01*
X328642Y186434D01*
X328310Y185633D01*
Y184765D01*
X328642Y183964D01*
X328668Y183937D01*
Y180091D01*
X319028D01*
Y171004D01*
X333861D01*
X334068Y170504D01*
X325485Y161921D01*
X324437D01*
X324437Y161921D01*
X324261Y161886D01*
X321075D01*
Y157130D01*
X326618D01*
Y158351D01*
X326938Y158415D01*
X327529Y158810D01*
X332717Y163998D01*
X333141Y163715D01*
X332858Y163032D01*
Y162165D01*
X332672Y161886D01*
X332098D01*
Y157130D01*
X337642D01*
Y161886D01*
X337407D01*
X337221Y162165D01*
Y163032D01*
X336888Y163834D01*
X336275Y164447D01*
X335473Y164779D01*
X334606D01*
X333923Y164497D01*
X333640Y164921D01*
X338791Y170072D01*
X338791Y170072D01*
X339187Y170664D01*
X339325Y171361D01*
X339812Y171441D01*
X351000D01*
Y180527D01*
X340405D01*
Y181087D01*
X340961D01*
Y186630D01*
X340315D01*
Y190258D01*
X341024Y190803D01*
X341593Y191544D01*
X341951Y192408D01*
X342073Y193335D01*
Y197335D01*
X341951Y198261D01*
X341593Y199125D01*
X341024Y199866D01*
X340282Y200435D01*
X339419Y200793D01*
X338492Y200915D01*
D02*
G37*
G36*
X252075D02*
X251148Y200793D01*
X250285Y200435D01*
X249543Y199866D01*
X248974Y199125D01*
X248616Y198261D01*
X248578Y197971D01*
X248074D01*
X248035Y198261D01*
X247678Y199125D01*
X247109Y199866D01*
X246367Y200435D01*
X245503Y200793D01*
X244577Y200915D01*
X243650Y200793D01*
X242786Y200435D01*
X242045Y199866D01*
X241476Y199125D01*
X241118Y198261D01*
X241079Y197964D01*
X240575D01*
X240535Y198261D01*
X240178Y199125D01*
X240092Y199236D01*
X239262Y198407D01*
X238149Y199520D01*
X238979Y200350D01*
X238867Y200435D01*
X238003Y200793D01*
X237077Y200915D01*
X236150Y200793D01*
X235286Y200435D01*
X235175Y200350D01*
X236005Y199520D01*
X234891Y198407D01*
X234061Y199236D01*
X233976Y199125D01*
X233618Y198261D01*
X233580Y197971D01*
X233076D01*
X233037Y198261D01*
X232680Y199125D01*
X232111Y199866D01*
X231369Y200435D01*
X230505Y200793D01*
X229579Y200915D01*
X228652Y200793D01*
X227788Y200435D01*
X227047Y199866D01*
X226478Y199125D01*
X226120Y198261D01*
X225998Y197335D01*
Y193335D01*
X226120Y192408D01*
X226478Y191544D01*
X227047Y190803D01*
X227723Y190284D01*
Y187083D01*
X226783D01*
Y181539D01*
X226783D01*
Y181177D01*
X226783D01*
Y175634D01*
X226783D01*
Y175272D01*
X226783D01*
Y169728D01*
X227264D01*
X227598Y169228D01*
X227414Y168784D01*
Y167917D01*
X227746Y167115D01*
X228360Y166501D01*
X229161Y166169D01*
X230029D01*
X230831Y166501D01*
X231444Y167115D01*
X231776Y167917D01*
Y168784D01*
X231585Y169247D01*
X231539Y169728D01*
X231539Y169728D01*
Y175272D01*
X231539D01*
Y175634D01*
X231539D01*
Y179214D01*
X231574Y179390D01*
X231574Y179390D01*
Y185679D01*
X231574Y185679D01*
X231539Y185855D01*
Y187083D01*
X231368D01*
Y190233D01*
X231369Y190234D01*
X232111Y190803D01*
X232680Y191544D01*
X233037Y192408D01*
X233076Y192698D01*
X233580D01*
X233618Y192408D01*
X233976Y191544D01*
X234061Y191433D01*
X234891Y192262D01*
X236005Y191149D01*
X235175Y190319D01*
X235286Y190234D01*
X236150Y189876D01*
X237077Y189754D01*
X238003Y189876D01*
X238867Y190234D01*
X238979Y190319D01*
X238149Y191149D01*
X239262Y192262D01*
X240092Y191433D01*
X240178Y191544D01*
X240535Y192408D01*
X240575Y192706D01*
X241079D01*
X241118Y192408D01*
X241476Y191544D01*
X242045Y190803D01*
X242402Y190529D01*
Y186612D01*
X242224Y186434D01*
X241892Y185633D01*
Y184765D01*
X242224Y183964D01*
X242251Y183937D01*
Y180091D01*
X232610D01*
Y171004D01*
X247444D01*
X247651Y170504D01*
X239068Y161921D01*
X238020D01*
X238020Y161921D01*
X237843Y161886D01*
X234658D01*
Y157130D01*
X240201D01*
Y158351D01*
X240520Y158415D01*
X241111Y158810D01*
X246300Y163998D01*
X246724Y163715D01*
X246441Y163032D01*
Y162165D01*
X246255Y161886D01*
X245681D01*
Y157130D01*
X251224D01*
Y161886D01*
X250989D01*
X250803Y162165D01*
Y163032D01*
X250471Y163834D01*
X249857Y164447D01*
X249056Y164779D01*
X248188D01*
X247506Y164497D01*
X247222Y164921D01*
X252374Y170072D01*
X252374Y170072D01*
X252769Y170664D01*
X252908Y171361D01*
X253395Y171441D01*
X264583D01*
Y180527D01*
X253988D01*
Y181087D01*
X254543D01*
Y186630D01*
X253897D01*
Y190258D01*
X254607Y190803D01*
X255176Y191544D01*
X255533Y192408D01*
X255655Y193335D01*
Y197335D01*
X255533Y198261D01*
X255176Y199125D01*
X254607Y199866D01*
X253865Y200435D01*
X253001Y200793D01*
X252075Y200915D01*
D02*
G37*
G36*
X158008Y200829D02*
X157081Y200707D01*
X156218Y200349D01*
X155476Y199780D01*
X154907Y199038D01*
X154549Y198175D01*
X154511Y197884D01*
X154007D01*
X153968Y198175D01*
X153611Y199038D01*
X153042Y199780D01*
X152300Y200349D01*
X151437Y200707D01*
X150510Y200829D01*
X149583Y200707D01*
X148720Y200349D01*
X147978Y199780D01*
X147409Y199038D01*
X147051Y198175D01*
X147012Y197877D01*
X146508D01*
X146468Y198175D01*
X146111Y199038D01*
X146025Y199150D01*
X145195Y198320D01*
X144082Y199434D01*
X144912Y200263D01*
X144800Y200349D01*
X143937Y200707D01*
X143010Y200829D01*
X142083Y200707D01*
X141219Y200349D01*
X141108Y200263D01*
X141938Y199434D01*
X140824Y198320D01*
X139994Y199150D01*
X139909Y199038D01*
X139551Y198175D01*
X139513Y197884D01*
X139009D01*
X138970Y198175D01*
X138613Y199038D01*
X138044Y199780D01*
X137302Y200349D01*
X136439Y200707D01*
X135512Y200829D01*
X134585Y200707D01*
X133721Y200349D01*
X132980Y199780D01*
X132411Y199038D01*
X132053Y198175D01*
X131931Y197248D01*
Y193248D01*
X132053Y192321D01*
X132411Y191458D01*
X132980Y190716D01*
X133656Y190197D01*
Y186996D01*
X132717D01*
Y181453D01*
X132717D01*
Y181090D01*
X132717D01*
Y175547D01*
X132717D01*
Y175185D01*
X132717D01*
Y169642D01*
X133344D01*
X133531Y169142D01*
X133347Y168698D01*
Y167830D01*
X133679Y167028D01*
X134293Y166415D01*
X135094Y166083D01*
X135962D01*
X136764Y166415D01*
X137377Y167028D01*
X137709Y167830D01*
Y168698D01*
X137518Y169160D01*
X137472Y169642D01*
X137472Y169642D01*
X137472Y169642D01*
Y175185D01*
X137472D01*
Y175547D01*
X137472D01*
Y179127D01*
X137507Y179303D01*
X137507Y179303D01*
Y185592D01*
X137507Y185592D01*
X137472Y185769D01*
Y186996D01*
X137301D01*
Y190147D01*
X137302Y190147D01*
X138044Y190716D01*
X138613Y191458D01*
X138970Y192321D01*
X139009Y192612D01*
X139513D01*
X139551Y192321D01*
X139909Y191458D01*
X139994Y191346D01*
X140824Y192176D01*
X141938Y191062D01*
X141108Y190233D01*
X141219Y190147D01*
X142083Y189789D01*
X143010Y189667D01*
X143937Y189789D01*
X144800Y190147D01*
X144912Y190233D01*
X144082Y191062D01*
X145195Y192176D01*
X146025Y191346D01*
X146111Y191458D01*
X146468Y192321D01*
X146508Y192619D01*
X147012D01*
X147051Y192321D01*
X147409Y191458D01*
X147978Y190716D01*
X148335Y190442D01*
Y186525D01*
X148158Y186348D01*
X147825Y185546D01*
Y184678D01*
X148158Y183877D01*
X148184Y183850D01*
Y180004D01*
X138543D01*
Y170917D01*
X153377D01*
X153584Y170417D01*
X145001Y161834D01*
X143953D01*
X143953Y161834D01*
X143777Y161799D01*
X140591D01*
Y157043D01*
X146134D01*
Y158265D01*
X146453Y158328D01*
X147045Y158723D01*
X152233Y163911D01*
X152657Y163628D01*
X152374Y162946D01*
Y162078D01*
X152188Y161799D01*
X151614D01*
Y157043D01*
X157158D01*
Y161799D01*
X156922D01*
X156736Y162078D01*
Y162946D01*
X156404Y163747D01*
X155791Y164361D01*
X154989Y164693D01*
X154121D01*
X153439Y164410D01*
X153155Y164834D01*
X158307Y169986D01*
X158307Y169986D01*
X158702Y170577D01*
X158841Y171274D01*
X159328Y171354D01*
X170516D01*
Y180441D01*
X159830D01*
Y181000D01*
X160476D01*
Y186543D01*
X159830D01*
Y190172D01*
X160540Y190716D01*
X161109Y191458D01*
X161467Y192321D01*
X161589Y193248D01*
Y197248D01*
X161467Y198175D01*
X161109Y199038D01*
X160540Y199780D01*
X159798Y200349D01*
X158935Y200707D01*
X158008Y200829D01*
D02*
G37*
G36*
X70551Y200463D02*
X69624Y200341D01*
X68761Y199983D01*
X68019Y199414D01*
X67450Y198672D01*
X67093Y197809D01*
X67054Y197518D01*
X66550D01*
X66512Y197809D01*
X66154Y198672D01*
X65585Y199414D01*
X64843Y199983D01*
X63980Y200341D01*
X63053Y200463D01*
X62126Y200341D01*
X61263Y199983D01*
X60521Y199414D01*
X59952Y198672D01*
X59595Y197809D01*
X59555Y197511D01*
X59051D01*
X59012Y197809D01*
X58654Y198672D01*
X58569Y198784D01*
X57739Y197954D01*
X56625Y199068D01*
X57455Y199897D01*
X57343Y199983D01*
X56480Y200341D01*
X55553Y200463D01*
X54626Y200341D01*
X53763Y199983D01*
X53651Y199897D01*
X54481Y199068D01*
X53367Y197954D01*
X52538Y198784D01*
X52452Y198672D01*
X52095Y197809D01*
X52056Y197518D01*
X51552D01*
X51514Y197809D01*
X51156Y198672D01*
X50587Y199414D01*
X49845Y199983D01*
X48982Y200341D01*
X48055Y200463D01*
X47128Y200341D01*
X46265Y199983D01*
X45523Y199414D01*
X44954Y198672D01*
X44596Y197809D01*
X44475Y196882D01*
Y192882D01*
X44596Y191955D01*
X44954Y191092D01*
X45523Y190350D01*
X46199Y189831D01*
Y186630D01*
X45260D01*
Y181087D01*
X45260D01*
Y180724D01*
X45260D01*
Y175181D01*
X45260D01*
Y174819D01*
X45260D01*
Y169276D01*
X45815D01*
Y168545D01*
X45815Y168545D01*
X45891Y168167D01*
Y167464D01*
X46223Y166662D01*
X46836Y166049D01*
X47638Y165717D01*
X48505D01*
X49307Y166049D01*
X49921Y166662D01*
X50253Y167464D01*
Y168332D01*
X50061Y168794D01*
X50016Y169276D01*
X50016Y169276D01*
X50016Y169276D01*
Y174819D01*
X50016D01*
Y175181D01*
X50016D01*
Y178761D01*
X50051Y178937D01*
X50051Y178937D01*
Y185226D01*
X50051Y185226D01*
X50016Y185403D01*
Y186630D01*
X49844D01*
Y189780D01*
X49845Y189781D01*
X50587Y190350D01*
X51156Y191092D01*
X51514Y191955D01*
X51552Y192246D01*
X52056D01*
X52095Y191955D01*
X52452Y191092D01*
X52538Y190980D01*
X53367Y191810D01*
X54481Y190696D01*
X53651Y189866D01*
X53763Y189781D01*
X54626Y189423D01*
X55553Y189301D01*
X56480Y189423D01*
X57343Y189781D01*
X57455Y189866D01*
X56625Y190696D01*
X57739Y191810D01*
X58569Y190980D01*
X58654Y191092D01*
X59012Y191955D01*
X59051Y192253D01*
X59555D01*
X59595Y191955D01*
X59952Y191092D01*
X60521Y190350D01*
X60878Y190076D01*
Y186159D01*
X60701Y185982D01*
X60369Y185180D01*
Y184312D01*
X60701Y183511D01*
X60727Y183484D01*
Y179638D01*
X51087D01*
Y170551D01*
X65920D01*
X66127Y170051D01*
X57544Y161468D01*
X56496D01*
X56496Y161468D01*
X56320Y161433D01*
X53134D01*
Y156677D01*
X58677D01*
Y157898D01*
X58997Y157962D01*
X59588Y158357D01*
X64776Y163545D01*
X65200Y163262D01*
X64917Y162580D01*
Y161712D01*
X64731Y161433D01*
X64157D01*
Y156677D01*
X69701D01*
Y161433D01*
X69466D01*
X69279Y161712D01*
Y162580D01*
X68947Y163381D01*
X68334Y163995D01*
X67532Y164327D01*
X66665D01*
X65982Y164044D01*
X65699Y164468D01*
X70851Y169620D01*
X70851Y169620D01*
X71246Y170211D01*
X71384Y170908D01*
X71871Y170988D01*
X83059D01*
Y180075D01*
X72374D01*
Y180634D01*
X73020D01*
Y186177D01*
X72374D01*
Y189806D01*
X73083Y190350D01*
X73652Y191092D01*
X74010Y191955D01*
X74132Y192882D01*
Y196882D01*
X74010Y197809D01*
X73652Y198672D01*
X73083Y199414D01*
X72342Y199983D01*
X71478Y200341D01*
X70551Y200463D01*
D02*
G37*
G36*
X312035Y186673D02*
X310559D01*
Y186009D01*
X309575D01*
Y186673D01*
X308098D01*
Y184803D01*
X308762D01*
Y183819D01*
X308098D01*
Y181949D01*
X309575D01*
Y182613D01*
X310559D01*
Y181949D01*
X312035D01*
Y183819D01*
X311371D01*
Y184803D01*
X312035D01*
Y186673D01*
D02*
G37*
G36*
X225618D02*
X224142D01*
Y186009D01*
X223158D01*
Y186673D01*
X221681D01*
Y184803D01*
X222345D01*
Y183819D01*
X221681D01*
Y181949D01*
X223158D01*
Y182613D01*
X224142D01*
Y181949D01*
X225618D01*
Y183819D01*
X224954D01*
Y184803D01*
X225618D01*
Y186673D01*
D02*
G37*
G36*
X131551Y186587D02*
X130075D01*
Y185923D01*
X129091D01*
Y186587D01*
X127614D01*
Y184716D01*
X128278D01*
Y183732D01*
X127614D01*
Y181862D01*
X129091D01*
Y182526D01*
X130075D01*
Y181862D01*
X131551D01*
Y183732D01*
X130887D01*
Y184716D01*
X131551D01*
Y186587D01*
D02*
G37*
G36*
X346063Y186221D02*
X344587D01*
Y185556D01*
X343602D01*
Y186221D01*
X342126D01*
Y184350D01*
X342790D01*
Y183366D01*
X342126D01*
Y181496D01*
X343602D01*
Y182160D01*
X344587D01*
Y181496D01*
X346063D01*
Y183366D01*
X345399D01*
Y184350D01*
X346063D01*
Y186221D01*
D02*
G37*
G36*
X259646D02*
X258169D01*
Y185556D01*
X257185D01*
Y186221D01*
X255709D01*
Y184350D01*
X256373D01*
Y183366D01*
X255709D01*
Y181496D01*
X257185D01*
Y182160D01*
X258169D01*
Y181496D01*
X259646D01*
Y183366D01*
X258982D01*
Y184350D01*
X259646D01*
Y186221D01*
D02*
G37*
G36*
X44094Y186221D02*
X42618D01*
Y185556D01*
X41634D01*
Y186221D01*
X40157D01*
Y184350D01*
X40821D01*
Y183366D01*
X40157D01*
Y181496D01*
X41634D01*
Y182160D01*
X42618D01*
Y181496D01*
X44094D01*
Y183366D01*
X43431D01*
Y184350D01*
X44094D01*
Y186221D01*
D02*
G37*
G36*
X165579Y186134D02*
X164102D01*
Y185470D01*
X163118D01*
Y186134D01*
X161642D01*
Y184264D01*
X162306D01*
Y183280D01*
X161642D01*
Y181410D01*
X163118D01*
Y182073D01*
X164102D01*
Y181410D01*
X165579D01*
Y183280D01*
X164915D01*
Y184264D01*
X165579D01*
Y186134D01*
D02*
G37*
G36*
X78122Y185768D02*
X76646D01*
Y185104D01*
X75661D01*
Y185768D01*
X74185D01*
Y183898D01*
X74849D01*
Y182913D01*
X74185D01*
Y181043D01*
X75661D01*
Y181707D01*
X76646D01*
Y181043D01*
X78122D01*
Y182913D01*
X77458D01*
Y183898D01*
X78122D01*
Y185768D01*
D02*
G37*
G36*
X312035Y180768D02*
X310559D01*
Y180104D01*
X309575D01*
Y180768D01*
X308098D01*
Y178898D01*
X308762D01*
Y177913D01*
X308098D01*
Y176043D01*
X309575D01*
Y176707D01*
X310559D01*
Y176043D01*
X312035D01*
Y177913D01*
X311371D01*
Y178898D01*
X312035D01*
Y180768D01*
D02*
G37*
G36*
X225618D02*
X224142D01*
Y180104D01*
X223158D01*
Y180768D01*
X221681D01*
Y178898D01*
X222345D01*
Y177913D01*
X221681D01*
Y176043D01*
X223158D01*
Y176707D01*
X224142D01*
Y176043D01*
X225618D01*
Y177913D01*
X224954D01*
Y178898D01*
X225618D01*
Y180768D01*
D02*
G37*
G36*
X131551Y180681D02*
X130075D01*
Y180017D01*
X129091D01*
Y180681D01*
X127614D01*
Y178811D01*
X128278D01*
Y177827D01*
X127614D01*
Y175957D01*
X129091D01*
Y176621D01*
X130075D01*
Y175957D01*
X131551D01*
Y177827D01*
X130887D01*
Y178811D01*
X131551D01*
Y180681D01*
D02*
G37*
G36*
X44094Y180315D02*
X42618D01*
Y179651D01*
X41634D01*
Y180315D01*
X40157D01*
Y178445D01*
X40821D01*
Y177461D01*
X40157D01*
Y175591D01*
X41634D01*
Y176254D01*
X42618D01*
Y175591D01*
X44094D01*
Y177461D01*
X43431D01*
Y178445D01*
X44094D01*
Y180315D01*
D02*
G37*
G36*
X312035Y174862D02*
X310559D01*
Y174198D01*
X309575D01*
Y174862D01*
X308098D01*
Y172992D01*
X308762D01*
Y172008D01*
X308098D01*
Y170138D01*
X309575D01*
Y170802D01*
X310559D01*
Y170138D01*
X312035D01*
Y172008D01*
X311371D01*
Y172992D01*
X312035D01*
Y174862D01*
D02*
G37*
G36*
X225618D02*
X224142D01*
Y174198D01*
X223158D01*
Y174862D01*
X221681D01*
Y172992D01*
X222345D01*
Y172008D01*
X221681D01*
Y170138D01*
X223158D01*
Y170802D01*
X224142D01*
Y170138D01*
X225618D01*
Y172008D01*
X224954D01*
Y172992D01*
X225618D01*
Y174862D01*
D02*
G37*
G36*
X131551Y174776D02*
X130075D01*
Y174112D01*
X129091D01*
Y174776D01*
X127614D01*
Y172906D01*
X128278D01*
Y171921D01*
X127614D01*
Y170051D01*
X129091D01*
Y170715D01*
X130075D01*
Y170051D01*
X131551D01*
Y171921D01*
X130887D01*
Y172906D01*
X131551D01*
Y174776D01*
D02*
G37*
G36*
X44094Y174409D02*
X42618D01*
Y173746D01*
X41634D01*
Y174409D01*
X40157D01*
Y172539D01*
X40821D01*
Y171555D01*
X40157D01*
Y169685D01*
X41634D01*
Y170349D01*
X42618D01*
Y169685D01*
X44094D01*
Y171555D01*
X43431D01*
Y172539D01*
X44094D01*
Y174409D01*
D02*
G37*
G36*
X337642Y156374D02*
X332098D01*
Y151618D01*
X333899D01*
X334182Y151195D01*
X337023Y148354D01*
X336932Y147737D01*
X336442Y147410D01*
X335933Y146647D01*
X335754Y145748D01*
X335933Y144849D01*
X336442Y144086D01*
X337205Y143577D01*
X337576Y143503D01*
Y142993D01*
X337205Y142919D01*
X336442Y142410D01*
X336285Y142175D01*
X331490D01*
X331028Y142366D01*
X330161D01*
X329359Y142034D01*
X328745Y141421D01*
X328413Y140619D01*
Y140581D01*
X325174Y137342D01*
X318382D01*
X318337Y137410D01*
X317575Y137919D01*
X317204Y137993D01*
Y138503D01*
X317575Y138577D01*
X317970Y138841D01*
X320193D01*
X320304Y138730D01*
X321106Y138398D01*
X321973D01*
X322775Y138730D01*
X323388Y139343D01*
X323721Y140145D01*
Y141013D01*
X323388Y141814D01*
X322775Y142428D01*
X321973Y142760D01*
X321106D01*
X320444Y142486D01*
X318224D01*
X317575Y142919D01*
X317457Y142943D01*
X317506Y143443D01*
X318980D01*
Y145099D01*
X319186Y145140D01*
X319682Y145472D01*
X324833Y150622D01*
X325164Y151119D01*
X325263Y151618D01*
X326618D01*
Y156374D01*
X321075D01*
Y151618D01*
X321075D01*
X321200Y151316D01*
X317967Y148082D01*
X316384D01*
X316236Y148053D01*
X312177D01*
Y147049D01*
X301480D01*
X300895Y146933D01*
X300399Y146601D01*
X299522Y145724D01*
X299190Y145228D01*
X299074Y144643D01*
Y143154D01*
X298000D01*
Y138398D01*
X303543D01*
Y143154D01*
X302133D01*
Y143990D01*
X305541D01*
Y143154D01*
X304299D01*
Y138398D01*
X309842D01*
Y143154D01*
X308600D01*
Y143990D01*
X312177D01*
Y143443D01*
X313652D01*
X313701Y142943D01*
X313583Y142919D01*
X312820Y142410D01*
X312311Y141647D01*
X312132Y140748D01*
X312311Y139849D01*
X312820Y139086D01*
X313583Y138577D01*
X313953Y138503D01*
Y137993D01*
X313583Y137919D01*
X312820Y137410D01*
X312311Y136647D01*
X312132Y135748D01*
X312311Y134849D01*
X312820Y134086D01*
X313583Y133577D01*
X313953Y133503D01*
Y132993D01*
X313583Y132919D01*
X312820Y132410D01*
X312579Y132049D01*
X308600D01*
Y132886D01*
X309842D01*
Y137642D01*
X304299D01*
Y132886D01*
X305541D01*
Y132049D01*
X302301D01*
Y132886D01*
X303543D01*
Y137642D01*
X298000D01*
Y132886D01*
X299242D01*
Y131105D01*
X299359Y130520D01*
X299690Y130024D01*
X300276Y129438D01*
X300772Y129107D01*
X301357Y128990D01*
X305421D01*
X305791Y128677D01*
Y123134D01*
X310547D01*
Y123606D01*
X311047Y123940D01*
X311377Y123803D01*
X312245D01*
X312620Y123959D01*
X313120Y123625D01*
Y121303D01*
X311287D01*
Y115760D01*
X316043D01*
Y118902D01*
X316063Y118930D01*
X316179Y119516D01*
Y128398D01*
X316675D01*
X317575Y128577D01*
X318337Y129086D01*
X318847Y129849D01*
X319025Y130748D01*
X318847Y131647D01*
X318337Y132410D01*
X317575Y132919D01*
X317204Y132993D01*
Y133503D01*
X317575Y133577D01*
X317755Y133697D01*
X325929D01*
X325929Y133697D01*
X326626Y133836D01*
X327218Y134231D01*
X330991Y138004D01*
X331028D01*
X331830Y138336D01*
X332024Y138530D01*
X337439D01*
X338104Y138398D01*
X340297D01*
X341197Y138577D01*
X341959Y139086D01*
X342469Y139849D01*
X342648Y140748D01*
X342469Y141647D01*
X341959Y142410D01*
X341197Y142919D01*
X340826Y142993D01*
Y143503D01*
X341197Y143577D01*
X341816Y143990D01*
X346289D01*
Y143154D01*
X345047D01*
Y138398D01*
X350590D01*
Y143154D01*
X349348D01*
Y143990D01*
X352589D01*
Y143055D01*
X351346D01*
Y138299D01*
X356890D01*
Y143055D01*
X355647D01*
Y144934D01*
X355531Y145519D01*
X355200Y146015D01*
X354614Y146601D01*
X354118Y146933D01*
X353532Y147049D01*
X342200D01*
X341959Y147410D01*
X341197Y147919D01*
X340785Y148001D01*
Y148284D01*
X340669Y148869D01*
X340337Y149365D01*
X337642Y152061D01*
Y156374D01*
D02*
G37*
G36*
X251224D02*
X245681D01*
Y151618D01*
X247482D01*
X247765Y151195D01*
X250606Y148354D01*
X250515Y147737D01*
X250025Y147410D01*
X249516Y146647D01*
X249337Y145748D01*
X249516Y144849D01*
X250025Y144086D01*
X250788Y143577D01*
X251158Y143503D01*
Y142993D01*
X250788Y142919D01*
X250025Y142410D01*
X249868Y142175D01*
X245073D01*
X244611Y142366D01*
X243743D01*
X242942Y142034D01*
X242328Y141421D01*
X241996Y140619D01*
Y140581D01*
X238757Y137342D01*
X231965D01*
X231920Y137410D01*
X231157Y137919D01*
X230787Y137993D01*
Y138503D01*
X231157Y138577D01*
X231553Y138841D01*
X233775D01*
X233887Y138730D01*
X234688Y138398D01*
X235556D01*
X236357Y138730D01*
X236971Y139343D01*
X237303Y140145D01*
Y141013D01*
X236971Y141814D01*
X236357Y142428D01*
X235556Y142760D01*
X234688D01*
X234027Y142486D01*
X231806D01*
X231157Y142919D01*
X231039Y142943D01*
X231088Y143443D01*
X232563D01*
Y145099D01*
X232768Y145140D01*
X233264Y145472D01*
X238415Y150622D01*
X238747Y151119D01*
X238846Y151618D01*
X240201D01*
Y156374D01*
X234658D01*
Y151618D01*
X234658D01*
X234783Y151316D01*
X231550Y148082D01*
X229966D01*
X229819Y148053D01*
X225760D01*
Y147049D01*
X215063D01*
X214478Y146933D01*
X213982Y146601D01*
X213104Y145724D01*
X212773Y145228D01*
X212656Y144643D01*
Y143154D01*
X211583D01*
Y138398D01*
X217126D01*
Y143154D01*
X215715D01*
Y143990D01*
X219124D01*
Y143154D01*
X217882D01*
Y138398D01*
X223425D01*
Y143154D01*
X222183D01*
Y143990D01*
X225760D01*
Y143443D01*
X227235D01*
X227284Y142943D01*
X227166Y142919D01*
X226403Y142410D01*
X225894Y141647D01*
X225715Y140748D01*
X225894Y139849D01*
X226403Y139086D01*
X227166Y138577D01*
X227536Y138503D01*
Y137993D01*
X227166Y137919D01*
X226403Y137410D01*
X225894Y136647D01*
X225715Y135748D01*
X225894Y134849D01*
X226403Y134086D01*
X227166Y133577D01*
X227536Y133503D01*
Y132993D01*
X227166Y132919D01*
X226403Y132410D01*
X226162Y132049D01*
X222183D01*
Y132886D01*
X223425D01*
Y137642D01*
X217882D01*
Y132886D01*
X219124D01*
Y132049D01*
X215884D01*
Y132886D01*
X217126D01*
Y137642D01*
X211583D01*
Y132886D01*
X212825D01*
Y131105D01*
X212941Y130520D01*
X213273Y130024D01*
X213859Y129438D01*
X214355Y129107D01*
X214940Y128990D01*
X219004D01*
X219374Y128677D01*
X219374Y128490D01*
Y123134D01*
X219930D01*
Y122527D01*
X219663Y122260D01*
X218900D01*
X218145Y122057D01*
X217469Y121667D01*
X216916Y121114D01*
X216525Y120437D01*
X216323Y119682D01*
Y118901D01*
X216525Y118146D01*
X216916Y117469D01*
X217469Y116916D01*
X218145Y116525D01*
X218900Y116323D01*
X219682D01*
X220437Y116525D01*
X221114Y116916D01*
X221667Y117469D01*
X222058Y118146D01*
X222260Y118901D01*
Y119682D01*
X222256Y119698D01*
X223041Y120483D01*
X223041Y120483D01*
X223436Y121074D01*
X223574Y121772D01*
Y123134D01*
X224130D01*
Y123764D01*
X224804D01*
X225606Y124096D01*
X226203Y124693D01*
X226290Y124689D01*
X226703Y124571D01*
Y121303D01*
X224870D01*
Y115760D01*
X229626D01*
Y118902D01*
X229645Y118930D01*
X229762Y119516D01*
Y128398D01*
X230258D01*
X231157Y128577D01*
X231920Y129086D01*
X232429Y129849D01*
X232608Y130748D01*
X232429Y131647D01*
X231920Y132410D01*
X231157Y132919D01*
X230787Y132993D01*
Y133503D01*
X231157Y133577D01*
X231338Y133697D01*
X239512D01*
X239512Y133697D01*
X240209Y133836D01*
X240800Y134231D01*
X244573Y138004D01*
X244611D01*
X245413Y138336D01*
X245607Y138530D01*
X251022D01*
X251687Y138398D01*
X253880D01*
X254779Y138577D01*
X255542Y139086D01*
X256051Y139849D01*
X256230Y140748D01*
X256051Y141647D01*
X255542Y142410D01*
X254779Y142919D01*
X254409Y142993D01*
Y143503D01*
X254779Y143577D01*
X255398Y143990D01*
X259872D01*
Y143154D01*
X258630D01*
Y138398D01*
X264173D01*
Y143154D01*
X262931D01*
Y143990D01*
X266171D01*
Y143055D01*
X264929D01*
Y138299D01*
X270472D01*
Y143055D01*
X269230D01*
Y144934D01*
X269114Y145519D01*
X268782Y146015D01*
X268196Y146601D01*
X267700Y146933D01*
X267115Y147049D01*
X255783D01*
X255542Y147410D01*
X254779Y147919D01*
X254368Y148001D01*
Y148284D01*
X254252Y148869D01*
X253920Y149365D01*
X251224Y152061D01*
Y156374D01*
D02*
G37*
G36*
X157158Y156287D02*
X151614D01*
Y151532D01*
X153415D01*
X153698Y151108D01*
X156539Y148268D01*
X156448Y147651D01*
X155958Y147323D01*
X155449Y146561D01*
X155270Y145661D01*
X155449Y144762D01*
X155958Y144000D01*
X156721Y143490D01*
X157091Y143416D01*
Y142906D01*
X156721Y142833D01*
X155958Y142323D01*
X155801Y142088D01*
X151006D01*
X150544Y142280D01*
X149676D01*
X148875Y141947D01*
X148261Y141334D01*
X147929Y140532D01*
Y140495D01*
X144690Y137256D01*
X137898D01*
X137853Y137323D01*
X137090Y137833D01*
X136720Y137907D01*
Y138416D01*
X137090Y138490D01*
X137486Y138754D01*
X139708D01*
X139820Y138643D01*
X140621Y138311D01*
X141489D01*
X142291Y138643D01*
X142904Y139257D01*
X143236Y140058D01*
Y140926D01*
X142904Y141728D01*
X142291Y142341D01*
X141489Y142673D01*
X140621D01*
X139960Y142399D01*
X137739D01*
X137090Y142833D01*
X136972Y142856D01*
X137022Y143356D01*
X138496D01*
Y145013D01*
X138701Y145054D01*
X139198Y145385D01*
X144348Y150536D01*
X144680Y151032D01*
X144779Y151532D01*
X146134D01*
Y156287D01*
X140591D01*
Y151532D01*
X140591D01*
X140716Y151229D01*
X137483Y147996D01*
X135900D01*
X135752Y147967D01*
X131693D01*
Y146962D01*
X120996D01*
X120411Y146846D01*
X119915Y146514D01*
X119037Y145637D01*
X118706Y145141D01*
X118589Y144556D01*
Y143067D01*
X117516D01*
Y138311D01*
X123059D01*
Y143067D01*
X121648D01*
Y143904D01*
X125057D01*
Y143067D01*
X123815D01*
Y138311D01*
X129358D01*
Y143067D01*
X128116D01*
Y143904D01*
X131693D01*
Y143356D01*
X133168D01*
X133217Y142856D01*
X133099Y142833D01*
X132336Y142323D01*
X131827Y141561D01*
X131648Y140661D01*
X131827Y139762D01*
X132336Y138999D01*
X133099Y138490D01*
X133469Y138416D01*
Y137907D01*
X133099Y137833D01*
X132336Y137323D01*
X131827Y136561D01*
X131648Y135661D01*
X131827Y134762D01*
X132336Y134000D01*
X133099Y133490D01*
X133469Y133416D01*
Y132906D01*
X133099Y132833D01*
X132336Y132323D01*
X132095Y131963D01*
X128116D01*
Y132799D01*
X129358D01*
Y137555D01*
X123815D01*
Y132799D01*
X125057D01*
Y131963D01*
X121817D01*
Y132799D01*
X123059D01*
Y137555D01*
X117516D01*
Y132799D01*
X118758D01*
Y131019D01*
X118874Y130434D01*
X119206Y129937D01*
X119792Y129352D01*
X120288Y129020D01*
X120873Y128904D01*
X124937D01*
X125307Y128591D01*
X125307Y128404D01*
Y123047D01*
X128988D01*
X129507Y122832D01*
X130375D01*
X131176Y123164D01*
X131790Y123778D01*
X132122Y124580D01*
Y125447D01*
X131790Y126249D01*
X131176Y126863D01*
X130375Y127195D01*
X130063Y127506D01*
X130063Y128591D01*
X130433Y128904D01*
X132480D01*
X132636Y128799D01*
Y121217D01*
X130803D01*
Y115673D01*
X135559D01*
Y118815D01*
X135578Y118844D01*
X135695Y119429D01*
Y128311D01*
X136191D01*
X137090Y128490D01*
X137853Y128999D01*
X138362Y129762D01*
X138541Y130661D01*
X138362Y131561D01*
X137853Y132323D01*
X137090Y132833D01*
X136720Y132906D01*
Y133416D01*
X137090Y133490D01*
X137271Y133611D01*
X145445D01*
X145445Y133611D01*
X146142Y133749D01*
X146733Y134144D01*
X150506Y137917D01*
X150544D01*
X151346Y138249D01*
X151540Y138443D01*
X156955D01*
X157620Y138311D01*
X159813D01*
X160712Y138490D01*
X161475Y138999D01*
X161984Y139762D01*
X162163Y140661D01*
X161984Y141561D01*
X161475Y142323D01*
X160712Y142833D01*
X160342Y142906D01*
Y143416D01*
X160712Y143490D01*
X161331Y143904D01*
X165805D01*
Y143067D01*
X164563D01*
Y138311D01*
X170106D01*
Y143067D01*
X168864D01*
Y143904D01*
X172104D01*
Y142968D01*
X170862D01*
Y138213D01*
X176406D01*
Y142968D01*
X175163D01*
Y144847D01*
X175047Y145433D01*
X174715Y145929D01*
X174129Y146514D01*
X173633Y146846D01*
X173048Y146962D01*
X161716D01*
X161475Y147323D01*
X160712Y147833D01*
X160301Y147915D01*
Y148197D01*
X160185Y148783D01*
X159853Y149279D01*
X157158Y151974D01*
Y156287D01*
D02*
G37*
G36*
X69701Y155921D02*
X64157D01*
Y151165D01*
X65958D01*
X66241Y150742D01*
X69082Y147901D01*
X68992Y147285D01*
X68502Y146957D01*
X67992Y146195D01*
X67813Y145295D01*
X67992Y144396D01*
X68502Y143633D01*
X69264Y143124D01*
X69635Y143050D01*
Y142540D01*
X69264Y142467D01*
X68502Y141957D01*
X68344Y141722D01*
X63549D01*
X63087Y141913D01*
X62220D01*
X61418Y141581D01*
X60804Y140968D01*
X60472Y140166D01*
Y140129D01*
X57233Y136889D01*
X50441D01*
X50396Y136957D01*
X49634Y137467D01*
X49263Y137540D01*
Y138050D01*
X49634Y138124D01*
X50029Y138388D01*
X52252D01*
X52363Y138277D01*
X53165Y137945D01*
X54032D01*
X54834Y138277D01*
X55448Y138891D01*
X55779Y139692D01*
Y140560D01*
X55448Y141361D01*
X54834Y141975D01*
X54032Y142307D01*
X53165D01*
X52503Y142033D01*
X50283D01*
X49634Y142467D01*
X49516Y142490D01*
X49565Y142990D01*
X51039D01*
Y144647D01*
X51245Y144687D01*
X51741Y145019D01*
X56892Y150170D01*
X57223Y150666D01*
X57323Y151165D01*
X58677D01*
Y155921D01*
X53134D01*
Y151165D01*
X53134D01*
X53259Y150863D01*
X50026Y147630D01*
X48443D01*
X48295Y147600D01*
X44236D01*
Y146596D01*
X33539D01*
X32954Y146480D01*
X32458Y146148D01*
X31581Y145271D01*
X31249Y144775D01*
X31133Y144190D01*
Y142701D01*
X30059D01*
Y137945D01*
X35602D01*
Y142701D01*
X34192D01*
Y143538D01*
X37600D01*
Y142701D01*
X36358D01*
Y137945D01*
X41901D01*
Y142701D01*
X40659D01*
Y143538D01*
X44236D01*
Y142990D01*
X45711D01*
X45760Y142490D01*
X45642Y142467D01*
X44879Y141957D01*
X44370Y141195D01*
X44191Y140295D01*
X44370Y139396D01*
X44879Y138633D01*
X45642Y138124D01*
X46013Y138050D01*
Y137540D01*
X45642Y137467D01*
X44879Y136957D01*
X44370Y136195D01*
X44191Y135295D01*
X44370Y134396D01*
X44879Y133633D01*
X45642Y133124D01*
X46013Y133050D01*
Y132540D01*
X45642Y132467D01*
X44879Y131957D01*
X44638Y131596D01*
X40659D01*
Y132433D01*
X41901D01*
Y137189D01*
X36358D01*
Y132433D01*
X37600D01*
Y131596D01*
X34360D01*
Y132433D01*
X35602D01*
Y137189D01*
X30059D01*
Y132433D01*
X31301D01*
Y130653D01*
X31418Y130068D01*
X31749Y129571D01*
X32335Y128986D01*
X32831Y128654D01*
X33417Y128538D01*
X37480D01*
X37850Y128224D01*
X37850Y128038D01*
Y122681D01*
X42606D01*
Y123409D01*
X43347D01*
X44149Y123741D01*
X44679Y124272D01*
X45072Y124180D01*
X45179Y124119D01*
Y120851D01*
X43347D01*
Y115307D01*
X48102D01*
Y118449D01*
X48122Y118478D01*
X48238Y119063D01*
Y127945D01*
X48734D01*
X49634Y128124D01*
X50396Y128633D01*
X50906Y129396D01*
X51085Y130295D01*
X50906Y131195D01*
X50396Y131957D01*
X49634Y132467D01*
X49263Y132540D01*
Y133050D01*
X49634Y133124D01*
X49814Y133245D01*
X57988D01*
X57988Y133245D01*
X58686Y133383D01*
X59277Y133778D01*
X63050Y137551D01*
X63087D01*
X63889Y137883D01*
X64083Y138077D01*
X69499D01*
X70163Y137945D01*
X72356D01*
X73256Y138124D01*
X74018Y138633D01*
X74528Y139396D01*
X74707Y140295D01*
X74528Y141195D01*
X74018Y141957D01*
X73256Y142467D01*
X72885Y142540D01*
Y143050D01*
X73256Y143124D01*
X73875Y143538D01*
X78348D01*
Y142701D01*
X77106D01*
Y137945D01*
X82650D01*
Y142701D01*
X81407D01*
Y143538D01*
X84648D01*
Y142602D01*
X83406D01*
Y137847D01*
X88949D01*
Y142602D01*
X87707D01*
Y144481D01*
X87590Y145066D01*
X87259Y145563D01*
X86673Y146148D01*
X86177Y146480D01*
X85591Y146596D01*
X74259D01*
X74018Y146957D01*
X73256Y147467D01*
X72844Y147548D01*
Y147831D01*
X72728Y148416D01*
X72396Y148913D01*
X69701Y151608D01*
Y155921D01*
D02*
G37*
G36*
X340297Y137681D02*
X339693D01*
Y136980D01*
X338709D01*
Y137681D01*
X338104D01*
X337365Y137534D01*
X337155Y137393D01*
X337649Y136899D01*
X336953Y136203D01*
X336459Y136697D01*
X336319Y136488D01*
X336172Y135748D01*
X336319Y135008D01*
X336459Y134799D01*
X336953Y135293D01*
X337649Y134597D01*
X337155Y134102D01*
X337365Y133962D01*
X338104Y133815D01*
X338709D01*
Y134516D01*
X339693D01*
Y133815D01*
X340297D01*
X341037Y133962D01*
X341247Y134102D01*
X340752Y134597D01*
X341448Y135293D01*
X341943Y134799D01*
X342083Y135008D01*
X342230Y135748D01*
X342083Y136488D01*
X341943Y136697D01*
X341448Y136203D01*
X340752Y136899D01*
X341247Y137393D01*
X341037Y137534D01*
X340297Y137681D01*
D02*
G37*
G36*
X253880D02*
X253276D01*
Y136980D01*
X252291D01*
Y137681D01*
X251687D01*
X250947Y137534D01*
X250738Y137393D01*
X251232Y136899D01*
X250536Y136203D01*
X250042Y136697D01*
X249901Y136488D01*
X249754Y135748D01*
X249901Y135008D01*
X250042Y134799D01*
X250536Y135293D01*
X251232Y134597D01*
X250738Y134102D01*
X250947Y133962D01*
X251687Y133815D01*
X252291D01*
Y134516D01*
X253276D01*
Y133815D01*
X253880D01*
X254620Y133962D01*
X254829Y134102D01*
X254335Y134597D01*
X255031Y135293D01*
X255525Y134799D01*
X255666Y135008D01*
X255813Y135748D01*
X255666Y136488D01*
X255525Y136697D01*
X255031Y136203D01*
X254335Y136899D01*
X254829Y137393D01*
X254620Y137534D01*
X253880Y137681D01*
D02*
G37*
G36*
X159813Y137594D02*
X159209D01*
Y136893D01*
X158224D01*
Y137594D01*
X157620D01*
X156880Y137447D01*
X156671Y137307D01*
X157165Y136812D01*
X156469Y136116D01*
X155975Y136611D01*
X155834Y136401D01*
X155687Y135661D01*
X155834Y134922D01*
X155975Y134712D01*
X156469Y135206D01*
X157165Y134511D01*
X156671Y134016D01*
X156880Y133876D01*
X157620Y133729D01*
X158224D01*
Y134430D01*
X159209D01*
Y133729D01*
X159813D01*
X160553Y133876D01*
X160763Y134016D01*
X160268Y134511D01*
X160964Y135206D01*
X161458Y134712D01*
X161599Y134922D01*
X161746Y135661D01*
X161599Y136401D01*
X161458Y136611D01*
X160964Y136116D01*
X160268Y136812D01*
X160763Y137307D01*
X160553Y137447D01*
X159813Y137594D01*
D02*
G37*
G36*
X72356Y137228D02*
X71752D01*
Y136527D01*
X70768D01*
Y137228D01*
X70163D01*
X69424Y137081D01*
X69214Y136941D01*
X69708Y136446D01*
X69012Y135750D01*
X68518Y136245D01*
X68378Y136035D01*
X68231Y135295D01*
X68378Y134556D01*
X68518Y134346D01*
X69012Y134840D01*
X69708Y134144D01*
X69214Y133650D01*
X69424Y133510D01*
X70163Y133362D01*
X70768D01*
Y134064D01*
X71752D01*
Y133362D01*
X72356D01*
X73096Y133510D01*
X73306Y133650D01*
X72811Y134144D01*
X73507Y134840D01*
X74002Y134346D01*
X74142Y134556D01*
X74289Y135295D01*
X74142Y136035D01*
X74002Y136245D01*
X73507Y135750D01*
X72811Y136446D01*
X73306Y136941D01*
X73096Y137081D01*
X72356Y137228D01*
D02*
G37*
G36*
X350590Y137642D02*
X345047D01*
Y132886D01*
X346289D01*
Y132049D01*
X342200D01*
X341959Y132410D01*
X341197Y132919D01*
X340297Y133098D01*
X338104D01*
X337205Y132919D01*
X336442Y132410D01*
X335933Y131647D01*
X335754Y130748D01*
X335933Y129849D01*
X336442Y129086D01*
X337205Y128577D01*
X337726Y128473D01*
Y121488D01*
X337303Y121303D01*
X337227Y121303D01*
X332547D01*
Y121303D01*
X332185Y121303D01*
Y121303D01*
X327429D01*
Y115760D01*
X328533D01*
Y115004D01*
X327429D01*
Y112338D01*
X326947Y112072D01*
X326673Y112260D01*
Y115004D01*
X325570D01*
Y115760D01*
X326673D01*
Y121303D01*
X321917D01*
Y121303D01*
X321555D01*
Y121303D01*
X316799D01*
Y115760D01*
X321555D01*
Y115760D01*
X321917D01*
Y115760D01*
X323021D01*
Y115004D01*
X321917D01*
Y109461D01*
X325172D01*
Y82078D01*
X324672Y81917D01*
X323891Y82368D01*
X322935Y82624D01*
X321947D01*
X320991Y82368D01*
X320135Y81874D01*
X319557Y81296D01*
X319307Y81199D01*
X318916Y81275D01*
X301258Y98933D01*
X300845Y99209D01*
X300357Y99306D01*
X253908D01*
X244215Y108999D01*
X244407Y109461D01*
X245768D01*
Y115004D01*
X244664D01*
Y115760D01*
X245768D01*
Y115760D01*
X246130Y115760D01*
Y115760D01*
X250886D01*
Y119278D01*
X251386Y119327D01*
X251426Y119127D01*
X251642Y118804D01*
Y115760D01*
X256398D01*
Y121303D01*
X254368D01*
Y128495D01*
X254779Y128577D01*
X255398Y128990D01*
X257537D01*
X257871Y128490D01*
X257689Y128052D01*
Y127307D01*
X257055D01*
Y122551D01*
X262598D01*
Y122551D01*
X262961D01*
Y122551D01*
X268504D01*
Y122770D01*
X268622Y122848D01*
X269004Y122948D01*
X269465Y122487D01*
X270142Y122096D01*
X270897Y121894D01*
X271678D01*
X272433Y122096D01*
X273110Y122487D01*
X273663Y123039D01*
X274054Y123716D01*
X274256Y124471D01*
Y125253D01*
X274054Y126008D01*
X273663Y126685D01*
X273110Y127238D01*
X272433Y127628D01*
X271678Y127831D01*
X270897D01*
X270142Y127628D01*
X269465Y127238D01*
X269004Y126777D01*
X268622Y126876D01*
X268504Y126954D01*
Y127307D01*
X262961D01*
Y127307D01*
X262598D01*
Y127307D01*
X262051D01*
Y128052D01*
X261870Y128490D01*
X262204Y128990D01*
X267115D01*
X267700Y129107D01*
X268196Y129438D01*
X268782Y130024D01*
X269114Y130520D01*
X269230Y131105D01*
Y132787D01*
X270472D01*
Y137543D01*
X264929D01*
Y132787D01*
X266171D01*
Y132049D01*
X262931D01*
Y132886D01*
X264173D01*
Y137642D01*
X258630D01*
Y132886D01*
X259872D01*
Y132049D01*
X255783D01*
X255542Y132410D01*
X254779Y132919D01*
X253880Y133098D01*
X251687D01*
X250788Y132919D01*
X250025Y132410D01*
X249516Y131647D01*
X249337Y130748D01*
X249516Y129849D01*
X250025Y129086D01*
X250788Y128577D01*
X251309Y128473D01*
Y121488D01*
X250886Y121303D01*
X250809Y121303D01*
X246130D01*
Y121303D01*
X245768Y121303D01*
Y121303D01*
X241012D01*
Y115760D01*
X242115D01*
Y115004D01*
X241012D01*
Y111941D01*
X240776Y111783D01*
X240634Y111641D01*
X240492Y111783D01*
X240256Y111941D01*
Y115004D01*
X239153D01*
Y115760D01*
X240256D01*
Y121303D01*
X235500D01*
Y121303D01*
X235138D01*
Y121303D01*
X230382D01*
Y115760D01*
X235138D01*
Y115760D01*
X235500D01*
Y115760D01*
X236603D01*
Y115004D01*
X235500D01*
Y109461D01*
X238609D01*
Y109407D01*
X238706Y108919D01*
X238983Y108505D01*
X251858Y95630D01*
X252271Y95354D01*
X252759Y95257D01*
X299208D01*
X311509Y82955D01*
X311380Y82472D01*
X310991Y82368D01*
X310184Y81902D01*
X309969Y81944D01*
X309638Y82084D01*
X309612Y82210D01*
X309336Y82624D01*
X300507Y91452D01*
X300094Y91729D01*
X299606Y91826D01*
X253678D01*
X238697Y106807D01*
X238283Y107083D01*
X237795Y107180D01*
X151881D01*
X150149Y108912D01*
X150340Y109374D01*
X151701D01*
Y114917D01*
X150597D01*
Y115673D01*
X151701D01*
Y115673D01*
X152063Y115673D01*
Y115673D01*
X156819D01*
Y119191D01*
X157319Y119241D01*
X157359Y119041D01*
X157575Y118717D01*
Y115673D01*
X162331D01*
Y121217D01*
X160301D01*
Y128408D01*
X160712Y128490D01*
X161331Y128904D01*
X163470D01*
X163804Y128404D01*
X163622Y127965D01*
Y127220D01*
X162988D01*
Y122465D01*
X168532D01*
Y122465D01*
X168894D01*
Y122465D01*
X174437D01*
Y122684D01*
X174555Y122762D01*
X174937Y122861D01*
X175398Y122400D01*
X176075Y122009D01*
X176830Y121807D01*
X177611D01*
X178366Y122009D01*
X179043Y122400D01*
X179596Y122953D01*
X179987Y123630D01*
X180189Y124385D01*
Y125166D01*
X179987Y125921D01*
X179596Y126598D01*
X179043Y127151D01*
X178366Y127542D01*
X177611Y127744D01*
X176830D01*
X176075Y127542D01*
X175398Y127151D01*
X174937Y126690D01*
X174555Y126789D01*
X174437Y126867D01*
Y127220D01*
X168894D01*
Y127220D01*
X168532D01*
Y127220D01*
X167984D01*
Y127965D01*
X167803Y128404D01*
X168137Y128904D01*
X173048D01*
X173633Y129020D01*
X174129Y129352D01*
X174715Y129937D01*
X175047Y130434D01*
X175163Y131019D01*
Y132701D01*
X176406D01*
Y137457D01*
X170862D01*
Y132701D01*
X172104D01*
Y131963D01*
X168864D01*
Y132799D01*
X170106D01*
Y137555D01*
X164563D01*
Y132799D01*
X165805D01*
Y131963D01*
X161716D01*
X161475Y132323D01*
X160712Y132833D01*
X159813Y133012D01*
X157620D01*
X156721Y132833D01*
X155958Y132323D01*
X155449Y131561D01*
X155270Y130661D01*
X155449Y129762D01*
X155958Y128999D01*
X156721Y128490D01*
X157242Y128386D01*
Y121402D01*
X156819Y121217D01*
X156742Y121217D01*
X152063D01*
Y121217D01*
X151701Y121217D01*
Y121217D01*
X146945D01*
Y115673D01*
X148048D01*
Y114917D01*
X146945D01*
Y111854D01*
X146709Y111696D01*
X146567Y111554D01*
X146425Y111696D01*
X146189Y111854D01*
Y114917D01*
X145086D01*
Y115673D01*
X146189D01*
Y121217D01*
X141433D01*
Y121217D01*
X141071D01*
Y121217D01*
X136315D01*
Y115673D01*
X141071D01*
Y115673D01*
X141433D01*
Y115673D01*
X142537D01*
Y114917D01*
X141433D01*
Y109374D01*
X144543D01*
Y109320D01*
X144640Y108832D01*
X144916Y108419D01*
X149592Y103743D01*
X149384Y103243D01*
X67995D01*
X62692Y108546D01*
X62883Y109008D01*
X64244D01*
Y114551D01*
X63141D01*
Y115307D01*
X64244D01*
Y115307D01*
X64606Y115307D01*
Y115307D01*
X69362D01*
Y118825D01*
X69862Y118875D01*
X69902Y118675D01*
X70118Y118351D01*
Y115307D01*
X74874D01*
Y120850D01*
X72844D01*
Y128042D01*
X73256Y128124D01*
X73875Y128538D01*
X76013D01*
X76347Y128038D01*
X76165Y127599D01*
Y126854D01*
X75532D01*
Y122099D01*
X81075D01*
Y122098D01*
X81437D01*
Y122099D01*
X86980D01*
Y122318D01*
X87098Y122396D01*
X87480Y122495D01*
X87941Y122034D01*
X88618Y121643D01*
X89373Y121441D01*
X90155D01*
X90910Y121643D01*
X91587Y122034D01*
X92139Y122587D01*
X92530Y123264D01*
X92732Y124019D01*
Y124800D01*
X92530Y125555D01*
X92139Y126232D01*
X91587Y126785D01*
X90910Y127176D01*
X90155Y127378D01*
X89373D01*
X88618Y127176D01*
X87941Y126785D01*
X87480Y126324D01*
X87098Y126423D01*
X86980Y126501D01*
Y126854D01*
X81437D01*
Y126854D01*
X81075D01*
Y126854D01*
X80528D01*
Y127599D01*
X80346Y128038D01*
X80680Y128538D01*
X85591D01*
X86177Y128654D01*
X86673Y128986D01*
X87259Y129571D01*
X87590Y130068D01*
X87707Y130653D01*
Y132335D01*
X88949D01*
Y137091D01*
X83406D01*
Y132335D01*
X84648D01*
Y131596D01*
X81407D01*
Y132433D01*
X82650D01*
Y137189D01*
X77106D01*
Y132433D01*
X78348D01*
Y131596D01*
X74259D01*
X74018Y131957D01*
X73256Y132467D01*
X72356Y132646D01*
X70163D01*
X69264Y132467D01*
X68502Y131957D01*
X67992Y131195D01*
X67813Y130295D01*
X67992Y129396D01*
X68502Y128633D01*
X69264Y128124D01*
X69786Y128020D01*
Y121036D01*
X69362Y120851D01*
X69286Y120850D01*
X64606D01*
Y120851D01*
X64244Y120851D01*
Y120851D01*
X59488D01*
Y115307D01*
X60592D01*
Y114551D01*
X59488D01*
Y111488D01*
X59252Y111330D01*
X59110Y111188D01*
X58969Y111330D01*
X58732Y111488D01*
Y114551D01*
X57629D01*
Y115307D01*
X58732D01*
Y120851D01*
X53976D01*
Y120851D01*
X53614D01*
Y120851D01*
X48858D01*
Y115307D01*
X53614D01*
Y115307D01*
X53976D01*
Y115307D01*
X55080D01*
Y114551D01*
X53976D01*
Y109008D01*
X57086D01*
Y108954D01*
X57183Y108466D01*
X57459Y108053D01*
X65944Y99567D01*
X66358Y99291D01*
X66846Y99194D01*
X233496D01*
X249843Y82848D01*
X250256Y82571D01*
X250744Y82474D01*
X287436D01*
X296166Y73744D01*
Y72415D01*
X295991Y72368D01*
X295135Y71874D01*
X294436Y71174D01*
X293941Y70318D01*
X293685Y69363D01*
Y68374D01*
X293941Y67418D01*
X294436Y66562D01*
X295135Y65863D01*
X295991Y65368D01*
X296947Y65112D01*
X297935D01*
X298891Y65368D01*
X299747Y65863D01*
X300446Y66562D01*
X300941Y67418D01*
X301197Y68374D01*
Y69363D01*
X300941Y70318D01*
X300446Y71174D01*
X299747Y71874D01*
X298891Y72368D01*
X298715Y72415D01*
Y74063D01*
X298911D01*
X299398Y74160D01*
X299812Y74437D01*
X300834Y75459D01*
X300991Y75368D01*
X301946Y75112D01*
X302935D01*
X303891Y75368D01*
X304747Y75863D01*
X305204Y76320D01*
X305747Y76155D01*
X305758Y76100D01*
X306034Y75686D01*
X308814Y72906D01*
X308555Y72458D01*
X307935Y72624D01*
X306946D01*
X305991Y72368D01*
X305135Y71874D01*
X304435Y71174D01*
X303941Y70318D01*
X303685Y69363D01*
Y68374D01*
X303941Y67418D01*
X304435Y66562D01*
X305135Y65863D01*
X305991Y65368D01*
X306946Y65112D01*
X307935D01*
X308891Y65368D01*
X309747Y65863D01*
X310446Y66562D01*
X310941Y67418D01*
X310988Y67594D01*
X311642D01*
X311986Y67152D01*
X312025Y66953D01*
X312302Y66540D01*
X314880Y63961D01*
X315294Y63685D01*
X315782Y63588D01*
X319100D01*
X319588Y63685D01*
X320002Y63961D01*
X323342Y67302D01*
X323422Y67422D01*
X323725Y67420D01*
X323978Y67354D01*
X324435Y66562D01*
X325135Y65863D01*
X325991Y65368D01*
X326946Y65112D01*
X327935D01*
X328891Y65368D01*
X329747Y65863D01*
X330446Y66562D01*
X330941Y67418D01*
X331197Y68374D01*
Y69363D01*
X330941Y70318D01*
X330446Y71174D01*
X329747Y71874D01*
X328891Y72368D01*
X328715Y72415D01*
Y74063D01*
X328911D01*
X329398Y74160D01*
X329812Y74437D01*
X330834Y75459D01*
X330991Y75368D01*
X331946Y75112D01*
X332935D01*
X333891Y75368D01*
X334747Y75863D01*
X335446Y76562D01*
X335941Y77418D01*
X336197Y78374D01*
Y79363D01*
X335941Y80318D01*
X335446Y81174D01*
X334747Y81874D01*
X333891Y82368D01*
X332935Y82624D01*
X331946D01*
X330991Y82368D01*
X330135Y81874D01*
X329721Y81460D01*
X329221Y81667D01*
Y109461D01*
X332185D01*
Y115004D01*
X331082D01*
Y115760D01*
X332185D01*
Y115760D01*
X332547Y115760D01*
Y115760D01*
X337303D01*
Y119278D01*
X337803Y119327D01*
X337843Y119127D01*
X338059Y118804D01*
Y115760D01*
X342815D01*
Y121303D01*
X340785D01*
Y128495D01*
X341197Y128577D01*
X341816Y128990D01*
X343954D01*
X344288Y128490D01*
X344106Y128052D01*
Y127307D01*
X343473D01*
Y122551D01*
X349016D01*
Y122551D01*
X349378D01*
Y122551D01*
X354921D01*
Y122770D01*
X355039Y122848D01*
X355421Y122948D01*
X355882Y122487D01*
X356559Y122096D01*
X357314Y121894D01*
X358096D01*
X358851Y122096D01*
X359527Y122487D01*
X360080Y123039D01*
X360471Y123716D01*
X360673Y124471D01*
Y125253D01*
X360471Y126008D01*
X360080Y126685D01*
X359527Y127238D01*
X358851Y127628D01*
X358096Y127831D01*
X357314D01*
X356559Y127628D01*
X355882Y127238D01*
X355421Y126777D01*
X355039Y126876D01*
X354921Y126954D01*
Y127307D01*
X349378D01*
Y127307D01*
X349016D01*
Y127307D01*
X348468D01*
Y128052D01*
X348287Y128490D01*
X348621Y128990D01*
X353532D01*
X354118Y129107D01*
X354614Y129438D01*
X355200Y130024D01*
X355531Y130520D01*
X355647Y131105D01*
Y132787D01*
X356890D01*
Y137543D01*
X351346D01*
Y132787D01*
X352589D01*
Y132049D01*
X349348D01*
Y132886D01*
X350590D01*
Y137642D01*
D02*
G37*
G36*
X304626Y128268D02*
X303150D01*
Y127604D01*
X302165D01*
Y128268D01*
X300689D01*
Y126398D01*
X301353D01*
Y125413D01*
X300689D01*
Y123543D01*
X302165D01*
Y124207D01*
X303150D01*
Y123543D01*
X304626D01*
Y125413D01*
X303962D01*
Y126398D01*
X304626D01*
Y128268D01*
D02*
G37*
G36*
X218209D02*
X216732D01*
Y127604D01*
X215748D01*
Y128268D01*
X214272D01*
Y126398D01*
X214936D01*
Y125413D01*
X214272D01*
Y123543D01*
X215748D01*
Y124207D01*
X216732D01*
Y123543D01*
X218209D01*
Y125413D01*
X217545D01*
Y126398D01*
X218209D01*
Y128268D01*
D02*
G37*
G36*
X124142Y128181D02*
X122665D01*
Y127517D01*
X121681D01*
Y128181D01*
X120205D01*
Y126311D01*
X120869D01*
Y125327D01*
X120205D01*
Y123457D01*
X121681D01*
Y124121D01*
X122665D01*
Y123457D01*
X124142D01*
Y125327D01*
X123478D01*
Y126311D01*
X124142D01*
Y128181D01*
D02*
G37*
G36*
X36685Y127815D02*
X35209D01*
Y127151D01*
X34224D01*
Y127815D01*
X32748D01*
Y125945D01*
X33412D01*
Y124961D01*
X32748D01*
Y123091D01*
X34224D01*
Y123755D01*
X35209D01*
Y123091D01*
X36685D01*
Y124961D01*
X36021D01*
Y125945D01*
X36685D01*
Y127815D01*
D02*
G37*
G36*
X354512Y121386D02*
X352642D01*
Y120722D01*
X351658D01*
Y121386D01*
X349787D01*
Y119910D01*
X350451D01*
Y118925D01*
X349787D01*
Y117449D01*
X351658D01*
Y118113D01*
X352642D01*
Y117449D01*
X354512D01*
Y118925D01*
X353848D01*
Y119910D01*
X354512D01*
Y121386D01*
D02*
G37*
G36*
X348606D02*
X346736D01*
Y120722D01*
X345752D01*
Y121386D01*
X343882D01*
Y119910D01*
X344546D01*
Y118925D01*
X343882D01*
Y117449D01*
X345752D01*
Y118113D01*
X346736D01*
Y117449D01*
X348606D01*
Y118925D01*
X347942D01*
Y119910D01*
X348606D01*
Y121386D01*
D02*
G37*
G36*
X268094D02*
X266224D01*
Y120722D01*
X265240D01*
Y121386D01*
X263370D01*
Y119910D01*
X264034D01*
Y118925D01*
X263370D01*
Y117449D01*
X265240D01*
Y118113D01*
X266224D01*
Y117449D01*
X268094D01*
Y118925D01*
X267430D01*
Y119910D01*
X268094D01*
Y121386D01*
D02*
G37*
G36*
X262189D02*
X260319D01*
Y120722D01*
X259335D01*
Y121386D01*
X257465D01*
Y119910D01*
X258129D01*
Y118925D01*
X257465D01*
Y117449D01*
X259335D01*
Y118113D01*
X260319D01*
Y117449D01*
X262189D01*
Y118925D01*
X261525D01*
Y119910D01*
X262189D01*
Y121386D01*
D02*
G37*
G36*
X174028Y121299D02*
X172158D01*
Y120635D01*
X171173D01*
Y121299D01*
X169303D01*
Y119823D01*
X169967D01*
Y118839D01*
X169303D01*
Y117362D01*
X171173D01*
Y118026D01*
X172158D01*
Y117362D01*
X174028D01*
Y118839D01*
X173363D01*
Y119823D01*
X174028D01*
Y121299D01*
D02*
G37*
G36*
X168122D02*
X166252D01*
Y120635D01*
X165268D01*
Y121299D01*
X163398D01*
Y119823D01*
X164062D01*
Y118839D01*
X163398D01*
Y117362D01*
X165268D01*
Y118026D01*
X166252D01*
Y117362D01*
X168122D01*
Y118839D01*
X167458D01*
Y119823D01*
X168122D01*
Y121299D01*
D02*
G37*
G36*
X86571Y120933D02*
X84701D01*
Y120269D01*
X83716D01*
Y120933D01*
X81846D01*
Y119457D01*
X82511D01*
Y118473D01*
X81846D01*
Y116996D01*
X83716D01*
Y117660D01*
X84701D01*
Y116996D01*
X86571D01*
Y118473D01*
X85907D01*
Y119457D01*
X86571D01*
Y120933D01*
D02*
G37*
G36*
X80665D02*
X78795D01*
Y120269D01*
X77811D01*
Y120933D01*
X75941D01*
Y119457D01*
X76605D01*
Y118473D01*
X75941D01*
Y116996D01*
X77811D01*
Y117660D01*
X78795D01*
Y116996D01*
X80665D01*
Y118473D01*
X80001D01*
Y119457D01*
X80665D01*
Y120933D01*
D02*
G37*
G36*
X337287Y114594D02*
X335811D01*
Y113930D01*
X334827D01*
Y114594D01*
X333350D01*
Y112724D01*
X334014D01*
Y111740D01*
X333350D01*
Y109870D01*
X334827D01*
Y110534D01*
X335811D01*
Y109870D01*
X337287D01*
Y111740D01*
X336623D01*
Y112724D01*
X337287D01*
Y114594D01*
D02*
G37*
G36*
X320752D02*
X319276D01*
Y113930D01*
X318291D01*
Y114594D01*
X316815D01*
Y112724D01*
X317479D01*
Y111740D01*
X316815D01*
Y109870D01*
X318291D01*
Y110534D01*
X319276D01*
Y109870D01*
X320752D01*
Y111740D01*
X320088D01*
Y112724D01*
X320752D01*
Y114594D01*
D02*
G37*
G36*
X250870D02*
X249394D01*
Y113930D01*
X248410D01*
Y114594D01*
X246933D01*
Y112724D01*
X247597D01*
Y111740D01*
X246933D01*
Y109870D01*
X248410D01*
Y110534D01*
X249394D01*
Y109870D01*
X250870D01*
Y111740D01*
X250206D01*
Y112724D01*
X250870D01*
Y114594D01*
D02*
G37*
G36*
X234335D02*
X232858D01*
Y113930D01*
X231874D01*
Y114594D01*
X230398D01*
Y112724D01*
X231062D01*
Y111740D01*
X230398D01*
Y109870D01*
X231874D01*
Y110534D01*
X232858D01*
Y109870D01*
X234335D01*
Y111740D01*
X233671D01*
Y112724D01*
X234335D01*
Y114594D01*
D02*
G37*
G36*
X156803Y114508D02*
X155327D01*
Y113844D01*
X154343D01*
Y114508D01*
X152866D01*
Y112638D01*
X153530D01*
Y111654D01*
X152866D01*
Y109783D01*
X154343D01*
Y110448D01*
X155327D01*
Y109783D01*
X156803D01*
Y111654D01*
X156139D01*
Y112638D01*
X156803D01*
Y114508D01*
D02*
G37*
G36*
X140268D02*
X138791D01*
Y113844D01*
X137807D01*
Y114508D01*
X136331D01*
Y112638D01*
X136995D01*
Y111654D01*
X136331D01*
Y109783D01*
X137807D01*
Y110448D01*
X138791D01*
Y109783D01*
X140268D01*
Y111654D01*
X139604D01*
Y112638D01*
X140268D01*
Y114508D01*
D02*
G37*
G36*
X69346Y114142D02*
X67870D01*
Y113478D01*
X66886D01*
Y114142D01*
X65409D01*
Y112272D01*
X66074D01*
Y111287D01*
X65409D01*
Y109417D01*
X66886D01*
Y110081D01*
X67870D01*
Y109417D01*
X69346D01*
Y111287D01*
X68682D01*
Y112272D01*
X69346D01*
Y114142D01*
D02*
G37*
G36*
X52811D02*
X51335D01*
Y113478D01*
X50350D01*
Y114142D01*
X48874D01*
Y112272D01*
X49538D01*
Y111287D01*
X48874D01*
Y109417D01*
X50350D01*
Y110081D01*
X51335D01*
Y109417D01*
X52811D01*
Y111287D01*
X52147D01*
Y112272D01*
X52811D01*
Y114142D01*
D02*
G37*
G36*
X24232Y109567D02*
X21634D01*
Y108903D01*
X20650D01*
Y109567D01*
X18051D01*
Y101713D01*
X18715D01*
Y100728D01*
X18051D01*
Y92874D01*
X20650D01*
Y93538D01*
X21634D01*
Y92874D01*
X24232D01*
Y100728D01*
X23568D01*
Y101713D01*
X24232D01*
Y109567D01*
D02*
G37*
G36*
X14232D02*
X11634D01*
Y108903D01*
X10650D01*
Y109567D01*
X8051D01*
Y101713D01*
X8715D01*
Y100728D01*
X8051D01*
Y92874D01*
X10650D01*
Y93538D01*
X11634D01*
Y92874D01*
X14232D01*
Y100728D01*
X13568D01*
Y101713D01*
X14232D01*
Y109567D01*
D02*
G37*
G36*
X38819Y86240D02*
X35138D01*
Y85576D01*
X34154D01*
Y86240D01*
X30472D01*
Y83760D01*
X31137D01*
Y82776D01*
X30472D01*
Y80295D01*
X34154D01*
Y80959D01*
X35138D01*
Y80295D01*
X38819D01*
Y82776D01*
X38155D01*
Y83760D01*
X38819D01*
Y86240D01*
D02*
G37*
G36*
X184272Y83307D02*
X181791D01*
Y82643D01*
X180807D01*
Y83307D01*
X178327D01*
Y79626D01*
X178991D01*
Y78642D01*
X178327D01*
Y74961D01*
X180807D01*
Y75625D01*
X181791D01*
Y74961D01*
X184272D01*
Y78642D01*
X183608D01*
Y79626D01*
X184272D01*
Y83307D01*
D02*
G37*
G36*
X124606Y82185D02*
X122539D01*
Y81521D01*
X121555D01*
Y82185D01*
X119488D01*
Y80709D01*
X120152D01*
Y79724D01*
X119488D01*
Y78248D01*
X121555D01*
Y78912D01*
X122539D01*
Y78248D01*
X124606D01*
Y79724D01*
X123942D01*
Y80709D01*
X124606D01*
Y82185D01*
D02*
G37*
G36*
X78216Y67779D02*
X74811D01*
Y67115D01*
X73827D01*
Y67779D01*
X70421D01*
Y63902D01*
X71085D01*
Y62917D01*
X70421D01*
Y59039D01*
X73827D01*
Y59703D01*
X74811D01*
Y59039D01*
X78216D01*
Y62917D01*
X77552D01*
Y63902D01*
X78216D01*
Y67779D01*
D02*
G37*
G36*
X100155Y61638D02*
X98285D01*
Y60974D01*
X97301D01*
Y61638D01*
X95431D01*
Y59866D01*
X96095D01*
Y58882D01*
X95431D01*
Y57110D01*
X97301D01*
Y57774D01*
X98285D01*
Y57110D01*
X100155D01*
Y58882D01*
X99491D01*
Y59866D01*
X100155D01*
Y61638D01*
D02*
G37*
G36*
X212598Y59449D02*
X211122D01*
Y58785D01*
X210138D01*
Y59449D01*
X208661D01*
Y57579D01*
X209325D01*
Y56595D01*
X208661D01*
Y54724D01*
X210138D01*
Y55388D01*
X211122D01*
Y54724D01*
X212598D01*
Y56595D01*
X211934D01*
Y57579D01*
X212598D01*
Y59449D01*
D02*
G37*
G36*
X346200Y61404D02*
X344745D01*
X343339Y61027D01*
X342132Y60330D01*
X342963Y59499D01*
X341849Y58386D01*
X341018Y59216D01*
X340322Y58010D01*
X339945Y56604D01*
Y55148D01*
X340322Y53742D01*
X341018Y52535D01*
X341849Y53366D01*
X342963Y52253D01*
X342132Y51422D01*
X343339Y50725D01*
X344745Y50348D01*
X346200D01*
X347606Y50725D01*
X348813Y51422D01*
X347982Y52253D01*
X349096Y53366D01*
X349926Y52535D01*
X350623Y53742D01*
X351000Y55148D01*
Y56604D01*
X350623Y58010D01*
X349926Y59216D01*
X349096Y58386D01*
X347982Y59499D01*
X348813Y60330D01*
X347606Y61027D01*
X346200Y61404D01*
D02*
G37*
G36*
X285176D02*
X283721D01*
X282315Y61027D01*
X281108Y60330D01*
X281939Y59499D01*
X280825Y58386D01*
X279995Y59216D01*
X279298Y58010D01*
X278921Y56604D01*
Y55148D01*
X279298Y53742D01*
X279995Y52535D01*
X280825Y53366D01*
X281939Y52253D01*
X281108Y51422D01*
X282315Y50725D01*
X283721Y50348D01*
X285176D01*
X286582Y50725D01*
X287789Y51422D01*
X286959Y52253D01*
X288072Y53366D01*
X288903Y52535D01*
X289600Y53742D01*
X289976Y55148D01*
Y56604D01*
X289600Y58010D01*
X288903Y59216D01*
X288072Y58386D01*
X286959Y59499D01*
X287789Y60330D01*
X286582Y61027D01*
X285176Y61404D01*
D02*
G37*
G36*
X28543Y54429D02*
X26476D01*
Y53765D01*
X25492D01*
Y54429D01*
X23425D01*
Y52953D01*
X24089D01*
Y51968D01*
X23425D01*
Y50492D01*
X25492D01*
Y51156D01*
X26476D01*
Y50492D01*
X28543D01*
Y51968D01*
X27879D01*
Y52953D01*
X28543D01*
Y54429D01*
D02*
G37*
G36*
X13197Y55449D02*
X12000D01*
X10845Y55139D01*
X9979Y54639D01*
X10798Y53819D01*
X9685Y52706D01*
X8865Y53526D01*
X8365Y52659D01*
X8055Y51504D01*
Y50307D01*
X8365Y49152D01*
X8865Y48286D01*
X9685Y49106D01*
X10798Y47992D01*
X9979Y47172D01*
X10845Y46672D01*
X12000Y46362D01*
X13197D01*
X14352Y46672D01*
X15218Y47172D01*
X14398Y47992D01*
X15512Y49106D01*
X16332Y48286D01*
X16832Y49152D01*
X17142Y50307D01*
Y51504D01*
X16832Y52659D01*
X16332Y53526D01*
X15512Y52706D01*
X14398Y53819D01*
X15218Y54639D01*
X14352Y55139D01*
X13197Y55449D01*
D02*
G37*
G36*
X26378Y85665D02*
X7480D01*
X7090Y85588D01*
X6759Y85367D01*
X6538Y85036D01*
X6461Y84646D01*
Y74803D01*
Y68110D01*
Y58360D01*
X3184Y55084D01*
X2833Y54558D01*
X2709Y53937D01*
Y27165D01*
X2833Y26545D01*
X3184Y26019D01*
X5841Y23361D01*
X5890Y23329D01*
Y21835D01*
X11433D01*
Y27181D01*
X6750D01*
X6547Y27442D01*
X6770Y27937D01*
X11433D01*
Y28693D01*
X11992D01*
Y28134D01*
X17142D01*
Y33283D01*
X11992D01*
Y31937D01*
X11433D01*
Y33283D01*
X5952D01*
Y53265D01*
X8754Y56067D01*
X28850D01*
X29291Y55925D01*
X29291Y55567D01*
Y53445D01*
X29955D01*
Y52461D01*
X29291D01*
Y49980D01*
X32972D01*
Y50644D01*
X33957D01*
Y49980D01*
X37638D01*
Y52461D01*
X36974D01*
Y53445D01*
X37638D01*
X37638Y55925D01*
X38079Y56067D01*
X39370D01*
X39760Y56145D01*
X40091Y56366D01*
X40312Y56696D01*
X40390Y57087D01*
Y61579D01*
X48819D01*
X49209Y61656D01*
X49540Y61878D01*
X49761Y62208D01*
X49839Y62598D01*
Y74803D01*
X49761Y75193D01*
X49540Y75524D01*
X49209Y75745D01*
X48819Y75823D01*
X48025D01*
X47657Y76142D01*
X47657Y76323D01*
Y79823D01*
X46993D01*
Y80807D01*
X47657D01*
Y84488D01*
X45177D01*
Y83824D01*
X44193D01*
Y84488D01*
X41713D01*
Y80807D01*
X42377D01*
Y79823D01*
X41713D01*
Y76323D01*
X41713Y76142D01*
X41345Y75823D01*
X27398D01*
Y84646D01*
X27320Y85036D01*
X27099Y85367D01*
X26768Y85588D01*
X26378Y85665D01*
D02*
G37*
G36*
X133741Y47051D02*
X130060D01*
Y46387D01*
X129076D01*
Y47051D01*
X125394D01*
Y44571D01*
X126058D01*
Y43587D01*
X125394D01*
Y41106D01*
X129076D01*
Y41770D01*
X130060D01*
Y41106D01*
X133741D01*
Y43587D01*
X133077D01*
Y44571D01*
X133741D01*
Y47051D01*
D02*
G37*
G36*
X338091Y50266D02*
X336830D01*
X335595Y50020D01*
X334430Y49538D01*
X333382Y48838D01*
X332491Y47946D01*
X331791Y46898D01*
X331309Y45734D01*
X331063Y44498D01*
Y43238D01*
X331309Y42002D01*
X331791Y40838D01*
X332491Y39790D01*
X333382Y38899D01*
X334430Y38199D01*
X335595Y37716D01*
X336830Y37470D01*
X338091D01*
X339327Y37716D01*
X340491Y38199D01*
X341539Y38899D01*
X342430Y39790D01*
X343130Y40838D01*
X343612Y42002D01*
X343858Y43238D01*
Y44498D01*
X343612Y45734D01*
X343130Y46898D01*
X342430Y47946D01*
X341539Y48838D01*
X340491Y49538D01*
X339327Y50020D01*
X338091Y50266D01*
D02*
G37*
G36*
X293091D02*
X291830D01*
X290595Y50020D01*
X289430Y49538D01*
X288382Y48838D01*
X287491Y47946D01*
X286791Y46898D01*
X286309Y45734D01*
X286063Y44498D01*
Y43238D01*
X286309Y42002D01*
X286791Y40838D01*
X287491Y39790D01*
X288382Y38899D01*
X289430Y38199D01*
X290595Y37716D01*
X291830Y37470D01*
X293091D01*
X294327Y37716D01*
X295491Y38199D01*
X296539Y38899D01*
X297430Y39790D01*
X298130Y40838D01*
X298612Y42002D01*
X298858Y43238D01*
Y44498D01*
X298612Y45734D01*
X298130Y46898D01*
X297430Y47946D01*
X296539Y48838D01*
X295491Y49538D01*
X294327Y50020D01*
X293091Y50266D01*
D02*
G37*
G36*
X16732Y26575D02*
X15059D01*
Y25911D01*
X14075D01*
Y26575D01*
X12402D01*
Y24902D01*
X13066D01*
Y23917D01*
X12402D01*
Y22244D01*
X14075D01*
Y22908D01*
X15059D01*
Y22244D01*
X16732D01*
Y23917D01*
X16068D01*
Y24902D01*
X16732D01*
Y26575D01*
D02*
G37*
G36*
X171063Y25394D02*
X167815D01*
Y24730D01*
X166831D01*
Y25394D01*
X163583D01*
Y19390D01*
X164247D01*
Y18406D01*
X163583D01*
Y12402D01*
X166831D01*
Y13066D01*
X167815D01*
Y12402D01*
X171063D01*
Y18406D01*
X170399D01*
Y19390D01*
X171063D01*
Y25394D01*
D02*
G37*
G36*
X184661Y26787D02*
X179118D01*
Y21441D01*
X180067D01*
Y19898D01*
X179315D01*
Y14748D01*
X184465D01*
Y19898D01*
X183712D01*
Y21441D01*
X184661D01*
Y26787D01*
D02*
G37*
G36*
X81299Y15059D02*
X79232D01*
Y14395D01*
X78248D01*
Y15059D01*
X76181D01*
Y13583D01*
X76845D01*
Y12598D01*
X76181D01*
Y11122D01*
X78248D01*
Y11786D01*
X79232D01*
Y11122D01*
X80930D01*
X81260Y11122D01*
X81260Y10953D01*
Y8957D01*
X81924D01*
Y7972D01*
X81260D01*
Y5492D01*
X84941D01*
Y6156D01*
X85925D01*
Y5492D01*
X92815D01*
Y6156D01*
X93799D01*
Y5492D01*
X97480D01*
Y7972D01*
X96816D01*
Y8957D01*
X97480D01*
Y11437D01*
X93799D01*
Y10773D01*
X92815D01*
Y11437D01*
X85925D01*
Y10773D01*
X84941D01*
Y11437D01*
X81629D01*
X81299Y11437D01*
X81299Y11606D01*
Y12598D01*
X80635D01*
Y13583D01*
X81299D01*
Y15059D01*
D02*
G37*
G36*
X129948Y24819D02*
X124405D01*
Y19472D01*
X125974D01*
Y17929D01*
X125222D01*
Y12779D01*
X130372D01*
Y17929D01*
X129619D01*
Y19472D01*
X129948D01*
Y24819D01*
D02*
G37*
G36*
X184055Y13189D02*
X182382D01*
Y12525D01*
X181398D01*
Y13189D01*
X179724D01*
Y11516D01*
X180388D01*
Y10531D01*
X179724D01*
Y8858D01*
X181398D01*
Y9522D01*
X182382D01*
Y8858D01*
X184055D01*
Y10531D01*
X183391D01*
Y11516D01*
X184055D01*
Y13189D01*
D02*
G37*
G36*
X129962Y11220D02*
X128289D01*
Y10556D01*
X127305D01*
Y11220D01*
X125631D01*
Y9547D01*
X126295D01*
Y8563D01*
X125631D01*
Y6890D01*
X127305D01*
Y7554D01*
X128289D01*
Y6890D01*
X129962D01*
Y8563D01*
X129298D01*
Y9547D01*
X129962D01*
Y11220D01*
D02*
G37*
G36*
X134195Y12008D02*
X133521D01*
X132870Y11834D01*
X132426Y11577D01*
X132910Y11093D01*
X132214Y10397D01*
X131730Y10881D01*
X131474Y10437D01*
X131299Y9786D01*
Y9112D01*
X131474Y8461D01*
X131730Y8017D01*
X132214Y8501D01*
X132910Y7805D01*
X132426Y7321D01*
X132870Y7064D01*
X133521Y6890D01*
X134195D01*
X134846Y7064D01*
X135290Y7321D01*
X134806Y7805D01*
X135502Y8501D01*
X135986Y8017D01*
X136243Y8461D01*
X136417Y9112D01*
Y9786D01*
X136243Y10437D01*
X135986Y10881D01*
X135502Y10397D01*
X134806Y11093D01*
X135290Y11577D01*
X134846Y11834D01*
X134195Y12008D01*
D02*
G37*
G36*
X12607Y19898D02*
X11015D01*
X9452Y19587D01*
X7981Y18977D01*
X6656Y18092D01*
X5530Y16966D01*
X4645Y15642D01*
X4035Y14170D01*
X3724Y12607D01*
Y11015D01*
X4035Y9452D01*
X4645Y7981D01*
X5530Y6656D01*
X6656Y5530D01*
X7981Y4645D01*
X9452Y4035D01*
X11015Y3724D01*
X12607D01*
X14170Y4035D01*
X15642Y4645D01*
X16966Y5530D01*
X18092Y6656D01*
X18977Y7981D01*
X19587Y9452D01*
X19898Y11015D01*
Y12607D01*
X19587Y14170D01*
X18977Y15642D01*
X18092Y16966D01*
X16966Y18092D01*
X15642Y18977D01*
X14170Y19587D01*
X12607Y19898D01*
D02*
G37*
%LPD*%
G36*
X335033Y192408D02*
X335391Y191544D01*
X335960Y190803D01*
X336670Y190258D01*
Y186630D01*
X336205D01*
Y181087D01*
X336760D01*
Y180527D01*
X335614D01*
Y172050D01*
X334913Y171349D01*
X334413Y171556D01*
Y180091D01*
X332313D01*
Y183937D01*
X332340Y183964D01*
X332672Y184765D01*
Y185633D01*
X332464Y186135D01*
Y190101D01*
X332784Y190234D01*
X333526Y190803D01*
X334095Y191544D01*
X334453Y192408D01*
X334491Y192698D01*
X334995D01*
X335033Y192408D01*
D02*
G37*
G36*
X248616D02*
X248974Y191544D01*
X249543Y190803D01*
X250252Y190258D01*
Y186630D01*
X249787D01*
Y181087D01*
X250343D01*
Y180527D01*
X249197D01*
Y172050D01*
X248496Y171349D01*
X247996Y171556D01*
Y180091D01*
X245896D01*
Y183937D01*
X245922Y183964D01*
X246255Y184765D01*
Y185633D01*
X246046Y186135D01*
Y190101D01*
X246367Y190234D01*
X247109Y190803D01*
X247678Y191544D01*
X248035Y192408D01*
X248074Y192698D01*
X248578D01*
X248616Y192408D01*
D02*
G37*
G36*
X154549Y192321D02*
X154907Y191458D01*
X155476Y190716D01*
X156185Y190172D01*
Y186543D01*
X155720D01*
Y181000D01*
X156185D01*
Y180441D01*
X155130D01*
Y171963D01*
X154429Y171262D01*
X153929Y171469D01*
Y180004D01*
X151829D01*
Y183850D01*
X151856Y183877D01*
X152188Y184678D01*
Y185546D01*
X151980Y186048D01*
Y190014D01*
X152300Y190147D01*
X153042Y190716D01*
X153611Y191458D01*
X153968Y192321D01*
X154007Y192612D01*
X154511D01*
X154549Y192321D01*
D02*
G37*
G36*
X67093Y191955D02*
X67450Y191092D01*
X68019Y190350D01*
X68729Y189806D01*
Y186177D01*
X68264D01*
Y180634D01*
X68729D01*
Y180075D01*
X67673D01*
Y171597D01*
X66973Y170896D01*
X66473Y171103D01*
Y179638D01*
X64372D01*
Y183484D01*
X64399Y183511D01*
X64731Y184312D01*
Y185180D01*
X64523Y185682D01*
Y189648D01*
X64843Y189781D01*
X65585Y190350D01*
X66154Y191092D01*
X66512Y191955D01*
X66550Y192246D01*
X67054D01*
X67093Y191955D01*
D02*
G37*
G36*
X251627Y88150D02*
X252041Y87874D01*
X252528Y87777D01*
X298457D01*
X303182Y83052D01*
X302999Y82733D01*
X302903Y82624D01*
X301946D01*
X300991Y82368D01*
X300135Y81874D01*
X299435Y81174D01*
X298941Y80318D01*
X298685Y79363D01*
Y78374D01*
X298941Y77418D01*
X298962Y77381D01*
X298562Y77074D01*
X289487Y86150D01*
X289073Y86426D01*
X288585Y86523D01*
X251893D01*
X235786Y102631D01*
X235993Y103131D01*
X236646D01*
X251627Y88150D01*
D02*
G37*
G36*
X26378Y74803D02*
X48819D01*
Y62598D01*
X39370D01*
Y57087D01*
X7480D01*
Y68110D01*
Y74803D01*
Y84646D01*
X26378D01*
Y74803D01*
D02*
G37*
D12*
X299606Y90551D02*
X308435Y81722D01*
X253150Y90551D02*
X299606D01*
X298985Y89051D02*
X306935Y81101D01*
X252528Y89051D02*
X298985D01*
X306935Y76587D02*
Y81101D01*
X308435Y77209D02*
Y81722D01*
X326154Y110881D02*
X326447Y110589D01*
Y75266D02*
Y110589D01*
X324295Y112009D02*
Y118532D01*
X327947Y75887D02*
Y110443D01*
X328240Y110736D01*
X325423Y110881D02*
X326154D01*
X329807Y111864D02*
Y118532D01*
X328679Y110736D02*
X329807Y111864D01*
X328240Y110736D02*
X328679D01*
X326447Y75266D02*
X327441Y74272D01*
X328496Y75338D02*
X328911D01*
X327947Y75887D02*
X328496Y75338D01*
X328911D02*
X332441Y78868D01*
X324295Y112009D02*
X325423Y110881D01*
X252759Y96531D02*
X299736D01*
X253380Y98032D02*
X300357D01*
X318178Y80210D01*
X299736Y96531D02*
X316678Y79589D01*
X234024Y100469D02*
X250744Y83749D01*
X287964D01*
X67467Y101969D02*
X234646D01*
X66846Y100469D02*
X234024D01*
X234646Y101969D02*
X251365Y85249D01*
X288585D01*
X237174Y104405D02*
X252528Y89051D01*
X150732Y104405D02*
X237174D01*
X151353Y105905D02*
X237795D01*
X253150Y90551D01*
X58360Y108954D02*
X66846Y100469D01*
X59860Y109575D02*
X67467Y101969D01*
X147317Y109941D02*
X151353Y105905D01*
X145817Y109320D02*
X150732Y104405D01*
X306935Y76587D02*
X311935Y71588D01*
Y69161D02*
Y71588D01*
X311642Y68868D02*
X311935Y69161D01*
X307441Y68868D02*
X311642D01*
X313435Y68540D02*
Y72209D01*
X313203Y67441D02*
Y68307D01*
X319100Y64862D02*
X322441Y68203D01*
X315782Y64862D02*
X319100D01*
X322441Y68203D02*
Y78868D01*
X313203Y68307D02*
X313435Y68540D01*
X308435Y77209D02*
X313435Y72209D01*
X313203Y67441D02*
X315782Y64862D01*
X318178Y75009D02*
Y80210D01*
X317441Y74272D02*
X318178Y75009D01*
X317441Y68868D02*
Y74272D01*
X316678Y75631D02*
Y79589D01*
X327441Y68868D02*
Y74272D01*
X312441Y78868D02*
X315971Y75338D01*
X316386D01*
X316678Y75631D01*
X239884Y109407D02*
X252759Y96531D01*
X287964Y83749D02*
X297441Y74272D01*
X288585Y85249D02*
X298496Y75338D01*
X241384Y110589D02*
X241677Y110881D01*
X241384Y110028D02*
Y110589D01*
Y110028D02*
X253380Y98032D01*
X241677Y110881D02*
X242262D01*
X237878Y112009D02*
X239006Y110881D01*
X239591D02*
X239884Y110589D01*
Y109407D02*
Y110589D01*
X243390Y112232D02*
Y118532D01*
X239006Y110881D02*
X239591D01*
X243390Y112009D02*
Y112232D01*
X242262Y110881D02*
X243390Y112009D01*
X237878Y112009D02*
Y112232D01*
X297441Y68868D02*
Y74272D01*
X298496Y75338D02*
X298911D01*
X57482Y110429D02*
X58067D01*
X56354Y111557D02*
X57482Y110429D01*
X56354Y111557D02*
Y111780D01*
X58360Y108954D02*
Y110136D01*
X58067Y110429D02*
X58360Y110136D01*
X56354Y111780D02*
Y118079D01*
X298911Y75338D02*
X302441Y78868D01*
X60738Y110429D02*
X61866Y111557D01*
X60153Y110429D02*
X60738D01*
X59860Y110136D02*
X60153Y110429D01*
X59860Y109575D02*
Y110136D01*
X61866Y111557D02*
Y111780D01*
X147317Y109941D02*
Y110502D01*
X145817Y109320D02*
Y110502D01*
X145524Y110795D02*
X145817Y110502D01*
X147317Y110502D02*
X147610Y110795D01*
X148195D01*
X144939Y110795D02*
X145524D01*
X143811Y111923D02*
X144939Y110795D01*
X148195Y110795D02*
X149323Y111923D01*
Y112146D01*
X143811Y111923D02*
Y112146D01*
Y118445D01*
X138693D02*
X143811D01*
X51236Y118079D02*
X56354D01*
X329807Y118532D02*
X334925D01*
X329807Y118532D02*
X329807Y118532D01*
X319177Y118532D02*
X324295D01*
X248508D02*
X248508Y118532D01*
X243390Y118532D02*
X248508D01*
X237878Y112232D02*
Y118532D01*
X232760D02*
X237878D01*
X149323Y118445D02*
X154441D01*
X154441Y118445D01*
X149323Y112146D02*
Y118445D01*
X61866Y118079D02*
X66984D01*
X61866Y118079D02*
X61866Y118079D01*
X61866Y111780D02*
Y118079D01*
D17*
X6988Y24508D02*
X8661D01*
X4331Y27165D02*
X6988Y24508D01*
X4331Y27165D02*
Y53937D01*
X10020Y59626D01*
X8493Y30315D02*
X14399D01*
X11909Y59626D02*
X12205Y59331D01*
X129134Y76651D02*
X129203Y76582D01*
X129390D01*
X129134Y76651D02*
Y79134D01*
X10020Y59626D02*
X11909D01*
D20*
X167323Y36220D02*
X169351Y34193D01*
X180374D01*
X182008Y35827D01*
X122340Y33858D02*
X127559D01*
X120472Y35726D02*
Y46457D01*
Y35726D02*
X122340Y33858D01*
X133858Y5118D02*
Y9449D01*
X93307Y34547D02*
X101272D01*
X104331Y37606D01*
Y58276D01*
X229595Y168350D02*
Y172066D01*
X72835Y72244D02*
X72933Y72146D01*
X79528D01*
X157579Y54331D02*
X160122D01*
X67378Y111780D02*
X67409Y111811D01*
X71260D01*
X50480Y111417D02*
X50842Y111780D01*
X46457Y111417D02*
X50480D01*
X84209Y118965D02*
X84646Y118528D01*
Y115354D02*
Y118528D01*
X78303Y118965D02*
X79134Y118134D01*
Y115748D02*
Y118134D01*
X138240Y112205D02*
X138299Y112146D01*
X134252Y112205D02*
X138240D01*
X154835Y112146D02*
X154894Y112205D01*
X158661D01*
X165760Y119331D02*
X166591Y118500D01*
Y116114D02*
Y118500D01*
X171653Y119319D02*
X171665Y119331D01*
X171653Y116142D02*
Y119319D01*
X232339Y112205D02*
X232366Y112232D01*
X228346Y112205D02*
X232339D01*
X259827Y119417D02*
X260146D01*
X261024Y118539D01*
Y115929D02*
Y118539D01*
X265732Y119417D02*
X265748Y119402D01*
Y115854D02*
Y119402D01*
X248902Y112232D02*
X248929Y112205D01*
X252756D01*
X346244Y119417D02*
X346850Y118811D01*
Y115748D02*
Y118811D01*
X351969Y119236D02*
X352150Y119417D01*
X351969Y115748D02*
Y119236D01*
X339171Y135718D02*
X339201Y135748D01*
X335299Y135718D02*
X339171D01*
X334621Y135039D02*
X335299Y135718D01*
X334252Y135039D02*
X334621D01*
X318756Y112205D02*
X318783Y112232D01*
X314961Y112205D02*
X318756D01*
X335319Y112232D02*
X335347Y112205D01*
X339370D01*
X64567Y72244D02*
X72835D01*
X64567Y67323D02*
Y72244D01*
X73949Y63779D02*
X74319Y63410D01*
X68504Y63779D02*
X73949D01*
X74319Y63410D02*
X74689Y63779D01*
X79921D01*
X89764Y77854D02*
Y81102D01*
X117717Y80315D02*
X117766Y80266D01*
X121998D01*
X122047Y80216D01*
X145669Y76378D02*
X145706D01*
X146063Y76734D01*
Y79134D01*
X160433D02*
X160827Y79528D01*
X164567D01*
X180512Y78347D02*
X181299Y79134D01*
X176772Y78347D02*
X180512D01*
X182677Y72441D02*
X187106D01*
X182283Y67323D02*
X186614D01*
X187008Y66929D01*
X186811Y57382D02*
Y61122D01*
X186701Y61012D02*
X186811Y61122D01*
X182404Y61012D02*
X186701D01*
X182293Y60902D02*
X182404Y61012D01*
X198819Y42520D02*
X198819Y42520D01*
X211130Y57071D02*
Y57087D01*
X33760Y52461D02*
X33858Y52559D01*
X25984Y52461D02*
X33760D01*
X211130Y57071D02*
X211508Y56693D01*
X214173D01*
X198819Y38976D02*
Y42520D01*
X192126Y38583D02*
Y42612D01*
X167323Y18898D02*
X172441D01*
X162205D02*
X167323D01*
X21260Y101661D02*
Y111417D01*
Y101339D02*
Y101661D01*
X23142Y103543D01*
X21142Y101543D02*
X21260Y101661D01*
X14567Y43701D02*
Y47290D01*
Y43307D02*
Y43701D01*
X181890Y7087D02*
Y11024D01*
X127559Y8817D02*
X127797Y9055D01*
X127559Y5118D02*
Y8817D01*
X14567Y24409D02*
X18898D01*
X12598Y49259D02*
Y50906D01*
X10630Y43701D02*
Y47290D01*
X12598Y49259D01*
X14567Y47290D01*
X11024Y101339D02*
X11142Y101221D01*
X11024Y101339D02*
Y111417D01*
X21142Y101221D02*
X21260Y101339D01*
X23142Y103543D02*
X26378D01*
X34646Y83268D02*
Y88189D01*
Y83268D02*
X34646Y83268D01*
X44685Y80315D02*
X44861Y80491D01*
Y86237D01*
X33858Y52756D02*
X39370D01*
X25984Y48425D02*
Y52461D01*
X33858Y48031D02*
Y52559D01*
X97638Y59219D02*
X97793Y59374D01*
X97638Y55512D02*
Y59219D01*
X92421Y46457D02*
Y46465D01*
X92807Y46850D01*
X95276D01*
X99114Y39764D02*
X99213Y39862D01*
Y43701D01*
X109055Y6980D02*
Y7874D01*
Y6980D02*
X111705Y4331D01*
X114173D01*
X109055Y7874D02*
X109055Y7874D01*
X114173D01*
X109055Y7874D02*
Y8768D01*
X111705Y11417D01*
X114173D01*
X78740Y13091D02*
X78740Y13091D01*
Y9055D02*
Y13091D01*
X84252Y3937D02*
Y7283D01*
X85433Y8465D01*
X92913Y3937D02*
Y8071D01*
X93307Y8465D01*
X154134Y47638D02*
X159055D01*
X98013Y65256D02*
X101575D01*
Y71358D01*
Y65256D02*
X103914D01*
X97793Y65476D02*
X98013Y65256D01*
X92421Y65091D02*
X92807Y65476D01*
X92421Y63779D02*
Y65091D01*
X92807Y65476D02*
X97793D01*
X103088Y59412D02*
X103194D01*
X104331Y58276D01*
X127177Y28248D02*
X127559Y28630D01*
Y33858D01*
X88090Y34547D02*
X93307D01*
X87303Y63779D02*
Y69291D01*
X88742Y70730D02*
X89923D01*
X87303Y69291D02*
X88742Y70730D01*
X93537Y70177D02*
X95276D01*
X90445Y67086D02*
X93537Y70177D01*
X90248Y64165D02*
Y66523D01*
X90445Y66720D01*
Y67086D01*
X314650Y119516D02*
Y129776D01*
X315393Y130520D01*
X315634D01*
X313665Y118532D02*
X314650Y119516D01*
X89862Y63779D02*
X90248Y64165D01*
X173048Y145433D02*
X173634Y144847D01*
Y141378D02*
Y144847D01*
X167335Y145433D02*
X167335Y145433D01*
X173048D01*
X167335Y140689D02*
Y145433D01*
X154780Y152190D02*
X158772Y148197D01*
X154780Y152190D02*
Y153909D01*
X158772Y145433D02*
X167335D01*
X158772D02*
Y148197D01*
X173634Y131019D02*
Y134488D01*
Y131019D02*
Y134488D01*
X167335Y130800D02*
X167701Y130433D01*
X167335Y130800D02*
Y135177D01*
Y130433D02*
X167701D01*
X173048D02*
X173634Y131019D01*
X173048Y130433D02*
X173634Y131019D01*
X167701Y130433D02*
X173048D01*
X167335Y130800D02*
X167701Y130433D01*
X173048D01*
X158772D02*
X167335D01*
X167701D01*
X167335Y130800D02*
Y135177D01*
X158772Y130433D02*
X167335D01*
X158772Y119626D02*
X159953Y118445D01*
X158772Y119626D02*
X159953Y118445D01*
X158772Y119626D02*
Y130433D01*
Y119626D02*
Y130433D01*
X134909D02*
X135150D01*
X126783D02*
X134909D01*
X134165Y129689D02*
X134909Y130433D01*
X133181Y118445D02*
X134165Y119429D01*
Y129689D01*
X126587Y130630D02*
Y135177D01*
X120287Y131019D02*
Y134142D01*
X126587Y130630D02*
X126783Y130433D01*
X120873D02*
X126783D01*
X120287Y131019D02*
X120873Y130433D01*
X143267Y153814D02*
X143362Y153909D01*
X138116Y146467D02*
X143267Y151617D01*
Y153814D01*
X135094Y145661D02*
X135900Y146467D01*
X138116D01*
X126587Y145433D02*
X126587Y145433D01*
X135150D01*
X126587Y140689D02*
Y145433D01*
Y140689D02*
Y145433D01*
X120996Y145433D02*
X126587D01*
X120996D02*
X126587D01*
X126587Y145433D02*
X126587Y145433D01*
X120119Y144556D02*
X120996Y145433D01*
X120119Y144556D02*
X120996Y145433D01*
X120119Y141111D02*
Y144556D01*
X120090Y141083D02*
X120119Y141111D01*
Y144556D01*
X120090Y141083D02*
X120119Y141111D01*
X339256Y145520D02*
X347819D01*
X347819Y140776D02*
Y145520D01*
X347819Y145520D02*
X353532D01*
X347819Y145520D02*
X347819Y145520D01*
X354118Y141465D02*
Y144934D01*
X353532Y145520D02*
X354118Y144934D01*
X339256Y145520D02*
Y148284D01*
X335264Y152276D02*
Y153996D01*
Y152276D02*
X339256Y148284D01*
X252839Y145520D02*
X261402D01*
X261402Y140776D02*
Y145520D01*
X261402Y145520D02*
X267115D01*
X261402Y145520D02*
X261402Y145520D01*
X267701Y141465D02*
Y144934D01*
X267115Y145520D02*
X267701Y144934D01*
X252839Y145520D02*
Y148284D01*
X248847Y152276D02*
Y153996D01*
Y152276D02*
X252839Y148284D01*
X71315Y145067D02*
X79878D01*
X79878Y140323D02*
Y145067D01*
X79878Y145067D02*
X85591D01*
X79878Y145067D02*
X79878Y145067D01*
X86177Y141012D02*
Y144481D01*
X85591Y145067D02*
X86177Y144481D01*
X71315Y145067D02*
Y147831D01*
X67323Y151823D02*
Y153543D01*
Y151823D02*
X71315Y147831D01*
X160138Y74016D02*
X160531Y74410D01*
X155118Y61024D02*
X156587Y62492D01*
X152694Y71138D02*
X153157D01*
X152572Y71260D02*
X152694Y71138D01*
X145669Y71260D02*
X152572D01*
X153642Y70472D02*
Y70653D01*
X153157Y71138D02*
X153642Y70653D01*
X154035Y70472D02*
Y74016D01*
X160138Y69685D02*
Y74016D01*
Y66043D02*
Y69685D01*
X155118Y61024D02*
X155512D01*
X156587Y62492D02*
X160138Y66043D01*
X228976Y130520D02*
X229217D01*
X228232Y129776D02*
X228976Y130520D01*
X227248Y118532D02*
X228232Y119516D01*
Y129776D01*
X237334Y153901D02*
X237429Y153996D01*
X232183Y146553D02*
X237334Y151704D01*
Y153901D01*
X229161Y145748D02*
X229966Y146553D01*
X232183D01*
X267701Y131105D02*
Y134575D01*
Y131105D02*
Y134575D01*
X261402Y130886D02*
X261768Y130520D01*
X261402Y130886D02*
Y135264D01*
Y130520D02*
X261768D01*
X267115D02*
X267701Y131105D01*
X267115Y130520D02*
X267701Y131105D01*
X261768Y130520D02*
X267115D01*
X261402D02*
X261768D01*
X267115D01*
X261402Y130886D02*
X261768Y130520D01*
X252839D02*
X261402D01*
Y130886D02*
Y135264D01*
X252839Y130520D02*
X261402D01*
X252839Y119713D02*
X254020Y118532D01*
X252839Y119713D02*
X254020Y118532D01*
X252839Y119713D02*
Y130520D01*
Y119713D02*
Y130520D01*
X220850D02*
X228976D01*
X220654Y130717D02*
Y135264D01*
X214354Y131105D02*
Y134229D01*
X220654Y130717D02*
X220850Y130520D01*
X214940D02*
X220850D01*
X214354Y131105D02*
X214940Y130520D01*
X220654Y145520D02*
X220654Y145520D01*
X229217D01*
X220654Y140776D02*
Y145520D01*
Y140776D02*
Y145520D01*
X215063Y145520D02*
X220654D01*
X215063D02*
X220654D01*
X220654Y145520D02*
X220654Y145520D01*
X214186Y144643D02*
X215063Y145520D01*
X214186Y144643D02*
X215063Y145520D01*
X214186Y141198D02*
Y144643D01*
X214158Y141169D02*
X214186Y141198D01*
Y144643D01*
X214158Y141169D02*
X214186Y141198D01*
X156587Y62492D02*
Y62492D01*
X122516Y73646D02*
X126291D01*
X122047Y74114D02*
X122516Y73646D01*
X126291D02*
X126464Y73819D01*
X129134D01*
X154429Y74410D02*
Y79134D01*
X154035Y74016D02*
X154429Y74410D01*
X307268Y130520D02*
X315393D01*
X307071Y130717D02*
Y135264D01*
X300772Y131105D02*
Y134229D01*
X307071Y130717D02*
X307268Y130520D01*
X301357D02*
X307268D01*
X300772Y131105D02*
X301357Y130520D01*
X307071Y145520D02*
X307071Y145520D01*
X315634D01*
X307071Y140776D02*
Y145520D01*
Y140776D02*
Y145520D01*
X301480Y145520D02*
X307071D01*
X301480D02*
X307071D01*
X307071Y145520D02*
X307071Y145520D01*
X300603Y144643D02*
X301480Y145520D01*
X300603Y144643D02*
X301480Y145520D01*
X300603Y141198D02*
Y144643D01*
X300575Y141169D02*
X300603Y141198D01*
Y144643D01*
X300575Y141169D02*
X300603Y141198D01*
X323751Y153901D02*
X323846Y153996D01*
X318600Y146553D02*
X323751Y151704D01*
Y153901D01*
X315579Y145748D02*
X316384Y146553D01*
X318600D01*
X354118Y131105D02*
Y134575D01*
Y131105D02*
Y134575D01*
X347819Y130520D02*
X348185D01*
X347819Y130886D02*
Y135264D01*
Y130520D02*
X348185D01*
X353532D02*
X354118Y131105D01*
X353532Y130520D02*
X354118Y131105D01*
X348185Y130520D02*
X353532D01*
X347819Y130886D02*
X348185Y130520D01*
X353532D01*
X347819Y130886D02*
X348185Y130520D01*
X339256D02*
X347819D01*
Y130886D02*
Y135264D01*
X339256Y130520D02*
X347819D01*
X339256Y119713D02*
X340437Y118532D01*
X339256Y119713D02*
X340437Y118532D01*
X339256Y119713D02*
Y130520D01*
Y119713D02*
Y130520D01*
X47453Y130067D02*
X47693D01*
X46709Y129323D02*
X47453Y130067D01*
X45724Y118079D02*
X46709Y119063D01*
Y129323D01*
X55810Y153448D02*
X55905Y153543D01*
X50659Y146100D02*
X55810Y151251D01*
Y153448D01*
X47638Y145295D02*
X48443Y146100D01*
X50659D01*
X86177Y130653D02*
Y134122D01*
Y130653D02*
Y134122D01*
X79878Y130433D02*
X80244Y130067D01*
X79878Y130433D02*
Y134811D01*
Y130067D02*
X80244D01*
X85591D02*
X86177Y130653D01*
X85591Y130067D02*
X86177Y130653D01*
X80244Y130067D02*
X85591D01*
X79878Y130433D02*
X80244Y130067D01*
X85591D01*
X71315D02*
X79878D01*
X80244D01*
X79878Y130433D02*
Y134811D01*
X71315Y130067D02*
X79878D01*
X71315Y119260D02*
X72496Y118079D01*
X71315Y119260D02*
X72496Y118079D01*
X71315Y119260D02*
Y130067D01*
Y119260D02*
Y130067D01*
X39327D02*
X47453D01*
X39130Y130264D02*
Y134811D01*
X32831Y130653D02*
Y133776D01*
X39130Y130264D02*
X39327Y130067D01*
X33417D02*
X39327D01*
X32831Y130653D02*
X33417Y130067D01*
X39130Y145067D02*
X39130Y145067D01*
X47693D01*
X39130Y140323D02*
Y145067D01*
Y140323D02*
Y145067D01*
X33539Y145067D02*
X39130D01*
X33539D02*
X39130D01*
X39130Y145067D02*
X39130Y145067D01*
X32662Y144190D02*
X33539Y145067D01*
X32662Y144190D02*
X33539Y145067D01*
X32662Y140745D02*
Y144190D01*
X32634Y140717D02*
X32662Y140745D01*
Y144190D01*
X32634Y140717D02*
X32662Y140745D01*
D24*
X192126Y48714D02*
D03*
Y42612D02*
D03*
X78740Y19193D02*
D03*
Y13091D02*
D03*
X93307Y28445D02*
D03*
Y34547D02*
D03*
X89764Y77854D02*
D03*
Y71752D02*
D03*
X25984Y52461D02*
D03*
Y58563D02*
D03*
X103937Y59153D02*
D03*
Y65256D02*
D03*
X122047Y80216D02*
D03*
Y74114D02*
D03*
X79528Y78248D02*
D03*
Y72146D02*
D03*
D25*
X198819Y48031D02*
D03*
Y42520D02*
D03*
X267701Y135165D02*
D03*
Y140677D02*
D03*
X323846Y153996D02*
D03*
Y159508D02*
D03*
X237429D02*
D03*
Y153996D02*
D03*
X334870Y159508D02*
D03*
Y153996D02*
D03*
X248453Y159508D02*
D03*
Y153996D02*
D03*
X261402Y135264D02*
D03*
Y140776D02*
D03*
X347819Y135264D02*
D03*
Y140776D02*
D03*
X220654Y135264D02*
D03*
Y140776D02*
D03*
X307071Y135264D02*
D03*
Y140776D02*
D03*
X265732Y124929D02*
D03*
Y119417D02*
D03*
X352150D02*
D03*
Y124929D02*
D03*
X259827D02*
D03*
Y119417D02*
D03*
X346244D02*
D03*
Y124929D02*
D03*
X120287Y135177D02*
D03*
Y140689D02*
D03*
X173634Y135079D02*
D03*
Y140591D02*
D03*
X143362Y153909D02*
D03*
Y159421D02*
D03*
X154386D02*
D03*
Y153909D02*
D03*
X167335Y135177D02*
D03*
Y140689D02*
D03*
X126587Y135177D02*
D03*
Y140689D02*
D03*
X171665Y119331D02*
D03*
Y124843D02*
D03*
X165760Y119331D02*
D03*
Y124843D02*
D03*
X86177Y134713D02*
D03*
Y140224D02*
D03*
X66929Y159055D02*
D03*
Y153543D02*
D03*
X55905Y159055D02*
D03*
Y153543D02*
D03*
X32831Y134811D02*
D03*
Y140323D02*
D03*
X78303Y118965D02*
D03*
Y124476D02*
D03*
X84209Y118965D02*
D03*
Y124476D02*
D03*
X79878Y134811D02*
D03*
Y140323D02*
D03*
X39130D02*
D03*
Y134811D02*
D03*
X300772Y135264D02*
D03*
Y140776D02*
D03*
X214354D02*
D03*
Y135264D02*
D03*
X354118Y135165D02*
D03*
Y140677D02*
D03*
D26*
X138299Y112146D02*
D03*
X143811D02*
D03*
X50842Y111780D02*
D03*
X56354D02*
D03*
X149323Y118445D02*
D03*
X143811D02*
D03*
X61866Y118079D02*
D03*
X56354D02*
D03*
X45724D02*
D03*
X51236D02*
D03*
X133181Y118445D02*
D03*
X138693D02*
D03*
X334925Y118532D02*
D03*
X329807Y118532D02*
D03*
Y112232D02*
D03*
X324295D02*
D03*
Y118532D02*
D03*
X319177D02*
D03*
X248508Y118532D02*
D03*
X243390Y118532D02*
D03*
Y112232D02*
D03*
X232760Y118532D02*
D03*
X237878Y112232D02*
D03*
Y118532D02*
D03*
X154441Y118445D02*
D03*
X149323Y112146D02*
D03*
X66984Y118079D02*
D03*
X61866Y111780D02*
D03*
X227248Y118532D02*
D03*
X313665D02*
D03*
X254020Y118532D02*
D03*
X340437D02*
D03*
X229161Y172500D02*
D03*
X223650D02*
D03*
X315579D02*
D03*
X310067D02*
D03*
X252165Y183858D02*
D03*
X257677D02*
D03*
X338583D02*
D03*
X344094D02*
D03*
X205118Y57087D02*
D03*
X210630D02*
D03*
X192520Y66929D02*
D03*
X187008D02*
D03*
X127685Y125819D02*
D03*
X122173D02*
D03*
X154835Y112146D02*
D03*
X159953Y118445D02*
D03*
X135094Y172413D02*
D03*
X129583D02*
D03*
X158098Y183772D02*
D03*
X163610D02*
D03*
X40228Y125453D02*
D03*
X34717D02*
D03*
X216240Y125906D02*
D03*
X221752D02*
D03*
X308169D02*
D03*
X302658D02*
D03*
X67378Y111780D02*
D03*
X232366Y112232D02*
D03*
X248902D02*
D03*
X335319D02*
D03*
X318783D02*
D03*
X72496Y118079D02*
D03*
X42126Y172047D02*
D03*
X47638D02*
D03*
X76153Y183405D02*
D03*
X70642D02*
D03*
X135094Y178319D02*
D03*
X129583D02*
D03*
X135094Y184224D02*
D03*
X129583D02*
D03*
X42126Y177953D02*
D03*
X47638D02*
D03*
X223650Y178405D02*
D03*
X229161D02*
D03*
X310067D02*
D03*
X315579D02*
D03*
X42126Y183858D02*
D03*
X47638D02*
D03*
X223650Y184311D02*
D03*
X229161D02*
D03*
X310067D02*
D03*
X315579D02*
D03*
D27*
X183465Y47244D02*
D03*
X173228D02*
D03*
X45669Y64961D02*
D03*
X55905D02*
D03*
X165748Y61024D02*
D03*
X155512D02*
D03*
D28*
X192717Y79134D02*
D03*
X181299D02*
D03*
X56102Y80315D02*
D03*
X44685D02*
D03*
X149016Y61024D02*
D03*
X137598D02*
D03*
X165551Y47638D02*
D03*
X154134D02*
D03*
D29*
X187106Y72441D02*
D03*
X193209D02*
D03*
X160138Y69685D02*
D03*
X154035D02*
D03*
X131004Y62992D02*
D03*
X124902D02*
D03*
X81201Y39764D02*
D03*
X87303D02*
D03*
X157579Y54331D02*
D03*
X163681D02*
D03*
D30*
X167323Y36220D02*
D03*
Y18898D02*
D03*
X109055Y25197D02*
D03*
Y7874D02*
D03*
D31*
X181890Y24114D02*
D03*
Y30217D02*
D03*
X127177Y22145D02*
D03*
Y28248D02*
D03*
X95276Y76279D02*
D03*
Y70177D02*
D03*
X101575Y71358D02*
D03*
Y77461D02*
D03*
X97793Y65476D02*
D03*
Y59374D02*
D03*
X8661Y30610D02*
D03*
Y24508D02*
D03*
D32*
X34646Y71850D02*
D03*
Y83268D02*
D03*
X93307Y19882D02*
D03*
Y8465D02*
D03*
X85433Y19882D02*
D03*
Y8465D02*
D03*
X33465Y64370D02*
D03*
Y52953D02*
D03*
X129568Y55496D02*
D03*
Y44079D02*
D03*
X64567Y72244D02*
D03*
Y83661D02*
D03*
X72835Y72244D02*
D03*
Y83661D02*
D03*
D33*
X315579Y145748D02*
D03*
X229161D02*
D03*
X135094Y145661D02*
D03*
X47638Y145295D02*
D03*
D34*
X315579Y140748D02*
D03*
Y135748D02*
D03*
Y130748D02*
D03*
X339201D02*
D03*
Y135748D02*
D03*
Y140748D02*
D03*
Y145748D02*
D03*
X252783D02*
D03*
Y140748D02*
D03*
Y135748D02*
D03*
Y130748D02*
D03*
X229161D02*
D03*
Y135748D02*
D03*
Y140748D02*
D03*
X135094Y140661D02*
D03*
Y135661D02*
D03*
Y130661D02*
D03*
X158716D02*
D03*
Y135661D02*
D03*
Y140661D02*
D03*
Y145661D02*
D03*
X71260Y145295D02*
D03*
Y140295D02*
D03*
Y135295D02*
D03*
Y130295D02*
D03*
X47638D02*
D03*
Y135295D02*
D03*
Y140295D02*
D03*
D35*
X11142Y76732D02*
D03*
X21142D02*
D03*
X11142Y101221D02*
D03*
X21142D02*
D03*
D36*
X186811Y61122D02*
D03*
Y57382D02*
D03*
Y53642D02*
D03*
X197638D02*
D03*
Y57382D02*
D03*
Y61122D02*
D03*
D37*
X88090Y34252D02*
D03*
X81988D02*
D03*
X154331Y74410D02*
D03*
X160433D02*
D03*
Y79134D02*
D03*
X154331D02*
D03*
X99114Y39764D02*
D03*
X93012D02*
D03*
D38*
X127797Y15354D02*
D03*
Y9055D02*
D03*
X181890Y17323D02*
D03*
Y11024D02*
D03*
X14567Y24409D02*
D03*
Y30709D02*
D03*
D39*
X84744Y46457D02*
D03*
X87303D02*
D03*
X89862D02*
D03*
X92421D02*
D03*
X84744Y63779D02*
D03*
X87303D02*
D03*
X89862D02*
D03*
X92421D02*
D03*
D40*
X145669Y68701D02*
D03*
Y71260D02*
D03*
Y73819D02*
D03*
Y76378D02*
D03*
X129134Y68701D02*
D03*
Y71260D02*
D03*
Y73819D02*
D03*
Y76378D02*
D03*
D41*
X137402Y72539D02*
D03*
D42*
X74319Y63410D02*
D03*
Y48606D02*
D03*
D43*
X55118Y38583D02*
D03*
Y7087D02*
D03*
D44*
X120472Y56693D02*
D03*
Y46457D02*
D03*
D45*
X58780Y175094D02*
D03*
X146236Y175461D02*
D03*
X240303Y175547D02*
D03*
X326720D02*
D03*
X75366Y175531D02*
D03*
X162823Y175898D02*
D03*
X256890Y175984D02*
D03*
X343307D02*
D03*
D73*
X302047Y245335D02*
D03*
X352047Y235335D02*
D03*
Y225335D02*
D03*
Y245335D02*
D03*
X302047Y235335D02*
D03*
Y225335D02*
D03*
X215630D02*
D03*
Y235335D02*
D03*
X265630Y245335D02*
D03*
Y225335D02*
D03*
Y235335D02*
D03*
X215630Y245335D02*
D03*
X121563Y245248D02*
D03*
X171563Y235248D02*
D03*
Y225248D02*
D03*
Y245248D02*
D03*
X121563Y235248D02*
D03*
Y225248D02*
D03*
X34106Y224882D02*
D03*
Y234882D02*
D03*
X84106Y244882D02*
D03*
Y224882D02*
D03*
Y234882D02*
D03*
X34106Y244882D02*
D03*
D80*
X182008Y35827D02*
D03*
X127559Y33858D02*
D03*
X133858Y9449D02*
D03*
X80709Y83465D02*
D03*
X202756Y72047D02*
D03*
X219291Y119291D02*
D03*
X198031Y66929D02*
D03*
X177220Y124776D02*
D03*
X271287Y124862D02*
D03*
X89764Y124409D02*
D03*
X357705Y124862D02*
D03*
D81*
X101423Y77461D02*
X102112Y76772D01*
X118778Y48228D02*
X119488D01*
X112992Y54014D02*
X118778Y48228D01*
X119488D02*
X120472Y47244D01*
Y46534D02*
Y47244D01*
X112992Y54014D02*
Y68165D01*
X104385Y76772D02*
X112992Y68165D01*
X102112Y76772D02*
X104385D01*
D82*
X48031Y172047D02*
Y178740D01*
X47638Y171654D02*
X48031Y172047D01*
X47638Y168545D02*
Y171654D01*
X47815Y168155D02*
X47921Y168261D01*
X47638Y168545D02*
X47921Y168261D01*
X229595Y168350D02*
Y174509D01*
X229161Y172500D02*
X229595Y172066D01*
X315831Y173232D02*
X315862D01*
X315579Y173484D02*
X315831Y173232D01*
X315579Y173484D02*
Y178405D01*
X192520Y67323D02*
X193110Y67913D01*
X197234Y72303D02*
X197385Y72454D01*
X192520Y66929D02*
Y67323D01*
X193504Y67913D02*
X197234Y71643D01*
X193110Y67913D02*
X193504D01*
X197234Y71643D02*
Y72303D01*
X221752Y121772D02*
Y125906D01*
X219291Y119311D02*
X221752Y121772D01*
X219291Y119291D02*
Y119311D01*
X70551Y184283D02*
Y194882D01*
Y177803D02*
Y184193D01*
X158008Y184650D02*
Y195248D01*
Y178169D02*
Y184559D01*
X252075Y184736D02*
Y195335D01*
X252165Y178165D02*
Y184646D01*
X338583Y178165D02*
X340370Y176378D01*
X342126D01*
X338583Y178165D02*
Y184646D01*
X338492D02*
Y195335D01*
X181949Y30276D02*
Y35767D01*
X181890Y30217D02*
X181949Y30276D01*
X127797Y15354D02*
Y21525D01*
X127177Y22145D02*
X127797Y21525D01*
X181890Y17323D02*
Y24114D01*
X221752Y125841D02*
X221856Y125945D01*
X196850Y72047D02*
X202756D01*
X40228Y125389D02*
X40361Y125522D01*
X95276Y76279D02*
Y79921D01*
X308209Y125945D02*
X311772D01*
X308169Y125906D02*
X308209Y125945D01*
X311772D02*
X311811Y125984D01*
X40361Y125522D02*
X42845D01*
X42913Y125591D01*
X135094Y173988D02*
X135488Y174382D01*
X135094Y173429D02*
X135378Y173146D01*
Y168264D02*
Y173146D01*
X171665Y124843D02*
X171732Y124776D01*
X177220D01*
X165781Y127510D02*
X165803Y127532D01*
X165781Y125433D02*
Y127510D01*
X165585Y125236D02*
X165781Y125433D01*
X165366Y125236D02*
X165585D01*
X165760Y124843D02*
X171665D01*
X135478Y185799D02*
X135685Y185592D01*
X135478Y185799D02*
Y195006D01*
X135685Y179303D02*
Y185592D01*
X135488Y179106D02*
X135685Y179303D01*
X135488Y174382D02*
Y179106D01*
X127685Y125755D02*
X128276Y125164D01*
X127685Y125755D02*
Y125819D01*
X128276Y125164D02*
X129790D01*
X129941Y125013D01*
X158008Y178169D02*
X159886Y176291D01*
X163216D01*
X162823Y175898D02*
X163216Y176291D01*
X159774Y175898D02*
X161642D01*
X157019Y171275D02*
Y173142D01*
X159774Y175898D01*
X143953Y160012D02*
X145756D01*
X157019Y171275D01*
X143362Y159421D02*
X143953Y160012D01*
X154471Y162427D02*
X154555Y162512D01*
X150157Y194895D02*
X150510Y195248D01*
X154471Y159506D02*
Y162427D01*
X154386Y159421D02*
X154471Y159506D01*
X150157Y185263D02*
Y194895D01*
X150006Y185112D02*
X150157Y185263D01*
X147251Y175461D02*
X150006Y178217D01*
Y185112D01*
X146236Y175461D02*
X147251D01*
X150277Y140266D02*
X158604D01*
X158772Y140433D01*
X150110Y140099D02*
X150277Y140266D01*
X145445Y135433D02*
X150110Y140099D01*
X135543Y135433D02*
X145445D01*
X140971Y140577D02*
X141055Y140492D01*
X135094Y140661D02*
X135179Y140577D01*
X140971D01*
X135150Y140433D02*
X135179Y140463D01*
X221856Y125945D02*
X224370D01*
X342126Y176378D02*
X343701D01*
X253953D02*
X255709D01*
X252165Y178165D02*
X253953Y176378D01*
X255709D02*
X257283D01*
X72429Y175925D02*
X75760D01*
X72318Y175531D02*
X74185D01*
X70551Y177803D02*
X72429Y175925D01*
X339089Y140352D02*
X339256Y140520D01*
X330762Y140352D02*
X339089D01*
X325929Y135520D02*
X330594Y140185D01*
X330762Y140352D01*
X316028Y135520D02*
X325929D01*
X244344Y140352D02*
X252671D01*
X252839Y140520D01*
X239512Y135520D02*
X244177Y140185D01*
X244344Y140352D01*
X229610Y135520D02*
X239512D01*
X62821Y139900D02*
X71148D01*
X71315Y140067D01*
X57988Y135067D02*
X62653Y139732D01*
X62821Y139900D01*
X48087Y135067D02*
X57988D01*
X315634Y140520D02*
X315663Y140549D01*
X315663Y140663D02*
X321455D01*
X315579Y140748D02*
X315663Y140663D01*
X321455D02*
X321539Y140579D01*
X229161Y140748D02*
X229246Y140663D01*
X235037D01*
X229217Y140520D02*
X229246Y140549D01*
X235037Y140663D02*
X235122Y140579D01*
X47722Y140211D02*
X53514D01*
X47693Y140067D02*
X47722Y140096D01*
X47638Y140295D02*
X47722Y140211D01*
X53514D02*
X53598Y140126D01*
X259848Y127596D02*
X259870Y127618D01*
X259848Y125520D02*
Y127596D01*
X259652Y125323D02*
X259848Y125520D01*
X259433Y125323D02*
X259652D01*
X259827Y124929D02*
X265732D01*
X265799Y124862D01*
X271287D01*
X229555Y174469D02*
X229595Y174509D01*
X229545Y185886D02*
X229752Y185679D01*
X229545Y185886D02*
Y195092D01*
X229752Y179390D02*
Y185679D01*
X229555Y179193D02*
X229752Y179390D01*
X229555Y174469D02*
Y179193D01*
X256890Y175984D02*
X257283Y176378D01*
X251086Y171361D02*
Y173228D01*
X253841Y175984D01*
X238020Y160098D02*
X239823D01*
X251086Y171361D01*
X237429Y159508D02*
X238020Y160098D01*
X248537Y162514D02*
X248622Y162598D01*
X244224Y194982D02*
X244577Y195335D01*
X248537Y159592D02*
Y162514D01*
X248453Y159508D02*
X248537Y159592D01*
X244224Y185350D02*
Y194982D01*
X244074Y185199D02*
X244224Y185350D01*
X241318Y175547D02*
X244074Y178303D01*
Y185199D01*
X240303Y175547D02*
X241318D01*
X78303Y124476D02*
X84209D01*
X77909Y124870D02*
X78128D01*
X78325Y125067D01*
X84276Y124409D02*
X89764D01*
X78325Y125067D02*
Y127144D01*
X84209Y124476D02*
X84276Y124409D01*
X78325Y127144D02*
X78347Y127165D01*
X48022Y185433D02*
Y194640D01*
X48031Y178740D02*
X48228Y178937D01*
X48022Y185433D02*
X48228Y185226D01*
Y178937D02*
Y185226D01*
X315972Y179193D02*
X316169Y179390D01*
Y185679D01*
X315862Y168350D02*
Y173232D01*
X315963Y185886D02*
Y195092D01*
Y185886D02*
X316169Y185679D01*
X346244Y124929D02*
X352150D01*
X345850Y125323D02*
X346069D01*
X346266Y125520D01*
Y127596D01*
X352150Y124929D02*
X352217Y124862D01*
X357705D01*
X346266Y127596D02*
X346287Y127618D01*
X343307Y175984D02*
X343701Y176378D01*
X337503Y171361D02*
Y173228D01*
X340259Y175984D01*
X324437Y160098D02*
X326240D01*
X337503Y171361D01*
X323846Y159508D02*
X324437Y160098D01*
X334955Y162514D02*
X335039Y162598D01*
X330641Y194982D02*
X330994Y195335D01*
X334955Y159592D02*
Y162514D01*
X334870Y159508D02*
X334955Y159592D01*
X330641Y185350D02*
Y194982D01*
X330491Y185199D02*
X330641Y185350D01*
X327735Y175547D02*
X330491Y178303D01*
Y185199D01*
X326720Y175547D02*
X327735D01*
X75366Y175531D02*
X75760Y175925D01*
X69562Y170908D02*
Y172776D01*
X72318Y175531D01*
X56496Y159646D02*
X58299D01*
X69562Y170908D01*
X55905Y159055D02*
X56496Y159646D01*
X67014Y162061D02*
X67098Y162146D01*
X62700Y194529D02*
X63053Y194882D01*
X67014Y159140D02*
Y162061D01*
X66929Y159055D02*
X67014Y159140D01*
X62700Y184897D02*
Y194529D01*
X62550Y184746D02*
X62700Y184897D01*
X59794Y175094D02*
X62550Y177850D01*
Y184746D01*
X58780Y175094D02*
X59794D01*
X197677Y57087D02*
X205118D01*
D83*
X90059Y43269D02*
Y46260D01*
Y43269D02*
X92028Y41301D01*
X87303Y39764D02*
Y46457D01*
X92028Y40748D02*
X93012Y39764D01*
X92028Y40748D02*
Y41301D01*
X89862Y46457D02*
X90059Y46260D01*
D84*
X149016Y61024D02*
Y62224D01*
D85*
X11811Y11811D02*
D03*
X374016D02*
D03*
X9843Y372047D02*
D03*
X375984D02*
D03*
D86*
X345472Y55876D02*
D03*
X284449D02*
D03*
D87*
X337461Y43868D02*
D03*
X292461D02*
D03*
D88*
X332441Y78868D02*
D03*
X327441Y68868D02*
D03*
X322441Y78868D02*
D03*
X317441Y68868D02*
D03*
X312441Y78868D02*
D03*
X307441Y68868D02*
D03*
X302441Y78868D02*
D03*
X297441Y68868D02*
D03*
D89*
X338492Y195335D02*
D03*
X330994D02*
D03*
X323494D02*
D03*
X315996D02*
D03*
X229579D02*
D03*
X237077D02*
D03*
X244577D02*
D03*
X252075D02*
D03*
X158008Y195248D02*
D03*
X150510D02*
D03*
X143010D02*
D03*
X135512D02*
D03*
X48055Y194882D02*
D03*
X55553D02*
D03*
X63053D02*
D03*
X70551D02*
D03*
D90*
X12598Y50906D02*
D03*
Y60905D02*
D03*
D91*
X38559Y299287D02*
D03*
Y339287D02*
D03*
X78559Y299287D02*
D03*
X128383D02*
D03*
Y339287D02*
D03*
X168383Y299287D02*
D03*
X218207D02*
D03*
Y339287D02*
D03*
X258207Y299287D02*
D03*
X308032D02*
D03*
Y339287D02*
D03*
X348031Y299287D02*
D03*
D92*
X78559Y339287D02*
D03*
X168383D02*
D03*
X258207D02*
D03*
X348031D02*
D03*
D93*
X133858Y5118D02*
D03*
X160122Y54331D02*
D03*
X224370Y125945D02*
D03*
X44861Y86237D02*
D03*
X34646Y88189D02*
D03*
X97638Y55512D02*
D03*
X83858Y75197D02*
D03*
X68504Y63779D02*
D03*
X64567Y67323D02*
D03*
X79921Y63779D02*
D03*
X84252Y3937D02*
D03*
X102362Y7087D02*
D03*
X114173Y11417D02*
D03*
X173622Y34252D02*
D03*
Y37795D02*
D03*
Y41339D02*
D03*
X198819Y38976D02*
D03*
X182293Y60902D02*
D03*
X197385Y72454D02*
D03*
Y76391D02*
D03*
X192266Y62218D02*
D03*
X174016Y52362D02*
D03*
X214173Y56693D02*
D03*
X127559Y5118D02*
D03*
X95276Y79921D02*
D03*
X89764Y81102D02*
D03*
X351969Y115748D02*
D03*
X306075Y183609D02*
D03*
Y172192D02*
D03*
Y177901D02*
D03*
X125760Y183609D02*
D03*
Y172192D02*
D03*
Y177901D02*
D03*
X311811Y125984D02*
D03*
X95276Y46850D02*
D03*
X146063Y79134D02*
D03*
X42913Y125591D02*
D03*
X171653Y116114D02*
D03*
X144543Y186193D02*
D03*
X38189Y177756D02*
D03*
X139032Y165327D02*
D03*
X148623Y145784D02*
D03*
X153150Y135039D02*
D03*
X123228Y117717D02*
D03*
X166591Y116114D02*
D03*
X134252Y112205D02*
D03*
X113386Y109449D02*
D03*
X135528Y168264D02*
D03*
X165803Y127532D02*
D03*
X129941Y125013D02*
D03*
X154555Y162512D02*
D03*
X150006Y185112D02*
D03*
X150110Y140099D02*
D03*
X141055Y140492D02*
D03*
X176772Y78347D02*
D03*
X228346Y112205D02*
D03*
X330594Y140185D02*
D03*
X244177D02*
D03*
X62653Y139732D02*
D03*
X321539Y140579D02*
D03*
X235122D02*
D03*
X53598Y140126D02*
D03*
X164567Y79528D02*
D03*
X165354Y64567D02*
D03*
X182677Y72441D02*
D03*
X18898Y24409D02*
D03*
X21260Y111417D02*
D03*
X11024D02*
D03*
X158661Y112205D02*
D03*
X38189Y172047D02*
D03*
X139032Y159815D02*
D03*
X162205Y18898D02*
D03*
X259870Y127618D02*
D03*
X229595Y168350D02*
D03*
X219291Y177953D02*
D03*
X248622Y162598D02*
D03*
X244074Y185199D02*
D03*
X33858Y48031D02*
D03*
X114173Y4331D02*
D03*
Y7874D02*
D03*
X78740Y9055D02*
D03*
X120472Y64173D02*
D03*
X26378Y103543D02*
D03*
X129134Y79134D02*
D03*
X252756Y112205D02*
D03*
X14567Y43701D02*
D03*
X10630D02*
D03*
X25984Y48425D02*
D03*
X39370Y52756D02*
D03*
X72441Y55905D02*
D03*
X117717Y80315D02*
D03*
X137795Y66535D02*
D03*
X99213Y43701D02*
D03*
X137008Y54724D02*
D03*
X46457Y111417D02*
D03*
X30709Y121653D02*
D03*
X36220Y116929D02*
D03*
X79134Y115748D02*
D03*
X66142Y135039D02*
D03*
X61166Y145418D02*
D03*
X51575Y164961D02*
D03*
X57087Y185827D02*
D03*
X71260Y111811D02*
D03*
X172441Y18898D02*
D03*
X84646Y115354D02*
D03*
X116760Y169713D02*
D03*
X128177Y163413D02*
D03*
X81496Y183858D02*
D03*
X38189Y183465D02*
D03*
X136221Y40945D02*
D03*
X139370Y48031D02*
D03*
X192126Y38583D02*
D03*
X182283Y67323D02*
D03*
X159055Y47638D02*
D03*
X149606Y47244D02*
D03*
X181890Y7087D02*
D03*
X339370Y112205D02*
D03*
X261024Y115929D02*
D03*
X247638Y135433D02*
D03*
X219291Y172047D02*
D03*
X168110Y184252D02*
D03*
X219291Y183858D02*
D03*
X238583Y186221D02*
D03*
X265748Y115854D02*
D03*
X314961Y112205D02*
D03*
X308268Y116929D02*
D03*
X346850Y115748D02*
D03*
X327559Y131496D02*
D03*
X262205Y185039D02*
D03*
X334252Y135039D02*
D03*
X349213Y184646D02*
D03*
X324803Y186614D02*
D03*
X92913Y3937D02*
D03*
X78347Y127165D02*
D03*
X48072Y167898D02*
D03*
X170866Y52362D02*
D03*
X316013Y168350D02*
D03*
X346287Y127618D02*
D03*
X335039Y162598D02*
D03*
X330491Y185199D02*
D03*
X67098Y162146D02*
D03*
X62550Y184746D02*
D03*
D94*
X79528Y67716D02*
D03*
X72835Y68504D02*
D03*
D95*
X137402Y72539D02*
D03*
X135630Y74902D02*
D03*
X139173D02*
D03*
X135630Y70177D02*
D03*
X139173D02*
D03*
M02*
