G04*
G04 #@! TF.GenerationSoftware,Altium Limited,Altium Designer,24.10.1 (45)*
G04*
G04 Layer_Color=32896*
%FSLAX25Y25*%
%MOIN*%
G70*
G04*
G04 #@! TF.SameCoordinates,FAF2AA73-2D8A-4798-B806-2245389A78C8*
G04*
G04*
G04 #@! TF.FilePolarity,Positive*
G04*
G01*
G75*
%ADD15C,0.00787*%
%ADD97C,0.00013*%
G36*
X251424Y57089D02*
X251792Y56936D01*
X252109Y56693D01*
X252109Y56692D01*
X252109Y56692D01*
X252352Y56376D01*
X252505Y56007D01*
X252540Y55739D01*
X252557Y55611D01*
X252557Y55478D01*
Y34501D01*
X252546D01*
X252591Y34271D01*
X252722Y34076D01*
X252917Y33946D01*
X253147Y33900D01*
X253150Y33901D01*
X253279Y33911D01*
X267810D01*
Y33909D01*
X268031Y33866D01*
X268218Y33741D01*
X268288Y33636D01*
X268343Y33554D01*
X268387Y33333D01*
X268343Y33112D01*
X268218Y32925D01*
X268113Y32855D01*
X268031Y32800D01*
X267810Y32756D01*
Y32755D01*
X252930D01*
X252929Y32755D01*
X252538Y32807D01*
X252169Y32960D01*
X251946Y33131D01*
X251846Y33211D01*
X251608Y33520D01*
X251455Y33890D01*
X251403Y34287D01*
X251405Y34300D01*
X251403Y34300D01*
X251403Y34301D01*
Y55267D01*
X251414Y55397D01*
X251414Y55397D01*
X251368Y55628D01*
X251237Y55824D01*
X251041Y55954D01*
X250813Y56000D01*
X250813Y55989D01*
X250813Y55989D01*
X233565D01*
X233565Y55989D01*
X233565Y56000D01*
X233336Y55954D01*
X233140Y55824D01*
X233010Y55628D01*
X232964Y55397D01*
X232975Y55397D01*
Y34420D01*
X232975Y34287D01*
X232958Y34157D01*
X232923Y33890D01*
X232770Y33520D01*
X232526Y33203D01*
X232209Y32960D01*
X231839Y32807D01*
X231446Y32755D01*
Y32755D01*
X225191D01*
X225189Y32757D01*
X225189D01*
X224971Y32800D01*
X224884Y32858D01*
X224780Y32931D01*
X224659Y33112D01*
X224637Y33220D01*
X224616Y33339D01*
X224617Y33344D01*
X224640Y33469D01*
X224659Y33565D01*
X224784Y33752D01*
X224971Y33877D01*
X225189Y33920D01*
X225189Y33920D01*
Y33920D01*
X225191Y33922D01*
X231098D01*
X231228Y33912D01*
X231231Y33911D01*
X231461Y33957D01*
X231655Y34087D01*
X231656Y34087D01*
X231786Y34282D01*
X231832Y34512D01*
X231832Y34512D01*
X231821Y34642D01*
Y55478D01*
Y55611D01*
X231838Y55741D01*
X231873Y56007D01*
X232026Y56376D01*
X232268Y56692D01*
X232269Y56692D01*
X232269Y56693D01*
X232585Y56936D01*
X232954Y57089D01*
X233350Y57141D01*
X233350Y57140D01*
X251028D01*
X251028Y57141D01*
X251424Y57089D01*
D02*
G37*
G36*
X274488D02*
X274857Y56936D01*
X275173Y56693D01*
X275173Y56692D01*
X275174Y56692D01*
X275417Y56376D01*
X275570Y56007D01*
X275622Y55612D01*
X275621Y55611D01*
Y40382D01*
X275620D01*
X275576Y40161D01*
X275521Y40079D01*
X275451Y39974D01*
X275264Y39849D01*
X275169Y39830D01*
X275043Y39805D01*
Y39805D01*
X274823Y39849D01*
X274637Y39973D01*
X274513Y40159D01*
X274469Y40379D01*
X274470Y40382D01*
X274468Y40382D01*
X274468Y40382D01*
Y55394D01*
X274479Y55405D01*
X274433Y55636D01*
X274302Y55832D01*
X274106Y55963D01*
X273875Y56009D01*
Y55998D01*
X258873D01*
X258743Y56009D01*
X258741Y56010D01*
X258740Y56010D01*
X258617Y55960D01*
X258567Y55837D01*
X258567Y55836D01*
X258608Y55738D01*
X258690Y55634D01*
X274661Y33992D01*
X274661Y33990D01*
X274661Y33990D01*
X274744Y33934D01*
X274787Y33926D01*
X274789Y33925D01*
X291509D01*
X291639Y33915D01*
X291642Y33914D01*
X291872Y33960D01*
X292065Y34089D01*
X292065D01*
X292067Y34090D01*
X292197Y34285D01*
X292243Y34515D01*
Y34515D01*
X292232Y34644D01*
Y56448D01*
X292233Y56448D01*
X292277Y56668D01*
X292402Y56855D01*
X292589Y56980D01*
X292807Y57024D01*
Y57024D01*
X292936Y56999D01*
X293028Y56980D01*
X293110Y56925D01*
X293215Y56855D01*
X293340Y56668D01*
X293384Y56448D01*
X293386D01*
Y34420D01*
Y34287D01*
X293386D01*
X293369Y34157D01*
X293334Y33890D01*
X293180Y33520D01*
X292937Y33203D01*
X292620Y32960D01*
X292250Y32807D01*
X291856Y32755D01*
Y32755D01*
X274797D01*
X274790Y32762D01*
X274790D01*
X274490Y32802D01*
X274156Y32940D01*
X273869Y33160D01*
X273749Y33317D01*
X273749D01*
X273731Y33320D01*
X257028Y55925D01*
X257028Y55926D01*
X257037Y55933D01*
X256959Y56035D01*
X256886Y56212D01*
X256861Y56402D01*
X256886Y56592D01*
X256959Y56769D01*
X257076Y56920D01*
X257228Y57037D01*
X257404Y57110D01*
X257594Y57135D01*
X257640Y57129D01*
X257642Y57140D01*
X274092D01*
X274093Y57141D01*
X274488Y57089D01*
D02*
G37*
G36*
X243495Y25637D02*
X244290Y25478D01*
X245033Y25226D01*
X245034Y25223D01*
Y25223D01*
X245034Y25223D01*
X245613Y24938D01*
X246170Y24565D01*
X246674Y24123D01*
X246911Y23854D01*
X246912Y23854D01*
X247120Y23617D01*
X247570Y22943D01*
X247929Y22216D01*
X248114Y21670D01*
Y21670D01*
X248122Y21666D01*
X248350Y20754D01*
X248501Y19736D01*
X248551Y18709D01*
X248501Y17681D01*
X248350Y16662D01*
X248122Y15752D01*
X248113Y15747D01*
X248055Y15546D01*
X247781Y14885D01*
X247435Y14259D01*
X247022Y13676D01*
X246904Y13545D01*
X246903Y13546D01*
X246649Y13257D01*
X246157Y12825D01*
X245612Y12461D01*
X245043Y12181D01*
X245031Y12185D01*
D01*
X245031D01*
X245031D01*
X244790Y12085D01*
X244070Y11878D01*
X243332Y11752D01*
X242583Y11710D01*
X241835Y11752D01*
X241096Y11878D01*
X240376Y12085D01*
X240135Y12185D01*
X240135D01*
X240135D01*
D01*
X240126Y12181D01*
X239563Y12459D01*
X239003Y12833D01*
X238497Y13277D01*
X238253Y13555D01*
X238251Y13553D01*
X238144Y13672D01*
X237735Y14249D01*
X237392Y14869D01*
X237121Y15523D01*
X237054Y15756D01*
X237054D01*
X237046Y15761D01*
X236823Y16651D01*
X236672Y17671D01*
X236621Y18700D01*
X236672Y19730D01*
X236823Y20749D01*
X237046Y21641D01*
X237053Y21645D01*
X237053D01*
X237053Y21645D01*
X237237Y22187D01*
X237597Y22917D01*
X238049Y23594D01*
X238258Y23832D01*
X238259Y23832D01*
X238509Y24117D01*
X239011Y24557D01*
X239566Y24928D01*
X240127Y25205D01*
X240139Y25201D01*
X240462Y25335D01*
X241138Y25529D01*
X241830Y25647D01*
X242479Y25683D01*
X242613Y25682D01*
X242746Y25686D01*
X243495Y25637D01*
D02*
G37*
G36*
X273049Y25680D02*
X273183Y25683D01*
X273543Y25668D01*
X273676Y25662D01*
X274010Y25645D01*
X274011Y25644D01*
X274194Y25635D01*
X274454Y25597D01*
X274586Y25580D01*
X274871Y25531D01*
X274871Y25531D01*
Y25531D01*
X275135Y25486D01*
X275265Y25453D01*
X275420Y25422D01*
X275632Y25350D01*
X275632Y25350D01*
X275850Y25276D01*
X275975Y25233D01*
X275991Y25227D01*
X276100Y25186D01*
X276290Y25092D01*
X276414Y25040D01*
X276745Y24837D01*
X276854Y24769D01*
X276956Y24687D01*
X277270Y24419D01*
X277608Y24024D01*
X277893Y23558D01*
X277993Y23317D01*
X277993D01*
X278044Y23194D01*
X278115Y23022D01*
X278109Y23009D01*
X278176Y22811D01*
X278209Y22682D01*
X278235Y22555D01*
X278323Y22109D01*
X278309Y22052D01*
X278236Y21975D01*
X276987D01*
X276966Y22187D01*
X276830Y22634D01*
X276610Y23047D01*
X276313Y23408D01*
X275983Y23679D01*
X275952Y23705D01*
X275872Y23748D01*
Y23748D01*
X275671Y23856D01*
X275674Y23863D01*
X275452Y23955D01*
Y23955D01*
X275219Y24051D01*
X275220Y24053D01*
X275196Y24063D01*
X275092Y24088D01*
X274969Y24117D01*
X274963Y24127D01*
X274811Y24158D01*
X274687Y24182D01*
X274686Y24183D01*
X274685Y24183D01*
X274563Y24207D01*
X274395Y24240D01*
X274389Y24236D01*
X274214Y24266D01*
X274113Y24283D01*
X274084Y24287D01*
Y24287D01*
X273886Y24298D01*
X273752Y24306D01*
X273167Y24335D01*
X273053Y24341D01*
X273036Y24340D01*
X272902Y24339D01*
X272822Y24344D01*
X272115Y24297D01*
X271420Y24159D01*
X271006Y24019D01*
X271004Y24023D01*
X271004Y24024D01*
X270936Y24003D01*
X270880Y23973D01*
X270505Y23773D01*
X270127Y23462D01*
X269967Y23268D01*
X269884Y23167D01*
X269687Y22845D01*
X269513Y22424D01*
X269414Y22015D01*
X269406Y21982D01*
X269398Y21883D01*
X269384Y21750D01*
X269331Y21347D01*
X269289Y20387D01*
X269287Y20341D01*
Y20341D01*
X269290Y20267D01*
X269300Y20263D01*
X269300Y20262D01*
X269305Y20260D01*
X269305Y20260D01*
X269305D01*
X270897Y20260D01*
Y20259D01*
X270906Y20259D01*
X271530Y20239D01*
X271663Y20234D01*
X271797Y20230D01*
X272258Y20213D01*
X272391Y20205D01*
X272523Y20199D01*
X272525Y20198D01*
X272946Y20149D01*
X273078Y20133D01*
X273211Y20118D01*
X273726Y20050D01*
X273727Y20049D01*
X273904Y20025D01*
X274335Y19930D01*
Y19930D01*
X274466Y19903D01*
X274904Y19793D01*
X274905Y19792D01*
Y19792D01*
X275114Y19740D01*
X275434Y19625D01*
X275562Y19586D01*
X275924Y19436D01*
X276048Y19384D01*
X276560Y19131D01*
X276678Y19052D01*
X276787Y18979D01*
X277107Y18783D01*
X277584Y18375D01*
X277992Y17898D01*
X278320Y17362D01*
X278560Y16782D01*
X278707Y16171D01*
X278754Y15574D01*
X278751Y15484D01*
X278748Y15441D01*
X278748D01*
X278747Y15307D01*
X278710Y14829D01*
X278578Y14280D01*
X278476Y14034D01*
X278425Y13912D01*
X278425D01*
X278362Y13759D01*
X278074Y13289D01*
X277716Y12870D01*
X277554Y12731D01*
X277553Y12731D01*
X277293Y12509D01*
X276769Y12188D01*
X276371Y12023D01*
X276244Y11980D01*
X275936Y11875D01*
X275296Y11748D01*
X274737Y11711D01*
X274605Y11708D01*
X274472Y11710D01*
X273653Y11750D01*
X273309Y11802D01*
X273176Y11816D01*
X272533Y11944D01*
X272145Y12076D01*
X272021Y12118D01*
X271896Y12163D01*
X271332Y12397D01*
X270815Y12683D01*
X270701Y12753D01*
X270701D01*
X270304Y12991D01*
X269565Y13539D01*
X269515Y13585D01*
X269423Y13668D01*
X269309Y13771D01*
X269291Y13762D01*
X269289Y13757D01*
X269289Y13609D01*
Y13485D01*
Y12046D01*
X267910D01*
Y20733D01*
X267910Y20733D01*
X267915Y20733D01*
X267911Y20817D01*
X267956Y21621D01*
X268091Y22415D01*
X268200Y22796D01*
X268197Y22797D01*
X268227Y22923D01*
X268456Y23475D01*
X268768Y23984D01*
X269085Y24355D01*
X269179Y24448D01*
X269572Y24784D01*
X270103Y25110D01*
X270663Y25342D01*
X270673Y25337D01*
X271267Y25508D01*
X272067Y25644D01*
X272878Y25689D01*
X273049Y25680D01*
D02*
G37*
G36*
X233265Y12046D02*
X231885D01*
Y21762D01*
X231883Y21766D01*
X231887Y21770D01*
X231322Y22394D01*
X230583Y23064D01*
X229875Y23589D01*
X229782Y23658D01*
X229766Y23667D01*
X229761Y23660D01*
X229366Y23902D01*
X228783Y24144D01*
X228169Y24291D01*
X227565Y24339D01*
Y24339D01*
X227449Y24343D01*
X227432Y24341D01*
X226771Y24290D01*
X226224Y24158D01*
X226110Y24131D01*
X226095Y24124D01*
X225970Y24075D01*
X225960Y24072D01*
X225568Y23863D01*
X225224Y23581D01*
X225124Y23459D01*
X225125Y23459D01*
X225041Y23356D01*
X224969Y23269D01*
X224719Y22801D01*
X224580Y22342D01*
X224580Y22342D01*
X224456Y21613D01*
X224414Y20866D01*
X224412Y20830D01*
X224417Y20733D01*
X224423Y20600D01*
Y12046D01*
X223043D01*
Y20853D01*
X223043Y20853D01*
X223046Y20853D01*
X223044Y20875D01*
X223082Y21639D01*
X223093Y21771D01*
X223093D01*
X223101Y21917D01*
X223194Y22461D01*
X223221Y22592D01*
X223278Y22879D01*
X223427Y23316D01*
X223470Y23443D01*
X223616Y23795D01*
X223889Y24242D01*
X224230Y24640D01*
X224628Y24980D01*
X225069Y25250D01*
X225070Y25250D01*
X225070Y25250D01*
Y25250D01*
X225563Y25454D01*
X225691Y25487D01*
X225819Y25523D01*
X226417Y25642D01*
X227044Y25683D01*
X227157Y25684D01*
X227177Y25683D01*
Y25683D01*
X227309Y25677D01*
X227874Y25646D01*
X228202Y25590D01*
X228334Y25567D01*
X228706Y25493D01*
X229220Y25318D01*
X229345Y25274D01*
X229464Y25218D01*
X230010Y24948D01*
X230570Y24574D01*
X230571Y24568D01*
X230751Y24440D01*
X231455Y23811D01*
X231661Y23581D01*
X231743Y23489D01*
X231855Y23363D01*
X231869Y23369D01*
X231870Y23369D01*
X231875Y23371D01*
X231877Y23376D01*
X231877Y23540D01*
Y23540D01*
X231877Y23664D01*
X231885Y30844D01*
X233265D01*
Y12046D01*
D02*
G37*
G36*
X213369Y25680D02*
Y25680D01*
X213503Y25677D01*
X214043Y25646D01*
X214309Y25601D01*
X214309Y25601D01*
X214309Y25601D01*
D01*
X214318Y25608D01*
X214912Y25465D01*
X215344Y25286D01*
X215344D01*
X215345Y25286D01*
X215854Y25035D01*
X216498Y24605D01*
X216500Y24591D01*
Y24591D01*
X216739Y24414D01*
X217387Y23826D01*
X217610Y23580D01*
X217693Y23489D01*
X217693D01*
X217806Y23364D01*
X217819Y23369D01*
X217819Y23369D01*
X217819Y23369D01*
X217824Y23371D01*
X217825Y23371D01*
X217827Y23376D01*
Y23540D01*
X217827Y23664D01*
Y25346D01*
X219206D01*
Y12046D01*
X217827D01*
Y21728D01*
Y21728D01*
X217825Y21733D01*
X217827Y21734D01*
X217682Y21930D01*
X217039Y22639D01*
X216330Y23281D01*
X215833Y23650D01*
X215838Y23657D01*
X215372Y23942D01*
X214844Y24161D01*
X214288Y24295D01*
X213749Y24337D01*
Y24337D01*
X213650Y24340D01*
X213615Y24337D01*
X213128Y24299D01*
X212619Y24176D01*
X212613Y24174D01*
X212490Y24125D01*
X212430Y24106D01*
X212367Y24073D01*
X212111Y23936D01*
X211831Y23707D01*
X211649Y23485D01*
X211643Y23489D01*
X211643Y23489D01*
X211627Y23471D01*
X211575Y23373D01*
X211370Y22990D01*
X211221Y22497D01*
X211212Y22469D01*
X211202Y22366D01*
X211205Y22365D01*
X211110Y21728D01*
X211068Y20865D01*
X211067Y20851D01*
X211073Y20733D01*
X211078Y20600D01*
Y12041D01*
X209699D01*
Y21723D01*
X209697Y21727D01*
X209698Y21727D01*
X209530Y21953D01*
X208953Y22590D01*
X208317Y23167D01*
X207664Y23651D01*
X207662Y23647D01*
X207243Y23904D01*
X206670Y24141D01*
X206067Y24286D01*
X205625Y24321D01*
X205498Y24332D01*
Y24333D01*
X205494Y24333D01*
X205342Y24323D01*
X205209Y24315D01*
X204936Y24293D01*
Y24293D01*
X204825Y24284D01*
X204804Y24279D01*
X204680Y24249D01*
X204680Y24249D01*
X204441Y24192D01*
X204442Y24189D01*
X204316Y24150D01*
X204218Y24121D01*
X204182Y24108D01*
X204018Y24021D01*
X204018D01*
X204016Y24020D01*
X204016Y24020D01*
X203901Y23958D01*
X203828Y23919D01*
Y23919D01*
X203820Y23913D01*
X203731Y23840D01*
X203728Y23837D01*
X203724Y23834D01*
X203561Y23700D01*
X203384Y23485D01*
X203383Y23486D01*
X203383Y23486D01*
X203346Y23441D01*
X203273Y23304D01*
X203273Y23304D01*
X203273D01*
X203167Y23106D01*
X203171Y23104D01*
X203079Y22883D01*
X203078Y22883D01*
X203036Y22781D01*
X203033Y22769D01*
X203033Y22769D01*
X203030Y22760D01*
X202999Y22640D01*
X202980Y22587D01*
X202964Y22505D01*
X202938Y22375D01*
X202881Y22089D01*
X202881D01*
X202862Y21957D01*
X202855Y21911D01*
X202831Y21783D01*
X202820Y21587D01*
X202811Y21453D01*
X202783Y20865D01*
X202777Y20753D01*
X202778Y20733D01*
X202789Y20603D01*
Y12046D01*
X201504D01*
X201409Y12141D01*
X201426Y20853D01*
X201427Y20853D01*
X201426Y20882D01*
X201463Y21638D01*
X201473Y21771D01*
X201486Y22010D01*
X201563Y22461D01*
X201586Y22593D01*
X201612Y22723D01*
X201672Y23024D01*
X201771Y23317D01*
X201772Y23317D01*
X201772Y23317D01*
X201881Y23640D01*
X202031Y23943D01*
X202089Y24064D01*
X202294Y24398D01*
X202602Y24759D01*
X202962Y25067D01*
X203252Y25244D01*
X203252D01*
X203367Y25311D01*
X203684Y25443D01*
X203805Y25492D01*
X203929Y25521D01*
X204408Y25636D01*
X205011Y25684D01*
X205141Y25685D01*
X205144Y25685D01*
Y25685D01*
X205275Y25678D01*
X205847Y25646D01*
X206316Y25566D01*
X206317Y25565D01*
X206695Y25490D01*
X207340Y25271D01*
X207517Y25183D01*
X207517Y25182D01*
X207933Y24977D01*
X208552Y24563D01*
X208694Y24439D01*
X208693Y24438D01*
X209106Y24076D01*
X209641Y23466D01*
X209788Y23246D01*
X209818Y23252D01*
X209840Y23341D01*
X209852Y23372D01*
X209857Y23383D01*
X210044Y23834D01*
X210321Y24287D01*
X210666Y24691D01*
X211037Y25008D01*
X211149Y25080D01*
X211263Y25149D01*
X211441Y25259D01*
X212016Y25496D01*
X212620Y25641D01*
X213239Y25690D01*
X213369Y25680D01*
D02*
G37*
G36*
X264181Y29481D02*
X252511D01*
X252509Y29480D01*
X252506Y29480D01*
X252506Y29480D01*
X252506Y29479D01*
X252506Y29479D01*
X252505Y29477D01*
X252504Y29475D01*
X252504Y29474D01*
X252504Y29474D01*
X252505Y29472D01*
X252505Y29469D01*
X252606Y29347D01*
X252684Y29252D01*
X265308Y13857D01*
Y12046D01*
X250734D01*
Y13406D01*
X263628D01*
X263752Y13406D01*
X263910D01*
X263912Y13407D01*
X263914Y13408D01*
X263914Y13408D01*
X263914Y13408D01*
X263915Y13408D01*
X263916Y13411D01*
X263917Y13413D01*
X263917Y13413D01*
X263917Y13413D01*
X263917Y13414D01*
X263916Y13416D01*
X263915Y13418D01*
X263815Y13540D01*
Y13540D01*
X263736Y13636D01*
X251091Y29014D01*
Y30844D01*
X264181D01*
Y29481D01*
D02*
G37*
G36*
X293807Y25353D02*
X293809Y25348D01*
X293814Y25346D01*
X295521D01*
Y23986D01*
X293814D01*
X293809Y23983D01*
X293807Y23978D01*
Y15837D01*
X293806Y15836D01*
X293801Y15836D01*
X293806Y15714D01*
X293759Y14523D01*
X293708Y14093D01*
X293707Y14093D01*
X293690Y13875D01*
X293573Y13385D01*
X293402Y12974D01*
X293337Y12857D01*
X293337D01*
X293277Y12745D01*
X293060Y12481D01*
X292797Y12265D01*
X292518Y12116D01*
X292510Y12119D01*
X292287Y12026D01*
X291755Y11899D01*
X291210Y11856D01*
X291071Y11867D01*
X290943Y11857D01*
X290894Y11858D01*
X290835Y11858D01*
X290835D01*
X290792Y11859D01*
X290659Y11874D01*
X290659Y11874D01*
X290483Y11886D01*
X290349Y11883D01*
X290306Y11887D01*
X290188Y11897D01*
X290070Y11908D01*
X289901Y11926D01*
X289898Y13105D01*
X289949Y13171D01*
X290022Y13221D01*
X290027Y13222D01*
X290086Y13221D01*
X290086Y13221D01*
X290116Y13220D01*
X290116Y13220D01*
X290146Y13220D01*
X290203Y13219D01*
X290401D01*
X290532Y13212D01*
X290578Y13208D01*
X290666Y13215D01*
X291163Y13254D01*
X291211Y13266D01*
X291340Y13296D01*
X291407Y13305D01*
X291467Y13329D01*
X291674Y13415D01*
X291848Y13549D01*
X291903Y13591D01*
X291942Y13641D01*
X291940Y13643D01*
X291940Y13643D01*
X291940Y13643D01*
X291940Y13644D01*
X292057Y13786D01*
X292215Y14082D01*
X292311Y14401D01*
X292304Y14402D01*
X292391Y14841D01*
X292440Y15584D01*
X292431Y15720D01*
X292431Y15720D01*
X292431D01*
X292427Y15724D01*
Y23981D01*
X292425Y23986D01*
X292420Y23988D01*
X290227D01*
Y25348D01*
X292420D01*
X292425Y25351D01*
X292427Y25356D01*
Y28837D01*
X293807D01*
Y25353D01*
D02*
G37*
G36*
X319475Y19924D02*
X319475Y19743D01*
X319469Y19738D01*
X319452Y19174D01*
X319452D01*
X319448Y19040D01*
X319436Y18600D01*
X319436Y18600D01*
X319436D01*
X319444Y18592D01*
X319415Y18030D01*
X319402Y18018D01*
X319384Y17658D01*
X319244Y16711D01*
X319099Y16131D01*
X319099Y16131D01*
X319099D01*
X319099Y16130D01*
X318950Y15614D01*
X318649Y14887D01*
X318390Y14418D01*
X318390D01*
Y14418D01*
X318392Y14409D01*
X318069Y13926D01*
X317663Y13462D01*
X317242Y13093D01*
X317134Y13014D01*
X317134D01*
X317024Y12941D01*
X316613Y12666D01*
X315891Y12310D01*
X315150Y12058D01*
X315136Y12066D01*
X314483Y11902D01*
X313471Y11752D01*
X312448Y11701D01*
X312242Y11712D01*
X312241Y11714D01*
X311951Y11700D01*
X311000Y11747D01*
X310057Y11887D01*
X309133Y12118D01*
X308701Y12273D01*
X308701Y12271D01*
X308513Y12335D01*
X307917Y12629D01*
X307364Y12998D01*
X306865Y13436D01*
X306484Y13870D01*
X306484Y13876D01*
X306484Y13876D01*
X306484D01*
X306191Y14289D01*
X305848Y14910D01*
X305576Y15565D01*
X305380Y16247D01*
X305345Y16456D01*
X305346Y16457D01*
X305207Y17157D01*
X305055Y18442D01*
X305004Y19736D01*
X305011Y19921D01*
X305005Y19921D01*
X305005Y19921D01*
Y30844D01*
X306384D01*
Y19979D01*
X306383Y19977D01*
Y19977D01*
X306368Y19637D01*
X306418Y18493D01*
X306567Y17358D01*
X306761Y16487D01*
X306759Y16486D01*
X306778Y16391D01*
X306790Y16356D01*
X306985Y15781D01*
X307270Y15203D01*
X307628Y14667D01*
X307795Y14477D01*
X307881Y14379D01*
X307881Y14379D01*
X307881Y14379D01*
X307876Y14374D01*
X307911Y14333D01*
X307972Y14281D01*
X308362Y13948D01*
X308867Y13638D01*
X309415Y13411D01*
X309722Y13337D01*
X309722Y13337D01*
X309722Y13336D01*
X310074Y13248D01*
X311099Y13096D01*
X312100Y13047D01*
X312134Y13045D01*
X312233Y13050D01*
X312341Y13045D01*
X313347Y13095D01*
X314344Y13243D01*
X314719Y13337D01*
X314849Y13369D01*
X315008Y13407D01*
X315577Y13642D01*
X316102Y13964D01*
X316568Y14362D01*
X316561Y14369D01*
X316863Y14713D01*
X317213Y15238D01*
X317492Y15804D01*
X317677Y16348D01*
X317695Y16401D01*
X317710Y16478D01*
X317710Y16478D01*
X317915Y17402D01*
X318062Y18521D01*
X318112Y19649D01*
X318097Y19977D01*
X318097Y19977D01*
X318097D01*
X318096Y19979D01*
Y30844D01*
X319475D01*
Y19924D01*
D02*
G37*
G36*
X300150Y12046D02*
X298770D01*
Y30844D01*
X300150D01*
Y12046D01*
D02*
G37*
G36*
X281280Y25686D02*
X281280D01*
X282044Y25636D01*
X282195Y25606D01*
X282201Y25609D01*
X282812Y25463D01*
X283239Y25286D01*
X283239Y25286D01*
X283721Y25048D01*
X284245Y24698D01*
X284352Y24618D01*
X284491Y24519D01*
X285090Y23984D01*
X285321Y23725D01*
X285403Y23633D01*
X285518Y23505D01*
X285530Y23508D01*
X285530Y23508D01*
X285535Y23510D01*
X285537Y23516D01*
Y23518D01*
X285538Y23522D01*
X285537Y23523D01*
Y23684D01*
X285537Y23808D01*
Y25346D01*
X286917D01*
Y12046D01*
X285537D01*
Y21575D01*
X285536Y21578D01*
X285540Y21581D01*
X285490Y21673D01*
X285473Y21696D01*
X285050Y22293D01*
X284879Y22483D01*
X284791Y22583D01*
X284790Y22584D01*
X284790Y22584D01*
X284701Y22683D01*
X284505Y22903D01*
X283953Y23396D01*
X283861Y23467D01*
X283840Y23485D01*
X283752Y23543D01*
X283299Y23846D01*
X282799Y24093D01*
X282797Y24088D01*
X282534Y24197D01*
X282099Y24302D01*
X281778Y24327D01*
X281653Y24337D01*
X281648Y24336D01*
X281518Y24329D01*
X281274D01*
X281144Y24338D01*
X281129Y24340D01*
X281011Y24328D01*
X280836Y24311D01*
X280737Y24401D01*
X280750Y25664D01*
X281021Y25689D01*
X281278D01*
X281280Y25686D01*
D02*
G37*
G36*
X338583Y91864D02*
X300454D01*
Y93465D01*
Y92586D01*
X295839D01*
Y91864D01*
X198031D01*
Y106546D01*
X338583D01*
Y91864D01*
D02*
G37*
G36*
Y84783D02*
X265136D01*
D01*
X338583D01*
Y77733D01*
D01*
Y63386D01*
X198031D01*
Y77733D01*
X253081D01*
X198031D01*
Y84783D01*
X261374D01*
D01*
X198031D01*
Y91864D01*
X338583D01*
Y84783D01*
D02*
G37*
G36*
X429173Y101991D02*
Y94134D01*
X402284D01*
Y101991D01*
X429173D01*
D02*
G37*
%LPC*%
G36*
X242621Y24339D02*
X241945Y24295D01*
X241281Y24163D01*
X240746Y23981D01*
X240748Y23976D01*
X240470Y23861D01*
X239950Y23542D01*
X239486Y23146D01*
X239384Y23027D01*
X239297Y22927D01*
X239297D01*
Y22927D01*
X239152Y22761D01*
X238797Y22230D01*
X238515Y21657D01*
X238351Y21173D01*
X238350Y21173D01*
X238177Y20481D01*
X238046Y19602D01*
X238003Y18714D01*
X238046Y17826D01*
X238177Y16947D01*
X238350Y16255D01*
X238392Y16130D01*
X238520Y15756D01*
X238811Y15165D01*
X239177Y14617D01*
X239296Y14481D01*
X239298Y14482D01*
X239299Y14482D01*
X239516Y14227D01*
X239971Y13839D01*
X240480Y13526D01*
X240747Y13416D01*
X240744Y13408D01*
X241308Y13217D01*
X241924Y13094D01*
X242480Y13058D01*
X242551Y13053D01*
X242613Y13057D01*
X242682Y13053D01*
X243315Y13094D01*
X243937Y13218D01*
X244497Y13408D01*
X244495Y13416D01*
X244762Y13526D01*
X245271Y13839D01*
X245726Y14227D01*
X245943Y14482D01*
X245944Y14482D01*
X245945Y14482D01*
X245946Y14481D01*
X246061Y14613D01*
X246421Y15151D01*
X246707Y15732D01*
X246885Y16254D01*
X246882Y16255D01*
X247040Y16889D01*
X247175Y17797D01*
X247220Y18714D01*
X247175Y19631D01*
X247040Y20539D01*
X246882Y21173D01*
X246885Y21174D01*
X246712Y21682D01*
X246435Y22244D01*
X246087Y22764D01*
X245945Y22927D01*
X245858Y23027D01*
X245857Y23028D01*
X245756Y23146D01*
X245292Y23542D01*
X244772Y23861D01*
X244495Y23976D01*
X244496Y23981D01*
X243961Y24163D01*
X243297Y24295D01*
X242621Y24339D01*
D02*
G37*
G36*
X278109Y23009D02*
Y23009D01*
D01*
Y23009D01*
D02*
G37*
G36*
X271420Y18911D02*
X271390Y18910D01*
X271261Y18900D01*
X269297D01*
X269291Y18898D01*
X269289Y18892D01*
Y15424D01*
X269291Y15419D01*
X269291Y15419D01*
X269535Y15149D01*
X270144Y14597D01*
X270149Y14598D01*
X270318Y14447D01*
X271000Y13963D01*
X271230Y13836D01*
X271230Y13836D01*
X271659Y13599D01*
X272321Y13325D01*
X272489Y13276D01*
Y13276D01*
X272489D01*
X272492Y13278D01*
X272706Y13205D01*
X273273Y13092D01*
X273850Y13054D01*
X273869Y13052D01*
X273873Y13052D01*
X274056Y13062D01*
X274188Y13070D01*
Y13070D01*
X274493Y13087D01*
X274626Y13098D01*
X274744Y13105D01*
X274786Y13114D01*
X274786Y13115D01*
X274931Y13144D01*
X275060Y13169D01*
X275061Y13169D01*
X275062Y13170D01*
Y13170D01*
X275062Y13170D01*
X275193Y13196D01*
X275327Y13223D01*
X275332Y13230D01*
X275568Y13287D01*
X275812Y13388D01*
X275812Y13388D01*
Y13388D01*
X276070Y13495D01*
X276439Y13721D01*
X276441Y13718D01*
X276757Y13978D01*
X277025Y14304D01*
X277223Y14676D01*
X277346Y15079D01*
X277387Y15498D01*
X277384Y15577D01*
X277389Y15625D01*
X277380Y15710D01*
X277337Y16156D01*
X277182Y16666D01*
X276930Y17136D01*
X276592Y17548D01*
X276180Y17886D01*
X275892Y18040D01*
X275892Y18041D01*
X275701Y18158D01*
X275581Y18207D01*
X275460Y18263D01*
X275365Y18309D01*
X275239Y18352D01*
X275238Y18353D01*
X274864Y18480D01*
X274864Y18479D01*
X274461Y18595D01*
X274461Y18597D01*
X274330Y18634D01*
X274031Y18685D01*
X274026Y18693D01*
X273559Y18762D01*
X273559Y18762D01*
X273559Y18762D01*
X273064Y18828D01*
Y18828D01*
X273060Y18825D01*
X272761Y18860D01*
X272670Y18864D01*
X272536Y18871D01*
X271523Y18907D01*
X271420Y18911D01*
D02*
G37*
G36*
X236813Y99262D02*
X235701D01*
Y97761D01*
Y98232D01*
X236813D01*
Y99262D01*
D02*
G37*
G36*
X263033Y97761D02*
X261117D01*
D01*
X263033D01*
D02*
G37*
G36*
X227946Y97761D02*
X226030D01*
D01*
X227946D01*
D02*
G37*
G36*
X239965Y99155D02*
Y97667D01*
X239457D01*
Y98502D01*
X238345Y99155D01*
X239965D01*
X237497D01*
X238345D01*
Y97667D01*
X237585D01*
Y96781D01*
X238345D01*
Y95086D01*
Y95079D01*
Y95060D01*
Y95035D01*
Y95004D01*
Y94966D01*
Y94916D01*
Y94816D01*
X238339Y94715D01*
Y94615D01*
X238333Y94571D01*
Y94533D01*
X238326Y94502D01*
Y94483D01*
Y94476D01*
X238320Y94470D01*
X238307Y94432D01*
X238276Y94389D01*
X238232Y94345D01*
X238226D01*
X238220Y94338D01*
X238201Y94332D01*
X238176Y94319D01*
X238119Y94301D01*
X238044Y94294D01*
X238012D01*
X237981Y94301D01*
X237931Y94307D01*
X237868Y94319D01*
X237786Y94338D01*
X237698Y94363D01*
X237598Y94395D01*
X237497Y93534D01*
X237504D01*
X237516Y93528D01*
X237535Y93522D01*
X237566Y93509D01*
X237604Y93497D01*
X237648Y93484D01*
X237698Y93465D01*
X237755Y93453D01*
X237880Y93421D01*
X238031Y93396D01*
X238201Y93378D01*
X238377Y93371D01*
X238427D01*
X238483Y93378D01*
X238559Y93384D01*
X238640Y93396D01*
X238728Y93415D01*
X238823Y93440D01*
X238917Y93472D01*
X238929Y93478D01*
X238954Y93490D01*
X238998Y93509D01*
X239049Y93541D01*
X239105Y93578D01*
X239168Y93622D01*
X239218Y93673D01*
X239268Y93729D01*
X239275Y93735D01*
X239287Y93761D01*
X239306Y93798D01*
X239331Y93842D01*
X239356Y93905D01*
X239381Y93980D01*
X239406Y94068D01*
X239425Y94162D01*
Y94175D01*
X239432Y94200D01*
Y94225D01*
X239438Y94257D01*
Y94294D01*
Y94332D01*
X239444Y94382D01*
Y94439D01*
X239451Y94502D01*
Y94577D01*
X239457Y94659D01*
Y94747D01*
Y94841D01*
Y94947D01*
Y96781D01*
X239965D01*
Y93371D01*
X239965D01*
X239965D01*
Y99155D01*
D02*
G37*
G36*
X247137Y97315D02*
D01*
D01*
D01*
D02*
G37*
G36*
X276860Y97761D02*
X276791D01*
X276760Y97755D01*
X276716D01*
X276622Y97742D01*
X276515Y97717D01*
X276396Y97692D01*
X276276Y97648D01*
X276163Y97591D01*
X276157D01*
X276151Y97585D01*
X276113Y97560D01*
X276057Y97522D01*
X275988Y97466D01*
X275912Y97397D01*
X275831Y97309D01*
X275749Y97208D01*
X275674Y97089D01*
X275667Y97095D01*
X275661Y97101D01*
X275648Y97120D01*
X275623Y97145D01*
X275567Y97202D01*
X275498Y97277D01*
X275403Y97359D01*
X275303Y97447D01*
X275196Y97522D01*
X275077Y97591D01*
X275071D01*
X275064Y97598D01*
X275045Y97610D01*
X275020Y97616D01*
X274958Y97648D01*
X274870Y97679D01*
X274769Y97704D01*
X274650Y97736D01*
X274524Y97755D01*
X274392Y97761D01*
X274317D01*
X274273Y97755D01*
X274229Y97748D01*
X274122Y97736D01*
X274003Y97717D01*
X273871Y97679D01*
X273739Y97635D01*
X273614Y97572D01*
X273607D01*
X273601Y97566D01*
X273563Y97535D01*
X273507Y97491D01*
X273432Y97434D01*
X273356Y97353D01*
X273275Y97259D01*
X273199Y97145D01*
X273136Y97020D01*
X273130Y97007D01*
X273124Y96988D01*
X273118Y96970D01*
X273111Y96938D01*
X273099Y96900D01*
X273086Y96863D01*
X273074Y96813D01*
X273067Y96750D01*
X273055Y96687D01*
X273042Y96618D01*
X273036Y96536D01*
X273030Y96455D01*
X273023Y96360D01*
X273017Y96254D01*
Y93465D01*
X279190D01*
Y97667D01*
D01*
X278167D01*
Y97089D01*
X278160Y97095D01*
X278142Y97120D01*
X278110Y97152D01*
X278066Y97196D01*
X278016Y97246D01*
X277953Y97303D01*
X277878Y97365D01*
X277796Y97428D01*
X277708Y97491D01*
X277608Y97547D01*
X277501Y97604D01*
X277388Y97654D01*
X277262Y97698D01*
X277137Y97729D01*
X276999Y97755D01*
X276860Y97761D01*
D02*
G37*
G36*
X234577Y97761D02*
Y97667D01*
X233547D01*
Y97045D01*
X233541Y97051D01*
X233522Y97076D01*
X233491Y97114D01*
X233447Y97158D01*
X233397Y97208D01*
X233328Y97271D01*
X233258Y97334D01*
X233171Y97403D01*
X233076Y97472D01*
X232969Y97535D01*
X232856Y97598D01*
X232737Y97648D01*
X232605Y97698D01*
X232467Y97729D01*
X232323Y97755D01*
X232172Y97761D01*
X234577D01*
X230759D01*
X232109D01*
X232040Y97755D01*
X231946Y97742D01*
X231845Y97729D01*
X231732Y97704D01*
X231613Y97667D01*
X231500Y97623D01*
X231494D01*
X231487Y97616D01*
X231450Y97598D01*
X231393Y97572D01*
X231330Y97528D01*
X231255Y97485D01*
X231180Y97422D01*
X231104Y97359D01*
X231042Y97284D01*
X231035Y97277D01*
X231016Y97246D01*
X230991Y97208D01*
X230954Y97152D01*
X230916Y97083D01*
X230885Y97001D01*
X230847Y96913D01*
X230822Y96819D01*
Y96806D01*
X230809Y96769D01*
X230803Y96712D01*
X230790Y96631D01*
X230778Y96524D01*
X230771Y96398D01*
X230759Y96247D01*
Y93465D01*
X231871D01*
Y95607D01*
Y95613D01*
Y95638D01*
Y95670D01*
Y95720D01*
Y95770D01*
X231877Y95833D01*
Y95971D01*
X231889Y96122D01*
X231902Y96266D01*
X231908Y96335D01*
X231921Y96392D01*
X231933Y96442D01*
X231946Y96486D01*
Y96492D01*
X231958Y96517D01*
X231977Y96555D01*
X232002Y96599D01*
X232034Y96649D01*
X232071Y96706D01*
X232122Y96756D01*
X232178Y96800D01*
X232185Y96806D01*
X232203Y96819D01*
X232241Y96838D01*
X232285Y96857D01*
X232342Y96875D01*
X232404Y96894D01*
X232473Y96907D01*
X232555Y96913D01*
X232605D01*
X232656Y96907D01*
X232731Y96894D01*
X232806Y96875D01*
X232894Y96844D01*
X232988Y96806D01*
X233076Y96750D01*
X233089Y96744D01*
X233114Y96718D01*
X233152Y96687D01*
X233202Y96637D01*
X233252Y96580D01*
X233302Y96505D01*
X233346Y96423D01*
X233384Y96329D01*
X233390Y96316D01*
Y96304D01*
X233397Y96279D01*
X233403Y96247D01*
X233409Y96210D01*
X233415Y96166D01*
X233422Y96115D01*
X233434Y96053D01*
X233440Y95984D01*
X233447Y95902D01*
X233453Y95814D01*
X233459Y95720D01*
Y95613D01*
X233466Y95494D01*
Y95368D01*
Y93465D01*
X232668D01*
X234577D01*
Y97761D01*
D02*
G37*
G36*
X244305D02*
Y94671D01*
X244299Y94734D01*
X244286Y94822D01*
X244261Y94922D01*
X244236Y95029D01*
X244192Y95136D01*
X244135Y95243D01*
Y95249D01*
X244129Y95255D01*
X244104Y95287D01*
X244066Y95337D01*
X244010Y95400D01*
X243947Y95469D01*
X243865Y95538D01*
X243771Y95607D01*
X243664Y95663D01*
X243658D01*
X243652Y95670D01*
X243633Y95676D01*
X243608Y95688D01*
X243576Y95701D01*
X243539Y95720D01*
X243489Y95732D01*
X243438Y95751D01*
X243382Y95770D01*
X243313Y95795D01*
X243237Y95814D01*
X243162Y95839D01*
X243074Y95858D01*
X242980Y95883D01*
X242886Y95908D01*
X242779Y95927D01*
X242773D01*
X242747Y95933D01*
X242704Y95940D01*
X242653Y95952D01*
X242590Y95965D01*
X242515Y95977D01*
X242434Y95996D01*
X242346Y96015D01*
X242170Y96059D01*
X241988Y96103D01*
X241906Y96128D01*
X241824Y96153D01*
X241755Y96178D01*
X241692Y96204D01*
Y96310D01*
Y96316D01*
Y96323D01*
Y96367D01*
X241699Y96423D01*
X241711Y96492D01*
X241730Y96568D01*
X241761Y96643D01*
X241799Y96718D01*
X241856Y96775D01*
X241862Y96781D01*
X241887Y96794D01*
X241931Y96819D01*
X241988Y96844D01*
X242069Y96869D01*
X242176Y96894D01*
X242239Y96900D01*
X242302Y96907D01*
X242377Y96913D01*
X242509D01*
X242565Y96907D01*
X242628Y96900D01*
X242704Y96882D01*
X242785Y96863D01*
X242861Y96832D01*
X242930Y96794D01*
X242936Y96788D01*
X242955Y96769D01*
X242986Y96744D01*
X243024Y96700D01*
X243068Y96643D01*
X243112Y96568D01*
X243156Y96480D01*
X243193Y96379D01*
X244192Y96561D01*
Y96568D01*
X244186Y96587D01*
X244173Y96618D01*
X244161Y96662D01*
X244142Y96712D01*
X244116Y96769D01*
X244054Y96900D01*
X243972Y97051D01*
X243872Y97202D01*
X243752Y97340D01*
X243683Y97409D01*
X243608Y97466D01*
X243602Y97472D01*
X243589Y97478D01*
X243564Y97491D01*
X243532Y97510D01*
X243489Y97535D01*
X243432Y97560D01*
X243369Y97585D01*
X243300Y97616D01*
X243212Y97642D01*
X243124Y97667D01*
X243024Y97692D01*
X242911Y97717D01*
X242791Y97736D01*
X242660Y97748D01*
X242521Y97761D01*
X244305D01*
X240361D01*
X242245D01*
X242189Y97755D01*
X242113D01*
X242038Y97748D01*
X241950Y97736D01*
X241768Y97717D01*
X241586Y97685D01*
X241410Y97642D01*
X241335Y97610D01*
X241259Y97579D01*
X241253D01*
X241240Y97572D01*
X241221Y97560D01*
X241203Y97547D01*
X241133Y97510D01*
X241058Y97460D01*
X240970Y97390D01*
X240889Y97315D01*
X240807Y97227D01*
X240744Y97133D01*
X240738Y97120D01*
X240732Y97101D01*
X240719Y97083D01*
X240706Y97051D01*
X240694Y97007D01*
X240681Y96963D01*
X240669Y96907D01*
X240656Y96844D01*
X240644Y96775D01*
X240631Y96693D01*
X240619Y96599D01*
X240606Y96499D01*
X240600Y96392D01*
X240593Y96272D01*
Y96141D01*
X240612Y94841D01*
Y94834D01*
Y94816D01*
Y94791D01*
Y94753D01*
Y94703D01*
Y94652D01*
X240606Y94533D01*
X240600Y94401D01*
X240593Y94263D01*
X240581Y94137D01*
X240568Y94074D01*
X240562Y94024D01*
Y94012D01*
X240549Y93980D01*
X240537Y93924D01*
X240518Y93855D01*
X240493Y93773D01*
X240455Y93679D01*
X240411Y93572D01*
X240361Y93465D01*
D01*
X241460D01*
Y93472D01*
X241466Y93484D01*
X241479Y93509D01*
X241492Y93547D01*
X241504Y93591D01*
X241529Y93647D01*
X241548Y93717D01*
X241573Y93792D01*
Y93798D01*
X241579Y93811D01*
X241586Y93849D01*
X241598Y93892D01*
X241604Y93911D01*
X241611Y93924D01*
X241623Y93911D01*
X241661Y93880D01*
X241718Y93830D01*
X241793Y93767D01*
X241881Y93704D01*
X241988Y93635D01*
X242101Y93566D01*
X242220Y93509D01*
X242226D01*
X242232Y93503D01*
X242251Y93497D01*
X242277Y93490D01*
X242339Y93465D01*
X242427Y93440D01*
X242528Y93415D01*
X242647Y93390D01*
X242773Y93378D01*
X242911Y93371D01*
X240361D01*
X244305D01*
Y97761D01*
D02*
G37*
G36*
X247137Y95770D02*
Y95770D01*
D01*
Y95770D01*
D02*
G37*
G36*
X284302Y97761D02*
Y95676D01*
X284296Y95714D01*
Y95764D01*
X284290Y95827D01*
X284277Y95890D01*
X284271Y95965D01*
X284233Y96128D01*
X284189Y96310D01*
X284120Y96499D01*
X284082Y96599D01*
X284032Y96693D01*
X284026Y96700D01*
X284020Y96718D01*
X284001Y96744D01*
X283982Y96781D01*
X283957Y96825D01*
X283919Y96875D01*
X283838Y96988D01*
X283724Y97114D01*
X283593Y97246D01*
X283442Y97372D01*
X283266Y97485D01*
X283260Y97491D01*
X283241Y97497D01*
X283216Y97510D01*
X283178Y97528D01*
X283128Y97547D01*
X283071Y97572D01*
X283009Y97598D01*
X282940Y97623D01*
X282858Y97648D01*
X282770Y97673D01*
X282581Y97717D01*
X282374Y97748D01*
X282261Y97761D01*
X284302D01*
X282104D01*
X282054Y97755D01*
X281991Y97748D01*
X281910Y97742D01*
X281815Y97729D01*
X281709Y97711D01*
X281596Y97686D01*
X281476Y97648D01*
X281351Y97610D01*
X281219Y97560D01*
X281093Y97497D01*
X280961Y97428D01*
X280829Y97346D01*
X280710Y97246D01*
X280591Y97139D01*
X280585Y97133D01*
X280566Y97108D01*
X280534Y97076D01*
X280497Y97026D01*
X280446Y96963D01*
X280396Y96894D01*
X280346Y96806D01*
X280283Y96712D01*
X280226Y96605D01*
X280176Y96486D01*
X280120Y96354D01*
X280076Y96216D01*
X280038Y96072D01*
X280007Y95915D01*
X279988Y95751D01*
X279982Y95575D01*
Y95531D01*
X279988Y95481D01*
Y95419D01*
X280000Y95337D01*
X280013Y95243D01*
X280032Y95136D01*
X280057Y95023D01*
X280088Y94897D01*
X280132Y94772D01*
X280183Y94640D01*
X280239Y94508D01*
X280314Y94370D01*
X280396Y94244D01*
X280490Y94112D01*
X280597Y93993D01*
X280603Y93987D01*
X280622Y93968D01*
X280660Y93936D01*
X280710Y93899D01*
X280767Y93849D01*
X280842Y93798D01*
X280924Y93742D01*
X281018Y93685D01*
X281125Y93622D01*
X281244Y93566D01*
X281369Y93516D01*
X281508Y93472D01*
X281652Y93428D01*
X281809Y93396D01*
X281972Y93378D01*
X282142Y93371D01*
X282198D01*
X282242Y93378D01*
X282293D01*
X282349Y93384D01*
X282418Y93390D01*
X282494Y93403D01*
X282663Y93434D01*
X282852Y93478D01*
X283046Y93541D01*
X283241Y93629D01*
X283247Y93635D01*
X283266Y93641D01*
X283291Y93654D01*
X283329Y93679D01*
X283373Y93704D01*
X283417Y93742D01*
X283536Y93823D01*
X283662Y93930D01*
X283794Y94062D01*
X283919Y94219D01*
X284032Y94395D01*
Y94401D01*
X284045Y94420D01*
X284057Y94445D01*
X284076Y94483D01*
X284095Y94533D01*
X284120Y94590D01*
X284139Y94659D01*
X284164Y94734D01*
X284189Y94822D01*
X284214Y94916D01*
X284239Y95016D01*
X284258Y95123D01*
X284277Y95236D01*
X284290Y95362D01*
X284296Y95487D01*
X284302Y95619D01*
Y93817D01*
Y97761D01*
D02*
G37*
G36*
X256099D02*
X254102D01*
X254045Y97755D01*
X253970D01*
X253888Y97748D01*
X253800Y97736D01*
X253700Y97723D01*
X253493Y97692D01*
X253285Y97642D01*
X253179Y97610D01*
X253084Y97572D01*
X252990Y97528D01*
X252908Y97478D01*
X252902D01*
X252890Y97466D01*
X252871Y97447D01*
X252839Y97428D01*
X252808Y97397D01*
X252764Y97359D01*
X252726Y97315D01*
X252676Y97271D01*
X252632Y97215D01*
X252582Y97152D01*
X252532Y97083D01*
X252482Y97007D01*
X252437Y96932D01*
X252394Y96844D01*
X252325Y96649D01*
X253373Y96455D01*
Y96467D01*
X253386Y96492D01*
X253405Y96536D01*
X253430Y96593D01*
X253467Y96656D01*
X253511Y96718D01*
X253568Y96775D01*
X253631Y96832D01*
X253637Y96838D01*
X253668Y96850D01*
X253706Y96875D01*
X253769Y96900D01*
X253844Y96919D01*
X253932Y96944D01*
X254045Y96957D01*
X254165Y96963D01*
X254234D01*
X254309Y96957D01*
X254403Y96951D01*
X254504Y96932D01*
X254610Y96913D01*
X254705Y96882D01*
X254786Y96838D01*
X254792Y96832D01*
X254805Y96825D01*
X254824Y96800D01*
X254849Y96775D01*
X254874Y96744D01*
X254893Y96706D01*
X254906Y96662D01*
X254912Y96612D01*
Y96605D01*
Y96593D01*
X254906Y96568D01*
X254899Y96543D01*
X254887Y96511D01*
X254868Y96480D01*
X254843Y96442D01*
X254805Y96411D01*
X254799Y96404D01*
X254786Y96398D01*
X254767Y96392D01*
X254742Y96379D01*
X254711Y96367D01*
X254667Y96348D01*
X254617Y96329D01*
X254560Y96310D01*
X254485Y96285D01*
X254403Y96260D01*
X254303Y96229D01*
X254196Y96204D01*
X254070Y96166D01*
X253926Y96134D01*
X253769Y96097D01*
X253756D01*
X253731Y96090D01*
X253687Y96078D01*
X253624Y96059D01*
X253555Y96040D01*
X253467Y96015D01*
X253380Y95990D01*
X253279Y95959D01*
X253078Y95890D01*
X252871Y95802D01*
X252777Y95758D01*
X252689Y95707D01*
X252601Y95657D01*
X252532Y95601D01*
X252525Y95594D01*
X252519Y95588D01*
X252500Y95569D01*
X252475Y95544D01*
X252450Y95519D01*
X252419Y95481D01*
X252387Y95437D01*
X252356Y95387D01*
X252293Y95268D01*
X252237Y95130D01*
X252193Y94966D01*
X252186Y94872D01*
X252180Y94778D01*
Y94778D01*
Y94721D01*
X252186Y94684D01*
X252193Y94634D01*
X252205Y94571D01*
X252218Y94508D01*
X252243Y94439D01*
X252268Y94363D01*
X252299Y94282D01*
X252337Y94200D01*
X252381Y94118D01*
X252437Y94031D01*
X252507Y93949D01*
X252576Y93867D01*
X252664Y93786D01*
X252670Y93779D01*
X252689Y93767D01*
X252714Y93748D01*
X252751Y93723D01*
X252802Y93691D01*
X252865Y93654D01*
X252940Y93616D01*
X253022Y93578D01*
X253116Y93541D01*
X253222Y93503D01*
X253342Y93465D01*
X253467Y93434D01*
X253606Y93409D01*
X253756Y93390D01*
X253920Y93378D01*
X254089Y93371D01*
X252180Y93371D01*
X254171Y93371D01*
X254234Y93378D01*
X254303Y93384D01*
X254391Y93390D01*
X254479Y93403D01*
X254579Y93415D01*
X254799Y93453D01*
X255025Y93516D01*
X255138Y93560D01*
X255251Y93603D01*
X255351Y93654D01*
X255452Y93717D01*
X255458Y93723D01*
X255471Y93735D01*
X255496Y93754D01*
X255534Y93779D01*
X255571Y93817D01*
X255615Y93855D01*
X255665Y93905D01*
X255716Y93962D01*
X255772Y94031D01*
X255829Y94100D01*
X255879Y94175D01*
X255936Y94263D01*
X255986Y94351D01*
X256030Y94445D01*
X256067Y94552D01*
X256099Y94659D01*
X254987Y94828D01*
Y94822D01*
X254981Y94816D01*
X254975Y94778D01*
X254956Y94715D01*
X254924Y94646D01*
X254887Y94564D01*
X254837Y94483D01*
X254780Y94407D01*
X254705Y94338D01*
X254692Y94332D01*
X254667Y94313D01*
X254617Y94288D01*
X254548Y94257D01*
X254460Y94225D01*
X254353Y94200D01*
X254234Y94181D01*
X254095Y94175D01*
X254026D01*
X253989Y94181D01*
X253945D01*
X253851Y94194D01*
X253744Y94213D01*
X253637Y94244D01*
X253537Y94282D01*
X253449Y94332D01*
X253442Y94338D01*
X253424Y94351D01*
X253398Y94376D01*
X253373Y94407D01*
X253348Y94451D01*
X253323Y94502D01*
X253304Y94558D01*
X253298Y94627D01*
Y94634D01*
Y94646D01*
X253304Y94671D01*
X253310Y94703D01*
X253329Y94765D01*
X253354Y94803D01*
X253380Y94834D01*
X253386Y94841D01*
X253398Y94847D01*
X253424Y94866D01*
X253455Y94885D01*
X253505Y94910D01*
X253568Y94935D01*
X253650Y94960D01*
X253750Y94985D01*
X253756D01*
X253763Y94991D01*
X253781D01*
X253807Y94998D01*
X253876Y95016D01*
X253964Y95035D01*
X254070Y95060D01*
X254190Y95092D01*
X254322Y95123D01*
X254466Y95161D01*
X254749Y95249D01*
X254893Y95293D01*
X255031Y95337D01*
X255157Y95387D01*
X255270Y95431D01*
X255370Y95481D01*
X255446Y95525D01*
X255452Y95531D01*
X255465Y95544D01*
X255490Y95563D01*
X255521Y95588D01*
X255559Y95619D01*
X255603Y95663D01*
X255647Y95714D01*
X255691Y95770D01*
X255741Y95833D01*
X255785Y95902D01*
X255829Y95984D01*
X255866Y96065D01*
X255898Y96159D01*
X255923Y96254D01*
X255936Y96360D01*
X255942Y96467D01*
Y96473D01*
Y96492D01*
Y96517D01*
X255936Y96561D01*
X255929Y96605D01*
X255917Y96662D01*
X255904Y96718D01*
X255885Y96788D01*
X255835Y96932D01*
X255804Y97007D01*
X255760Y97083D01*
X255709Y97164D01*
X255653Y97240D01*
X255590Y97315D01*
X255515Y97384D01*
X255508Y97390D01*
X255496Y97403D01*
X255471Y97422D01*
X255433Y97441D01*
X255389Y97472D01*
X255333Y97503D01*
X255263Y97535D01*
X255188Y97572D01*
X255100Y97610D01*
X255000Y97642D01*
X254893Y97673D01*
X254774Y97704D01*
X254642Y97723D01*
X254497Y97742D01*
X254347Y97755D01*
X254183Y97761D01*
X256099D01*
D02*
G37*
G36*
X304882Y99262D02*
X300655D01*
Y98351D01*
X303820Y94445D01*
X300530D01*
D01*
Y93465D01*
X305234D01*
Y94520D01*
X302188Y98282D01*
X304882D01*
Y99262D01*
D02*
G37*
G36*
X310584Y99262D02*
X308276Y99262D01*
X309416D01*
Y96115D01*
Y96109D01*
Y96084D01*
Y96047D01*
Y95996D01*
Y95933D01*
Y95864D01*
X309410Y95789D01*
Y95714D01*
Y95544D01*
X309397Y95387D01*
Y95312D01*
X309391Y95249D01*
X309385Y95192D01*
X309378Y95142D01*
Y95136D01*
X309372Y95130D01*
Y95111D01*
X309359Y95086D01*
X309341Y95016D01*
X309303Y94935D01*
X309259Y94847D01*
X309196Y94753D01*
X309115Y94659D01*
X309020Y94571D01*
X309014D01*
X309008Y94564D01*
X308989Y94552D01*
X308970Y94539D01*
X308907Y94502D01*
X308819Y94464D01*
X308706Y94426D01*
X308574Y94389D01*
X308424Y94363D01*
X308248Y94357D01*
X308198D01*
X308166Y94363D01*
X308122D01*
X308078Y94370D01*
X307965Y94382D01*
X307846Y94407D01*
X307720Y94445D01*
X307601Y94489D01*
X307494Y94558D01*
X307482Y94564D01*
X307457Y94596D01*
X307413Y94640D01*
X307362Y94696D01*
X307312Y94765D01*
X307262Y94853D01*
X307218Y94947D01*
X307193Y95054D01*
Y95060D01*
Y95067D01*
X307187Y95086D01*
Y95111D01*
X307180Y95148D01*
X307174Y95186D01*
X307168Y95236D01*
X307161Y95293D01*
Y95356D01*
X307155Y95431D01*
X307149Y95513D01*
X307143Y95601D01*
Y95701D01*
X307136Y95808D01*
Y95921D01*
Y96047D01*
Y99262D01*
X305968D01*
Y95952D01*
X305975Y95858D01*
Y95751D01*
X305981Y95632D01*
X305993Y95393D01*
X306012Y95148D01*
X306025Y95029D01*
X306037Y94922D01*
X306050Y94822D01*
X306069Y94734D01*
Y94728D01*
X306075Y94715D01*
X306081Y94690D01*
X306088Y94665D01*
X306100Y94627D01*
X306113Y94583D01*
X306150Y94483D01*
X306194Y94363D01*
X306257Y94244D01*
X306332Y94125D01*
X306420Y94006D01*
Y93999D01*
X306433Y93993D01*
X306464Y93955D01*
X306521Y93905D01*
X306596Y93836D01*
X306697Y93761D01*
X306810Y93685D01*
X306948Y93603D01*
X307099Y93534D01*
X307105D01*
X307118Y93528D01*
X307143Y93516D01*
X307174Y93509D01*
X307218Y93497D01*
X307268Y93478D01*
X307331Y93465D01*
X307400Y93447D01*
X307475Y93428D01*
X307557Y93415D01*
X307651Y93403D01*
X307746Y93384D01*
X307852Y93378D01*
X307965Y93365D01*
X308085Y93359D01*
X305968D01*
X310584Y93359D01*
Y99262D01*
D02*
G37*
G36*
X288730Y99155D02*
Y97667D01*
X287970D01*
Y96781D01*
X288730D01*
Y95086D01*
Y95079D01*
Y95060D01*
Y95035D01*
Y95004D01*
Y94966D01*
Y94916D01*
Y94816D01*
X288723Y94715D01*
Y94615D01*
X288717Y94571D01*
Y94533D01*
X288711Y94502D01*
Y94483D01*
Y94476D01*
X288704Y94470D01*
X288692Y94432D01*
X288661Y94389D01*
X288617Y94345D01*
X288610D01*
X288604Y94338D01*
X288585Y94332D01*
X288560Y94319D01*
X288504Y94301D01*
X288428Y94294D01*
X288397D01*
X288365Y94301D01*
X288315Y94307D01*
X288252Y94319D01*
X288171Y94338D01*
X288083Y94363D01*
X287982Y94395D01*
X287882Y93534D01*
D01*
X287888D01*
X287901Y93528D01*
X287919Y93522D01*
X287951Y93509D01*
X287989Y93497D01*
X288033Y93484D01*
X288083Y93465D01*
X288139Y93453D01*
X288265Y93421D01*
X288416Y93396D01*
X288585Y93378D01*
X288761Y93371D01*
X287882D01*
D01*
X290350D01*
D01*
X288811D01*
X288868Y93378D01*
X288943Y93384D01*
X289025Y93396D01*
X289113Y93415D01*
X289207Y93440D01*
X289301Y93472D01*
X289314Y93478D01*
X289339Y93490D01*
X289383Y93509D01*
X289433Y93541D01*
X289490Y93578D01*
X289552Y93622D01*
X289603Y93673D01*
X289653Y93729D01*
X289659Y93735D01*
X289672Y93761D01*
X289690Y93798D01*
X289716Y93842D01*
X289741Y93905D01*
X289766Y93980D01*
X289791Y94068D01*
X289810Y94162D01*
Y94175D01*
X289816Y94200D01*
Y94225D01*
X289822Y94257D01*
Y94294D01*
Y94332D01*
X289829Y94382D01*
Y94439D01*
X289835Y94502D01*
Y94577D01*
X289841Y94659D01*
Y94747D01*
Y94841D01*
Y94947D01*
Y96781D01*
X290350D01*
Y97704D01*
Y97667D01*
X289841D01*
Y98502D01*
X288730Y99155D01*
D02*
G37*
G36*
X265035Y97761D02*
X263070D01*
X263026Y97755D01*
X262957Y97748D01*
X262881Y97742D01*
X262787Y97729D01*
X262686Y97711D01*
X262580Y97686D01*
X262460Y97648D01*
X262341Y97610D01*
X262222Y97560D01*
X262096Y97497D01*
X261977Y97428D01*
X261858Y97346D01*
X261744Y97246D01*
X261638Y97139D01*
X261631Y97133D01*
X261613Y97108D01*
X261588Y97076D01*
X261556Y97026D01*
X261512Y96957D01*
X261468Y96875D01*
X261418Y96781D01*
X261368Y96675D01*
X261317Y96549D01*
X261274Y96404D01*
X261229Y96254D01*
X261192Y96084D01*
X261160Y95896D01*
X261135Y95695D01*
X261117Y95481D01*
Y95249D01*
X263898D01*
Y95243D01*
Y95230D01*
Y95199D01*
X263892Y95167D01*
X263886Y95123D01*
X263880Y95073D01*
X263861Y94966D01*
X263829Y94841D01*
X263786Y94709D01*
X263723Y94583D01*
X263635Y94470D01*
X263629D01*
X263622Y94458D01*
X263591Y94426D01*
X263534Y94382D01*
X263459Y94338D01*
X263365Y94288D01*
X263252Y94244D01*
X263126Y94213D01*
X263057Y94206D01*
X262988Y94200D01*
X262944D01*
X262900Y94206D01*
X262837Y94219D01*
X262768Y94232D01*
X262699Y94257D01*
X262624Y94294D01*
X262555Y94338D01*
X262548Y94345D01*
X262523Y94363D01*
X262492Y94401D01*
X262454Y94451D01*
X262404Y94514D01*
X262360Y94596D01*
X262316Y94690D01*
X262278Y94803D01*
X261173Y94615D01*
Y94608D01*
X261186Y94590D01*
X261198Y94558D01*
X261211Y94514D01*
X261236Y94464D01*
X261267Y94407D01*
X261299Y94338D01*
X261336Y94269D01*
X261431Y94118D01*
X261550Y93968D01*
X261688Y93817D01*
X261770Y93748D01*
X261851Y93685D01*
X261858Y93679D01*
X261870Y93673D01*
X261895Y93654D01*
X261933Y93635D01*
X261977Y93610D01*
X262033Y93585D01*
X262096Y93560D01*
X262165Y93528D01*
X262247Y93497D01*
X262335Y93472D01*
X262429Y93447D01*
X262529Y93421D01*
X262636Y93403D01*
X262756Y93384D01*
X262875Y93378D01*
X263000Y93371D01*
X262647D01*
X265035D01*
Y95575D01*
X265029Y95632D01*
Y95701D01*
X265016Y95789D01*
X265004Y95896D01*
X264991Y96003D01*
X264966Y96128D01*
X264941Y96254D01*
X264903Y96386D01*
X264859Y96524D01*
X264809Y96662D01*
X264746Y96794D01*
X264671Y96926D01*
X264589Y97051D01*
X264495Y97164D01*
X264489Y97171D01*
X264470Y97189D01*
X264439Y97221D01*
X264395Y97259D01*
X264344Y97303D01*
X264275Y97353D01*
X264200Y97409D01*
X264118Y97466D01*
X264024Y97516D01*
X263917Y97572D01*
X263804Y97623D01*
X263679Y97667D01*
X263553Y97704D01*
X263415Y97736D01*
X263264Y97755D01*
X263113Y97761D01*
X265035D01*
D02*
G37*
G36*
X229949Y97761D02*
X227983D01*
X227939Y97755D01*
X227870Y97748D01*
X227795Y97742D01*
X227701Y97729D01*
X227600Y97711D01*
X227493Y97685D01*
X227374Y97648D01*
X227255Y97610D01*
X227135Y97560D01*
X227010Y97497D01*
X226890Y97428D01*
X226771Y97346D01*
X226658Y97246D01*
X226551Y97139D01*
X226545Y97133D01*
X226526Y97108D01*
X226501Y97076D01*
X226470Y97026D01*
X226426Y96957D01*
X226382Y96875D01*
X226332Y96781D01*
X226281Y96675D01*
X226231Y96549D01*
X226187Y96404D01*
X226143Y96254D01*
X226105Y96084D01*
X226074Y95896D01*
X226049Y95695D01*
X226030Y95481D01*
Y95249D01*
X228812D01*
Y95243D01*
Y95230D01*
Y95199D01*
X228806Y95167D01*
X228800Y95123D01*
X228793Y95073D01*
X228774Y94966D01*
X228743Y94841D01*
X228699Y94709D01*
X228636Y94583D01*
X228548Y94470D01*
X228542D01*
X228536Y94458D01*
X228504Y94426D01*
X228448Y94382D01*
X228373Y94338D01*
X228278Y94288D01*
X228165Y94244D01*
X228040Y94213D01*
X227971Y94206D01*
X227902Y94200D01*
X227858D01*
X227814Y94206D01*
X227751Y94219D01*
X227682Y94231D01*
X227613Y94257D01*
X227537Y94294D01*
X227468Y94338D01*
X227462Y94345D01*
X227437Y94363D01*
X227405Y94401D01*
X227368Y94451D01*
X227318Y94514D01*
X227274Y94596D01*
X227230Y94690D01*
X227192Y94803D01*
X226087Y94615D01*
Y94608D01*
X226099Y94590D01*
X226112Y94558D01*
X226124Y94514D01*
X226149Y94464D01*
X226181Y94407D01*
X226212Y94338D01*
X226250Y94269D01*
X226344Y94118D01*
X226463Y93968D01*
X226602Y93817D01*
X226683Y93748D01*
X226765Y93685D01*
X226771Y93679D01*
X226784Y93673D01*
X226809Y93654D01*
X226847Y93635D01*
X226890Y93610D01*
X226947Y93585D01*
X227010Y93560D01*
X227079Y93528D01*
X227161Y93497D01*
X227248Y93472D01*
X227343Y93446D01*
X227443Y93421D01*
X227550Y93403D01*
X227669Y93384D01*
X227788Y93378D01*
X227914Y93371D01*
X227561D01*
X229949D01*
Y95575D01*
X229943Y95632D01*
Y95701D01*
X229930Y95789D01*
X229917Y95896D01*
X229905Y96003D01*
X229880Y96128D01*
X229855Y96254D01*
X229817Y96386D01*
X229773Y96524D01*
X229723Y96662D01*
X229660Y96794D01*
X229585Y96926D01*
X229503Y97051D01*
X229409Y97164D01*
X229402Y97171D01*
X229384Y97189D01*
X229352Y97221D01*
X229308Y97259D01*
X229258Y97303D01*
X229189Y97353D01*
X229114Y97409D01*
X229032Y97466D01*
X228938Y97516D01*
X228831Y97572D01*
X228718Y97623D01*
X228592Y97667D01*
X228467Y97704D01*
X228329Y97736D01*
X228178Y97755D01*
X228027Y97761D01*
X229949D01*
D02*
G37*
G36*
X285263Y97761D02*
X285200D01*
X285163Y97755D01*
X285125Y97748D01*
X285031Y97736D01*
X284918Y97711D01*
X284792Y97673D01*
X284660Y97616D01*
X284528Y97547D01*
X284874Y96580D01*
X284886Y96587D01*
X284924Y96612D01*
X284974Y96637D01*
X285043Y96675D01*
X285125Y96706D01*
X285213Y96737D01*
X285301Y96756D01*
X285395Y96762D01*
X285433D01*
X285477Y96756D01*
X285533Y96744D01*
X285596Y96731D01*
X285659Y96706D01*
X285728Y96675D01*
X285791Y96631D01*
X285797Y96624D01*
X285816Y96605D01*
X285847Y96574D01*
X285885Y96524D01*
X285923Y96461D01*
X285966Y96379D01*
X286010Y96285D01*
X286048Y96166D01*
Y96159D01*
X286054Y96147D01*
Y96128D01*
X286061Y96097D01*
X286067Y96059D01*
X286073Y96003D01*
X286086Y95940D01*
X286092Y95864D01*
X286098Y95776D01*
X286111Y95676D01*
X286117Y95563D01*
X286123Y95431D01*
X286130Y95287D01*
Y95130D01*
X286136Y94954D01*
Y94759D01*
Y93465D01*
X284528D01*
X287248D01*
Y97667D01*
X286218D01*
Y97064D01*
X286211Y97070D01*
X286205Y97083D01*
X286192Y97101D01*
X286174Y97133D01*
X286123Y97208D01*
X286061Y97296D01*
X285985Y97390D01*
X285910Y97478D01*
X285828Y97560D01*
X285784Y97598D01*
X285747Y97623D01*
X285734Y97629D01*
X285709Y97642D01*
X285665Y97667D01*
X285609Y97692D01*
X285533Y97717D01*
X285452Y97742D01*
X285364Y97755D01*
X285263Y97761D01*
D02*
G37*
G36*
X271993D02*
X265820D01*
D01*
X267120D01*
X267076Y97755D01*
X267032Y97748D01*
X266926Y97736D01*
X266806Y97717D01*
X266674Y97679D01*
X266542Y97635D01*
X266417Y97572D01*
X266410D01*
X266404Y97566D01*
X266367Y97535D01*
X266310Y97491D01*
X266235Y97434D01*
X266159Y97353D01*
X266078Y97259D01*
X266002Y97145D01*
X265939Y97020D01*
X265933Y97007D01*
X265927Y96988D01*
X265921Y96970D01*
X265914Y96938D01*
X265902Y96900D01*
X265889Y96863D01*
X265877Y96813D01*
X265870Y96750D01*
X265858Y96687D01*
X265845Y96618D01*
X265839Y96536D01*
X265833Y96455D01*
X265827Y96360D01*
X265820Y96254D01*
Y93465D01*
X266932D01*
Y95864D01*
Y95871D01*
Y95890D01*
Y95921D01*
Y95965D01*
X266938Y96015D01*
Y96072D01*
X266944Y96204D01*
X266963Y96335D01*
X266982Y96473D01*
X266995Y96530D01*
X267013Y96587D01*
X267032Y96637D01*
X267051Y96675D01*
X267057Y96687D01*
X267083Y96712D01*
X267114Y96750D01*
X267164Y96794D01*
X267233Y96838D01*
X267315Y96875D01*
X267409Y96900D01*
X267522Y96913D01*
X267560D01*
X267604Y96907D01*
X267667Y96894D01*
X267729Y96875D01*
X267805Y96850D01*
X267880Y96819D01*
X267962Y96769D01*
X267968Y96762D01*
X267993Y96744D01*
X268031Y96706D01*
X268075Y96662D01*
X268125Y96605D01*
X268175Y96530D01*
X268219Y96448D01*
X268257Y96348D01*
X268263Y96335D01*
Y96316D01*
X268269Y96298D01*
X268276Y96266D01*
X268282Y96229D01*
X268295Y96191D01*
X268301Y96141D01*
X268307Y96084D01*
X268320Y96015D01*
X268326Y95946D01*
X268332Y95871D01*
X268338Y95783D01*
Y95688D01*
X268345Y95588D01*
Y95481D01*
Y93465D01*
X269456D01*
Y95764D01*
Y95770D01*
Y95789D01*
Y95820D01*
Y95864D01*
Y95915D01*
Y95971D01*
X269463Y96097D01*
X269469Y96229D01*
X269481Y96360D01*
X269488Y96417D01*
X269500Y96473D01*
X269507Y96517D01*
X269519Y96555D01*
Y96561D01*
X269532Y96587D01*
X269544Y96618D01*
X269563Y96656D01*
X269620Y96744D01*
X269657Y96788D01*
X269701Y96825D01*
X269707Y96832D01*
X269726Y96838D01*
X269752Y96850D01*
X269789Y96869D01*
X269839Y96888D01*
X269896Y96900D01*
X269965Y96907D01*
X270040Y96913D01*
X270084D01*
X270135Y96907D01*
X270197Y96894D01*
X270266Y96875D01*
X270342Y96850D01*
X270423Y96819D01*
X270505Y96769D01*
X270511Y96762D01*
X270536Y96744D01*
X270574Y96712D01*
X270618Y96668D01*
X270662Y96612D01*
X270712Y96543D01*
X270756Y96461D01*
X270794Y96367D01*
X270800Y96354D01*
Y96342D01*
X270807Y96316D01*
X270813Y96291D01*
X270819Y96254D01*
X270832Y96210D01*
X270838Y96166D01*
X270844Y96109D01*
X270857Y96047D01*
X270863Y95971D01*
X270869Y95896D01*
X270876Y95808D01*
Y95714D01*
X270882Y95613D01*
Y95506D01*
Y93465D01*
X271993D01*
Y97761D01*
D02*
G37*
G36*
X246258Y99262D02*
X245146D01*
Y93465D01*
X246258D01*
Y99262D01*
D02*
G37*
G36*
X236813Y97667D02*
D01*
X235701D01*
Y93465D01*
X236813D01*
Y97667D01*
D02*
G37*
G36*
X295594Y99356D02*
D01*
Y93415D01*
Y99356D01*
D02*
G37*
G36*
X260601Y97761D02*
X256683D01*
X258605D01*
X258548Y97755D01*
X258473D01*
X258391Y97748D01*
X258303Y97736D01*
X258203Y97723D01*
X257995Y97692D01*
X257788Y97642D01*
X257681Y97610D01*
X257587Y97572D01*
X257493Y97528D01*
X257411Y97478D01*
X257405D01*
X257392Y97466D01*
X257374Y97447D01*
X257342Y97428D01*
X257311Y97397D01*
X257267Y97359D01*
X257229Y97315D01*
X257179Y97271D01*
X257135Y97215D01*
X257085Y97152D01*
X257034Y97083D01*
X256984Y97007D01*
X256940Y96932D01*
X256896Y96844D01*
X256827Y96649D01*
X257876Y96455D01*
Y96467D01*
X257889Y96492D01*
X257907Y96536D01*
X257932Y96593D01*
X257970Y96656D01*
X258014Y96718D01*
X258071Y96775D01*
X258134Y96832D01*
X258140Y96838D01*
X258171Y96850D01*
X258209Y96875D01*
X258272Y96900D01*
X258347Y96919D01*
X258435Y96944D01*
X258548Y96957D01*
X258667Y96963D01*
X258736D01*
X258812Y96957D01*
X258906Y96951D01*
X259006Y96932D01*
X259113Y96913D01*
X259207Y96882D01*
X259289Y96838D01*
X259295Y96832D01*
X259308Y96825D01*
X259327Y96800D01*
X259352Y96775D01*
X259377Y96744D01*
X259396Y96706D01*
X259408Y96662D01*
X259415Y96612D01*
Y96605D01*
Y96593D01*
X259408Y96568D01*
X259402Y96543D01*
X259389Y96511D01*
X259371Y96480D01*
X259346Y96442D01*
X259308Y96411D01*
X259302Y96404D01*
X259289Y96398D01*
X259270Y96392D01*
X259245Y96379D01*
X259214Y96367D01*
X259170Y96348D01*
X259119Y96329D01*
X259063Y96310D01*
X258988Y96285D01*
X258906Y96260D01*
X258805Y96229D01*
X258699Y96204D01*
X258573Y96166D01*
X258429Y96134D01*
X258272Y96097D01*
X258259D01*
X258234Y96090D01*
X258190Y96078D01*
X258127Y96059D01*
X258058Y96040D01*
X257970Y96015D01*
X257882Y95990D01*
X257782Y95959D01*
X257581Y95890D01*
X257374Y95802D01*
X257279Y95758D01*
X257191Y95707D01*
X257104Y95657D01*
X257034Y95601D01*
X257028Y95594D01*
X257022Y95588D01*
X257003Y95569D01*
X256978Y95544D01*
X256953Y95519D01*
X256921Y95481D01*
X256890Y95437D01*
X256859Y95387D01*
X256796Y95268D01*
X256739Y95130D01*
X256695Y94966D01*
X256689Y94872D01*
X256683Y94778D01*
Y94721D01*
X256689Y94684D01*
X256695Y94634D01*
X256708Y94571D01*
X256720Y94508D01*
X256746Y94439D01*
X256771Y94363D01*
X256802Y94282D01*
X256840Y94200D01*
X256884Y94118D01*
X256940Y94031D01*
X257009Y93949D01*
X257078Y93867D01*
X257166Y93786D01*
X257173Y93779D01*
X257191Y93767D01*
X257217Y93748D01*
X257254Y93723D01*
X257305Y93691D01*
X257367Y93654D01*
X257443Y93616D01*
X257524Y93578D01*
X257618Y93541D01*
X257725Y93503D01*
X257845Y93465D01*
X257970Y93434D01*
X258108Y93409D01*
X258259Y93390D01*
X258422Y93378D01*
X258592Y93371D01*
X258674D01*
X258736Y93378D01*
X258805Y93384D01*
X258893Y93390D01*
X258981Y93403D01*
X259082Y93415D01*
X259302Y93453D01*
X259528Y93516D01*
X259641Y93560D01*
X259754Y93603D01*
X259854Y93654D01*
X259955Y93717D01*
X259961Y93723D01*
X259974Y93735D01*
X259999Y93754D01*
X260036Y93779D01*
X260074Y93817D01*
X260118Y93855D01*
X260168Y93905D01*
X260218Y93962D01*
X260275Y94031D01*
X260332Y94100D01*
X260382Y94175D01*
X260438Y94263D01*
X260489Y94351D01*
X260532Y94445D01*
X260570Y94552D01*
X260601Y94659D01*
X259490Y94828D01*
Y94822D01*
X259484Y94816D01*
X259477Y94778D01*
X259459Y94715D01*
X259427Y94646D01*
X259389Y94564D01*
X259339Y94483D01*
X259283Y94407D01*
X259207Y94338D01*
X259195Y94332D01*
X259170Y94313D01*
X259119Y94288D01*
X259050Y94257D01*
X258962Y94225D01*
X258856Y94200D01*
X258736Y94181D01*
X258598Y94175D01*
X258529D01*
X258491Y94181D01*
X258448D01*
X258353Y94194D01*
X258246Y94213D01*
X258140Y94244D01*
X258039Y94282D01*
X257951Y94332D01*
X257945Y94338D01*
X257926Y94351D01*
X257901Y94376D01*
X257876Y94407D01*
X257851Y94451D01*
X257826Y94502D01*
X257807Y94558D01*
X257801Y94627D01*
Y94634D01*
Y94646D01*
X257807Y94671D01*
X257813Y94703D01*
X257832Y94765D01*
X257857Y94803D01*
X257882Y94834D01*
X257889Y94841D01*
X257901Y94847D01*
X257926Y94866D01*
X257958Y94885D01*
X258008Y94910D01*
X258071Y94935D01*
X258152Y94960D01*
X258253Y94985D01*
X258259D01*
X258265Y94991D01*
X258284D01*
X258309Y94998D01*
X258378Y95016D01*
X258466Y95035D01*
X258573Y95060D01*
X258692Y95092D01*
X258824Y95123D01*
X258969Y95161D01*
X259251Y95249D01*
X259396Y95293D01*
X259534Y95337D01*
X259660Y95387D01*
X259773Y95431D01*
X259873Y95481D01*
X259948Y95525D01*
X259955Y95531D01*
X259967Y95544D01*
X259992Y95563D01*
X260024Y95588D01*
X260061Y95619D01*
X260105Y95663D01*
X260149Y95714D01*
X260193Y95770D01*
X260244Y95833D01*
X260287Y95902D01*
X260332Y95984D01*
X260369Y96065D01*
X260401Y96159D01*
X260426Y96254D01*
X260438Y96360D01*
X260444Y96467D01*
Y96473D01*
Y96492D01*
Y96517D01*
X260438Y96561D01*
X260432Y96605D01*
X260419Y96662D01*
X260407Y96718D01*
X260388Y96788D01*
X260338Y96932D01*
X260306Y97007D01*
X260262Y97083D01*
X260212Y97164D01*
X260156Y97240D01*
X260093Y97315D01*
X260017Y97384D01*
X260011Y97390D01*
X259999Y97403D01*
X259974Y97422D01*
X259936Y97441D01*
X259892Y97472D01*
X259835Y97503D01*
X259766Y97535D01*
X259691Y97572D01*
X259603Y97610D01*
X259503Y97642D01*
X259396Y97673D01*
X259276Y97704D01*
X259145Y97723D01*
X259000Y97742D01*
X258849Y97755D01*
X258686Y97761D01*
X260601D01*
D01*
D02*
G37*
G36*
X295594Y99356D02*
X290871D01*
X293151D01*
X293082Y99350D01*
X292987Y99344D01*
X292887Y99331D01*
X292768Y99318D01*
X292642Y99293D01*
X292516Y99268D01*
X292378Y99237D01*
X292240Y99199D01*
X292108Y99155D01*
X291976Y99099D01*
X291845Y99029D01*
X291725Y98960D01*
X291618Y98873D01*
X291612Y98866D01*
X291593Y98854D01*
X291568Y98822D01*
X291530Y98785D01*
X291487Y98741D01*
X291443Y98678D01*
X291392Y98609D01*
X291336Y98533D01*
X291286Y98445D01*
X291235Y98351D01*
X291185Y98245D01*
X291141Y98131D01*
X291097Y98012D01*
X291066Y97880D01*
X291047Y97742D01*
X291034Y97598D01*
X292202Y97554D01*
Y97560D01*
X292209Y97572D01*
Y97598D01*
X292215Y97623D01*
X292228Y97660D01*
X292240Y97704D01*
X292272Y97799D01*
X292316Y97899D01*
X292372Y98006D01*
X292441Y98106D01*
X292529Y98188D01*
X292542Y98194D01*
X292573Y98219D01*
X292630Y98251D01*
X292711Y98288D01*
X292818Y98326D01*
X292944Y98357D01*
X293094Y98383D01*
X293270Y98389D01*
X293352D01*
X293396Y98383D01*
X293446Y98376D01*
X293565Y98364D01*
X293691Y98339D01*
X293829Y98301D01*
X293955Y98245D01*
X294074Y98175D01*
X294080Y98169D01*
X294099Y98150D01*
X294130Y98119D01*
X294162Y98081D01*
X294199Y98031D01*
X294225Y97968D01*
X294250Y97899D01*
X294256Y97817D01*
Y97811D01*
Y97786D01*
X294250Y97742D01*
X294237Y97698D01*
X294212Y97642D01*
X294187Y97579D01*
X294143Y97522D01*
X294087Y97466D01*
X294074Y97460D01*
X294061Y97447D01*
X294036Y97434D01*
X294011Y97416D01*
X293973Y97397D01*
X293923Y97372D01*
X293867Y97346D01*
X293804Y97321D01*
X293728Y97290D01*
X293641Y97259D01*
X293540Y97227D01*
X293427Y97189D01*
X293302Y97152D01*
X293163Y97114D01*
X293013Y97076D01*
X293000D01*
X292975Y97070D01*
X292931Y97058D01*
X292874Y97045D01*
X292799Y97026D01*
X292724Y97001D01*
X292630Y96976D01*
X292535Y96951D01*
X292328Y96888D01*
X292121Y96819D01*
X292020Y96781D01*
X291920Y96744D01*
X291832Y96700D01*
X291750Y96662D01*
X291744D01*
X291732Y96649D01*
X291713Y96637D01*
X291681Y96624D01*
X291606Y96574D01*
X291512Y96511D01*
X291411Y96423D01*
X291304Y96323D01*
X291198Y96204D01*
X291104Y96072D01*
Y96065D01*
X291091Y96053D01*
X291085Y96034D01*
X291066Y96003D01*
X291047Y95965D01*
X291028Y95921D01*
X291009Y95871D01*
X290984Y95814D01*
X290965Y95751D01*
X290947Y95682D01*
X290909Y95525D01*
X290884Y95343D01*
X290871Y95148D01*
Y95098D01*
X290877Y95067D01*
Y95023D01*
X290884Y94966D01*
X290896Y94910D01*
X290909Y94847D01*
X290940Y94703D01*
X290990Y94546D01*
X291059Y94382D01*
X291104Y94294D01*
X291154Y94213D01*
Y94206D01*
X291166Y94194D01*
X291185Y94169D01*
X291204Y94144D01*
X291235Y94106D01*
X291267Y94062D01*
X291355Y93968D01*
X291468Y93867D01*
X291600Y93754D01*
X291757Y93654D01*
X291939Y93566D01*
X291945D01*
X291964Y93560D01*
X291989Y93547D01*
X292027Y93534D01*
X292077Y93516D01*
X292140Y93503D01*
X292209Y93484D01*
X292284Y93465D01*
X292372Y93440D01*
X292466Y93421D01*
X292573Y93409D01*
X292686Y93390D01*
X292799Y93378D01*
X292931Y93365D01*
X293063Y93359D01*
X293251D01*
X293308Y93365D01*
X293383D01*
X293471Y93371D01*
X293578Y93384D01*
X293697Y93403D01*
X293823Y93421D01*
X293961Y93447D01*
X294099Y93484D01*
X294237Y93522D01*
X294375Y93572D01*
X294514Y93629D01*
X294645Y93698D01*
X294771Y93773D01*
X294890Y93861D01*
X294897Y93867D01*
X294915Y93886D01*
X294947Y93918D01*
X294985Y93955D01*
X295028Y94012D01*
X295085Y94074D01*
X295142Y94150D01*
X295198Y94238D01*
X295261Y94338D01*
X295324Y94445D01*
X295380Y94571D01*
X295437Y94703D01*
X295487Y94847D01*
X295531Y94998D01*
X295569Y95167D01*
X295594Y95343D01*
X294457Y95456D01*
Y95450D01*
X294451Y95431D01*
X294444Y95400D01*
X294438Y95362D01*
X294426Y95312D01*
X294407Y95262D01*
X294369Y95136D01*
X294313Y94998D01*
X294237Y94853D01*
X294149Y94721D01*
X294099Y94665D01*
X294042Y94608D01*
X294036D01*
X294030Y94596D01*
X294011Y94583D01*
X293986Y94564D01*
X293955Y94546D01*
X293911Y94527D01*
X293867Y94502D01*
X293816Y94476D01*
X293691Y94426D01*
X293546Y94389D01*
X293377Y94357D01*
X293188Y94345D01*
X293132D01*
X293094Y94351D01*
X293044D01*
X292994Y94357D01*
X292868Y94376D01*
X292730Y94401D01*
X292586Y94445D01*
X292447Y94502D01*
X292385Y94539D01*
X292328Y94583D01*
X292322D01*
X292316Y94596D01*
X292284Y94627D01*
X292234Y94677D01*
X292184Y94740D01*
X292133Y94822D01*
X292083Y94922D01*
X292052Y95029D01*
X292039Y95086D01*
Y95142D01*
Y95148D01*
Y95180D01*
X292045Y95218D01*
X292052Y95262D01*
X292071Y95318D01*
X292089Y95381D01*
X292121Y95437D01*
X292165Y95494D01*
X292171Y95500D01*
X292190Y95519D01*
X292221Y95544D01*
X292259Y95582D01*
X292322Y95619D01*
X292391Y95663D01*
X292479Y95701D01*
X292586Y95745D01*
X292598Y95751D01*
X292611D01*
X292630Y95758D01*
X292655Y95764D01*
X292692Y95776D01*
X292730Y95789D01*
X292780Y95802D01*
X292837Y95820D01*
X292906Y95839D01*
X292981Y95858D01*
X293069Y95883D01*
X293163Y95908D01*
X293270Y95933D01*
X293389Y95965D01*
X293521Y95996D01*
X293534D01*
X293565Y96009D01*
X293609Y96021D01*
X293672Y96040D01*
X293754Y96059D01*
X293842Y96090D01*
X293936Y96122D01*
X294036Y96153D01*
X294256Y96241D01*
X294476Y96335D01*
X294576Y96392D01*
X294677Y96448D01*
X294765Y96505D01*
X294840Y96568D01*
X294846Y96574D01*
X294865Y96593D01*
X294890Y96618D01*
X294922Y96656D01*
X294966Y96700D01*
X295010Y96756D01*
X295060Y96819D01*
X295104Y96894D01*
X295154Y96976D01*
X295204Y97064D01*
X295248Y97164D01*
X295292Y97265D01*
X295324Y97372D01*
X295349Y97491D01*
X295368Y97610D01*
X295374Y97736D01*
Y97742D01*
Y97755D01*
Y97780D01*
X295368Y97811D01*
Y97849D01*
X295361Y97899D01*
X295342Y98006D01*
X295311Y98131D01*
X295267Y98276D01*
X295204Y98420D01*
X295123Y98565D01*
Y98571D01*
X295110Y98584D01*
X295098Y98602D01*
X295079Y98628D01*
X295016Y98697D01*
X294941Y98785D01*
X294834Y98879D01*
X294714Y98973D01*
X294564Y99067D01*
X294401Y99149D01*
X294394D01*
X294382Y99155D01*
X294350Y99168D01*
X294319Y99180D01*
X294269Y99199D01*
X294218Y99212D01*
X294156Y99230D01*
X294080Y99256D01*
X293999Y99274D01*
X293917Y99293D01*
X293823Y99306D01*
X293722Y99325D01*
X293609Y99337D01*
X293502Y99350D01*
X293257Y99356D01*
X295594D01*
D02*
G37*
G36*
X293063Y93359D02*
X290871D01*
X293063D01*
D01*
D02*
G37*
G36*
X251238Y97761D02*
X248864D01*
X248827Y97755D01*
X248770D01*
X248707Y97742D01*
X248638Y97729D01*
X248556Y97711D01*
X248462Y97692D01*
X248368Y97660D01*
X248268Y97623D01*
X248167Y97572D01*
X248060Y97516D01*
X247954Y97453D01*
X247853Y97372D01*
X247753Y97284D01*
X247652Y97183D01*
X247646Y97177D01*
X247627Y97158D01*
X247602Y97127D01*
X247570Y97076D01*
X247533Y97020D01*
X247489Y96951D01*
X247445Y96863D01*
X247395Y96769D01*
X247344Y96662D01*
X247301Y96543D01*
X247256Y96411D01*
X247219Y96266D01*
X247187Y96115D01*
X247156Y95952D01*
X247144Y95776D01*
X247137Y95588D01*
Y95544D01*
X247144Y95487D01*
Y95412D01*
X247150Y95324D01*
X247162Y95224D01*
X247181Y95111D01*
X247200Y94985D01*
X247231Y94859D01*
X247263Y94721D01*
X247307Y94590D01*
X247357Y94451D01*
X247413Y94319D01*
X247483Y94188D01*
X247564Y94062D01*
X247652Y93949D01*
X247658Y93943D01*
X247677Y93924D01*
X247702Y93899D01*
X247746Y93861D01*
X247797Y93817D01*
X247853Y93767D01*
X247922Y93717D01*
X248004Y93660D01*
X248085Y93603D01*
X248186Y93553D01*
X248286Y93503D01*
X248399Y93459D01*
X248513Y93428D01*
X248638Y93396D01*
X248764Y93378D01*
X248902Y93371D01*
X248958D01*
X249027Y93378D01*
X249115Y93390D01*
X249210Y93403D01*
X249316Y93428D01*
X249429Y93465D01*
X249536Y93509D01*
X249549Y93516D01*
X249586Y93534D01*
X249643Y93572D01*
X249718Y93622D01*
X249806Y93685D01*
X249907Y93767D01*
X250013Y93867D01*
X250127Y93980D01*
Y91870D01*
X247137D01*
X251238D01*
Y97761D01*
D02*
G37*
%LPD*%
G36*
X277331Y96907D02*
X277394Y96894D01*
X277463Y96875D01*
X277539Y96850D01*
X277620Y96819D01*
X277702Y96769D01*
X277708Y96762D01*
X277733Y96744D01*
X277771Y96712D01*
X277815Y96668D01*
X277859Y96612D01*
X277909Y96543D01*
X277953Y96461D01*
X277991Y96367D01*
X277997Y96354D01*
Y96342D01*
X278003Y96316D01*
X278010Y96291D01*
X278016Y96254D01*
X278028Y96210D01*
X278035Y96166D01*
X278041Y96109D01*
X278054Y96047D01*
X278060Y95971D01*
X278066Y95896D01*
X278073Y95808D01*
Y95714D01*
X278079Y95613D01*
Y95506D01*
Y93465D01*
X276653D01*
Y95764D01*
Y95770D01*
Y95789D01*
Y95820D01*
Y95864D01*
Y95915D01*
Y95971D01*
X276659Y96097D01*
X276666Y96229D01*
X276678Y96360D01*
X276685Y96417D01*
X276697Y96473D01*
X276703Y96517D01*
X276716Y96555D01*
Y96561D01*
X276729Y96587D01*
X276741Y96618D01*
X276760Y96656D01*
X276817Y96744D01*
X276854Y96788D01*
X276898Y96825D01*
X276904Y96832D01*
X276923Y96838D01*
X276948Y96850D01*
X276986Y96869D01*
X277036Y96888D01*
X277093Y96900D01*
X277162Y96907D01*
X277237Y96913D01*
X277281D01*
X277331Y96907D01*
D02*
G37*
G36*
X274801D02*
X274863Y96894D01*
X274926Y96875D01*
X275002Y96850D01*
X275077Y96819D01*
X275159Y96769D01*
X275165Y96762D01*
X275190Y96744D01*
X275228Y96706D01*
X275272Y96662D01*
X275322Y96605D01*
X275372Y96530D01*
X275416Y96448D01*
X275454Y96348D01*
X275460Y96335D01*
Y96316D01*
X275466Y96298D01*
X275473Y96266D01*
X275479Y96229D01*
X275491Y96191D01*
X275498Y96141D01*
X275504Y96084D01*
X275517Y96015D01*
X275523Y95946D01*
X275529Y95871D01*
X275535Y95783D01*
Y95688D01*
X275542Y95588D01*
Y95481D01*
Y93465D01*
X274129D01*
Y95864D01*
Y95871D01*
Y95890D01*
Y95921D01*
Y95965D01*
X274135Y96015D01*
Y96072D01*
X274141Y96204D01*
X274160Y96335D01*
X274179Y96473D01*
X274191Y96530D01*
X274210Y96587D01*
X274229Y96637D01*
X274248Y96675D01*
X274254Y96687D01*
X274279Y96712D01*
X274311Y96750D01*
X274361Y96794D01*
X274430Y96838D01*
X274512Y96875D01*
X274606Y96900D01*
X274719Y96913D01*
X274757D01*
X274801Y96907D01*
D02*
G37*
G36*
X241705Y95475D02*
X241736Y95469D01*
X241787Y95450D01*
X241862Y95431D01*
X241956Y95406D01*
X242075Y95375D01*
X242214Y95343D01*
X242377Y95305D01*
X242383D01*
X242396Y95299D01*
X242421D01*
X242452Y95287D01*
X242528Y95268D01*
X242622Y95249D01*
X242722Y95218D01*
X242823Y95186D01*
X242911Y95155D01*
X242948Y95136D01*
X242980Y95117D01*
X242986Y95111D01*
X243011Y95092D01*
X243049Y95054D01*
X243087Y95010D01*
X243124Y94954D01*
X243162Y94885D01*
X243187Y94809D01*
X243193Y94728D01*
Y94715D01*
Y94690D01*
X243187Y94646D01*
X243175Y94590D01*
X243149Y94527D01*
X243124Y94458D01*
X243080Y94395D01*
X243024Y94326D01*
X243018Y94319D01*
X242992Y94301D01*
X242955Y94269D01*
X242904Y94244D01*
X242835Y94213D01*
X242760Y94181D01*
X242672Y94162D01*
X242578Y94156D01*
X242565D01*
X242528Y94162D01*
X242471Y94169D01*
X242396Y94181D01*
X242308Y94206D01*
X242207Y94238D01*
X242107Y94288D01*
X242006Y94351D01*
X242000Y94357D01*
X241975Y94376D01*
X241937Y94407D01*
X241900Y94451D01*
X241849Y94508D01*
X241806Y94571D01*
X241768Y94640D01*
X241736Y94715D01*
Y94721D01*
X241730Y94747D01*
X241724Y94784D01*
X241711Y94834D01*
X241705Y94910D01*
X241699Y95004D01*
X241692Y95117D01*
Y95255D01*
Y95481D01*
X241705Y95475D01*
D02*
G37*
G36*
X244305Y93371D02*
X242974D01*
X243018Y93378D01*
X243074Y93384D01*
X243137Y93390D01*
X243206Y93403D01*
X243281Y93415D01*
X243445Y93453D01*
X243614Y93516D01*
X243702Y93560D01*
X243784Y93603D01*
X243859Y93654D01*
X243934Y93717D01*
X243941Y93723D01*
X243953Y93735D01*
X243966Y93754D01*
X243991Y93779D01*
X244022Y93817D01*
X244054Y93855D01*
X244085Y93905D01*
X244116Y93962D01*
X244154Y94024D01*
X244186Y94087D01*
X244248Y94244D01*
X244273Y94326D01*
X244286Y94414D01*
X244299Y94508D01*
X244305Y94608D01*
Y93371D01*
D02*
G37*
G36*
X282217Y96850D02*
X282255Y96844D01*
X282299Y96838D01*
X282399Y96813D01*
X282519Y96775D01*
X282638Y96718D01*
X282701Y96681D01*
X282757Y96637D01*
X282820Y96580D01*
X282877Y96524D01*
Y96517D01*
X282889Y96511D01*
X282902Y96486D01*
X282921Y96461D01*
X282946Y96430D01*
X282971Y96386D01*
X282996Y96335D01*
X283021Y96279D01*
X283046Y96216D01*
X283071Y96141D01*
X283097Y96065D01*
X283122Y95977D01*
X283140Y95883D01*
X283153Y95783D01*
X283159Y95676D01*
X283166Y95563D01*
Y95557D01*
Y95538D01*
Y95500D01*
X283159Y95462D01*
Y95406D01*
X283153Y95349D01*
X283140Y95280D01*
X283128Y95205D01*
X283097Y95054D01*
X283046Y94891D01*
X282971Y94740D01*
X282927Y94665D01*
X282877Y94602D01*
X282870Y94596D01*
X282864Y94590D01*
X282845Y94571D01*
X282826Y94552D01*
X282757Y94502D01*
X282676Y94439D01*
X282569Y94376D01*
X282443Y94326D01*
X282305Y94288D01*
X282230Y94282D01*
X282148Y94275D01*
X282104D01*
X282073Y94282D01*
X282041Y94288D01*
X281997Y94294D01*
X281897Y94319D01*
X281778Y94357D01*
X281658Y94414D01*
X281596Y94451D01*
X281533Y94495D01*
X281476Y94546D01*
X281420Y94602D01*
X281413Y94608D01*
X281407Y94621D01*
X281395Y94640D01*
X281376Y94665D01*
X281351Y94696D01*
X281326Y94740D01*
X281300Y94791D01*
X281269Y94847D01*
X281244Y94910D01*
X281219Y94985D01*
X281194Y95067D01*
X281169Y95148D01*
X281150Y95243D01*
X281137Y95343D01*
X281125Y95456D01*
Y95569D01*
Y95575D01*
Y95594D01*
Y95632D01*
X281131Y95670D01*
Y95726D01*
X281137Y95783D01*
X281150Y95852D01*
X281162Y95921D01*
X281194Y96078D01*
X281250Y96235D01*
X281319Y96386D01*
X281369Y96461D01*
X281420Y96524D01*
X281426Y96530D01*
X281432Y96536D01*
X281451Y96555D01*
X281470Y96574D01*
X281533Y96631D01*
X281621Y96693D01*
X281727Y96750D01*
X281853Y96806D01*
X281991Y96844D01*
X282067Y96850D01*
X282148Y96857D01*
X282192D01*
X282217Y96850D01*
D02*
G37*
G36*
X310584Y93359D02*
X308292Y93359D01*
X308348Y93365D01*
X308417D01*
X308493Y93371D01*
X308581Y93378D01*
X308675Y93384D01*
X308882Y93403D01*
X309089Y93440D01*
X309290Y93484D01*
X309385Y93516D01*
X309466Y93547D01*
X309472D01*
X309485Y93553D01*
X309510Y93566D01*
X309535Y93585D01*
X309573Y93603D01*
X309617Y93622D01*
X309711Y93685D01*
X309818Y93754D01*
X309931Y93836D01*
X310044Y93936D01*
X310144Y94043D01*
Y94049D01*
X310157Y94056D01*
X310170Y94075D01*
X310182Y94100D01*
X310226Y94156D01*
X310276Y94238D01*
X310333Y94338D01*
X310389Y94445D01*
X310433Y94564D01*
X310471Y94690D01*
Y94696D01*
X310477Y94715D01*
X310484Y94740D01*
X310490Y94784D01*
X310496Y94834D01*
X310509Y94897D01*
X310515Y94973D01*
X310527Y95060D01*
X310540Y95155D01*
X310546Y95268D01*
X310559Y95387D01*
X310565Y95519D01*
X310572Y95663D01*
X310578Y95814D01*
X310584Y95984D01*
Y93359D01*
D02*
G37*
G36*
X263113Y96907D02*
X263176Y96900D01*
X263264Y96882D01*
X263358Y96850D01*
X263459Y96800D01*
X263553Y96731D01*
X263603Y96693D01*
X263647Y96643D01*
X263660Y96631D01*
X263685Y96593D01*
X263723Y96536D01*
X263767Y96455D01*
X263811Y96354D01*
X263848Y96229D01*
X263873Y96090D01*
X263880Y95927D01*
X262222D01*
Y95933D01*
Y95946D01*
Y95971D01*
X262228Y96009D01*
X262234Y96047D01*
X262241Y96090D01*
X262259Y96197D01*
X262291Y96316D01*
X262335Y96436D01*
X262391Y96555D01*
X262473Y96656D01*
X262486Y96668D01*
X262517Y96693D01*
X262567Y96737D01*
X262636Y96788D01*
X262718Y96832D01*
X262818Y96875D01*
X262931Y96900D01*
X263051Y96913D01*
X263088D01*
X263113Y96907D01*
D02*
G37*
G36*
X265035Y93371D02*
X263051D01*
X263107Y93378D01*
X263183Y93384D01*
X263270Y93390D01*
X263377Y93409D01*
X263490Y93428D01*
X263616Y93459D01*
X263748Y93497D01*
X263880Y93547D01*
X264012Y93603D01*
X264150Y93673D01*
X264275Y93754D01*
X264401Y93849D01*
X264514Y93955D01*
X264621Y94081D01*
X264627Y94087D01*
X264640Y94106D01*
X264658Y94137D01*
X264684Y94188D01*
X264715Y94244D01*
X264753Y94307D01*
X264790Y94389D01*
X264828Y94476D01*
X264866Y94577D01*
X264903Y94690D01*
X264941Y94809D01*
X264972Y94935D01*
X264998Y95073D01*
X265016Y95218D01*
X265029Y95375D01*
X265035Y95531D01*
Y93371D01*
D02*
G37*
G36*
X228027Y96907D02*
X228090Y96900D01*
X228178Y96882D01*
X228272Y96850D01*
X228373Y96800D01*
X228467Y96731D01*
X228517Y96693D01*
X228561Y96643D01*
X228573Y96631D01*
X228599Y96593D01*
X228636Y96536D01*
X228680Y96455D01*
X228724Y96354D01*
X228762Y96229D01*
X228787Y96090D01*
X228793Y95927D01*
X227135D01*
Y95933D01*
Y95946D01*
Y95971D01*
X227142Y96009D01*
X227148Y96047D01*
X227154Y96090D01*
X227173Y96197D01*
X227204Y96316D01*
X227248Y96436D01*
X227305Y96555D01*
X227387Y96656D01*
X227399Y96668D01*
X227431Y96693D01*
X227481Y96737D01*
X227550Y96788D01*
X227631Y96832D01*
X227732Y96875D01*
X227845Y96900D01*
X227964Y96913D01*
X228002D01*
X228027Y96907D01*
D02*
G37*
G36*
X229949Y93371D02*
X227964D01*
X228021Y93378D01*
X228096Y93384D01*
X228184Y93390D01*
X228291Y93409D01*
X228404Y93428D01*
X228530Y93459D01*
X228661Y93497D01*
X228793Y93547D01*
X228925Y93603D01*
X229063Y93673D01*
X229189Y93754D01*
X229315Y93849D01*
X229428Y93955D01*
X229534Y94081D01*
X229541Y94087D01*
X229553Y94106D01*
X229572Y94137D01*
X229597Y94188D01*
X229629Y94244D01*
X229666Y94307D01*
X229704Y94389D01*
X229742Y94476D01*
X229779Y94577D01*
X229817Y94690D01*
X229855Y94809D01*
X229886Y94935D01*
X229911Y95073D01*
X229930Y95218D01*
X229943Y95375D01*
X229949Y95531D01*
Y93371D01*
D02*
G37*
G36*
X271993Y97667D02*
X270970D01*
Y97089D01*
X270964Y97095D01*
X270945Y97120D01*
X270913Y97152D01*
X270869Y97196D01*
X270819Y97246D01*
X270756Y97303D01*
X270681Y97365D01*
X270599Y97428D01*
X270511Y97491D01*
X270411Y97547D01*
X270304Y97604D01*
X270191Y97654D01*
X270065Y97698D01*
X269940Y97729D01*
X269802Y97755D01*
X269664Y97761D01*
X271993D01*
Y97667D01*
D02*
G37*
G36*
X269563Y97755D02*
X269519D01*
X269425Y97742D01*
X269318Y97717D01*
X269199Y97692D01*
X269079Y97648D01*
X268967Y97591D01*
X268960D01*
X268954Y97585D01*
X268916Y97560D01*
X268860Y97522D01*
X268791Y97466D01*
X268715Y97397D01*
X268634Y97309D01*
X268552Y97208D01*
X268477Y97089D01*
X268470Y97095D01*
X268464Y97101D01*
X268451Y97120D01*
X268426Y97145D01*
X268370Y97202D01*
X268301Y97277D01*
X268207Y97359D01*
X268106Y97447D01*
X267999Y97522D01*
X267880Y97591D01*
X267874D01*
X267867Y97598D01*
X267849Y97610D01*
X267824Y97616D01*
X267761Y97648D01*
X267673Y97679D01*
X267572Y97704D01*
X267453Y97736D01*
X267327Y97755D01*
X267196Y97761D01*
X269595D01*
X269563Y97755D01*
D02*
G37*
G36*
X251238Y97667D02*
X250202D01*
Y97051D01*
X250189Y97057D01*
X250164Y97095D01*
X250120Y97158D01*
X250057Y97227D01*
X249982Y97309D01*
X249888Y97397D01*
X249781Y97485D01*
X249662Y97560D01*
X249656D01*
X249643Y97566D01*
X249624Y97579D01*
X249599Y97591D01*
X249568Y97604D01*
X249530Y97623D01*
X249436Y97660D01*
X249323Y97698D01*
X249191Y97729D01*
X249046Y97755D01*
X248896Y97761D01*
X251238D01*
Y97667D01*
D02*
G37*
G36*
X249272Y96875D02*
X249304Y96869D01*
X249348Y96863D01*
X249442Y96844D01*
X249549Y96806D01*
X249662Y96750D01*
X249718Y96712D01*
X249775Y96668D01*
X249831Y96618D01*
X249882Y96561D01*
Y96555D01*
X249894Y96549D01*
X249907Y96530D01*
X249925Y96505D01*
X249944Y96467D01*
X249963Y96430D01*
X249988Y96379D01*
X250013Y96329D01*
X250039Y96266D01*
X250064Y96197D01*
X250082Y96122D01*
X250101Y96040D01*
X250120Y95946D01*
X250133Y95852D01*
X250139Y95745D01*
X250145Y95632D01*
Y95626D01*
Y95601D01*
Y95563D01*
X250139Y95519D01*
Y95456D01*
X250133Y95387D01*
X250120Y95318D01*
X250108Y95236D01*
X250076Y95067D01*
X250026Y94891D01*
X249957Y94728D01*
X249919Y94652D01*
X249869Y94583D01*
X249863Y94577D01*
X249856Y94571D01*
X249819Y94533D01*
X249756Y94476D01*
X249674Y94420D01*
X249574Y94357D01*
X249461Y94301D01*
X249323Y94263D01*
X249254Y94257D01*
X249178Y94250D01*
X249141D01*
X249115Y94257D01*
X249046Y94269D01*
X248952Y94288D01*
X248852Y94326D01*
X248745Y94382D01*
X248695Y94414D01*
X248638Y94458D01*
X248588Y94502D01*
X248538Y94558D01*
X248531Y94564D01*
X248525Y94571D01*
X248513Y94590D01*
X248494Y94615D01*
X248475Y94652D01*
X248456Y94690D01*
X248431Y94740D01*
X248406Y94803D01*
X248381Y94866D01*
X248356Y94941D01*
X248337Y95023D01*
X248318Y95117D01*
X248299Y95218D01*
X248286Y95331D01*
X248274Y95450D01*
Y95575D01*
Y95582D01*
Y95607D01*
Y95638D01*
X248280Y95682D01*
Y95739D01*
X248286Y95802D01*
X248299Y95871D01*
X248305Y95946D01*
X248337Y96103D01*
X248387Y96266D01*
X248456Y96423D01*
X248494Y96492D01*
X248544Y96555D01*
Y96561D01*
X248556Y96568D01*
X248594Y96605D01*
X248651Y96656D01*
X248726Y96718D01*
X248820Y96781D01*
X248933Y96832D01*
X249059Y96869D01*
X249128Y96875D01*
X249203Y96882D01*
X249241D01*
X249272Y96875D01*
D02*
G37*
%LPC*%
G36*
X258717Y90705D02*
X256877D01*
X258636D01*
X258573Y90698D01*
X258504Y90692D01*
X258422Y90680D01*
X258328Y90667D01*
X258228Y90648D01*
X258121Y90623D01*
X258014Y90592D01*
X257901Y90554D01*
X257788Y90510D01*
X257681Y90453D01*
X257575Y90391D01*
X257468Y90322D01*
X257374Y90240D01*
X257367Y90234D01*
X257355Y90221D01*
X257330Y90190D01*
X257298Y90158D01*
X257261Y90114D01*
X257217Y90058D01*
X257173Y89995D01*
X257122Y89920D01*
X257078Y89844D01*
X257034Y89756D01*
X256991Y89662D01*
X256953Y89562D01*
X256921Y89449D01*
X256896Y89336D01*
X256884Y89216D01*
X256877Y89091D01*
D01*
Y84889D01*
X260771D01*
Y84896D01*
X260765Y84914D01*
Y84946D01*
X260758Y84990D01*
X260746Y85040D01*
X260733Y85103D01*
X260721Y85172D01*
X260702Y85247D01*
X260652Y85417D01*
X260583Y85605D01*
X260501Y85800D01*
X260394Y85995D01*
X260388Y86001D01*
X260382Y86020D01*
X260357Y86051D01*
X260332Y86089D01*
X260294Y86139D01*
X260244Y86208D01*
X260187Y86277D01*
X260118Y86365D01*
X260043Y86459D01*
X259948Y86560D01*
X259848Y86679D01*
X259735Y86799D01*
X259609Y86930D01*
X259465Y87075D01*
X259314Y87226D01*
X259145Y87383D01*
X259138Y87389D01*
X259113Y87414D01*
X259075Y87452D01*
X259025Y87496D01*
X258962Y87552D01*
X258900Y87615D01*
X258824Y87690D01*
X258749Y87766D01*
X258586Y87923D01*
X258435Y88080D01*
X258372Y88149D01*
X258309Y88218D01*
X258259Y88281D01*
X258221Y88331D01*
Y88337D01*
X258209Y88343D01*
X258203Y88362D01*
X258184Y88387D01*
X258146Y88456D01*
X258102Y88544D01*
X258064Y88645D01*
X258027Y88758D01*
X258002Y88884D01*
X257989Y89009D01*
Y89015D01*
Y89028D01*
Y89047D01*
Y89072D01*
X258002Y89135D01*
X258014Y89223D01*
X258039Y89310D01*
X258071Y89405D01*
X258121Y89499D01*
X258190Y89581D01*
X258196Y89587D01*
X258228Y89612D01*
X258272Y89643D01*
X258334Y89681D01*
X258416Y89719D01*
X258510Y89750D01*
X258617Y89775D01*
X258743Y89781D01*
X258799D01*
X258862Y89769D01*
X258944Y89756D01*
X259032Y89731D01*
X259126Y89694D01*
X259220Y89637D01*
X259302Y89568D01*
X259308Y89556D01*
X259333Y89530D01*
X259364Y89480D01*
X259408Y89405D01*
X259446Y89310D01*
X259484Y89191D01*
X259515Y89047D01*
X259528Y88965D01*
X259534Y88877D01*
X260639Y88984D01*
Y88996D01*
X260633Y89022D01*
X260627Y89072D01*
X260614Y89135D01*
X260601Y89210D01*
X260583Y89298D01*
X260558Y89392D01*
X260526Y89493D01*
X260489Y89599D01*
X260444Y89706D01*
X260394Y89819D01*
X260338Y89926D01*
X260275Y90033D01*
X260200Y90133D01*
X260118Y90221D01*
X260024Y90303D01*
X260017Y90309D01*
X259999Y90322D01*
X259967Y90341D01*
X259930Y90366D01*
X259879Y90397D01*
X259817Y90428D01*
X259747Y90466D01*
X259666Y90504D01*
X259572Y90541D01*
X259477Y90579D01*
X259371Y90610D01*
X259251Y90642D01*
X259132Y90667D01*
X259000Y90686D01*
X258862Y90698D01*
X258717Y90705D01*
D02*
G37*
G36*
X260771Y88877D02*
Y88871D01*
D01*
Y88877D01*
D02*
G37*
G36*
Y88475D02*
Y88456D01*
D01*
Y88475D01*
D02*
G37*
G36*
Y88080D02*
D01*
D01*
D01*
D02*
G37*
G36*
Y87320D02*
Y87307D01*
D01*
Y87320D01*
D02*
G37*
G36*
Y86560D02*
Y86547D01*
D01*
Y86560D01*
D02*
G37*
G36*
X272301Y89185D02*
X272257D01*
X272213Y89179D01*
X272144Y89172D01*
X272069Y89166D01*
X271975Y89153D01*
X271874Y89135D01*
X271767Y89110D01*
X271648Y89072D01*
X271529Y89034D01*
X271409Y88984D01*
X271284Y88921D01*
X271164Y88852D01*
X271045Y88771D01*
X270932Y88670D01*
X270825Y88563D01*
X270819Y88557D01*
X270800Y88532D01*
X270775Y88500D01*
X270744Y88450D01*
X270700Y88381D01*
X270656Y88300D01*
X270606Y88205D01*
X270555Y88099D01*
X270505Y87973D01*
X270461Y87828D01*
X270417Y87678D01*
X270379Y87508D01*
X270348Y87320D01*
X270323Y87119D01*
X270304Y86905D01*
Y86673D01*
X273086D01*
Y86667D01*
Y86654D01*
Y86623D01*
X273080Y86591D01*
X273074Y86547D01*
X273067Y86497D01*
X273048Y86390D01*
X273017Y86265D01*
X272973Y86133D01*
X272910Y86007D01*
X272822Y85894D01*
X272816D01*
X272810Y85882D01*
X272778Y85850D01*
X272722Y85806D01*
X272647Y85762D01*
X272552Y85712D01*
X272439Y85668D01*
X272314Y85637D01*
X272245Y85631D01*
X272176Y85624D01*
X272132D01*
X272088Y85631D01*
X272025Y85643D01*
X271956Y85656D01*
X271887Y85681D01*
X271811Y85718D01*
X271742Y85762D01*
X271736Y85769D01*
X271711Y85787D01*
X271679Y85825D01*
X271642Y85875D01*
X271591Y85938D01*
X271548Y86020D01*
X271504Y86114D01*
X271466Y86227D01*
X270361Y86039D01*
Y86032D01*
X270373Y86014D01*
X270386Y85982D01*
X270398Y85938D01*
X270423Y85888D01*
X270455Y85831D01*
X270486Y85762D01*
X270524Y85693D01*
X270618Y85543D01*
X270737Y85392D01*
X270876Y85241D01*
X270957Y85172D01*
X271039Y85109D01*
X271045Y85103D01*
X271058Y85097D01*
X271083Y85078D01*
X271121Y85059D01*
X271164Y85034D01*
X271221Y85009D01*
X271284Y84984D01*
X271353Y84952D01*
X271434Y84921D01*
X271522Y84896D01*
X271617Y84871D01*
X271717Y84846D01*
X271824Y84827D01*
X271943Y84808D01*
X272062Y84802D01*
X272188Y84795D01*
X270304D01*
X274223D01*
Y86999D01*
X274217Y87056D01*
Y87125D01*
X274204Y87213D01*
X274191Y87320D01*
X274179Y87427D01*
X274154Y87552D01*
X274129Y87678D01*
X274091Y87810D01*
X274047Y87948D01*
X273997Y88086D01*
X273934Y88218D01*
X273859Y88350D01*
X273777Y88475D01*
X273683Y88588D01*
X273676Y88595D01*
X273658Y88613D01*
X273626Y88645D01*
X273582Y88683D01*
X273532Y88727D01*
X273463Y88777D01*
X273388Y88833D01*
X273306Y88890D01*
X273212Y88940D01*
X273105Y88996D01*
X272992Y89047D01*
X272866Y89091D01*
X272741Y89128D01*
X272603Y89160D01*
X272452Y89179D01*
X272301Y89185D01*
D02*
G37*
G36*
X269940Y89091D02*
D01*
Y85053D01*
Y89091D01*
D02*
G37*
G36*
X279737Y90686D02*
X277124D01*
X277049Y90680D01*
X276961D01*
X276860Y90673D01*
X276760Y90667D01*
X276534Y90648D01*
X276314Y90617D01*
X276207Y90604D01*
X276101Y90579D01*
X276006Y90554D01*
X275925Y90529D01*
X275918D01*
X275906Y90523D01*
X275887Y90510D01*
X275856Y90497D01*
X275818Y90479D01*
X275780Y90460D01*
X275680Y90403D01*
X275573Y90322D01*
X275466Y90227D01*
X275353Y90108D01*
X275253Y89970D01*
Y89964D01*
X275240Y89951D01*
X275228Y89932D01*
X275215Y89901D01*
X275190Y89863D01*
X275171Y89819D01*
X275146Y89763D01*
X275121Y89706D01*
X275077Y89574D01*
X275033Y89417D01*
X275008Y89248D01*
X274995Y89059D01*
Y89053D01*
Y89028D01*
Y88996D01*
X275002Y88953D01*
X275008Y88896D01*
X275014Y88833D01*
X275027Y88758D01*
X275045Y88683D01*
X275090Y88507D01*
X275121Y88419D01*
X275159Y88331D01*
X275202Y88237D01*
X275253Y88149D01*
X275309Y88061D01*
X275378Y87979D01*
X275385Y87973D01*
X275397Y87960D01*
X275416Y87941D01*
X275447Y87910D01*
X275491Y87879D01*
X275542Y87841D01*
X275598Y87797D01*
X275667Y87753D01*
X275743Y87703D01*
X275824Y87659D01*
X275918Y87615D01*
X276025Y87571D01*
X276138Y87533D01*
X276258Y87496D01*
X276389Y87464D01*
X276528Y87439D01*
X276521D01*
X276509Y87427D01*
X276490Y87420D01*
X276465Y87401D01*
X276396Y87357D01*
X276308Y87295D01*
X276207Y87226D01*
X276101Y87144D01*
X275994Y87050D01*
X275900Y86955D01*
X275887Y86943D01*
X275874Y86924D01*
X275856Y86905D01*
X275831Y86874D01*
X275799Y86836D01*
X275761Y86792D01*
X275724Y86742D01*
X275680Y86679D01*
X275630Y86610D01*
X275573Y86535D01*
X275517Y86447D01*
X275454Y86353D01*
X275385Y86246D01*
X275309Y86139D01*
X275234Y86014D01*
X274524Y84889D01*
X277761D01*
X275925D01*
X276772Y86152D01*
X276779Y86158D01*
X276791Y86183D01*
X276817Y86215D01*
X276848Y86259D01*
X276879Y86315D01*
X276923Y86371D01*
X277017Y86510D01*
X277124Y86654D01*
X277225Y86792D01*
X277275Y86855D01*
X277319Y86912D01*
X277357Y86962D01*
X277394Y86999D01*
X277400Y87006D01*
X277419Y87031D01*
X277457Y87056D01*
X277501Y87094D01*
X277551Y87138D01*
X277614Y87175D01*
X277677Y87213D01*
X277746Y87238D01*
X277752Y87244D01*
X277784Y87251D01*
X277828Y87263D01*
X277890Y87276D01*
X277972Y87288D01*
X278073Y87295D01*
X278192Y87307D01*
X278569D01*
Y84889D01*
X279737D01*
Y90686D01*
D02*
G37*
G36*
X269940Y89091D02*
X265582D01*
D01*
X267252Y84889D01*
X268251D01*
X269940Y89091D01*
D02*
G37*
G36*
X263258Y90705D02*
X263220D01*
X263176Y90698D01*
X263120D01*
X263051Y90686D01*
X262969Y90673D01*
X262875Y90654D01*
X262774Y90629D01*
X262674Y90598D01*
X262567Y90560D01*
X262454Y90510D01*
X262347Y90453D01*
X262241Y90384D01*
X262134Y90303D01*
X262033Y90209D01*
X261939Y90102D01*
X261933Y90096D01*
X261914Y90070D01*
X261889Y90026D01*
X261851Y89964D01*
X261807Y89888D01*
X261757Y89788D01*
X261707Y89675D01*
X261657Y89537D01*
X261606Y89386D01*
X261550Y89210D01*
X261506Y89015D01*
X261462Y88802D01*
X261424Y88569D01*
X261399Y88312D01*
X261380Y88036D01*
X261374Y87740D01*
Y87628D01*
X261380Y87584D01*
Y87533D01*
Y87471D01*
X261393Y87339D01*
X261405Y87182D01*
X261424Y87012D01*
X261443Y86830D01*
X261474Y86635D01*
X261512Y86441D01*
X261562Y86240D01*
X261613Y86045D01*
X261682Y85863D01*
X261757Y85681D01*
X261845Y85517D01*
X261945Y85373D01*
X261952Y85367D01*
X261964Y85348D01*
X261996Y85316D01*
X262033Y85279D01*
X262077Y85235D01*
X262140Y85185D01*
X262209Y85134D01*
X262285Y85078D01*
X262372Y85021D01*
X262473Y84971D01*
X262580Y84921D01*
X262699Y84877D01*
X262825Y84839D01*
X262963Y84808D01*
X263107Y84789D01*
X263258Y84783D01*
X263296D01*
X263340Y84789D01*
X263396Y84795D01*
X263472Y84802D01*
X263553Y84814D01*
X263647Y84839D01*
X263748Y84864D01*
X263855Y84896D01*
X263961Y84940D01*
X264074Y84996D01*
X264187Y85053D01*
X264300Y85128D01*
X264413Y85216D01*
X264520Y85316D01*
X264621Y85430D01*
X264627Y85436D01*
X264640Y85461D01*
X264671Y85499D01*
X264702Y85555D01*
X264740Y85631D01*
X264784Y85725D01*
X264828Y85838D01*
X264878Y85963D01*
X264928Y86114D01*
X264972Y86284D01*
X265016Y86472D01*
X265054Y86686D01*
X265085Y86918D01*
X265111Y87175D01*
X265129Y87452D01*
X265136Y87753D01*
Y87866D01*
X265129Y87910D01*
Y87960D01*
Y88017D01*
X265117Y88155D01*
X265104Y88306D01*
X265085Y88475D01*
X265067Y88657D01*
X265035Y88852D01*
X264998Y89047D01*
X264954Y89241D01*
X264897Y89436D01*
X264834Y89625D01*
X264759Y89800D01*
X264671Y89964D01*
X264570Y90108D01*
X264564Y90114D01*
X264545Y90133D01*
X264520Y90165D01*
X264483Y90202D01*
X264432Y90246D01*
X264376Y90297D01*
X264307Y90353D01*
X264231Y90409D01*
X264143Y90460D01*
X264043Y90516D01*
X263936Y90566D01*
X263817Y90610D01*
X263691Y90648D01*
X263553Y90680D01*
X263409Y90698D01*
X263258Y90705D01*
D02*
G37*
G36*
X261685Y83623D02*
X260573D01*
Y81488D01*
X260567Y81494D01*
X260548Y81513D01*
X260517Y81545D01*
X260479Y81589D01*
X260429Y81633D01*
X260366Y81689D01*
X260291Y81746D01*
X260215Y81809D01*
X260121Y81865D01*
X260027Y81921D01*
X259920Y81978D01*
X259807Y82022D01*
X259688Y82066D01*
X259562Y82097D01*
X259430Y82116D01*
X259292Y82122D01*
X259229D01*
X259192Y82116D01*
X259154D01*
X259060Y82104D01*
X258953Y82085D01*
X258840Y82060D01*
X258721Y82028D01*
X258601Y81978D01*
X258595D01*
X258589Y81972D01*
X258551Y81953D01*
X258495Y81921D01*
X258425Y81877D01*
X258356Y81827D01*
X258275Y81765D01*
X258206Y81695D01*
X258143Y81614D01*
X258137Y81601D01*
X258118Y81576D01*
X258093Y81532D01*
X258055Y81469D01*
X258024Y81400D01*
X257986Y81312D01*
X257955Y81224D01*
X257929Y81124D01*
Y81111D01*
X257923Y81093D01*
X257917Y81074D01*
Y81042D01*
X257910Y81011D01*
X257904Y80967D01*
X257898Y80917D01*
X257892Y80866D01*
X257885Y80804D01*
X257879Y80735D01*
Y80659D01*
X257873Y80578D01*
X257867Y80490D01*
Y77827D01*
X261685D01*
Y83623D01*
D02*
G37*
G36*
X252240Y82122D02*
Y82028D01*
X251210D01*
Y81406D01*
X251203Y81413D01*
X251185Y81438D01*
X251153Y81476D01*
X251109Y81520D01*
X251059Y81570D01*
X250990Y81633D01*
X250921Y81695D01*
X250833Y81765D01*
X250739Y81834D01*
X250632Y81896D01*
X250519Y81959D01*
X250400Y82009D01*
X250268Y82060D01*
X250130Y82091D01*
X249985Y82116D01*
X249834Y82122D01*
X252240D01*
X248422D01*
X249772D01*
X249703Y82116D01*
X249608Y82104D01*
X249508Y82091D01*
X249395Y82066D01*
X249275Y82028D01*
X249163Y81984D01*
X249156D01*
X249150Y81978D01*
X249112Y81959D01*
X249056Y81934D01*
X248993Y81890D01*
X248918Y81846D01*
X248842Y81783D01*
X248767Y81721D01*
X248704Y81645D01*
X248698Y81639D01*
X248679Y81608D01*
X248654Y81570D01*
X248616Y81513D01*
X248579Y81444D01*
X248547Y81363D01*
X248509Y81275D01*
X248484Y81180D01*
Y81168D01*
X248472Y81130D01*
X248465Y81074D01*
X248453Y80992D01*
X248440Y80885D01*
X248434Y80760D01*
X248422Y80609D01*
Y77827D01*
X249533D01*
Y79968D01*
Y79975D01*
Y80000D01*
Y80031D01*
Y80081D01*
Y80132D01*
X249539Y80194D01*
Y80333D01*
X249552Y80483D01*
X249564Y80628D01*
X249571Y80697D01*
X249583Y80753D01*
X249596Y80804D01*
X249608Y80848D01*
Y80854D01*
X249621Y80879D01*
X249640Y80917D01*
X249665Y80961D01*
X249696Y81011D01*
X249734Y81067D01*
X249784Y81118D01*
X249841Y81162D01*
X249847Y81168D01*
X249866Y81180D01*
X249903Y81199D01*
X249948Y81218D01*
X250004Y81237D01*
X250067Y81256D01*
X250136Y81268D01*
X250218Y81275D01*
X250268D01*
X250318Y81268D01*
X250393Y81256D01*
X250469Y81237D01*
X250557Y81206D01*
X250651Y81168D01*
X250739Y81111D01*
X250751Y81105D01*
X250777Y81080D01*
X250814Y81049D01*
X250864Y80998D01*
X250915Y80942D01*
X250965Y80866D01*
X251009Y80785D01*
X251046Y80691D01*
X251053Y80678D01*
Y80665D01*
X251059Y80640D01*
X251065Y80609D01*
X251072Y80571D01*
X251078Y80527D01*
X251084Y80477D01*
X251097Y80414D01*
X251103Y80345D01*
X251109Y80264D01*
X251116Y80176D01*
X251122Y80081D01*
Y79975D01*
X251128Y79855D01*
Y79730D01*
Y77827D01*
X250331D01*
X252240D01*
Y82122D01*
D02*
G37*
G36*
X288193Y83623D02*
X286353D01*
X287025D01*
Y81049D01*
X284657Y83623D01*
X282968D01*
X283081D01*
X285273Y81369D01*
X282968Y77827D01*
X284481D01*
X286083Y80546D01*
X287025Y79573D01*
Y77827D01*
X288193D01*
Y83623D01*
D02*
G37*
G36*
X282660Y82122D02*
X278716D01*
X280600D01*
X280544Y82116D01*
X280468D01*
X280393Y82110D01*
X280305Y82097D01*
X280123Y82078D01*
X279941Y82047D01*
X279765Y82003D01*
X279690Y81972D01*
X279614Y81940D01*
X279608D01*
X279595Y81934D01*
X279576Y81921D01*
X279558Y81909D01*
X279489Y81871D01*
X279413Y81821D01*
X279325Y81752D01*
X279244Y81677D01*
X279162Y81589D01*
X279099Y81494D01*
X279093Y81482D01*
X279087Y81463D01*
X279074Y81444D01*
X279062Y81413D01*
X279049Y81369D01*
X279036Y81325D01*
X279024Y81268D01*
X279011Y81206D01*
X278999Y81137D01*
X278986Y81055D01*
X278974Y80961D01*
X278961Y80860D01*
X278955Y80753D01*
X278948Y80634D01*
Y80502D01*
X278967Y79202D01*
Y79196D01*
Y79177D01*
Y79152D01*
Y79114D01*
Y79064D01*
Y79014D01*
X278961Y78895D01*
X278955Y78763D01*
X278948Y78624D01*
X278936Y78499D01*
X278923Y78436D01*
X278917Y78386D01*
Y78373D01*
X278905Y78342D01*
X278892Y78285D01*
X278873Y78216D01*
X278848Y78135D01*
X278810Y78040D01*
X278766Y77934D01*
X278716Y77827D01*
X279815D01*
Y77833D01*
X279821Y77846D01*
X279834Y77871D01*
X279847Y77909D01*
X279859Y77952D01*
X279884Y78009D01*
X279903Y78078D01*
X279928Y78154D01*
Y78160D01*
X279935Y78172D01*
X279941Y78210D01*
X279953Y78254D01*
X279960Y78273D01*
X279966Y78285D01*
X279978Y78273D01*
X280016Y78241D01*
X280073Y78191D01*
X280148Y78128D01*
X280236Y78066D01*
X280343Y77996D01*
X280456Y77927D01*
X280575Y77871D01*
X280581D01*
X280588Y77865D01*
X280607Y77858D01*
X280632Y77852D01*
X280694Y77827D01*
X280782Y77802D01*
X280883Y77777D01*
X281002Y77752D01*
X281128Y77739D01*
X281266Y77733D01*
X281329D01*
X281373Y77739D01*
X281429Y77745D01*
X281492Y77752D01*
X281561Y77764D01*
X281636Y77777D01*
X281800Y77814D01*
X281969Y77877D01*
X282057Y77921D01*
X282139Y77965D01*
X282214Y78015D01*
X282290Y78078D01*
X282296Y78084D01*
X282308Y78097D01*
X282321Y78116D01*
X282346Y78141D01*
X282377Y78179D01*
X282409Y78216D01*
X282440Y78267D01*
X282472Y78323D01*
X282509Y78386D01*
X282541Y78449D01*
X282604Y78606D01*
X282629Y78687D01*
X282641Y78775D01*
X282654Y78869D01*
X282660Y78970D01*
Y78040D01*
Y79033D01*
X282654Y79096D01*
X282641Y79183D01*
X282616Y79284D01*
X282591Y79391D01*
X282547Y79497D01*
X282490Y79604D01*
Y79611D01*
X282484Y79617D01*
X282459Y79648D01*
X282421Y79698D01*
X282365Y79761D01*
X282302Y79830D01*
X282220Y79899D01*
X282126Y79968D01*
X282019Y80025D01*
X282013D01*
X282007Y80031D01*
X281988Y80037D01*
X281963Y80050D01*
X281931Y80063D01*
X281894Y80081D01*
X281844Y80094D01*
X281793Y80113D01*
X281737Y80132D01*
X281668Y80157D01*
X281592Y80176D01*
X281517Y80201D01*
X281429Y80220D01*
X281335Y80245D01*
X281241Y80270D01*
X281134Y80289D01*
X281128D01*
X281103Y80295D01*
X281059Y80301D01*
X281008Y80314D01*
X280946Y80326D01*
X280870Y80339D01*
X280789Y80358D01*
X280701Y80377D01*
X280525Y80421D01*
X280343Y80465D01*
X280261Y80490D01*
X280179Y80515D01*
X280110Y80540D01*
X280047Y80565D01*
Y80672D01*
Y80678D01*
Y80684D01*
Y80728D01*
X280054Y80785D01*
X280066Y80854D01*
X280085Y80929D01*
X280117Y81005D01*
X280154Y81080D01*
X280211Y81137D01*
X280217Y81143D01*
X280242Y81155D01*
X280286Y81180D01*
X280343Y81206D01*
X280424Y81231D01*
X280531Y81256D01*
X280594Y81262D01*
X280657Y81268D01*
X280732Y81275D01*
X280864D01*
X280921Y81268D01*
X280983Y81262D01*
X281059Y81243D01*
X281140Y81224D01*
X281216Y81193D01*
X281285Y81155D01*
X281291Y81149D01*
X281310Y81130D01*
X281341Y81105D01*
X281379Y81061D01*
X281423Y81005D01*
X281467Y80929D01*
X281511Y80841D01*
X281549Y80741D01*
X282547Y80923D01*
Y80929D01*
X282541Y80948D01*
X282528Y80980D01*
X282516Y81024D01*
X282497Y81074D01*
X282472Y81130D01*
X282409Y81262D01*
X282327Y81413D01*
X282227Y81564D01*
X282107Y81702D01*
X282038Y81771D01*
X281963Y81827D01*
X281957Y81834D01*
X281944Y81840D01*
X281919Y81852D01*
X281888Y81871D01*
X281844Y81896D01*
X281787Y81921D01*
X281724Y81947D01*
X281655Y81978D01*
X281567Y82003D01*
X281479Y82028D01*
X281379Y82053D01*
X281266Y82078D01*
X281147Y82097D01*
X281015Y82110D01*
X280876Y82122D01*
X282660D01*
D02*
G37*
G36*
X278157D02*
X274213D01*
X276097D01*
X276041Y82116D01*
X275965D01*
X275890Y82110D01*
X275802Y82097D01*
X275620Y82078D01*
X275438Y82047D01*
X275262Y82003D01*
X275187Y81972D01*
X275112Y81940D01*
X275105D01*
X275093Y81934D01*
X275074Y81921D01*
X275055Y81909D01*
X274986Y81871D01*
X274910Y81821D01*
X274823Y81752D01*
X274741Y81677D01*
X274659Y81589D01*
X274597Y81494D01*
X274590Y81482D01*
X274584Y81463D01*
X274571Y81444D01*
X274559Y81413D01*
X274546Y81369D01*
X274534Y81325D01*
X274521Y81268D01*
X274509Y81206D01*
X274496Y81137D01*
X274483Y81055D01*
X274471Y80961D01*
X274458Y80860D01*
X274452Y80753D01*
X274446Y80634D01*
Y80502D01*
X274465Y79202D01*
Y79196D01*
Y79177D01*
Y79152D01*
Y79114D01*
Y79064D01*
Y79014D01*
X274458Y78895D01*
X274452Y78763D01*
X274446Y78624D01*
X274433Y78499D01*
X274421Y78436D01*
X274414Y78386D01*
Y78373D01*
X274402Y78342D01*
X274389Y78285D01*
X274370Y78216D01*
X274345Y78135D01*
X274308Y78040D01*
X274264Y77934D01*
X274213Y77827D01*
X275312D01*
Y77833D01*
X275319Y77846D01*
X275331Y77871D01*
X275344Y77909D01*
X275356Y77952D01*
X275381Y78009D01*
X275400Y78078D01*
X275426Y78154D01*
Y78160D01*
X275432Y78172D01*
X275438Y78210D01*
X275451Y78254D01*
X275457Y78273D01*
X275463Y78285D01*
X275476Y78273D01*
X275513Y78241D01*
X275570Y78191D01*
X275645Y78128D01*
X275733Y78066D01*
X275840Y77996D01*
X275953Y77927D01*
X276072Y77871D01*
X276079D01*
X276085Y77865D01*
X276104Y77858D01*
X276129Y77852D01*
X276192Y77827D01*
X276279Y77802D01*
X276380Y77777D01*
X276499Y77752D01*
X276625Y77739D01*
X276763Y77733D01*
X276826D01*
X276870Y77739D01*
X276926Y77745D01*
X276989Y77752D01*
X277058Y77764D01*
X277134Y77777D01*
X277297Y77814D01*
X277467Y77877D01*
X277554Y77921D01*
X277636Y77965D01*
X277711Y78015D01*
X277787Y78078D01*
X277793Y78084D01*
X277806Y78097D01*
X277818Y78116D01*
X277843Y78141D01*
X277875Y78179D01*
X277906Y78216D01*
X277938Y78267D01*
X277969Y78323D01*
X278007Y78386D01*
X278038Y78449D01*
X278101Y78606D01*
X278126Y78687D01*
X278138Y78775D01*
X278151Y78869D01*
X278157Y78970D01*
Y77733D01*
D01*
Y79033D01*
X278151Y79096D01*
X278138Y79183D01*
X278113Y79284D01*
X278088Y79391D01*
X278044Y79497D01*
X277988Y79604D01*
Y79611D01*
X277981Y79617D01*
X277956Y79648D01*
X277919Y79698D01*
X277862Y79761D01*
X277799Y79830D01*
X277718Y79899D01*
X277624Y79968D01*
X277517Y80025D01*
X277510D01*
X277504Y80031D01*
X277485Y80037D01*
X277460Y80050D01*
X277429Y80063D01*
X277391Y80081D01*
X277341Y80094D01*
X277291Y80113D01*
X277234Y80132D01*
X277165Y80157D01*
X277090Y80176D01*
X277014Y80201D01*
X276926Y80220D01*
X276832Y80245D01*
X276738Y80270D01*
X276631Y80289D01*
X276625D01*
X276600Y80295D01*
X276556Y80301D01*
X276506Y80314D01*
X276443Y80326D01*
X276367Y80339D01*
X276286Y80358D01*
X276198Y80377D01*
X276022Y80421D01*
X275840Y80465D01*
X275758Y80490D01*
X275677Y80515D01*
X275608Y80540D01*
X275545Y80565D01*
Y80672D01*
Y80678D01*
Y80684D01*
Y80728D01*
X275551Y80785D01*
X275564Y80854D01*
X275583Y80929D01*
X275614Y81005D01*
X275652Y81080D01*
X275708Y81137D01*
X275714Y81143D01*
X275740Y81155D01*
X275783Y81180D01*
X275840Y81206D01*
X275922Y81231D01*
X276028Y81256D01*
X276091Y81262D01*
X276154Y81268D01*
X276229Y81275D01*
X276361D01*
X276418Y81268D01*
X276481Y81262D01*
X276556Y81243D01*
X276638Y81224D01*
X276713Y81193D01*
X276782Y81155D01*
X276788Y81149D01*
X276807Y81130D01*
X276838Y81105D01*
X276876Y81061D01*
X276920Y81005D01*
X276964Y80929D01*
X277008Y80841D01*
X277046Y80741D01*
X278044Y80923D01*
Y80929D01*
X278038Y80948D01*
X278025Y80980D01*
X278013Y81024D01*
X277994Y81074D01*
X277969Y81130D01*
X277906Y81262D01*
X277824Y81413D01*
X277724Y81564D01*
X277605Y81702D01*
X277536Y81771D01*
X277460Y81827D01*
X277454Y81834D01*
X277441Y81840D01*
X277416Y81852D01*
X277385Y81871D01*
X277341Y81896D01*
X277284Y81921D01*
X277221Y81947D01*
X277152Y81978D01*
X277064Y82003D01*
X276977Y82028D01*
X276876Y82053D01*
X276763Y82078D01*
X276644Y82097D01*
X276512Y82110D01*
X276374Y82122D01*
X278157D01*
D02*
G37*
G36*
X257025D02*
X253081D01*
X254965D01*
X254909Y82116D01*
X254833D01*
X254758Y82110D01*
X254670Y82097D01*
X254488Y82078D01*
X254306Y82047D01*
X254130Y82003D01*
X254055Y81972D01*
X253979Y81940D01*
X253973D01*
X253960Y81934D01*
X253942Y81921D01*
X253923Y81909D01*
X253854Y81871D01*
X253778Y81821D01*
X253690Y81752D01*
X253609Y81677D01*
X253527Y81589D01*
X253464Y81494D01*
X253458Y81482D01*
X253452Y81463D01*
X253439Y81444D01*
X253427Y81413D01*
X253414Y81369D01*
X253401Y81325D01*
X253389Y81268D01*
X253376Y81206D01*
X253364Y81137D01*
X253351Y81055D01*
X253339Y80961D01*
X253326Y80860D01*
X253320Y80753D01*
X253314Y80634D01*
Y80502D01*
X253332Y79202D01*
Y79196D01*
Y79177D01*
Y79152D01*
Y79114D01*
Y79064D01*
Y79014D01*
X253326Y78895D01*
X253320Y78763D01*
X253314Y78624D01*
X253301Y78499D01*
X253289Y78436D01*
X253282Y78386D01*
Y78373D01*
X253270Y78342D01*
X253257Y78285D01*
X253238Y78216D01*
X253213Y78135D01*
X253175Y78040D01*
X253132Y77934D01*
X253081Y77827D01*
X254180D01*
Y77833D01*
X254187Y77846D01*
X254199Y77871D01*
X254212Y77909D01*
X254224Y77952D01*
X254249Y78009D01*
X254268Y78078D01*
X254293Y78154D01*
Y78160D01*
X254299Y78172D01*
X254306Y78210D01*
X254318Y78254D01*
X254325Y78273D01*
X254331Y78285D01*
X254344Y78273D01*
X254381Y78241D01*
X254438Y78191D01*
X254513Y78128D01*
X254601Y78066D01*
X254708Y77996D01*
X254821Y77927D01*
X254940Y77871D01*
X254946D01*
X254953Y77865D01*
X254972Y77858D01*
X254997Y77852D01*
X255059Y77827D01*
X255147Y77802D01*
X255248Y77777D01*
X255367Y77752D01*
X255493Y77739D01*
X255631Y77733D01*
X255694D01*
X255738Y77739D01*
X255794Y77745D01*
X255857Y77752D01*
X255926Y77764D01*
X256001Y77777D01*
X256165Y77814D01*
X256334Y77877D01*
X256422Y77921D01*
X256504Y77965D01*
X256579Y78015D01*
X256655Y78078D01*
X256661Y78084D01*
X256673Y78097D01*
X256686Y78116D01*
X256711Y78141D01*
X256743Y78179D01*
X256774Y78216D01*
X256805Y78267D01*
X256837Y78323D01*
X256874Y78386D01*
X256906Y78449D01*
X256968Y78606D01*
X256994Y78687D01*
X257006Y78775D01*
X257019Y78869D01*
X257025Y78970D01*
Y79033D01*
X257019Y79096D01*
X257006Y79183D01*
X256981Y79284D01*
X256956Y79391D01*
X256912Y79497D01*
X256856Y79604D01*
Y79611D01*
X256849Y79617D01*
X256824Y79648D01*
X256786Y79698D01*
X256730Y79761D01*
X256667Y79830D01*
X256586Y79899D01*
X256491Y79968D01*
X256384Y80025D01*
X256378D01*
X256372Y80031D01*
X256353Y80037D01*
X256328Y80050D01*
X256297Y80063D01*
X256259Y80081D01*
X256209Y80094D01*
X256158Y80113D01*
X256102Y80132D01*
X256033Y80157D01*
X255958Y80176D01*
X255882Y80201D01*
X255794Y80220D01*
X255700Y80245D01*
X255606Y80270D01*
X255499Y80289D01*
X255493D01*
X255468Y80295D01*
X255424Y80301D01*
X255373Y80314D01*
X255311Y80326D01*
X255235Y80339D01*
X255154Y80358D01*
X255066Y80377D01*
X254890Y80421D01*
X254708Y80465D01*
X254626Y80490D01*
X254544Y80515D01*
X254475Y80540D01*
X254413Y80565D01*
Y80672D01*
Y80678D01*
Y80684D01*
Y80728D01*
X254419Y80785D01*
X254431Y80854D01*
X254450Y80929D01*
X254482Y81005D01*
X254519Y81080D01*
X254576Y81137D01*
X254582Y81143D01*
X254607Y81155D01*
X254651Y81180D01*
X254708Y81206D01*
X254789Y81231D01*
X254896Y81256D01*
X254959Y81262D01*
X255022Y81268D01*
X255097Y81275D01*
X255229D01*
X255286Y81268D01*
X255348Y81262D01*
X255424Y81243D01*
X255505Y81224D01*
X255581Y81193D01*
X255650Y81155D01*
X255656Y81149D01*
X255675Y81130D01*
X255706Y81105D01*
X255744Y81061D01*
X255788Y81005D01*
X255832Y80929D01*
X255876Y80841D01*
X255913Y80741D01*
X256912Y80923D01*
Y80929D01*
X256906Y80948D01*
X256893Y80980D01*
X256881Y81024D01*
X256862Y81074D01*
X256837Y81130D01*
X256774Y81262D01*
X256692Y81413D01*
X256592Y81564D01*
X256472Y81702D01*
X256403Y81771D01*
X256328Y81827D01*
X256322Y81834D01*
X256309Y81840D01*
X256284Y81852D01*
X256253Y81871D01*
X256209Y81896D01*
X256152Y81921D01*
X256089Y81947D01*
X256020Y81978D01*
X255932Y82003D01*
X255844Y82028D01*
X255744Y82053D01*
X255631Y82078D01*
X255512Y82097D01*
X255380Y82110D01*
X255241Y82122D01*
X257025D01*
D02*
G37*
G36*
X273372D02*
X269554D01*
X270904D01*
X270835Y82116D01*
X270741Y82104D01*
X270640Y82091D01*
X270527Y82066D01*
X270408Y82028D01*
X270295Y81984D01*
X270288D01*
X270282Y81978D01*
X270245Y81959D01*
X270188Y81934D01*
X270125Y81890D01*
X270050Y81846D01*
X269974Y81783D01*
X269899Y81721D01*
X269836Y81645D01*
X269830Y81639D01*
X269811Y81608D01*
X269786Y81570D01*
X269748Y81513D01*
X269711Y81444D01*
X269679Y81363D01*
X269642Y81275D01*
X269617Y81180D01*
Y81168D01*
X269604Y81130D01*
X269598Y81074D01*
X269585Y80992D01*
X269572Y80885D01*
X269566Y80760D01*
X269554Y80609D01*
Y77827D01*
X270665D01*
Y79968D01*
Y79975D01*
Y80000D01*
Y80031D01*
Y80081D01*
Y80132D01*
X270672Y80194D01*
Y80333D01*
X270684Y80483D01*
X270697Y80628D01*
X270703Y80697D01*
X270715Y80753D01*
X270728Y80804D01*
X270741Y80848D01*
Y80854D01*
X270753Y80879D01*
X270772Y80917D01*
X270797Y80961D01*
X270829Y81011D01*
X270866Y81067D01*
X270916Y81118D01*
X270973Y81162D01*
X270979Y81168D01*
X270998Y81180D01*
X271036Y81199D01*
X271080Y81218D01*
X271136Y81237D01*
X271199Y81256D01*
X271268Y81268D01*
X271350Y81275D01*
X271400D01*
X271450Y81268D01*
X271526Y81256D01*
X271601Y81237D01*
X271689Y81206D01*
X271783Y81168D01*
X271871Y81111D01*
X271884Y81105D01*
X271909Y81080D01*
X271946Y81049D01*
X271997Y80998D01*
X272047Y80942D01*
X272097Y80866D01*
X272141Y80785D01*
X272179Y80691D01*
X272185Y80678D01*
Y80665D01*
X272191Y80640D01*
X272198Y80609D01*
X272204Y80571D01*
X272210Y80527D01*
X272216Y80477D01*
X272229Y80414D01*
X272235Y80345D01*
X272241Y80264D01*
X272248Y80176D01*
X272254Y80081D01*
Y79975D01*
X272260Y79855D01*
Y79730D01*
Y77827D01*
X273372D01*
Y82122D01*
D02*
G37*
G36*
X266200Y83623D02*
X265032D01*
Y77827D01*
X266200D01*
Y83623D01*
D02*
G37*
G36*
X263920D02*
X262809D01*
Y77827D01*
X263920D01*
Y83623D01*
D02*
G37*
G36*
X263129Y75682D02*
Y75638D01*
D01*
Y75682D01*
D02*
G37*
G36*
X262526Y74985D02*
Y74978D01*
D01*
Y74985D01*
D02*
G37*
G36*
X263129Y74803D02*
D01*
D01*
D01*
D02*
G37*
G36*
X278283Y76498D02*
X274389D01*
X276148D01*
X276085Y76492D01*
X276016Y76486D01*
X275934Y76473D01*
X275840Y76460D01*
X275740Y76442D01*
X275633Y76416D01*
X275526Y76385D01*
X275413Y76347D01*
X275300Y76303D01*
X275193Y76247D01*
X275086Y76184D01*
X274980Y76115D01*
X274885Y76033D01*
X274879Y76027D01*
X274867Y76015D01*
X274841Y75983D01*
X274810Y75952D01*
X274772Y75908D01*
X274728Y75851D01*
X274684Y75788D01*
X274634Y75713D01*
X274590Y75638D01*
X274546Y75550D01*
X274502Y75456D01*
X274465Y75355D01*
X274433Y75242D01*
X274408Y75129D01*
X274395Y75010D01*
X274389Y74884D01*
Y70683D01*
X278283D01*
Y70689D01*
X278277Y70708D01*
Y70739D01*
X278270Y70783D01*
X278258Y70833D01*
X278245Y70896D01*
X278233Y70965D01*
X278214Y71041D01*
X278164Y71210D01*
X278095Y71399D01*
X278013Y71593D01*
X277906Y71788D01*
X277900Y71794D01*
X277893Y71813D01*
X277868Y71845D01*
X277843Y71882D01*
X277806Y71933D01*
X277755Y72002D01*
X277699Y72071D01*
X277630Y72159D01*
X277554Y72253D01*
X277460Y72353D01*
X277360Y72473D01*
X277247Y72592D01*
X277121Y72724D01*
X276977Y72868D01*
X276826Y73019D01*
X276656Y73176D01*
X276650Y73182D01*
X276625Y73207D01*
X276587Y73245D01*
X276537Y73289D01*
X276474Y73346D01*
X276411Y73408D01*
X276336Y73484D01*
X276261Y73559D01*
X276097Y73716D01*
X275947Y73873D01*
X275884Y73942D01*
X275821Y74011D01*
X275771Y74074D01*
X275733Y74124D01*
Y74130D01*
X275721Y74137D01*
X275714Y74156D01*
X275695Y74181D01*
X275658Y74250D01*
X275614Y74338D01*
X275576Y74438D01*
X275538Y74551D01*
X275513Y74677D01*
X275501Y74803D01*
Y74809D01*
Y74821D01*
Y74840D01*
Y74865D01*
X275513Y74928D01*
X275526Y75016D01*
X275551Y75104D01*
X275583Y75198D01*
X275633Y75292D01*
X275702Y75374D01*
X275708Y75380D01*
X275740Y75405D01*
X275783Y75437D01*
X275846Y75474D01*
X275928Y75512D01*
X276022Y75543D01*
X276129Y75569D01*
X276254Y75575D01*
X276311D01*
X276374Y75562D01*
X276455Y75550D01*
X276543Y75525D01*
X276638Y75487D01*
X276732Y75431D01*
X276813Y75361D01*
X276820Y75349D01*
X276845Y75324D01*
X276876Y75274D01*
X276920Y75198D01*
X276958Y75104D01*
X276995Y74985D01*
X277027Y74840D01*
X277039Y74758D01*
X277046Y74671D01*
X278151Y74777D01*
Y74790D01*
X278145Y74815D01*
X278138Y74865D01*
X278126Y74928D01*
X278113Y75003D01*
X278095Y75091D01*
X278069Y75186D01*
X278038Y75286D01*
X278000Y75393D01*
X277956Y75500D01*
X277906Y75613D01*
X277850Y75719D01*
X277787Y75826D01*
X277711Y75927D01*
X277630Y76015D01*
X277536Y76096D01*
X277529Y76102D01*
X277510Y76115D01*
X277479Y76134D01*
X277441Y76159D01*
X277391Y76190D01*
X277328Y76222D01*
X277259Y76259D01*
X277178Y76297D01*
X277083Y76335D01*
X276989Y76372D01*
X276882Y76404D01*
X276763Y76435D01*
X276644Y76460D01*
X276512Y76479D01*
X276374Y76492D01*
X276229Y76498D01*
X278283D01*
D01*
D02*
G37*
G36*
X271532D02*
X267638D01*
X269397D01*
X269334Y76492D01*
X269265Y76486D01*
X269183Y76473D01*
X269089Y76460D01*
X268988Y76442D01*
X268882Y76416D01*
X268775Y76385D01*
X268662Y76347D01*
X268549Y76303D01*
X268442Y76247D01*
X268335Y76184D01*
X268229Y76115D01*
X268134Y76033D01*
X268128Y76027D01*
X268115Y76015D01*
X268090Y75983D01*
X268059Y75952D01*
X268021Y75908D01*
X267977Y75851D01*
X267933Y75788D01*
X267883Y75713D01*
X267839Y75638D01*
X267795Y75550D01*
X267751Y75456D01*
X267714Y75355D01*
X267682Y75242D01*
X267657Y75129D01*
X267645Y75010D01*
X267638Y74884D01*
Y70683D01*
X271532D01*
Y70689D01*
X271526Y70708D01*
Y70739D01*
X271519Y70783D01*
X271507Y70833D01*
X271494Y70896D01*
X271482Y70965D01*
X271463Y71041D01*
X271412Y71210D01*
X271343Y71399D01*
X271262Y71593D01*
X271155Y71788D01*
X271149Y71794D01*
X271143Y71813D01*
X271117Y71845D01*
X271092Y71882D01*
X271055Y71933D01*
X271004Y72002D01*
X270948Y72071D01*
X270879Y72159D01*
X270803Y72253D01*
X270709Y72353D01*
X270609Y72473D01*
X270496Y72592D01*
X270370Y72724D01*
X270226Y72868D01*
X270075Y73019D01*
X269905Y73176D01*
X269899Y73182D01*
X269874Y73207D01*
X269836Y73245D01*
X269786Y73289D01*
X269723Y73346D01*
X269660Y73408D01*
X269585Y73484D01*
X269510Y73559D01*
X269346Y73716D01*
X269196Y73873D01*
X269133Y73942D01*
X269070Y74011D01*
X269020Y74074D01*
X268982Y74124D01*
Y74130D01*
X268970Y74137D01*
X268963Y74156D01*
X268945Y74181D01*
X268907Y74250D01*
X268863Y74338D01*
X268825Y74438D01*
X268788Y74551D01*
X268762Y74677D01*
X268750Y74803D01*
Y74809D01*
Y74821D01*
Y74840D01*
Y74865D01*
X268762Y74928D01*
X268775Y75016D01*
X268800Y75104D01*
X268831Y75198D01*
X268882Y75292D01*
X268951Y75374D01*
X268957Y75380D01*
X268988Y75405D01*
X269032Y75437D01*
X269095Y75474D01*
X269177Y75512D01*
X269271Y75543D01*
X269378Y75569D01*
X269503Y75575D01*
X269560D01*
X269623Y75562D01*
X269704Y75550D01*
X269792Y75525D01*
X269886Y75487D01*
X269981Y75431D01*
X270062Y75361D01*
X270069Y75349D01*
X270094Y75324D01*
X270125Y75274D01*
X270169Y75198D01*
X270207Y75104D01*
X270245Y74985D01*
X270276Y74840D01*
X270288Y74758D01*
X270295Y74671D01*
X271400Y74777D01*
Y74790D01*
X271394Y74815D01*
X271387Y74865D01*
X271375Y74928D01*
X271362Y75003D01*
X271343Y75091D01*
X271318Y75186D01*
X271287Y75286D01*
X271249Y75393D01*
X271205Y75500D01*
X271155Y75613D01*
X271098Y75719D01*
X271036Y75826D01*
X270960Y75927D01*
X270879Y76015D01*
X270784Y76096D01*
X270778Y76102D01*
X270759Y76115D01*
X270728Y76134D01*
X270690Y76159D01*
X270640Y76190D01*
X270577Y76222D01*
X270508Y76259D01*
X270427Y76297D01*
X270332Y76335D01*
X270238Y76372D01*
X270131Y76404D01*
X270012Y76435D01*
X269893Y76460D01*
X269761Y76479D01*
X269623Y76492D01*
X269478Y76498D01*
X271532D01*
D01*
D02*
G37*
G36*
X262526D02*
X258633D01*
X260391D01*
X260328Y76492D01*
X260259Y76486D01*
X260178Y76473D01*
X260083Y76460D01*
X259983Y76442D01*
X259876Y76416D01*
X259769Y76385D01*
X259656Y76347D01*
X259543Y76303D01*
X259437Y76247D01*
X259330Y76184D01*
X259223Y76115D01*
X259129Y76033D01*
X259123Y76027D01*
X259110Y76015D01*
X259085Y75983D01*
X259053Y75952D01*
X259016Y75908D01*
X258972Y75851D01*
X258928Y75788D01*
X258878Y75713D01*
X258834Y75638D01*
X258790Y75550D01*
X258746Y75456D01*
X258708Y75355D01*
X258677Y75242D01*
X258652Y75129D01*
X258639Y75010D01*
X258633Y74884D01*
D01*
D01*
Y70683D01*
X262526D01*
Y70689D01*
X262520Y70708D01*
Y70739D01*
X262514Y70783D01*
X262501Y70833D01*
X262489Y70896D01*
X262476Y70965D01*
X262457Y71041D01*
X262407Y71210D01*
X262338Y71399D01*
X262256Y71593D01*
X262150Y71788D01*
X262143Y71794D01*
X262137Y71813D01*
X262112Y71845D01*
X262087Y71882D01*
X262049Y71933D01*
X261999Y72002D01*
X261942Y72071D01*
X261873Y72159D01*
X261798Y72253D01*
X261704Y72353D01*
X261603Y72473D01*
X261490Y72592D01*
X261365Y72724D01*
X261220Y72868D01*
X261069Y73019D01*
X260900Y73176D01*
X260894Y73182D01*
X260868Y73207D01*
X260831Y73245D01*
X260781Y73289D01*
X260718Y73346D01*
X260655Y73408D01*
X260579Y73484D01*
X260504Y73559D01*
X260341Y73716D01*
X260190Y73873D01*
X260127Y73942D01*
X260065Y74011D01*
X260014Y74074D01*
X259977Y74124D01*
Y74130D01*
X259964Y74137D01*
X259958Y74156D01*
X259939Y74181D01*
X259901Y74250D01*
X259857Y74338D01*
X259820Y74438D01*
X259782Y74551D01*
X259757Y74677D01*
X259744Y74803D01*
Y74809D01*
Y74821D01*
Y74840D01*
Y74865D01*
X259757Y74928D01*
X259769Y75016D01*
X259794Y75104D01*
X259826Y75198D01*
X259876Y75292D01*
X259945Y75374D01*
X259951Y75380D01*
X259983Y75405D01*
X260027Y75437D01*
X260090Y75474D01*
X260171Y75512D01*
X260265Y75543D01*
X260372Y75569D01*
X260498Y75575D01*
X260554D01*
X260617Y75562D01*
X260699Y75550D01*
X260787Y75525D01*
X260881Y75487D01*
X260975Y75431D01*
X261057Y75361D01*
X261063Y75349D01*
X261088Y75324D01*
X261120Y75274D01*
X261164Y75198D01*
X261201Y75104D01*
X261239Y74985D01*
X261270Y74840D01*
X261283Y74758D01*
X261289Y74671D01*
X262394Y74777D01*
Y74790D01*
X262388Y74815D01*
X262382Y74865D01*
X262369Y74928D01*
X262357Y75003D01*
X262338Y75091D01*
X262313Y75186D01*
X262281Y75286D01*
X262244Y75393D01*
X262200Y75500D01*
X262150Y75613D01*
X262093Y75719D01*
X262030Y75826D01*
X261955Y75927D01*
X261873Y76015D01*
X261779Y76096D01*
X261773Y76102D01*
X261754Y76115D01*
X261722Y76134D01*
X261685Y76159D01*
X261635Y76190D01*
X261572Y76222D01*
X261503Y76259D01*
X261421Y76297D01*
X261327Y76335D01*
X261233Y76372D01*
X261126Y76404D01*
X261007Y76435D01*
X260887Y76460D01*
X260755Y76479D01*
X260617Y76492D01*
X260473Y76498D01*
X262526D01*
D01*
D02*
G37*
G36*
Y74664D02*
D01*
D01*
D01*
D02*
G37*
G36*
X263129Y74438D02*
D01*
D01*
D01*
D02*
G37*
G36*
X278283Y74269D02*
Y74250D01*
D01*
Y74269D01*
D02*
G37*
G36*
X271532D02*
Y74250D01*
D01*
Y74269D01*
D02*
G37*
G36*
X262526Y74250D02*
D01*
D01*
D01*
D02*
G37*
G36*
X278283Y73911D02*
Y73873D01*
D01*
Y73911D01*
D02*
G37*
G36*
X271532D02*
Y73873D01*
D01*
Y73911D01*
D02*
G37*
G36*
X262526Y73873D02*
D01*
D01*
D01*
D02*
G37*
G36*
Y73716D02*
D01*
D01*
D01*
D02*
G37*
G36*
X263129Y73697D02*
D01*
D01*
D01*
D02*
G37*
G36*
Y73678D02*
D01*
D01*
D01*
D02*
G37*
G36*
X266891Y76498D02*
Y73659D01*
X266885Y73703D01*
Y73754D01*
Y73810D01*
X266872Y73948D01*
X266860Y74099D01*
X266841Y74269D01*
X266822Y74451D01*
X266791Y74646D01*
X266753Y74840D01*
X266709Y75035D01*
X266652Y75230D01*
X266589Y75418D01*
X266514Y75594D01*
X266426Y75757D01*
X266326Y75902D01*
X266319Y75908D01*
X266301Y75927D01*
X266276Y75958D01*
X266238Y75996D01*
X266188Y76040D01*
X266131Y76090D01*
X266062Y76146D01*
X265987Y76203D01*
X265899Y76253D01*
X265798Y76310D01*
X265691Y76360D01*
X265572Y76404D01*
X265446Y76442D01*
X265308Y76473D01*
X265164Y76492D01*
X265013Y76498D01*
X266891D01*
X264976D01*
X264932Y76492D01*
X264875D01*
X264806Y76479D01*
X264724Y76467D01*
X264630Y76448D01*
X264530Y76423D01*
X264429Y76391D01*
X264322Y76354D01*
X264209Y76303D01*
X264103Y76247D01*
X263996Y76178D01*
X263889Y76096D01*
X263789Y76002D01*
X263694Y75895D01*
X263688Y75889D01*
X263669Y75864D01*
X263644Y75820D01*
X263607Y75757D01*
X263562Y75682D01*
X263512Y75581D01*
X263462Y75468D01*
X263412Y75330D01*
X263362Y75179D01*
X263305Y75003D01*
X263261Y74809D01*
X263217Y74595D01*
X263179Y74363D01*
X263154Y74105D01*
X263136Y73829D01*
X263129Y73534D01*
Y73421D01*
X263136Y73377D01*
Y73327D01*
Y73264D01*
X263148Y73132D01*
X263161Y72975D01*
X263179Y72805D01*
X263198Y72623D01*
X263230Y72429D01*
X263267Y72234D01*
X263318Y72033D01*
X263368Y71838D01*
X263437Y71656D01*
X263512Y71474D01*
X263600Y71311D01*
X263701Y71166D01*
X263707Y71160D01*
X263720Y71141D01*
X263751Y71110D01*
X263789Y71072D01*
X263833Y71028D01*
X263895Y70978D01*
X263965Y70928D01*
X264040Y70871D01*
X264128Y70815D01*
X264228Y70764D01*
X264335Y70714D01*
X264454Y70670D01*
X264580Y70633D01*
X264718Y70601D01*
X264862Y70582D01*
X265013Y70576D01*
X265051D01*
X265095Y70582D01*
X265151Y70589D01*
X265227Y70595D01*
X265308Y70607D01*
X265403Y70633D01*
X265503Y70658D01*
X265610Y70689D01*
X265717Y70733D01*
X265830Y70790D01*
X265943Y70846D01*
X266056Y70921D01*
X266169Y71009D01*
X266276Y71110D01*
X266376Y71223D01*
X266382Y71229D01*
X266395Y71254D01*
X266426Y71292D01*
X266458Y71349D01*
X266495Y71424D01*
X266539Y71518D01*
X266583Y71631D01*
X266634Y71757D01*
X266684Y71907D01*
X266728Y72077D01*
X266772Y72265D01*
X266809Y72479D01*
X266841Y72711D01*
X266866Y72969D01*
X266885Y73245D01*
X266891Y73546D01*
Y70576D01*
D01*
D01*
Y76498D01*
D02*
G37*
G36*
X257867Y76404D02*
Y70576D01*
X256033D01*
X256089Y70582D01*
X256158Y70589D01*
X256240Y70601D01*
X256328Y70614D01*
X256422Y70633D01*
X256629Y70683D01*
X256743Y70714D01*
X256849Y70758D01*
X256962Y70808D01*
X257069Y70865D01*
X257170Y70928D01*
X257270Y71003D01*
X257276Y71009D01*
X257289Y71022D01*
X257314Y71047D01*
X257352Y71085D01*
X257389Y71129D01*
X257433Y71179D01*
X257484Y71242D01*
X257534Y71311D01*
X257584Y71392D01*
X257634Y71480D01*
X257684Y71575D01*
X257735Y71675D01*
X257779Y71788D01*
X257816Y71907D01*
X257841Y72033D01*
X257867Y72165D01*
X256761Y72284D01*
Y72278D01*
Y72265D01*
X256755Y72246D01*
X256749Y72221D01*
X256736Y72152D01*
X256711Y72071D01*
X256673Y71970D01*
X256623Y71876D01*
X256560Y71776D01*
X256485Y71688D01*
X256472Y71681D01*
X256441Y71656D01*
X256397Y71618D01*
X256328Y71581D01*
X256253Y71537D01*
X256158Y71505D01*
X256058Y71480D01*
X255945Y71468D01*
X255913D01*
X255888Y71474D01*
X255819Y71480D01*
X255738Y71505D01*
X255644Y71537D01*
X255549Y71587D01*
X255449Y71656D01*
X255399Y71700D01*
X255355Y71750D01*
Y71757D01*
X255342Y71763D01*
X255329Y71782D01*
X255317Y71801D01*
X255298Y71832D01*
X255279Y71870D01*
X255254Y71914D01*
X255229Y71964D01*
X255210Y72020D01*
X255185Y72083D01*
X255166Y72152D01*
X255147Y72228D01*
X255135Y72316D01*
X255122Y72404D01*
X255110Y72504D01*
Y72605D01*
Y72611D01*
Y72630D01*
Y72655D01*
X255116Y72692D01*
Y72736D01*
X255122Y72787D01*
X255141Y72906D01*
X255166Y73038D01*
X255210Y73170D01*
X255273Y73295D01*
X255355Y73408D01*
Y73415D01*
X255367Y73421D01*
X255399Y73452D01*
X255449Y73496D01*
X255524Y73546D01*
X255612Y73590D01*
X255719Y73634D01*
X255838Y73666D01*
X255907Y73678D01*
X256020D01*
X256058Y73672D01*
X256102Y73666D01*
X256146Y73653D01*
X256265Y73628D01*
X256397Y73578D01*
X256472Y73540D01*
X256541Y73502D01*
X256617Y73452D01*
X256692Y73396D01*
X256768Y73333D01*
X256837Y73258D01*
X257735Y73383D01*
X257163Y76404D01*
X254224D01*
Y75361D01*
X256328D01*
X256504Y74375D01*
X256498D01*
X256485Y74382D01*
X256466Y74394D01*
X256441Y74407D01*
X256403Y74419D01*
X256366Y74438D01*
X256272Y74470D01*
X256152Y74507D01*
X256027Y74532D01*
X255888Y74558D01*
X255744Y74564D01*
X255713D01*
X255675Y74558D01*
X255618D01*
X255556Y74545D01*
X255480Y74532D01*
X255399Y74520D01*
X255311Y74495D01*
X255210Y74470D01*
X255110Y74432D01*
X255009Y74388D01*
X254902Y74338D01*
X254796Y74275D01*
X254689Y74200D01*
X254588Y74118D01*
X254488Y74024D01*
X254482Y74018D01*
X254463Y73999D01*
X254438Y73967D01*
X254406Y73923D01*
X254369Y73873D01*
X254325Y73810D01*
X254274Y73735D01*
X254224Y73647D01*
X254180Y73553D01*
X254130Y73446D01*
X254086Y73327D01*
X254048Y73207D01*
X254017Y73069D01*
X253992Y72931D01*
X253973Y72780D01*
X253967Y72623D01*
Y72554D01*
X253973Y72504D01*
X253979Y72441D01*
X253992Y72366D01*
X254004Y72284D01*
X254017Y72196D01*
X254042Y72096D01*
X254067Y71995D01*
X254105Y71889D01*
X254142Y71782D01*
X254193Y71669D01*
X254249Y71562D01*
X254312Y71449D01*
X254387Y71342D01*
X254394Y71336D01*
X254413Y71311D01*
X254444Y71273D01*
X254494Y71223D01*
X254551Y71166D01*
X254620Y71097D01*
X254701Y71028D01*
X254796Y70959D01*
X254902Y70890D01*
X255022Y70821D01*
X255147Y70752D01*
X255286Y70695D01*
X255436Y70645D01*
X255599Y70607D01*
X255775Y70582D01*
X255958Y70576D01*
X253967D01*
X257867D01*
Y76404D01*
D02*
G37*
G36*
X262526Y72290D02*
Y72284D01*
D01*
Y72290D01*
D02*
G37*
G36*
X278283Y72071D02*
D01*
D01*
D01*
D02*
G37*
G36*
X262526Y71041D02*
D01*
D01*
D01*
D02*
G37*
G36*
X282647Y76498D02*
X280732D01*
X280688Y76492D01*
X280632D01*
X280562Y76479D01*
X280481Y76467D01*
X280387Y76448D01*
X280286Y76423D01*
X280186Y76391D01*
X280079Y76354D01*
X279966Y76303D01*
X279859Y76247D01*
X279752Y76178D01*
X279646Y76096D01*
X279545Y76002D01*
X279451Y75895D01*
X279445Y75889D01*
X279426Y75864D01*
X279401Y75820D01*
X279363Y75757D01*
X279319Y75682D01*
X279269Y75581D01*
X279219Y75468D01*
X279168Y75330D01*
X279118Y75179D01*
X279062Y75003D01*
X279018Y74809D01*
X278974Y74595D01*
X278936Y74363D01*
X278911Y74105D01*
X278892Y73829D01*
X278886Y73534D01*
Y73421D01*
X278892Y73377D01*
Y73327D01*
Y73264D01*
X278905Y73132D01*
X278917Y72975D01*
X278936Y72805D01*
X278955Y72623D01*
X278986Y72429D01*
X279024Y72234D01*
X279074Y72033D01*
X279124Y71838D01*
X279193Y71656D01*
X279269Y71474D01*
X279357Y71311D01*
X279457Y71166D01*
X279464Y71160D01*
X279476Y71141D01*
X279507Y71110D01*
X279545Y71072D01*
X279589Y71028D01*
X279652Y70978D01*
X279721Y70928D01*
X279796Y70871D01*
X279884Y70815D01*
X279985Y70764D01*
X280092Y70714D01*
X280211Y70670D01*
X280336Y70633D01*
X280475Y70601D01*
X280619Y70582D01*
X280770Y70576D01*
X280807D01*
X280851Y70582D01*
X280908Y70589D01*
X280983Y70595D01*
X281065Y70607D01*
X281159Y70633D01*
X281260Y70658D01*
X281366Y70689D01*
X281473Y70733D01*
X281586Y70790D01*
X281699Y70846D01*
X281812Y70921D01*
X281925Y71009D01*
X282032Y71110D01*
X282133Y71223D01*
X282139Y71229D01*
X282151Y71254D01*
X282183Y71292D01*
X282214Y71349D01*
X282252Y71424D01*
X282296Y71518D01*
X282340Y71631D01*
X282390Y71757D01*
X282440Y71907D01*
X282484Y72077D01*
X282528Y72265D01*
X282566Y72479D01*
X282597Y72711D01*
X282622Y72969D01*
X282641Y73245D01*
X282647Y73546D01*
Y70739D01*
Y73659D01*
X282641Y73703D01*
Y73754D01*
Y73810D01*
X282629Y73948D01*
X282616Y74099D01*
X282597Y74269D01*
X282578Y74451D01*
X282547Y74646D01*
X282509Y74840D01*
X282465Y75035D01*
X282409Y75230D01*
X282346Y75418D01*
X282271Y75594D01*
X282183Y75757D01*
X282082Y75902D01*
X282076Y75908D01*
X282057Y75927D01*
X282032Y75958D01*
X281994Y75996D01*
X281944Y76040D01*
X281888Y76090D01*
X281819Y76146D01*
X281743Y76203D01*
X281655Y76253D01*
X281555Y76310D01*
X281448Y76360D01*
X281329Y76404D01*
X281203Y76442D01*
X281065Y76473D01*
X280921Y76492D01*
X280770Y76498D01*
X282647D01*
D02*
G37*
G36*
X262526Y70733D02*
Y70714D01*
D01*
Y70733D01*
D02*
G37*
G36*
X272562Y76573D02*
X271726D01*
X273177Y70582D01*
X273994D01*
X272562Y76573D01*
D02*
G37*
G36*
X273023Y70582D02*
X271726D01*
D01*
X273023D01*
D02*
G37*
%LPD*%
G36*
X256884Y88990D02*
Y88946D01*
X256896Y88852D01*
X256915Y88733D01*
X256940Y88607D01*
X256972Y88475D01*
X257022Y88343D01*
Y88337D01*
X257028Y88331D01*
X257034Y88306D01*
X257047Y88281D01*
X257066Y88249D01*
X257085Y88212D01*
X257129Y88117D01*
X257191Y88011D01*
X257267Y87885D01*
X257361Y87747D01*
X257468Y87602D01*
X257480Y87590D01*
X257505Y87552D01*
X257562Y87496D01*
X257631Y87414D01*
X257681Y87364D01*
X257732Y87307D01*
X257794Y87251D01*
X257857Y87182D01*
X257932Y87112D01*
X258014Y87031D01*
X258102Y86949D01*
X258196Y86861D01*
X258203Y86855D01*
X258221Y86843D01*
X258246Y86817D01*
X258278Y86786D01*
X258322Y86748D01*
X258372Y86704D01*
X258479Y86604D01*
X258592Y86497D01*
X258699Y86390D01*
X258749Y86340D01*
X258793Y86296D01*
X258831Y86252D01*
X258862Y86221D01*
X258868Y86215D01*
X258887Y86196D01*
X258912Y86164D01*
X258944Y86127D01*
X258975Y86076D01*
X259013Y86026D01*
X259088Y85919D01*
X256877D01*
Y89022D01*
X256884Y88990D01*
D02*
G37*
G36*
X272301Y88331D02*
X272364Y88325D01*
X272452Y88306D01*
X272546Y88274D01*
X272647Y88224D01*
X272741Y88155D01*
X272791Y88117D01*
X272835Y88067D01*
X272848Y88055D01*
X272873Y88017D01*
X272910Y87960D01*
X272954Y87879D01*
X272998Y87778D01*
X273036Y87653D01*
X273061Y87515D01*
X273067Y87351D01*
X271409D01*
Y87357D01*
Y87370D01*
Y87395D01*
X271416Y87433D01*
X271422Y87471D01*
X271428Y87515D01*
X271447Y87621D01*
X271479Y87740D01*
X271522Y87860D01*
X271579Y87979D01*
X271661Y88080D01*
X271673Y88092D01*
X271705Y88117D01*
X271755Y88161D01*
X271824Y88212D01*
X271905Y88256D01*
X272006Y88300D01*
X272119Y88325D01*
X272238Y88337D01*
X272276D01*
X272301Y88331D01*
D02*
G37*
G36*
X274223Y84795D02*
X272238D01*
X272295Y84802D01*
X272370Y84808D01*
X272458Y84814D01*
X272565Y84833D01*
X272678Y84852D01*
X272804Y84883D01*
X272935Y84921D01*
X273067Y84971D01*
X273199Y85028D01*
X273337Y85097D01*
X273463Y85178D01*
X273589Y85273D01*
X273702Y85379D01*
X273808Y85505D01*
X273815Y85511D01*
X273827Y85530D01*
X273846Y85561D01*
X273871Y85612D01*
X273903Y85668D01*
X273940Y85731D01*
X273978Y85813D01*
X274016Y85900D01*
X274053Y86001D01*
X274091Y86114D01*
X274129Y86233D01*
X274160Y86359D01*
X274185Y86497D01*
X274204Y86642D01*
X274217Y86799D01*
X274223Y86955D01*
Y84795D01*
D02*
G37*
G36*
X278569Y88230D02*
X277501D01*
X277426Y88237D01*
X277256D01*
X277074Y88249D01*
X276904Y88262D01*
X276829Y88268D01*
X276760Y88274D01*
X276697Y88287D01*
X276653Y88300D01*
X276641Y88306D01*
X276616Y88312D01*
X276578Y88331D01*
X276534Y88356D01*
X276477Y88387D01*
X276421Y88431D01*
X276371Y88482D01*
X276320Y88544D01*
X276314Y88551D01*
X276302Y88576D01*
X276283Y88613D01*
X276258Y88664D01*
X276239Y88727D01*
X276220Y88802D01*
X276207Y88890D01*
X276201Y88984D01*
Y88990D01*
Y88996D01*
Y89034D01*
X276207Y89085D01*
X276220Y89153D01*
X276239Y89229D01*
X276270Y89304D01*
X276308Y89380D01*
X276358Y89455D01*
X276364Y89461D01*
X276389Y89486D01*
X276421Y89518D01*
X276471Y89549D01*
X276534Y89593D01*
X276609Y89625D01*
X276703Y89656D01*
X276804Y89681D01*
X276810D01*
X276835Y89687D01*
X276886D01*
X276917Y89694D01*
X277011D01*
X277074Y89700D01*
X277225D01*
X277313Y89706D01*
X278569D01*
Y88230D01*
D02*
G37*
G36*
X267981Y86943D02*
X267754Y86227D01*
Y86233D01*
X267748Y86240D01*
X267742Y86271D01*
X267723Y86321D01*
X267704Y86378D01*
X267685Y86434D01*
X267667Y86497D01*
X267654Y86547D01*
X267641Y86585D01*
Y86591D01*
X267629Y86616D01*
X267623Y86654D01*
X267604Y86698D01*
X267585Y86755D01*
X267566Y86811D01*
X267522Y86943D01*
X266724Y89091D01*
X268772D01*
X267981Y86943D01*
D02*
G37*
G36*
X263327Y89775D02*
X263377Y89763D01*
X263434Y89750D01*
X263497Y89725D01*
X263553Y89694D01*
X263616Y89650D01*
X263622Y89643D01*
X263641Y89625D01*
X263672Y89593D01*
X263704Y89543D01*
X263741Y89480D01*
X263786Y89405D01*
X263823Y89304D01*
X263861Y89191D01*
Y89185D01*
X263867Y89172D01*
X263873Y89147D01*
X263880Y89110D01*
X263886Y89059D01*
X263898Y89003D01*
X263905Y88928D01*
X263917Y88846D01*
X263930Y88752D01*
X263936Y88645D01*
X263949Y88525D01*
X263955Y88394D01*
X263961Y88256D01*
X263968Y88092D01*
X263974Y87923D01*
Y87740D01*
Y87728D01*
Y87697D01*
Y87646D01*
Y87577D01*
X263968Y87489D01*
Y87395D01*
Y87295D01*
X263961Y87182D01*
X263949Y86949D01*
X263930Y86717D01*
X263917Y86604D01*
X263905Y86503D01*
X263892Y86415D01*
X263873Y86334D01*
Y86327D01*
X263867Y86315D01*
X263861Y86296D01*
X263855Y86271D01*
X263836Y86208D01*
X263804Y86133D01*
X263767Y86045D01*
X263723Y85963D01*
X263672Y85888D01*
X263616Y85831D01*
X263610Y85825D01*
X263591Y85813D01*
X263553Y85794D01*
X263509Y85769D01*
X263459Y85743D01*
X263396Y85725D01*
X263333Y85712D01*
X263258Y85706D01*
X263227D01*
X263189Y85712D01*
X263139Y85725D01*
X263082Y85737D01*
X263019Y85756D01*
X262963Y85787D01*
X262900Y85831D01*
X262894Y85838D01*
X262875Y85856D01*
X262843Y85888D01*
X262812Y85938D01*
X262768Y86001D01*
X262730Y86076D01*
X262693Y86177D01*
X262655Y86290D01*
Y86296D01*
X262649Y86309D01*
X262643Y86334D01*
X262636Y86371D01*
X262630Y86422D01*
X262617Y86478D01*
X262605Y86547D01*
X262592Y86629D01*
X262586Y86723D01*
X262573Y86830D01*
X262561Y86949D01*
X262555Y87081D01*
X262548Y87226D01*
X262542Y87383D01*
X262536Y87558D01*
Y87740D01*
Y87753D01*
Y87784D01*
Y87835D01*
Y87904D01*
Y87985D01*
X262542Y88086D01*
Y88186D01*
X262548Y88300D01*
X262561Y88532D01*
X262580Y88758D01*
X262592Y88871D01*
X262605Y88971D01*
X262624Y89059D01*
X262643Y89141D01*
Y89147D01*
X262649Y89160D01*
X262655Y89179D01*
X262661Y89204D01*
X262680Y89267D01*
X262712Y89348D01*
X262749Y89436D01*
X262793Y89518D01*
X262843Y89593D01*
X262900Y89650D01*
X262906Y89656D01*
X262925Y89669D01*
X262963Y89694D01*
X263000Y89719D01*
X263057Y89738D01*
X263120Y89763D01*
X263183Y89775D01*
X263258Y89781D01*
X263289D01*
X263327Y89775D01*
D02*
G37*
G36*
X259769Y81268D02*
X259832Y81256D01*
X259914Y81243D01*
X259996Y81218D01*
X260083Y81180D01*
X260165Y81137D01*
X260171Y81130D01*
X260203Y81111D01*
X260240Y81080D01*
X260284Y81036D01*
X260335Y80980D01*
X260385Y80910D01*
X260435Y80822D01*
X260479Y80728D01*
X260485Y80716D01*
Y80703D01*
X260492Y80678D01*
X260510Y80615D01*
X260523Y80527D01*
X260542Y80414D01*
X260561Y80276D01*
X260567Y80119D01*
X260573Y79931D01*
Y77827D01*
X258978D01*
Y80044D01*
Y80050D01*
Y80075D01*
Y80107D01*
Y80151D01*
Y80201D01*
X258984Y80264D01*
Y80396D01*
X258997Y80540D01*
X259010Y80672D01*
X259016Y80735D01*
X259022Y80791D01*
X259035Y80841D01*
X259047Y80879D01*
Y80885D01*
X259060Y80910D01*
X259072Y80942D01*
X259098Y80986D01*
X259129Y81030D01*
X259167Y81080D01*
X259210Y81124D01*
X259267Y81168D01*
X259273Y81174D01*
X259292Y81187D01*
X259330Y81199D01*
X259374Y81224D01*
X259437Y81243D01*
X259506Y81256D01*
X259581Y81268D01*
X259669Y81275D01*
X259713D01*
X259769Y81268D01*
D02*
G37*
G36*
X280060Y79836D02*
X280092Y79830D01*
X280142Y79811D01*
X280217Y79793D01*
X280311Y79767D01*
X280431Y79736D01*
X280569Y79705D01*
X280732Y79667D01*
X280738D01*
X280751Y79661D01*
X280776D01*
X280807Y79648D01*
X280883Y79629D01*
X280977Y79611D01*
X281078Y79579D01*
X281178Y79548D01*
X281266Y79516D01*
X281304Y79497D01*
X281335Y79479D01*
X281341Y79472D01*
X281366Y79453D01*
X281404Y79416D01*
X281442Y79372D01*
X281479Y79315D01*
X281517Y79246D01*
X281542Y79171D01*
X281549Y79089D01*
Y79077D01*
Y79052D01*
X281542Y79008D01*
X281530Y78951D01*
X281505Y78888D01*
X281479Y78819D01*
X281435Y78756D01*
X281379Y78687D01*
X281373Y78681D01*
X281347Y78662D01*
X281310Y78631D01*
X281260Y78606D01*
X281190Y78574D01*
X281115Y78543D01*
X281027Y78524D01*
X280933Y78518D01*
X280921D01*
X280883Y78524D01*
X280826Y78530D01*
X280751Y78543D01*
X280663Y78568D01*
X280562Y78599D01*
X280462Y78650D01*
X280362Y78712D01*
X280355Y78719D01*
X280330Y78737D01*
X280293Y78769D01*
X280255Y78813D01*
X280205Y78869D01*
X280161Y78932D01*
X280123Y79001D01*
X280092Y79077D01*
Y79083D01*
X280085Y79108D01*
X280079Y79146D01*
X280066Y79196D01*
X280060Y79271D01*
X280054Y79365D01*
X280047Y79479D01*
Y79617D01*
Y79843D01*
X280060Y79836D01*
D02*
G37*
G36*
X275557D02*
X275589Y79830D01*
X275639Y79811D01*
X275714Y79793D01*
X275809Y79767D01*
X275928Y79736D01*
X276066Y79705D01*
X276229Y79667D01*
X276236D01*
X276248Y79661D01*
X276273D01*
X276305Y79648D01*
X276380Y79629D01*
X276474Y79611D01*
X276575Y79579D01*
X276675Y79548D01*
X276763Y79516D01*
X276801Y79497D01*
X276832Y79479D01*
X276838Y79472D01*
X276864Y79453D01*
X276901Y79416D01*
X276939Y79372D01*
X276977Y79315D01*
X277014Y79246D01*
X277039Y79171D01*
X277046Y79089D01*
Y79077D01*
Y79052D01*
X277039Y79008D01*
X277027Y78951D01*
X277002Y78888D01*
X276977Y78819D01*
X276933Y78756D01*
X276876Y78687D01*
X276870Y78681D01*
X276845Y78662D01*
X276807Y78631D01*
X276757Y78606D01*
X276688Y78574D01*
X276612Y78543D01*
X276524Y78524D01*
X276430Y78518D01*
X276418D01*
X276380Y78524D01*
X276324Y78530D01*
X276248Y78543D01*
X276160Y78568D01*
X276060Y78599D01*
X275959Y78650D01*
X275859Y78712D01*
X275852Y78719D01*
X275827Y78737D01*
X275790Y78769D01*
X275752Y78813D01*
X275702Y78869D01*
X275658Y78932D01*
X275620Y79001D01*
X275589Y79077D01*
Y79083D01*
X275583Y79108D01*
X275576Y79146D01*
X275564Y79196D01*
X275557Y79271D01*
X275551Y79365D01*
X275545Y79479D01*
Y79617D01*
Y79843D01*
X275557Y79836D01*
D02*
G37*
G36*
X254425D02*
X254456Y79830D01*
X254507Y79811D01*
X254582Y79793D01*
X254676Y79767D01*
X254796Y79736D01*
X254934Y79705D01*
X255097Y79667D01*
X255103D01*
X255116Y79661D01*
X255141D01*
X255172Y79648D01*
X255248Y79629D01*
X255342Y79611D01*
X255443Y79579D01*
X255543Y79548D01*
X255631Y79516D01*
X255669Y79497D01*
X255700Y79479D01*
X255706Y79472D01*
X255731Y79453D01*
X255769Y79416D01*
X255807Y79372D01*
X255844Y79315D01*
X255882Y79246D01*
X255907Y79171D01*
X255913Y79089D01*
Y79077D01*
Y79052D01*
X255907Y79008D01*
X255895Y78951D01*
X255870Y78888D01*
X255844Y78819D01*
X255801Y78756D01*
X255744Y78687D01*
X255738Y78681D01*
X255713Y78662D01*
X255675Y78631D01*
X255625Y78606D01*
X255556Y78574D01*
X255480Y78543D01*
X255392Y78524D01*
X255298Y78518D01*
X255286D01*
X255248Y78524D01*
X255191Y78530D01*
X255116Y78543D01*
X255028Y78568D01*
X254927Y78599D01*
X254827Y78650D01*
X254727Y78712D01*
X254720Y78719D01*
X254695Y78737D01*
X254658Y78769D01*
X254620Y78813D01*
X254570Y78869D01*
X254526Y78932D01*
X254488Y79001D01*
X254456Y79077D01*
Y79083D01*
X254450Y79108D01*
X254444Y79146D01*
X254431Y79196D01*
X254425Y79271D01*
X254419Y79365D01*
X254413Y79479D01*
Y79617D01*
Y79843D01*
X254425Y79836D01*
D02*
G37*
G36*
X273372Y82028D02*
X272342D01*
Y81406D01*
X272336Y81413D01*
X272317Y81438D01*
X272286Y81476D01*
X272241Y81520D01*
X272191Y81570D01*
X272122Y81633D01*
X272053Y81695D01*
X271965Y81765D01*
X271871Y81834D01*
X271764Y81896D01*
X271651Y81959D01*
X271532Y82009D01*
X271400Y82060D01*
X271262Y82091D01*
X271117Y82116D01*
X270967Y82122D01*
X273372D01*
Y82028D01*
D02*
G37*
G36*
X274395Y74784D02*
Y74740D01*
X274408Y74646D01*
X274427Y74526D01*
X274452Y74401D01*
X274483Y74269D01*
X274534Y74137D01*
Y74130D01*
X274540Y74124D01*
X274546Y74099D01*
X274559Y74074D01*
X274578Y74043D01*
X274597Y74005D01*
X274640Y73911D01*
X274703Y73804D01*
X274779Y73678D01*
X274873Y73540D01*
X274980Y73396D01*
X274992Y73383D01*
X275017Y73346D01*
X275074Y73289D01*
X275143Y73207D01*
X275193Y73157D01*
X275243Y73101D01*
X275306Y73044D01*
X275369Y72975D01*
X275444Y72906D01*
X275526Y72824D01*
X275614Y72743D01*
X275708Y72655D01*
X275714Y72648D01*
X275733Y72636D01*
X275758Y72611D01*
X275790Y72579D01*
X275834Y72542D01*
X275884Y72498D01*
X275991Y72397D01*
X276104Y72290D01*
X276210Y72184D01*
X276261Y72133D01*
X276305Y72089D01*
X276342Y72046D01*
X276374Y72014D01*
X276380Y72008D01*
X276399Y71989D01*
X276424Y71958D01*
X276455Y71920D01*
X276487Y71870D01*
X276524Y71820D01*
X276600Y71713D01*
X274389D01*
Y74815D01*
X274395Y74784D01*
D02*
G37*
G36*
X267645D02*
Y74740D01*
X267657Y74646D01*
X267676Y74526D01*
X267701Y74401D01*
X267733Y74269D01*
X267783Y74137D01*
Y74130D01*
X267789Y74124D01*
X267795Y74099D01*
X267808Y74074D01*
X267827Y74043D01*
X267846Y74005D01*
X267889Y73911D01*
X267952Y73804D01*
X268028Y73678D01*
X268122Y73540D01*
X268229Y73396D01*
X268241Y73383D01*
X268266Y73346D01*
X268323Y73289D01*
X268392Y73207D01*
X268442Y73157D01*
X268492Y73101D01*
X268555Y73044D01*
X268618Y72975D01*
X268693Y72906D01*
X268775Y72824D01*
X268863Y72743D01*
X268957Y72655D01*
X268963Y72648D01*
X268982Y72636D01*
X269007Y72611D01*
X269039Y72579D01*
X269083Y72542D01*
X269133Y72498D01*
X269240Y72397D01*
X269353Y72290D01*
X269460Y72184D01*
X269510Y72133D01*
X269554Y72089D01*
X269591Y72046D01*
X269623Y72014D01*
X269629Y72008D01*
X269648Y71989D01*
X269673Y71958D01*
X269704Y71920D01*
X269736Y71870D01*
X269774Y71820D01*
X269849Y71713D01*
X267638D01*
Y74815D01*
X267645Y74784D01*
D02*
G37*
G36*
X258639D02*
Y74740D01*
X258652Y74646D01*
X258670Y74526D01*
X258696Y74401D01*
X258727Y74269D01*
X258777Y74137D01*
Y74130D01*
X258784Y74124D01*
X258790Y74099D01*
X258802Y74074D01*
X258821Y74043D01*
X258840Y74005D01*
X258884Y73911D01*
X258947Y73804D01*
X259022Y73678D01*
X259116Y73540D01*
X259223Y73396D01*
X259236Y73383D01*
X259261Y73346D01*
X259317Y73289D01*
X259386Y73207D01*
X259437Y73157D01*
X259487Y73101D01*
X259550Y73044D01*
X259612Y72975D01*
X259688Y72906D01*
X259769Y72824D01*
X259857Y72743D01*
X259951Y72655D01*
X259958Y72648D01*
X259977Y72636D01*
X260002Y72611D01*
X260033Y72579D01*
X260077Y72542D01*
X260127Y72498D01*
X260234Y72397D01*
X260347Y72290D01*
X260454Y72184D01*
X260504Y72133D01*
X260548Y72089D01*
X260586Y72046D01*
X260617Y72014D01*
X260624Y72008D01*
X260642Y71989D01*
X260667Y71958D01*
X260699Y71920D01*
X260730Y71870D01*
X260768Y71820D01*
X260843Y71713D01*
X258633D01*
Y74815D01*
X258639Y74784D01*
D02*
G37*
G36*
X265082Y75569D02*
X265132Y75556D01*
X265189Y75543D01*
X265252Y75518D01*
X265308Y75487D01*
X265371Y75443D01*
X265377Y75437D01*
X265396Y75418D01*
X265428Y75387D01*
X265459Y75336D01*
X265497Y75274D01*
X265541Y75198D01*
X265578Y75098D01*
X265616Y74985D01*
Y74978D01*
X265622Y74966D01*
X265629Y74941D01*
X265635Y74903D01*
X265641Y74853D01*
X265654Y74796D01*
X265660Y74721D01*
X265673Y74639D01*
X265685Y74545D01*
X265691Y74438D01*
X265704Y74319D01*
X265710Y74187D01*
X265717Y74049D01*
X265723Y73886D01*
X265729Y73716D01*
Y73534D01*
Y73521D01*
Y73490D01*
Y73440D01*
Y73371D01*
X265723Y73283D01*
Y73189D01*
Y73088D01*
X265717Y72975D01*
X265704Y72743D01*
X265685Y72510D01*
X265673Y72397D01*
X265660Y72297D01*
X265648Y72209D01*
X265629Y72127D01*
Y72121D01*
X265622Y72108D01*
X265616Y72089D01*
X265610Y72064D01*
X265591Y72002D01*
X265560Y71926D01*
X265522Y71838D01*
X265478Y71757D01*
X265428Y71681D01*
X265371Y71625D01*
X265365Y71618D01*
X265346Y71606D01*
X265308Y71587D01*
X265264Y71562D01*
X265214Y71537D01*
X265151Y71518D01*
X265089Y71505D01*
X265013Y71499D01*
X264982D01*
X264944Y71505D01*
X264894Y71518D01*
X264837Y71531D01*
X264775Y71549D01*
X264718Y71581D01*
X264655Y71625D01*
X264649Y71631D01*
X264630Y71650D01*
X264599Y71681D01*
X264567Y71732D01*
X264523Y71794D01*
X264486Y71870D01*
X264448Y71970D01*
X264410Y72083D01*
Y72089D01*
X264404Y72102D01*
X264398Y72127D01*
X264391Y72165D01*
X264385Y72215D01*
X264373Y72272D01*
X264360Y72341D01*
X264348Y72422D01*
X264341Y72517D01*
X264329Y72623D01*
X264316Y72743D01*
X264310Y72874D01*
X264304Y73019D01*
X264297Y73176D01*
X264291Y73352D01*
Y73534D01*
Y73546D01*
Y73578D01*
Y73628D01*
Y73697D01*
Y73779D01*
X264297Y73879D01*
Y73980D01*
X264304Y74093D01*
X264316Y74325D01*
X264335Y74551D01*
X264348Y74664D01*
X264360Y74765D01*
X264379Y74853D01*
X264398Y74934D01*
Y74941D01*
X264404Y74953D01*
X264410Y74972D01*
X264417Y74997D01*
X264436Y75060D01*
X264467Y75142D01*
X264505Y75230D01*
X264548Y75311D01*
X264599Y75387D01*
X264655Y75443D01*
X264662Y75449D01*
X264680Y75462D01*
X264718Y75487D01*
X264756Y75512D01*
X264812Y75531D01*
X264875Y75556D01*
X264938Y75569D01*
X265013Y75575D01*
X265045D01*
X265082Y75569D01*
D02*
G37*
G36*
X280839D02*
X280889Y75556D01*
X280946Y75543D01*
X281008Y75518D01*
X281065Y75487D01*
X281128Y75443D01*
X281134Y75437D01*
X281153Y75418D01*
X281184Y75387D01*
X281216Y75336D01*
X281253Y75274D01*
X281297Y75198D01*
X281335Y75098D01*
X281373Y74985D01*
Y74978D01*
X281379Y74966D01*
X281385Y74941D01*
X281392Y74903D01*
X281398Y74853D01*
X281410Y74796D01*
X281417Y74721D01*
X281429Y74639D01*
X281442Y74545D01*
X281448Y74438D01*
X281460Y74319D01*
X281467Y74187D01*
X281473Y74049D01*
X281479Y73886D01*
X281486Y73716D01*
Y73534D01*
Y73521D01*
Y73490D01*
Y73440D01*
Y73371D01*
X281479Y73283D01*
Y73189D01*
Y73088D01*
X281473Y72975D01*
X281460Y72743D01*
X281442Y72510D01*
X281429Y72397D01*
X281417Y72297D01*
X281404Y72209D01*
X281385Y72127D01*
Y72121D01*
X281379Y72108D01*
X281373Y72089D01*
X281366Y72064D01*
X281347Y72002D01*
X281316Y71926D01*
X281278Y71838D01*
X281235Y71757D01*
X281184Y71681D01*
X281128Y71625D01*
X281121Y71618D01*
X281103Y71606D01*
X281065Y71587D01*
X281021Y71562D01*
X280971Y71537D01*
X280908Y71518D01*
X280845Y71505D01*
X280770Y71499D01*
X280738D01*
X280701Y71505D01*
X280650Y71518D01*
X280594Y71531D01*
X280531Y71549D01*
X280475Y71581D01*
X280412Y71625D01*
X280405Y71631D01*
X280387Y71650D01*
X280355Y71681D01*
X280324Y71732D01*
X280280Y71794D01*
X280242Y71870D01*
X280205Y71970D01*
X280167Y72083D01*
Y72089D01*
X280161Y72102D01*
X280154Y72127D01*
X280148Y72165D01*
X280142Y72215D01*
X280129Y72272D01*
X280117Y72341D01*
X280104Y72422D01*
X280098Y72517D01*
X280085Y72623D01*
X280073Y72743D01*
X280066Y72874D01*
X280060Y73019D01*
X280054Y73176D01*
X280047Y73352D01*
Y73534D01*
Y73546D01*
Y73578D01*
Y73628D01*
Y73697D01*
Y73779D01*
X280054Y73879D01*
Y73980D01*
X280060Y74093D01*
X280073Y74325D01*
X280092Y74551D01*
X280104Y74664D01*
X280117Y74765D01*
X280135Y74853D01*
X280154Y74934D01*
Y74941D01*
X280161Y74953D01*
X280167Y74972D01*
X280173Y74997D01*
X280192Y75060D01*
X280223Y75142D01*
X280261Y75230D01*
X280305Y75311D01*
X280355Y75387D01*
X280412Y75443D01*
X280418Y75449D01*
X280437Y75462D01*
X280475Y75487D01*
X280512Y75512D01*
X280569Y75531D01*
X280632Y75556D01*
X280694Y75569D01*
X280770Y75575D01*
X280801D01*
X280839Y75569D01*
D02*
G37*
%LPC*%
G36*
X417211Y98973D02*
X414637D01*
Y96109D01*
D01*
Y98973D01*
X415903D01*
X415870Y98969D01*
X415827D01*
X415781Y98966D01*
X415732Y98963D01*
X415676Y98960D01*
X415558Y98943D01*
X415440Y98923D01*
X415381Y98910D01*
X415325Y98897D01*
X415273Y98878D01*
X415227Y98858D01*
X415224D01*
X415217Y98851D01*
X415204Y98845D01*
X415188Y98838D01*
X415168Y98825D01*
X415145Y98812D01*
X415096Y98779D01*
X415040Y98737D01*
X414984Y98687D01*
X414932Y98628D01*
X414909Y98599D01*
X414889Y98566D01*
Y98563D01*
X414886Y98556D01*
X414879Y98546D01*
X414873Y98530D01*
X414866Y98510D01*
X414856Y98484D01*
X414850Y98454D01*
X414840Y98418D01*
X414830Y98376D01*
X414820Y98330D01*
X414814Y98277D01*
X414807Y98218D01*
X414801Y98153D01*
X414794Y98080D01*
X414791Y98002D01*
Y97917D01*
X414801Y97070D01*
Y97067D01*
Y97054D01*
Y97038D01*
Y97011D01*
Y96982D01*
X414797Y96946D01*
Y96910D01*
Y96867D01*
X414794Y96782D01*
X414787Y96693D01*
X414778Y96608D01*
X414774Y96572D01*
X414768Y96536D01*
Y96532D01*
X414764Y96529D01*
Y96519D01*
X414761Y96506D01*
X414751Y96470D01*
X414738Y96427D01*
X414719Y96372D01*
X414696Y96309D01*
X414669Y96244D01*
X414637Y96172D01*
X415355D01*
Y96175D01*
X415361Y96185D01*
X415368Y96201D01*
X415375Y96224D01*
X415384Y96257D01*
X415398Y96293D01*
X415411Y96336D01*
X415427Y96385D01*
Y96388D01*
X415430Y96395D01*
X415434Y96408D01*
X415437Y96421D01*
X415444Y96447D01*
X415450Y96460D01*
X415453Y96470D01*
X415457Y96467D01*
X415463Y96464D01*
X415473Y96454D01*
X415486Y96441D01*
X415503Y96424D01*
X415522Y96408D01*
X415571Y96368D01*
X415630Y96326D01*
X415699Y96280D01*
X415771Y96237D01*
X415850Y96198D01*
X415854D01*
X415860Y96194D01*
X415870Y96191D01*
X415886Y96185D01*
X415906Y96178D01*
X415929Y96168D01*
X415955Y96162D01*
X415985Y96155D01*
X416053Y96139D01*
X416129Y96122D01*
X416214Y96113D01*
X416303Y96109D01*
X414637D01*
X416342D01*
X416372Y96113D01*
X416408Y96116D01*
X416450Y96122D01*
X416496Y96129D01*
X416546Y96139D01*
X416598Y96149D01*
X416650Y96165D01*
X416706Y96185D01*
X416762Y96208D01*
X416818Y96234D01*
X416870Y96263D01*
X416920Y96299D01*
X416969Y96339D01*
X416972Y96342D01*
X416979Y96349D01*
X416992Y96362D01*
X417008Y96381D01*
X417024Y96404D01*
X417044Y96431D01*
X417067Y96460D01*
X417090Y96496D01*
X417113Y96539D01*
X417136Y96582D01*
X417156Y96631D01*
X417172Y96680D01*
X417188Y96736D01*
X417202Y96795D01*
X417208Y96854D01*
X417211Y96919D01*
Y96942D01*
X417208Y96959D01*
Y96978D01*
X417205Y97001D01*
X417198Y97057D01*
X417185Y97119D01*
X417166Y97188D01*
X417139Y97260D01*
X417103Y97329D01*
Y97333D01*
X417097Y97336D01*
X417090Y97346D01*
X417084Y97359D01*
X417057Y97392D01*
X417021Y97434D01*
X416979Y97477D01*
X416926Y97526D01*
X416864Y97569D01*
X416792Y97608D01*
X416788D01*
X416782Y97611D01*
X416772Y97618D01*
X416755Y97625D01*
X416733Y97635D01*
X416710Y97644D01*
X416680Y97654D01*
X416644Y97667D01*
X416605Y97680D01*
X416562Y97694D01*
X416516Y97707D01*
X416464Y97723D01*
X416408Y97736D01*
X416349Y97749D01*
X416283Y97766D01*
X416214Y97779D01*
X416208D01*
X416191Y97782D01*
X416165Y97789D01*
X416132Y97795D01*
X416090Y97805D01*
X416040Y97815D01*
X415988Y97825D01*
X415932Y97838D01*
X415817Y97864D01*
X415699Y97894D01*
X415644Y97910D01*
X415591Y97926D01*
X415545Y97943D01*
X415506Y97959D01*
Y98031D01*
Y98035D01*
Y98041D01*
Y98051D01*
Y98064D01*
X415512Y98100D01*
X415519Y98146D01*
X415532Y98195D01*
X415548Y98245D01*
X415575Y98287D01*
X415611Y98326D01*
X415614Y98330D01*
X415630Y98340D01*
X415657Y98356D01*
X415676Y98363D01*
X415696Y98373D01*
X415722Y98382D01*
X415752Y98389D01*
X415781Y98399D01*
X415817Y98405D01*
X415857Y98409D01*
X415903Y98415D01*
X415949Y98418D01*
X416034D01*
X416067Y98415D01*
X416113Y98409D01*
X416158Y98399D01*
X416211Y98386D01*
X416260Y98366D01*
X416303Y98340D01*
X416306Y98336D01*
X416319Y98326D01*
X416339Y98307D01*
X416365Y98277D01*
X416391Y98241D01*
X416421Y98195D01*
X416450Y98140D01*
X416477Y98074D01*
X417136Y98192D01*
Y98195D01*
X417129Y98208D01*
X417123Y98231D01*
X417116Y98258D01*
X417103Y98290D01*
X417087Y98326D01*
X417070Y98369D01*
X417047Y98415D01*
X417024Y98461D01*
X416995Y98510D01*
X416965Y98559D01*
X416929Y98609D01*
X416890Y98655D01*
X416851Y98700D01*
X416805Y98740D01*
X416755Y98779D01*
X416752Y98782D01*
X416742Y98789D01*
X416726Y98796D01*
X416703Y98809D01*
X416677Y98825D01*
X416641Y98842D01*
X416601Y98858D01*
X416552Y98878D01*
X416500Y98894D01*
X416437Y98910D01*
X416372Y98927D01*
X416299Y98943D01*
X416221Y98956D01*
X416136Y98963D01*
X416047Y98969D01*
X415949Y98973D01*
X417211D01*
D02*
G37*
G36*
X422443D02*
X422417D01*
X422384Y98969D01*
X422341Y98966D01*
X422289Y98960D01*
X422230Y98950D01*
X422164Y98940D01*
X422092Y98923D01*
X422017Y98901D01*
X421938Y98874D01*
X421859Y98842D01*
X421777Y98802D01*
X421698Y98756D01*
X421620Y98700D01*
X421548Y98638D01*
X421479Y98566D01*
X421475Y98563D01*
X421462Y98546D01*
X421446Y98523D01*
X421423Y98491D01*
X421397Y98448D01*
X421367Y98395D01*
X421334Y98333D01*
X421302Y98261D01*
X421272Y98179D01*
X421239Y98087D01*
X421210Y97985D01*
X421187Y97877D01*
X421164Y97756D01*
X421147Y97625D01*
X421138Y97484D01*
Y98973D01*
Y96109D01*
D01*
Y97333D01*
X422951D01*
Y97329D01*
Y97320D01*
X422948Y97303D01*
Y97280D01*
X422945Y97251D01*
X422942Y97221D01*
X422935Y97185D01*
X422928Y97149D01*
X422905Y97067D01*
X422876Y96982D01*
X422856Y96942D01*
X422833Y96900D01*
X422807Y96864D01*
X422778Y96828D01*
X422774Y96824D01*
X422771Y96821D01*
X422761Y96811D01*
X422748Y96801D01*
X422732Y96788D01*
X422712Y96772D01*
X422663Y96739D01*
X422604Y96706D01*
X422532Y96677D01*
X422449Y96657D01*
X422407Y96654D01*
X422361Y96650D01*
X422331D01*
X422302Y96657D01*
X422263Y96664D01*
X422217Y96673D01*
X422167Y96690D01*
X422122Y96713D01*
X422076Y96742D01*
X422069Y96746D01*
X422056Y96759D01*
X422036Y96782D01*
X422010Y96815D01*
X421980Y96857D01*
X421951Y96910D01*
X421925Y96972D01*
X421899Y97044D01*
X421177Y96923D01*
Y96919D01*
X421183Y96906D01*
X421193Y96883D01*
X421203Y96857D01*
X421219Y96824D01*
X421236Y96785D01*
X421259Y96742D01*
X421285Y96696D01*
X421315Y96647D01*
X421348Y96598D01*
X421384Y96549D01*
X421423Y96500D01*
X421465Y96447D01*
X421515Y96401D01*
X421564Y96355D01*
X421620Y96316D01*
X421623Y96313D01*
X421633Y96306D01*
X421649Y96296D01*
X421672Y96283D01*
X421702Y96267D01*
X421738Y96250D01*
X421780Y96231D01*
X421826Y96214D01*
X421879Y96194D01*
X421935Y96175D01*
X421997Y96158D01*
X422062Y96142D01*
X422135Y96129D01*
X422210Y96119D01*
X422289Y96113D01*
X422371Y96109D01*
X421138D01*
X422400D01*
X422420Y96113D01*
X422440D01*
X422489Y96116D01*
X422548Y96122D01*
X422614Y96135D01*
X422689Y96149D01*
X422771Y96168D01*
X422853Y96191D01*
X422942Y96224D01*
X423030Y96260D01*
X423115Y96306D01*
X423201Y96359D01*
X423283Y96421D01*
X423358Y96493D01*
X423427Y96575D01*
X423430Y96578D01*
X423437Y96591D01*
X423453Y96614D01*
X423470Y96644D01*
X423489Y96680D01*
X423512Y96723D01*
X423535Y96775D01*
X423561Y96834D01*
X423588Y96900D01*
X423611Y96969D01*
X423634Y97047D01*
X423653Y97133D01*
X423670Y97221D01*
X423683Y97316D01*
X423693Y97415D01*
X423696Y97520D01*
Y97549D01*
X423693Y97585D01*
X423689Y97631D01*
X423686Y97690D01*
X423676Y97756D01*
X423666Y97828D01*
X423650Y97907D01*
X423634Y97992D01*
X423611Y98077D01*
X423581Y98166D01*
X423545Y98254D01*
X423506Y98343D01*
X423460Y98428D01*
X423404Y98510D01*
X423342Y98586D01*
X423338Y98589D01*
X423325Y98602D01*
X423306Y98622D01*
X423276Y98645D01*
X423243Y98674D01*
X423201Y98707D01*
X423151Y98743D01*
X423096Y98779D01*
X423033Y98815D01*
X422964Y98851D01*
X422892Y98884D01*
X422810Y98914D01*
X422728Y98937D01*
X422637Y98956D01*
X422541Y98969D01*
X422443Y98973D01*
D02*
G37*
G36*
X410838Y99953D02*
X410097D01*
X408549Y97425D01*
Y99953D01*
X407840D01*
Y96172D01*
X410838D01*
Y99953D01*
D02*
G37*
G36*
X425762Y100019D02*
X425634D01*
X425615Y100016D01*
X425565D01*
X425506Y100009D01*
X425438Y100003D01*
X425362Y99993D01*
X425280Y99980D01*
X425195Y99963D01*
X425106Y99944D01*
X425018Y99917D01*
X424929Y99888D01*
X424844Y99852D01*
X424759Y99809D01*
X424683Y99760D01*
X424611Y99704D01*
X424608Y99701D01*
X424595Y99691D01*
X424578Y99671D01*
X424555Y99648D01*
X424526Y99616D01*
X424496Y99580D01*
X424464Y99534D01*
X424427Y99484D01*
X424395Y99425D01*
X424359Y99363D01*
X424329Y99294D01*
X424299Y99222D01*
X424273Y99143D01*
X424254Y99058D01*
X424237Y98966D01*
X424231Y98871D01*
X424995Y98838D01*
Y98842D01*
X424998Y98851D01*
X425001Y98868D01*
X425005Y98887D01*
X425011Y98910D01*
X425018Y98937D01*
X425041Y98999D01*
X425067Y99068D01*
X425106Y99140D01*
X425152Y99202D01*
X425178Y99232D01*
X425208Y99258D01*
X425211D01*
X425215Y99265D01*
X425224Y99271D01*
X425238Y99278D01*
X425254Y99288D01*
X425277Y99297D01*
X425300Y99310D01*
X425329Y99324D01*
X425359Y99334D01*
X425395Y99347D01*
X425434Y99357D01*
X425480Y99366D01*
X425526Y99373D01*
X425579Y99379D01*
X425631Y99386D01*
X425723D01*
X425746Y99383D01*
X425772D01*
X425805Y99379D01*
X425841Y99376D01*
X425880Y99370D01*
X425962Y99353D01*
X426051Y99327D01*
X426133Y99294D01*
X426176Y99271D01*
X426212Y99248D01*
X426218Y99245D01*
X426231Y99232D01*
X426248Y99212D01*
X426271Y99186D01*
X426294Y99153D01*
X426310Y99111D01*
X426323Y99064D01*
X426330Y99012D01*
Y99006D01*
X426327Y98989D01*
X426323Y98966D01*
X426317Y98933D01*
X426303Y98897D01*
X426284Y98858D01*
X426254Y98818D01*
X426218Y98782D01*
X426215D01*
X426212Y98776D01*
X426202Y98769D01*
X426186Y98763D01*
X426169Y98750D01*
X426143Y98737D01*
X426113Y98723D01*
X426077Y98707D01*
X426035Y98687D01*
X425982Y98668D01*
X425926Y98648D01*
X425861Y98625D01*
X425789Y98602D01*
X425707Y98579D01*
X425615Y98553D01*
X425516Y98530D01*
X425510D01*
X425493Y98523D01*
X425464Y98517D01*
X425424Y98507D01*
X425379Y98494D01*
X425326Y98481D01*
X425267Y98464D01*
X425205Y98448D01*
X425070Y98405D01*
X424932Y98359D01*
X424867Y98336D01*
X424805Y98310D01*
X424746Y98284D01*
X424693Y98258D01*
X424690D01*
X424680Y98251D01*
X424667Y98245D01*
X424647Y98231D01*
X424627Y98218D01*
X424601Y98202D01*
X424539Y98156D01*
X424473Y98103D01*
X424401Y98038D01*
X424335Y97959D01*
X424273Y97874D01*
X424270Y97871D01*
X424267Y97864D01*
X424260Y97848D01*
X424250Y97831D01*
X424237Y97808D01*
X424224Y97779D01*
X424211Y97746D01*
X424198Y97707D01*
X424185Y97667D01*
X424172Y97621D01*
X424158Y97572D01*
X424145Y97520D01*
X424135Y97461D01*
X424129Y97402D01*
X424122Y97339D01*
Y100019D01*
Y96106D01*
X427199D01*
X425687D01*
X425707Y96109D01*
X425756Y96113D01*
X425815Y96116D01*
X425884Y96122D01*
X425962Y96132D01*
X426044Y96149D01*
X426133Y96165D01*
X426222Y96188D01*
X426317Y96214D01*
X426408Y96247D01*
X426497Y96283D01*
X426586Y96329D01*
X426668Y96378D01*
X426743Y96437D01*
X426746Y96441D01*
X426759Y96454D01*
X426779Y96473D01*
X426805Y96500D01*
X426835Y96532D01*
X426868Y96575D01*
X426904Y96624D01*
X426943Y96683D01*
X426982Y96746D01*
X427022Y96818D01*
X427061Y96900D01*
X427097Y96985D01*
X427130Y97080D01*
X427160Y97182D01*
X427183Y97290D01*
X427199Y97405D01*
D01*
X426454Y97477D01*
Y97474D01*
X426451Y97461D01*
X426448Y97441D01*
X426441Y97415D01*
X426432Y97385D01*
X426422Y97349D01*
X426412Y97310D01*
X426395Y97267D01*
X426359Y97175D01*
X426313Y97087D01*
X426254Y96998D01*
X426222Y96962D01*
X426186Y96926D01*
X426182Y96923D01*
X426176Y96919D01*
X426162Y96910D01*
X426146Y96900D01*
X426126Y96887D01*
X426100Y96870D01*
X426071Y96854D01*
X426038Y96841D01*
X426002Y96824D01*
X425959Y96808D01*
X425913Y96791D01*
X425864Y96778D01*
X425811Y96768D01*
X425756Y96759D01*
X425694Y96755D01*
X425631Y96752D01*
X425595D01*
X425569Y96755D01*
X425539D01*
X425503Y96762D01*
X425464Y96765D01*
X425421Y96772D01*
X425333Y96791D01*
X425241Y96818D01*
X425152Y96857D01*
X425110Y96880D01*
X425073Y96906D01*
X425070Y96910D01*
X425067Y96913D01*
X425057Y96923D01*
X425044Y96936D01*
X425014Y96969D01*
X424978Y97011D01*
X424946Y97064D01*
X424916Y97126D01*
X424903Y97159D01*
X424893Y97195D01*
X424890Y97231D01*
X424887Y97270D01*
Y97277D01*
Y97293D01*
X424890Y97320D01*
X424896Y97349D01*
X424906Y97385D01*
X424919Y97425D01*
X424939Y97464D01*
X424965Y97500D01*
X424969Y97503D01*
X424982Y97516D01*
X425001Y97533D01*
X425028Y97556D01*
X425067Y97582D01*
X425116Y97608D01*
X425172Y97638D01*
X425241Y97664D01*
X425247Y97667D01*
X425257Y97671D01*
X425270Y97674D01*
X425287Y97677D01*
X425310Y97684D01*
X425336Y97694D01*
X425369Y97703D01*
X425405Y97713D01*
X425451Y97723D01*
X425500Y97736D01*
X425556Y97752D01*
X425618Y97769D01*
X425690Y97789D01*
X425769Y97808D01*
X425854Y97828D01*
X425857D01*
X425861Y97831D01*
X425880Y97834D01*
X425913Y97844D01*
X425953Y97854D01*
X426005Y97871D01*
X426061Y97887D01*
X426123Y97907D01*
X426192Y97933D01*
X426333Y97985D01*
X426474Y98051D01*
X426543Y98084D01*
X426605Y98123D01*
X426664Y98163D01*
X426714Y98202D01*
X426717Y98205D01*
X426730Y98215D01*
X426746Y98235D01*
X426769Y98258D01*
X426796Y98287D01*
X426825Y98323D01*
X426855Y98366D01*
X426887Y98415D01*
X426920Y98468D01*
X426950Y98523D01*
X426979Y98589D01*
X427005Y98655D01*
X427028Y98727D01*
X427045Y98802D01*
X427058Y98881D01*
X427061Y98963D01*
Y98966D01*
Y98976D01*
Y98992D01*
X427058Y99012D01*
X427055Y99038D01*
X427051Y99068D01*
X427048Y99101D01*
X427042Y99140D01*
X427022Y99222D01*
X426992Y99310D01*
X426976Y99360D01*
X426953Y99406D01*
X426930Y99455D01*
X426900Y99501D01*
X426897Y99504D01*
X426894Y99511D01*
X426884Y99524D01*
X426871Y99543D01*
X426855Y99563D01*
X426832Y99589D01*
X426809Y99616D01*
X426779Y99645D01*
X426750Y99675D01*
X426714Y99704D01*
X426674Y99737D01*
X426631Y99770D01*
X426586Y99799D01*
X426536Y99832D01*
X426484Y99858D01*
X426428Y99884D01*
X426425D01*
X426415Y99891D01*
X426395Y99898D01*
X426372Y99904D01*
X426343Y99917D01*
X426307Y99927D01*
X426267Y99940D01*
X426218Y99953D01*
X426169Y99963D01*
X426110Y99976D01*
X426051Y99989D01*
X425985Y99999D01*
X425913Y100006D01*
X425841Y100013D01*
X425762Y100019D01*
D02*
G37*
G36*
X412695Y97907D02*
X411271D01*
Y97182D01*
X412695D01*
Y97907D01*
D02*
G37*
G36*
X419281Y98973D02*
X419258D01*
X419238Y98969D01*
X419215D01*
X419189Y98966D01*
X419163Y98963D01*
X419130Y98956D01*
X419055Y98940D01*
X418976Y98914D01*
X418891Y98881D01*
X418802Y98835D01*
X419029Y98202D01*
X419032D01*
X419035Y98208D01*
X419045Y98212D01*
X419058Y98222D01*
X419094Y98241D01*
X419140Y98264D01*
X419193Y98284D01*
X419248Y98304D01*
X419311Y98317D01*
X419370Y98323D01*
X419396D01*
X419422Y98320D01*
X419458Y98313D01*
X419497Y98304D01*
X419544Y98287D01*
X419586Y98268D01*
X419629Y98238D01*
X419632Y98235D01*
X419645Y98222D01*
X419665Y98199D01*
X419688Y98169D01*
X419714Y98127D01*
X419743Y98074D01*
X419770Y98008D01*
X419793Y97933D01*
Y97930D01*
X419796Y97923D01*
X419799Y97910D01*
X419803Y97887D01*
X419806Y97861D01*
X419812Y97828D01*
X419816Y97785D01*
X419822Y97736D01*
X419829Y97680D01*
X419832Y97615D01*
X419839Y97539D01*
X419842Y97454D01*
X419845Y97362D01*
X419848Y97257D01*
X419852Y97142D01*
Y97018D01*
Y96172D01*
X418802D01*
Y98973D01*
Y96172D01*
X420577D01*
Y98914D01*
X419904D01*
Y98523D01*
X419901Y98527D01*
X419898Y98536D01*
X419888Y98550D01*
X419875Y98569D01*
X419862Y98589D01*
X419842Y98615D01*
X419803Y98671D01*
X419753Y98733D01*
X419701Y98792D01*
X419648Y98845D01*
X419622Y98868D01*
X419596Y98884D01*
X419589Y98887D01*
X419573Y98897D01*
X419544Y98914D01*
X419504Y98930D01*
X419458Y98943D01*
X419406Y98960D01*
X419347Y98969D01*
X419281Y98973D01*
D02*
G37*
G36*
X418487Y99953D02*
X417762D01*
Y96172D01*
X418487D01*
Y98914D01*
X417762D01*
Y99281D01*
X418487D01*
Y99953D01*
D02*
G37*
G36*
X414079D02*
X413354D01*
Y96172D01*
X414079D01*
Y99953D01*
D02*
G37*
G36*
X405774Y98973D02*
X405751D01*
X405731Y98969D01*
X405708D01*
X405682Y98966D01*
X405656Y98963D01*
X405623Y98956D01*
X405548Y98940D01*
X405469Y98914D01*
X405384Y98881D01*
X405295Y98835D01*
X405521Y98202D01*
X405525D01*
X405528Y98208D01*
X405538Y98212D01*
X405551Y98222D01*
X405587Y98241D01*
X405633Y98264D01*
X405686Y98284D01*
X405741Y98304D01*
X405803Y98317D01*
X405863Y98323D01*
X405889D01*
X405915Y98320D01*
X405951Y98313D01*
X405991Y98304D01*
X406036Y98287D01*
X406079Y98268D01*
X406122Y98238D01*
X406125Y98235D01*
X406138Y98222D01*
X406158Y98199D01*
X406181Y98169D01*
X406207Y98127D01*
X406237Y98074D01*
X406263Y98008D01*
X406286Y97933D01*
Y97930D01*
X406289Y97923D01*
X406292Y97910D01*
X406296Y97887D01*
X406299Y97861D01*
X406305Y97828D01*
X406309Y97785D01*
X406315Y97736D01*
X406322Y97680D01*
X406325Y97615D01*
X406332Y97539D01*
X406335Y97454D01*
X406338Y97362D01*
X406342Y97257D01*
X406345Y97142D01*
Y97018D01*
Y96172D01*
X405295D01*
X407070D01*
Y98914D01*
X406397D01*
Y98523D01*
X406394Y98527D01*
X406391Y98536D01*
X406381Y98550D01*
X406368Y98569D01*
X406355Y98589D01*
X406335Y98615D01*
X406296Y98671D01*
X406246Y98733D01*
X406194Y98792D01*
X406141Y98845D01*
X406115Y98868D01*
X406089Y98884D01*
X406082Y98887D01*
X406066Y98897D01*
X406036Y98914D01*
X405997Y98930D01*
X405951Y98943D01*
X405899Y98960D01*
X405840Y98969D01*
X405774Y98973D01*
D02*
G37*
G36*
X405295D02*
Y96172D01*
D01*
Y98973D01*
D02*
G37*
G36*
X404984Y96896D02*
X404259D01*
Y96172D01*
X404984D01*
Y96896D01*
D02*
G37*
%LPD*%
G36*
X415512Y97484D02*
X415522D01*
X415532Y97477D01*
X415548Y97474D01*
X415565Y97467D01*
X415588Y97461D01*
X415614Y97454D01*
X415644Y97448D01*
X415676Y97438D01*
X415712Y97428D01*
X415752Y97418D01*
X415798Y97408D01*
X415844Y97395D01*
X415896Y97385D01*
X415952Y97372D01*
X415955D01*
X415965Y97369D01*
X415981Y97365D01*
X416001Y97362D01*
X416024Y97356D01*
X416053Y97349D01*
X416113Y97333D01*
X416182Y97313D01*
X416244Y97293D01*
X416273Y97284D01*
X416303Y97270D01*
X416326Y97260D01*
X416346Y97247D01*
X416352Y97244D01*
X416368Y97231D01*
X416391Y97208D01*
X416414Y97179D01*
X416441Y97142D01*
X416464Y97097D01*
X416480Y97047D01*
X416483Y97021D01*
X416487Y96992D01*
Y96985D01*
X416483Y96965D01*
X416480Y96939D01*
X416473Y96903D01*
X416460Y96860D01*
X416441Y96818D01*
X416411Y96772D01*
X416375Y96729D01*
X416368Y96726D01*
X416355Y96713D01*
X416329Y96696D01*
X416296Y96677D01*
X416254Y96654D01*
X416204Y96637D01*
X416145Y96624D01*
X416083Y96621D01*
X416063D01*
X416050Y96624D01*
X416031D01*
X416011Y96627D01*
X415962Y96637D01*
X415906Y96654D01*
X415844Y96673D01*
X415775Y96706D01*
X415709Y96749D01*
X415703Y96752D01*
X415690Y96765D01*
X415666Y96788D01*
X415637Y96815D01*
X415608Y96851D01*
X415581Y96890D01*
X415555Y96939D01*
X415535Y96988D01*
Y96992D01*
X415532Y97008D01*
X415525Y97031D01*
X415519Y97067D01*
Y97090D01*
X415516Y97116D01*
X415512Y97146D01*
X415509Y97175D01*
Y97211D01*
X415506Y97251D01*
Y97297D01*
Y97342D01*
Y97487D01*
X415512Y97484D01*
D02*
G37*
G36*
X422436Y98415D02*
X422456Y98412D01*
X422479Y98409D01*
X422535Y98395D01*
X422597Y98376D01*
X422663Y98346D01*
X422696Y98326D01*
X422725Y98304D01*
X422758Y98274D01*
X422787Y98245D01*
Y98241D01*
X422794Y98238D01*
X422800Y98228D01*
X422810Y98212D01*
X422823Y98195D01*
X422837Y98176D01*
X422850Y98149D01*
X422863Y98120D01*
X422879Y98090D01*
X422892Y98054D01*
X422905Y98015D01*
X422919Y97972D01*
X422935Y97881D01*
X422938Y97828D01*
X422942Y97776D01*
X421856D01*
Y97779D01*
Y97789D01*
X421859Y97805D01*
Y97828D01*
X421862Y97854D01*
X421866Y97884D01*
X421872Y97917D01*
X421879Y97953D01*
X421899Y98031D01*
X421928Y98110D01*
X421967Y98185D01*
X421994Y98222D01*
X422020Y98254D01*
X422023Y98258D01*
X422026Y98261D01*
X422036Y98271D01*
X422046Y98281D01*
X422079Y98307D01*
X422125Y98336D01*
X422181Y98366D01*
X422243Y98392D01*
X422318Y98412D01*
X422354Y98415D01*
X422397Y98418D01*
X422420D01*
X422436Y98415D01*
D02*
G37*
G36*
X410130Y96172D02*
X408608D01*
X410130Y98641D01*
Y96172D01*
D02*
G37*
G36*
X424126Y97218D02*
X424129Y97188D01*
X424132Y97156D01*
X424139Y97116D01*
X424145Y97077D01*
X424155Y97031D01*
X424168Y96982D01*
X424201Y96880D01*
X424221Y96828D01*
X424244Y96772D01*
X424273Y96716D01*
X424306Y96664D01*
X424309Y96660D01*
X424316Y96650D01*
X424326Y96637D01*
X424339Y96618D01*
X424359Y96595D01*
X424381Y96569D01*
X424408Y96539D01*
X424437Y96506D01*
X424473Y96473D01*
X424509Y96437D01*
X424552Y96401D01*
X424598Y96368D01*
X424647Y96332D01*
X424700Y96303D01*
X424759Y96270D01*
X424818Y96244D01*
X424821D01*
X424834Y96237D01*
X424851Y96231D01*
X424877Y96221D01*
X424910Y96211D01*
X424949Y96201D01*
X424992Y96188D01*
X425044Y96175D01*
X425100Y96162D01*
X425162Y96149D01*
X425231Y96139D01*
X425303Y96129D01*
X425379Y96119D01*
X425461Y96113D01*
X425546Y96109D01*
X425638Y96106D01*
X424122D01*
Y97241D01*
X424126Y97218D01*
D02*
G37*
D15*
X402756Y68110D02*
Y94095D01*
X428740D01*
Y68110D02*
Y94095D01*
X402756Y68110D02*
X428740D01*
D97*
X319452Y18600D02*
X319472Y19173D01*
X293393Y56448D02*
X293221Y56862D01*
X291070Y11849D02*
X292517Y12100D01*
X291338Y13305D02*
X291934Y13648D01*
X292297Y14403D01*
X291639Y33933D02*
X292053Y34102D01*
X292224Y34515D01*
X292807Y57033D02*
X292224Y56448D01*
X290482Y11866D02*
X290658Y11856D01*
X289891Y13243D02*
X289925Y13239D01*
X289925D02*
X289991Y13232D01*
Y13232D02*
X290023Y13230D01*
X284362Y24631D02*
X283246Y25303D01*
X281144Y24321D02*
X280728Y24288D01*
X282198Y25621D02*
X281280Y25696D01*
X278350Y21968D02*
X278223Y22685D01*
X278128Y23015D02*
X278011Y23325D01*
X278223Y22685D02*
X278128Y23015D01*
X276250Y11961D02*
X276945Y12274D01*
X277567Y12717D01*
X276797Y18996D02*
X275932Y19453D01*
X276981Y21968D02*
X276629Y22983D01*
X275866Y23739D01*
X276861Y24779D02*
X276299Y25110D01*
X277714Y23887D02*
X276861Y24779D01*
X276299Y25110D02*
X275980Y25248D01*
X274493Y13097D02*
X274783Y13130D01*
X273869Y13071D02*
X274188Y13077D01*
X274188Y13077D02*
X274493Y13097D01*
X275061Y13176D02*
X275324Y13236D01*
X275324Y13236D02*
X275809Y13394D01*
X274861Y18472D02*
X274458Y18583D01*
X274458D02*
X274023Y18678D01*
X275576Y18197D02*
X275234Y18343D01*
X274861Y18472D01*
X274909Y19809D02*
X274339Y19949D01*
X274339Y19949D02*
X273729Y20064D01*
X275440Y19644D02*
X274909Y19809D01*
X274875Y25550D02*
X274456Y25615D01*
X274686Y24176D02*
X274393Y24228D01*
X274456Y25615D02*
X274012Y25660D01*
X274393Y24228D02*
X274082Y24269D01*
Y24269D02*
X273752Y24298D01*
X275268Y25468D02*
X274874Y25550D01*
X275637Y25367D02*
X275268Y25468D01*
X275450Y23948D02*
X275214Y24036D01*
X275214Y24036D02*
X274959Y24112D01*
X274959Y24112D02*
X274686Y24176D01*
X273733Y33305D02*
X274789Y32747D01*
X274667Y33997D02*
X274789Y33933D01*
X274630Y39968D02*
X275043Y39796D01*
X274460Y40382D02*
X274630Y39968D01*
X275457Y39968D02*
X275629Y40382D01*
X275043Y39796D02*
X275457Y39968D01*
X274460Y55405D02*
X274289Y55819D01*
X275179Y56698D02*
X274092Y57148D01*
X272015Y12100D02*
X273306Y11782D01*
X273558Y18755D02*
X273062Y18815D01*
Y18815D02*
X272536Y18858D01*
X273080Y20153D02*
X272392Y20216D01*
X272392Y20216D02*
X271664Y20254D01*
X273543Y25687D02*
X273049Y25696D01*
X270152Y14607D02*
X271234Y13843D01*
X268224Y32919D02*
X268396Y33333D01*
X268224Y33747D02*
X267810Y33918D01*
X268396Y33333D02*
X268224Y33747D01*
X267810Y32747D02*
X268224Y32919D01*
X258604Y55907D02*
X258617Y55745D01*
X257642Y57148D02*
X256927Y56739D01*
X252564Y34501D02*
X252736Y34088D01*
X253150Y33918D01*
X251396Y34301D02*
X251840Y33205D01*
X251396Y55397D02*
X250813Y55982D01*
X252114Y56698D02*
X251028Y57148D01*
X231446Y32747D02*
X232532Y33199D01*
X232982Y34287D01*
X231228Y33930D02*
X231642Y34099D01*
X231642Y34099D02*
X231814Y34512D01*
X230581Y24581D02*
X229349Y25283D01*
X228206Y25609D02*
X227177Y25696D01*
X225130Y23454D02*
X224595Y22339D01*
X225686Y25502D02*
X225065Y25260D01*
X224606Y33344D02*
X224773Y32924D01*
X225189Y33930D02*
X224606Y33344D01*
X224773Y32924D02*
X225189Y32747D01*
X223409Y23323D02*
X223202Y22596D01*
X223202Y22596D02*
X223078Y21773D01*
X215352Y25303D02*
X214312Y25621D01*
X213749Y24321D02*
X212494Y24115D01*
X208704Y24452D02*
X207525Y25200D01*
X205498Y24316D02*
X205209Y24307D01*
X203393Y23479D02*
X203279Y23301D01*
X203178Y23101D01*
X203178Y23101D02*
X203088Y22880D01*
X205144Y25696D02*
X203802Y25502D01*
X204021Y24015D02*
X203836Y23906D01*
X203802Y25502D02*
X203243Y25260D01*
X204937Y24282D02*
X204682Y24240D01*
X204444Y24182D01*
Y24182D02*
X204224Y24107D01*
X204224D02*
X204021Y24015D01*
X202820Y21453D02*
X202796Y20733D01*
X201567Y22596D02*
X201455Y21773D01*
X202945Y22373D02*
X202892Y22088D01*
X201753Y23323D02*
X201567Y22596D01*
X203011Y22637D02*
X202945Y22373D01*
X202892Y22088D02*
X202850Y21781D01*
X319472Y19173D02*
X319482Y19738D01*
X317143Y13001D02*
X317846Y13641D01*
X318406Y14409D01*
X317698Y16481D02*
X317885Y17343D01*
X318013Y18216D01*
X318081Y19095D01*
X318089Y19977D01*
X306392D02*
X306398Y19097D01*
X306464Y18220D01*
X306588Y17349D01*
X306771Y16489D01*
X304997Y19921D02*
X305026Y18758D01*
X305135Y17600D01*
X305327Y16453D01*
X293727Y14091D02*
X293796Y14963D01*
X293814Y15837D01*
X293354Y12847D02*
X293727Y14091D01*
X292297Y14403D02*
X292420Y15720D01*
X285530Y21575D02*
X284785Y22579D01*
X283851Y23454D02*
X282794Y24081D01*
X278442Y13904D02*
X278687Y14655D01*
X278763Y15441D01*
X276432Y13731D02*
X277139Y14533D01*
X277368Y15577D01*
X274783Y13130D02*
X275061Y13176D01*
X275667Y23849D02*
X275450Y23948D01*
X275629Y55611D02*
X275179Y56698D01*
X274289Y55819D02*
X273875Y55990D01*
X271008Y24012D02*
X269893Y23161D01*
X269073Y24366D02*
X268534Y23637D01*
X268181Y22802D01*
X268181D02*
X267966Y21777D01*
X267902Y20733D01*
X269408Y21881D02*
X269328Y21076D01*
X269305Y20267D01*
X256927Y56739D02*
X257023Y55921D01*
X245939Y14487D02*
X246497Y15324D01*
X246873Y16258D01*
Y21170D02*
X246498Y22095D01*
X245939Y22922D01*
X238361Y16258D02*
X238742Y15325D01*
X239303Y14487D01*
X239303Y22922D02*
X238741Y22095D01*
X238361Y21170D01*
X232264Y56698D02*
X231814Y55611D01*
X226100Y24107D02*
X225130Y23454D01*
X223078Y21773D02*
X223036Y20853D01*
X217819Y23376D02*
X217196Y24024D01*
X216512Y24606D01*
X212494Y24115D02*
X211657Y23479D01*
X211214Y22364D02*
X211112Y21551D01*
X211086Y20733D01*
X203836Y23906D02*
X203393Y23479D01*
X202013Y23952D02*
X201753Y23323D01*
X201455Y21773D02*
X201419Y20853D01*
X202850Y21781D02*
X202820Y21453D01*
X319117Y16127D02*
X319316Y17064D01*
X319421Y18017D01*
X316555Y14376D02*
X317260Y15356D01*
X317698Y16481D01*
X306771Y16489D02*
X307199Y15368D01*
X307886Y14384D01*
X277368Y15577D02*
X277200Y16565D01*
X276683Y17423D01*
X275888Y18034D01*
X211139Y25096D02*
X210312Y24292D01*
X209803Y23256D01*
X248131Y15742D02*
X248368Y16715D01*
X248511Y17707D01*
X248559Y18709D01*
X248511Y19710D01*
X248368Y20701D01*
X248131Y21675D01*
X246873Y16258D02*
X247083Y17229D01*
X247189Y18217D01*
X247189Y19211D01*
X247083Y20199D01*
X246873Y21170D01*
X238361Y21170D02*
X238143Y20200D01*
X238034Y19211D01*
Y18217D01*
X238143Y17228D01*
X238361Y16258D01*
X237036Y21650D02*
X236802Y20682D01*
X236661Y19695D01*
X236614Y18700D01*
X236661Y17705D01*
X236802Y16719D01*
X237036Y15750D01*
X315141Y12047D02*
X316185Y12433D01*
X317143Y13001D01*
X312241Y11696D02*
X313218Y11722D01*
X314187Y11840D01*
X315141Y12047D01*
X314717Y13344D02*
X315707Y13733D01*
X316555Y14376D01*
X307886Y14384D02*
X308730Y13732D01*
X309724Y13344D01*
X292517Y12100D02*
X293354Y12847D01*
X290532Y13227D02*
X291338Y13305D01*
X291856Y32747D02*
X292943Y33199D01*
X293393Y34287D01*
X293221Y56862D02*
X292807Y57033D01*
X284785Y22579D02*
X283851Y23454D01*
X283246Y25303D02*
X282198Y25621D01*
X282794Y24081D02*
X281648Y24321D01*
X274605Y11696D02*
X275439Y11759D01*
X276250Y11961D01*
X270691Y12736D02*
X272015Y12100D01*
X273306Y11782D02*
X274605Y11696D01*
X271234Y13843D02*
X272492Y13285D01*
X275809Y13394D02*
X276432Y13731D01*
X272536Y18858D02*
X271391Y18892D01*
X274023Y18678D02*
X273558Y18755D01*
X275888Y18034D02*
X275576Y18197D01*
X273729Y20064D02*
X273080Y20153D01*
X271664Y20254D02*
X270897Y20267D01*
X269893Y23161D02*
X269408Y21881D01*
X275866Y23739D02*
X275667Y23849D01*
X270668Y25353D02*
X269812Y24955D01*
X269073Y24366D01*
X273049Y25696D02*
X271845Y25624D01*
X270668Y25353D01*
X273036Y24321D02*
X272007Y24264D01*
X271008Y24012D01*
X274012Y25660D02*
X273543Y25687D01*
X273752Y24298D02*
X273036Y24321D01*
X275980Y25248D02*
X275637Y25367D01*
X251840Y33205D02*
X252929Y32747D01*
X244492Y13422D02*
X245280Y13868D01*
X245939Y14487D01*
X239303Y14487D02*
X239963Y13868D01*
X240750Y13422D01*
X242613Y25696D02*
X241767Y25650D01*
X240934Y25490D01*
X240131Y25219D01*
X231878Y21762D02*
X231231Y22457D01*
X230521Y23089D01*
X229756Y23652D01*
X227564Y24321D02*
X226100Y24107D01*
X227177Y25696D02*
X226425Y25652D01*
X225686Y25502D01*
X229349Y25283D02*
X228206Y25609D01*
X233565Y55982D02*
X232982Y55397D01*
X233350Y57148D02*
X232264Y56698D01*
X211657Y23479D02*
X211214Y22364D01*
X213369Y25696D02*
X212209Y25562D01*
X211139Y25096D01*
X214312Y25621D02*
X213369Y25696D01*
X216512Y24606D02*
X215352Y25303D01*
X203088Y22880D02*
X203011Y22637D01*
X206321Y25584D02*
X205144Y25696D01*
X203243Y25260D02*
X202529Y24699D01*
X202013Y23952D01*
X205209Y24307D02*
X204937Y24282D01*
X207525Y25200D02*
X206321Y25584D01*
X312233Y13065D02*
X313068Y13090D01*
X313898Y13183D01*
X314717Y13344D01*
X318406Y14409D02*
X318819Y15244D01*
X319117Y16127D01*
X306470Y13865D02*
X307109Y13195D01*
X307859Y12652D01*
X308695Y12254D01*
X277567Y12717D02*
X278442Y13904D01*
X278011Y23325D02*
X277714Y23887D01*
X269297Y13757D02*
X269970Y13214D01*
X270691Y12736D01*
X272492Y13285D02*
X273869Y13071D01*
X269297Y15424D02*
X270152Y14607D01*
X275932Y19453D02*
X275440Y19644D01*
X252564Y55611D02*
X252114Y56698D01*
X258743Y55990D02*
X258604Y55907D01*
X245039Y12167D02*
X246058Y12740D01*
X246918Y13533D01*
X247419Y14214D01*
X247825Y14954D01*
X248131Y15742D01*
X245939Y22922D02*
X245277Y23530D01*
X244492Y23970D01*
X248131Y21675D02*
X247830Y22458D01*
X247426Y23193D01*
X246926Y23867D01*
X240750Y13422D02*
X241664Y13153D01*
X242613Y13071D01*
X238238Y13542D02*
X239104Y12746D01*
X240128Y12167D01*
X237036Y15750D02*
X237337Y14963D01*
X237740Y14222D01*
X238238Y13542D01*
X238244Y23844D02*
X237743Y23170D01*
X237338Y22434D01*
X237036Y21650D01*
X240750Y23970D02*
X239965Y23530D01*
X239303Y22922D01*
X231870Y23376D02*
X231257Y24012D01*
X230581Y24581D01*
X229756Y23652D02*
X228709Y24147D01*
X227564Y24321D01*
X224595Y22339D02*
X224466Y21541D01*
X224430Y20733D01*
X215828Y23644D02*
X214841Y24143D01*
X213749Y24321D01*
X209803Y23256D02*
X209293Y23890D01*
X208704Y24452D01*
X207656Y23638D02*
X206627Y24136D01*
X205498Y24316D01*
X305327Y16453D02*
X305576Y15536D01*
X305960Y14667D01*
X306470Y13865D01*
X246926Y23867D02*
X246061Y24658D01*
X245039Y25233D01*
X240131Y25219D02*
X239108Y24641D01*
X238243Y23844D01*
X225065Y25260D02*
X224349Y24767D01*
X223785Y24106D01*
X223409Y23323D01*
X308695Y12254D02*
X309558Y11991D01*
X310442Y11810D01*
X311339Y11711D01*
X312241Y11696D01*
X240128Y12167D02*
X241088Y11870D01*
X242081Y11719D01*
X243086D01*
X244079Y11870D01*
X245039Y12167D01*
X244492Y23970D02*
X243573Y24233D01*
X242621Y24321D01*
X241669Y24233D01*
X240750Y23970D01*
X245039Y25233D02*
X243849Y25586D01*
X242613Y25696D01*
X309724Y13344D02*
X310552Y13184D01*
X311390Y13091D01*
X312233Y13065D01*
X285530Y23516D02*
X284977Y24106D01*
X284362Y24631D01*
X242613Y13071D02*
X243570Y13152D01*
X244492Y13422D01*
X209692Y21723D02*
X209083Y22433D01*
X208402Y23074D01*
X207656Y23638D01*
X217819Y21728D02*
X217217Y22429D01*
X216552Y23069D01*
X215828Y23644D01*
X278763Y15441D02*
X278650Y16496D01*
X278263Y17486D01*
X277631Y18339D01*
X276797Y18996D01*
X319421Y18017D02*
X319452Y18600D01*
X319482Y19738D02*
X319483Y19924D01*
X295529Y23978D02*
Y25353D01*
X291011Y11849D02*
X291070Y11849D01*
X290953Y11850D02*
X291011Y11849D01*
X290894Y11850D02*
X290953Y11850D01*
X290776Y11852D02*
X290835Y11851D01*
X290717Y11854D02*
X290776Y11852D01*
X290658Y11856D02*
X290717Y11854D01*
X290423Y11870D02*
X290482Y11866D01*
X290305Y11879D02*
X290423Y11870D01*
X290188Y11889D02*
X290305Y11879D01*
X290070Y11900D02*
X290188Y11889D01*
X289893Y11919D02*
X290070Y11900D01*
X290023Y13230D02*
X290055Y13229D01*
X290086Y13228D01*
X290117Y13227D01*
X290146Y13227D01*
X290203Y13227D01*
X290532D01*
X290220Y23981D02*
Y25356D01*
X281021Y25696D02*
X281280D01*
X280728Y24288D02*
X280742Y25671D01*
X281021Y25696D01*
X281144Y24321D02*
X281648D01*
X267902Y12039D02*
X269297D01*
X223036D02*
X224430D01*
X209692Y12033D02*
X211086D01*
X201402Y12039D02*
X202796D01*
X293814Y25353D02*
Y28844D01*
X292420Y25356D02*
Y28844D01*
X289891Y13243D02*
X289893Y11919D01*
X269297Y12039D02*
Y13757D01*
X265315Y12039D02*
Y13860D01*
X264188Y29474D02*
Y30851D01*
X250727Y12039D02*
Y13414D01*
X251083Y29011D02*
Y30851D01*
X285530Y23516D02*
Y25353D01*
X269297Y15424D02*
Y18892D01*
X231870Y23376D02*
X231878Y30851D01*
X217819Y23376D02*
Y25353D01*
X319483Y19924D02*
Y30851D01*
X318089Y19977D02*
Y30851D01*
X306392Y19977D02*
Y30851D01*
X304997Y19921D02*
Y30851D01*
X300157Y12039D02*
Y30851D01*
X298763Y12039D02*
Y30851D01*
X293393Y34287D02*
Y56448D01*
X293814Y15837D02*
Y23978D01*
X292224Y34515D02*
Y56448D01*
X292420Y15720D02*
Y23981D01*
X286924Y12039D02*
Y25353D01*
X285530Y12039D02*
Y21575D01*
X274460Y40382D02*
Y55405D01*
X275629Y40382D02*
Y55611D01*
X267902Y12039D02*
Y20733D01*
X252564Y34501D02*
Y55611D01*
X251396Y34301D02*
Y55397D01*
X233272Y12039D02*
Y30851D01*
X231814Y34512D02*
Y55611D01*
X232982Y34287D02*
Y55397D01*
X231878Y12039D02*
Y21762D01*
X223036Y12039D02*
Y20853D01*
X224430Y12039D02*
Y20733D01*
X219214Y12039D02*
Y25353D01*
X217819Y12039D02*
Y21728D01*
X209692Y12033D02*
Y21723D01*
X211086Y12033D02*
Y20733D01*
X201402Y12039D02*
X201419Y20853D01*
X202796Y12039D02*
Y20733D01*
X318089Y30851D02*
X319483D01*
X304997D02*
X306392D01*
X298763Y12039D02*
X300157D01*
X298763Y30851D02*
X300157D01*
X285530Y12039D02*
X286924D01*
X290835Y11851D02*
X290894Y11850D01*
X290220Y25356D02*
X292420D01*
X290220Y23981D02*
X292420D01*
X285530Y25353D02*
X286924D01*
X292420Y28844D02*
X293814D01*
X276981Y21968D02*
X278350D01*
X269297Y18892D02*
X271391D01*
X269305Y20267D02*
X270897D01*
X231878Y12039D02*
X233272D01*
X231878Y30851D02*
X233272D01*
X217819Y12039D02*
X219214D01*
X217819Y25353D02*
X219214D01*
X293814D02*
X295529D01*
X293814Y23978D02*
X295529D01*
X274789Y33933D02*
X291639D01*
X274789Y32747D02*
X291856D01*
X250727Y13414D02*
X263910D01*
X233565Y55982D02*
X250813D01*
X233350Y57148D02*
X251028D01*
X251083Y29011D02*
X263910Y13414D01*
X250727Y12039D02*
X265315D01*
X252511Y29474D02*
X264188D01*
X251083Y30851D02*
X264188D01*
X253150Y33918D02*
X267810D01*
X252929Y32747D02*
X267810D01*
X225189Y33930D02*
X231228D01*
X225189Y32747D02*
X231446D01*
X257642Y57148D02*
X274092D01*
X258743Y55990D02*
X273875D01*
X257023Y55921D02*
X273733Y33305D01*
X258617Y55745D02*
X274667Y33997D01*
X252511Y29474D02*
X265315Y13860D01*
M02*
