G04*
G04 #@! TF.GenerationSoftware,Altium Limited,Altium Designer,24.10.1 (45)*
G04*
G04 Layer_Physical_Order=2*
G04 Layer_Color=36540*
%FSLAX25Y25*%
%MOIN*%
G70*
G04*
G04 #@! TF.SameCoordinates,0BDD1144-D272-426E-A156-C709E6277962*
G04*
G04*
G04 #@! TF.FilePolarity,Positive*
G04*
G01*
G75*
%ADD67O,0.10000X0.07500*%
%ADD86O,0.05100X0.09100*%
%ADD87R,0.11811X0.11811*%
%ADD88C,0.11811*%
%ADD90C,0.04193*%
%ADD91C,0.09055*%
%ADD93C,0.07087*%
%ADD94C,0.02362*%
%ADD95C,0.01968*%
%ADD96C,0.02000*%
G36*
X377770Y215354D02*
X330526D01*
Y357874D01*
X377770D01*
Y215354D01*
D02*
G37*
G36*
X267595D02*
X220351D01*
Y357874D01*
X267595D01*
Y215354D01*
D02*
G37*
G36*
X157420D02*
X110176D01*
Y357874D01*
X157420D01*
Y215354D01*
D02*
G37*
G36*
X47244D02*
X1020D01*
Y357874D01*
X47244D01*
Y215354D01*
D02*
G37*
G36*
X432051Y215354D02*
X387661D01*
X387661Y215354D01*
Y357874D01*
X432051D01*
X432051Y215354D01*
D02*
G37*
G36*
X320636Y215354D02*
X320636Y215354D01*
X277485D01*
X277485Y215354D01*
Y357874D01*
X320636D01*
Y215354D01*
D02*
G37*
G36*
X210461D02*
X210461Y215354D01*
X167310D01*
X167310Y215354D01*
Y357874D01*
X210461D01*
Y215354D01*
D02*
G37*
G36*
X100285D02*
X100285Y215354D01*
X57134D01*
X57134Y215354D01*
Y357874D01*
X100285D01*
Y215354D01*
D02*
G37*
G36*
X432051Y1020D02*
X1020D01*
Y10175D01*
X1519Y10224D01*
X1673Y9452D01*
X2283Y7981D01*
X3167Y6656D01*
X4294Y5530D01*
X5618Y4645D01*
X7090Y4035D01*
X8652Y3724D01*
X10245D01*
X11808Y4035D01*
X13279Y4645D01*
X14604Y5530D01*
X15730Y6656D01*
X16615Y7981D01*
X17225Y9452D01*
X17535Y11015D01*
Y12607D01*
X17225Y14170D01*
X16615Y15642D01*
X15730Y16966D01*
X14604Y18092D01*
X13279Y18977D01*
X11808Y19587D01*
X10245Y19898D01*
X8652D01*
X7090Y19587D01*
X5618Y18977D01*
X4294Y18092D01*
X3167Y16966D01*
X2283Y15642D01*
X1673Y14170D01*
X1519Y13398D01*
X1020Y13448D01*
Y201181D01*
X432051D01*
X432051Y1020D01*
D02*
G37*
%LPC*%
G36*
X68583Y200463D02*
X67656Y200341D01*
X66792Y199983D01*
X66051Y199414D01*
X65482Y198672D01*
X65124Y197809D01*
X65086Y197518D01*
X64582D01*
X64543Y197809D01*
X64186Y198672D01*
X63617Y199414D01*
X62875Y199983D01*
X62011Y200341D01*
X61085Y200463D01*
X60158Y200341D01*
X59294Y199983D01*
X58553Y199414D01*
X57984Y198672D01*
X57626Y197809D01*
X57587Y197511D01*
X57082D01*
X57043Y197809D01*
X56686Y198672D01*
X56600Y198784D01*
X55770Y197954D01*
X54657Y199068D01*
X55486Y199897D01*
X55375Y199983D01*
X54511Y200341D01*
X53585Y200463D01*
X52658Y200341D01*
X51794Y199983D01*
X51683Y199897D01*
X52513Y199068D01*
X51399Y197954D01*
X50569Y198784D01*
X50484Y198672D01*
X50126Y197809D01*
X50088Y197518D01*
X49583D01*
X49545Y197809D01*
X49187Y198672D01*
X48619Y199414D01*
X47877Y199983D01*
X47013Y200341D01*
X46087Y200463D01*
X45160Y200341D01*
X44296Y199983D01*
X43555Y199414D01*
X42986Y198672D01*
X42628Y197809D01*
X42506Y196882D01*
Y192882D01*
X42628Y191955D01*
X42986Y191092D01*
X43555Y190350D01*
X44296Y189781D01*
X45160Y189423D01*
X46087Y189301D01*
X47013Y189423D01*
X47877Y189781D01*
X48619Y190350D01*
X49187Y191092D01*
X49545Y191955D01*
X49583Y192246D01*
X50088D01*
X50126Y191955D01*
X50484Y191092D01*
X50569Y190980D01*
X51399Y191810D01*
X52513Y190696D01*
X51683Y189866D01*
X51794Y189781D01*
X52658Y189423D01*
X53585Y189301D01*
X54511Y189423D01*
X55375Y189781D01*
X55486Y189866D01*
X54657Y190696D01*
X55770Y191810D01*
X56600Y190980D01*
X56686Y191092D01*
X57043Y191955D01*
X57082Y192253D01*
X57587D01*
X57626Y191955D01*
X57984Y191092D01*
X58553Y190350D01*
X59294Y189781D01*
X60158Y189423D01*
X61085Y189301D01*
X62011Y189423D01*
X62875Y189781D01*
X63617Y190350D01*
X64186Y191092D01*
X64543Y191955D01*
X64582Y192246D01*
X65086D01*
X65124Y191955D01*
X65482Y191092D01*
X66051Y190350D01*
X66792Y189781D01*
X67656Y189423D01*
X68583Y189301D01*
X69509Y189423D01*
X70373Y189781D01*
X71114Y190350D01*
X71684Y191092D01*
X72041Y191955D01*
X72163Y192882D01*
Y196882D01*
X72041Y197809D01*
X71684Y198672D01*
X71114Y199414D01*
X70373Y199983D01*
X69509Y200341D01*
X68583Y200463D01*
D02*
G37*
G36*
X387311D02*
X386384Y200341D01*
X385521Y199983D01*
X384779Y199414D01*
X384210Y198672D01*
X383852Y197809D01*
X383814Y197518D01*
X383310D01*
X383272Y197809D01*
X382914Y198672D01*
X382345Y199414D01*
X381603Y199983D01*
X380740Y200341D01*
X379813Y200463D01*
X378886Y200341D01*
X378023Y199983D01*
X377281Y199414D01*
X376712Y198672D01*
X376354Y197809D01*
X376315Y197511D01*
X375811D01*
X375772Y197809D01*
X375414Y198672D01*
X375328Y198784D01*
X374499Y197954D01*
X373385Y199068D01*
X374215Y199897D01*
X374103Y199983D01*
X373240Y200341D01*
X372313Y200463D01*
X371386Y200341D01*
X370523Y199983D01*
X370411Y199897D01*
X371241Y199068D01*
X370127Y197954D01*
X369298Y198784D01*
X369212Y198672D01*
X368854Y197809D01*
X368816Y197518D01*
X368312D01*
X368273Y197809D01*
X367916Y198672D01*
X367347Y199414D01*
X366605Y199983D01*
X365742Y200341D01*
X364815Y200463D01*
X363888Y200341D01*
X363025Y199983D01*
X362283Y199414D01*
X361714Y198672D01*
X361356Y197809D01*
X361234Y196882D01*
Y192882D01*
X361356Y191955D01*
X361714Y191092D01*
X362283Y190350D01*
X363025Y189781D01*
X363888Y189423D01*
X364815Y189301D01*
X365742Y189423D01*
X366605Y189781D01*
X367347Y190350D01*
X367916Y191092D01*
X368273Y191955D01*
X368312Y192246D01*
X368816D01*
X368854Y191955D01*
X369212Y191092D01*
X369298Y190980D01*
X370127Y191810D01*
X371241Y190696D01*
X370411Y189866D01*
X370523Y189781D01*
X371386Y189423D01*
X372313Y189301D01*
X373240Y189423D01*
X374103Y189781D01*
X374215Y189866D01*
X373385Y190696D01*
X374499Y191810D01*
X375328Y190980D01*
X375414Y191092D01*
X375772Y191955D01*
X375811Y192253D01*
X376315D01*
X376354Y191955D01*
X376712Y191092D01*
X377281Y190350D01*
X378023Y189781D01*
X378886Y189423D01*
X379813Y189301D01*
X380740Y189423D01*
X381603Y189781D01*
X382345Y190350D01*
X382914Y191092D01*
X383272Y191955D01*
X383310Y192246D01*
X383814D01*
X383852Y191955D01*
X384210Y191092D01*
X384779Y190350D01*
X385521Y189781D01*
X386384Y189423D01*
X387311Y189301D01*
X388238Y189423D01*
X389101Y189781D01*
X389843Y190350D01*
X390412Y191092D01*
X390770Y191955D01*
X390892Y192882D01*
Y196882D01*
X390770Y197809D01*
X390412Y198672D01*
X389843Y199414D01*
X389101Y199983D01*
X388238Y200341D01*
X387311Y200463D01*
D02*
G37*
G36*
X281067D02*
X280140Y200341D01*
X279277Y199983D01*
X278535Y199414D01*
X277966Y198672D01*
X277608Y197809D01*
X277570Y197518D01*
X277066D01*
X277028Y197809D01*
X276670Y198672D01*
X276101Y199414D01*
X275359Y199983D01*
X274496Y200341D01*
X273569Y200463D01*
X272642Y200341D01*
X271778Y199983D01*
X271037Y199414D01*
X270468Y198672D01*
X270110Y197809D01*
X270071Y197511D01*
X269567D01*
X269528Y197809D01*
X269170Y198672D01*
X269084Y198784D01*
X268254Y197954D01*
X267141Y199068D01*
X267971Y199897D01*
X267859Y199983D01*
X266996Y200341D01*
X266069Y200463D01*
X265142Y200341D01*
X264279Y199983D01*
X264167Y199897D01*
X264997Y199068D01*
X263883Y197954D01*
X263053Y198784D01*
X262968Y198672D01*
X262610Y197809D01*
X262572Y197518D01*
X262068D01*
X262029Y197809D01*
X261672Y198672D01*
X261103Y199414D01*
X260361Y199983D01*
X259498Y200341D01*
X258571Y200463D01*
X257644Y200341D01*
X256781Y199983D01*
X256039Y199414D01*
X255470Y198672D01*
X255112Y197809D01*
X254990Y196882D01*
Y192882D01*
X255112Y191955D01*
X255470Y191092D01*
X256039Y190350D01*
X256781Y189781D01*
X257644Y189423D01*
X258571Y189301D01*
X259498Y189423D01*
X260361Y189781D01*
X261103Y190350D01*
X261672Y191092D01*
X262029Y191955D01*
X262068Y192246D01*
X262572D01*
X262610Y191955D01*
X262968Y191092D01*
X263053Y190980D01*
X263883Y191810D01*
X264997Y190696D01*
X264167Y189866D01*
X264279Y189781D01*
X265142Y189423D01*
X266069Y189301D01*
X266996Y189423D01*
X267859Y189781D01*
X267971Y189866D01*
X267141Y190696D01*
X268254Y191810D01*
X269084Y190980D01*
X269170Y191092D01*
X269528Y191955D01*
X269567Y192253D01*
X270071D01*
X270110Y191955D01*
X270468Y191092D01*
X271037Y190350D01*
X271778Y189781D01*
X272642Y189423D01*
X273569Y189301D01*
X274496Y189423D01*
X275359Y189781D01*
X276101Y190350D01*
X276670Y191092D01*
X277028Y191955D01*
X277066Y192246D01*
X277570D01*
X277608Y191955D01*
X277966Y191092D01*
X278535Y190350D01*
X279277Y189781D01*
X280140Y189423D01*
X281067Y189301D01*
X281994Y189423D01*
X282857Y189781D01*
X283599Y190350D01*
X284168Y191092D01*
X284525Y191955D01*
X284647Y192882D01*
Y196882D01*
X284525Y197809D01*
X284168Y198672D01*
X283599Y199414D01*
X282857Y199983D01*
X281994Y200341D01*
X281067Y200463D01*
D02*
G37*
G36*
X174827D02*
X173900Y200341D01*
X173036Y199983D01*
X172295Y199414D01*
X171726Y198672D01*
X171368Y197809D01*
X171330Y197518D01*
X170826D01*
X170787Y197809D01*
X170430Y198672D01*
X169861Y199414D01*
X169119Y199983D01*
X168255Y200341D01*
X167329Y200463D01*
X166402Y200341D01*
X165538Y199983D01*
X164797Y199414D01*
X164228Y198672D01*
X163870Y197809D01*
X163831Y197511D01*
X163327D01*
X163287Y197809D01*
X162930Y198672D01*
X162844Y198784D01*
X162014Y197954D01*
X160901Y199068D01*
X161731Y199897D01*
X161619Y199983D01*
X160755Y200341D01*
X159829Y200463D01*
X158902Y200341D01*
X158038Y199983D01*
X157927Y199897D01*
X158757Y199068D01*
X157643Y197954D01*
X156813Y198784D01*
X156728Y198672D01*
X156370Y197809D01*
X156332Y197518D01*
X155827D01*
X155789Y197809D01*
X155432Y198672D01*
X154863Y199414D01*
X154121Y199983D01*
X153257Y200341D01*
X152331Y200463D01*
X151404Y200341D01*
X150540Y199983D01*
X149799Y199414D01*
X149230Y198672D01*
X148872Y197809D01*
X148750Y196882D01*
Y192882D01*
X148872Y191955D01*
X149230Y191092D01*
X149799Y190350D01*
X150540Y189781D01*
X151404Y189423D01*
X152331Y189301D01*
X153257Y189423D01*
X154121Y189781D01*
X154863Y190350D01*
X155432Y191092D01*
X155789Y191955D01*
X155827Y192246D01*
X156332D01*
X156370Y191955D01*
X156728Y191092D01*
X156813Y190980D01*
X157643Y191810D01*
X158757Y190696D01*
X157927Y189866D01*
X158038Y189781D01*
X158902Y189423D01*
X159829Y189301D01*
X160755Y189423D01*
X161619Y189781D01*
X161731Y189866D01*
X160901Y190696D01*
X162014Y191810D01*
X162844Y190980D01*
X162930Y191092D01*
X163287Y191955D01*
X163327Y192253D01*
X163831D01*
X163870Y191955D01*
X164228Y191092D01*
X164797Y190350D01*
X165538Y189781D01*
X166402Y189423D01*
X167329Y189301D01*
X168255Y189423D01*
X169119Y189781D01*
X169861Y190350D01*
X170430Y191092D01*
X170787Y191955D01*
X170826Y192246D01*
X171330D01*
X171368Y191955D01*
X171726Y191092D01*
X172295Y190350D01*
X173036Y189781D01*
X173900Y189423D01*
X174827Y189301D01*
X175753Y189423D01*
X176617Y189781D01*
X177359Y190350D01*
X177928Y191092D01*
X178285Y191955D01*
X178407Y192882D01*
Y196882D01*
X178285Y197809D01*
X177928Y198672D01*
X177359Y199414D01*
X176617Y199983D01*
X175753Y200341D01*
X174827Y200463D01*
D02*
G37*
G36*
X273499Y187380D02*
X272632D01*
X271830Y187048D01*
X271217Y186434D01*
X270884Y185633D01*
Y184765D01*
X271217Y183964D01*
X271830Y183350D01*
X272632Y183018D01*
X273499D01*
X274301Y183350D01*
X274915Y183964D01*
X275247Y184765D01*
Y185633D01*
X274915Y186434D01*
X274301Y187048D01*
X273499Y187380D01*
D02*
G37*
G36*
X379744Y187380D02*
X378876D01*
X378074Y187048D01*
X377461Y186434D01*
X377129Y185633D01*
Y184765D01*
X377461Y183963D01*
X378074Y183350D01*
X378876Y183018D01*
X379744D01*
X380545Y183350D01*
X381159Y183963D01*
X381491Y184765D01*
Y185633D01*
X381159Y186434D01*
X380545Y187048D01*
X379744Y187380D01*
D02*
G37*
G36*
X167259Y187294D02*
X166392D01*
X165590Y186961D01*
X164976Y186348D01*
X164644Y185546D01*
Y184678D01*
X164976Y183877D01*
X165590Y183263D01*
X166392Y182931D01*
X167259D01*
X168061Y183263D01*
X168675Y183877D01*
X169007Y184678D01*
Y185546D01*
X168675Y186348D01*
X168061Y186961D01*
X167259Y187294D01*
D02*
G37*
G36*
X61015Y186927D02*
X60148D01*
X59346Y186595D01*
X58732Y185982D01*
X58400Y185180D01*
Y184312D01*
X58732Y183511D01*
X59346Y182897D01*
X60148Y182565D01*
X61015D01*
X61817Y182897D01*
X62430Y183511D01*
X62762Y184312D01*
Y185180D01*
X62430Y185982D01*
X61817Y186595D01*
X61015Y186927D01*
D02*
G37*
G36*
X259021Y170531D02*
X258154D01*
X257352Y170199D01*
X256738Y169586D01*
X256406Y168784D01*
Y167917D01*
X256738Y167115D01*
X257352Y166501D01*
X258154Y166169D01*
X259021D01*
X259823Y166501D01*
X260436Y167115D01*
X260769Y167917D01*
Y168784D01*
X260436Y169586D01*
X259823Y170199D01*
X259021Y170531D01*
D02*
G37*
G36*
X365265Y170531D02*
X364398D01*
X363596Y170199D01*
X362982Y169586D01*
X362650Y168784D01*
Y167917D01*
X362982Y167115D01*
X363596Y166501D01*
X364398Y166169D01*
X365265D01*
X366067Y166501D01*
X366681Y167115D01*
X367013Y167917D01*
Y168784D01*
X366681Y169586D01*
X366067Y170199D01*
X365265Y170531D01*
D02*
G37*
G36*
X152781Y170445D02*
X151913D01*
X151112Y170113D01*
X150498Y169499D01*
X150166Y168698D01*
Y167830D01*
X150498Y167028D01*
X151112Y166415D01*
X151913Y166083D01*
X152781D01*
X153583Y166415D01*
X154196Y167028D01*
X154528Y167830D01*
Y168698D01*
X154196Y169499D01*
X153583Y170113D01*
X152781Y170445D01*
D02*
G37*
G36*
X46537Y170079D02*
X45669D01*
X44868Y169747D01*
X44254Y169133D01*
X43922Y168332D01*
Y167464D01*
X44254Y166662D01*
X44868Y166049D01*
X45669Y165717D01*
X46537D01*
X47339Y166049D01*
X47952Y166662D01*
X48284Y167464D01*
Y168332D01*
X47952Y169133D01*
X47339Y169747D01*
X46537Y170079D01*
D02*
G37*
G36*
X278048Y164779D02*
X277180D01*
X276379Y164447D01*
X275765Y163834D01*
X275433Y163032D01*
Y162165D01*
X275765Y161363D01*
X276379Y160749D01*
X277180Y160417D01*
X278048D01*
X278850Y160749D01*
X279463Y161363D01*
X279795Y162165D01*
Y163032D01*
X279463Y163834D01*
X278850Y164447D01*
X278048Y164779D01*
D02*
G37*
G36*
X384292Y164779D02*
X383424D01*
X382623Y164447D01*
X382009Y163834D01*
X381677Y163032D01*
Y162165D01*
X382009Y161363D01*
X382623Y160749D01*
X383424Y160417D01*
X384292D01*
X385094Y160749D01*
X385707Y161363D01*
X386039Y162165D01*
Y163032D01*
X385707Y163834D01*
X385094Y164447D01*
X384292Y164779D01*
D02*
G37*
G36*
X171808Y164693D02*
X170940D01*
X170139Y164361D01*
X169525Y163747D01*
X169193Y162946D01*
Y162078D01*
X169525Y161276D01*
X170139Y160663D01*
X170940Y160331D01*
X171808D01*
X172609Y160663D01*
X173223Y161276D01*
X173555Y162078D01*
Y162946D01*
X173223Y163747D01*
X172609Y164361D01*
X171808Y164693D01*
D02*
G37*
G36*
X65564Y164327D02*
X64696D01*
X63894Y163995D01*
X63281Y163381D01*
X62949Y162580D01*
Y161712D01*
X63281Y160910D01*
X63894Y160297D01*
X64696Y159965D01*
X65564D01*
X66365Y160297D01*
X66979Y160910D01*
X67311Y161712D01*
Y162580D01*
X66979Y163381D01*
X66365Y163995D01*
X65564Y164327D01*
D02*
G37*
G36*
X264548Y142760D02*
X263680D01*
X262879Y142428D01*
X262265Y141814D01*
X261933Y141013D01*
Y140145D01*
X262265Y139343D01*
X262879Y138730D01*
X263680Y138398D01*
X264548D01*
X265350Y138730D01*
X265963Y139343D01*
X266295Y140145D01*
Y141013D01*
X265963Y141814D01*
X265350Y142428D01*
X264548Y142760D01*
D02*
G37*
G36*
X370792Y142760D02*
X369924D01*
X369123Y142428D01*
X368509Y141814D01*
X368177Y141013D01*
Y140145D01*
X368509Y139343D01*
X369123Y138730D01*
X369924Y138398D01*
X370792D01*
X371594Y138730D01*
X372207Y139343D01*
X372539Y140145D01*
Y141013D01*
X372207Y141814D01*
X371594Y142428D01*
X370792Y142760D01*
D02*
G37*
G36*
X158308Y142673D02*
X157440D01*
X156639Y142341D01*
X156025Y141728D01*
X155693Y140926D01*
Y140058D01*
X156025Y139257D01*
X156639Y138643D01*
X157440Y138311D01*
X158308D01*
X159109Y138643D01*
X159723Y139257D01*
X160055Y140058D01*
Y140926D01*
X159723Y141728D01*
X159109Y142341D01*
X158308Y142673D01*
D02*
G37*
G36*
X273603Y142366D02*
X272735D01*
X271934Y142034D01*
X271320Y141421D01*
X270988Y140619D01*
Y139751D01*
X271320Y138950D01*
X271934Y138336D01*
X272735Y138004D01*
X273603D01*
X274405Y138336D01*
X275018Y138950D01*
X275350Y139751D01*
Y140619D01*
X275018Y141421D01*
X274405Y142034D01*
X273603Y142366D01*
D02*
G37*
G36*
X379847Y142366D02*
X378979D01*
X378178Y142034D01*
X377564Y141421D01*
X377232Y140619D01*
Y139751D01*
X377564Y138950D01*
X378178Y138336D01*
X378979Y138004D01*
X379847D01*
X380649Y138336D01*
X381262Y138950D01*
X381594Y139751D01*
Y140619D01*
X381262Y141421D01*
X380649Y142034D01*
X379847Y142366D01*
D02*
G37*
G36*
X52064Y142307D02*
X51196D01*
X50394Y141975D01*
X49781Y141361D01*
X49449Y140560D01*
Y139692D01*
X49781Y138891D01*
X50394Y138277D01*
X51196Y137945D01*
X52064D01*
X52865Y138277D01*
X53479Y138891D01*
X53811Y139692D01*
Y140560D01*
X53479Y141361D01*
X52865Y141975D01*
X52064Y142307D01*
D02*
G37*
G36*
X167363Y142280D02*
X166495D01*
X165694Y141947D01*
X165080Y141334D01*
X164748Y140532D01*
Y139665D01*
X165080Y138863D01*
X165694Y138249D01*
X166495Y137917D01*
X167363D01*
X168165Y138249D01*
X168778Y138863D01*
X169110Y139665D01*
Y140532D01*
X168778Y141334D01*
X168165Y141947D01*
X167363Y142280D01*
D02*
G37*
G36*
X61119Y141913D02*
X60251D01*
X59449Y141581D01*
X58836Y140968D01*
X58504Y140166D01*
Y139298D01*
X58836Y138497D01*
X59449Y137883D01*
X60251Y137551D01*
X61119D01*
X61920Y137883D01*
X62534Y138497D01*
X62866Y139298D01*
Y140166D01*
X62534Y140968D01*
X61920Y141581D01*
X61119Y141913D01*
D02*
G37*
G36*
X289296Y129799D02*
X288428D01*
X287627Y129467D01*
X287013Y128854D01*
X286681Y128052D01*
Y127184D01*
X287013Y126383D01*
X287627Y125769D01*
X288428Y125437D01*
X289296D01*
X290098Y125769D01*
X290711Y126383D01*
X291043Y127184D01*
Y128052D01*
X290711Y128854D01*
X290098Y129467D01*
X289296Y129799D01*
D02*
G37*
G36*
X395540Y129799D02*
X394672D01*
X393871Y129467D01*
X393257Y128854D01*
X392925Y128052D01*
Y127184D01*
X393257Y126383D01*
X393871Y125769D01*
X394672Y125437D01*
X395540D01*
X396342Y125769D01*
X396955Y126383D01*
X397287Y127184D01*
Y128052D01*
X396955Y128854D01*
X396342Y129467D01*
X395540Y129799D01*
D02*
G37*
G36*
X183056Y129713D02*
X182188D01*
X181387Y129381D01*
X180773Y128767D01*
X180441Y127965D01*
Y127098D01*
X180773Y126296D01*
X181387Y125682D01*
X182188Y125350D01*
X183056D01*
X183858Y125682D01*
X184471Y126296D01*
X184803Y127098D01*
Y127965D01*
X184471Y128767D01*
X183858Y129381D01*
X183056Y129713D01*
D02*
G37*
G36*
X76812Y129347D02*
X75944D01*
X75143Y129014D01*
X74529Y128401D01*
X74197Y127599D01*
Y126732D01*
X74529Y125930D01*
X75143Y125316D01*
X75944Y124984D01*
X76812D01*
X77613Y125316D01*
X78227Y125930D01*
X78559Y126732D01*
Y127599D01*
X78227Y128401D01*
X77613Y129014D01*
X76812Y129347D01*
D02*
G37*
G36*
X361064Y128165D02*
X360196D01*
X359394Y127833D01*
X358781Y127220D01*
X358449Y126418D01*
Y125550D01*
X358781Y124749D01*
X359394Y124135D01*
X360196Y123803D01*
X361064D01*
X361865Y124135D01*
X362479Y124749D01*
X362811Y125550D01*
Y126418D01*
X362479Y127220D01*
X361865Y127833D01*
X361064Y128165D01*
D02*
G37*
G36*
X253796Y128126D02*
X252928D01*
X252127Y127794D01*
X251513Y127180D01*
X251181Y126379D01*
Y125511D01*
X251513Y124709D01*
X252127Y124096D01*
X252928Y123764D01*
X253796D01*
X254598Y124096D01*
X255211Y124709D01*
X255543Y125511D01*
Y126379D01*
X255211Y127180D01*
X254598Y127794D01*
X253796Y128126D01*
D02*
G37*
G36*
X41379Y127772D02*
X40511D01*
X39709Y127440D01*
X39096Y126826D01*
X38764Y126024D01*
Y125157D01*
X39096Y124355D01*
X39709Y123741D01*
X40511Y123409D01*
X41379D01*
X42180Y123741D01*
X42794Y124355D01*
X43126Y125157D01*
Y126024D01*
X42794Y126826D01*
X42180Y127440D01*
X41379Y127772D01*
D02*
G37*
G36*
X147194Y127195D02*
X146326D01*
X145524Y126863D01*
X144911Y126249D01*
X144579Y125447D01*
Y124580D01*
X144911Y123778D01*
X145524Y123164D01*
X146326Y122832D01*
X147194D01*
X147995Y123164D01*
X148609Y123778D01*
X148941Y124580D01*
Y125447D01*
X148609Y126249D01*
X147995Y126863D01*
X147194Y127195D01*
D02*
G37*
G36*
X300670Y127831D02*
X299889D01*
X299134Y127628D01*
X298457Y127238D01*
X297904Y126685D01*
X297513Y126008D01*
X297311Y125253D01*
Y124471D01*
X297513Y123716D01*
X297904Y123039D01*
X298457Y122487D01*
X299134Y122096D01*
X299889Y121894D01*
X300670D01*
X301425Y122096D01*
X302102Y122487D01*
X302655Y123039D01*
X303046Y123716D01*
X303248Y124471D01*
Y125253D01*
X303046Y126008D01*
X302655Y126685D01*
X302102Y127238D01*
X301425Y127628D01*
X300670Y127831D01*
D02*
G37*
G36*
X406914Y127831D02*
X406133D01*
X405378Y127628D01*
X404701Y127238D01*
X404148Y126685D01*
X403757Y126008D01*
X403555Y125253D01*
Y124471D01*
X403757Y123716D01*
X404148Y123039D01*
X404701Y122487D01*
X405378Y122096D01*
X406133Y121894D01*
X406914D01*
X407669Y122096D01*
X408346Y122487D01*
X408899Y123039D01*
X409290Y123716D01*
X409492Y124471D01*
Y125253D01*
X409290Y126008D01*
X408899Y126685D01*
X408346Y127238D01*
X407669Y127628D01*
X406914Y127831D01*
D02*
G37*
G36*
X194430Y127744D02*
X193649D01*
X192894Y127542D01*
X192217Y127151D01*
X191664Y126598D01*
X191273Y125921D01*
X191071Y125166D01*
Y124385D01*
X191273Y123630D01*
X191664Y122953D01*
X192217Y122400D01*
X192894Y122009D01*
X193649Y121807D01*
X194430D01*
X195185Y122009D01*
X195862Y122400D01*
X196415Y122953D01*
X196806Y123630D01*
X197008Y124385D01*
Y125166D01*
X196806Y125921D01*
X196415Y126598D01*
X195862Y127151D01*
X195185Y127542D01*
X194430Y127744D01*
D02*
G37*
G36*
X88186Y127378D02*
X87405D01*
X86650Y127176D01*
X85973Y126785D01*
X85420Y126232D01*
X85029Y125555D01*
X84827Y124800D01*
Y124019D01*
X85029Y123264D01*
X85420Y122587D01*
X85973Y122034D01*
X86650Y121643D01*
X87405Y121441D01*
X88186D01*
X88941Y121643D01*
X89618Y122034D01*
X90171Y122587D01*
X90561Y123264D01*
X90764Y124019D01*
Y124800D01*
X90561Y125555D01*
X90171Y126232D01*
X89618Y126785D01*
X88941Y127176D01*
X88186Y127378D01*
D02*
G37*
G36*
X248674Y122260D02*
X247893D01*
X247138Y122057D01*
X246461Y121667D01*
X245908Y121114D01*
X245517Y120437D01*
X245315Y119682D01*
Y118901D01*
X245517Y118146D01*
X245908Y117469D01*
X246461Y116916D01*
X247138Y116525D01*
X247893Y116323D01*
X248674D01*
X249429Y116525D01*
X250106Y116916D01*
X250659Y117469D01*
X251050Y118146D01*
X251252Y118901D01*
Y119682D01*
X251050Y120437D01*
X250659Y121114D01*
X250106Y121667D01*
X249429Y122057D01*
X248674Y122260D01*
D02*
G37*
G36*
X93347Y82496D02*
X92479D01*
X91678Y82164D01*
X91064Y81551D01*
X90732Y80749D01*
Y79881D01*
X91064Y79080D01*
X91678Y78466D01*
X92479Y78134D01*
X93347D01*
X94149Y78466D01*
X94762Y79080D01*
X95095Y79881D01*
Y80749D01*
X94762Y81551D01*
X94149Y82164D01*
X93347Y82496D01*
D02*
G37*
G36*
X127206Y81709D02*
X126338D01*
X125536Y81377D01*
X124923Y80763D01*
X124591Y79961D01*
Y79094D01*
X124923Y78292D01*
X125536Y77679D01*
X126338Y77346D01*
X127206D01*
X128007Y77679D01*
X128621Y78292D01*
X128953Y79094D01*
Y79961D01*
X128621Y80763D01*
X128007Y81377D01*
X127206Y81709D01*
D02*
G37*
G36*
X81930Y77772D02*
X81062D01*
X80261Y77440D01*
X79647Y76826D01*
X79315Y76024D01*
Y75157D01*
X79647Y74355D01*
X80261Y73742D01*
X81062Y73409D01*
X81930D01*
X82732Y73742D01*
X83345Y74355D01*
X83677Y75157D01*
Y76024D01*
X83345Y76826D01*
X82732Y77440D01*
X81930Y77772D01*
D02*
G37*
G36*
X195456Y78966D02*
X194588D01*
X193787Y78634D01*
X193173Y78020D01*
X192841Y77219D01*
Y76351D01*
X193173Y75549D01*
X193580Y75143D01*
X193731Y74816D01*
X193580Y74489D01*
X193173Y74083D01*
X192841Y73282D01*
Y72414D01*
X193173Y71612D01*
X193787Y70999D01*
X194588Y70666D01*
X194747D01*
X194813Y70166D01*
X194524Y70089D01*
X193847Y69698D01*
X193294Y69146D01*
X192903Y68469D01*
X192701Y67714D01*
Y66932D01*
X192903Y66177D01*
X193294Y65500D01*
X193847Y64947D01*
X194524Y64557D01*
X195279Y64354D01*
X196060D01*
X196815Y64557D01*
X197492Y64947D01*
X198045Y65500D01*
X198435Y66177D01*
X198638Y66932D01*
Y67714D01*
X198435Y68469D01*
X198045Y69146D01*
X197492Y69698D01*
X196815Y70089D01*
X196060Y70291D01*
X195857D01*
X195757Y70791D01*
X196258Y70999D01*
X196871Y71612D01*
X197203Y72414D01*
Y73282D01*
X196871Y74083D01*
X196465Y74489D01*
X196313Y74816D01*
X196465Y75143D01*
X196871Y75549D01*
X197203Y76351D01*
Y77219D01*
X196871Y78020D01*
X196258Y78634D01*
X195456Y78966D01*
D02*
G37*
G36*
X163426Y67142D02*
X162558D01*
X161757Y66810D01*
X161143Y66196D01*
X160811Y65395D01*
Y64527D01*
X161143Y63725D01*
X161757Y63112D01*
X162558Y62779D01*
X163426D01*
X164228Y63112D01*
X164841Y63725D01*
X165173Y64527D01*
Y65395D01*
X164841Y66196D01*
X164228Y66810D01*
X163426Y67142D01*
D02*
G37*
G36*
X118544Y66748D02*
X117676D01*
X116875Y66416D01*
X116261Y65802D01*
X115929Y65001D01*
Y64133D01*
X116261Y63331D01*
X116875Y62718D01*
X117676Y62386D01*
X118544D01*
X119346Y62718D01*
X119959Y63331D01*
X120291Y64133D01*
Y65001D01*
X119959Y65802D01*
X119346Y66416D01*
X118544Y66748D01*
D02*
G37*
G36*
X385199Y69860D02*
X384210D01*
X383255Y69604D01*
X382399Y69110D01*
X381699Y68410D01*
X381205Y67554D01*
X380949Y66599D01*
Y65610D01*
X381205Y64655D01*
X381699Y63798D01*
X382399Y63099D01*
X383255Y62604D01*
X384210Y62348D01*
X385199D01*
X386154Y62604D01*
X387011Y63099D01*
X387710Y63798D01*
X388205Y64655D01*
X388461Y65610D01*
Y66599D01*
X388205Y67554D01*
X387710Y68410D01*
X387011Y69110D01*
X386154Y69604D01*
X385199Y69860D01*
D02*
G37*
G36*
X375199D02*
X374210D01*
X373255Y69604D01*
X372398Y69110D01*
X371699Y68410D01*
X371205Y67554D01*
X370949Y66599D01*
Y65610D01*
X371205Y64655D01*
X371699Y63798D01*
X372398Y63099D01*
X373255Y62604D01*
X374210Y62348D01*
X375199D01*
X376154Y62604D01*
X377011Y63099D01*
X377710Y63798D01*
X378205Y64655D01*
X378461Y65610D01*
Y66599D01*
X378205Y67554D01*
X377710Y68410D01*
X377011Y69110D01*
X376154Y69604D01*
X375199Y69860D01*
D02*
G37*
G36*
X365199D02*
X364210D01*
X363255Y69604D01*
X362399Y69110D01*
X361699Y68410D01*
X361205Y67554D01*
X360949Y66599D01*
Y65610D01*
X361205Y64655D01*
X361699Y63798D01*
X362399Y63099D01*
X363255Y62604D01*
X364210Y62348D01*
X365199D01*
X366154Y62604D01*
X367011Y63099D01*
X367710Y63798D01*
X368205Y64655D01*
X368461Y65610D01*
Y66599D01*
X368205Y67554D01*
X367710Y68410D01*
X367011Y69110D01*
X366154Y69604D01*
X365199Y69860D01*
D02*
G37*
G36*
X355199D02*
X354210D01*
X353255Y69604D01*
X352398Y69110D01*
X351699Y68410D01*
X351205Y67554D01*
X350949Y66599D01*
Y65610D01*
X351205Y64655D01*
X351699Y63798D01*
X352398Y63099D01*
X353255Y62604D01*
X354210Y62348D01*
X355199D01*
X356154Y62604D01*
X357011Y63099D01*
X357710Y63798D01*
X358205Y64655D01*
X358461Y65610D01*
Y66599D01*
X358205Y67554D01*
X357710Y68410D01*
X357011Y69110D01*
X356154Y69604D01*
X355199Y69860D01*
D02*
G37*
G36*
X190338Y64793D02*
X189470D01*
X188669Y64460D01*
X188055Y63847D01*
X187723Y63045D01*
Y62178D01*
X188055Y61376D01*
X188669Y60762D01*
X189470Y60430D01*
X190338D01*
X191140Y60762D01*
X191753Y61376D01*
X192085Y62178D01*
Y63045D01*
X191753Y63847D01*
X191140Y64460D01*
X190338Y64793D01*
D02*
G37*
G36*
X10834Y65842D02*
X9638D01*
X8483Y65533D01*
X7447Y64935D01*
X6601Y64089D01*
X6002Y63053D01*
X5693Y61897D01*
Y60701D01*
X6002Y59546D01*
X6601Y58510D01*
X7447Y57664D01*
X8483Y57065D01*
X9638Y56756D01*
X10834D01*
X11990Y57065D01*
X13026Y57664D01*
X13872Y58510D01*
X14470Y59546D01*
X14780Y60701D01*
Y61897D01*
X14470Y63053D01*
X13872Y64089D01*
X13026Y64935D01*
X11990Y65533D01*
X10834Y65842D01*
D02*
G37*
G36*
X172087Y54937D02*
X171220D01*
X170418Y54605D01*
X170079Y54266D01*
X169739Y54605D01*
X168938Y54937D01*
X168070D01*
X167268Y54605D01*
X166655Y53991D01*
X166323Y53190D01*
Y52322D01*
X166655Y51520D01*
X167268Y50907D01*
X168070Y50575D01*
X168938D01*
X169739Y50907D01*
X170079Y51246D01*
X170418Y50907D01*
X171220Y50575D01*
X172087D01*
X172889Y50907D01*
X173503Y51520D01*
X173835Y52322D01*
Y53190D01*
X173503Y53991D01*
X172889Y54605D01*
X172087Y54937D01*
D02*
G37*
G36*
X10834Y55843D02*
X9638D01*
X8483Y55533D01*
X7616Y55033D01*
X8436Y54213D01*
X7323Y53099D01*
X6503Y53919D01*
X6002Y53053D01*
X5693Y51897D01*
Y50701D01*
X6002Y49546D01*
X6503Y48679D01*
X7323Y49499D01*
X8436Y48386D01*
X7616Y47566D01*
X8483Y47065D01*
X9638Y46756D01*
X10834D01*
X11990Y47065D01*
X12856Y47566D01*
X12036Y48386D01*
X13150Y49499D01*
X13970Y48679D01*
X14470Y49546D01*
X14780Y50701D01*
Y51897D01*
X14470Y53053D01*
X13970Y53919D01*
X13150Y53099D01*
X12036Y54213D01*
X12856Y55033D01*
X11990Y55533D01*
X10834Y55843D01*
D02*
G37*
G36*
X380199Y59860D02*
X379210D01*
X378255Y59604D01*
X377398Y59110D01*
X376699Y58411D01*
X376205Y57554D01*
X375949Y56599D01*
Y55610D01*
X376205Y54655D01*
X376699Y53798D01*
X377398Y53099D01*
X378255Y52604D01*
X379210Y52348D01*
X380199D01*
X381154Y52604D01*
X382011Y53099D01*
X382710Y53798D01*
X383205Y54655D01*
X383461Y55610D01*
Y56599D01*
X383205Y57554D01*
X382710Y58411D01*
X382011Y59110D01*
X381154Y59604D01*
X380199Y59860D01*
D02*
G37*
G36*
X370199D02*
X369210D01*
X368255Y59604D01*
X367399Y59110D01*
X366699Y58411D01*
X366205Y57554D01*
X365949Y56599D01*
Y55610D01*
X366205Y54655D01*
X366699Y53798D01*
X367399Y53099D01*
X368255Y52604D01*
X369210Y52348D01*
X370199D01*
X371154Y52604D01*
X372011Y53099D01*
X372710Y53798D01*
X373205Y54655D01*
X373461Y55610D01*
Y56599D01*
X373205Y57554D01*
X372710Y58411D01*
X372011Y59110D01*
X371154Y59604D01*
X370199Y59860D01*
D02*
G37*
G36*
X360199D02*
X359210D01*
X358255Y59604D01*
X357399Y59110D01*
X356699Y58411D01*
X356205Y57554D01*
X355949Y56599D01*
Y55610D01*
X356205Y54655D01*
X356699Y53798D01*
X357399Y53099D01*
X358255Y52604D01*
X359210Y52348D01*
X360199D01*
X361154Y52604D01*
X362011Y53099D01*
X362710Y53798D01*
X363205Y54655D01*
X363461Y55610D01*
Y56599D01*
X363205Y57554D01*
X362710Y58411D01*
X362011Y59110D01*
X361154Y59604D01*
X360199Y59860D01*
D02*
G37*
G36*
X350199D02*
X349210D01*
X348255Y59604D01*
X347398Y59110D01*
X346699Y58411D01*
X346205Y57554D01*
X345949Y56599D01*
Y55610D01*
X346205Y54655D01*
X346699Y53798D01*
X347398Y53099D01*
X348255Y52604D01*
X349210Y52348D01*
X350199D01*
X351154Y52604D01*
X352011Y53099D01*
X352710Y53798D01*
X353205Y54655D01*
X353461Y55610D01*
Y56599D01*
X353205Y57554D01*
X352710Y58411D01*
X352011Y59110D01*
X351154Y59604D01*
X350199Y59860D01*
D02*
G37*
G36*
X171694Y43913D02*
X170826D01*
X170024Y43581D01*
X169411Y42968D01*
X169079Y42166D01*
Y41298D01*
X169411Y40497D01*
X169947Y39961D01*
X169411Y39424D01*
X169079Y38623D01*
Y37755D01*
X169411Y36953D01*
X169947Y36417D01*
X169411Y35881D01*
X169079Y35080D01*
Y34212D01*
X169411Y33410D01*
X170024Y32797D01*
X170826Y32465D01*
X171694D01*
X172495Y32797D01*
X173109Y33410D01*
X173441Y34212D01*
Y35080D01*
X173109Y35881D01*
X172573Y36417D01*
X173109Y36953D01*
X173441Y37755D01*
Y38623D01*
X173109Y39424D01*
X172573Y39961D01*
X173109Y40497D01*
X173441Y41298D01*
Y42166D01*
X173109Y42968D01*
X172495Y43581D01*
X171694Y43913D01*
D02*
G37*
G36*
X390354Y37502D02*
X389094D01*
X387858Y37256D01*
X386694Y36774D01*
X385646Y36074D01*
X384755Y35183D01*
X384055Y34135D01*
X383573Y32970D01*
X383327Y31734D01*
Y30474D01*
X383573Y29238D01*
X384055Y28074D01*
X384755Y27026D01*
X385646Y26135D01*
X386694Y25435D01*
X387858Y24952D01*
X389094Y24707D01*
X390354D01*
X391590Y24952D01*
X392755Y25435D01*
X393803Y26135D01*
X394694Y27026D01*
X395394Y28074D01*
X395876Y29238D01*
X396122Y30474D01*
Y31734D01*
X395876Y32970D01*
X395394Y34135D01*
X394694Y35183D01*
X393803Y36074D01*
X392755Y36774D01*
X391590Y37256D01*
X390354Y37502D01*
D02*
G37*
G36*
X345355D02*
X344094D01*
X342858Y37256D01*
X341694Y36774D01*
X340646Y36074D01*
X339755Y35183D01*
X339055Y34135D01*
X338573Y32970D01*
X338327Y31734D01*
Y30474D01*
X338573Y29238D01*
X339055Y28074D01*
X339755Y27026D01*
X340646Y26135D01*
X341694Y25435D01*
X342858Y24952D01*
X344094Y24707D01*
X345355D01*
X346590Y24952D01*
X347755Y25435D01*
X348803Y26135D01*
X349694Y27026D01*
X350394Y28074D01*
X350876Y29238D01*
X351122Y30474D01*
Y31734D01*
X350876Y32970D01*
X350394Y34135D01*
X349694Y35183D01*
X348803Y36074D01*
X347755Y36774D01*
X346590Y37256D01*
X345355Y37502D01*
D02*
G37*
G36*
X398365Y24850D02*
X396910D01*
X395504Y24474D01*
X394297Y23777D01*
X395128Y22946D01*
X394014Y21833D01*
X393184Y22663D01*
X392487Y21456D01*
X392110Y20051D01*
Y18595D01*
X392487Y17189D01*
X393184Y15982D01*
X394014Y16813D01*
X395128Y15699D01*
X394297Y14869D01*
X395504Y14172D01*
X396910Y13795D01*
X398365D01*
X399771Y14172D01*
X400978Y14869D01*
X400148Y15699D01*
X401261Y16813D01*
X402092Y15982D01*
X402789Y17189D01*
X403165Y18595D01*
Y20051D01*
X402789Y21456D01*
X402092Y22663D01*
X401261Y21833D01*
X400148Y22946D01*
X400978Y23777D01*
X399771Y24474D01*
X398365Y24850D01*
D02*
G37*
G36*
X337440D02*
X335985D01*
X334579Y24474D01*
X333372Y23777D01*
X334203Y22946D01*
X333089Y21833D01*
X332259Y22663D01*
X331562Y21456D01*
X331185Y20051D01*
Y18595D01*
X331562Y17189D01*
X332259Y15982D01*
X333089Y16813D01*
X334203Y15699D01*
X333372Y14869D01*
X334579Y14172D01*
X335985Y13795D01*
X337440D01*
X338846Y14172D01*
X340053Y14869D01*
X339222Y15699D01*
X340336Y16813D01*
X341167Y15982D01*
X341863Y17189D01*
X342240Y18595D01*
Y20051D01*
X341863Y21456D01*
X341167Y22663D01*
X340336Y21833D01*
X339222Y22946D01*
X340053Y23777D01*
X338846Y24474D01*
X337440Y24850D01*
D02*
G37*
G36*
X424025Y19898D02*
X422432D01*
X420870Y19587D01*
X419398Y18977D01*
X418073Y18092D01*
X416947Y16966D01*
X416062Y15642D01*
X415452Y14170D01*
X415142Y12607D01*
Y11015D01*
X415452Y9452D01*
X416062Y7981D01*
X416947Y6656D01*
X418073Y5530D01*
X419398Y4645D01*
X420870Y4035D01*
X422432Y3724D01*
X424025D01*
X425587Y4035D01*
X427059Y4645D01*
X428383Y5530D01*
X429510Y6656D01*
X430395Y7981D01*
X431004Y9452D01*
X431315Y11015D01*
Y12607D01*
X431004Y14170D01*
X430395Y15642D01*
X429510Y16966D01*
X428383Y18092D01*
X427059Y18977D01*
X425587Y19587D01*
X424025Y19898D01*
D02*
G37*
%LPD*%
D67*
X138382Y224882D02*
D03*
Y234882D02*
D03*
X188382Y244882D02*
D03*
Y224882D02*
D03*
Y234882D02*
D03*
X138382Y244882D02*
D03*
X244622D02*
D03*
X294622Y234882D02*
D03*
Y224882D02*
D03*
Y244882D02*
D03*
X244622Y234882D02*
D03*
Y224882D02*
D03*
X350866D02*
D03*
Y234882D02*
D03*
X400866Y244882D02*
D03*
Y224882D02*
D03*
Y234882D02*
D03*
X350866Y244882D02*
D03*
X32138D02*
D03*
X82138Y234882D02*
D03*
Y224882D02*
D03*
Y244882D02*
D03*
X32138Y234882D02*
D03*
Y224882D02*
D03*
D86*
X159829Y194882D02*
D03*
X266069D02*
D03*
X372313D02*
D03*
X53585D02*
D03*
D87*
X185202Y339287D02*
D03*
X76591D02*
D03*
X396850D02*
D03*
X287199D02*
D03*
D88*
X185202Y299287D02*
D03*
X145202Y339287D02*
D03*
Y299287D02*
D03*
X76591D02*
D03*
X36590Y339287D02*
D03*
Y299287D02*
D03*
X396850D02*
D03*
X356850Y339287D02*
D03*
Y299287D02*
D03*
X247200D02*
D03*
Y339287D02*
D03*
X287199Y299287D02*
D03*
D90*
X344724Y31104D02*
D03*
X389724D02*
D03*
D91*
X336713Y19323D02*
D03*
X397638D02*
D03*
D93*
X10236Y51299D02*
D03*
D94*
X59842Y46850D02*
D03*
Y58268D02*
D03*
X130205Y109449D02*
D03*
X175480Y112205D02*
D03*
X151071D02*
D03*
X169968Y135039D02*
D03*
X165442Y145784D02*
D03*
X188472Y116114D02*
D03*
X183409D02*
D03*
X140047Y117717D02*
D03*
X184929Y184252D02*
D03*
X144996Y163413D02*
D03*
X161362Y186193D02*
D03*
X155850Y165327D02*
D03*
Y159815D02*
D03*
X142579Y177901D02*
D03*
X133579Y169713D02*
D03*
X142579Y172192D02*
D03*
Y183609D02*
D03*
X18504Y111811D02*
D03*
X44488Y111417D02*
D03*
X36220Y183465D02*
D03*
X28740Y121653D02*
D03*
X59197Y145418D02*
D03*
X64173Y135039D02*
D03*
X49606Y164961D02*
D03*
X55118Y185827D02*
D03*
X79527Y183858D02*
D03*
X69291Y111811D02*
D03*
X77165Y115748D02*
D03*
X82677Y115354D02*
D03*
X36220Y177756D02*
D03*
X34252Y116929D02*
D03*
X36220Y172047D02*
D03*
X23622Y103937D02*
D03*
X8268Y111811D02*
D03*
X131496Y5512D02*
D03*
X157760Y54724D02*
D03*
X42499Y86631D02*
D03*
X32283Y88583D02*
D03*
X95276Y55905D02*
D03*
X62205Y59842D02*
D03*
X81890Y4331D02*
D03*
X100000Y7480D02*
D03*
X111811Y11811D02*
D03*
X196457Y39370D02*
D03*
X179931Y61296D02*
D03*
X211811Y57087D02*
D03*
X125197Y5512D02*
D03*
X87402Y81496D02*
D03*
X400787Y115748D02*
D03*
X354894Y183609D02*
D03*
Y172192D02*
D03*
Y177901D02*
D03*
X92913Y47244D02*
D03*
X143701Y79528D02*
D03*
X174409Y78740D02*
D03*
X257339Y112205D02*
D03*
X162205Y79921D02*
D03*
X180315Y72835D02*
D03*
X16535Y24803D02*
D03*
X159843Y19291D02*
D03*
X248284Y177953D02*
D03*
X31496Y48425D02*
D03*
X111811Y4724D02*
D03*
Y8268D02*
D03*
X76378Y9449D02*
D03*
X281748Y112205D02*
D03*
X12205Y44094D02*
D03*
X8268D02*
D03*
X23622Y48819D02*
D03*
X37008Y53150D02*
D03*
X67323Y57087D02*
D03*
X115354Y80709D02*
D03*
X135433Y66929D02*
D03*
X96850Y44094D02*
D03*
X134646Y55118D02*
D03*
X170079Y19291D02*
D03*
X133858Y41339D02*
D03*
X137008Y48425D02*
D03*
X189764Y38976D02*
D03*
X179921Y67716D02*
D03*
X156693Y48031D02*
D03*
X147244Y47638D02*
D03*
X179527Y7480D02*
D03*
X388189Y112205D02*
D03*
X290016Y115929D02*
D03*
X276630Y135433D02*
D03*
X248284Y172047D02*
D03*
Y183858D02*
D03*
X267575Y186221D02*
D03*
X294740Y115854D02*
D03*
X363779Y112205D02*
D03*
X357087Y116929D02*
D03*
X395669Y115748D02*
D03*
X376378Y131496D02*
D03*
X291197Y185039D02*
D03*
X383071Y135039D02*
D03*
X398031Y184646D02*
D03*
X373622Y186614D02*
D03*
X90551Y4331D02*
D03*
D95*
X77165Y60236D02*
D03*
X70472Y61024D02*
D03*
D96*
X135039Y72933D02*
D03*
X133268Y75295D02*
D03*
X136811D02*
D03*
X133268Y70571D02*
D03*
X136811D02*
D03*
M02*
