G04*
G04 #@! TF.GenerationSoftware,Altium Limited,Altium Designer,25.2.1 (25)*
G04*
G04 Layer_Physical_Order=4*
G04 Layer_Color=16711680*
%FSLAX25Y25*%
%MOIN*%
G70*
G04*
G04 #@! TF.SameCoordinates,F407CCA4-E1A1-4AAD-8540-8404F0AA80AE*
G04*
G04*
G04 #@! TF.FilePolarity,Positive*
G04*
G01*
G75*
%ADD73O,0.10000X0.07500*%
%ADD80C,0.03937*%
%ADD81C,0.01968*%
%ADD82C,0.01575*%
%ADD85C,0.14173*%
%ADD86C,0.09055*%
%ADD87C,0.04193*%
%ADD88C,0.05512*%
%ADD89O,0.05100X0.09100*%
%ADD90C,0.07087*%
%ADD91C,0.11811*%
%ADD92R,0.11811X0.11811*%
%ADD93C,0.02362*%
%ADD94C,0.01968*%
%ADD95C,0.02000*%
G36*
X370744Y210001D02*
X332882D01*
Y352111D01*
X332897Y352127D01*
X370744D01*
Y210001D01*
D02*
G37*
G36*
X274538Y352111D02*
Y210001D01*
X237464D01*
Y352127D01*
X274524D01*
X274538Y352111D01*
D02*
G37*
G36*
X190797Y210001D02*
X152935D01*
Y352111D01*
X152950Y352127D01*
X190797D01*
Y210001D01*
D02*
G37*
G36*
X100823D02*
X57516D01*
Y352127D01*
X100823D01*
Y210001D01*
D02*
G37*
G36*
X324970Y209591D02*
X282451D01*
Y352111D01*
X324970D01*
Y209591D01*
D02*
G37*
G36*
X229552Y210001D02*
X229556Y209962D01*
X229220Y209591D01*
X199041D01*
X198705Y209962D01*
X198709Y210001D01*
Y352111D01*
X229552D01*
Y210001D01*
D02*
G37*
G36*
X145023Y209591D02*
X109067D01*
X108731Y209962D01*
X108735Y210001D01*
Y352111D01*
X145023D01*
Y209591D01*
D02*
G37*
G36*
X49604Y210001D02*
X49608Y209962D01*
X49272Y209591D01*
X12529D01*
Y352111D01*
X49604D01*
Y210001D01*
D02*
G37*
G36*
X381890Y15239D02*
X381390Y15140D01*
X381182Y15642D01*
X380297Y16966D01*
X379171Y18092D01*
X377846Y18977D01*
X376375Y19587D01*
X374812Y19898D01*
X373219D01*
X371657Y19587D01*
X370185Y18977D01*
X368861Y18092D01*
X367735Y16966D01*
X366849Y15642D01*
X366240Y14170D01*
X365929Y12607D01*
Y11015D01*
X366240Y9452D01*
X366849Y7981D01*
X367735Y6656D01*
X368861Y5530D01*
X370185Y4645D01*
X371657Y4035D01*
X373219Y3724D01*
X374812D01*
X376375Y4035D01*
X377846Y4645D01*
X379171Y5530D01*
X380297Y6656D01*
X381182Y7981D01*
X381390Y8482D01*
X381890Y8383D01*
Y1020D01*
X1020D01*
X1020Y201181D01*
X134483D01*
X134585Y200707D01*
X133721Y200349D01*
X132980Y199780D01*
X132411Y199038D01*
X132053Y198175D01*
X131931Y197248D01*
Y193248D01*
X132053Y192321D01*
X132411Y191458D01*
X132980Y190716D01*
X133721Y190147D01*
X134585Y189789D01*
X135512Y189667D01*
X136439Y189789D01*
X137302Y190147D01*
X138044Y190716D01*
X138613Y191458D01*
X138970Y192321D01*
X139009Y192612D01*
X139513D01*
X139551Y192321D01*
X139909Y191458D01*
X140478Y190716D01*
X141219Y190147D01*
X142083Y189789D01*
X143010Y189667D01*
X143937Y189789D01*
X144800Y190147D01*
X145542Y190716D01*
X146111Y191458D01*
X146468Y192321D01*
X146508Y192619D01*
X147012D01*
X147051Y192321D01*
X147409Y191458D01*
X147978Y190716D01*
X148720Y190147D01*
X149583Y189789D01*
X150510Y189667D01*
X151437Y189789D01*
X152300Y190147D01*
X153042Y190716D01*
X153611Y191458D01*
X153968Y192321D01*
X154007Y192612D01*
X154511D01*
X154549Y192321D01*
X154907Y191458D01*
X155476Y190716D01*
X156218Y190147D01*
X157081Y189789D01*
X158008Y189667D01*
X158935Y189789D01*
X159798Y190147D01*
X160540Y190716D01*
X161109Y191458D01*
X161467Y192321D01*
X161589Y193248D01*
Y197248D01*
X161467Y198175D01*
X161109Y199038D01*
X160540Y199780D01*
X159798Y200349D01*
X158935Y200707D01*
X159037Y201181D01*
X228282D01*
X228381Y200681D01*
X227788Y200435D01*
X227047Y199866D01*
X226478Y199125D01*
X226120Y198261D01*
X225998Y197335D01*
Y193335D01*
X226120Y192408D01*
X226478Y191544D01*
X227047Y190803D01*
X227788Y190234D01*
X228652Y189876D01*
X229579Y189754D01*
X230505Y189876D01*
X231369Y190234D01*
X232111Y190803D01*
X232680Y191544D01*
X233037Y192408D01*
X233076Y192698D01*
X233580D01*
X233618Y192408D01*
X233976Y191544D01*
X234545Y190803D01*
X235286Y190234D01*
X236150Y189876D01*
X237077Y189754D01*
X238003Y189876D01*
X238867Y190234D01*
X239609Y190803D01*
X240178Y191544D01*
X240535Y192408D01*
X240575Y192706D01*
X241079D01*
X241118Y192408D01*
X241476Y191544D01*
X242045Y190803D01*
X242786Y190234D01*
X243650Y189876D01*
X244577Y189754D01*
X245503Y189876D01*
X246367Y190234D01*
X247109Y190803D01*
X247678Y191544D01*
X248035Y192408D01*
X248074Y192698D01*
X248578D01*
X248616Y192408D01*
X248974Y191544D01*
X249543Y190803D01*
X250285Y190234D01*
X251148Y189876D01*
X252075Y189754D01*
X253001Y189876D01*
X253865Y190234D01*
X254607Y190803D01*
X255176Y191544D01*
X255533Y192408D01*
X255655Y193335D01*
Y197335D01*
X255533Y198261D01*
X255176Y199125D01*
X254607Y199866D01*
X253865Y200435D01*
X253272Y200681D01*
X253372Y201181D01*
X314699D01*
X314798Y200681D01*
X314206Y200435D01*
X313464Y199866D01*
X312895Y199125D01*
X312537Y198261D01*
X312415Y197335D01*
Y193335D01*
X312537Y192408D01*
X312895Y191544D01*
X313464Y190803D01*
X314206Y190234D01*
X315069Y189876D01*
X315996Y189754D01*
X316923Y189876D01*
X317786Y190234D01*
X318528Y190803D01*
X319097Y191544D01*
X319455Y192408D01*
X319493Y192698D01*
X319997D01*
X320035Y192408D01*
X320393Y191544D01*
X320962Y190803D01*
X321704Y190234D01*
X322567Y189876D01*
X323494Y189754D01*
X324421Y189876D01*
X325284Y190234D01*
X326026Y190803D01*
X326595Y191544D01*
X326953Y192408D01*
X326992Y192706D01*
X327496D01*
X327535Y192408D01*
X327893Y191544D01*
X328462Y190803D01*
X329204Y190234D01*
X330067Y189876D01*
X330994Y189754D01*
X331921Y189876D01*
X332784Y190234D01*
X333526Y190803D01*
X334095Y191544D01*
X334453Y192408D01*
X334491Y192698D01*
X334995D01*
X335033Y192408D01*
X335391Y191544D01*
X335960Y190803D01*
X336702Y190234D01*
X337565Y189876D01*
X338492Y189754D01*
X339419Y189876D01*
X340282Y190234D01*
X341024Y190803D01*
X341593Y191544D01*
X341951Y192408D01*
X342073Y193335D01*
Y197335D01*
X341951Y198261D01*
X341593Y199125D01*
X341024Y199866D01*
X340282Y200435D01*
X339690Y200681D01*
X339789Y201181D01*
X381890D01*
Y15239D01*
D02*
G37*
%LPC*%
G36*
X70551Y200463D02*
X69624Y200341D01*
X68761Y199983D01*
X68019Y199414D01*
X67450Y198672D01*
X67093Y197809D01*
X67054Y197518D01*
X66550D01*
X66512Y197809D01*
X66154Y198672D01*
X65585Y199414D01*
X64843Y199983D01*
X63980Y200341D01*
X63053Y200463D01*
X62126Y200341D01*
X61263Y199983D01*
X60521Y199414D01*
X59952Y198672D01*
X59595Y197809D01*
X59555Y197511D01*
X59051D01*
X59012Y197809D01*
X58654Y198672D01*
X58085Y199414D01*
X57343Y199983D01*
X56480Y200341D01*
X55553Y200463D01*
X54626Y200341D01*
X53763Y199983D01*
X53021Y199414D01*
X52452Y198672D01*
X52095Y197809D01*
X52056Y197518D01*
X51552D01*
X51514Y197809D01*
X51156Y198672D01*
X50587Y199414D01*
X49845Y199983D01*
X48982Y200341D01*
X48055Y200463D01*
X47128Y200341D01*
X46265Y199983D01*
X45523Y199414D01*
X44954Y198672D01*
X44596Y197809D01*
X44475Y196882D01*
Y192882D01*
X44596Y191955D01*
X44954Y191092D01*
X45523Y190350D01*
X46265Y189781D01*
X47128Y189423D01*
X48055Y189301D01*
X48982Y189423D01*
X49845Y189781D01*
X50587Y190350D01*
X51156Y191092D01*
X51514Y191955D01*
X51552Y192246D01*
X52056D01*
X52095Y191955D01*
X52452Y191092D01*
X53021Y190350D01*
X53763Y189781D01*
X54626Y189423D01*
X55553Y189301D01*
X56480Y189423D01*
X57343Y189781D01*
X58085Y190350D01*
X58654Y191092D01*
X59012Y191955D01*
X59051Y192253D01*
X59555D01*
X59595Y191955D01*
X59952Y191092D01*
X60521Y190350D01*
X61263Y189781D01*
X62126Y189423D01*
X63053Y189301D01*
X63980Y189423D01*
X64843Y189781D01*
X65585Y190350D01*
X66154Y191092D01*
X66512Y191955D01*
X66550Y192246D01*
X67054D01*
X67093Y191955D01*
X67450Y191092D01*
X68019Y190350D01*
X68761Y189781D01*
X69624Y189423D01*
X70551Y189301D01*
X71478Y189423D01*
X72342Y189781D01*
X73083Y190350D01*
X73652Y191092D01*
X74010Y191955D01*
X74132Y192882D01*
Y196882D01*
X74010Y197809D01*
X73652Y198672D01*
X73083Y199414D01*
X72342Y199983D01*
X71478Y200341D01*
X70551Y200463D01*
D02*
G37*
G36*
X325237Y188795D02*
X324369D01*
X323568Y188463D01*
X322954Y187850D01*
X322622Y187048D01*
Y186180D01*
X322954Y185379D01*
X323568Y184765D01*
X324369Y184433D01*
X325237D01*
X326039Y184765D01*
X326652Y185379D01*
X326984Y186180D01*
Y187048D01*
X326652Y187850D01*
X326039Y188463D01*
X325237Y188795D01*
D02*
G37*
G36*
X239017Y188402D02*
X238149D01*
X237347Y188069D01*
X236734Y187456D01*
X236402Y186654D01*
Y185787D01*
X236734Y184985D01*
X237347Y184371D01*
X238149Y184039D01*
X239017D01*
X239818Y184371D01*
X240432Y184985D01*
X240764Y185787D01*
Y186654D01*
X240432Y187456D01*
X239818Y188069D01*
X239017Y188402D01*
D02*
G37*
G36*
X144977Y188374D02*
X144109D01*
X143308Y188042D01*
X142694Y187428D01*
X142362Y186627D01*
Y185759D01*
X142694Y184957D01*
X143308Y184344D01*
X144109Y184012D01*
X144977D01*
X145779Y184344D01*
X146392Y184957D01*
X146724Y185759D01*
Y186627D01*
X146392Y187428D01*
X145779Y188042D01*
X144977Y188374D01*
D02*
G37*
G36*
X57521Y188008D02*
X56653D01*
X55851Y187676D01*
X55238Y187062D01*
X54905Y186261D01*
Y185393D01*
X55238Y184591D01*
X55851Y183978D01*
X56653Y183646D01*
X57521D01*
X58322Y183978D01*
X58936Y184591D01*
X59268Y185393D01*
Y186261D01*
X58936Y187062D01*
X58322Y187676D01*
X57521Y188008D01*
D02*
G37*
G36*
X262639Y187221D02*
X261771D01*
X260969Y186888D01*
X260356Y186275D01*
X260024Y185473D01*
Y184606D01*
X260356Y183804D01*
X260969Y183190D01*
X261771Y182858D01*
X262639D01*
X263440Y183190D01*
X264054Y183804D01*
X264386Y184606D01*
Y185473D01*
X264054Y186275D01*
X263440Y186888D01*
X262639Y187221D01*
D02*
G37*
G36*
X349646Y186827D02*
X348779D01*
X347977Y186495D01*
X347363Y185881D01*
X347031Y185080D01*
Y184212D01*
X347363Y183410D01*
X347977Y182797D01*
X348779Y182465D01*
X349646D01*
X350448Y182797D01*
X351062Y183410D01*
X351394Y184212D01*
Y185080D01*
X351062Y185881D01*
X350448Y186495D01*
X349646Y186827D01*
D02*
G37*
G36*
X168544Y186433D02*
X167676D01*
X166875Y186101D01*
X166261Y185487D01*
X165929Y184686D01*
Y183818D01*
X166261Y183017D01*
X166875Y182403D01*
X167676Y182071D01*
X168544D01*
X169346Y182403D01*
X169959Y183017D01*
X170291Y183818D01*
Y184686D01*
X169959Y185487D01*
X169346Y186101D01*
X168544Y186433D01*
D02*
G37*
G36*
X219725Y186039D02*
X218858D01*
X218056Y185707D01*
X217442Y185094D01*
X217110Y184292D01*
Y183424D01*
X217442Y182623D01*
X218056Y182009D01*
X218858Y181677D01*
X219725D01*
X220527Y182009D01*
X221140Y182623D01*
X221472Y183424D01*
Y184292D01*
X221140Y185094D01*
X220527Y185707D01*
X219725Y186039D01*
D02*
G37*
G36*
X81930D02*
X81062D01*
X80261Y185707D01*
X79647Y185094D01*
X79315Y184292D01*
Y183424D01*
X79647Y182623D01*
X80261Y182009D01*
X81062Y181677D01*
X81930D01*
X82732Y182009D01*
X83345Y182623D01*
X83677Y183424D01*
Y184292D01*
X83345Y185094D01*
X82732Y185707D01*
X81930Y186039D01*
D02*
G37*
G36*
X306509Y185790D02*
X305641D01*
X304840Y185458D01*
X304226Y184845D01*
X303894Y184043D01*
Y183175D01*
X304226Y182374D01*
X304840Y181760D01*
X305641Y181428D01*
X306509D01*
X307311Y181760D01*
X307924Y182374D01*
X308256Y183175D01*
Y184043D01*
X307924Y184845D01*
X307311Y185458D01*
X306509Y185790D01*
D02*
G37*
G36*
X126194D02*
X125326D01*
X124525Y185458D01*
X123911Y184845D01*
X123579Y184043D01*
Y183175D01*
X123911Y182374D01*
X124525Y181760D01*
X125326Y181428D01*
X126194D01*
X126996Y181760D01*
X127609Y182374D01*
X127941Y183175D01*
Y184043D01*
X127609Y184845D01*
X126996Y185458D01*
X126194Y185790D01*
D02*
G37*
G36*
X38623Y185646D02*
X37755D01*
X36953Y185314D01*
X36340Y184700D01*
X36008Y183898D01*
Y183031D01*
X36340Y182229D01*
X36953Y181615D01*
X37755Y181283D01*
X38623D01*
X39424Y181615D01*
X40038Y182229D01*
X40370Y183031D01*
Y183898D01*
X40038Y184700D01*
X39424Y185314D01*
X38623Y185646D01*
D02*
G37*
G36*
X219725Y180134D02*
X218858D01*
X218056Y179802D01*
X217442Y179188D01*
X217110Y178387D01*
Y177519D01*
X217442Y176717D01*
X218056Y176104D01*
X218858Y175772D01*
X219725D01*
X220527Y176104D01*
X221140Y176717D01*
X221472Y177519D01*
Y178387D01*
X221140Y179188D01*
X220527Y179802D01*
X219725Y180134D01*
D02*
G37*
G36*
X306509Y180082D02*
X305641D01*
X304840Y179750D01*
X304226Y179136D01*
X303894Y178334D01*
Y177467D01*
X304226Y176665D01*
X304840Y176052D01*
X305641Y175719D01*
X306509D01*
X307311Y176052D01*
X307924Y176665D01*
X308256Y177467D01*
Y178334D01*
X307924Y179136D01*
X307311Y179750D01*
X306509Y180082D01*
D02*
G37*
G36*
X126194D02*
X125326D01*
X124525Y179750D01*
X123911Y179136D01*
X123579Y178334D01*
Y177467D01*
X123911Y176665D01*
X124525Y176052D01*
X125326Y175719D01*
X126194D01*
X126996Y176052D01*
X127609Y176665D01*
X127941Y177467D01*
Y178334D01*
X127609Y179136D01*
X126996Y179750D01*
X126194Y180082D01*
D02*
G37*
G36*
X38623Y179937D02*
X37755D01*
X36953Y179605D01*
X36340Y178991D01*
X36008Y178190D01*
Y177322D01*
X36340Y176520D01*
X36953Y175907D01*
X37755Y175575D01*
X38623D01*
X39424Y175907D01*
X40038Y176520D01*
X40370Y177322D01*
Y178190D01*
X40038Y178991D01*
X39424Y179605D01*
X38623Y179937D01*
D02*
G37*
G36*
X306509Y174373D02*
X305641D01*
X304840Y174041D01*
X304226Y173427D01*
X303894Y172626D01*
Y171758D01*
X304226Y170957D01*
X304840Y170343D01*
X305641Y170011D01*
X306509D01*
X307311Y170343D01*
X307924Y170957D01*
X308256Y171758D01*
Y172626D01*
X307924Y173427D01*
X307311Y174041D01*
X306509Y174373D01*
D02*
G37*
G36*
X126194D02*
X125326D01*
X124525Y174041D01*
X123911Y173427D01*
X123579Y172626D01*
Y171758D01*
X123911Y170957D01*
X124525Y170343D01*
X125326Y170011D01*
X126194D01*
X126996Y170343D01*
X127609Y170957D01*
X127941Y171758D01*
Y172626D01*
X127609Y173427D01*
X126996Y174041D01*
X126194Y174373D01*
D02*
G37*
G36*
X219725Y174228D02*
X218858D01*
X218056Y173896D01*
X217442Y173283D01*
X217110Y172481D01*
Y171613D01*
X217442Y170812D01*
X218056Y170198D01*
X218858Y169866D01*
X219725D01*
X220527Y170198D01*
X221140Y170812D01*
X221472Y171613D01*
Y172481D01*
X221140Y173283D01*
X220527Y173896D01*
X219725Y174228D01*
D02*
G37*
G36*
X38623D02*
X37755D01*
X36953Y173896D01*
X36340Y173283D01*
X36008Y172481D01*
Y171613D01*
X36340Y170812D01*
X36953Y170198D01*
X37755Y169866D01*
X38623D01*
X39424Y170198D01*
X40038Y170812D01*
X40370Y171613D01*
Y172481D01*
X40038Y173283D01*
X39424Y173896D01*
X38623Y174228D01*
D02*
G37*
G36*
X117194Y171894D02*
X116326D01*
X115524Y171562D01*
X114911Y170948D01*
X114579Y170147D01*
Y169279D01*
X114911Y168477D01*
X115524Y167864D01*
X116326Y167532D01*
X117194D01*
X117995Y167864D01*
X118609Y168477D01*
X118941Y169279D01*
Y170147D01*
X118609Y170948D01*
X117995Y171562D01*
X117194Y171894D01*
D02*
G37*
G36*
X316446Y170531D02*
X315579D01*
X314777Y170199D01*
X314163Y169586D01*
X313831Y168784D01*
Y167917D01*
X314163Y167115D01*
X314777Y166501D01*
X315579Y166169D01*
X316446D01*
X317248Y166501D01*
X317862Y167115D01*
X318194Y167917D01*
Y168784D01*
X317862Y169586D01*
X317248Y170199D01*
X316446Y170531D01*
D02*
G37*
G36*
X230029D02*
X229161D01*
X228360Y170199D01*
X227746Y169586D01*
X227414Y168784D01*
Y167917D01*
X227746Y167115D01*
X228360Y166501D01*
X229161Y166169D01*
X230029D01*
X230831Y166501D01*
X231444Y167115D01*
X231776Y167917D01*
Y168784D01*
X231444Y169586D01*
X230831Y170199D01*
X230029Y170531D01*
D02*
G37*
G36*
X135962Y170445D02*
X135094D01*
X134293Y170113D01*
X133679Y169499D01*
X133347Y168698D01*
Y167830D01*
X133679Y167028D01*
X134293Y166415D01*
X135094Y166083D01*
X135962D01*
X136542Y166323D01*
X136925Y165940D01*
X136850Y165761D01*
Y164893D01*
X137182Y164091D01*
X137796Y163478D01*
X138598Y163146D01*
X139465D01*
X140267Y163478D01*
X140881Y164091D01*
X141213Y164893D01*
Y165761D01*
X140881Y166562D01*
X140267Y167176D01*
X139465Y167508D01*
X138598D01*
X138018Y167268D01*
X137635Y167650D01*
X137709Y167830D01*
Y168698D01*
X137377Y169499D01*
X136764Y170113D01*
X135962Y170445D01*
D02*
G37*
G36*
X48505Y170079D02*
X47638D01*
X46836Y169747D01*
X46223Y169133D01*
X45891Y168332D01*
Y167464D01*
X46223Y166662D01*
X46836Y166049D01*
X47638Y165717D01*
X48505D01*
X49085Y165957D01*
X49468Y165574D01*
X49394Y165394D01*
Y164527D01*
X49726Y163725D01*
X50339Y163112D01*
X51141Y162779D01*
X52009D01*
X52810Y163112D01*
X53424Y163725D01*
X53756Y164527D01*
Y165394D01*
X53424Y166196D01*
X52810Y166810D01*
X52009Y167142D01*
X51141D01*
X50561Y166902D01*
X50178Y167284D01*
X50253Y167464D01*
Y168332D01*
X49921Y169133D01*
X49307Y169747D01*
X48505Y170079D01*
D02*
G37*
G36*
X128611Y165594D02*
X127743D01*
X126942Y165262D01*
X126328Y164649D01*
X125996Y163847D01*
Y162980D01*
X126328Y162178D01*
X126942Y161564D01*
X127743Y161232D01*
X128611D01*
X129413Y161564D01*
X130026Y162178D01*
X130358Y162980D01*
Y163847D01*
X130026Y164649D01*
X129413Y165262D01*
X128611Y165594D01*
D02*
G37*
G36*
X330925Y187380D02*
X330057D01*
X329255Y187048D01*
X328642Y186434D01*
X328310Y185633D01*
Y184765D01*
X328642Y183964D01*
X329255Y183350D01*
X330057Y183018D01*
X330095D01*
X333167Y179945D01*
Y169255D01*
X333167Y169255D01*
X333217Y169006D01*
Y163860D01*
X333190Y163834D01*
X332858Y163032D01*
Y162165D01*
X333190Y161363D01*
X333804Y160749D01*
X334606Y160417D01*
X335473D01*
X336275Y160749D01*
X336888Y161363D01*
X337221Y162165D01*
Y163032D01*
X336888Y163834D01*
X336862Y163860D01*
Y169206D01*
X336862Y169206D01*
X336812Y169456D01*
Y180700D01*
X336812Y180700D01*
X336673Y181397D01*
X336278Y181989D01*
X336278Y181989D01*
X332672Y185595D01*
Y185633D01*
X332340Y186434D01*
X331726Y187048D01*
X330925Y187380D01*
D02*
G37*
G36*
X244507D02*
X243640D01*
X242838Y187048D01*
X242224Y186434D01*
X241892Y185633D01*
Y184765D01*
X242224Y183964D01*
X242838Y183350D01*
X243640Y183018D01*
X243677D01*
X246750Y179945D01*
Y169255D01*
X246750Y169255D01*
X246800Y169006D01*
Y163860D01*
X246773Y163834D01*
X246441Y163032D01*
Y162165D01*
X246773Y161363D01*
X247387Y160749D01*
X248188Y160417D01*
X249056D01*
X249857Y160749D01*
X250471Y161363D01*
X250803Y162165D01*
Y163032D01*
X250471Y163834D01*
X250445Y163860D01*
Y169206D01*
X250445Y169206D01*
X250395Y169456D01*
Y180700D01*
X250395Y180700D01*
X250256Y181397D01*
X249861Y181989D01*
X249861Y181989D01*
X246255Y185595D01*
Y185633D01*
X245922Y186434D01*
X245309Y187048D01*
X244507Y187380D01*
D02*
G37*
G36*
X150440Y187294D02*
X149573D01*
X148771Y186961D01*
X148158Y186348D01*
X147825Y185546D01*
Y184678D01*
X148158Y183877D01*
X148771Y183263D01*
X149573Y182931D01*
X149610D01*
X152683Y179859D01*
Y169169D01*
X152683Y169169D01*
X152733Y168919D01*
Y163774D01*
X152706Y163747D01*
X152374Y162946D01*
Y162078D01*
X152706Y161276D01*
X153320Y160663D01*
X154121Y160331D01*
X154989D01*
X155791Y160663D01*
X156404Y161276D01*
X156736Y162078D01*
Y162946D01*
X156404Y163747D01*
X156377Y163774D01*
Y169119D01*
X156377Y169119D01*
X156328Y169369D01*
Y180613D01*
X156328Y180614D01*
X156189Y181311D01*
X155794Y181902D01*
X155794Y181902D01*
X152188Y185509D01*
Y185546D01*
X151856Y186348D01*
X151242Y186961D01*
X150440Y187294D01*
D02*
G37*
G36*
X62984Y186927D02*
X62116D01*
X61314Y186595D01*
X60701Y185982D01*
X60369Y185180D01*
Y184312D01*
X60701Y183511D01*
X61314Y182897D01*
X62116Y182565D01*
X62154D01*
X65226Y179492D01*
Y168803D01*
X65226Y168803D01*
X65276Y168553D01*
Y163408D01*
X65249Y163381D01*
X64917Y162580D01*
Y161712D01*
X65249Y160910D01*
X65863Y160297D01*
X66665Y159965D01*
X67532D01*
X68334Y160297D01*
X68947Y160910D01*
X69279Y161712D01*
Y162580D01*
X68947Y163381D01*
X68921Y163408D01*
Y168753D01*
X68921Y168753D01*
X68871Y169003D01*
Y180247D01*
X68871Y180247D01*
X68732Y180945D01*
X68337Y181536D01*
X68337Y181536D01*
X64731Y185142D01*
Y185180D01*
X64399Y185982D01*
X63785Y186595D01*
X62984Y186927D01*
D02*
G37*
G36*
X139465Y161996D02*
X138598D01*
X137796Y161664D01*
X137182Y161050D01*
X136850Y160249D01*
Y159381D01*
X137182Y158580D01*
X137796Y157966D01*
X138598Y157634D01*
X139465D01*
X140267Y157966D01*
X140881Y158580D01*
X141213Y159381D01*
Y160249D01*
X140881Y161050D01*
X140267Y161664D01*
X139465Y161996D01*
D02*
G37*
G36*
X149056Y147965D02*
X148189D01*
X147387Y147633D01*
X146774Y147020D01*
X146442Y146218D01*
Y145350D01*
X146774Y144549D01*
X147387Y143935D01*
X148189Y143603D01*
X149056D01*
X149858Y143935D01*
X150472Y144549D01*
X150804Y145350D01*
Y146218D01*
X150472Y147020D01*
X149858Y147633D01*
X149056Y147965D01*
D02*
G37*
G36*
X61600Y147599D02*
X60732D01*
X59930Y147267D01*
X59317Y146653D01*
X58985Y145852D01*
Y144984D01*
X59317Y144183D01*
X59930Y143569D01*
X60732Y143237D01*
X61600D01*
X62401Y143569D01*
X63015Y144183D01*
X63347Y144984D01*
Y145852D01*
X63015Y146653D01*
X62401Y147267D01*
X61600Y147599D01*
D02*
G37*
G36*
X331028Y142366D02*
X330161D01*
X329359Y142034D01*
X328745Y141421D01*
X328413Y140619D01*
Y139751D01*
X328745Y138950D01*
X329359Y138336D01*
X330161Y138004D01*
X331028D01*
X331830Y138336D01*
X332443Y138950D01*
X332776Y139751D01*
Y140619D01*
X332443Y141421D01*
X331830Y142034D01*
X331028Y142366D01*
D02*
G37*
G36*
X244611D02*
X243743D01*
X242942Y142034D01*
X242328Y141421D01*
X241996Y140619D01*
Y139751D01*
X242328Y138950D01*
X242942Y138336D01*
X243743Y138004D01*
X244611D01*
X245413Y138336D01*
X246026Y138950D01*
X246358Y139751D01*
Y140619D01*
X246026Y141421D01*
X245413Y142034D01*
X244611Y142366D01*
D02*
G37*
G36*
X150544Y142280D02*
X149676D01*
X148875Y141947D01*
X148261Y141334D01*
X147929Y140532D01*
Y139665D01*
X148261Y138863D01*
X148875Y138249D01*
X149676Y137917D01*
X150544D01*
X151346Y138249D01*
X151959Y138863D01*
X152291Y139665D01*
Y140532D01*
X151959Y141334D01*
X151346Y141947D01*
X150544Y142280D01*
D02*
G37*
G36*
X63087Y141913D02*
X62220D01*
X61418Y141581D01*
X60804Y140968D01*
X60472Y140166D01*
Y139298D01*
X60804Y138497D01*
X61418Y137883D01*
X62220Y137551D01*
X63087D01*
X63889Y137883D01*
X64503Y138497D01*
X64835Y139298D01*
Y140166D01*
X64503Y140968D01*
X63889Y141581D01*
X63087Y141913D01*
D02*
G37*
G36*
X248072Y137614D02*
X247204D01*
X246402Y137282D01*
X245789Y136669D01*
X245457Y135867D01*
Y134999D01*
X245789Y134198D01*
X246402Y133584D01*
X247204Y133252D01*
X248072D01*
X248873Y133584D01*
X249487Y134198D01*
X249819Y134999D01*
Y135867D01*
X249487Y136669D01*
X248873Y137282D01*
X248072Y137614D01*
D02*
G37*
G36*
X334686Y137221D02*
X333818D01*
X333016Y136888D01*
X332403Y136275D01*
X332071Y135473D01*
Y134606D01*
X332403Y133804D01*
X333016Y133190D01*
X333818Y132858D01*
X334686D01*
X335488Y133190D01*
X336101Y133804D01*
X336433Y134606D01*
Y135473D01*
X336101Y136275D01*
X335488Y136888D01*
X334686Y137221D01*
D02*
G37*
G36*
X153584D02*
X152716D01*
X151914Y136888D01*
X151301Y136275D01*
X150969Y135473D01*
Y134606D01*
X151301Y133804D01*
X151914Y133190D01*
X152716Y132858D01*
X153584D01*
X154385Y133190D01*
X154999Y133804D01*
X155331Y134606D01*
Y135473D01*
X154999Y136275D01*
X154385Y136888D01*
X153584Y137221D01*
D02*
G37*
G36*
X66576D02*
X65708D01*
X64906Y136888D01*
X64293Y136275D01*
X63961Y135473D01*
Y134606D01*
X64293Y133804D01*
X64906Y133190D01*
X65708Y132858D01*
X66576D01*
X67377Y133190D01*
X67991Y133804D01*
X68323Y134606D01*
Y135473D01*
X67991Y136275D01*
X67377Y136888D01*
X66576Y137221D01*
D02*
G37*
G36*
X327993Y133677D02*
X327125D01*
X326324Y133345D01*
X325710Y132731D01*
X325378Y131930D01*
Y131062D01*
X325710Y130261D01*
X326324Y129647D01*
X327125Y129315D01*
X327993D01*
X328795Y129647D01*
X329408Y130261D01*
X329740Y131062D01*
Y131930D01*
X329408Y132731D01*
X328795Y133345D01*
X327993Y133677D01*
D02*
G37*
G36*
X346721Y129799D02*
X345853D01*
X345052Y129467D01*
X344438Y128854D01*
X344106Y128052D01*
Y127184D01*
X344438Y126383D01*
X345052Y125769D01*
X345853Y125437D01*
X346721D01*
X347523Y125769D01*
X348136Y126383D01*
X348468Y127184D01*
Y128052D01*
X348136Y128854D01*
X347523Y129467D01*
X346721Y129799D01*
D02*
G37*
G36*
X260304D02*
X259436D01*
X258635Y129467D01*
X258021Y128854D01*
X257689Y128052D01*
Y127184D01*
X258021Y126383D01*
X258635Y125769D01*
X259436Y125437D01*
X260304D01*
X261106Y125769D01*
X261719Y126383D01*
X262051Y127184D01*
Y128052D01*
X261719Y128854D01*
X261106Y129467D01*
X260304Y129799D01*
D02*
G37*
G36*
X166237Y129713D02*
X165369D01*
X164568Y129381D01*
X163954Y128767D01*
X163622Y127965D01*
Y127098D01*
X163954Y126296D01*
X164568Y125682D01*
X165369Y125350D01*
X166237D01*
X167039Y125682D01*
X167652Y126296D01*
X167984Y127098D01*
Y127965D01*
X167652Y128767D01*
X167039Y129381D01*
X166237Y129713D01*
D02*
G37*
G36*
X78780Y129347D02*
X77913D01*
X77111Y129014D01*
X76497Y128401D01*
X76165Y127599D01*
Y126732D01*
X76497Y125930D01*
X77111Y125316D01*
X77913Y124984D01*
X78780D01*
X79582Y125316D01*
X80195Y125930D01*
X80528Y126732D01*
Y127599D01*
X80195Y128401D01*
X79582Y129014D01*
X78780Y129347D01*
D02*
G37*
G36*
X358096Y127831D02*
X357314D01*
X356559Y127628D01*
X355882Y127238D01*
X355329Y126685D01*
X354939Y126008D01*
X354736Y125253D01*
Y124471D01*
X354939Y123716D01*
X355329Y123039D01*
X355882Y122487D01*
X356559Y122096D01*
X357314Y121894D01*
X358096D01*
X358851Y122096D01*
X359527Y122487D01*
X360080Y123039D01*
X360471Y123716D01*
X360673Y124471D01*
Y125253D01*
X360471Y126008D01*
X360080Y126685D01*
X359527Y127238D01*
X358851Y127628D01*
X358096Y127831D01*
D02*
G37*
G36*
X271678D02*
X270897D01*
X270142Y127628D01*
X269465Y127238D01*
X268912Y126685D01*
X268521Y126008D01*
X268319Y125253D01*
Y124471D01*
X268521Y123716D01*
X268912Y123039D01*
X269465Y122487D01*
X270142Y122096D01*
X270897Y121894D01*
X271678D01*
X272433Y122096D01*
X273110Y122487D01*
X273663Y123039D01*
X274054Y123716D01*
X274256Y124471D01*
Y125253D01*
X274054Y126008D01*
X273663Y126685D01*
X273110Y127238D01*
X272433Y127628D01*
X271678Y127831D01*
D02*
G37*
G36*
X177611Y127744D02*
X176830D01*
X176075Y127542D01*
X175398Y127151D01*
X174845Y126598D01*
X174454Y125921D01*
X174252Y125166D01*
Y124385D01*
X174454Y123630D01*
X174845Y122953D01*
X175398Y122400D01*
X176075Y122009D01*
X176830Y121807D01*
X177611D01*
X178366Y122009D01*
X179043Y122400D01*
X179596Y122953D01*
X179987Y123630D01*
X180189Y124385D01*
Y125166D01*
X179987Y125921D01*
X179596Y126598D01*
X179043Y127151D01*
X178366Y127542D01*
X177611Y127744D01*
D02*
G37*
G36*
X90155Y127378D02*
X89373D01*
X88618Y127176D01*
X87941Y126785D01*
X87388Y126232D01*
X86998Y125555D01*
X86795Y124800D01*
Y124019D01*
X86998Y123264D01*
X87388Y122587D01*
X87941Y122034D01*
X88618Y121643D01*
X89373Y121441D01*
X90155D01*
X90910Y121643D01*
X91587Y122034D01*
X92139Y122587D01*
X92530Y123264D01*
X92732Y124019D01*
Y124800D01*
X92530Y125555D01*
X92139Y126232D01*
X91587Y126785D01*
X90910Y127176D01*
X90155Y127378D01*
D02*
G37*
G36*
X31143Y123835D02*
X30275D01*
X29473Y123503D01*
X28860Y122889D01*
X28528Y122087D01*
Y121220D01*
X28860Y120418D01*
X29473Y119805D01*
X30275Y119472D01*
X31143D01*
X31944Y119805D01*
X32558Y120418D01*
X32890Y121220D01*
Y122087D01*
X32558Y122889D01*
X31944Y123503D01*
X31143Y123835D01*
D02*
G37*
G36*
X123662Y119898D02*
X122794D01*
X121993Y119566D01*
X121379Y118952D01*
X121047Y118150D01*
Y117283D01*
X121379Y116481D01*
X121993Y115867D01*
X122794Y115535D01*
X123662D01*
X124464Y115867D01*
X125077Y116481D01*
X125409Y117283D01*
Y118150D01*
X125077Y118952D01*
X124464Y119566D01*
X123662Y119898D01*
D02*
G37*
G36*
X308702Y119110D02*
X307834D01*
X307032Y118778D01*
X306419Y118165D01*
X306087Y117363D01*
Y116495D01*
X306419Y115694D01*
X307032Y115080D01*
X307834Y114748D01*
X308702D01*
X309503Y115080D01*
X310117Y115694D01*
X310449Y116495D01*
Y117363D01*
X310117Y118165D01*
X309503Y118778D01*
X308702Y119110D01*
D02*
G37*
G36*
X36654D02*
X35787D01*
X34985Y118778D01*
X34371Y118165D01*
X34039Y117363D01*
Y116495D01*
X34371Y115694D01*
X34985Y115080D01*
X35787Y114748D01*
X36654D01*
X37456Y115080D01*
X38069Y115694D01*
X38402Y116495D01*
Y117363D01*
X38069Y118165D01*
X37456Y118778D01*
X36654Y119110D01*
D02*
G37*
G36*
X172087Y118295D02*
X171220D01*
X170418Y117963D01*
X169805Y117350D01*
X169472Y116548D01*
Y115680D01*
X169805Y114879D01*
X170418Y114265D01*
X171220Y113933D01*
X172087D01*
X172889Y114265D01*
X173503Y114879D01*
X173835Y115680D01*
Y116548D01*
X173503Y117350D01*
X172889Y117963D01*
X172087Y118295D01*
D02*
G37*
G36*
X167024D02*
X166157D01*
X165355Y117963D01*
X164742Y117350D01*
X164409Y116548D01*
Y115680D01*
X164742Y114879D01*
X165355Y114265D01*
X166157Y113933D01*
X167024D01*
X167826Y114265D01*
X168440Y114879D01*
X168772Y115680D01*
Y116548D01*
X168440Y117350D01*
X167826Y117963D01*
X167024Y118295D01*
D02*
G37*
G36*
X261457Y118110D02*
X260590D01*
X259788Y117778D01*
X259175Y117165D01*
X258842Y116363D01*
Y115495D01*
X259175Y114694D01*
X259788Y114080D01*
X260590Y113748D01*
X261457D01*
X262259Y114080D01*
X262873Y114694D01*
X263105Y115254D01*
X263641Y115242D01*
X263899Y114619D01*
X264512Y114005D01*
X265314Y113673D01*
X266182D01*
X266984Y114005D01*
X267597Y114619D01*
X267929Y115420D01*
Y116288D01*
X267597Y117090D01*
X266984Y117703D01*
X266182Y118035D01*
X265314D01*
X264512Y117703D01*
X263899Y117090D01*
X263667Y116529D01*
X263131Y116542D01*
X262873Y117165D01*
X262259Y117778D01*
X261457Y118110D01*
D02*
G37*
G36*
X352402Y117929D02*
X351535D01*
X350733Y117597D01*
X350119Y116983D01*
X349787Y116182D01*
Y115314D01*
X350119Y114513D01*
X350733Y113899D01*
X351535Y113567D01*
X352402D01*
X353204Y113899D01*
X353818Y114513D01*
X354150Y115314D01*
Y116182D01*
X353818Y116983D01*
X353204Y117597D01*
X352402Y117929D01*
D02*
G37*
G36*
X347284D02*
X346416D01*
X345615Y117597D01*
X345001Y116983D01*
X344669Y116182D01*
Y115314D01*
X345001Y114513D01*
X345615Y113899D01*
X346416Y113567D01*
X347284D01*
X348086Y113899D01*
X348699Y114513D01*
X349031Y115314D01*
Y116182D01*
X348699Y116983D01*
X348086Y117597D01*
X347284Y117929D01*
D02*
G37*
G36*
X79568D02*
X78700D01*
X77898Y117597D01*
X77285Y116983D01*
X76953Y116182D01*
Y115314D01*
X77285Y114513D01*
X77898Y113899D01*
X78700Y113567D01*
X79568D01*
X80369Y113899D01*
X80983Y114513D01*
X81315Y115314D01*
Y116182D01*
X80983Y116983D01*
X80369Y117597D01*
X79568Y117929D01*
D02*
G37*
G36*
X85079Y117535D02*
X84212D01*
X83410Y117203D01*
X82797Y116590D01*
X82465Y115788D01*
Y114920D01*
X82797Y114119D01*
X83410Y113505D01*
X84212Y113173D01*
X85079D01*
X85881Y113505D01*
X86495Y114119D01*
X86827Y114920D01*
Y115788D01*
X86495Y116590D01*
X85881Y117203D01*
X85079Y117535D01*
D02*
G37*
G36*
X339804Y114386D02*
X338936D01*
X338135Y114054D01*
X337521Y113440D01*
X337189Y112639D01*
Y111771D01*
X337521Y110969D01*
X338135Y110356D01*
X338936Y110024D01*
X339804D01*
X340606Y110356D01*
X341219Y110969D01*
X341551Y111771D01*
Y112639D01*
X341219Y113440D01*
X340606Y114054D01*
X339804Y114386D01*
D02*
G37*
G36*
X315394D02*
X314527D01*
X313725Y114054D01*
X313112Y113440D01*
X312779Y112639D01*
Y111771D01*
X313112Y110969D01*
X313725Y110356D01*
X314527Y110024D01*
X315394D01*
X316196Y110356D01*
X316810Y110969D01*
X317142Y111771D01*
Y112639D01*
X316810Y113440D01*
X316196Y114054D01*
X315394Y114386D01*
D02*
G37*
G36*
X253190D02*
X252322D01*
X251520Y114054D01*
X250907Y113440D01*
X250575Y112639D01*
Y111771D01*
X250907Y110969D01*
X251520Y110356D01*
X252322Y110024D01*
X253190D01*
X253991Y110356D01*
X254605Y110969D01*
X254937Y111771D01*
Y112639D01*
X254605Y113440D01*
X253991Y114054D01*
X253190Y114386D01*
D02*
G37*
G36*
X228780D02*
X227913D01*
X227111Y114054D01*
X226497Y113440D01*
X226165Y112639D01*
Y111771D01*
X226497Y110969D01*
X227111Y110356D01*
X227913Y110024D01*
X228780D01*
X229582Y110356D01*
X230195Y110969D01*
X230528Y111771D01*
Y112639D01*
X230195Y113440D01*
X229582Y114054D01*
X228780Y114386D01*
D02*
G37*
G36*
X159095D02*
X158228D01*
X157426Y114054D01*
X156812Y113440D01*
X156480Y112639D01*
Y111771D01*
X156812Y110969D01*
X157426Y110356D01*
X158228Y110024D01*
X159095D01*
X159897Y110356D01*
X160511Y110969D01*
X160843Y111771D01*
Y112639D01*
X160511Y113440D01*
X159897Y114054D01*
X159095Y114386D01*
D02*
G37*
G36*
X134686D02*
X133818D01*
X133017Y114054D01*
X132403Y113440D01*
X132071Y112639D01*
Y111771D01*
X132403Y110969D01*
X133017Y110356D01*
X133818Y110024D01*
X134686D01*
X135487Y110356D01*
X136101Y110969D01*
X136433Y111771D01*
Y112639D01*
X136101Y113440D01*
X135487Y114054D01*
X134686Y114386D01*
D02*
G37*
G36*
X71694Y113992D02*
X70826D01*
X70024Y113660D01*
X69411Y113047D01*
X69079Y112245D01*
Y111377D01*
X69411Y110575D01*
X70024Y109962D01*
X70826Y109630D01*
X71694D01*
X72495Y109962D01*
X73109Y110575D01*
X73441Y111377D01*
Y112245D01*
X73109Y113047D01*
X72495Y113660D01*
X71694Y113992D01*
D02*
G37*
G36*
X46891Y113598D02*
X46023D01*
X45221Y113266D01*
X44608Y112653D01*
X44276Y111851D01*
Y110984D01*
X44608Y110182D01*
X45221Y109568D01*
X46023Y109236D01*
X46891D01*
X47692Y109568D01*
X48306Y110182D01*
X48638Y110984D01*
Y111851D01*
X48306Y112653D01*
X47692Y113266D01*
X46891Y113598D01*
D02*
G37*
G36*
X21694D02*
X20826D01*
X20024Y113266D01*
X19411Y112653D01*
X19079Y111851D01*
Y110984D01*
X19411Y110182D01*
X20024Y109568D01*
X20826Y109236D01*
X21694D01*
X22495Y109568D01*
X23109Y110182D01*
X23441Y110984D01*
Y111851D01*
X23109Y112653D01*
X22495Y113266D01*
X21694Y113598D01*
D02*
G37*
G36*
X11457D02*
X10590D01*
X9788Y113266D01*
X9175Y112653D01*
X8843Y111851D01*
Y110984D01*
X9175Y110182D01*
X9788Y109568D01*
X10590Y109236D01*
X11457D01*
X12259Y109568D01*
X12873Y110182D01*
X13205Y110984D01*
Y111851D01*
X12873Y112653D01*
X12259Y113266D01*
X11457Y113598D01*
D02*
G37*
G36*
X113820Y111630D02*
X112952D01*
X112150Y111298D01*
X111537Y110684D01*
X111205Y109883D01*
Y109015D01*
X111537Y108213D01*
X112150Y107600D01*
X112952Y107268D01*
X113820D01*
X114621Y107600D01*
X115235Y108213D01*
X115567Y109015D01*
Y109883D01*
X115235Y110684D01*
X114621Y111298D01*
X113820Y111630D01*
D02*
G37*
G36*
X26812Y105724D02*
X25944D01*
X25142Y105392D01*
X24529Y104779D01*
X24197Y103977D01*
Y103110D01*
X24529Y102308D01*
X25142Y101694D01*
X25944Y101362D01*
X26812D01*
X27613Y101694D01*
X28227Y102308D01*
X28559Y103110D01*
Y103977D01*
X28227Y104779D01*
X27613Y105392D01*
X26812Y105724D01*
D02*
G37*
G36*
X35080Y90370D02*
X34212D01*
X33410Y90038D01*
X32797Y89425D01*
X32465Y88623D01*
Y87755D01*
X32797Y86954D01*
X33410Y86340D01*
X34212Y86008D01*
X35080D01*
X35881Y86340D01*
X36495Y86954D01*
X36827Y87755D01*
Y88623D01*
X36495Y89425D01*
X35881Y90038D01*
X35080Y90370D01*
D02*
G37*
G36*
X45295Y88418D02*
X44427D01*
X43626Y88086D01*
X43012Y87473D01*
X42680Y86671D01*
Y85803D01*
X43012Y85002D01*
X43626Y84388D01*
X44427Y84056D01*
X45295D01*
X46097Y84388D01*
X46710Y85002D01*
X47042Y85803D01*
Y86671D01*
X46710Y87473D01*
X46097Y88086D01*
X45295Y88418D01*
D02*
G37*
G36*
X90198Y83284D02*
X89330D01*
X88528Y82951D01*
X87915Y82338D01*
X87583Y81536D01*
Y80668D01*
X87915Y79867D01*
X88528Y79253D01*
X89330Y78921D01*
X90198D01*
X90999Y79253D01*
X91613Y79867D01*
X91945Y80668D01*
Y81536D01*
X91613Y82338D01*
X90999Y82951D01*
X90198Y83284D01*
D02*
G37*
G36*
X118150Y82496D02*
X117283D01*
X116481Y82164D01*
X115867Y81551D01*
X115535Y80749D01*
Y79881D01*
X115867Y79080D01*
X116481Y78466D01*
X117283Y78134D01*
X118150D01*
X118952Y78466D01*
X119566Y79080D01*
X119898Y79881D01*
Y80749D01*
X119566Y81551D01*
X118952Y82164D01*
X118150Y82496D01*
D02*
G37*
G36*
X165001Y81709D02*
X164133D01*
X163331Y81377D01*
X162718Y80763D01*
X162386Y79961D01*
Y79094D01*
X162718Y78292D01*
X163331Y77679D01*
X164133Y77346D01*
X165001D01*
X165802Y77679D01*
X166416Y78292D01*
X166748Y79094D01*
Y79961D01*
X166416Y80763D01*
X165802Y81377D01*
X165001Y81709D01*
D02*
G37*
G36*
X95709Y82102D02*
X94842D01*
X94040Y81770D01*
X93427Y81157D01*
X93094Y80355D01*
Y80317D01*
X89796Y77019D01*
X85120D01*
X85094Y77046D01*
X84292Y77378D01*
X83424D01*
X82623Y77046D01*
X82009Y76432D01*
X81677Y75631D01*
Y74763D01*
X82009Y73961D01*
X82623Y73348D01*
X83424Y73016D01*
X84292D01*
X85094Y73348D01*
X85120Y73374D01*
X90551D01*
X90551Y73374D01*
X91249Y73513D01*
X91840Y73908D01*
X95672Y77740D01*
X95709D01*
X96511Y78072D01*
X97125Y78686D01*
X97457Y79487D01*
Y80355D01*
X97125Y81157D01*
X96511Y81770D01*
X95709Y82102D01*
D02*
G37*
G36*
X146497Y81315D02*
X145629D01*
X144827Y80983D01*
X144214Y80369D01*
X143882Y79568D01*
Y78700D01*
X144214Y77898D01*
X144827Y77285D01*
X145629Y76953D01*
X146497D01*
X147299Y77285D01*
X147912Y77898D01*
X148244Y78700D01*
Y79568D01*
X147912Y80369D01*
X147299Y80983D01*
X146497Y81315D01*
D02*
G37*
G36*
X177206Y80528D02*
X176338D01*
X175536Y80195D01*
X174923Y79582D01*
X174591Y78780D01*
Y77913D01*
X174923Y77111D01*
X175536Y76497D01*
X176338Y76165D01*
X177206D01*
X178007Y76497D01*
X178621Y77111D01*
X178953Y77913D01*
Y78780D01*
X178621Y79582D01*
X178007Y80195D01*
X177206Y80528D01*
D02*
G37*
G36*
X139571Y76902D02*
X138775D01*
X138040Y76597D01*
X137728Y76285D01*
X137402Y76082D01*
X137075Y76285D01*
X136763Y76597D01*
X136028Y76902D01*
X135232D01*
X134497Y76597D01*
X133934Y76034D01*
X133630Y75299D01*
Y74504D01*
X133934Y73769D01*
X134497Y73206D01*
X135232Y72902D01*
X135402D01*
Y72177D01*
X135232D01*
X134497Y71873D01*
X133934Y71310D01*
X133630Y70575D01*
Y69779D01*
X133934Y69044D01*
X134497Y68482D01*
X135232Y68177D01*
X135645D01*
X135768Y68011D01*
X135907Y67677D01*
X135614Y66969D01*
Y66102D01*
X135946Y65300D01*
X136560Y64686D01*
X137361Y64354D01*
X138229D01*
X139031Y64686D01*
X139644Y65300D01*
X139976Y66102D01*
Y66969D01*
X139667Y67715D01*
X139678Y67862D01*
X139836Y68287D01*
X140306Y68482D01*
X140869Y69044D01*
X141173Y69779D01*
Y70575D01*
X140869Y71310D01*
X140306Y71873D01*
X139571Y72177D01*
X139402D01*
Y72902D01*
X139571D01*
X140306Y73206D01*
X140869Y73769D01*
X141173Y74504D01*
Y75299D01*
X140869Y76034D01*
X140306Y76597D01*
X139571Y76902D01*
D02*
G37*
G36*
X332935Y82624D02*
X331946D01*
X330991Y82368D01*
X330135Y81874D01*
X329435Y81174D01*
X328941Y80318D01*
X328685Y79363D01*
Y78374D01*
X328941Y77418D01*
X329435Y76562D01*
X330135Y75863D01*
X330991Y75368D01*
X331946Y75112D01*
X332935D01*
X333891Y75368D01*
X334747Y75863D01*
X335446Y76562D01*
X335941Y77418D01*
X336197Y78374D01*
Y79363D01*
X335941Y80318D01*
X335446Y81174D01*
X334747Y81874D01*
X333891Y82368D01*
X332935Y82624D01*
D02*
G37*
G36*
X322935D02*
X321947D01*
X320991Y82368D01*
X320135Y81874D01*
X319436Y81174D01*
X318941Y80318D01*
X318685Y79363D01*
Y78374D01*
X318941Y77418D01*
X319436Y76562D01*
X320135Y75863D01*
X320991Y75368D01*
X321947Y75112D01*
X322935D01*
X323891Y75368D01*
X324747Y75863D01*
X325446Y76562D01*
X325941Y77418D01*
X326197Y78374D01*
Y79363D01*
X325941Y80318D01*
X325446Y81174D01*
X324747Y81874D01*
X323891Y82368D01*
X322935Y82624D01*
D02*
G37*
G36*
X312935D02*
X311947D01*
X310991Y82368D01*
X310135Y81874D01*
X309436Y81174D01*
X308941Y80318D01*
X308685Y79363D01*
Y78374D01*
X308941Y77418D01*
X309436Y76562D01*
X310135Y75863D01*
X310991Y75368D01*
X311947Y75112D01*
X312935D01*
X313891Y75368D01*
X314747Y75863D01*
X315446Y76562D01*
X315941Y77418D01*
X316197Y78374D01*
Y79363D01*
X315941Y80318D01*
X315446Y81174D01*
X314747Y81874D01*
X313891Y82368D01*
X312935Y82624D01*
D02*
G37*
G36*
X302935D02*
X301946D01*
X300991Y82368D01*
X300135Y81874D01*
X299435Y81174D01*
X298941Y80318D01*
X298685Y79363D01*
Y78374D01*
X298941Y77418D01*
X299435Y76562D01*
X300135Y75863D01*
X300991Y75368D01*
X301946Y75112D01*
X302935D01*
X303891Y75368D01*
X304747Y75863D01*
X305446Y76562D01*
X305941Y77418D01*
X306197Y78374D01*
Y79363D01*
X305941Y80318D01*
X305446Y81174D01*
X304747Y81874D01*
X303891Y82368D01*
X302935Y82624D01*
D02*
G37*
G36*
X183111Y74622D02*
X182243D01*
X181442Y74290D01*
X180828Y73676D01*
X180496Y72875D01*
Y72007D01*
X180828Y71205D01*
X181442Y70592D01*
X182243Y70260D01*
X183111D01*
X183913Y70592D01*
X184526Y71205D01*
X184858Y72007D01*
Y72875D01*
X184526Y73676D01*
X183913Y74290D01*
X183111Y74622D01*
D02*
G37*
G36*
X73229Y70488D02*
X72440D01*
X71711Y70186D01*
X71153Y69628D01*
X70850Y68899D01*
Y68109D01*
X71153Y67380D01*
X71711Y66822D01*
X72440Y66520D01*
X73229D01*
X73959Y66822D01*
X74517Y67380D01*
X74819Y68109D01*
Y68899D01*
X74517Y69628D01*
X73959Y70186D01*
X73229Y70488D01*
D02*
G37*
G36*
X182717Y69504D02*
X181850D01*
X181048Y69172D01*
X180434Y68558D01*
X180102Y67757D01*
Y66889D01*
X180434Y66087D01*
X181048Y65474D01*
X181850Y65142D01*
X182717D01*
X183519Y65474D01*
X184133Y66087D01*
X184465Y66889D01*
Y67757D01*
X184133Y68558D01*
X183519Y69172D01*
X182717Y69504D01*
D02*
G37*
G36*
X65001D02*
X64133D01*
X63331Y69172D01*
X62718Y68558D01*
X62386Y67757D01*
Y66889D01*
X62718Y66087D01*
X63331Y65474D01*
X64133Y65142D01*
X65001D01*
X65802Y65474D01*
X66416Y66087D01*
X66748Y66889D01*
Y67757D01*
X66416Y68558D01*
X65802Y69172D01*
X65001Y69504D01*
D02*
G37*
G36*
X327935Y72624D02*
X326946D01*
X325991Y72368D01*
X325135Y71874D01*
X324435Y71174D01*
X323941Y70318D01*
X323685Y69363D01*
Y68374D01*
X323941Y67418D01*
X324435Y66562D01*
X325135Y65863D01*
X325991Y65368D01*
X326946Y65112D01*
X327935D01*
X328891Y65368D01*
X329747Y65863D01*
X330446Y66562D01*
X330941Y67418D01*
X331197Y68374D01*
Y69363D01*
X330941Y70318D01*
X330446Y71174D01*
X329747Y71874D01*
X328891Y72368D01*
X327935Y72624D01*
D02*
G37*
G36*
X317935D02*
X316947D01*
X315991Y72368D01*
X315135Y71874D01*
X314436Y71174D01*
X313941Y70318D01*
X313685Y69363D01*
Y68374D01*
X313941Y67418D01*
X314436Y66562D01*
X315135Y65863D01*
X315991Y65368D01*
X316947Y65112D01*
X317935D01*
X318891Y65368D01*
X319747Y65863D01*
X320446Y66562D01*
X320941Y67418D01*
X321197Y68374D01*
Y69363D01*
X320941Y70318D01*
X320446Y71174D01*
X319747Y71874D01*
X318891Y72368D01*
X317935Y72624D01*
D02*
G37*
G36*
X307935D02*
X306946D01*
X305991Y72368D01*
X305135Y71874D01*
X304435Y71174D01*
X303941Y70318D01*
X303685Y69363D01*
Y68374D01*
X303941Y67418D01*
X304435Y66562D01*
X305135Y65863D01*
X305991Y65368D01*
X306946Y65112D01*
X307935D01*
X308891Y65368D01*
X309747Y65863D01*
X310446Y66562D01*
X310941Y67418D01*
X311197Y68374D01*
Y69363D01*
X310941Y70318D01*
X310446Y71174D01*
X309747Y71874D01*
X308891Y72368D01*
X307935Y72624D01*
D02*
G37*
G36*
X297935D02*
X296947D01*
X295991Y72368D01*
X295135Y71874D01*
X294436Y71174D01*
X293941Y70318D01*
X293685Y69363D01*
Y68374D01*
X293941Y67418D01*
X294436Y66562D01*
X295135Y65863D01*
X295991Y65368D01*
X296947Y65112D01*
X297935D01*
X298891Y65368D01*
X299747Y65863D01*
X300446Y66562D01*
X300941Y67418D01*
X301197Y68374D01*
Y69363D01*
X300941Y70318D01*
X300446Y71174D01*
X299747Y71874D01*
X298891Y72368D01*
X297935Y72624D01*
D02*
G37*
G36*
X165788Y66748D02*
X164920D01*
X164119Y66416D01*
X163505Y65802D01*
X163173Y65001D01*
Y64133D01*
X163505Y63331D01*
X164119Y62718D01*
X164920Y62386D01*
X165788D01*
X166590Y62718D01*
X167203Y63331D01*
X167535Y64133D01*
Y65001D01*
X167203Y65802D01*
X166590Y66416D01*
X165788Y66748D01*
D02*
G37*
G36*
X129568Y81315D02*
X128700D01*
X127898Y80983D01*
X127285Y80369D01*
X127127Y79988D01*
X119042Y71903D01*
X118603Y71247D01*
X118449Y70472D01*
Y64988D01*
X118291Y64607D01*
Y63739D01*
X118623Y62938D01*
X119237Y62324D01*
X120039Y61992D01*
X120906D01*
X121708Y62324D01*
X122321Y62938D01*
X122653Y63739D01*
Y64607D01*
X122496Y64988D01*
Y69634D01*
X129988Y77127D01*
X130369Y77285D01*
X130983Y77898D01*
X131315Y78700D01*
Y79568D01*
X130983Y80369D01*
X130369Y80983D01*
X129568Y81315D01*
D02*
G37*
G36*
X79922Y69701D02*
X79133D01*
X78404Y69399D01*
X77845Y68840D01*
X77543Y68111D01*
Y67322D01*
X77845Y66593D01*
X78404Y66034D01*
X78431Y66023D01*
X78507Y65450D01*
X78072Y65015D01*
X77740Y64213D01*
Y63346D01*
X78072Y62544D01*
X78686Y61931D01*
X79487Y61598D01*
X80355D01*
X81157Y61931D01*
X81770Y62544D01*
X82102Y63346D01*
Y64213D01*
X81770Y65015D01*
X81157Y65629D01*
X81013Y65688D01*
X80895Y66278D01*
X81210Y66593D01*
X81512Y67322D01*
Y68111D01*
X81210Y68840D01*
X80651Y69399D01*
X79922Y69701D01*
D02*
G37*
G36*
X68938Y65961D02*
X68070D01*
X67268Y65629D01*
X66655Y65015D01*
X66323Y64213D01*
Y63346D01*
X66655Y62544D01*
X67268Y61931D01*
X68070Y61598D01*
X68938D01*
X69739Y61931D01*
X70353Y62544D01*
X70685Y63346D01*
Y64213D01*
X70353Y65015D01*
X69739Y65629D01*
X68938Y65961D01*
D02*
G37*
G36*
X182727Y63083D02*
X181860D01*
X181058Y62751D01*
X180445Y62138D01*
X180112Y61336D01*
Y60468D01*
X180445Y59667D01*
X181058Y59053D01*
X181860Y58721D01*
X182727D01*
X183529Y59053D01*
X184143Y59667D01*
X184475Y60468D01*
Y61336D01*
X184143Y62138D01*
X183529Y62751D01*
X182727Y63083D01*
D02*
G37*
G36*
X13197Y65449D02*
X12000D01*
X10845Y65139D01*
X9809Y64541D01*
X8963Y63695D01*
X8365Y62659D01*
X8055Y61504D01*
Y60307D01*
X8365Y59152D01*
X8963Y58116D01*
X9809Y57270D01*
X10845Y56672D01*
X12000Y56362D01*
X13197D01*
X14352Y56672D01*
X15388Y57270D01*
X16234Y58116D01*
X16832Y59152D01*
X17142Y60307D01*
Y61504D01*
X16832Y62659D01*
X16234Y63695D01*
X15388Y64541D01*
X14352Y65139D01*
X13197Y65449D01*
D02*
G37*
G36*
X214607Y58874D02*
X213739D01*
X212938Y58542D01*
X212324Y57928D01*
X211992Y57127D01*
Y56259D01*
X212324Y55457D01*
X212938Y54844D01*
X213739Y54512D01*
X214607D01*
X215409Y54844D01*
X216022Y55457D01*
X216354Y56259D01*
Y57127D01*
X216022Y57928D01*
X215409Y58542D01*
X214607Y58874D01*
D02*
G37*
G36*
X174450Y54543D02*
X173582D01*
X172780Y54211D01*
X172441Y53872D01*
X172102Y54211D01*
X171300Y54543D01*
X170432D01*
X169631Y54211D01*
X169017Y53598D01*
X168685Y52796D01*
Y51928D01*
X169017Y51127D01*
X169631Y50513D01*
X170432Y50181D01*
X171300D01*
X172102Y50513D01*
X172441Y50853D01*
X172780Y50513D01*
X173582Y50181D01*
X174450D01*
X175251Y50513D01*
X175865Y51127D01*
X176197Y51928D01*
Y52796D01*
X175865Y53598D01*
X175251Y54211D01*
X174450Y54543D01*
D02*
G37*
G36*
X72875Y58087D02*
X72007D01*
X71205Y57755D01*
X70592Y57141D01*
X70260Y56339D01*
Y55472D01*
X70592Y54670D01*
X71205Y54057D01*
X72007Y53724D01*
X72875D01*
X73676Y54057D01*
X74290Y54670D01*
X74622Y55472D01*
Y56339D01*
X74290Y57141D01*
X73676Y57755D01*
X72875Y58087D01*
D02*
G37*
G36*
X98072Y57693D02*
X97204D01*
X96402Y57361D01*
X95789Y56747D01*
X95457Y55946D01*
Y55078D01*
X95789Y54276D01*
X96402Y53663D01*
X97204Y53331D01*
X98072D01*
X98873Y53663D01*
X99487Y54276D01*
X99819Y55078D01*
Y55946D01*
X99487Y56747D01*
X98873Y57361D01*
X98072Y57693D01*
D02*
G37*
G36*
X137442Y56906D02*
X136574D01*
X135772Y56573D01*
X135159Y55960D01*
X134827Y55158D01*
Y54291D01*
X135159Y53489D01*
X135772Y52875D01*
X136574Y52543D01*
X137442D01*
X138243Y52875D01*
X138857Y53489D01*
X139189Y54291D01*
Y55158D01*
X138857Y55960D01*
X138243Y56573D01*
X137442Y56906D01*
D02*
G37*
G36*
X160556Y56512D02*
X159688D01*
X158887Y56180D01*
X158273Y55566D01*
X157941Y54765D01*
Y53897D01*
X158273Y53095D01*
X158887Y52482D01*
X159688Y52150D01*
X160556D01*
X161357Y52482D01*
X161971Y53095D01*
X162303Y53897D01*
Y54765D01*
X161971Y55566D01*
X161357Y56180D01*
X160556Y56512D01*
D02*
G37*
G36*
X39804Y54937D02*
X38936D01*
X38135Y54605D01*
X37521Y53991D01*
X37189Y53190D01*
Y52322D01*
X37521Y51520D01*
X38135Y50907D01*
X38936Y50575D01*
X39804D01*
X40606Y50907D01*
X41219Y51520D01*
X41551Y52322D01*
Y53190D01*
X41219Y53991D01*
X40606Y54605D01*
X39804Y54937D01*
D02*
G37*
G36*
X346200Y61404D02*
X344745D01*
X343339Y61027D01*
X342078Y60299D01*
X341049Y59270D01*
X340322Y58010D01*
X339945Y56604D01*
Y55148D01*
X340322Y53742D01*
X341049Y52482D01*
X342078Y51453D01*
X343339Y50725D01*
X344745Y50348D01*
X346200D01*
X347606Y50725D01*
X348866Y51453D01*
X349896Y52482D01*
X350623Y53742D01*
X351000Y55148D01*
Y56604D01*
X350623Y58010D01*
X349896Y59270D01*
X348866Y60299D01*
X347606Y61027D01*
X346200Y61404D01*
D02*
G37*
G36*
X285176D02*
X283721D01*
X282315Y61027D01*
X281055Y60299D01*
X280026Y59270D01*
X279298Y58010D01*
X278921Y56604D01*
Y55148D01*
X279298Y53742D01*
X280026Y52482D01*
X281055Y51453D01*
X282315Y50725D01*
X283721Y50348D01*
X285176D01*
X286582Y50725D01*
X287843Y51453D01*
X288872Y52482D01*
X289600Y53742D01*
X289976Y55148D01*
Y56604D01*
X289600Y58010D01*
X288872Y59270D01*
X287843Y60299D01*
X286582Y61027D01*
X285176Y61404D01*
D02*
G37*
G36*
X13197Y55449D02*
X12000D01*
X10845Y55139D01*
X9809Y54541D01*
X8963Y53695D01*
X8365Y52659D01*
X8055Y51504D01*
Y50307D01*
X8365Y49152D01*
X8963Y48116D01*
X9809Y47270D01*
X10845Y46672D01*
X12000Y46362D01*
X13197D01*
X14352Y46672D01*
X15388Y47270D01*
X16234Y48116D01*
X16832Y49152D01*
X17142Y50307D01*
Y51504D01*
X16832Y52659D01*
X16234Y53695D01*
X15388Y54541D01*
X14352Y55139D01*
X13197Y55449D01*
D02*
G37*
G36*
X26418Y50606D02*
X25550D01*
X24749Y50274D01*
X24135Y49661D01*
X23803Y48859D01*
Y47991D01*
X24135Y47190D01*
X24749Y46576D01*
X25550Y46244D01*
X26418D01*
X27220Y46576D01*
X27833Y47190D01*
X28165Y47991D01*
Y48859D01*
X27833Y49661D01*
X27220Y50274D01*
X26418Y50606D01*
D02*
G37*
G36*
X139804Y50213D02*
X138936D01*
X138135Y49880D01*
X137521Y49267D01*
X137189Y48465D01*
Y47598D01*
X137521Y46796D01*
X138135Y46183D01*
X138936Y45850D01*
X139804D01*
X140606Y46183D01*
X141219Y46796D01*
X141551Y47598D01*
Y48465D01*
X141219Y49267D01*
X140606Y49880D01*
X139804Y50213D01*
D02*
G37*
G36*
X34292D02*
X33424D01*
X32623Y49880D01*
X32009Y49267D01*
X31677Y48465D01*
Y47598D01*
X32009Y46796D01*
X32623Y46183D01*
X33424Y45850D01*
X34292D01*
X35094Y46183D01*
X35707Y46796D01*
X36039Y47598D01*
Y48465D01*
X35707Y49267D01*
X35094Y49880D01*
X34292Y50213D01*
D02*
G37*
G36*
X159489Y49819D02*
X158621D01*
X157820Y49487D01*
X157206Y48873D01*
X156874Y48072D01*
Y47204D01*
X157206Y46402D01*
X157820Y45789D01*
X158621Y45457D01*
X159489D01*
X160291Y45789D01*
X160904Y46402D01*
X161236Y47204D01*
Y48072D01*
X160904Y48873D01*
X160291Y49487D01*
X159489Y49819D01*
D02*
G37*
G36*
X150040Y49425D02*
X149172D01*
X148371Y49093D01*
X147757Y48480D01*
X147425Y47678D01*
Y46810D01*
X147757Y46009D01*
X148371Y45395D01*
X149172Y45063D01*
X150040D01*
X150842Y45395D01*
X151455Y46009D01*
X151787Y46810D01*
Y47678D01*
X151455Y48480D01*
X150842Y49093D01*
X150040Y49425D01*
D02*
G37*
G36*
X15001Y45882D02*
X14133D01*
X13331Y45550D01*
X12925Y45143D01*
X12598Y44992D01*
X12272Y45143D01*
X11865Y45550D01*
X11064Y45882D01*
X10196D01*
X9394Y45550D01*
X8781Y44936D01*
X8449Y44135D01*
Y43267D01*
X8781Y42465D01*
X9394Y41852D01*
X10196Y41520D01*
X11064D01*
X11865Y41852D01*
X12272Y42258D01*
X12598Y42410D01*
X12925Y42258D01*
X13331Y41852D01*
X14133Y41520D01*
X15001D01*
X15802Y41852D01*
X16416Y42465D01*
X16748Y43267D01*
Y44135D01*
X16416Y44936D01*
X15802Y45550D01*
X15001Y45882D01*
D02*
G37*
G36*
X95709Y49031D02*
X94842D01*
X94040Y48699D01*
X93427Y48086D01*
X93094Y47284D01*
Y46417D01*
X93427Y45615D01*
X94040Y45001D01*
X94842Y44669D01*
X95709D01*
X96511Y45001D01*
X97125Y45615D01*
X97457Y46417D01*
Y47284D01*
X97125Y48086D01*
X96511Y48699D01*
X95709Y49031D01*
D02*
G37*
G36*
X99647Y45882D02*
X98779D01*
X97977Y45550D01*
X97364Y44936D01*
X97031Y44135D01*
Y43267D01*
X97364Y42465D01*
X97977Y41852D01*
X98779Y41520D01*
X99647D01*
X100448Y41852D01*
X101062Y42465D01*
X101394Y43267D01*
Y44135D01*
X101062Y44936D01*
X100448Y45550D01*
X99647Y45882D01*
D02*
G37*
G36*
X136654Y43126D02*
X135787D01*
X134985Y42794D01*
X134371Y42180D01*
X134039Y41379D01*
Y40511D01*
X134371Y39709D01*
X134985Y39096D01*
X135787Y38764D01*
X136654D01*
X137456Y39096D01*
X138069Y39709D01*
X138402Y40511D01*
Y41379D01*
X138069Y42180D01*
X137456Y42794D01*
X136654Y43126D01*
D02*
G37*
G36*
X338091Y50266D02*
X336830D01*
X335595Y50020D01*
X334430Y49538D01*
X333382Y48838D01*
X332491Y47946D01*
X331791Y46898D01*
X331309Y45734D01*
X331063Y44498D01*
Y43238D01*
X331309Y42002D01*
X331791Y40838D01*
X332491Y39790D01*
X333382Y38899D01*
X334430Y38199D01*
X335595Y37716D01*
X336830Y37470D01*
X338091D01*
X339327Y37716D01*
X340491Y38199D01*
X341539Y38899D01*
X342430Y39790D01*
X343130Y40838D01*
X343612Y42002D01*
X343858Y43238D01*
Y44498D01*
X343612Y45734D01*
X343130Y46898D01*
X342430Y47946D01*
X341539Y48838D01*
X340491Y49538D01*
X339327Y50020D01*
X338091Y50266D01*
D02*
G37*
G36*
X293091D02*
X291830D01*
X290595Y50020D01*
X289430Y49538D01*
X288382Y48838D01*
X287491Y47946D01*
X286791Y46898D01*
X286309Y45734D01*
X286063Y44498D01*
Y43238D01*
X286309Y42002D01*
X286791Y40838D01*
X287491Y39790D01*
X288382Y38899D01*
X289430Y38199D01*
X290595Y37716D01*
X291830Y37470D01*
X293091D01*
X294327Y37716D01*
X295491Y38199D01*
X296539Y38899D01*
X297430Y39790D01*
X298130Y40838D01*
X298612Y42002D01*
X298858Y43238D01*
Y44498D01*
X298612Y45734D01*
X298130Y46898D01*
X297430Y47946D01*
X296539Y48838D01*
X295491Y49538D01*
X294327Y50020D01*
X293091Y50266D01*
D02*
G37*
G36*
X199253Y41157D02*
X198385D01*
X197583Y40825D01*
X196970Y40212D01*
X196638Y39410D01*
Y38543D01*
X196970Y37741D01*
X197583Y37127D01*
X198385Y36795D01*
X199253D01*
X200054Y37127D01*
X200668Y37741D01*
X201000Y38543D01*
Y39410D01*
X200668Y40212D01*
X200054Y40825D01*
X199253Y41157D01*
D02*
G37*
G36*
X192560Y40764D02*
X191692D01*
X190891Y40432D01*
X190277Y39818D01*
X189945Y39017D01*
Y38149D01*
X190277Y37347D01*
X190891Y36734D01*
X191692Y36402D01*
X192560D01*
X193361Y36734D01*
X193975Y37347D01*
X194307Y38149D01*
Y39017D01*
X193975Y39818D01*
X193361Y40432D01*
X192560Y40764D01*
D02*
G37*
G36*
X174056Y43520D02*
X173188D01*
X172387Y43188D01*
X171773Y42574D01*
X171441Y41772D01*
Y40905D01*
X171773Y40103D01*
X172309Y39567D01*
X171773Y39031D01*
X171441Y38229D01*
Y37361D01*
X171773Y36560D01*
X172309Y36024D01*
X171773Y35487D01*
X171441Y34686D01*
Y33818D01*
X171773Y33016D01*
X172387Y32403D01*
X173188Y32071D01*
X174056D01*
X174857Y32403D01*
X175471Y33016D01*
X175803Y33818D01*
Y34686D01*
X175471Y35487D01*
X174935Y36024D01*
X175471Y36560D01*
X175803Y37361D01*
Y38229D01*
X175471Y39031D01*
X174935Y39567D01*
X175471Y40103D01*
X175803Y40905D01*
Y41772D01*
X175471Y42574D01*
X174857Y43188D01*
X174056Y43520D01*
D02*
G37*
G36*
X19331Y26591D02*
X18464D01*
X17662Y26259D01*
X17049Y25645D01*
X16716Y24843D01*
Y23976D01*
X17049Y23174D01*
X17662Y22560D01*
X18464Y22228D01*
X19331D01*
X20133Y22560D01*
X20747Y23174D01*
X21079Y23976D01*
Y24843D01*
X20747Y25645D01*
X20133Y26259D01*
X19331Y26591D01*
D02*
G37*
G36*
X172875Y21079D02*
X172007D01*
X171205Y20747D01*
X170592Y20133D01*
X170260Y19331D01*
Y18464D01*
X170592Y17662D01*
X171205Y17049D01*
X172007Y16716D01*
X172875D01*
X173676Y17049D01*
X174290Y17662D01*
X174622Y18464D01*
Y19331D01*
X174290Y20133D01*
X173676Y20747D01*
X172875Y21079D01*
D02*
G37*
G36*
X162639D02*
X161771D01*
X160969Y20747D01*
X160356Y20133D01*
X160024Y19331D01*
Y18464D01*
X160356Y17662D01*
X160969Y17049D01*
X161771Y16716D01*
X162639D01*
X163440Y17049D01*
X164054Y17662D01*
X164386Y18464D01*
Y19331D01*
X164054Y20133D01*
X163440Y20747D01*
X162639Y21079D01*
D02*
G37*
G36*
X79174Y11236D02*
X78306D01*
X77505Y10904D01*
X76891Y10291D01*
X76559Y9489D01*
Y8621D01*
X76891Y7820D01*
X77505Y7206D01*
X78306Y6874D01*
X79174D01*
X79976Y7206D01*
X80589Y7820D01*
X80921Y8621D01*
Y9489D01*
X80589Y10291D01*
X79976Y10904D01*
X79174Y11236D01*
D02*
G37*
G36*
X182324Y9268D02*
X181456D01*
X180654Y8936D01*
X180041Y8322D01*
X179709Y7520D01*
Y6653D01*
X180041Y5851D01*
X180654Y5238D01*
X181456Y4905D01*
X182324D01*
X183125Y5238D01*
X183739Y5851D01*
X184071Y6653D01*
Y7520D01*
X183739Y8322D01*
X183125Y8936D01*
X182324Y9268D01*
D02*
G37*
G36*
X102796Y9268D02*
X101928D01*
X101127Y8936D01*
X100513Y8322D01*
X100181Y7520D01*
Y6653D01*
X100513Y5851D01*
X101127Y5238D01*
X101928Y4905D01*
X102796D01*
X103598Y5238D01*
X104211Y5851D01*
X104543Y6653D01*
Y7520D01*
X104211Y8322D01*
X103598Y8936D01*
X102796Y9268D01*
D02*
G37*
G36*
X12607Y19898D02*
X11015D01*
X9452Y19587D01*
X7981Y18977D01*
X6656Y18092D01*
X5530Y16966D01*
X4645Y15642D01*
X4035Y14170D01*
X3724Y12607D01*
Y11015D01*
X4035Y9452D01*
X4645Y7981D01*
X5530Y6656D01*
X6656Y5530D01*
X7981Y4645D01*
X9452Y4035D01*
X11015Y3724D01*
X12607D01*
X14170Y4035D01*
X15642Y4645D01*
X16966Y5530D01*
X18092Y6656D01*
X18977Y7981D01*
X19587Y9452D01*
X19898Y11015D01*
Y12607D01*
X19587Y14170D01*
X18977Y15642D01*
X18092Y16966D01*
X16966Y18092D01*
X15642Y18977D01*
X14170Y19587D01*
X12607Y19898D01*
D02*
G37*
G36*
X127993Y7299D02*
X127125D01*
X126324Y6967D01*
X125710Y6354D01*
X125378Y5552D01*
Y4684D01*
X125710Y3883D01*
X126324Y3269D01*
X127125Y2937D01*
X127993D01*
X128795Y3269D01*
X129408Y3883D01*
X129740Y4684D01*
Y5552D01*
X129408Y6354D01*
X128795Y6967D01*
X127993Y7299D01*
D02*
G37*
G36*
X134292Y7299D02*
X133424D01*
X132623Y6967D01*
X132009Y6354D01*
X131677Y5552D01*
Y4684D01*
X132009Y3883D01*
X132623Y3269D01*
X133424Y2937D01*
X134292D01*
X135094Y3269D01*
X135707Y3883D01*
X136039Y4684D01*
Y5552D01*
X135707Y6354D01*
X135094Y6967D01*
X134292Y7299D01*
D02*
G37*
G36*
X114607Y13598D02*
X113739D01*
X112938Y13266D01*
X112324Y12653D01*
X111992Y11851D01*
Y10983D01*
X112324Y10182D01*
X112860Y9646D01*
X112324Y9110D01*
X111992Y8308D01*
Y7440D01*
X112324Y6639D01*
X112860Y6102D01*
X112324Y5566D01*
X111992Y4765D01*
Y3897D01*
X112324Y3095D01*
X112938Y2482D01*
X113739Y2150D01*
X114607D01*
X115409Y2482D01*
X116022Y3095D01*
X116354Y3897D01*
Y4765D01*
X116022Y5566D01*
X115486Y6102D01*
X116022Y6639D01*
X116354Y7440D01*
Y8308D01*
X116022Y9110D01*
X115486Y9646D01*
X116022Y10182D01*
X116354Y10983D01*
Y11851D01*
X116022Y12653D01*
X115409Y13266D01*
X114607Y13598D01*
D02*
G37*
G36*
X93347Y6118D02*
X92479D01*
X91678Y5786D01*
X91064Y5173D01*
X90732Y4371D01*
Y3503D01*
X91064Y2702D01*
X91678Y2088D01*
X92479Y1756D01*
X93347D01*
X94149Y2088D01*
X94762Y2702D01*
X95095Y3503D01*
Y4371D01*
X94762Y5173D01*
X94149Y5786D01*
X93347Y6118D01*
D02*
G37*
G36*
X84686D02*
X83818D01*
X83017Y5786D01*
X82403Y5173D01*
X82071Y4371D01*
Y3503D01*
X82403Y2702D01*
X83017Y2088D01*
X83818Y1756D01*
X84686D01*
X85488Y2088D01*
X86101Y2702D01*
X86433Y3503D01*
Y4371D01*
X86101Y5173D01*
X85488Y5786D01*
X84686Y6118D01*
D02*
G37*
%LPD*%
D73*
X302047Y245335D02*
D03*
X352047Y235335D02*
D03*
Y225335D02*
D03*
Y245335D02*
D03*
X302047Y235335D02*
D03*
Y225335D02*
D03*
X215630D02*
D03*
Y235335D02*
D03*
X265630Y245335D02*
D03*
Y225335D02*
D03*
Y235335D02*
D03*
X215630Y245335D02*
D03*
X121563Y245248D02*
D03*
X171563Y235248D02*
D03*
Y225248D02*
D03*
Y245248D02*
D03*
X121563Y235248D02*
D03*
Y225248D02*
D03*
X34106Y224882D02*
D03*
Y234882D02*
D03*
X84106Y244882D02*
D03*
Y224882D02*
D03*
Y234882D02*
D03*
X34106Y244882D02*
D03*
D80*
X219291Y119291D02*
D03*
X198031Y66929D02*
D03*
X177220Y124776D02*
D03*
X271287Y124862D02*
D03*
X89764Y124409D02*
D03*
X357705Y124862D02*
D03*
D81*
X120472Y70472D02*
X129134Y79134D01*
X120472Y64173D02*
Y70472D01*
D82*
X90551Y75197D02*
X95276Y79921D01*
X83858Y75197D02*
X90551D01*
X154555Y162512D02*
Y169119D01*
X154505Y169169D02*
X154555Y169119D01*
X154505Y169169D02*
Y180614D01*
X150006Y185112D02*
X154505Y180614D01*
X248622Y162598D02*
Y169206D01*
X248572Y169255D02*
X248622Y169206D01*
X248572Y169255D02*
Y180700D01*
X244074Y185199D02*
X248572Y180700D01*
X335039Y162598D02*
Y169206D01*
X334990Y169255D02*
X335039Y169206D01*
X334990Y169255D02*
Y180700D01*
X330491Y185199D02*
X334990Y180700D01*
X67098Y162146D02*
Y168753D01*
X67049Y168803D02*
X67098Y168753D01*
X67049Y168803D02*
Y180247D01*
X62550Y184746D02*
X67049Y180247D01*
D85*
X11811Y11811D02*
D03*
X374016D02*
D03*
X9843Y372047D02*
D03*
X375984D02*
D03*
D86*
X345472Y55876D02*
D03*
X284449D02*
D03*
D87*
X337461Y43868D02*
D03*
X292461D02*
D03*
D88*
X332441Y78868D02*
D03*
X327441Y68868D02*
D03*
X322441Y78868D02*
D03*
X317441Y68868D02*
D03*
X312441Y78868D02*
D03*
X307441Y68868D02*
D03*
X302441Y78868D02*
D03*
X297441Y68868D02*
D03*
D89*
X338492Y195335D02*
D03*
X330994D02*
D03*
X323494D02*
D03*
X315996D02*
D03*
X229579D02*
D03*
X237077D02*
D03*
X244577D02*
D03*
X252075D02*
D03*
X158008Y195248D02*
D03*
X150510D02*
D03*
X143010D02*
D03*
X135512D02*
D03*
X48055Y194882D02*
D03*
X55553D02*
D03*
X63053D02*
D03*
X70551D02*
D03*
D90*
X12598Y50906D02*
D03*
Y60905D02*
D03*
D91*
X38559Y299287D02*
D03*
Y339287D02*
D03*
X78559Y299287D02*
D03*
X128383D02*
D03*
Y339287D02*
D03*
X168383Y299287D02*
D03*
X218207D02*
D03*
Y339287D02*
D03*
X258207Y299287D02*
D03*
X308032D02*
D03*
Y339287D02*
D03*
X348031Y299287D02*
D03*
D92*
X78559Y339287D02*
D03*
X168383D02*
D03*
X258207D02*
D03*
X348031D02*
D03*
D93*
X133858Y5118D02*
D03*
X160122Y54331D02*
D03*
X224370Y125945D02*
D03*
X44861Y86237D02*
D03*
X34646Y88189D02*
D03*
X97638Y55512D02*
D03*
X83858Y75197D02*
D03*
X68504Y63779D02*
D03*
X64567Y67323D02*
D03*
X79921Y63779D02*
D03*
X84252Y3937D02*
D03*
X102362Y7087D02*
D03*
X114173Y11417D02*
D03*
X173622Y34252D02*
D03*
Y37795D02*
D03*
Y41339D02*
D03*
X198819Y38976D02*
D03*
X182293Y60902D02*
D03*
X197385Y72454D02*
D03*
Y76391D02*
D03*
X192266Y62218D02*
D03*
X174016Y52362D02*
D03*
X214173Y56693D02*
D03*
X127559Y5118D02*
D03*
X95276Y79921D02*
D03*
X89764Y81102D02*
D03*
X351969Y115748D02*
D03*
X306075Y183609D02*
D03*
Y172192D02*
D03*
Y177901D02*
D03*
X125760Y183609D02*
D03*
Y172192D02*
D03*
Y177901D02*
D03*
X311811Y125984D02*
D03*
X95276Y46850D02*
D03*
X146063Y79134D02*
D03*
X42913Y125591D02*
D03*
X171653Y116114D02*
D03*
X144543Y186193D02*
D03*
X38189Y177756D02*
D03*
X139032Y165327D02*
D03*
X148623Y145784D02*
D03*
X153150Y135039D02*
D03*
X123228Y117717D02*
D03*
X166591Y116114D02*
D03*
X134252Y112205D02*
D03*
X113386Y109449D02*
D03*
X135528Y168264D02*
D03*
X165803Y127532D02*
D03*
X129941Y125013D02*
D03*
X154555Y162512D02*
D03*
X150006Y185112D02*
D03*
X150110Y140099D02*
D03*
X141055Y140492D02*
D03*
X176772Y78347D02*
D03*
X228346Y112205D02*
D03*
X330594Y140185D02*
D03*
X244177D02*
D03*
X62653Y139732D02*
D03*
X321539Y140579D02*
D03*
X235122D02*
D03*
X53598Y140126D02*
D03*
X164567Y79528D02*
D03*
X165354Y64567D02*
D03*
X182677Y72441D02*
D03*
X18898Y24409D02*
D03*
X21260Y111417D02*
D03*
X11024D02*
D03*
X158661Y112205D02*
D03*
X38189Y172047D02*
D03*
X139032Y159815D02*
D03*
X162205Y18898D02*
D03*
X259870Y127618D02*
D03*
X229595Y168350D02*
D03*
X219291Y177953D02*
D03*
X248622Y162598D02*
D03*
X244074Y185199D02*
D03*
X33858Y48031D02*
D03*
X114173Y4331D02*
D03*
Y7874D02*
D03*
X78740Y9055D02*
D03*
X120472Y64173D02*
D03*
X26378Y103543D02*
D03*
X129134Y79134D02*
D03*
X252756Y112205D02*
D03*
X14567Y43701D02*
D03*
X10630D02*
D03*
X25984Y48425D02*
D03*
X39370Y52756D02*
D03*
X72441Y55905D02*
D03*
X117717Y80315D02*
D03*
X137795Y66535D02*
D03*
X99213Y43701D02*
D03*
X137008Y54724D02*
D03*
X46457Y111417D02*
D03*
X30709Y121653D02*
D03*
X36220Y116929D02*
D03*
X79134Y115748D02*
D03*
X66142Y135039D02*
D03*
X61166Y145418D02*
D03*
X51575Y164961D02*
D03*
X57087Y185827D02*
D03*
X71260Y111811D02*
D03*
X172441Y18898D02*
D03*
X84646Y115354D02*
D03*
X116760Y169713D02*
D03*
X128177Y163413D02*
D03*
X81496Y183858D02*
D03*
X38189Y183465D02*
D03*
X136221Y40945D02*
D03*
X139370Y48031D02*
D03*
X192126Y38583D02*
D03*
X182283Y67323D02*
D03*
X159055Y47638D02*
D03*
X149606Y47244D02*
D03*
X181890Y7087D02*
D03*
X339370Y112205D02*
D03*
X261024Y115929D02*
D03*
X247638Y135433D02*
D03*
X219291Y172047D02*
D03*
X168110Y184252D02*
D03*
X219291Y183858D02*
D03*
X238583Y186221D02*
D03*
X265748Y115854D02*
D03*
X314961Y112205D02*
D03*
X308268Y116929D02*
D03*
X346850Y115748D02*
D03*
X327559Y131496D02*
D03*
X262205Y185039D02*
D03*
X334252Y135039D02*
D03*
X349213Y184646D02*
D03*
X324803Y186614D02*
D03*
X92913Y3937D02*
D03*
X78347Y127165D02*
D03*
X48072Y167898D02*
D03*
X170866Y52362D02*
D03*
X316013Y168350D02*
D03*
X346287Y127618D02*
D03*
X335039Y162598D02*
D03*
X330491Y185199D02*
D03*
X67098Y162146D02*
D03*
X62550Y184746D02*
D03*
D94*
X79528Y67716D02*
D03*
X72835Y68504D02*
D03*
D95*
X137402Y72539D02*
D03*
X135630Y74902D02*
D03*
X139173D02*
D03*
X135630Y70177D02*
D03*
X139173D02*
D03*
M02*
