G04*
G04 #@! TF.GenerationSoftware,Altium Limited,Altium Designer,24.10.1 (45)*
G04*
G04 Layer_Color=8421504*
%FSLAX25Y25*%
%MOIN*%
G70*
G04*
G04 #@! TF.SameCoordinates,FAF2AA73-2D8A-4798-B806-2245389A78C8*
G04*
G04*
G04 #@! TF.FilePolarity,Positive*
G04*
G01*
G75*
%ADD24R,0.02756X0.03543*%
%ADD25R,0.03543X0.02756*%
%ADD26O,0.04803X0.02610*%
%ADD27R,0.04803X0.02610*%
%ADD28R,0.13386X0.07087*%
%ADD29R,0.03937X0.02756*%
%ADD30R,0.05512X0.03937*%
%ADD31R,0.04764X0.07165*%
%ADD32R,0.02756X0.03937*%
%ADD33R,0.06299X0.11811*%
%ADD34R,0.03543X0.03347*%
%ADD35R,0.07165X0.04764*%
%ADD36R,0.05000X0.15512*%
G04:AMPARAMS|DCode=37|XSize=23.62mil|YSize=39.37mil|CornerRadius=2.01mil|HoleSize=0mil|Usage=FLASHONLY|Rotation=90.000|XOffset=0mil|YOffset=0mil|HoleType=Round|Shape=RoundedRectangle|*
%AMROUNDEDRECTD37*
21,1,0.02362,0.03535,0,0,90.0*
21,1,0.01961,0.03937,0,0,90.0*
1,1,0.00402,0.01768,0.00980*
1,1,0.00402,0.01768,-0.00980*
1,1,0.00402,-0.01768,-0.00980*
1,1,0.00402,-0.01768,0.00980*
%
%ADD37ROUNDEDRECTD37*%
%ADD38R,0.03347X0.03543*%
%ADD39R,0.03150X0.03150*%
%ADD40R,0.01772X0.05709*%
%ADD41O,0.06693X0.01772*%
%ADD42R,0.06181X0.07441*%
%ADD43R,0.07559X0.06614*%
%ADD44R,0.14173X0.10630*%
%ADD45R,0.03937X0.05512*%
D24*
X160630Y112146D02*
D03*
X155118D02*
D03*
X155512Y118445D02*
D03*
X150000D02*
D03*
X138992Y125819D02*
D03*
X144504D02*
D03*
X171654Y112146D02*
D03*
X166142D02*
D03*
X176772Y118445D02*
D03*
X171260D02*
D03*
X160630Y118445D02*
D03*
X166142D02*
D03*
X174917Y183772D02*
D03*
X180429D02*
D03*
X146402Y172413D02*
D03*
X151913D02*
D03*
Y184224D02*
D03*
X146402D02*
D03*
Y178319D02*
D03*
X151913D02*
D03*
X32748Y125453D02*
D03*
X38260D02*
D03*
X65409Y111780D02*
D03*
X59898D02*
D03*
X54386D02*
D03*
X48874D02*
D03*
X54386Y118079D02*
D03*
X59898D02*
D03*
X45669Y177953D02*
D03*
X40157D02*
D03*
Y183858D02*
D03*
X45669D02*
D03*
X70528Y118079D02*
D03*
X65016D02*
D03*
X49268Y118079D02*
D03*
X43756D02*
D03*
X68673Y183405D02*
D03*
X74185D02*
D03*
X45669Y172047D02*
D03*
X40157D02*
D03*
X286669Y183858D02*
D03*
X281157D02*
D03*
X392913Y183858D02*
D03*
X387402D02*
D03*
X258154Y184311D02*
D03*
X252642D02*
D03*
X364398Y184311D02*
D03*
X358886D02*
D03*
X383744Y118532D02*
D03*
X378626Y118532D02*
D03*
Y112232D02*
D03*
X373114D02*
D03*
Y118532D02*
D03*
X367996D02*
D03*
X277500Y118532D02*
D03*
X272382Y118532D02*
D03*
Y112232D02*
D03*
X261752Y118532D02*
D03*
X266870Y112232D02*
D03*
Y118532D02*
D03*
X256240D02*
D03*
X362484Y118532D02*
D03*
X283012Y118532D02*
D03*
X389256Y118532D02*
D03*
X258154Y172500D02*
D03*
X252642D02*
D03*
X364398Y172500D02*
D03*
X358886D02*
D03*
X202756Y57480D02*
D03*
X208268D02*
D03*
X190157Y67323D02*
D03*
X184646D02*
D03*
X245232Y125906D02*
D03*
X250744D02*
D03*
X356988Y125906D02*
D03*
X351476D02*
D03*
X261358Y112232D02*
D03*
X277894D02*
D03*
X384138Y112232D02*
D03*
X367602D02*
D03*
X252642Y178405D02*
D03*
X258154D02*
D03*
X358886Y178405D02*
D03*
X364398D02*
D03*
D25*
X184153Y140689D02*
D03*
Y135177D02*
D03*
X188484Y124843D02*
D03*
Y119331D02*
D03*
X182579Y124843D02*
D03*
Y119331D02*
D03*
X190453Y140591D02*
D03*
Y135079D02*
D03*
X143405Y140689D02*
D03*
Y135177D02*
D03*
X137106Y140689D02*
D03*
Y135177D02*
D03*
X160181Y159421D02*
D03*
Y153909D02*
D03*
X171205D02*
D03*
Y159421D02*
D03*
X84209Y140224D02*
D03*
Y134713D02*
D03*
X64961Y153543D02*
D03*
Y159055D02*
D03*
X53937Y153543D02*
D03*
Y159055D02*
D03*
X30862Y140323D02*
D03*
Y134811D02*
D03*
X76335Y124476D02*
D03*
Y118965D02*
D03*
X82240Y124476D02*
D03*
Y118965D02*
D03*
X77909Y140323D02*
D03*
Y134811D02*
D03*
X37161D02*
D03*
Y140323D02*
D03*
X196457Y48425D02*
D03*
Y42913D02*
D03*
X296693Y135165D02*
D03*
Y140677D02*
D03*
X372665Y153996D02*
D03*
Y159508D02*
D03*
X266421Y159508D02*
D03*
Y153996D02*
D03*
X383689Y159508D02*
D03*
Y153996D02*
D03*
X277445Y159508D02*
D03*
Y153996D02*
D03*
X290394Y135264D02*
D03*
Y140776D02*
D03*
X396638Y135264D02*
D03*
Y140776D02*
D03*
X249646Y135264D02*
D03*
Y140776D02*
D03*
X355890Y135264D02*
D03*
Y140776D02*
D03*
X294724Y124929D02*
D03*
Y119417D02*
D03*
X400969Y119417D02*
D03*
Y124929D02*
D03*
X288819Y124929D02*
D03*
Y119417D02*
D03*
X395063Y119417D02*
D03*
Y124929D02*
D03*
X349590Y135264D02*
D03*
Y140776D02*
D03*
X243346Y140776D02*
D03*
Y135264D02*
D03*
X402937Y135165D02*
D03*
Y140677D02*
D03*
D26*
X175535Y145661D02*
D03*
Y140661D02*
D03*
Y135661D02*
D03*
Y130661D02*
D03*
X151913D02*
D03*
Y135661D02*
D03*
Y140661D02*
D03*
X45669Y140295D02*
D03*
Y135295D02*
D03*
Y130295D02*
D03*
X69291D02*
D03*
Y135295D02*
D03*
Y140295D02*
D03*
Y145295D02*
D03*
X364398Y140748D02*
D03*
Y135748D02*
D03*
Y130748D02*
D03*
X388020D02*
D03*
Y135748D02*
D03*
Y140748D02*
D03*
Y145748D02*
D03*
X281776Y145748D02*
D03*
Y140748D02*
D03*
Y135748D02*
D03*
Y130748D02*
D03*
X258154D02*
D03*
Y135748D02*
D03*
Y140748D02*
D03*
D27*
X151913Y145661D02*
D03*
X45669Y145295D02*
D03*
X364398Y145748D02*
D03*
X258154Y145748D02*
D03*
D28*
X179642Y175898D02*
D03*
X138079Y158661D02*
D03*
X163055Y175461D02*
D03*
X31496Y158661D02*
D03*
X56811Y175094D02*
D03*
X73398Y175531D02*
D03*
X243114Y158661D02*
D03*
X350342Y158661D02*
D03*
X269295Y175547D02*
D03*
X375539Y175547D02*
D03*
X285882Y175984D02*
D03*
X392126Y175984D02*
D03*
D29*
X189764Y49108D02*
D03*
Y43005D02*
D03*
X76378Y19587D02*
D03*
Y13484D02*
D03*
X90945Y28839D02*
D03*
Y34941D02*
D03*
X87402Y78248D02*
D03*
Y72146D02*
D03*
X23622Y52854D02*
D03*
Y58957D02*
D03*
X101575Y59547D02*
D03*
Y65650D02*
D03*
X119685Y80610D02*
D03*
Y74508D02*
D03*
X77165Y70768D02*
D03*
Y64665D02*
D03*
D30*
X181102Y47638D02*
D03*
X170866D02*
D03*
X43307Y71653D02*
D03*
X53543D02*
D03*
X163386Y61417D02*
D03*
X153150D02*
D03*
D31*
X190354Y79528D02*
D03*
X178937D02*
D03*
X53740Y80709D02*
D03*
X42323D02*
D03*
X146653Y61417D02*
D03*
X135236D02*
D03*
X163189Y48031D02*
D03*
X151772D02*
D03*
D32*
X184744Y72835D02*
D03*
X190847D02*
D03*
X157776Y70079D02*
D03*
X151673D02*
D03*
X128642Y63386D02*
D03*
X122539D02*
D03*
X78839Y40157D02*
D03*
X84941D02*
D03*
X155217Y54724D02*
D03*
X161319D02*
D03*
D33*
X164961Y36614D02*
D03*
Y19291D02*
D03*
X106693Y25591D02*
D03*
Y8268D02*
D03*
D34*
X179527Y24508D02*
D03*
Y30610D02*
D03*
X124815Y22539D02*
D03*
Y28642D02*
D03*
X92913Y76673D02*
D03*
Y70571D02*
D03*
X99213Y71752D02*
D03*
Y77854D02*
D03*
X95431Y65870D02*
D03*
Y59768D02*
D03*
X6299Y31004D02*
D03*
Y24902D02*
D03*
D35*
X32283Y71457D02*
D03*
Y82874D02*
D03*
X90945Y20276D02*
D03*
Y8858D02*
D03*
X83071Y20276D02*
D03*
Y8858D02*
D03*
X31102Y64764D02*
D03*
Y53347D02*
D03*
X127206Y55890D02*
D03*
Y44472D02*
D03*
X62205Y64764D02*
D03*
Y76181D02*
D03*
X70472Y64764D02*
D03*
Y76181D02*
D03*
D36*
X8779Y77126D02*
D03*
X18779D02*
D03*
X8779Y101614D02*
D03*
X18779D02*
D03*
D37*
X184449Y61516D02*
D03*
Y57776D02*
D03*
Y54035D02*
D03*
X195276D02*
D03*
Y57776D02*
D03*
Y61516D02*
D03*
D38*
X85728Y34646D02*
D03*
X79626D02*
D03*
X151969Y74803D02*
D03*
X158071D02*
D03*
Y79528D02*
D03*
X151969D02*
D03*
X96752Y40157D02*
D03*
X90650D02*
D03*
D39*
X125435Y15748D02*
D03*
Y9449D02*
D03*
X179527Y17717D02*
D03*
Y11417D02*
D03*
X12205Y24803D02*
D03*
Y31102D02*
D03*
D40*
X82382Y46850D02*
D03*
X84941D02*
D03*
X87500D02*
D03*
X90059D02*
D03*
X82382Y64173D02*
D03*
X84941D02*
D03*
X87500D02*
D03*
X90059D02*
D03*
D41*
X143307Y69095D02*
D03*
Y71653D02*
D03*
Y74213D02*
D03*
Y76772D02*
D03*
X126772Y69095D02*
D03*
Y71653D02*
D03*
Y74213D02*
D03*
Y76772D02*
D03*
D42*
X135039Y72933D02*
D03*
D43*
X60213Y52665D02*
D03*
X75016D02*
D03*
D44*
X52756Y38976D02*
D03*
Y7480D02*
D03*
D45*
X118110Y57087D02*
D03*
Y46850D02*
D03*
M02*
