G04*
G04 #@! TF.GenerationSoftware,Altium Limited,Altium Designer,25.2.1 (25)*
G04*
G04 Layer_Color=32896*
%FSLAX25Y25*%
%MOIN*%
G70*
G04*
G04 #@! TF.SameCoordinates,F407CCA4-E1A1-4AAD-8540-8404F0AA80AE*
G04*
G04*
G04 #@! TF.FilePolarity,Positive*
G04*
G01*
G75*
%ADD15C,0.00787*%
%ADD96C,0.00013*%
G36*
X78983Y54726D02*
X79351Y54574D01*
X79668Y54331D01*
X79668Y54330D01*
X79668Y54330D01*
X79911Y54014D01*
X80064Y53645D01*
X80099Y53376D01*
X80116Y53249D01*
X80116Y53116D01*
Y32139D01*
X80105D01*
X80151Y31909D01*
X80281Y31714D01*
X80476Y31584D01*
X80706Y31538D01*
X80709Y31539D01*
X80838Y31549D01*
X95369D01*
Y31547D01*
X95590Y31503D01*
X95777Y31378D01*
X95847Y31274D01*
X95902Y31191D01*
X95946Y30971D01*
X95902Y30750D01*
X95777Y30563D01*
X95672Y30493D01*
X95590Y30438D01*
X95369Y30394D01*
Y30393D01*
X80489D01*
X80488Y30393D01*
X80097Y30444D01*
X79728Y30597D01*
X79505Y30768D01*
X79404Y30849D01*
X79167Y31158D01*
X79014Y31528D01*
X78962Y31924D01*
X78964Y31938D01*
X78962Y31938D01*
X78962Y31938D01*
Y52905D01*
X78973Y53034D01*
X78973Y53034D01*
X78927Y53266D01*
X78796Y53461D01*
X78600Y53592D01*
X78372Y53638D01*
X78372Y53627D01*
X78372Y53627D01*
X61124D01*
X61124Y53627D01*
X61124Y53638D01*
X60896Y53592D01*
X60700Y53461D01*
X60569Y53266D01*
X60523Y53034D01*
X60534Y53034D01*
Y32058D01*
X60534Y31924D01*
X60517Y31795D01*
X60482Y31528D01*
X60329Y31158D01*
X60085Y30841D01*
X59768Y30597D01*
X59399Y30444D01*
X59005Y30393D01*
Y30393D01*
X52750D01*
X52748Y30395D01*
X52748D01*
X52530Y30438D01*
X52443Y30496D01*
X52339Y30569D01*
X52218Y30750D01*
X52197Y30857D01*
X52175Y30976D01*
X52176Y30982D01*
X52199Y31107D01*
X52218Y31203D01*
X52343Y31390D01*
X52530Y31515D01*
X52748Y31558D01*
X52748Y31558D01*
Y31558D01*
X52750Y31560D01*
X58657D01*
X58787Y31550D01*
X58790Y31549D01*
X59020Y31595D01*
X59214Y31724D01*
X59215Y31725D01*
X59345Y31920D01*
X59391Y32150D01*
X59391Y32150D01*
X59380Y32280D01*
Y53116D01*
Y53249D01*
X59397Y53379D01*
X59432Y53645D01*
X59585Y54014D01*
X59827Y54330D01*
X59828Y54330D01*
X59828Y54331D01*
X60144Y54574D01*
X60513Y54726D01*
X60909Y54778D01*
X60909Y54778D01*
X78587D01*
X78587Y54778D01*
X78983Y54726D01*
D02*
G37*
G36*
X102047D02*
X102416Y54574D01*
X102732Y54331D01*
X102733Y54330D01*
X102733Y54330D01*
X102976Y54014D01*
X103129Y53645D01*
X103181Y53250D01*
X103180Y53249D01*
Y38019D01*
X103179D01*
X103135Y37799D01*
X103080Y37717D01*
X103010Y37612D01*
X102823Y37487D01*
X102728Y37468D01*
X102602Y37443D01*
Y37443D01*
X102383Y37487D01*
X102197Y37611D01*
X102072Y37797D01*
X102028Y38017D01*
X102029Y38019D01*
X102027Y38019D01*
X102027Y38019D01*
Y53032D01*
X102038Y53043D01*
X101992Y53274D01*
X101861Y53470D01*
X101665Y53601D01*
X101434Y53647D01*
Y53636D01*
X86432D01*
X86302Y53647D01*
X86300Y53648D01*
X86299Y53648D01*
X86177Y53597D01*
X86126Y53475D01*
X86126Y53474D01*
X86167Y53376D01*
X86249Y53272D01*
X102220Y31630D01*
X102220Y31628D01*
X102220Y31628D01*
X102303Y31572D01*
X102347Y31563D01*
X102348Y31563D01*
X119068D01*
X119198Y31553D01*
X119201Y31552D01*
X119431Y31598D01*
X119624Y31727D01*
X119624D01*
X119626Y31728D01*
X119756Y31923D01*
X119802Y32153D01*
Y32153D01*
X119791Y32282D01*
Y54086D01*
X119792Y54086D01*
X119836Y54306D01*
X119961Y54493D01*
X120148Y54618D01*
X120366Y54662D01*
Y54662D01*
X120495Y54636D01*
X120587Y54618D01*
X120669Y54563D01*
X120774Y54493D01*
X120899Y54306D01*
X120943Y54086D01*
X120944D01*
Y32058D01*
Y31924D01*
X120944D01*
X120928Y31795D01*
X120893Y31528D01*
X120739Y31158D01*
X120496Y30841D01*
X120179Y30597D01*
X119809Y30444D01*
X119415Y30393D01*
Y30393D01*
X102356D01*
X102349Y30400D01*
X102349D01*
X102049Y30439D01*
X101715Y30578D01*
X101428Y30798D01*
X101308Y30955D01*
X101308D01*
X101290Y30957D01*
X84587Y53563D01*
X84587Y53563D01*
X84596Y53571D01*
X84518Y53673D01*
X84445Y53850D01*
X84420Y54040D01*
X84445Y54229D01*
X84518Y54406D01*
X84635Y54558D01*
X84787Y54675D01*
X84964Y54748D01*
X85153Y54773D01*
X85199Y54767D01*
X85201Y54778D01*
X101651D01*
X101652Y54778D01*
X102047Y54726D01*
D02*
G37*
G36*
X71054Y23274D02*
X71849Y23116D01*
X72592Y22864D01*
X72593Y22861D01*
Y22861D01*
X72593Y22861D01*
X73172Y22576D01*
X73730Y22203D01*
X74234Y21761D01*
X74470Y21491D01*
X74471Y21492D01*
X74679Y21254D01*
X75129Y20581D01*
X75488Y19853D01*
X75673Y19308D01*
Y19308D01*
X75681Y19303D01*
X75909Y18392D01*
X76060Y17374D01*
X76110Y16346D01*
X76060Y15318D01*
X75909Y14300D01*
X75681Y13390D01*
X75672Y13385D01*
X75614Y13184D01*
X75340Y12523D01*
X74995Y11897D01*
X74581Y11314D01*
X74463Y11183D01*
X74462Y11184D01*
X74208Y10895D01*
X73716Y10463D01*
X73171Y10099D01*
X72602Y9818D01*
X72591Y9823D01*
D01*
X72591D01*
X72591D01*
X72350Y9723D01*
X71629Y9516D01*
X70891Y9390D01*
X70143Y9348D01*
X69394Y9390D01*
X68656Y9516D01*
X67935Y9723D01*
X67694Y9823D01*
X67694D01*
X67694D01*
D01*
X67685Y9819D01*
X67122Y10097D01*
X66562Y10470D01*
X66056Y10914D01*
X65812Y11193D01*
X65810Y11191D01*
X65704Y11310D01*
X65294Y11887D01*
X64951Y12507D01*
X64680Y13161D01*
X64613Y13394D01*
X64613D01*
X64605Y13398D01*
X64382Y14289D01*
X64231Y15308D01*
X64180Y16338D01*
X64231Y17368D01*
X64382Y18387D01*
X64605Y19279D01*
X64612Y19283D01*
X64612D01*
X64612Y19283D01*
X64796Y19825D01*
X65156Y20555D01*
X65609Y21232D01*
X65817Y21470D01*
X65818Y21469D01*
X66068Y21755D01*
X66570Y22195D01*
X67125Y22566D01*
X67686Y22843D01*
X67698Y22838D01*
X68021Y22972D01*
X68697Y23167D01*
X69389Y23285D01*
X70038Y23321D01*
X70172Y23320D01*
X70306Y23323D01*
X71054Y23274D01*
D02*
G37*
G36*
X100608Y23317D02*
X100742Y23321D01*
X101102Y23305D01*
X101235Y23299D01*
X101569Y23283D01*
X101570Y23282D01*
X101753Y23273D01*
X102013Y23235D01*
X102145Y23217D01*
X102430Y23169D01*
X102430Y23169D01*
Y23169D01*
X102694Y23124D01*
X102824Y23091D01*
X102979Y23060D01*
X103191Y22988D01*
X103191Y22987D01*
X103409Y22913D01*
X103534Y22870D01*
X103550Y22865D01*
X103659Y22824D01*
X103849Y22730D01*
X103973Y22678D01*
X104304Y22475D01*
X104413Y22407D01*
X104515Y22325D01*
X104830Y22057D01*
X105167Y21661D01*
X105453Y21195D01*
X105552Y20955D01*
X105552D01*
X105603Y20832D01*
X105674Y20660D01*
X105668Y20646D01*
X105735Y20449D01*
X105768Y20320D01*
X105794Y20193D01*
X105882Y19747D01*
X105868Y19690D01*
X105795Y19613D01*
X104546D01*
X104525Y19825D01*
X104390Y20272D01*
X104169Y20685D01*
X103872Y21046D01*
X103542Y21317D01*
X103511Y21343D01*
X103431Y21386D01*
Y21386D01*
X103230Y21494D01*
X103233Y21501D01*
X103012Y21592D01*
Y21592D01*
X102778Y21689D01*
X102779Y21691D01*
X102755Y21700D01*
X102652Y21725D01*
X102528Y21755D01*
X102522Y21765D01*
X102370Y21795D01*
X102246Y21820D01*
X102245Y21821D01*
X102244Y21820D01*
X102122Y21845D01*
X101954Y21878D01*
X101948Y21874D01*
X101773Y21904D01*
X101672Y21921D01*
X101643Y21924D01*
Y21924D01*
X101445Y21936D01*
X101312Y21944D01*
X100726Y21973D01*
X100612Y21978D01*
X100595Y21978D01*
X100461Y21976D01*
X100381Y21982D01*
X99674Y21935D01*
X98979Y21797D01*
X98565Y21656D01*
X98563Y21661D01*
X98563Y21662D01*
X98495Y21641D01*
X98439Y21611D01*
X98064Y21410D01*
X97686Y21100D01*
X97526Y20905D01*
X97443Y20805D01*
X97246Y20482D01*
X97072Y20062D01*
X96973Y19653D01*
X96965Y19620D01*
X96958Y19521D01*
X96943Y19387D01*
X96890Y18985D01*
X96848Y18025D01*
X96846Y17978D01*
Y17978D01*
X96849Y17905D01*
X96859Y17900D01*
X96859Y17900D01*
X96864Y17898D01*
X96864Y17898D01*
X96864D01*
X98456Y17898D01*
Y17897D01*
X98466Y17897D01*
X99089Y17876D01*
X99222Y17872D01*
X99356Y17867D01*
X99817Y17851D01*
X99950Y17842D01*
X100083Y17836D01*
X100084Y17836D01*
X100505Y17786D01*
X100637Y17771D01*
X100770Y17755D01*
X101285Y17687D01*
X101286Y17686D01*
X101463Y17663D01*
X101894Y17568D01*
Y17568D01*
X102025Y17541D01*
X102463Y17431D01*
X102464Y17430D01*
Y17430D01*
X102673Y17378D01*
X102993Y17263D01*
X103121Y17223D01*
X103483Y17073D01*
X103607Y17022D01*
X104119Y16769D01*
X104237Y16690D01*
X104346Y16617D01*
X104666Y16421D01*
X105143Y16013D01*
X105551Y15535D01*
X105879Y15000D01*
X106120Y14420D01*
X106266Y13809D01*
X106313Y13212D01*
X106310Y13121D01*
X106307Y13079D01*
X106307D01*
X106306Y12945D01*
X106269Y12467D01*
X106137Y11918D01*
X106035Y11672D01*
X105984Y11550D01*
X105984D01*
X105921Y11397D01*
X105633Y10927D01*
X105275Y10508D01*
X105113Y10369D01*
X105113Y10369D01*
X104852Y10147D01*
X104329Y9826D01*
X103930Y9661D01*
X103803Y9618D01*
X103495Y9513D01*
X102855Y9386D01*
X102296Y9349D01*
X102164Y9346D01*
X102031Y9348D01*
X101212Y9388D01*
X100868Y9439D01*
X100735Y9454D01*
X100092Y9582D01*
X99704Y9714D01*
X99580Y9755D01*
X99455Y9801D01*
X98891Y10034D01*
X98374Y10320D01*
X98260Y10391D01*
X98260D01*
X97863Y10629D01*
X97124Y11177D01*
X97074Y11223D01*
X96982Y11306D01*
X96868Y11409D01*
X96850Y11399D01*
X96848Y11394D01*
X96848Y11246D01*
Y11123D01*
Y9684D01*
X95469D01*
Y18371D01*
X95469Y18371D01*
X95474Y18371D01*
X95470Y18455D01*
X95515Y19259D01*
X95650Y20053D01*
X95759Y20434D01*
X95756Y20435D01*
X95786Y20561D01*
X96015Y21113D01*
X96327Y21622D01*
X96644Y21993D01*
X96737Y22086D01*
X97131Y22422D01*
X97662Y22747D01*
X98222Y22979D01*
X98233Y22975D01*
X98826Y23145D01*
X99626Y23281D01*
X100437Y23327D01*
X100608Y23317D01*
D02*
G37*
G36*
X60824Y9684D02*
X59444D01*
Y19399D01*
X59442Y19404D01*
X59446Y19408D01*
X58881Y20032D01*
X58142Y20701D01*
X57434Y21227D01*
X57341Y21295D01*
X57325Y21305D01*
X57320Y21298D01*
X56925Y21540D01*
X56342Y21781D01*
X55728Y21929D01*
X55124Y21976D01*
Y21976D01*
X55008Y21981D01*
X54991Y21979D01*
X54330Y21927D01*
X53784Y21796D01*
X53669Y21769D01*
X53654Y21762D01*
X53529Y21713D01*
X53519Y21710D01*
X53127Y21501D01*
X52783Y21218D01*
X52684Y21097D01*
X52684Y21096D01*
X52600Y20993D01*
X52528Y20907D01*
X52278Y20438D01*
X52139Y19980D01*
X52139Y19980D01*
X52015Y19251D01*
X51973Y18504D01*
X51971Y18468D01*
X51977Y18370D01*
X51982Y18238D01*
Y9684D01*
X50603D01*
Y18490D01*
X50603Y18490D01*
X50605Y18490D01*
X50604Y18513D01*
X50641Y19276D01*
X50652Y19409D01*
X50652D01*
X50660Y19555D01*
X50753Y20099D01*
X50780Y20230D01*
X50837Y20517D01*
X50986Y20954D01*
X51029Y21081D01*
X51175Y21433D01*
X51449Y21880D01*
X51789Y22278D01*
X52187Y22618D01*
X52628Y22888D01*
X52629Y22888D01*
X52629Y22888D01*
Y22888D01*
X53122Y23092D01*
X53250Y23124D01*
X53378Y23161D01*
X53976Y23280D01*
X54603Y23321D01*
X54716Y23322D01*
X54736Y23321D01*
Y23321D01*
X54868Y23315D01*
X55433Y23283D01*
X55761Y23227D01*
X55893Y23205D01*
X56265Y23131D01*
X56779Y22956D01*
X56904Y22911D01*
X57023Y22855D01*
X57569Y22586D01*
X58129Y22212D01*
X58131Y22205D01*
X58311Y22078D01*
X59014Y21449D01*
X59220Y21219D01*
X59302Y21127D01*
X59414Y21001D01*
X59428Y21007D01*
X59429Y21007D01*
X59434Y21009D01*
X59436Y21014D01*
X59436Y21178D01*
Y21178D01*
X59436Y21301D01*
X59444Y28482D01*
X60824D01*
Y9684D01*
D02*
G37*
G36*
X40928Y23318D02*
Y23318D01*
X41062Y23314D01*
X41602Y23284D01*
X41868Y23239D01*
X41877Y23246D01*
X42471Y23103D01*
X42903Y22924D01*
X42903D01*
X42904Y22924D01*
X43413Y22673D01*
X44057Y22243D01*
X44059Y22228D01*
Y22228D01*
X44298Y22051D01*
X44946Y21464D01*
X45169Y21218D01*
X45252Y21126D01*
X45252D01*
X45365Y21002D01*
X45378Y21007D01*
X45378Y21007D01*
X45378Y21007D01*
X45383Y21009D01*
X45384Y21009D01*
X45386Y21014D01*
Y21178D01*
X45386Y21302D01*
Y22984D01*
X46765D01*
Y9684D01*
X45386D01*
Y19366D01*
Y19366D01*
X45384Y19370D01*
X45386Y19372D01*
X45241Y19568D01*
X44598Y20277D01*
X43889Y20919D01*
X43392Y21288D01*
X43397Y21295D01*
X42931Y21580D01*
X42403Y21799D01*
X41847Y21932D01*
X41308Y21975D01*
Y21975D01*
X41209Y21978D01*
X41174Y21975D01*
X40687Y21936D01*
X40178Y21814D01*
X40172Y21812D01*
X40049Y21763D01*
X39989Y21744D01*
X39926Y21711D01*
X39670Y21574D01*
X39390Y21344D01*
X39208Y21123D01*
X39202Y21127D01*
X39202Y21127D01*
X39186Y21108D01*
X39134Y21011D01*
X38930Y20628D01*
X38780Y20135D01*
X38772Y20107D01*
X38761Y20004D01*
X38764Y20003D01*
X38670Y19366D01*
X38627Y18503D01*
X38627Y18488D01*
X38632Y18370D01*
X38638Y18238D01*
Y9678D01*
X37258D01*
Y19360D01*
X37256Y19365D01*
X37257Y19365D01*
X37089Y19591D01*
X36512Y20228D01*
X35876Y20805D01*
X35224Y21288D01*
X35221Y21285D01*
X34802Y21542D01*
X34229Y21779D01*
X33626Y21924D01*
X33184Y21959D01*
X33057Y21970D01*
Y21970D01*
X33053Y21971D01*
X32901Y21961D01*
X32768Y21953D01*
X32495Y21931D01*
Y21931D01*
X32384Y21922D01*
X32363Y21917D01*
X32239Y21887D01*
X32239Y21887D01*
X32000Y21829D01*
X32001Y21826D01*
X31876Y21788D01*
X31777Y21758D01*
X31741Y21746D01*
X31577Y21658D01*
X31577D01*
X31575Y21657D01*
X31575Y21657D01*
X31460Y21596D01*
X31387Y21557D01*
Y21557D01*
X31380Y21551D01*
X31290Y21478D01*
X31287Y21475D01*
X31283Y21472D01*
X31120Y21338D01*
X30944Y21123D01*
X30942Y21124D01*
X30942Y21124D01*
X30905Y21079D01*
X30832Y20942D01*
X30832Y20942D01*
X30832D01*
X30726Y20744D01*
X30730Y20742D01*
X30638Y20521D01*
X30637Y20521D01*
X30595Y20418D01*
X30592Y20407D01*
X30592Y20407D01*
X30590Y20398D01*
X30558Y20278D01*
X30540Y20225D01*
X30523Y20143D01*
X30497Y20012D01*
X30440Y19727D01*
X30440D01*
X30421Y19595D01*
X30414Y19549D01*
X30390Y19421D01*
X30379Y19225D01*
X30371Y19091D01*
X30342Y18502D01*
X30336Y18391D01*
X30337Y18371D01*
X30348Y18241D01*
Y9684D01*
X29063D01*
X28969Y9779D01*
X28985Y18490D01*
X28986Y18490D01*
X28985Y18519D01*
X29022Y19276D01*
X29032Y19409D01*
X29045Y19648D01*
X29122Y20099D01*
X29145Y20230D01*
X29171Y20361D01*
X29231Y20662D01*
X29331Y20954D01*
X29331Y20954D01*
X29331Y20954D01*
X29440Y21277D01*
X29590Y21581D01*
X29648Y21702D01*
X29853Y22036D01*
X30161Y22397D01*
X30521Y22704D01*
X30811Y22882D01*
X30811D01*
X30926Y22949D01*
X31243Y23081D01*
X31364Y23129D01*
X31488Y23159D01*
X31967Y23274D01*
X32570Y23322D01*
X32700Y23323D01*
X32703Y23323D01*
Y23323D01*
X32834Y23315D01*
X33406Y23283D01*
X33875Y23204D01*
X33876Y23203D01*
X34254Y23127D01*
X34899Y22909D01*
X35076Y22821D01*
X35076Y22820D01*
X35492Y22614D01*
X36111Y22201D01*
X36253Y22077D01*
X36252Y22076D01*
X36665Y21714D01*
X37200Y21104D01*
X37347Y20883D01*
X37377Y20889D01*
X37399Y20979D01*
X37411Y21010D01*
X37416Y21021D01*
X37603Y21472D01*
X37880Y21925D01*
X38225Y22329D01*
X38596Y22646D01*
X38708Y22717D01*
X38822Y22787D01*
X39000Y22896D01*
X39575Y23134D01*
X40179Y23279D01*
X40798Y23328D01*
X40928Y23318D01*
D02*
G37*
G36*
X91740Y27119D02*
X80070D01*
X80068Y27118D01*
X80066Y27117D01*
X80066Y27117D01*
X80065Y27117D01*
X80065Y27117D01*
X80064Y27115D01*
X80063Y27112D01*
X80063Y27112D01*
X80063Y27112D01*
X80064Y27110D01*
X80064Y27107D01*
X80164Y26985D01*
X80243Y26890D01*
X92867Y11495D01*
Y9684D01*
X78293D01*
Y11044D01*
X91187D01*
X91311Y11044D01*
X91469D01*
X91471Y11045D01*
X91473Y11046D01*
X91473Y11046D01*
X91473Y11046D01*
X91474Y11046D01*
X91475Y11049D01*
X91476Y11051D01*
X91476Y11051D01*
X91476Y11051D01*
X91476Y11051D01*
X91475Y11054D01*
X91474Y11056D01*
X91374Y11178D01*
Y11178D01*
X91295Y11274D01*
X78650Y26651D01*
Y28482D01*
X91740D01*
Y27119D01*
D02*
G37*
G36*
X121366Y22991D02*
X121368Y22986D01*
X121373Y22984D01*
X123080D01*
Y21623D01*
X121373D01*
X121368Y21621D01*
X121366Y21616D01*
Y13474D01*
X121365Y13474D01*
X121360Y13474D01*
X121365Y13352D01*
X121318Y12161D01*
X121267Y11731D01*
X121266Y11731D01*
X121249Y11513D01*
X121132Y11023D01*
X120961Y10611D01*
X120896Y10495D01*
X120896D01*
X120836Y10382D01*
X120619Y10119D01*
X120356Y9903D01*
X120077Y9754D01*
X120069Y9757D01*
X119846Y9664D01*
X119314Y9537D01*
X118769Y9494D01*
X118630Y9505D01*
X118502Y9495D01*
X118453Y9495D01*
X118394Y9496D01*
X118394D01*
X118351Y9497D01*
X118218Y9512D01*
X118218Y9512D01*
X118042Y9524D01*
X117908Y9521D01*
X117865Y9525D01*
X117747Y9534D01*
X117630Y9545D01*
X117460Y9563D01*
X117457Y10743D01*
X117508Y10808D01*
X117581Y10859D01*
X117586Y10860D01*
X117645Y10858D01*
X117645Y10858D01*
X117675Y10858D01*
X117675Y10858D01*
X117705Y10857D01*
X117762Y10857D01*
X117959D01*
X118091Y10850D01*
X118137Y10846D01*
X118225Y10853D01*
X118722Y10892D01*
X118770Y10904D01*
X118899Y10933D01*
X118966Y10942D01*
X119026Y10967D01*
X119233Y11053D01*
X119407Y11186D01*
X119462Y11229D01*
X119501Y11279D01*
X119499Y11281D01*
X119499Y11281D01*
X119499Y11281D01*
X119499Y11282D01*
X119616Y11424D01*
X119774Y11719D01*
X119870Y12038D01*
X119863Y12040D01*
X119950Y12479D01*
X119999Y13222D01*
X119990Y13358D01*
X119990Y13358D01*
X119990D01*
X119986Y13362D01*
Y21619D01*
X119984Y21624D01*
X119979Y21626D01*
X117786D01*
Y22986D01*
X119979D01*
X119984Y22988D01*
X119986Y22994D01*
Y26474D01*
X121366D01*
Y22991D01*
D02*
G37*
G36*
X147034Y17562D02*
X147034Y17381D01*
X147028Y17376D01*
X147011Y16812D01*
X147011D01*
X147008Y16678D01*
X146995Y16238D01*
X146995Y16238D01*
X146995D01*
X147003Y16229D01*
X146974Y15667D01*
X146961Y15656D01*
X146943Y15295D01*
X146803Y14349D01*
X146658Y13769D01*
X146658Y13769D01*
X146658D01*
X146658Y13768D01*
X146509Y13252D01*
X146208Y12525D01*
X145949Y12056D01*
X145949D01*
Y12056D01*
X145951Y12047D01*
X145628Y11563D01*
X145222Y11100D01*
X144801Y10730D01*
X144693Y10652D01*
X144693D01*
X144583Y10578D01*
X144172Y10304D01*
X143450Y9948D01*
X142709Y9696D01*
X142695Y9703D01*
X142043Y9540D01*
X141030Y9390D01*
X140007Y9339D01*
X139801Y9349D01*
X139800Y9352D01*
X139511Y9338D01*
X138559Y9385D01*
X137616Y9524D01*
X136692Y9756D01*
X136260Y9910D01*
X136260Y9909D01*
X136072Y9973D01*
X135476Y10266D01*
X134923Y10636D01*
X134424Y11074D01*
X134043Y11508D01*
X134043Y11514D01*
X134043Y11514D01*
X134043D01*
X133750Y11927D01*
X133407Y12548D01*
X133136Y13203D01*
X132939Y13885D01*
X132904Y14094D01*
X132905Y14095D01*
X132766Y14795D01*
X132614Y16080D01*
X132563Y17373D01*
X132570Y17559D01*
X132564Y17559D01*
X132564Y17559D01*
Y28482D01*
X133943D01*
Y17617D01*
X133942Y17615D01*
Y17615D01*
X133927Y17274D01*
X133977Y16131D01*
X134126Y14996D01*
X134320Y14124D01*
X134318Y14124D01*
X134337Y14028D01*
X134349Y13994D01*
X134545Y13418D01*
X134829Y12841D01*
X135187Y12305D01*
X135354Y12115D01*
X135440Y12017D01*
X135440Y12017D01*
X135440Y12017D01*
X135435Y12012D01*
X135470Y11970D01*
X135531Y11918D01*
X135921Y11585D01*
X136426Y11276D01*
X136974Y11049D01*
X137281Y10975D01*
X137281Y10975D01*
X137281Y10974D01*
X137633Y10886D01*
X138658Y10734D01*
X139659Y10685D01*
X139693Y10683D01*
X139792Y10688D01*
X139900Y10683D01*
X140906Y10733D01*
X141903Y10880D01*
X142278Y10975D01*
X142408Y11006D01*
X142567Y11045D01*
X143136Y11280D01*
X143661Y11602D01*
X144127Y12000D01*
X144120Y12007D01*
X144422Y12351D01*
X144772Y12876D01*
X145051Y13441D01*
X145236Y13986D01*
X145254Y14039D01*
X145269Y14115D01*
X145269Y14116D01*
X145474Y15040D01*
X145621Y16159D01*
X145671Y17287D01*
X145656Y17615D01*
X145656Y17615D01*
X145656D01*
X145655Y17617D01*
Y28482D01*
X147034D01*
Y17562D01*
D02*
G37*
G36*
X127709Y9684D02*
X126329D01*
Y28482D01*
X127709D01*
Y9684D01*
D02*
G37*
G36*
X108839Y23324D02*
X108839D01*
X109602Y23274D01*
X109755Y23244D01*
X109760Y23247D01*
X110371Y23101D01*
X110798Y22924D01*
X110798Y22924D01*
X111280Y22686D01*
X111804Y22336D01*
X111911Y22255D01*
X112050Y22157D01*
X112649Y21621D01*
X112880Y21363D01*
X112962Y21271D01*
X113076Y21143D01*
X113089Y21146D01*
X113089Y21146D01*
X113094Y21148D01*
X113096Y21153D01*
Y21156D01*
X113097Y21160D01*
X113096Y21161D01*
Y21322D01*
X113096Y21446D01*
Y22984D01*
X114476D01*
Y9684D01*
X113096D01*
Y19213D01*
X113095Y19216D01*
X113099Y19219D01*
X113049Y19311D01*
X113032Y19334D01*
X112609Y19930D01*
X112438Y20121D01*
X112350Y20221D01*
X112349Y20222D01*
X112349Y20222D01*
X112260Y20321D01*
X112064Y20541D01*
X111512Y21034D01*
X111420Y21104D01*
X111399Y21123D01*
X111311Y21181D01*
X110858Y21484D01*
X110358Y21730D01*
X110356Y21726D01*
X110093Y21835D01*
X109658Y21939D01*
X109337Y21965D01*
X109212Y21975D01*
X109207Y21974D01*
X109077Y21966D01*
X108833D01*
X108703Y21976D01*
X108688Y21978D01*
X108570Y21966D01*
X108395Y21949D01*
X108296Y22039D01*
X108308Y23302D01*
X108581Y23326D01*
X108837D01*
X108839Y23324D01*
D02*
G37*
G36*
X158661Y87140D02*
X120568D01*
Y88644D01*
Y87864D01*
X115945D01*
Y87140D01*
X18110D01*
Y101822D01*
X158661D01*
Y87140D01*
D02*
G37*
%LPC*%
G36*
Y80054D02*
X85212D01*
D01*
X158661D01*
D02*
G37*
%LPD*%
G36*
D02*
D01*
Y72999D01*
D01*
Y58661D01*
X18110D01*
Y72999D01*
D01*
Y80054D01*
X81444D01*
Y82348D01*
Y80054D01*
X18110D01*
Y87140D01*
X158661D01*
Y80054D01*
D02*
G37*
G36*
X202402Y86260D02*
X175513D01*
Y94117D01*
X202402D01*
Y86260D01*
D02*
G37*
%LPC*%
G36*
X70180Y21977D02*
X69504Y21933D01*
X68840Y21800D01*
X68305Y21619D01*
X68307Y21614D01*
X68029Y21499D01*
X67509Y21180D01*
X67045Y20784D01*
X66943Y20665D01*
X66856Y20564D01*
X66856D01*
Y20564D01*
X66711Y20399D01*
X66356Y19868D01*
X66074Y19295D01*
X65910Y18811D01*
X65909Y18811D01*
X65736Y18119D01*
X65605Y17240D01*
X65562Y16352D01*
X65605Y15464D01*
X65736Y14585D01*
X65909Y13893D01*
X65952Y13768D01*
X66079Y13393D01*
X66370Y12803D01*
X66736Y12255D01*
X66855Y12119D01*
X66857Y12120D01*
X66858Y12119D01*
X67075Y11865D01*
X67530Y11477D01*
X68040Y11164D01*
X68307Y11054D01*
X68304Y11046D01*
X68867Y10855D01*
X69483Y10732D01*
X70039Y10696D01*
X70110Y10691D01*
X70172Y10695D01*
X70241Y10691D01*
X70874Y10732D01*
X71496Y10856D01*
X72056Y11046D01*
X72054Y11054D01*
X72321Y11164D01*
X72830Y11477D01*
X73285Y11865D01*
X73503Y12119D01*
X73503Y12120D01*
X73504Y12120D01*
X73505Y12119D01*
X73621Y12251D01*
X73980Y12789D01*
X74266Y13369D01*
X74444Y13892D01*
X74441Y13893D01*
X74599Y14527D01*
X74734Y15435D01*
X74779Y16352D01*
X74734Y17269D01*
X74599Y18177D01*
X74441Y18811D01*
X74444Y18812D01*
X74271Y19320D01*
X73994Y19881D01*
X73646Y20402D01*
X73504Y20564D01*
X73417Y20665D01*
X73416Y20665D01*
X73315Y20784D01*
X72851Y21180D01*
X72331Y21499D01*
X72054Y21614D01*
X72055Y21619D01*
X71520Y21800D01*
X70856Y21933D01*
X70180Y21977D01*
D02*
G37*
G36*
X105668Y20646D02*
Y20646D01*
D01*
Y20646D01*
D02*
G37*
G36*
X98979Y16549D02*
X98949Y16547D01*
X98820Y16537D01*
X96855D01*
X96850Y16535D01*
X96848Y16530D01*
Y13062D01*
X96850Y13057D01*
X96850Y13057D01*
X97095Y12787D01*
X97703Y12235D01*
X97708Y12235D01*
X97877Y12085D01*
X98559Y11601D01*
X98789Y11474D01*
X98789Y11474D01*
X99218Y11237D01*
X99880Y10963D01*
X100048Y10914D01*
Y10914D01*
X100048D01*
X100051Y10916D01*
X100265Y10843D01*
X100832Y10730D01*
X101409Y10692D01*
X101428Y10690D01*
X101432Y10690D01*
X101615Y10700D01*
X101747Y10708D01*
Y10708D01*
X102052Y10725D01*
X102185Y10735D01*
X102303Y10743D01*
X102345Y10751D01*
X102345Y10753D01*
X102490Y10781D01*
X102619Y10807D01*
X102620Y10807D01*
X102621Y10807D01*
Y10807D01*
X102621Y10808D01*
X102752Y10834D01*
X102886Y10860D01*
X102891Y10868D01*
X103127Y10925D01*
X103370Y11026D01*
X103371Y11026D01*
Y11026D01*
X103629Y11133D01*
X103998Y11359D01*
X104000Y11356D01*
X104316Y11616D01*
X104584Y11942D01*
X104782Y12314D01*
X104905Y12717D01*
X104946Y13136D01*
X104943Y13215D01*
X104948Y13263D01*
X104939Y13348D01*
X104895Y13793D01*
X104741Y14303D01*
X104490Y14773D01*
X104151Y15186D01*
X103740Y15524D01*
X103451Y15678D01*
X103451Y15678D01*
X103260Y15796D01*
X103140Y15845D01*
X103019Y15901D01*
X102924Y15947D01*
X102798Y15990D01*
X102797Y15991D01*
X102423Y16118D01*
X102423Y16117D01*
X102020Y16233D01*
X102020Y16234D01*
X101890Y16272D01*
X101591Y16323D01*
X101585Y16330D01*
X101118Y16400D01*
X101118Y16400D01*
X101118Y16400D01*
X100623Y16465D01*
Y16465D01*
X100619Y16462D01*
X100320Y16498D01*
X100229Y16501D01*
X100096Y16509D01*
X99082Y16545D01*
X98979Y16549D01*
D02*
G37*
G36*
X41868Y23239D02*
X41868Y23239D01*
X41868Y23239D01*
D01*
D02*
G37*
G36*
X60022Y94438D02*
D01*
Y92949D01*
X59514D01*
Y93784D01*
X58402Y94438D01*
Y92949D01*
X57643D01*
Y92064D01*
X58402D01*
Y90364D01*
Y90359D01*
Y90344D01*
Y90314D01*
Y90284D01*
Y90243D01*
Y90198D01*
X58397Y90092D01*
Y89987D01*
X58392Y89891D01*
Y89846D01*
X58387Y89811D01*
Y89780D01*
X58382Y89760D01*
Y89755D01*
X58377Y89745D01*
X58372Y89730D01*
X58362Y89715D01*
X58332Y89670D01*
X58311Y89645D01*
X58286Y89625D01*
X58281D01*
X58271Y89614D01*
X58256Y89609D01*
X58231Y89599D01*
X58206Y89589D01*
X58171Y89579D01*
X58135Y89574D01*
X58095Y89569D01*
X58065D01*
X58030Y89574D01*
X57980Y89584D01*
X57919Y89594D01*
X57839Y89614D01*
X57748Y89640D01*
X57648Y89675D01*
X57552Y88810D01*
D01*
X57557D01*
X57567Y88805D01*
X57592Y88795D01*
X57622Y88785D01*
X57658Y88775D01*
X57698Y88759D01*
X57748Y88744D01*
X57809Y88729D01*
X57869Y88714D01*
X57939Y88699D01*
X58085Y88674D01*
X58251Y88654D01*
X58432Y88649D01*
X60022D01*
Y94438D01*
D02*
G37*
G36*
X99281Y93040D02*
Y92949D01*
X98255D01*
Y92371D01*
X98250Y92381D01*
X98229Y92401D01*
X98199Y92431D01*
X98159Y92477D01*
X98104Y92527D01*
X98043Y92582D01*
X97968Y92643D01*
X97887Y92708D01*
X97792Y92768D01*
X97696Y92829D01*
X97586Y92884D01*
X97470Y92934D01*
X97349Y92980D01*
X97219Y93010D01*
X97088Y93035D01*
X96947Y93040D01*
X99281D01*
X96882D01*
X96846Y93035D01*
X96806Y93030D01*
X96710Y93020D01*
X96600Y93000D01*
X96484Y92970D01*
X96363Y92924D01*
X96248Y92869D01*
X96243D01*
X96233Y92859D01*
X96218Y92854D01*
X96197Y92839D01*
X96142Y92799D01*
X96077Y92743D01*
X95996Y92673D01*
X95916Y92587D01*
X95835Y92487D01*
X95760Y92371D01*
X95755Y92376D01*
X95745Y92386D01*
X95730Y92401D01*
X95710Y92426D01*
X95684Y92451D01*
X95654Y92487D01*
X95584Y92557D01*
X95493Y92638D01*
X95393Y92723D01*
X95282Y92799D01*
X95166Y92869D01*
X95161D01*
X95151Y92874D01*
X95136Y92884D01*
X95111Y92894D01*
X95081Y92909D01*
X95046Y92924D01*
X95005Y92939D01*
X94960Y92954D01*
X94854Y92985D01*
X94739Y93015D01*
X94613Y93035D01*
X94477Y93040D01*
X95993D01*
X94432D01*
X94402Y93035D01*
X94362D01*
X94316Y93030D01*
X94261Y93025D01*
X94205Y93015D01*
X94085Y92995D01*
X93954Y92959D01*
X93823Y92914D01*
X93698Y92849D01*
X93692D01*
X93682Y92839D01*
X93667Y92829D01*
X93642Y92814D01*
X93587Y92768D01*
X93516Y92708D01*
X93436Y92633D01*
X93356Y92537D01*
X93280Y92426D01*
X93215Y92295D01*
Y92291D01*
X93210Y92286D01*
X93205Y92265D01*
X93195Y92245D01*
X93190Y92215D01*
X93179Y92180D01*
X93169Y92135D01*
X93154Y92089D01*
X93144Y92029D01*
X93134Y91969D01*
X93124Y91893D01*
X93119Y91818D01*
X93109Y91732D01*
X93104Y91637D01*
X93099Y91536D01*
Y88744D01*
X94211D01*
Y91144D01*
Y91149D01*
Y91169D01*
Y91204D01*
Y91244D01*
X94216Y91295D01*
Y91350D01*
X94221Y91410D01*
X94226Y91481D01*
X94241Y91616D01*
X94261Y91747D01*
X94271Y91808D01*
X94286Y91863D01*
X94306Y91908D01*
X94326Y91948D01*
Y91953D01*
X94331Y91958D01*
X94356Y91989D01*
X94392Y92024D01*
X94442Y92069D01*
X94512Y92114D01*
X94593Y92155D01*
X94693Y92180D01*
X94744Y92185D01*
X94804Y92190D01*
X94844D01*
X94890Y92185D01*
X94945Y92170D01*
X95010Y92155D01*
X95086Y92129D01*
X95161Y92094D01*
X95242Y92044D01*
X95252Y92039D01*
X95277Y92019D01*
X95312Y91984D01*
X95357Y91938D01*
X95403Y91878D01*
X95453Y91808D01*
X95498Y91722D01*
X95539Y91627D01*
Y91622D01*
X95543Y91611D01*
X95549Y91596D01*
X95554Y91576D01*
X95559Y91546D01*
X95569Y91511D01*
X95574Y91466D01*
X95584Y91415D01*
X95594Y91360D01*
X95599Y91295D01*
X95609Y91224D01*
X95614Y91149D01*
X95619Y91063D01*
X95624Y90968D01*
X95629Y90867D01*
Y90761D01*
Y88744D01*
X97389D01*
X96741D01*
Y91043D01*
Y91048D01*
Y91068D01*
Y91103D01*
Y91144D01*
Y91189D01*
X96746Y91244D01*
Y91310D01*
Y91370D01*
X96756Y91506D01*
X96766Y91637D01*
X96771Y91697D01*
X96781Y91747D01*
X96791Y91798D01*
X96801Y91833D01*
X96806Y91843D01*
X96811Y91863D01*
X96826Y91893D01*
X96846Y91933D01*
X96871Y91979D01*
X96907Y92024D01*
X96942Y92064D01*
X96987Y92099D01*
X96992Y92104D01*
X97012Y92114D01*
X97037Y92129D01*
X97078Y92145D01*
X97123Y92160D01*
X97183Y92175D01*
X97249Y92185D01*
X97324Y92190D01*
X97369D01*
X97415Y92185D01*
X97480Y92175D01*
X97550Y92155D01*
X97626Y92129D01*
X97706Y92094D01*
X97787Y92049D01*
X97797Y92044D01*
X97822Y92024D01*
X97857Y91989D01*
X97903Y91948D01*
X97948Y91888D01*
X97998Y91818D01*
X98043Y91737D01*
X98084Y91647D01*
Y91642D01*
X98089Y91637D01*
X98094Y91622D01*
X98099Y91596D01*
X98104Y91571D01*
X98109Y91536D01*
X98119Y91491D01*
X98124Y91440D01*
X98134Y91385D01*
X98144Y91325D01*
X98149Y91254D01*
X98154Y91174D01*
X98159Y91088D01*
X98164Y90993D01*
X98169Y90892D01*
Y90781D01*
Y88744D01*
X99281D01*
Y93040D01*
D02*
G37*
G36*
X71304Y93040D02*
D01*
Y92949D01*
X70268D01*
Y92336D01*
X70258Y92346D01*
X70248Y92361D01*
X70233Y92381D01*
X70187Y92441D01*
X70122Y92512D01*
X70047Y92597D01*
X69956Y92683D01*
X69845Y92763D01*
X69725Y92844D01*
X69719D01*
X69709Y92854D01*
X69689Y92864D01*
X69664Y92874D01*
X69629Y92889D01*
X69594Y92904D01*
X69548Y92924D01*
X69498Y92944D01*
X69388Y92980D01*
X69257Y93010D01*
X69111Y93030D01*
X68960Y93040D01*
X71304D01*
X67199D01*
D01*
X68925D01*
X68889Y93035D01*
X68839Y93030D01*
X68774Y93025D01*
X68698Y93010D01*
X68618Y92990D01*
X68527Y92970D01*
X68432Y92939D01*
X68331Y92899D01*
X68231Y92854D01*
X68125Y92799D01*
X68019Y92728D01*
X67914Y92653D01*
X67813Y92562D01*
X67712Y92462D01*
X67708Y92457D01*
X67692Y92436D01*
X67667Y92401D01*
X67632Y92356D01*
X67592Y92295D01*
X67552Y92225D01*
X67501Y92145D01*
X67456Y92049D01*
X67406Y91938D01*
X67360Y91823D01*
X67320Y91692D01*
X67280Y91546D01*
X67245Y91395D01*
X67220Y91229D01*
X67204Y91053D01*
X67199Y90867D01*
Y90797D01*
X67204Y90766D01*
X67210Y90696D01*
X67215Y90605D01*
X67225Y90505D01*
X67245Y90389D01*
X67265Y90268D01*
X67290Y90138D01*
X67325Y90007D01*
X67365Y89871D01*
X67416Y89735D01*
X67476Y89599D01*
X67546Y89469D01*
X67627Y89348D01*
X67718Y89232D01*
X67723Y89227D01*
X67743Y89207D01*
X67768Y89177D01*
X67808Y89142D01*
X67858Y89096D01*
X67919Y89046D01*
X67989Y88996D01*
X68065Y88941D01*
X68150Y88885D01*
X68246Y88835D01*
X68351Y88785D01*
X68462Y88739D01*
X68578Y88704D01*
X68698Y88674D01*
X68829Y88654D01*
X68965Y88649D01*
X69025D01*
X69055Y88654D01*
X69091D01*
X69176Y88664D01*
X69272Y88684D01*
X69383Y88704D01*
X69488Y88739D01*
X69599Y88785D01*
X69604D01*
X69609Y88790D01*
X69629Y88800D01*
X69649Y88810D01*
X69674Y88830D01*
X69704Y88845D01*
X69780Y88895D01*
X69865Y88961D01*
X69966Y89046D01*
X70077Y89142D01*
X70192Y89257D01*
Y87145D01*
D01*
X71304D01*
Y93040D01*
D02*
G37*
G36*
X108838Y94438D02*
Y92949D01*
X108078D01*
Y92064D01*
X108838D01*
Y90364D01*
Y90359D01*
Y90344D01*
Y90314D01*
Y90284D01*
Y90243D01*
Y90198D01*
X108833Y90092D01*
Y89987D01*
X108828Y89891D01*
Y89846D01*
X108823Y89811D01*
Y89780D01*
X108818Y89760D01*
Y89755D01*
X108813Y89745D01*
X108808Y89730D01*
X108798Y89715D01*
X108767Y89670D01*
X108747Y89645D01*
X108722Y89625D01*
X108717D01*
X108707Y89614D01*
X108692Y89609D01*
X108667Y89599D01*
X108642Y89589D01*
X108606Y89579D01*
X108571Y89574D01*
X108531Y89569D01*
X108501D01*
X108466Y89574D01*
X108415Y89584D01*
X108355Y89594D01*
X108274Y89614D01*
X108184Y89640D01*
X108083Y89675D01*
X107988Y88810D01*
X107993D01*
X108003Y88805D01*
X108028Y88795D01*
X108058Y88785D01*
X108093Y88775D01*
X108134Y88759D01*
X108184Y88744D01*
X108244Y88729D01*
X108305Y88714D01*
X108375Y88699D01*
X108521Y88674D01*
X108687Y88654D01*
X108868Y88649D01*
X110458D01*
X108918D01*
X108974Y88654D01*
X109044Y88664D01*
X109130Y88674D01*
X109220Y88689D01*
X109316Y88714D01*
X109406Y88749D01*
X109411D01*
X109416Y88754D01*
X109446Y88770D01*
X109487Y88790D01*
X109542Y88820D01*
X109597Y88855D01*
X109658Y88900D01*
X109713Y88951D01*
X109763Y89006D01*
X109768Y89016D01*
X109783Y89036D01*
X109799Y89071D01*
X109824Y89122D01*
X109849Y89182D01*
X109874Y89257D01*
X109894Y89348D01*
X109914Y89443D01*
Y89454D01*
X109919Y89464D01*
Y89484D01*
X109924Y89504D01*
Y89534D01*
X109929Y89569D01*
Y89614D01*
X109934Y89665D01*
X109939Y89720D01*
Y89786D01*
X109944Y89856D01*
Y89937D01*
X109949Y90022D01*
Y90123D01*
Y90228D01*
Y92064D01*
X110458D01*
Y92949D01*
X109949D01*
Y93784D01*
X108838Y94438D01*
D02*
G37*
G36*
X125356Y94544D02*
X120643D01*
D01*
X120764D01*
Y93634D01*
X123943Y89725D01*
X120643D01*
Y88744D01*
X125356D01*
Y89801D01*
X122303Y93563D01*
X125014D01*
Y94544D01*
X125356D01*
D01*
D02*
G37*
G36*
X107349Y93040D02*
X104628D01*
D01*
X105327D01*
X105297Y93035D01*
X105262D01*
X105221Y93030D01*
X105181Y93025D01*
X105131Y93015D01*
X105015Y92990D01*
X104894Y92949D01*
X104763Y92899D01*
X104628Y92829D01*
X104975Y91858D01*
X104980D01*
X104985Y91868D01*
X105000Y91873D01*
X105020Y91888D01*
X105075Y91918D01*
X105146Y91953D01*
X105226Y91984D01*
X105312Y92014D01*
X105407Y92034D01*
X105498Y92044D01*
X105538D01*
X105578Y92039D01*
X105634Y92029D01*
X105694Y92014D01*
X105764Y91989D01*
X105830Y91958D01*
X105895Y91913D01*
X105900Y91908D01*
X105920Y91888D01*
X105951Y91853D01*
X105986Y91808D01*
X106026Y91742D01*
X106071Y91662D01*
X106112Y91561D01*
X106147Y91445D01*
Y91440D01*
X106152Y91430D01*
X106157Y91410D01*
X106162Y91375D01*
X106167Y91335D01*
X106177Y91285D01*
X106182Y91219D01*
X106192Y91144D01*
X106202Y91058D01*
X106207Y90957D01*
X106217Y90842D01*
X106222Y90711D01*
X106227Y90570D01*
X106232Y90409D01*
X106237Y90233D01*
Y90042D01*
Y88744D01*
X107349D01*
Y93040D01*
D02*
G37*
G36*
X98169Y88744D02*
X97389D01*
X98169D01*
D01*
D02*
G37*
G36*
X95629D02*
X94355D01*
X95629D01*
D01*
D02*
G37*
G36*
X92078Y93040D02*
X85896D01*
X87229D01*
X87199Y93035D01*
X87159D01*
X87113Y93030D01*
X87058Y93025D01*
X87003Y93015D01*
X86882Y92995D01*
X86751Y92959D01*
X86620Y92914D01*
X86495Y92849D01*
X86489D01*
X86480Y92839D01*
X86464Y92829D01*
X86439Y92814D01*
X86384Y92768D01*
X86313Y92708D01*
X86233Y92633D01*
X86152Y92537D01*
X86077Y92426D01*
X86012Y92295D01*
Y92291D01*
X86007Y92286D01*
X86002Y92265D01*
X85992Y92245D01*
X85987Y92215D01*
X85976Y92180D01*
X85966Y92135D01*
X85951Y92089D01*
X85941Y92029D01*
X85931Y91969D01*
X85921Y91893D01*
X85916Y91818D01*
X85906Y91732D01*
X85901Y91637D01*
X85896Y91536D01*
Y88744D01*
X87008D01*
Y91144D01*
Y91149D01*
Y91169D01*
Y91204D01*
Y91244D01*
X87013Y91295D01*
Y91350D01*
X87018Y91410D01*
X87023Y91481D01*
X87038Y91616D01*
X87058Y91747D01*
X87068Y91808D01*
X87083Y91863D01*
X87103Y91908D01*
X87123Y91948D01*
Y91953D01*
X87128Y91958D01*
X87154Y91989D01*
X87189Y92024D01*
X87239Y92069D01*
X87309Y92114D01*
X87390Y92155D01*
X87490Y92180D01*
X87541Y92185D01*
X87601Y92190D01*
X87641D01*
X87687Y92185D01*
X87742Y92170D01*
X87807Y92155D01*
X87883Y92129D01*
X87958Y92094D01*
X88039Y92044D01*
X88049Y92039D01*
X88074Y92019D01*
X88109Y91984D01*
X88154Y91938D01*
X88200Y91878D01*
X88250Y91808D01*
X88295Y91722D01*
X88336Y91627D01*
Y91622D01*
X88341Y91611D01*
X88346Y91596D01*
X88351Y91576D01*
X88356Y91546D01*
X88366Y91511D01*
X88371Y91466D01*
X88381Y91415D01*
X88391Y91360D01*
X88396Y91295D01*
X88406Y91224D01*
X88411Y91149D01*
X88416Y91063D01*
X88421Y90968D01*
X88426Y90867D01*
Y90761D01*
Y88744D01*
X89538D01*
Y91043D01*
Y91048D01*
Y91068D01*
Y91103D01*
Y91144D01*
Y91189D01*
X89543Y91244D01*
Y91310D01*
Y91370D01*
X89553Y91506D01*
X89563Y91637D01*
X89568Y91697D01*
X89578Y91747D01*
X89588Y91798D01*
X89598Y91833D01*
X89603Y91843D01*
X89608Y91863D01*
X89623Y91893D01*
X89643Y91933D01*
X89669Y91979D01*
X89704Y92024D01*
X89739Y92064D01*
X89784Y92099D01*
X89789Y92104D01*
X89809Y92114D01*
X89834Y92129D01*
X89875Y92145D01*
X89920Y92160D01*
X89980Y92175D01*
X90046Y92185D01*
X90121Y92190D01*
X90166D01*
X90212Y92185D01*
X90277Y92175D01*
X90347Y92155D01*
X90423Y92129D01*
X90504Y92094D01*
X90584Y92049D01*
X90594Y92044D01*
X90619Y92024D01*
X90654Y91989D01*
X90700Y91948D01*
X90745Y91888D01*
X90795Y91818D01*
X90841Y91737D01*
X90881Y91647D01*
Y91642D01*
X90886Y91637D01*
X90891Y91622D01*
X90896Y91596D01*
X90901Y91571D01*
X90906Y91536D01*
X90916Y91491D01*
X90921Y91440D01*
X90931Y91385D01*
X90941Y91325D01*
X90946Y91254D01*
X90951Y91174D01*
X90956Y91088D01*
X90961Y90993D01*
X90966Y90892D01*
Y90781D01*
Y88744D01*
X92078D01*
Y93040D01*
D02*
G37*
G36*
X66319Y94544D02*
X65208D01*
Y88744D01*
X66319D01*
Y94544D01*
D02*
G37*
G36*
X56863D02*
X55751D01*
Y93513D01*
X56863D01*
Y92949D01*
X55751D01*
Y88744D01*
X56863D01*
Y94544D01*
D02*
G37*
G36*
X54619Y93040D02*
X50792D01*
D01*
X52145D01*
X52109Y93035D01*
X52074D01*
X51984Y93025D01*
X51878Y93005D01*
X51767Y92985D01*
X51652Y92949D01*
X51536Y92904D01*
X51531D01*
X51521Y92899D01*
X51506Y92889D01*
X51486Y92879D01*
X51430Y92854D01*
X51365Y92814D01*
X51290Y92763D01*
X51209Y92708D01*
X51139Y92643D01*
X51073Y92567D01*
X51068Y92557D01*
X51048Y92532D01*
X51023Y92487D01*
X50988Y92431D01*
X50953Y92361D01*
X50917Y92286D01*
X50882Y92195D01*
X50857Y92099D01*
Y92094D01*
X50852Y92089D01*
Y92074D01*
X50847Y92049D01*
X50842Y92024D01*
X50837Y91994D01*
X50832Y91953D01*
X50822Y91908D01*
X50817Y91858D01*
X50812Y91803D01*
X50807Y91742D01*
X50802Y91677D01*
X50797Y91601D01*
Y91526D01*
X50792Y91445D01*
Y88744D01*
X51903D01*
Y90887D01*
Y90897D01*
Y90917D01*
Y90952D01*
Y90998D01*
Y91053D01*
X51908Y91114D01*
Y91179D01*
X51913Y91249D01*
X51923Y91400D01*
X51933Y91541D01*
X51943Y91606D01*
X51954Y91667D01*
X51964Y91722D01*
X51979Y91762D01*
X51984Y91772D01*
X51994Y91798D01*
X52009Y91833D01*
X52034Y91878D01*
X52064Y91928D01*
X52104Y91979D01*
X52155Y92029D01*
X52210Y92074D01*
X52215Y92079D01*
X52240Y92094D01*
X52270Y92109D01*
X52316Y92135D01*
X52371Y92155D01*
X52436Y92170D01*
X52512Y92185D01*
X52592Y92190D01*
X52643D01*
X52698Y92180D01*
X52768Y92170D01*
X52849Y92150D01*
X52934Y92124D01*
X53025Y92084D01*
X53115Y92029D01*
X53126Y92024D01*
X53151Y91999D01*
X53191Y91963D01*
X53241Y91918D01*
X53291Y91858D01*
X53342Y91787D01*
X53387Y91707D01*
X53427Y91611D01*
Y91606D01*
X53432Y91601D01*
Y91581D01*
X53437Y91561D01*
X53448Y91531D01*
X53452Y91491D01*
X53457Y91445D01*
X53468Y91395D01*
X53473Y91330D01*
X53483Y91259D01*
X53488Y91184D01*
X53493Y91093D01*
X53498Y90998D01*
X53503Y90887D01*
X53508Y90771D01*
Y90646D01*
Y88744D01*
X54619D01*
Y93040D01*
D02*
G37*
G36*
X104401Y93040D02*
X100066D01*
X102198D01*
X102148Y93035D01*
X102083Y93030D01*
X101997Y93020D01*
X101907Y93005D01*
X101801Y92990D01*
X101685Y92965D01*
X101564Y92929D01*
X101439Y92889D01*
X101308Y92839D01*
X101177Y92778D01*
X101051Y92708D01*
X100921Y92623D01*
X100795Y92527D01*
X100679Y92416D01*
X100674Y92411D01*
X100654Y92386D01*
X100624Y92351D01*
X100584Y92306D01*
X100538Y92245D01*
X100483Y92170D01*
X100428Y92084D01*
X100372Y91989D01*
X100317Y91883D01*
X100262Y91762D01*
X100206Y91632D01*
X100161Y91496D01*
X100121Y91350D01*
X100091Y91189D01*
X100071Y91028D01*
X100066Y90852D01*
Y90812D01*
X100071Y90761D01*
X100075Y90696D01*
X100086Y90610D01*
X100096Y90520D01*
X100116Y90414D01*
X100141Y90299D01*
X100176Y90178D01*
X100216Y90047D01*
X100267Y89916D01*
X100327Y89786D01*
X100398Y89650D01*
X100478Y89519D01*
X100574Y89393D01*
X100684Y89272D01*
X100689Y89267D01*
X100714Y89247D01*
X100744Y89217D01*
X100795Y89177D01*
X100855Y89127D01*
X100926Y89076D01*
X101011Y89021D01*
X101107Y88961D01*
X101212Y88900D01*
X101333Y88845D01*
X101459Y88795D01*
X101595Y88744D01*
X101741Y88704D01*
X101896Y88674D01*
X102062Y88654D01*
X102233Y88649D01*
X102289D01*
X102334Y88654D01*
X102384Y88659D01*
X102445Y88664D01*
X102510Y88669D01*
X102585Y88679D01*
X102671Y88694D01*
X102757Y88709D01*
X102943Y88759D01*
X103038Y88785D01*
X103139Y88820D01*
X103234Y88860D01*
X103335Y88905D01*
X103340Y88910D01*
X103360Y88915D01*
X103385Y88930D01*
X103420Y88956D01*
X103466Y88981D01*
X103516Y89016D01*
X103571Y89056D01*
X103632Y89101D01*
X103692Y89152D01*
X103758Y89207D01*
X103823Y89267D01*
X103888Y89338D01*
X103954Y89413D01*
X104019Y89494D01*
X104074Y89579D01*
X104130Y89670D01*
X104135Y89675D01*
X104140Y89695D01*
X104155Y89720D01*
X104170Y89760D01*
X104190Y89811D01*
X104215Y89871D01*
X104240Y89937D01*
X104265Y90017D01*
X104291Y90102D01*
X104316Y90193D01*
X104336Y90294D01*
X104361Y90404D01*
X104376Y90520D01*
X104391Y90641D01*
X104396Y90771D01*
X104401Y90902D01*
Y90957D01*
X104396Y90998D01*
X104391Y91048D01*
X104386Y91103D01*
X104376Y91169D01*
X104366Y91244D01*
X104351Y91325D01*
X104336Y91405D01*
X104286Y91586D01*
X104255Y91682D01*
X104220Y91777D01*
X104175Y91878D01*
X104130Y91974D01*
X104125Y91979D01*
X104115Y91999D01*
X104100Y92024D01*
X104079Y92059D01*
X104049Y92104D01*
X104019Y92150D01*
X103979Y92205D01*
X103934Y92265D01*
X103878Y92331D01*
X103823Y92396D01*
X103758Y92462D01*
X103692Y92527D01*
X103617Y92587D01*
X103536Y92653D01*
X103451Y92708D01*
X103360Y92763D01*
X103355Y92768D01*
X103335Y92773D01*
X103310Y92788D01*
X103270Y92809D01*
X103224Y92829D01*
X103169Y92849D01*
X103104Y92874D01*
X103033Y92904D01*
X102953Y92929D01*
X102867Y92954D01*
X102772Y92975D01*
X102676Y92995D01*
X102465Y93030D01*
X102354Y93035D01*
X102239Y93040D01*
X104401D01*
D01*
D02*
G37*
G36*
X85116D02*
X81193D01*
D01*
X83155D01*
X83104Y93035D01*
X83039Y93030D01*
X82959Y93020D01*
X82868Y93005D01*
X82767Y92990D01*
X82657Y92965D01*
X82541Y92929D01*
X82420Y92889D01*
X82300Y92839D01*
X82174Y92778D01*
X82053Y92708D01*
X81932Y92623D01*
X81822Y92527D01*
X81716Y92416D01*
X81711Y92411D01*
X81691Y92386D01*
X81666Y92351D01*
X81630Y92300D01*
X81590Y92235D01*
X81545Y92155D01*
X81495Y92059D01*
X81444Y91948D01*
X81399Y91823D01*
X81349Y91682D01*
X81304Y91526D01*
X81268Y91360D01*
X81233Y91174D01*
X81208Y90973D01*
X81193Y90756D01*
Y90525D01*
X83974D01*
Y90520D01*
Y90505D01*
X83969Y90480D01*
Y90444D01*
X83965Y90399D01*
X83959Y90354D01*
X83949Y90299D01*
X83939Y90243D01*
X83904Y90118D01*
X83859Y89987D01*
X83829Y89926D01*
X83793Y89861D01*
X83753Y89806D01*
X83708Y89750D01*
X83703Y89745D01*
X83698Y89740D01*
X83683Y89725D01*
X83663Y89710D01*
X83637Y89690D01*
X83607Y89665D01*
X83532Y89614D01*
X83441Y89564D01*
X83331Y89519D01*
X83205Y89489D01*
X83139Y89484D01*
X83069Y89479D01*
X83024D01*
X82979Y89489D01*
X82918Y89499D01*
X82848Y89514D01*
X82772Y89539D01*
X82702Y89574D01*
X82631Y89620D01*
X82622Y89625D01*
X82601Y89645D01*
X82571Y89680D01*
X82531Y89730D01*
X82486Y89796D01*
X82440Y89876D01*
X82400Y89972D01*
X82360Y90082D01*
X81253Y89896D01*
Y89891D01*
X81263Y89871D01*
X81278Y89836D01*
X81293Y89796D01*
X81319Y89745D01*
X81344Y89685D01*
X81379Y89620D01*
X81419Y89549D01*
X81464Y89474D01*
X81515Y89398D01*
X81570Y89323D01*
X81630Y89247D01*
X81696Y89167D01*
X81771Y89096D01*
X81847Y89026D01*
X81932Y88966D01*
X81937Y88961D01*
X81953Y88951D01*
X81978Y88936D01*
X82013Y88915D01*
X82058Y88890D01*
X82113Y88865D01*
X82179Y88835D01*
X82249Y88810D01*
X82330Y88779D01*
X82415Y88749D01*
X82511Y88724D01*
X82611Y88699D01*
X82722Y88679D01*
X82838Y88664D01*
X82959Y88654D01*
X83084Y88649D01*
X83130D01*
X83160Y88654D01*
X83190D01*
X83265Y88659D01*
X83356Y88669D01*
X83456Y88689D01*
X83572Y88709D01*
X83698Y88739D01*
X83824Y88775D01*
X83959Y88825D01*
X84095Y88880D01*
X84226Y88951D01*
X84357Y89031D01*
X84483Y89127D01*
X84598Y89237D01*
X84704Y89363D01*
X84709Y89368D01*
X84719Y89388D01*
X84744Y89423D01*
X84769Y89469D01*
X84799Y89524D01*
X84835Y89589D01*
X84870Y89670D01*
X84910Y89760D01*
X84950Y89861D01*
X84986Y89967D01*
X85021Y90087D01*
X85051Y90218D01*
X85076Y90354D01*
X85096Y90500D01*
X85111Y90651D01*
X85116Y90812D01*
Y88649D01*
D01*
Y93040D01*
D02*
G37*
G36*
X80675D02*
D01*
Y88649D01*
X80675D01*
X80675D01*
Y93040D01*
D02*
G37*
G36*
X78753D02*
X78673D01*
X78613Y93035D01*
X78542Y93030D01*
X78457Y93025D01*
X78366Y93015D01*
X78271Y93005D01*
X78064Y92970D01*
X77853Y92919D01*
X77747Y92889D01*
X77652Y92854D01*
X77561Y92809D01*
X77476Y92758D01*
X77471Y92753D01*
X77456Y92743D01*
X77435Y92728D01*
X77405Y92708D01*
X77375Y92678D01*
X77335Y92643D01*
X77290Y92597D01*
X77244Y92547D01*
X77194Y92492D01*
X77149Y92431D01*
X77099Y92366D01*
X77053Y92291D01*
X77008Y92210D01*
X76963Y92119D01*
X76928Y92029D01*
X76892Y91928D01*
X77938Y91732D01*
Y91737D01*
X77944Y91742D01*
X77954Y91772D01*
X77969Y91818D01*
X77999Y91868D01*
X78034Y91928D01*
X78079Y91994D01*
X78135Y92049D01*
X78200Y92104D01*
X78210Y92109D01*
X78235Y92124D01*
X78276Y92150D01*
X78336Y92175D01*
X78411Y92195D01*
X78502Y92220D01*
X78613Y92235D01*
X78733Y92240D01*
X78804D01*
X78839Y92235D01*
X78879D01*
X78975Y92225D01*
X79080Y92210D01*
X79181Y92185D01*
X79282Y92155D01*
X79322Y92135D01*
X79362Y92114D01*
X79367Y92109D01*
X79382Y92099D01*
X79402Y92079D01*
X79422Y92054D01*
X79448Y92024D01*
X79468Y91984D01*
X79483Y91938D01*
X79488Y91888D01*
Y91883D01*
Y91868D01*
X79483Y91848D01*
X79473Y91818D01*
X79463Y91787D01*
X79443Y91752D01*
X79412Y91722D01*
X79377Y91687D01*
X79367Y91682D01*
X79357Y91677D01*
X79342Y91667D01*
X79317Y91657D01*
X79287Y91642D01*
X79241Y91627D01*
X79191Y91606D01*
X79131Y91586D01*
X79060Y91561D01*
X78980Y91536D01*
X78879Y91511D01*
X78768Y91481D01*
X78643Y91445D01*
X78502Y91410D01*
X78346Y91375D01*
X78336D01*
X78306Y91365D01*
X78260Y91355D01*
X78200Y91340D01*
X78130Y91320D01*
X78044Y91295D01*
X77954Y91269D01*
X77858Y91239D01*
X77652Y91169D01*
X77446Y91083D01*
X77350Y91038D01*
X77259Y90988D01*
X77174Y90937D01*
X77104Y90882D01*
X77099Y90877D01*
X77088Y90867D01*
X77073Y90852D01*
X77048Y90827D01*
X77023Y90797D01*
X76993Y90761D01*
X76958Y90716D01*
X76928Y90666D01*
X76892Y90610D01*
X76862Y90550D01*
X76832Y90485D01*
X76807Y90409D01*
X76782Y90329D01*
X76767Y90243D01*
X76757Y90153D01*
X76751Y90057D01*
Y90032D01*
X76757Y90002D01*
Y89962D01*
X76767Y89911D01*
X76777Y89851D01*
X76792Y89786D01*
X76812Y89715D01*
X76837Y89640D01*
X76867Y89559D01*
X76907Y89479D01*
X76953Y89393D01*
X77008Y89308D01*
X77073Y89222D01*
X77149Y89142D01*
X77234Y89061D01*
X77239Y89056D01*
X77254Y89046D01*
X77285Y89021D01*
X77325Y88996D01*
X77375Y88966D01*
X77435Y88930D01*
X77511Y88895D01*
X77591Y88855D01*
X77687Y88815D01*
X77793Y88779D01*
X77913Y88744D01*
X78039Y88714D01*
X78180Y88689D01*
X78331Y88669D01*
X78492Y88654D01*
X78663Y88649D01*
X78743D01*
X78804Y88654D01*
X78879Y88659D01*
X78960Y88669D01*
X79055Y88679D01*
X79156Y88694D01*
X79261Y88709D01*
X79372Y88734D01*
X79488Y88759D01*
X79598Y88795D01*
X79714Y88835D01*
X79825Y88880D01*
X79925Y88936D01*
X80026Y88996D01*
X80031Y89001D01*
X80046Y89011D01*
X80071Y89031D01*
X80106Y89061D01*
X80147Y89096D01*
X80192Y89137D01*
X80242Y89187D01*
X80293Y89242D01*
X80348Y89308D01*
X80403Y89378D01*
X80459Y89459D01*
X80509Y89539D01*
X80559Y89630D01*
X80604Y89730D01*
X80645Y89831D01*
X80675Y89942D01*
X79558Y90113D01*
Y90108D01*
X79553Y90097D01*
X79548Y90082D01*
X79543Y90057D01*
X79523Y90002D01*
X79498Y89926D01*
X79458Y89851D01*
X79407Y89765D01*
X79347Y89690D01*
X79272Y89620D01*
X79266D01*
X79261Y89614D01*
X79231Y89594D01*
X79181Y89569D01*
X79115Y89539D01*
X79030Y89504D01*
X78924Y89479D01*
X78804Y89459D01*
X78663Y89454D01*
X78623D01*
X78592Y89459D01*
X78557D01*
X78517Y89464D01*
X78421Y89474D01*
X78316Y89494D01*
X78210Y89519D01*
X78110Y89559D01*
X78019Y89609D01*
X78014Y89614D01*
X77994Y89630D01*
X77969Y89655D01*
X77944Y89690D01*
X77913Y89730D01*
X77893Y89780D01*
X77873Y89841D01*
X77868Y89906D01*
Y89911D01*
Y89926D01*
X77873Y89951D01*
X77878Y89982D01*
X77888Y90012D01*
X77903Y90047D01*
X77923Y90082D01*
X77949Y90118D01*
X77954Y90123D01*
X77969Y90133D01*
X77989Y90148D01*
X78029Y90163D01*
X78079Y90188D01*
X78140Y90213D01*
X78220Y90238D01*
X78321Y90263D01*
X78326D01*
X78336Y90268D01*
X78356Y90273D01*
X78381Y90279D01*
X78411Y90284D01*
X78447Y90294D01*
X78487Y90304D01*
X78537Y90314D01*
X78643Y90339D01*
X78763Y90369D01*
X78899Y90404D01*
X79035Y90444D01*
X79327Y90525D01*
X79468Y90570D01*
X79609Y90615D01*
X79734Y90661D01*
X79850Y90711D01*
X79945Y90756D01*
X79991Y90781D01*
X80026Y90802D01*
X80031Y90807D01*
X80046Y90817D01*
X80071Y90837D01*
X80101Y90867D01*
X80142Y90897D01*
X80182Y90942D01*
X80227Y90993D01*
X80272Y91048D01*
X80318Y91114D01*
X80363Y91184D01*
X80403Y91259D01*
X80444Y91345D01*
X80474Y91435D01*
X80499Y91536D01*
X80514Y91637D01*
X80519Y91747D01*
Y91752D01*
Y91772D01*
X80514Y91803D01*
Y91838D01*
X80504Y91888D01*
X80494Y91938D01*
X80484Y92004D01*
X80464Y92069D01*
X80444Y92140D01*
X80413Y92215D01*
X80378Y92291D01*
X80338Y92366D01*
X80287Y92446D01*
X80232Y92522D01*
X80167Y92597D01*
X80091Y92668D01*
X80086Y92673D01*
X80071Y92683D01*
X80046Y92703D01*
X80011Y92728D01*
X79966Y92753D01*
X79905Y92783D01*
X79840Y92819D01*
X79759Y92854D01*
X79674Y92889D01*
X79573Y92924D01*
X79463Y92954D01*
X79342Y92980D01*
X79211Y93005D01*
X79070Y93025D01*
X78919Y93035D01*
X78753Y93040D01*
D02*
G37*
G36*
X76168D02*
X74379D01*
X76168D01*
Y88649D01*
D01*
Y93040D01*
D02*
G37*
G36*
X74247D02*
X72245Y93040D01*
X74166Y93040D01*
X74106Y93035D01*
X74035Y93030D01*
X73950Y93025D01*
X73859Y93015D01*
X73764Y93005D01*
X73557Y92970D01*
X73346Y92919D01*
X73241Y92889D01*
X73145Y92854D01*
X73054Y92809D01*
X72969Y92758D01*
X72964Y92753D01*
X72949Y92743D01*
X72929Y92728D01*
X72899Y92708D01*
X72868Y92678D01*
X72828Y92643D01*
X72783Y92597D01*
X72737Y92547D01*
X72687Y92492D01*
X72642Y92431D01*
X72592Y92366D01*
X72546Y92291D01*
X72501Y92210D01*
X72456Y92119D01*
X72421Y92029D01*
X72385Y91928D01*
X73432Y91732D01*
Y91737D01*
X73437Y91742D01*
X73447Y91772D01*
X73462Y91818D01*
X73492Y91868D01*
X73527Y91928D01*
X73572Y91994D01*
X73628Y92049D01*
X73693Y92104D01*
X73703Y92109D01*
X73728Y92124D01*
X73769Y92150D01*
X73829Y92175D01*
X73905Y92195D01*
X73995Y92220D01*
X74106Y92235D01*
X74226Y92240D01*
X74297D01*
X74332Y92235D01*
X74372D01*
X74468Y92225D01*
X74573Y92210D01*
X74674Y92185D01*
X74775Y92155D01*
X74815Y92135D01*
X74855Y92114D01*
X74860Y92109D01*
X74875Y92099D01*
X74895Y92079D01*
X74915Y92054D01*
X74941Y92024D01*
X74961Y91984D01*
X74976Y91938D01*
X74981Y91888D01*
Y91883D01*
Y91868D01*
X74976Y91848D01*
X74966Y91818D01*
X74956Y91787D01*
X74936Y91752D01*
X74905Y91722D01*
X74870Y91687D01*
X74860Y91682D01*
X74850Y91677D01*
X74835Y91667D01*
X74810Y91657D01*
X74780Y91642D01*
X74734Y91627D01*
X74684Y91606D01*
X74624Y91586D01*
X74553Y91561D01*
X74473Y91536D01*
X74372Y91511D01*
X74262Y91481D01*
X74136Y91445D01*
X73995Y91410D01*
X73839Y91375D01*
X73829D01*
X73799Y91365D01*
X73754Y91355D01*
X73693Y91340D01*
X73623Y91320D01*
X73537Y91295D01*
X73447Y91269D01*
X73351Y91239D01*
X73145Y91169D01*
X72939Y91083D01*
X72843Y91038D01*
X72753Y90988D01*
X72667Y90937D01*
X72597Y90882D01*
X72592Y90877D01*
X72582Y90867D01*
X72566Y90852D01*
X72541Y90827D01*
X72516Y90797D01*
X72486Y90761D01*
X72451Y90716D01*
X72421Y90666D01*
X72385Y90610D01*
X72355Y90550D01*
X72325Y90485D01*
X72300Y90409D01*
X72275Y90329D01*
X72260Y90243D01*
X72250Y90153D01*
X72245Y90057D01*
Y90032D01*
X72250Y90002D01*
Y89962D01*
X72260Y89911D01*
X72270Y89851D01*
X72285Y89785D01*
X72305Y89715D01*
X72330Y89640D01*
X72360Y89559D01*
X72400Y89479D01*
X72446Y89393D01*
X72501Y89308D01*
X72566Y89222D01*
X72642Y89142D01*
X72727Y89061D01*
X72733Y89056D01*
X72748Y89046D01*
X72778Y89021D01*
X72818Y88996D01*
X72868Y88966D01*
X72929Y88930D01*
X73004Y88895D01*
X73085Y88855D01*
X73180Y88815D01*
X73286Y88779D01*
X73406Y88744D01*
X73532Y88714D01*
X73673Y88689D01*
X73824Y88669D01*
X73985Y88654D01*
X74156Y88649D01*
X74236D01*
X74297Y88654D01*
X74372Y88659D01*
X74453Y88669D01*
X74548Y88679D01*
X74649Y88694D01*
X74755Y88709D01*
X74865Y88734D01*
X74981Y88759D01*
X75091Y88795D01*
X75207Y88835D01*
X75318Y88880D01*
X75419Y88936D01*
X75519Y88996D01*
X75524Y89001D01*
X75539Y89011D01*
X75564Y89031D01*
X75600Y89061D01*
X75640Y89096D01*
X75685Y89137D01*
X75735Y89187D01*
X75786Y89242D01*
X75841Y89308D01*
X75896Y89378D01*
X75952Y89459D01*
X76002Y89539D01*
X76052Y89630D01*
X76098Y89730D01*
X76138Y89831D01*
X76168Y89942D01*
X75051Y90113D01*
Y90108D01*
X75046Y90097D01*
X75041Y90082D01*
X75036Y90057D01*
X75016Y90002D01*
X74991Y89926D01*
X74951Y89851D01*
X74900Y89765D01*
X74840Y89690D01*
X74765Y89620D01*
X74760D01*
X74755Y89614D01*
X74724Y89594D01*
X74674Y89569D01*
X74609Y89539D01*
X74523Y89504D01*
X74418Y89479D01*
X74297Y89459D01*
X74156Y89454D01*
X74116D01*
X74085Y89459D01*
X74050D01*
X74010Y89464D01*
X73914Y89474D01*
X73809Y89494D01*
X73703Y89519D01*
X73603Y89559D01*
X73512Y89609D01*
X73507Y89614D01*
X73487Y89630D01*
X73462Y89655D01*
X73437Y89690D01*
X73406Y89730D01*
X73386Y89780D01*
X73366Y89841D01*
X73361Y89906D01*
Y89911D01*
Y89926D01*
X73366Y89951D01*
X73371Y89982D01*
X73381Y90012D01*
X73396Y90047D01*
X73417Y90082D01*
X73442Y90118D01*
X73447Y90123D01*
X73462Y90133D01*
X73482Y90148D01*
X73522Y90163D01*
X73572Y90188D01*
X73633Y90213D01*
X73713Y90238D01*
X73814Y90263D01*
X73819D01*
X73829Y90268D01*
X73849Y90273D01*
X73874Y90279D01*
X73905Y90284D01*
X73940Y90294D01*
X73980Y90304D01*
X74030Y90314D01*
X74136Y90339D01*
X74257Y90369D01*
X74392Y90404D01*
X74528Y90444D01*
X74820Y90525D01*
X74961Y90570D01*
X75102Y90615D01*
X75227Y90661D01*
X75343Y90711D01*
X75439Y90756D01*
X75484Y90781D01*
X75519Y90802D01*
X75524Y90807D01*
X75539Y90817D01*
X75564Y90837D01*
X75595Y90867D01*
X75635Y90897D01*
X75675Y90942D01*
X75720Y90993D01*
X75766Y91048D01*
X75811Y91114D01*
X75856Y91184D01*
X75896Y91259D01*
X75937Y91345D01*
X75967Y91435D01*
X75992Y91536D01*
X76007Y91637D01*
X76012Y91747D01*
Y91752D01*
Y91772D01*
X76007Y91803D01*
Y91838D01*
X75997Y91888D01*
X75987Y91938D01*
X75977Y92004D01*
X75957Y92069D01*
X75937Y92140D01*
X75906Y92215D01*
X75871Y92291D01*
X75831Y92366D01*
X75781Y92446D01*
X75725Y92522D01*
X75660Y92597D01*
X75585Y92668D01*
X75579Y92673D01*
X75564Y92683D01*
X75539Y92703D01*
X75504Y92728D01*
X75459Y92753D01*
X75398Y92783D01*
X75333Y92819D01*
X75252Y92854D01*
X75167Y92889D01*
X75066Y92924D01*
X74956Y92954D01*
X74835Y92980D01*
X74704Y93005D01*
X74563Y93025D01*
X74413Y93035D01*
X74247Y93040D01*
D02*
G37*
G36*
X64363Y93040D02*
X60414D01*
D01*
X62356D01*
X62305Y93035D01*
X62240D01*
X62169Y93030D01*
X62094Y93025D01*
X62009Y93020D01*
X61827Y92995D01*
X61646Y92965D01*
X61556Y92944D01*
X61470Y92924D01*
X61390Y92894D01*
X61319Y92864D01*
X61314D01*
X61304Y92854D01*
X61284Y92844D01*
X61259Y92834D01*
X61229Y92814D01*
X61194Y92794D01*
X61118Y92743D01*
X61033Y92678D01*
X60947Y92602D01*
X60867Y92512D01*
X60831Y92466D01*
X60801Y92416D01*
Y92411D01*
X60796Y92401D01*
X60786Y92386D01*
X60776Y92361D01*
X60766Y92331D01*
X60751Y92291D01*
X60741Y92245D01*
X60726Y92190D01*
X60711Y92124D01*
X60696Y92054D01*
X60686Y91974D01*
X60676Y91883D01*
X60666Y91782D01*
X60655Y91672D01*
X60650Y91551D01*
Y91420D01*
X60666Y90123D01*
Y90118D01*
Y90097D01*
Y90072D01*
Y90032D01*
Y89987D01*
X60660Y89931D01*
Y89876D01*
Y89811D01*
X60655Y89680D01*
X60645Y89544D01*
X60630Y89413D01*
X60625Y89358D01*
X60615Y89303D01*
Y89298D01*
X60610Y89293D01*
Y89277D01*
X60605Y89257D01*
X60590Y89202D01*
X60570Y89137D01*
X60540Y89051D01*
X60505Y88956D01*
X60464Y88855D01*
X60414Y88744D01*
D01*
X61516D01*
Y88749D01*
X61526Y88764D01*
X61536Y88790D01*
X61546Y88825D01*
X61561Y88875D01*
X61581Y88930D01*
X61601Y88996D01*
X61626Y89071D01*
Y89076D01*
X61631Y89086D01*
X61636Y89107D01*
X61641Y89127D01*
X61651Y89167D01*
X61661Y89187D01*
X61667Y89202D01*
X61672Y89197D01*
X61682Y89192D01*
X61697Y89177D01*
X61717Y89157D01*
X61742Y89132D01*
X61772Y89107D01*
X61848Y89046D01*
X61938Y88981D01*
X62044Y88910D01*
X62154Y88845D01*
X62275Y88785D01*
X62280D01*
X62290Y88779D01*
X62305Y88775D01*
X62330Y88764D01*
X62361Y88754D01*
X62396Y88739D01*
X62436Y88729D01*
X62481Y88719D01*
X62587Y88694D01*
X62703Y88669D01*
X62833Y88654D01*
X62969Y88649D01*
X63030D01*
X63075Y88654D01*
X63130Y88659D01*
X63196Y88669D01*
X63266Y88679D01*
X63341Y88694D01*
X63422Y88709D01*
X63502Y88734D01*
X63588Y88764D01*
X63673Y88800D01*
X63759Y88840D01*
X63839Y88885D01*
X63915Y88941D01*
X63990Y89001D01*
X63995Y89006D01*
X64005Y89016D01*
X64025Y89036D01*
X64051Y89066D01*
X64076Y89101D01*
X64106Y89142D01*
X64141Y89187D01*
X64176Y89242D01*
X64212Y89308D01*
X64247Y89373D01*
X64277Y89448D01*
X64302Y89524D01*
X64327Y89609D01*
X64347Y89700D01*
X64358Y89791D01*
X64363Y89891D01*
Y88649D01*
D01*
Y93040D01*
D02*
G37*
G36*
X49987D02*
X46063D01*
X48025D01*
X47975Y93035D01*
X47909Y93030D01*
X47829Y93020D01*
X47738Y93005D01*
X47638Y92990D01*
X47527Y92965D01*
X47412Y92929D01*
X47291Y92889D01*
X47170Y92839D01*
X47044Y92778D01*
X46924Y92708D01*
X46803Y92623D01*
X46692Y92527D01*
X46586Y92416D01*
X46582Y92411D01*
X46561Y92386D01*
X46536Y92351D01*
X46501Y92300D01*
X46461Y92235D01*
X46415Y92155D01*
X46365Y92059D01*
X46315Y91948D01*
X46270Y91823D01*
X46219Y91682D01*
X46174Y91526D01*
X46139Y91360D01*
X46104Y91174D01*
X46079Y90973D01*
X46063Y90756D01*
Y90525D01*
X48845D01*
Y90520D01*
Y90505D01*
X48840Y90480D01*
Y90444D01*
X48835Y90399D01*
X48830Y90354D01*
X48820Y90299D01*
X48810Y90243D01*
X48775Y90118D01*
X48729Y89987D01*
X48699Y89926D01*
X48664Y89861D01*
X48624Y89806D01*
X48578Y89750D01*
X48573Y89745D01*
X48568Y89740D01*
X48553Y89725D01*
X48533Y89710D01*
X48508Y89690D01*
X48478Y89665D01*
X48402Y89614D01*
X48312Y89564D01*
X48201Y89519D01*
X48075Y89489D01*
X48010Y89484D01*
X47940Y89479D01*
X47894D01*
X47849Y89489D01*
X47789Y89499D01*
X47718Y89514D01*
X47643Y89539D01*
X47572Y89574D01*
X47502Y89620D01*
X47492Y89625D01*
X47472Y89645D01*
X47442Y89680D01*
X47401Y89730D01*
X47356Y89796D01*
X47311Y89876D01*
X47271Y89972D01*
X47230Y90082D01*
X46124Y89896D01*
Y89891D01*
X46134Y89871D01*
X46149Y89836D01*
X46164Y89796D01*
X46189Y89745D01*
X46214Y89685D01*
X46249Y89620D01*
X46290Y89549D01*
X46335Y89474D01*
X46385Y89398D01*
X46441Y89323D01*
X46501Y89247D01*
X46566Y89167D01*
X46642Y89096D01*
X46717Y89026D01*
X46803Y88966D01*
X46808Y88961D01*
X46823Y88951D01*
X46848Y88936D01*
X46883Y88915D01*
X46929Y88890D01*
X46984Y88865D01*
X47049Y88835D01*
X47120Y88810D01*
X47200Y88779D01*
X47286Y88749D01*
X47381Y88724D01*
X47482Y88699D01*
X47592Y88679D01*
X47708Y88664D01*
X47829Y88654D01*
X47955Y88649D01*
X48000D01*
X48030Y88654D01*
X48060D01*
X48136Y88659D01*
X48226Y88669D01*
X48327Y88689D01*
X48443Y88709D01*
X48568Y88739D01*
X48694Y88775D01*
X48830Y88825D01*
X48966Y88880D01*
X49097Y88951D01*
X49227Y89031D01*
X49353Y89127D01*
X49469Y89237D01*
X49574Y89363D01*
X49579Y89368D01*
X49589Y89388D01*
X49615Y89423D01*
X49640Y89469D01*
X49670Y89524D01*
X49705Y89589D01*
X49740Y89670D01*
X49781Y89760D01*
X49821Y89861D01*
X49856Y89967D01*
X49891Y90087D01*
X49921Y90218D01*
X49947Y90354D01*
X49967Y90500D01*
X49982Y90651D01*
X49987Y90812D01*
Y88649D01*
D01*
Y93040D01*
D02*
G37*
G36*
X130708Y94544D02*
X126086Y94544D01*
Y88644D01*
D01*
Y91325D01*
X126091Y91239D01*
Y91144D01*
X126096Y91033D01*
Y90917D01*
X126101Y90797D01*
X126111Y90676D01*
X126126Y90429D01*
X126136Y90314D01*
X126151Y90203D01*
X126166Y90108D01*
X126181Y90017D01*
Y90012D01*
X126186Y89997D01*
X126191Y89977D01*
X126201Y89947D01*
X126211Y89911D01*
X126226Y89866D01*
X126242Y89821D01*
X126262Y89765D01*
X126307Y89655D01*
X126372Y89529D01*
X126443Y89408D01*
X126533Y89293D01*
X126538Y89288D01*
X126543Y89277D01*
X126558Y89262D01*
X126579Y89242D01*
X126604Y89217D01*
X126639Y89192D01*
X126674Y89157D01*
X126714Y89122D01*
X126815Y89046D01*
X126931Y88966D01*
X127067Y88890D01*
X127217Y88820D01*
X127223D01*
X127238Y88815D01*
X127263Y88805D01*
X127293Y88795D01*
X127338Y88779D01*
X127388Y88765D01*
X127449Y88749D01*
X127514Y88734D01*
X127590Y88714D01*
X127675Y88699D01*
X127766Y88684D01*
X127866Y88674D01*
X127972Y88659D01*
X128083Y88654D01*
X128203Y88644D01*
X128410D01*
D01*
X128533D01*
X128410D01*
X128465Y88649D01*
X128535D01*
X128616Y88654D01*
X128701Y88659D01*
X128797Y88669D01*
X128898Y88679D01*
X129003Y88689D01*
X129209Y88724D01*
X129315Y88744D01*
X129411Y88770D01*
X129506Y88800D01*
X129592Y88835D01*
X129597D01*
X129612Y88845D01*
X129632Y88855D01*
X129662Y88870D01*
X129697Y88890D01*
X129737Y88910D01*
X129838Y88971D01*
X129944Y89041D01*
X130059Y89127D01*
X130170Y89222D01*
X130271Y89333D01*
X130276Y89338D01*
X130281Y89348D01*
X130296Y89363D01*
X130311Y89388D01*
X130331Y89413D01*
X130351Y89449D01*
X130401Y89529D01*
X130457Y89625D01*
X130512Y89735D01*
X130562Y89851D01*
X130598Y89977D01*
Y89982D01*
X130603Y90002D01*
X130608Y90027D01*
X130613Y90072D01*
X130623Y90123D01*
X130633Y90188D01*
X130643Y90258D01*
X130653Y90349D01*
X130663Y90444D01*
X130673Y90555D01*
X130683Y90676D01*
X130693Y90807D01*
X130698Y90948D01*
X130703Y91103D01*
X130708Y91269D01*
Y94544D01*
D02*
G37*
G36*
X115694Y94644D02*
X110976D01*
Y88644D01*
D01*
Y90384D01*
X110981Y90349D01*
X110986Y90304D01*
X110991Y90253D01*
X111001Y90193D01*
X111011Y90133D01*
X111026Y90062D01*
X111046Y89987D01*
X111096Y89831D01*
X111126Y89750D01*
X111162Y89665D01*
X111207Y89579D01*
X111257Y89499D01*
X111262Y89494D01*
X111272Y89479D01*
X111287Y89459D01*
X111308Y89428D01*
X111338Y89393D01*
X111373Y89353D01*
X111413Y89308D01*
X111458Y89257D01*
X111514Y89207D01*
X111569Y89152D01*
X111635Y89096D01*
X111705Y89046D01*
X111780Y88991D01*
X111861Y88946D01*
X111951Y88895D01*
X112042Y88855D01*
X112047D01*
X112067Y88845D01*
X112092Y88835D01*
X112133Y88820D01*
X112183Y88805D01*
X112243Y88790D01*
X112309Y88770D01*
X112389Y88749D01*
X112475Y88729D01*
X112570Y88709D01*
X112676Y88694D01*
X112786Y88679D01*
X112902Y88664D01*
X113028Y88654D01*
X113159Y88649D01*
X113299Y88644D01*
X113375D01*
X113405Y88649D01*
X113480Y88654D01*
X113571Y88659D01*
X113677Y88669D01*
X113797Y88684D01*
X113923Y88709D01*
X114059Y88734D01*
X114195Y88770D01*
X114341Y88810D01*
X114481Y88860D01*
X114617Y88915D01*
X114753Y88986D01*
X114879Y89061D01*
X114995Y89152D01*
X115000Y89157D01*
X115020Y89177D01*
X115050Y89207D01*
X115090Y89247D01*
X115135Y89298D01*
X115186Y89363D01*
X115241Y89438D01*
X115301Y89529D01*
X115362Y89625D01*
X115422Y89735D01*
X115482Y89861D01*
X115538Y89992D01*
X115588Y90138D01*
X115633Y90294D01*
X115669Y90460D01*
X115694Y90636D01*
X114552Y90746D01*
Y90741D01*
X114547Y90721D01*
X114542Y90691D01*
X114532Y90651D01*
X114517Y90605D01*
X114502Y90550D01*
X114487Y90490D01*
X114461Y90424D01*
X114406Y90284D01*
X114336Y90148D01*
X114245Y90012D01*
X114195Y89957D01*
X114139Y89901D01*
X114134Y89896D01*
X114124Y89891D01*
X114104Y89876D01*
X114079Y89861D01*
X114049Y89841D01*
X114009Y89816D01*
X113963Y89791D01*
X113913Y89771D01*
X113858Y89745D01*
X113792Y89720D01*
X113722Y89695D01*
X113646Y89675D01*
X113566Y89660D01*
X113480Y89645D01*
X113385Y89640D01*
X113289Y89635D01*
X113234D01*
X113194Y89640D01*
X113148D01*
X113093Y89650D01*
X113033Y89655D01*
X112967Y89665D01*
X112832Y89695D01*
X112691Y89735D01*
X112555Y89796D01*
X112490Y89831D01*
X112434Y89871D01*
X112429Y89876D01*
X112424Y89881D01*
X112409Y89896D01*
X112389Y89916D01*
X112344Y89967D01*
X112288Y90032D01*
X112238Y90113D01*
X112193Y90208D01*
X112173Y90258D01*
X112158Y90314D01*
X112153Y90369D01*
X112148Y90429D01*
Y90439D01*
Y90465D01*
X112153Y90505D01*
X112163Y90550D01*
X112178Y90605D01*
X112198Y90666D01*
X112228Y90726D01*
X112268Y90781D01*
X112273Y90786D01*
X112293Y90807D01*
X112324Y90832D01*
X112364Y90867D01*
X112424Y90907D01*
X112500Y90948D01*
X112585Y90993D01*
X112691Y91033D01*
X112701Y91038D01*
X112716Y91043D01*
X112736Y91048D01*
X112761Y91053D01*
X112796Y91063D01*
X112837Y91078D01*
X112887Y91093D01*
X112942Y91108D01*
X113013Y91123D01*
X113088Y91144D01*
X113174Y91169D01*
X113269Y91194D01*
X113380Y91224D01*
X113501Y91254D01*
X113631Y91285D01*
X113636D01*
X113642Y91290D01*
X113672Y91295D01*
X113722Y91310D01*
X113782Y91325D01*
X113863Y91350D01*
X113948Y91375D01*
X114044Y91405D01*
X114149Y91445D01*
X114366Y91526D01*
X114582Y91627D01*
X114688Y91677D01*
X114783Y91737D01*
X114874Y91798D01*
X114949Y91858D01*
X114954Y91863D01*
X114974Y91878D01*
X115000Y91908D01*
X115035Y91943D01*
X115075Y91989D01*
X115120Y92044D01*
X115166Y92109D01*
X115216Y92185D01*
X115266Y92265D01*
X115311Y92351D01*
X115357Y92451D01*
X115397Y92552D01*
X115432Y92663D01*
X115457Y92778D01*
X115477Y92899D01*
X115482Y93025D01*
Y93030D01*
Y93045D01*
Y93070D01*
X115477Y93100D01*
X115472Y93141D01*
X115467Y93186D01*
X115462Y93236D01*
X115452Y93296D01*
X115422Y93422D01*
X115377Y93558D01*
X115352Y93634D01*
X115316Y93704D01*
X115281Y93779D01*
X115236Y93850D01*
X115231Y93855D01*
X115226Y93865D01*
X115211Y93885D01*
X115191Y93915D01*
X115166Y93945D01*
X115130Y93986D01*
X115095Y94026D01*
X115050Y94071D01*
X115005Y94116D01*
X114949Y94162D01*
X114889Y94212D01*
X114823Y94262D01*
X114753Y94308D01*
X114678Y94358D01*
X114597Y94398D01*
X114512Y94438D01*
X114507D01*
X114491Y94448D01*
X114461Y94458D01*
X114426Y94468D01*
X114381Y94489D01*
X114325Y94504D01*
X114265Y94524D01*
X114190Y94544D01*
X114114Y94559D01*
X114024Y94579D01*
X113933Y94599D01*
X113833Y94614D01*
X113722Y94624D01*
X113611Y94634D01*
X113491Y94644D01*
X115694D01*
D02*
G37*
%LPD*%
G36*
X60022Y88649D02*
X58482D01*
X58538Y88654D01*
X58608Y88664D01*
X58694Y88674D01*
X58784Y88689D01*
X58880Y88714D01*
X58970Y88749D01*
X58975D01*
X58980Y88754D01*
X59011Y88770D01*
X59051Y88790D01*
X59106Y88820D01*
X59162Y88855D01*
X59222Y88900D01*
X59277Y88951D01*
X59328Y89006D01*
X59333Y89016D01*
X59348Y89036D01*
X59363Y89071D01*
X59388Y89122D01*
X59413Y89182D01*
X59438Y89257D01*
X59458Y89348D01*
X59478Y89443D01*
Y89454D01*
X59483Y89464D01*
Y89484D01*
X59488Y89504D01*
Y89534D01*
X59493Y89569D01*
Y89614D01*
X59499Y89665D01*
X59504Y89720D01*
Y89785D01*
X59509Y89856D01*
Y89936D01*
X59514Y90022D01*
Y90123D01*
Y90228D01*
Y92064D01*
X60022D01*
Y88649D01*
D02*
G37*
G36*
X69327Y92155D02*
X69362Y92150D01*
X69403Y92145D01*
X69498Y92119D01*
X69609Y92084D01*
X69664Y92059D01*
X69719Y92024D01*
X69775Y91989D01*
X69835Y91948D01*
X69890Y91898D01*
X69941Y91843D01*
X69946Y91838D01*
X69951Y91828D01*
X69966Y91808D01*
X69981Y91782D01*
X70001Y91752D01*
X70026Y91712D01*
X70051Y91662D01*
X70072Y91606D01*
X70097Y91546D01*
X70122Y91476D01*
X70147Y91400D01*
X70167Y91315D01*
X70182Y91224D01*
X70197Y91128D01*
X70202Y91023D01*
X70207Y90912D01*
Y90902D01*
Y90882D01*
Y90847D01*
X70202Y90797D01*
X70197Y90736D01*
X70192Y90671D01*
X70182Y90595D01*
X70172Y90515D01*
X70137Y90344D01*
X70087Y90173D01*
X70056Y90087D01*
X70016Y90007D01*
X69976Y89931D01*
X69926Y89866D01*
X69921Y89861D01*
X69911Y89851D01*
X69896Y89836D01*
X69875Y89816D01*
X69850Y89785D01*
X69815Y89760D01*
X69775Y89730D01*
X69735Y89700D01*
X69634Y89635D01*
X69518Y89584D01*
X69453Y89559D01*
X69388Y89544D01*
X69317Y89534D01*
X69242Y89529D01*
X69201D01*
X69176Y89534D01*
X69141Y89539D01*
X69106Y89544D01*
X69015Y89569D01*
X68910Y89605D01*
X68854Y89630D01*
X68804Y89660D01*
X68749Y89695D01*
X68693Y89735D01*
X68643Y89780D01*
X68593Y89836D01*
X68588Y89841D01*
X68583Y89851D01*
X68568Y89871D01*
X68553Y89896D01*
X68532Y89931D01*
X68512Y89972D01*
X68487Y90022D01*
X68462Y90082D01*
X68437Y90148D01*
X68412Y90223D01*
X68392Y90304D01*
X68371Y90399D01*
X68356Y90500D01*
X68341Y90610D01*
X68336Y90731D01*
X68331Y90857D01*
Y90867D01*
Y90887D01*
Y90922D01*
X68336Y90968D01*
X68341Y91018D01*
X68346Y91083D01*
X68351Y91154D01*
X68366Y91229D01*
X68397Y91385D01*
X68442Y91551D01*
X68472Y91627D01*
X68507Y91702D01*
X68553Y91772D01*
X68598Y91838D01*
X68603Y91843D01*
X68608Y91853D01*
X68623Y91868D01*
X68643Y91888D01*
X68673Y91913D01*
X68703Y91938D01*
X68739Y91969D01*
X68779Y91999D01*
X68875Y92059D01*
X68990Y92109D01*
X69051Y92129D01*
X69121Y92145D01*
X69186Y92155D01*
X69262Y92160D01*
X69302D01*
X69327Y92155D01*
D02*
G37*
G36*
X107349Y92949D02*
X106318D01*
Y92351D01*
X106313Y92356D01*
X106308Y92371D01*
X106293Y92391D01*
X106272Y92421D01*
X106252Y92451D01*
X106222Y92492D01*
X106162Y92577D01*
X106086Y92673D01*
X106006Y92763D01*
X105925Y92844D01*
X105885Y92879D01*
X105845Y92904D01*
X105835Y92909D01*
X105810Y92924D01*
X105764Y92949D01*
X105704Y92975D01*
X105634Y92995D01*
X105553Y93020D01*
X105463Y93035D01*
X105362Y93040D01*
X107349D01*
Y92949D01*
D02*
G37*
G36*
X92078D02*
X91052D01*
Y92371D01*
X91047Y92381D01*
X91027Y92401D01*
X90996Y92431D01*
X90956Y92477D01*
X90901Y92527D01*
X90841Y92582D01*
X90765Y92643D01*
X90684Y92708D01*
X90589Y92768D01*
X90493Y92829D01*
X90383Y92884D01*
X90267Y92934D01*
X90146Y92980D01*
X90016Y93010D01*
X89885Y93035D01*
X89744Y93040D01*
X92078D01*
Y92949D01*
D02*
G37*
G36*
X89643Y93035D02*
X89603Y93030D01*
X89508Y93020D01*
X89397Y93000D01*
X89281Y92970D01*
X89161Y92924D01*
X89045Y92869D01*
X89040D01*
X89030Y92859D01*
X89015Y92854D01*
X88994Y92839D01*
X88939Y92799D01*
X88874Y92743D01*
X88793Y92673D01*
X88713Y92587D01*
X88632Y92487D01*
X88557Y92371D01*
X88552Y92376D01*
X88542Y92386D01*
X88527Y92401D01*
X88507Y92426D01*
X88481Y92451D01*
X88451Y92487D01*
X88381Y92557D01*
X88290Y92638D01*
X88190Y92723D01*
X88079Y92799D01*
X87963Y92869D01*
X87958D01*
X87948Y92874D01*
X87933Y92884D01*
X87908Y92894D01*
X87878Y92909D01*
X87843Y92924D01*
X87802Y92939D01*
X87757Y92954D01*
X87651Y92985D01*
X87536Y93015D01*
X87410Y93035D01*
X87274Y93040D01*
X89679D01*
X89643Y93035D01*
D02*
G37*
G36*
X54619Y92949D02*
X53588D01*
Y92331D01*
X53583Y92341D01*
X53563Y92361D01*
X53533Y92396D01*
X53488Y92441D01*
X53437Y92497D01*
X53372Y92557D01*
X53297Y92617D01*
X53211Y92688D01*
X53115Y92753D01*
X53010Y92814D01*
X52894Y92874D01*
X52773Y92929D01*
X52643Y92975D01*
X52502Y93010D01*
X52356Y93030D01*
X52205Y93040D01*
X54619D01*
Y92949D01*
D02*
G37*
G36*
X102304Y92129D02*
X102344Y92124D01*
X102389Y92114D01*
X102435Y92104D01*
X102490Y92094D01*
X102606Y92054D01*
X102666Y92024D01*
X102726Y91994D01*
X102792Y91953D01*
X102852Y91908D01*
X102912Y91858D01*
X102968Y91798D01*
X102973Y91793D01*
X102978Y91782D01*
X102993Y91762D01*
X103013Y91737D01*
X103033Y91702D01*
X103058Y91662D01*
X103088Y91611D01*
X103114Y91556D01*
X103139Y91491D01*
X103169Y91420D01*
X103194Y91340D01*
X103214Y91254D01*
X103234Y91164D01*
X103244Y91063D01*
X103254Y90957D01*
X103260Y90842D01*
Y90837D01*
Y90817D01*
Y90781D01*
X103254Y90741D01*
X103250Y90686D01*
X103244Y90626D01*
X103234Y90560D01*
X103224Y90490D01*
X103189Y90334D01*
X103164Y90253D01*
X103134Y90178D01*
X103104Y90097D01*
X103063Y90022D01*
X103018Y89951D01*
X102968Y89886D01*
X102963Y89881D01*
X102953Y89871D01*
X102938Y89856D01*
X102912Y89836D01*
X102887Y89811D01*
X102852Y89780D01*
X102812Y89750D01*
X102767Y89720D01*
X102711Y89690D01*
X102656Y89660D01*
X102530Y89605D01*
X102465Y89584D01*
X102389Y89569D01*
X102314Y89559D01*
X102233Y89554D01*
X102193D01*
X102163Y89559D01*
X102123Y89564D01*
X102083Y89574D01*
X102032Y89584D01*
X101982Y89594D01*
X101866Y89635D01*
X101806Y89660D01*
X101745Y89695D01*
X101680Y89730D01*
X101620Y89776D01*
X101559Y89826D01*
X101504Y89886D01*
X101499Y89891D01*
X101489Y89901D01*
X101479Y89921D01*
X101459Y89947D01*
X101434Y89982D01*
X101409Y90027D01*
X101383Y90072D01*
X101353Y90133D01*
X101328Y90198D01*
X101303Y90268D01*
X101278Y90349D01*
X101253Y90434D01*
X101232Y90530D01*
X101222Y90631D01*
X101212Y90736D01*
X101207Y90852D01*
Y90857D01*
Y90877D01*
Y90912D01*
X101212Y90952D01*
X101217Y91003D01*
X101222Y91063D01*
X101232Y91129D01*
X101242Y91199D01*
X101278Y91355D01*
X101303Y91430D01*
X101333Y91511D01*
X101368Y91586D01*
X101403Y91662D01*
X101454Y91732D01*
X101504Y91798D01*
X101509Y91803D01*
X101519Y91813D01*
X101534Y91828D01*
X101559Y91853D01*
X101585Y91878D01*
X101620Y91903D01*
X101660Y91933D01*
X101705Y91969D01*
X101756Y91999D01*
X101811Y92029D01*
X101937Y92084D01*
X102007Y92104D01*
X102077Y92119D01*
X102153Y92129D01*
X102233Y92135D01*
X102274D01*
X102304Y92129D01*
D02*
G37*
G36*
X83185Y92185D02*
X83215Y92180D01*
X83250Y92175D01*
X83336Y92155D01*
X83431Y92124D01*
X83532Y92079D01*
X83582Y92049D01*
X83627Y92014D01*
X83678Y91969D01*
X83723Y91923D01*
Y91918D01*
X83733Y91913D01*
X83743Y91898D01*
X83758Y91873D01*
X83778Y91848D01*
X83798Y91818D01*
X83819Y91777D01*
X83839Y91732D01*
X83864Y91687D01*
X83884Y91632D01*
X83904Y91571D01*
X83924Y91506D01*
X83949Y91365D01*
X83954Y91285D01*
X83959Y91204D01*
X82294D01*
Y91209D01*
Y91224D01*
X82300Y91249D01*
Y91285D01*
X82305Y91325D01*
X82310Y91370D01*
X82320Y91420D01*
X82330Y91476D01*
X82360Y91596D01*
X82405Y91717D01*
X82465Y91833D01*
X82506Y91888D01*
X82546Y91938D01*
X82551Y91943D01*
X82556Y91948D01*
X82571Y91963D01*
X82586Y91979D01*
X82636Y92019D01*
X82707Y92064D01*
X82793Y92109D01*
X82888Y92150D01*
X83004Y92180D01*
X83059Y92185D01*
X83125Y92190D01*
X83160D01*
X83185Y92185D01*
D02*
G37*
G36*
X85116Y90857D02*
X85111Y90912D01*
X85106Y90983D01*
X85101Y91073D01*
X85086Y91174D01*
X85071Y91285D01*
X85046Y91405D01*
X85021Y91536D01*
X84986Y91667D01*
X84940Y91803D01*
X84885Y91938D01*
X84825Y92074D01*
X84754Y92205D01*
X84669Y92331D01*
X84573Y92446D01*
X84568Y92451D01*
X84548Y92472D01*
X84518Y92502D01*
X84473Y92537D01*
X84422Y92582D01*
X84357Y92633D01*
X84281Y92688D01*
X84196Y92743D01*
X84100Y92799D01*
X83995Y92854D01*
X83884Y92904D01*
X83758Y92949D01*
X83632Y92985D01*
X83492Y93015D01*
X83346Y93035D01*
X83195Y93040D01*
X85116D01*
Y90857D01*
D02*
G37*
G36*
X64363Y89926D02*
X64358Y89951D01*
Y89982D01*
X64353Y90017D01*
X64342Y90102D01*
X64322Y90198D01*
X64292Y90304D01*
X64252Y90414D01*
X64197Y90520D01*
Y90525D01*
X64187Y90530D01*
X64176Y90545D01*
X64166Y90565D01*
X64126Y90615D01*
X64071Y90681D01*
X64005Y90746D01*
X63925Y90822D01*
X63829Y90887D01*
X63719Y90948D01*
X63714D01*
X63704Y90952D01*
X63688Y90963D01*
X63663Y90973D01*
X63628Y90988D01*
X63593Y91003D01*
X63548Y91018D01*
X63492Y91038D01*
X63432Y91058D01*
X63367Y91078D01*
X63296Y91098D01*
X63216Y91123D01*
X63130Y91144D01*
X63040Y91164D01*
X62939Y91189D01*
X62833Y91209D01*
X62823D01*
X62798Y91214D01*
X62758Y91224D01*
X62708Y91234D01*
X62642Y91249D01*
X62567Y91264D01*
X62486Y91279D01*
X62401Y91300D01*
X62225Y91340D01*
X62044Y91385D01*
X61958Y91410D01*
X61878Y91435D01*
X61807Y91461D01*
X61747Y91486D01*
Y91596D01*
Y91601D01*
Y91611D01*
Y91627D01*
Y91647D01*
X61757Y91702D01*
X61767Y91772D01*
X61787Y91848D01*
X61812Y91923D01*
X61853Y91989D01*
X61908Y92049D01*
X61913Y92054D01*
X61938Y92069D01*
X61978Y92094D01*
X62009Y92104D01*
X62039Y92119D01*
X62079Y92135D01*
X62124Y92145D01*
X62169Y92160D01*
X62225Y92170D01*
X62285Y92175D01*
X62356Y92185D01*
X62426Y92190D01*
X62557D01*
X62607Y92185D01*
X62678Y92175D01*
X62748Y92160D01*
X62828Y92140D01*
X62904Y92109D01*
X62969Y92069D01*
X62974Y92064D01*
X62994Y92049D01*
X63025Y92019D01*
X63065Y91974D01*
X63105Y91918D01*
X63150Y91848D01*
X63196Y91762D01*
X63236Y91662D01*
X64247Y91843D01*
Y91848D01*
X64237Y91868D01*
X64227Y91903D01*
X64217Y91943D01*
X64197Y91994D01*
X64171Y92049D01*
X64146Y92114D01*
X64111Y92185D01*
X64076Y92255D01*
X64031Y92331D01*
X63985Y92406D01*
X63930Y92482D01*
X63870Y92552D01*
X63809Y92623D01*
X63739Y92683D01*
X63663Y92743D01*
X63658Y92748D01*
X63643Y92758D01*
X63618Y92768D01*
X63583Y92788D01*
X63543Y92814D01*
X63487Y92839D01*
X63427Y92864D01*
X63352Y92894D01*
X63271Y92919D01*
X63175Y92944D01*
X63075Y92970D01*
X62964Y92995D01*
X62844Y93015D01*
X62713Y93025D01*
X62577Y93035D01*
X62426Y93040D01*
X64363D01*
Y89926D01*
D02*
G37*
G36*
X61757Y90756D02*
X61772D01*
X61787Y90746D01*
X61812Y90741D01*
X61838Y90731D01*
X61873Y90721D01*
X61913Y90711D01*
X61958Y90701D01*
X62009Y90686D01*
X62064Y90671D01*
X62124Y90656D01*
X62195Y90641D01*
X62265Y90620D01*
X62345Y90605D01*
X62431Y90585D01*
X62436D01*
X62451Y90580D01*
X62476Y90575D01*
X62507Y90570D01*
X62542Y90560D01*
X62587Y90550D01*
X62678Y90525D01*
X62783Y90495D01*
X62879Y90465D01*
X62924Y90450D01*
X62969Y90429D01*
X63004Y90414D01*
X63035Y90394D01*
X63045Y90389D01*
X63070Y90369D01*
X63105Y90334D01*
X63140Y90289D01*
X63181Y90233D01*
X63216Y90163D01*
X63241Y90087D01*
X63246Y90047D01*
X63251Y90002D01*
Y89992D01*
X63246Y89962D01*
X63241Y89921D01*
X63231Y89866D01*
X63211Y89801D01*
X63181Y89735D01*
X63135Y89665D01*
X63080Y89599D01*
X63070Y89594D01*
X63050Y89574D01*
X63010Y89549D01*
X62959Y89519D01*
X62894Y89484D01*
X62818Y89459D01*
X62728Y89438D01*
X62632Y89433D01*
X62602D01*
X62582Y89438D01*
X62552D01*
X62522Y89443D01*
X62446Y89459D01*
X62361Y89484D01*
X62265Y89514D01*
X62159Y89564D01*
X62059Y89630D01*
X62049Y89635D01*
X62029Y89655D01*
X61993Y89690D01*
X61948Y89730D01*
X61903Y89785D01*
X61863Y89846D01*
X61822Y89921D01*
X61792Y89997D01*
Y90002D01*
X61787Y90027D01*
X61777Y90062D01*
X61767Y90118D01*
Y90153D01*
X61762Y90193D01*
X61757Y90238D01*
X61752Y90284D01*
Y90339D01*
X61747Y90399D01*
Y90470D01*
Y90540D01*
Y90761D01*
X61757Y90756D01*
D02*
G37*
G36*
X48055Y92185D02*
X48085Y92180D01*
X48121Y92175D01*
X48206Y92155D01*
X48302Y92124D01*
X48402Y92079D01*
X48453Y92049D01*
X48498Y92014D01*
X48548Y91969D01*
X48594Y91923D01*
Y91918D01*
X48604Y91913D01*
X48614Y91898D01*
X48629Y91873D01*
X48649Y91848D01*
X48669Y91818D01*
X48689Y91777D01*
X48709Y91732D01*
X48734Y91687D01*
X48755Y91632D01*
X48775Y91571D01*
X48795Y91506D01*
X48820Y91365D01*
X48825Y91285D01*
X48830Y91204D01*
X47165D01*
Y91209D01*
Y91224D01*
X47170Y91249D01*
Y91285D01*
X47175Y91325D01*
X47180Y91370D01*
X47190Y91420D01*
X47200Y91476D01*
X47230Y91596D01*
X47276Y91717D01*
X47336Y91833D01*
X47376Y91888D01*
X47416Y91938D01*
X47422Y91943D01*
X47427Y91948D01*
X47442Y91963D01*
X47457Y91979D01*
X47507Y92019D01*
X47577Y92064D01*
X47663Y92109D01*
X47758Y92150D01*
X47874Y92180D01*
X47929Y92185D01*
X47995Y92190D01*
X48030D01*
X48055Y92185D01*
D02*
G37*
G36*
X49987Y90857D02*
X49982Y90912D01*
X49977Y90983D01*
X49972Y91073D01*
X49957Y91174D01*
X49942Y91285D01*
X49916Y91405D01*
X49891Y91536D01*
X49856Y91667D01*
X49811Y91803D01*
X49755Y91938D01*
X49695Y92074D01*
X49625Y92205D01*
X49539Y92331D01*
X49444Y92446D01*
X49439Y92451D01*
X49418Y92472D01*
X49388Y92502D01*
X49343Y92537D01*
X49293Y92582D01*
X49227Y92633D01*
X49152Y92688D01*
X49066Y92743D01*
X48971Y92799D01*
X48865Y92854D01*
X48755Y92904D01*
X48629Y92949D01*
X48503Y92985D01*
X48362Y93015D01*
X48216Y93035D01*
X48065Y93040D01*
X49987D01*
Y90857D01*
D02*
G37*
G36*
X129536Y91400D02*
Y91390D01*
Y91370D01*
Y91330D01*
Y91280D01*
Y91219D01*
Y91154D01*
X129531Y91078D01*
Y90998D01*
X129526Y90832D01*
X129521Y90676D01*
X129516Y90600D01*
X129511Y90535D01*
X129501Y90475D01*
X129496Y90429D01*
Y90424D01*
X129491Y90414D01*
X129486Y90394D01*
X129481Y90369D01*
X129471Y90339D01*
X129456Y90304D01*
X129421Y90223D01*
X129375Y90133D01*
X129315Y90037D01*
X129235Y89942D01*
X129139Y89856D01*
X129134D01*
X129124Y89846D01*
X129109Y89836D01*
X129089Y89821D01*
X129058Y89806D01*
X129023Y89791D01*
X128983Y89771D01*
X128938Y89750D01*
X128882Y89730D01*
X128827Y89710D01*
X128762Y89695D01*
X128691Y89680D01*
X128621Y89665D01*
X128540Y89655D01*
X128455Y89650D01*
X128364Y89645D01*
X128319D01*
X128284Y89650D01*
X128238D01*
X128193Y89655D01*
X128143Y89660D01*
X128083Y89670D01*
X127962Y89695D01*
X127836Y89730D01*
X127720Y89780D01*
X127665Y89811D01*
X127615Y89846D01*
X127610Y89851D01*
X127605Y89856D01*
X127575Y89881D01*
X127534Y89926D01*
X127484Y89987D01*
X127429Y90057D01*
X127383Y90148D01*
X127338Y90243D01*
X127313Y90349D01*
Y90354D01*
X127308Y90364D01*
Y90379D01*
X127303Y90404D01*
X127298Y90439D01*
X127293Y90480D01*
X127288Y90525D01*
X127283Y90585D01*
X127278Y90646D01*
X127273Y90721D01*
Y90802D01*
X127268Y90887D01*
X127263Y90988D01*
X127258Y91093D01*
Y91204D01*
Y91330D01*
Y94544D01*
X129536D01*
Y91400D01*
D02*
G37*
G36*
X113264Y94639D02*
X113189D01*
X113098Y94629D01*
X112993Y94619D01*
X112877Y94604D01*
X112751Y94584D01*
X112620Y94559D01*
X112485Y94529D01*
X112349Y94489D01*
X112213Y94443D01*
X112082Y94388D01*
X111951Y94323D01*
X111836Y94247D01*
X111725Y94162D01*
X111720Y94157D01*
X111700Y94142D01*
X111675Y94111D01*
X111639Y94076D01*
X111594Y94026D01*
X111549Y93971D01*
X111499Y93900D01*
X111443Y93825D01*
X111393Y93734D01*
X111338Y93638D01*
X111293Y93533D01*
X111247Y93422D01*
X111207Y93301D01*
X111177Y93171D01*
X111152Y93030D01*
X111142Y92884D01*
X112313Y92834D01*
Y92839D01*
X112319Y92854D01*
X112324Y92879D01*
X112329Y92909D01*
X112339Y92944D01*
X112349Y92985D01*
X112384Y93080D01*
X112424Y93186D01*
X112485Y93296D01*
X112555Y93392D01*
X112595Y93437D01*
X112641Y93478D01*
X112645D01*
X112651Y93488D01*
X112666Y93498D01*
X112686Y93508D01*
X112711Y93523D01*
X112746Y93538D01*
X112781Y93558D01*
X112827Y93578D01*
X112872Y93593D01*
X112927Y93613D01*
X112988Y93629D01*
X113058Y93644D01*
X113128Y93654D01*
X113209Y93664D01*
X113289Y93674D01*
X113430D01*
X113465Y93669D01*
X113506D01*
X113556Y93664D01*
X113611Y93659D01*
X113672Y93649D01*
X113797Y93623D01*
X113933Y93583D01*
X114059Y93533D01*
X114124Y93498D01*
X114180Y93463D01*
X114190Y93457D01*
X114210Y93437D01*
X114235Y93407D01*
X114270Y93367D01*
X114305Y93317D01*
X114331Y93251D01*
X114351Y93181D01*
X114361Y93100D01*
Y93090D01*
X114356Y93065D01*
X114351Y93030D01*
X114341Y92980D01*
X114321Y92924D01*
X114290Y92864D01*
X114245Y92804D01*
X114190Y92748D01*
X114185D01*
X114180Y92738D01*
X114165Y92728D01*
X114139Y92718D01*
X114114Y92698D01*
X114074Y92678D01*
X114029Y92658D01*
X113973Y92633D01*
X113908Y92602D01*
X113828Y92572D01*
X113742Y92542D01*
X113642Y92507D01*
X113531Y92472D01*
X113405Y92436D01*
X113264Y92396D01*
X113113Y92361D01*
X113103D01*
X113078Y92351D01*
X113033Y92341D01*
X112972Y92326D01*
X112902Y92306D01*
X112822Y92286D01*
X112731Y92260D01*
X112636Y92235D01*
X112429Y92170D01*
X112218Y92099D01*
X112117Y92064D01*
X112022Y92024D01*
X111931Y91984D01*
X111851Y91943D01*
X111846D01*
X111831Y91933D01*
X111811Y91923D01*
X111780Y91903D01*
X111750Y91883D01*
X111710Y91858D01*
X111614Y91787D01*
X111514Y91707D01*
X111403Y91606D01*
X111302Y91486D01*
X111207Y91355D01*
X111202Y91350D01*
X111197Y91340D01*
X111187Y91315D01*
X111172Y91290D01*
X111152Y91254D01*
X111132Y91209D01*
X111111Y91159D01*
X111091Y91098D01*
X111071Y91038D01*
X111051Y90968D01*
X111031Y90892D01*
X111011Y90812D01*
X110996Y90721D01*
X110986Y90631D01*
X110976Y90535D01*
Y94644D01*
X113294D01*
X113264Y94639D01*
D02*
G37*
%LPC*%
G36*
X80846Y85980D02*
X76948D01*
X78748D01*
X78708Y85975D01*
X78648D01*
X78577Y85965D01*
X78492Y85955D01*
X78401Y85940D01*
X78301Y85919D01*
X78195Y85894D01*
X78084Y85864D01*
X77974Y85829D01*
X77858Y85784D01*
X77747Y85728D01*
X77642Y85668D01*
X77536Y85593D01*
X77441Y85512D01*
X77435Y85507D01*
X77420Y85492D01*
X77395Y85467D01*
X77365Y85432D01*
X77325Y85386D01*
X77285Y85331D01*
X77239Y85266D01*
X77194Y85195D01*
X77149Y85115D01*
X77104Y85029D01*
X77063Y84934D01*
X77023Y84833D01*
X76993Y84722D01*
X76968Y84607D01*
X76953Y84486D01*
X76948Y84360D01*
Y84295D01*
X76953Y84260D01*
Y84219D01*
X76958Y84174D01*
X76963Y84124D01*
X76983Y84008D01*
X77008Y83882D01*
X77043Y83752D01*
X77088Y83616D01*
Y83611D01*
X77093Y83601D01*
X77104Y83580D01*
X77114Y83555D01*
X77129Y83520D01*
X77149Y83485D01*
X77169Y83440D01*
X77199Y83389D01*
X77259Y83279D01*
X77335Y83153D01*
X77430Y83017D01*
X77536Y82876D01*
Y82871D01*
X77546Y82866D01*
X77556Y82851D01*
X77576Y82826D01*
X77596Y82801D01*
X77627Y82771D01*
X77662Y82731D01*
X77702Y82685D01*
X77747Y82635D01*
X77803Y82580D01*
X77863Y82519D01*
X77929Y82454D01*
X78004Y82378D01*
X78084Y82303D01*
X78170Y82222D01*
X78266Y82132D01*
X78271Y82127D01*
X78291Y82112D01*
X78316Y82087D01*
X78351Y82056D01*
X78391Y82016D01*
X78442Y81971D01*
X78547Y81870D01*
X78663Y81765D01*
X78768Y81659D01*
X78819Y81609D01*
X78864Y81564D01*
X78904Y81523D01*
X78935Y81488D01*
X78939Y81483D01*
X78960Y81463D01*
X78985Y81433D01*
X79015Y81393D01*
X79050Y81347D01*
X79090Y81297D01*
X79126Y81242D01*
X79161Y81186D01*
X76948D01*
Y80155D01*
X80846D01*
Y80246D01*
Y80160D01*
X80841Y80180D01*
X80836Y80210D01*
X80831Y80256D01*
X80821Y80306D01*
X80811Y80366D01*
X80796Y80437D01*
X80775Y80512D01*
X80755Y80593D01*
X80725Y80683D01*
X80660Y80869D01*
X80620Y80965D01*
X80574Y81065D01*
X80524Y81161D01*
X80469Y81262D01*
X80464Y81267D01*
X80453Y81287D01*
X80433Y81317D01*
X80403Y81357D01*
X80368Y81413D01*
X80318Y81473D01*
X80262Y81548D01*
X80192Y81634D01*
X80111Y81730D01*
X80021Y81835D01*
X79920Y81951D01*
X79805Y82072D01*
X79679Y82207D01*
X79538Y82348D01*
X79382Y82499D01*
X79216Y82655D01*
X79206Y82665D01*
X79181Y82685D01*
X79146Y82720D01*
X79095Y82771D01*
X79035Y82826D01*
X78970Y82891D01*
X78899Y82962D01*
X78819Y83037D01*
X78663Y83193D01*
X78582Y83274D01*
X78512Y83349D01*
X78442Y83425D01*
X78386Y83495D01*
X78336Y83555D01*
X78296Y83606D01*
X78291Y83611D01*
X78286Y83621D01*
X78276Y83641D01*
X78260Y83666D01*
X78240Y83696D01*
X78220Y83731D01*
X78180Y83817D01*
X78140Y83923D01*
X78100Y84038D01*
X78074Y84159D01*
X78064Y84219D01*
Y84285D01*
Y84290D01*
Y84300D01*
Y84320D01*
X78069Y84345D01*
Y84375D01*
X78074Y84416D01*
X78089Y84496D01*
X78115Y84587D01*
X78150Y84682D01*
X78200Y84778D01*
X78266Y84858D01*
X78276Y84868D01*
X78301Y84888D01*
X78346Y84924D01*
X78411Y84959D01*
X78487Y84994D01*
X78582Y85029D01*
X78693Y85049D01*
X78819Y85059D01*
X78854D01*
X78874Y85054D01*
X78904D01*
X78939Y85049D01*
X79020Y85034D01*
X79106Y85009D01*
X79196Y84969D01*
X79287Y84918D01*
X79372Y84848D01*
X79382Y84838D01*
X79392Y84828D01*
X79402Y84808D01*
X79422Y84783D01*
X79438Y84758D01*
X79458Y84722D01*
X79478Y84682D01*
X79498Y84637D01*
X79518Y84587D01*
X79538Y84531D01*
X79558Y84466D01*
X79573Y84395D01*
X79588Y84325D01*
X79598Y84240D01*
X79609Y84154D01*
X80715Y84265D01*
Y84270D01*
Y84275D01*
X80710Y84305D01*
X80705Y84350D01*
X80690Y84416D01*
X80675Y84491D01*
X80655Y84576D01*
X80635Y84672D01*
X80599Y84773D01*
X80564Y84878D01*
X80524Y84989D01*
X80474Y85095D01*
X80413Y85205D01*
X80348Y85311D01*
X80272Y85406D01*
X80187Y85497D01*
X80096Y85577D01*
X80091Y85583D01*
X80071Y85593D01*
X80041Y85613D01*
X80001Y85643D01*
X79950Y85673D01*
X79890Y85703D01*
X79820Y85743D01*
X79734Y85779D01*
X79649Y85814D01*
X79548Y85854D01*
X79438Y85884D01*
X79322Y85919D01*
X79201Y85945D01*
X79070Y85965D01*
X78935Y85975D01*
X78789Y85980D01*
X80846D01*
D02*
G37*
G36*
X83331D02*
X81444D01*
X83296D01*
X83250Y85975D01*
X83190Y85970D01*
X83119Y85960D01*
X83039Y85950D01*
X82948Y85930D01*
X82848Y85904D01*
X82747Y85874D01*
X82636Y85834D01*
X82526Y85784D01*
X82420Y85723D01*
X82310Y85658D01*
X82204Y85577D01*
X82103Y85482D01*
X82013Y85376D01*
X82008Y85366D01*
X81988Y85341D01*
X81963Y85301D01*
X81922Y85240D01*
X81882Y85160D01*
X81832Y85064D01*
X81781Y84949D01*
X81726Y84813D01*
X81676Y84657D01*
X81625Y84486D01*
X81600Y84390D01*
X81575Y84290D01*
X81555Y84189D01*
X81535Y84079D01*
X81515Y83963D01*
X81495Y83842D01*
X81480Y83716D01*
X81470Y83586D01*
X81459Y83450D01*
X81450Y83309D01*
X81444Y83163D01*
Y83178D01*
Y83163D01*
Y82902D01*
X81450Y82856D01*
Y82801D01*
X81454Y82746D01*
X81459Y82680D01*
Y82610D01*
X81475Y82454D01*
X81495Y82283D01*
X81515Y82102D01*
X81545Y81911D01*
X81585Y81714D01*
X81630Y81513D01*
X81686Y81322D01*
X81751Y81136D01*
X81827Y80955D01*
X81917Y80794D01*
X81968Y80718D01*
X82018Y80648D01*
X82023Y80643D01*
X82038Y80623D01*
X82068Y80593D01*
X82103Y80558D01*
X82154Y80512D01*
X82209Y80462D01*
X82279Y80407D01*
X82355Y80351D01*
X82445Y80296D01*
X82546Y80241D01*
X82652Y80190D01*
X82767Y80145D01*
X82893Y80110D01*
X83034Y80080D01*
X83175Y80059D01*
X83330Y80054D01*
X83366D01*
X83411Y80059D01*
X83472Y80065D01*
X83542Y80075D01*
X83627Y80090D01*
X83718Y80110D01*
X83819Y80135D01*
X83924Y80170D01*
X84035Y80216D01*
X84145Y80266D01*
X84261Y80326D01*
X84377Y80402D01*
X84488Y80487D01*
X84593Y80588D01*
X84694Y80703D01*
X84699Y80713D01*
X84714Y80734D01*
X84739Y80774D01*
X84774Y80829D01*
X84815Y80905D01*
X84860Y80995D01*
X84905Y81106D01*
X84950Y81237D01*
X84975Y81307D01*
X85001Y81388D01*
X85026Y81468D01*
X85046Y81553D01*
X85071Y81649D01*
X85091Y81745D01*
X85111Y81845D01*
X85131Y81956D01*
X85146Y82072D01*
X85162Y82187D01*
X85177Y82313D01*
X85192Y82444D01*
X85197Y82580D01*
X85207Y82720D01*
X85212Y82866D01*
Y83133D01*
X85207Y83178D01*
Y83233D01*
X85202Y83289D01*
X85197Y83354D01*
Y83425D01*
X85182Y83580D01*
X85167Y83752D01*
X85141Y83933D01*
X85111Y84124D01*
X85071Y84320D01*
X85026Y84516D01*
X84970Y84707D01*
X84905Y84898D01*
X84830Y85075D01*
X84744Y85235D01*
X84694Y85311D01*
X84644Y85381D01*
X84639Y85386D01*
X84623Y85406D01*
X84593Y85437D01*
X84558Y85477D01*
X84508Y85522D01*
X84452Y85572D01*
X84382Y85623D01*
X84302Y85683D01*
X84216Y85738D01*
X84115Y85789D01*
X84010Y85839D01*
X83894Y85884D01*
X83763Y85925D01*
X83627Y85955D01*
X83487Y85975D01*
X83331Y85980D01*
D02*
G37*
G36*
X94311Y84451D02*
X92349D01*
X92299Y84446D01*
X92234Y84441D01*
X92153Y84431D01*
X92063Y84416D01*
X91962Y84400D01*
X91852Y84375D01*
X91736Y84340D01*
X91615Y84300D01*
X91494Y84250D01*
X91369Y84189D01*
X91248Y84119D01*
X91127Y84033D01*
X91017Y83938D01*
X90911Y83827D01*
X90906Y83822D01*
X90886Y83797D01*
X90861Y83762D01*
X90825Y83711D01*
X90785Y83646D01*
X90740Y83565D01*
X90690Y83470D01*
X90639Y83359D01*
X90594Y83233D01*
X90544Y83093D01*
X90498Y82937D01*
X90463Y82771D01*
X90428Y82585D01*
X90403Y82383D01*
X90388Y82167D01*
Y81936D01*
X93169D01*
Y81931D01*
Y81916D01*
X93164Y81890D01*
Y81855D01*
X93159Y81810D01*
X93154Y81765D01*
X93144Y81709D01*
X93134Y81654D01*
X93099Y81528D01*
X93054Y81397D01*
X93024Y81337D01*
X92988Y81272D01*
X92948Y81216D01*
X92903Y81161D01*
X92898Y81156D01*
X92893Y81151D01*
X92878Y81136D01*
X92857Y81121D01*
X92832Y81101D01*
X92802Y81076D01*
X92727Y81025D01*
X92636Y80975D01*
X92526Y80930D01*
X92400Y80900D01*
X92334Y80895D01*
X92264Y80889D01*
X92219D01*
X92173Y80900D01*
X92113Y80910D01*
X92043Y80925D01*
X91967Y80950D01*
X91897Y80985D01*
X91826Y81030D01*
X91816Y81035D01*
X91796Y81055D01*
X91766Y81091D01*
X91726Y81141D01*
X91681Y81206D01*
X91635Y81287D01*
X91595Y81382D01*
X91555Y81493D01*
X90448Y81307D01*
Y81302D01*
X90458Y81282D01*
X90473Y81247D01*
X90488Y81206D01*
X90513Y81156D01*
X90539Y81096D01*
X90574Y81030D01*
X90614Y80960D01*
X90659Y80884D01*
X90710Y80809D01*
X90765Y80734D01*
X90825Y80658D01*
X90891Y80578D01*
X90966Y80507D01*
X91042Y80437D01*
X91127Y80376D01*
X91132Y80371D01*
X91147Y80361D01*
X91172Y80346D01*
X91208Y80326D01*
X91253Y80301D01*
X91308Y80276D01*
X91374Y80246D01*
X91444Y80221D01*
X91524Y80190D01*
X91610Y80160D01*
X91706Y80135D01*
X91806Y80110D01*
X91917Y80090D01*
X92033Y80075D01*
X92153Y80065D01*
X92279Y80059D01*
X92324D01*
X92355Y80065D01*
X92385D01*
X92460Y80070D01*
X92551Y80080D01*
X92651Y80100D01*
X92767Y80120D01*
X92893Y80150D01*
X93019Y80185D01*
X93154Y80236D01*
X93290Y80291D01*
X93421Y80361D01*
X93552Y80442D01*
X93677Y80537D01*
X93793Y80648D01*
X93899Y80774D01*
X93904Y80779D01*
X93914Y80799D01*
X93939Y80834D01*
X93964Y80879D01*
X93994Y80935D01*
X94029Y81000D01*
X94065Y81081D01*
X94105Y81171D01*
X94145Y81272D01*
X94180Y81377D01*
X94216Y81498D01*
X94246Y81629D01*
X94271Y81765D01*
X94291Y81911D01*
X94306Y82061D01*
X94311Y82222D01*
Y80834D01*
Y82383D01*
Y82268D01*
X94306Y82323D01*
X94301Y82393D01*
X94296Y82484D01*
X94281Y82585D01*
X94266Y82695D01*
X94241Y82816D01*
X94216Y82947D01*
X94180Y83078D01*
X94135Y83213D01*
X94080Y83349D01*
X94019Y83485D01*
X93949Y83616D01*
X93863Y83741D01*
X93768Y83857D01*
X93763Y83862D01*
X93743Y83882D01*
X93713Y83912D01*
X93667Y83948D01*
X93617Y83993D01*
X93552Y84043D01*
X93476Y84099D01*
X93391Y84154D01*
X93295Y84209D01*
X93190Y84265D01*
X93079Y84315D01*
X92953Y84360D01*
X92827Y84395D01*
X92686Y84426D01*
X92541Y84446D01*
X92390Y84451D01*
X94311D01*
D02*
G37*
G36*
X99824Y85955D02*
X94608D01*
D01*
X97214D01*
X97133Y85950D01*
X97048Y85945D01*
X96952Y85940D01*
X96846Y85935D01*
X96625Y85914D01*
X96399Y85889D01*
X96293Y85869D01*
X96192Y85849D01*
X96097Y85824D01*
X96011Y85794D01*
X96006D01*
X95991Y85789D01*
X95971Y85779D01*
X95941Y85764D01*
X95906Y85743D01*
X95865Y85723D01*
X95770Y85668D01*
X95659Y85588D01*
X95604Y85542D01*
X95549Y85492D01*
X95493Y85437D01*
X95438Y85376D01*
X95388Y85306D01*
X95337Y85235D01*
X95332Y85230D01*
X95327Y85215D01*
X95312Y85195D01*
X95297Y85165D01*
X95277Y85130D01*
X95257Y85084D01*
X95232Y85029D01*
X95206Y84974D01*
X95186Y84908D01*
X95161Y84838D01*
X95141Y84763D01*
X95121Y84682D01*
X95091Y84511D01*
X95086Y84421D01*
X95081Y84325D01*
Y84320D01*
Y84295D01*
Y84260D01*
X95086Y84214D01*
X95091Y84159D01*
X95101Y84094D01*
X95111Y84023D01*
X95131Y83943D01*
X95151Y83862D01*
X95176Y83772D01*
X95206Y83686D01*
X95242Y83591D01*
X95287Y83500D01*
X95342Y83415D01*
X95398Y83324D01*
X95468Y83244D01*
X95473Y83239D01*
X95488Y83223D01*
X95508Y83203D01*
X95539Y83178D01*
X95579Y83143D01*
X95629Y83103D01*
X95689Y83062D01*
X95755Y83017D01*
X95830Y82972D01*
X95916Y82927D01*
X96006Y82881D01*
X96112Y82841D01*
X96223Y82801D01*
X96343Y82766D01*
X96474Y82736D01*
X96610Y82710D01*
X96605D01*
X96595Y82700D01*
X96575Y82690D01*
X96544Y82670D01*
X96514Y82650D01*
X96479Y82625D01*
X96389Y82565D01*
X96293Y82494D01*
X96187Y82414D01*
X96082Y82318D01*
X95986Y82222D01*
X95981Y82217D01*
X95976Y82212D01*
X95961Y82192D01*
X95941Y82172D01*
X95916Y82142D01*
X95886Y82102D01*
X95850Y82061D01*
X95810Y82006D01*
X95765Y81946D01*
X95714Y81880D01*
X95659Y81800D01*
X95599Y81714D01*
X95534Y81619D01*
X95468Y81518D01*
X95393Y81402D01*
X95317Y81282D01*
X94608Y80155D01*
X96011D01*
X96856Y81418D01*
X96861Y81428D01*
X96877Y81448D01*
X96897Y81483D01*
X96932Y81528D01*
X96967Y81579D01*
X97007Y81639D01*
X97053Y81704D01*
X97103Y81775D01*
X97208Y81921D01*
X97309Y82061D01*
X97354Y82122D01*
X97400Y82182D01*
X97440Y82227D01*
X97475Y82268D01*
X97480Y82278D01*
X97505Y82298D01*
X97535Y82328D01*
X97581Y82363D01*
X97636Y82403D01*
X97691Y82444D01*
X97757Y82479D01*
X97827Y82509D01*
X97837Y82514D01*
X97862Y82519D01*
X97908Y82529D01*
X97968Y82544D01*
X98053Y82554D01*
X98154Y82565D01*
X98275Y82569D01*
X98340Y82574D01*
X98652D01*
Y80155D01*
X99824D01*
Y85955D01*
D02*
G37*
G36*
X90016Y84360D02*
X85650D01*
X87319Y80155D01*
X88320D01*
X90016Y84360D01*
D01*
D02*
G37*
G36*
X81756Y78895D02*
X77929D01*
D01*
X80645D01*
Y76752D01*
X80640Y76757D01*
X80620Y76777D01*
X80589Y76812D01*
X80549Y76852D01*
X80499Y76898D01*
X80433Y76953D01*
X80363Y77013D01*
X80282Y77074D01*
X80192Y77129D01*
X80096Y77189D01*
X79991Y77245D01*
X79875Y77290D01*
X79754Y77330D01*
X79629Y77365D01*
X79498Y77386D01*
X79362Y77391D01*
X79297D01*
X79261Y77386D01*
X79221D01*
X79131Y77371D01*
X79020Y77355D01*
X78904Y77330D01*
X78784Y77295D01*
X78668Y77245D01*
X78663D01*
X78653Y77240D01*
X78638Y77230D01*
X78618Y77220D01*
X78562Y77189D01*
X78497Y77149D01*
X78421Y77094D01*
X78341Y77034D01*
X78271Y76963D01*
X78205Y76883D01*
X78200Y76872D01*
X78180Y76842D01*
X78150Y76797D01*
X78120Y76737D01*
X78079Y76666D01*
X78044Y76581D01*
X78014Y76490D01*
X77989Y76390D01*
Y76385D01*
X77984Y76380D01*
Y76359D01*
X77979Y76339D01*
X77974Y76309D01*
X77969Y76274D01*
X77964Y76234D01*
X77959Y76183D01*
X77954Y76128D01*
X77949Y76068D01*
X77944Y76002D01*
X77938Y75927D01*
X77934Y75841D01*
X77929Y75756D01*
Y73095D01*
X79040D01*
Y75313D01*
Y75323D01*
Y75343D01*
Y75374D01*
Y75419D01*
Y75469D01*
X79045Y75529D01*
Y75595D01*
X79050Y75665D01*
X79055Y75806D01*
X79065Y75942D01*
X79075Y76007D01*
X79085Y76063D01*
X79095Y76108D01*
X79106Y76148D01*
X79110Y76158D01*
X79115Y76178D01*
X79136Y76214D01*
X79156Y76254D01*
X79191Y76299D01*
X79226Y76344D01*
X79277Y76395D01*
X79332Y76435D01*
X79337Y76440D01*
X79362Y76450D01*
X79392Y76470D01*
X79443Y76490D01*
X79498Y76505D01*
X79568Y76525D01*
X79644Y76535D01*
X79734Y76540D01*
X79779D01*
X79835Y76535D01*
X79900Y76525D01*
X79976Y76505D01*
X80061Y76485D01*
X80142Y76450D01*
X80227Y76405D01*
X80237Y76400D01*
X80262Y76380D01*
X80303Y76349D01*
X80348Y76304D01*
X80398Y76244D01*
X80453Y76173D01*
X80504Y76093D01*
X80544Y75997D01*
Y75992D01*
X80549Y75987D01*
X80554Y75967D01*
X80559Y75947D01*
X80569Y75917D01*
X80574Y75882D01*
X80584Y75841D01*
X80594Y75796D01*
X80604Y75741D01*
X80615Y75680D01*
X80620Y75615D01*
X80630Y75545D01*
X80635Y75469D01*
X80640Y75384D01*
X80645Y75293D01*
Y75197D01*
Y73095D01*
X81756D01*
Y78895D01*
D02*
G37*
G36*
X102767Y77391D02*
Y74277D01*
X102762Y74302D01*
Y74332D01*
X102757Y74368D01*
X102746Y74453D01*
X102726Y74549D01*
X102696Y74654D01*
X102656Y74765D01*
X102601Y74871D01*
Y74876D01*
X102591Y74881D01*
X102580Y74896D01*
X102570Y74916D01*
X102530Y74966D01*
X102475Y75032D01*
X102410Y75097D01*
X102329Y75172D01*
X102233Y75238D01*
X102123Y75298D01*
X102118D01*
X102108Y75303D01*
X102093Y75313D01*
X102067Y75323D01*
X102032Y75338D01*
X101997Y75353D01*
X101952Y75369D01*
X101896Y75389D01*
X101836Y75409D01*
X101771Y75429D01*
X101700Y75449D01*
X101620Y75474D01*
X101534Y75494D01*
X101444Y75514D01*
X101343Y75540D01*
X101237Y75560D01*
X101227D01*
X101202Y75565D01*
X101162Y75575D01*
X101112Y75585D01*
X101046Y75600D01*
X100971Y75615D01*
X100890Y75630D01*
X100805Y75650D01*
X100629Y75691D01*
X100448Y75736D01*
X100362Y75761D01*
X100282Y75786D01*
X100211Y75811D01*
X100151Y75836D01*
Y75947D01*
Y75952D01*
Y75962D01*
Y75977D01*
Y75997D01*
X100161Y76053D01*
X100171Y76123D01*
X100191Y76199D01*
X100216Y76274D01*
X100257Y76339D01*
X100312Y76400D01*
X100317Y76405D01*
X100342Y76420D01*
X100382Y76445D01*
X100413Y76455D01*
X100443Y76470D01*
X100483Y76485D01*
X100528Y76495D01*
X100574Y76510D01*
X100629Y76520D01*
X100689Y76525D01*
X100760Y76535D01*
X100830Y76540D01*
X100961D01*
X101011Y76535D01*
X101082Y76525D01*
X101152Y76510D01*
X101232Y76490D01*
X101308Y76460D01*
X101373Y76420D01*
X101378Y76415D01*
X101398Y76400D01*
X101429Y76370D01*
X101469Y76324D01*
X101509Y76269D01*
X101554Y76199D01*
X101600Y76113D01*
X101640Y76012D01*
X102651Y76193D01*
Y76199D01*
X102641Y76219D01*
X102631Y76254D01*
X102621Y76294D01*
X102601Y76344D01*
X102576Y76400D01*
X102550Y76465D01*
X102515Y76535D01*
X102480Y76606D01*
X102435Y76681D01*
X102389Y76757D01*
X102334Y76832D01*
X102274Y76903D01*
X102213Y76973D01*
X102143Y77034D01*
X102067Y77094D01*
X102062Y77099D01*
X102047Y77109D01*
X102022Y77119D01*
X101987Y77139D01*
X101947Y77164D01*
X101891Y77189D01*
X101831Y77215D01*
X101756Y77245D01*
X101675Y77270D01*
X101579Y77295D01*
X101479Y77320D01*
X101368Y77345D01*
X101248Y77365D01*
X101117Y77376D01*
X100981Y77386D01*
X100830Y77391D01*
X98818D01*
X100760D01*
X100709Y77386D01*
X100644D01*
X100574Y77381D01*
X100498Y77376D01*
X100413Y77371D01*
X100232Y77345D01*
X100050Y77315D01*
X99960Y77295D01*
X99874Y77275D01*
X99794Y77245D01*
X99724Y77215D01*
X99718D01*
X99708Y77205D01*
X99688Y77194D01*
X99663Y77184D01*
X99633Y77164D01*
X99598Y77144D01*
X99522Y77094D01*
X99437Y77029D01*
X99351Y76953D01*
X99271Y76863D01*
X99235Y76817D01*
X99205Y76767D01*
Y76762D01*
X99200Y76752D01*
X99190Y76737D01*
X99180Y76712D01*
X99170Y76681D01*
X99155Y76641D01*
X99145Y76596D01*
X99130Y76540D01*
X99115Y76475D01*
X99100Y76405D01*
X99090Y76324D01*
X99080Y76234D01*
X99070Y76133D01*
X99059Y76022D01*
X99054Y75902D01*
Y75771D01*
X99070Y74473D01*
Y74468D01*
Y74448D01*
Y74423D01*
Y74383D01*
Y74337D01*
X99064Y74282D01*
Y74227D01*
Y74161D01*
X99059Y74031D01*
X99049Y73895D01*
X99034Y73764D01*
X99029Y73709D01*
X99019Y73653D01*
Y73648D01*
X99014Y73643D01*
Y73628D01*
X99009Y73608D01*
X98994Y73553D01*
X98974Y73487D01*
X98944Y73402D01*
X98909Y73306D01*
X98868Y73206D01*
X98818Y73095D01*
X99920D01*
Y73100D01*
X99930Y73115D01*
X99940Y73140D01*
X99950Y73176D01*
X99965Y73226D01*
X99985Y73281D01*
X100005Y73347D01*
X100030Y73422D01*
Y73427D01*
X100035Y73437D01*
X100040Y73457D01*
X100045Y73477D01*
X100055Y73518D01*
X100066Y73538D01*
X100071Y73553D01*
X100075Y73548D01*
X100086Y73543D01*
X100101Y73528D01*
X100121Y73507D01*
X100146Y73482D01*
X100176Y73457D01*
X100252Y73397D01*
X100342Y73331D01*
X100448Y73261D01*
X100558Y73196D01*
X100679Y73135D01*
X100684D01*
X100694Y73130D01*
X100709Y73125D01*
X100734Y73115D01*
X100765Y73105D01*
X100800Y73090D01*
X100840Y73080D01*
X100885Y73070D01*
X100991Y73045D01*
X101107Y73020D01*
X101237Y73005D01*
X101373Y72999D01*
X101434D01*
X101479Y73005D01*
X101534Y73010D01*
X101600Y73020D01*
X101670Y73030D01*
X101745Y73045D01*
X101826Y73060D01*
X101907Y73085D01*
X101992Y73115D01*
X102077Y73150D01*
X102163Y73191D01*
X102243Y73236D01*
X102319Y73291D01*
X102394Y73352D01*
X102399Y73357D01*
X102410Y73367D01*
X102430Y73387D01*
X102455Y73417D01*
X102480Y73452D01*
X102510Y73492D01*
X102545Y73538D01*
X102580Y73593D01*
X102616Y73658D01*
X102651Y73724D01*
X102681Y73799D01*
X102706Y73875D01*
X102731Y73960D01*
X102752Y74051D01*
X102762Y74141D01*
X102767Y74242D01*
Y72999D01*
D01*
Y77391D01*
D02*
G37*
G36*
X75157D02*
X73145D01*
Y73789D01*
Y77391D01*
X75086D01*
X75036Y77386D01*
X74971D01*
X74900Y77381D01*
X74825Y77376D01*
X74739Y77371D01*
X74558Y77345D01*
X74377Y77315D01*
X74287Y77295D01*
X74201Y77275D01*
X74121Y77245D01*
X74050Y77215D01*
X74045D01*
X74035Y77205D01*
X74015Y77194D01*
X73990Y77184D01*
X73960Y77164D01*
X73925Y77144D01*
X73849Y77094D01*
X73764Y77029D01*
X73678Y76953D01*
X73598Y76863D01*
X73562Y76817D01*
X73532Y76767D01*
Y76762D01*
X73527Y76752D01*
X73517Y76737D01*
X73507Y76712D01*
X73497Y76681D01*
X73482Y76641D01*
X73472Y76596D01*
X73457Y76540D01*
X73442Y76475D01*
X73427Y76405D01*
X73417Y76324D01*
X73406Y76234D01*
X73396Y76133D01*
X73386Y76022D01*
X73381Y75902D01*
Y75771D01*
X73396Y74473D01*
Y74468D01*
Y74448D01*
Y74423D01*
Y74383D01*
Y74337D01*
X73391Y74282D01*
Y74227D01*
Y74161D01*
X73386Y74031D01*
X73376Y73895D01*
X73361Y73764D01*
X73356Y73709D01*
X73346Y73653D01*
Y73648D01*
X73341Y73643D01*
Y73628D01*
X73336Y73608D01*
X73321Y73553D01*
X73301Y73487D01*
X73271Y73402D01*
X73235Y73306D01*
X73195Y73206D01*
X73145Y73095D01*
X74247D01*
Y73100D01*
X74257Y73115D01*
X74267Y73140D01*
X74277Y73176D01*
X74292Y73226D01*
X74312Y73281D01*
X74332Y73347D01*
X74357Y73422D01*
Y73427D01*
X74362Y73437D01*
X74367Y73457D01*
X74372Y73477D01*
X74382Y73518D01*
X74392Y73538D01*
X74397Y73553D01*
X74402Y73548D01*
X74413Y73543D01*
X74428Y73528D01*
X74448Y73507D01*
X74473Y73482D01*
X74503Y73457D01*
X74578Y73397D01*
X74669Y73331D01*
X74775Y73261D01*
X74885Y73196D01*
X75006Y73135D01*
X75011D01*
X75021Y73130D01*
X75036Y73125D01*
X75061Y73115D01*
X75091Y73105D01*
X75127Y73090D01*
X75167Y73080D01*
X75212Y73070D01*
X75318Y73045D01*
X75434Y73020D01*
X75564Y73005D01*
X75700Y72999D01*
X75761D01*
X75806Y73005D01*
X75861Y73010D01*
X75927Y73020D01*
X75997Y73030D01*
X76072Y73045D01*
X76153Y73060D01*
X76233Y73085D01*
X76319Y73115D01*
X76404Y73150D01*
X76490Y73191D01*
X76570Y73236D01*
X76646Y73291D01*
X76721Y73352D01*
X76726Y73357D01*
X76736Y73367D01*
X76757Y73387D01*
X76782Y73417D01*
X76807Y73452D01*
X76837Y73492D01*
X76872Y73538D01*
X76907Y73593D01*
X76943Y73658D01*
X76978Y73724D01*
X77008Y73799D01*
X77033Y73875D01*
X77058Y73960D01*
X77078Y74051D01*
X77088Y74141D01*
X77093Y74242D01*
Y74277D01*
X77088Y74302D01*
Y74332D01*
X77083Y74368D01*
X77073Y74453D01*
X77053Y74549D01*
X77023Y74654D01*
X76983Y74765D01*
X76928Y74871D01*
Y74876D01*
X76917Y74881D01*
X76907Y74896D01*
X76897Y74916D01*
X76857Y74966D01*
X76802Y75032D01*
X76736Y75097D01*
X76656Y75172D01*
X76560Y75238D01*
X76450Y75298D01*
X76445D01*
X76435Y75303D01*
X76420Y75313D01*
X76394Y75323D01*
X76359Y75338D01*
X76324Y75353D01*
X76279Y75369D01*
X76223Y75389D01*
X76163Y75409D01*
X76098Y75429D01*
X76027Y75449D01*
X75947Y75474D01*
X75861Y75494D01*
X75771Y75514D01*
X75670Y75540D01*
X75564Y75560D01*
X75554D01*
X75529Y75565D01*
X75489Y75575D01*
X75439Y75585D01*
X75373Y75600D01*
X75298Y75615D01*
X75217Y75630D01*
X75132Y75650D01*
X74956Y75691D01*
X74775Y75736D01*
X74689Y75761D01*
X74609Y75786D01*
X74538Y75811D01*
X74478Y75836D01*
Y75947D01*
Y75952D01*
Y75962D01*
Y75977D01*
Y75997D01*
X74488Y76053D01*
X74498Y76123D01*
X74518Y76199D01*
X74543Y76274D01*
X74584Y76339D01*
X74639Y76400D01*
X74644Y76405D01*
X74669Y76420D01*
X74709Y76445D01*
X74739Y76455D01*
X74770Y76470D01*
X74810Y76485D01*
X74855Y76495D01*
X74900Y76510D01*
X74956Y76520D01*
X75016Y76525D01*
X75086Y76535D01*
X75157Y76540D01*
X75288D01*
X75338Y76535D01*
X75408Y76525D01*
X75479Y76510D01*
X75559Y76490D01*
X75635Y76460D01*
X75700Y76420D01*
X75705Y76415D01*
X75725Y76400D01*
X75756Y76370D01*
X75796Y76324D01*
X75836Y76269D01*
X75881Y76199D01*
X75927Y76113D01*
X75967Y76012D01*
X76978Y76193D01*
Y76199D01*
X76968Y76219D01*
X76958Y76254D01*
X76948Y76294D01*
X76928Y76344D01*
X76902Y76400D01*
X76877Y76465D01*
X76842Y76535D01*
X76807Y76606D01*
X76762Y76681D01*
X76716Y76757D01*
X76661Y76832D01*
X76600Y76903D01*
X76540Y76973D01*
X76470Y77034D01*
X76394Y77094D01*
X76389Y77099D01*
X76374Y77109D01*
X76349Y77119D01*
X76314Y77139D01*
X76274Y77164D01*
X76218Y77189D01*
X76158Y77215D01*
X76082Y77245D01*
X76002Y77270D01*
X75906Y77295D01*
X75806Y77320D01*
X75695Y77345D01*
X75574Y77365D01*
X75444Y77376D01*
X75308Y77386D01*
X75157Y77391D01*
D02*
G37*
G36*
X108300Y78895D02*
X103073D01*
X103194D01*
X105377Y76636D01*
X103073Y73095D01*
X104587D01*
X106182Y75816D01*
X107128Y74845D01*
Y73095D01*
X108300D01*
Y78895D01*
D02*
G37*
G36*
X93466Y77391D02*
X89638D01*
D01*
X90991D01*
X90956Y77386D01*
X90921D01*
X90830Y77376D01*
X90725Y77355D01*
X90614Y77335D01*
X90498Y77300D01*
X90383Y77255D01*
X90378D01*
X90368Y77250D01*
X90353Y77240D01*
X90332Y77230D01*
X90277Y77205D01*
X90212Y77164D01*
X90136Y77114D01*
X90056Y77059D01*
X89985Y76993D01*
X89920Y76918D01*
X89915Y76908D01*
X89895Y76883D01*
X89870Y76837D01*
X89834Y76782D01*
X89799Y76712D01*
X89764Y76636D01*
X89729Y76546D01*
X89704Y76450D01*
Y76445D01*
X89699Y76440D01*
Y76425D01*
X89694Y76400D01*
X89689Y76375D01*
X89684Y76344D01*
X89679Y76304D01*
X89669Y76259D01*
X89663Y76209D01*
X89658Y76153D01*
X89653Y76093D01*
X89648Y76028D01*
X89643Y75952D01*
Y75877D01*
X89638Y75796D01*
Y73095D01*
X90750D01*
Y75238D01*
Y75248D01*
Y75268D01*
Y75303D01*
Y75348D01*
Y75404D01*
X90755Y75464D01*
Y75529D01*
X90760Y75600D01*
X90770Y75751D01*
X90780Y75892D01*
X90790Y75957D01*
X90800Y76017D01*
X90810Y76073D01*
X90825Y76113D01*
X90830Y76123D01*
X90841Y76148D01*
X90856Y76183D01*
X90881Y76229D01*
X90911Y76279D01*
X90951Y76329D01*
X91001Y76380D01*
X91057Y76425D01*
X91062Y76430D01*
X91087Y76445D01*
X91117Y76460D01*
X91162Y76485D01*
X91218Y76505D01*
X91283Y76520D01*
X91359Y76535D01*
X91439Y76540D01*
X91489D01*
X91545Y76530D01*
X91615Y76520D01*
X91696Y76500D01*
X91781Y76475D01*
X91872Y76435D01*
X91962Y76380D01*
X91972Y76375D01*
X91997Y76349D01*
X92038Y76314D01*
X92088Y76269D01*
X92138Y76209D01*
X92189Y76138D01*
X92234Y76058D01*
X92274Y75962D01*
Y75957D01*
X92279Y75952D01*
Y75932D01*
X92284Y75912D01*
X92294Y75882D01*
X92299Y75841D01*
X92304Y75796D01*
X92314Y75746D01*
X92319Y75680D01*
X92329Y75610D01*
X92334Y75535D01*
X92339Y75444D01*
X92344Y75348D01*
X92349Y75238D01*
X92355Y75122D01*
Y74996D01*
Y73095D01*
X93466D01*
Y77391D01*
D02*
G37*
G36*
X86283Y78895D02*
X85111D01*
Y73095D01*
X86283D01*
Y78895D01*
D02*
G37*
G36*
X84000D02*
X82888D01*
Y73095D01*
X84000D01*
Y78895D01*
D02*
G37*
G36*
X72300Y77391D02*
X68472D01*
Y73095D01*
X69584D01*
Y75238D01*
Y75248D01*
Y75268D01*
Y75303D01*
Y75348D01*
Y75404D01*
X69589Y75464D01*
Y75529D01*
X69594Y75600D01*
X69604Y75751D01*
X69614Y75892D01*
X69624Y75957D01*
X69634Y76017D01*
X69644Y76073D01*
X69659Y76113D01*
X69664Y76123D01*
X69674Y76148D01*
X69689Y76183D01*
X69714Y76229D01*
X69745Y76279D01*
X69785Y76329D01*
X69835Y76380D01*
X69890Y76425D01*
X69896Y76430D01*
X69921Y76445D01*
X69951Y76460D01*
X69996Y76485D01*
X70051Y76505D01*
X70117Y76520D01*
X70192Y76535D01*
X70273Y76540D01*
X70323D01*
X70378Y76530D01*
X70449Y76520D01*
X70529Y76500D01*
X70615Y76475D01*
X70705Y76435D01*
X70796Y76380D01*
X70806Y76375D01*
X70831Y76349D01*
X70871Y76314D01*
X70922Y76269D01*
X70972Y76209D01*
X71022Y76138D01*
X71068Y76058D01*
X71108Y75962D01*
Y75957D01*
X71113Y75952D01*
Y75932D01*
X71118Y75912D01*
X71128Y75882D01*
X71133Y75841D01*
X71138Y75796D01*
X71148Y75746D01*
X71153Y75680D01*
X71163Y75610D01*
X71168Y75534D01*
X71173Y75444D01*
X71178Y75348D01*
X71183Y75238D01*
X71188Y75122D01*
Y74996D01*
Y73095D01*
X72300D01*
Y77300D01*
X71269D01*
Y76681D01*
X71264Y76691D01*
X71244Y76712D01*
X71213Y76747D01*
X71168Y76792D01*
X71118Y76847D01*
X71052Y76908D01*
X70977Y76968D01*
X70891Y77039D01*
X70796Y77104D01*
X70690Y77164D01*
X70575Y77225D01*
X70454Y77280D01*
X70323Y77325D01*
X70182Y77360D01*
X70036Y77381D01*
X69885Y77391D01*
X72300D01*
D02*
G37*
G36*
X98260Y74051D02*
Y72999D01*
D01*
Y74051D01*
D02*
G37*
G36*
Y77391D02*
X94311D01*
X96253D01*
X96202Y77386D01*
X96137D01*
X96067Y77381D01*
X95991Y77376D01*
X95906Y77371D01*
X95725Y77345D01*
X95543Y77315D01*
X95453Y77295D01*
X95367Y77275D01*
X95287Y77245D01*
X95217Y77215D01*
X95211D01*
X95201Y77205D01*
X95181Y77194D01*
X95156Y77184D01*
X95126Y77164D01*
X95091Y77144D01*
X95015Y77094D01*
X94930Y77029D01*
X94844Y76953D01*
X94764Y76863D01*
X94729Y76817D01*
X94699Y76767D01*
Y76762D01*
X94693Y76752D01*
X94683Y76737D01*
X94673Y76712D01*
X94663Y76681D01*
X94648Y76641D01*
X94638Y76596D01*
X94623Y76540D01*
X94608Y76475D01*
X94593Y76405D01*
X94583Y76324D01*
X94573Y76234D01*
X94563Y76133D01*
X94553Y76022D01*
X94548Y75902D01*
Y75771D01*
X94563Y74473D01*
Y74468D01*
Y74448D01*
Y74423D01*
Y74383D01*
Y74337D01*
X94558Y74282D01*
Y74227D01*
Y74161D01*
X94553Y74031D01*
X94543Y73895D01*
X94528Y73764D01*
X94522Y73709D01*
X94512Y73653D01*
Y73648D01*
X94507Y73643D01*
Y73628D01*
X94502Y73608D01*
X94487Y73553D01*
X94467Y73487D01*
X94437Y73402D01*
X94402Y73306D01*
X94362Y73206D01*
X94311Y73095D01*
X95413D01*
Y73100D01*
X95423Y73115D01*
X95433Y73140D01*
X95443Y73176D01*
X95458Y73226D01*
X95478Y73281D01*
X95498Y73347D01*
X95523Y73422D01*
Y73427D01*
X95528Y73437D01*
X95534Y73457D01*
X95539Y73477D01*
X95549Y73518D01*
X95559Y73538D01*
X95564Y73553D01*
X95569Y73548D01*
X95579Y73543D01*
X95594Y73528D01*
X95614Y73507D01*
X95639Y73482D01*
X95669Y73457D01*
X95745Y73397D01*
X95835Y73331D01*
X95941Y73261D01*
X96052Y73196D01*
X96172Y73135D01*
X96177D01*
X96187Y73130D01*
X96202Y73125D01*
X96228Y73115D01*
X96258Y73105D01*
X96293Y73090D01*
X96333Y73080D01*
X96378Y73070D01*
X96484Y73045D01*
X96600Y73020D01*
X96731Y73005D01*
X96866Y72999D01*
X96927D01*
X96972Y73005D01*
X97027Y73010D01*
X97093Y73020D01*
X97163Y73030D01*
X97239Y73045D01*
X97319Y73060D01*
X97400Y73085D01*
X97485Y73115D01*
X97571Y73150D01*
X97656Y73191D01*
X97737Y73236D01*
X97812Y73291D01*
X97887Y73352D01*
X97892Y73357D01*
X97903Y73367D01*
X97923Y73387D01*
X97948Y73417D01*
X97973Y73452D01*
X98003Y73492D01*
X98038Y73538D01*
X98074Y73593D01*
X98109Y73658D01*
X98144Y73724D01*
X98174Y73799D01*
X98199Y73875D01*
X98225Y73960D01*
X98245Y74051D01*
X98255Y74141D01*
X98260Y74242D01*
Y77391D01*
D02*
G37*
G36*
X98373Y71764D02*
X94475D01*
X96275D01*
X96235Y71759D01*
X96175D01*
X96104Y71749D01*
X96019Y71739D01*
X95928Y71724D01*
X95828Y71704D01*
X95722Y71679D01*
X95611Y71648D01*
X95501Y71613D01*
X95385Y71568D01*
X95274Y71513D01*
X95169Y71452D01*
X95063Y71377D01*
X94968Y71296D01*
X94963Y71291D01*
X94947Y71276D01*
X94922Y71251D01*
X94892Y71216D01*
X94852Y71171D01*
X94812Y71115D01*
X94766Y71050D01*
X94721Y70979D01*
X94676Y70899D01*
X94631Y70813D01*
X94590Y70718D01*
X94550Y70617D01*
X94520Y70507D01*
X94495Y70391D01*
X94480Y70270D01*
X94475Y70144D01*
Y70079D01*
X94480Y70044D01*
Y70004D01*
X94485Y69958D01*
X94490Y69908D01*
X94510Y69792D01*
X94535Y69666D01*
X94570Y69536D01*
X94616Y69400D01*
Y69395D01*
X94621Y69385D01*
X94631Y69365D01*
X94641Y69340D01*
X94656Y69304D01*
X94676Y69269D01*
X94696Y69224D01*
X94726Y69174D01*
X94787Y69063D01*
X94862Y68937D01*
X94958Y68801D01*
X95063Y68661D01*
Y68656D01*
X95073Y68651D01*
X95083Y68635D01*
X95103Y68610D01*
X95123Y68585D01*
X95154Y68555D01*
X95189Y68515D01*
X95229Y68469D01*
X95274Y68419D01*
X95330Y68364D01*
X95390Y68303D01*
X95455Y68238D01*
X95531Y68163D01*
X95611Y68087D01*
X95697Y68007D01*
X95793Y67916D01*
X95797Y67911D01*
X95818Y67896D01*
X95843Y67871D01*
X95878Y67841D01*
X95918Y67800D01*
X95969Y67755D01*
X96074Y67655D01*
X96190Y67549D01*
X96295Y67443D01*
X96346Y67393D01*
X96391Y67348D01*
X96431Y67308D01*
X96461Y67272D01*
X96466Y67267D01*
X96487Y67247D01*
X96512Y67217D01*
X96542Y67177D01*
X96577Y67131D01*
X96617Y67081D01*
X96653Y67026D01*
X96688Y66970D01*
X94475D01*
Y65939D01*
X98373D01*
Y66040D01*
Y65944D01*
X98368Y65965D01*
X98363Y65995D01*
X98358Y66040D01*
X98348Y66090D01*
X98338Y66151D01*
X98323Y66221D01*
X98303Y66296D01*
X98282Y66377D01*
X98252Y66467D01*
X98187Y66654D01*
X98146Y66749D01*
X98101Y66850D01*
X98051Y66945D01*
X97996Y67046D01*
X97991Y67051D01*
X97981Y67071D01*
X97960Y67101D01*
X97930Y67141D01*
X97895Y67197D01*
X97845Y67257D01*
X97789Y67333D01*
X97719Y67418D01*
X97638Y67514D01*
X97548Y67619D01*
X97447Y67735D01*
X97332Y67856D01*
X97206Y67992D01*
X97065Y68132D01*
X96909Y68283D01*
X96743Y68439D01*
X96733Y68449D01*
X96708Y68469D01*
X96673Y68505D01*
X96623Y68555D01*
X96562Y68610D01*
X96497Y68676D01*
X96426Y68746D01*
X96346Y68822D01*
X96190Y68977D01*
X96109Y69058D01*
X96039Y69133D01*
X95969Y69209D01*
X95913Y69279D01*
X95863Y69340D01*
X95823Y69390D01*
X95818Y69395D01*
X95813Y69405D01*
X95803Y69425D01*
X95788Y69450D01*
X95767Y69480D01*
X95747Y69516D01*
X95707Y69601D01*
X95667Y69707D01*
X95626Y69823D01*
X95601Y69943D01*
X95591Y70004D01*
Y70069D01*
Y70074D01*
Y70084D01*
Y70104D01*
X95596Y70129D01*
Y70160D01*
X95601Y70200D01*
X95616Y70280D01*
X95642Y70371D01*
X95677Y70466D01*
X95727Y70562D01*
X95793Y70642D01*
X95803Y70652D01*
X95828Y70673D01*
X95873Y70708D01*
X95938Y70743D01*
X96014Y70778D01*
X96109Y70813D01*
X96220Y70833D01*
X96346Y70844D01*
X96381D01*
X96401Y70838D01*
X96431D01*
X96466Y70833D01*
X96547Y70818D01*
X96632Y70793D01*
X96723Y70753D01*
X96814Y70703D01*
X96899Y70632D01*
X96909Y70622D01*
X96919Y70612D01*
X96929Y70592D01*
X96949Y70567D01*
X96965Y70542D01*
X96985Y70507D01*
X97005Y70466D01*
X97025Y70421D01*
X97045Y70371D01*
X97065Y70315D01*
X97085Y70250D01*
X97100Y70180D01*
X97115Y70109D01*
X97126Y70024D01*
X97136Y69938D01*
X98242Y70049D01*
Y70054D01*
Y70059D01*
X98237Y70089D01*
X98232Y70134D01*
X98217Y70200D01*
X98202Y70275D01*
X98182Y70361D01*
X98162Y70456D01*
X98126Y70557D01*
X98091Y70662D01*
X98051Y70773D01*
X98001Y70879D01*
X97940Y70989D01*
X97875Y71095D01*
X97799Y71191D01*
X97714Y71281D01*
X97623Y71362D01*
X97618Y71367D01*
X97598Y71377D01*
X97568Y71397D01*
X97528Y71427D01*
X97478Y71457D01*
X97417Y71487D01*
X97347Y71528D01*
X97261Y71563D01*
X97176Y71598D01*
X97075Y71638D01*
X96965Y71668D01*
X96849Y71704D01*
X96728Y71729D01*
X96597Y71749D01*
X96461Y71759D01*
X96316Y71764D01*
X98373D01*
D02*
G37*
G36*
X91613D02*
X87714D01*
X89515D01*
X89475Y71759D01*
X89415D01*
X89344Y71749D01*
X89258Y71739D01*
X89168Y71724D01*
X89067Y71704D01*
X88962Y71679D01*
X88851Y71648D01*
X88740Y71613D01*
X88625Y71568D01*
X88514Y71513D01*
X88408Y71452D01*
X88303Y71377D01*
X88207Y71296D01*
X88202Y71291D01*
X88187Y71276D01*
X88162Y71251D01*
X88132Y71216D01*
X88092Y71171D01*
X88051Y71115D01*
X88006Y71050D01*
X87961Y70979D01*
X87915Y70899D01*
X87870Y70813D01*
X87830Y70718D01*
X87790Y70617D01*
X87760Y70507D01*
X87734Y70391D01*
X87719Y70270D01*
X87714Y70144D01*
Y70079D01*
X87719Y70044D01*
Y70004D01*
X87724Y69958D01*
X87729Y69908D01*
X87749Y69792D01*
X87775Y69666D01*
X87810Y69536D01*
X87855Y69400D01*
Y69395D01*
X87860Y69385D01*
X87870Y69365D01*
X87880Y69340D01*
X87895Y69304D01*
X87915Y69269D01*
X87936Y69224D01*
X87966Y69174D01*
X88026Y69063D01*
X88102Y68937D01*
X88197Y68801D01*
X88303Y68661D01*
Y68656D01*
X88313Y68651D01*
X88323Y68635D01*
X88343Y68610D01*
X88363Y68585D01*
X88393Y68555D01*
X88429Y68515D01*
X88469Y68469D01*
X88514Y68419D01*
X88569Y68364D01*
X88630Y68303D01*
X88695Y68238D01*
X88771Y68163D01*
X88851Y68087D01*
X88937Y68007D01*
X89032Y67916D01*
X89037Y67911D01*
X89057Y67896D01*
X89082Y67871D01*
X89118Y67841D01*
X89158Y67800D01*
X89208Y67755D01*
X89314Y67655D01*
X89429Y67549D01*
X89535Y67443D01*
X89586Y67393D01*
X89631Y67348D01*
X89671Y67308D01*
X89701Y67272D01*
X89706Y67267D01*
X89726Y67247D01*
X89751Y67217D01*
X89782Y67177D01*
X89817Y67131D01*
X89857Y67081D01*
X89892Y67026D01*
X89928Y66970D01*
X87714D01*
Y65939D01*
X91613D01*
Y65944D01*
D01*
X91607Y65965D01*
X91602Y65995D01*
X91597Y66040D01*
X91587Y66090D01*
X91577Y66151D01*
X91562Y66221D01*
X91542Y66296D01*
X91522Y66377D01*
X91492Y66467D01*
X91426Y66654D01*
X91386Y66749D01*
X91341Y66850D01*
X91291Y66945D01*
X91235Y67046D01*
X91230Y67051D01*
X91220Y67071D01*
X91200Y67101D01*
X91170Y67141D01*
X91135Y67197D01*
X91084Y67257D01*
X91029Y67333D01*
X90959Y67418D01*
X90878Y67514D01*
X90788Y67619D01*
X90687Y67735D01*
X90571Y67856D01*
X90446Y67992D01*
X90305Y68132D01*
X90149Y68283D01*
X89983Y68439D01*
X89973Y68449D01*
X89948Y68469D01*
X89912Y68505D01*
X89862Y68555D01*
X89802Y68610D01*
X89736Y68676D01*
X89666Y68746D01*
X89586Y68822D01*
X89429Y68977D01*
X89349Y69058D01*
X89279Y69133D01*
X89208Y69209D01*
X89153Y69279D01*
X89103Y69340D01*
X89062Y69390D01*
X89057Y69395D01*
X89052Y69405D01*
X89042Y69425D01*
X89027Y69450D01*
X89007Y69480D01*
X88987Y69516D01*
X88947Y69601D01*
X88906Y69707D01*
X88866Y69823D01*
X88841Y69943D01*
X88831Y70004D01*
Y70069D01*
Y70074D01*
Y70084D01*
Y70104D01*
X88836Y70129D01*
Y70160D01*
X88841Y70200D01*
X88856Y70280D01*
X88881Y70371D01*
X88916Y70466D01*
X88967Y70562D01*
X89032Y70642D01*
X89042Y70652D01*
X89067Y70673D01*
X89113Y70708D01*
X89178Y70743D01*
X89253Y70778D01*
X89349Y70813D01*
X89460Y70833D01*
X89586Y70844D01*
X89621D01*
X89641Y70838D01*
X89671D01*
X89706Y70833D01*
X89787Y70818D01*
X89872Y70793D01*
X89963Y70753D01*
X90053Y70703D01*
X90139Y70632D01*
X90149Y70622D01*
X90159Y70612D01*
X90169Y70592D01*
X90189Y70567D01*
X90204Y70542D01*
X90224Y70507D01*
X90244Y70466D01*
X90264Y70421D01*
X90285Y70371D01*
X90305Y70315D01*
X90325Y70250D01*
X90340Y70180D01*
X90355Y70109D01*
X90365Y70024D01*
X90375Y69938D01*
X91482Y70049D01*
Y70054D01*
Y70059D01*
X91477Y70089D01*
X91472Y70134D01*
X91457Y70200D01*
X91442Y70275D01*
X91421Y70361D01*
X91401Y70456D01*
X91366Y70557D01*
X91331Y70662D01*
X91291Y70773D01*
X91240Y70879D01*
X91180Y70989D01*
X91115Y71095D01*
X91039Y71191D01*
X90954Y71281D01*
X90863Y71362D01*
X90858Y71367D01*
X90838Y71377D01*
X90808Y71397D01*
X90768Y71427D01*
X90717Y71457D01*
X90657Y71487D01*
X90587Y71528D01*
X90501Y71563D01*
X90415Y71598D01*
X90315Y71638D01*
X90204Y71668D01*
X90088Y71704D01*
X89968Y71729D01*
X89837Y71749D01*
X89701Y71759D01*
X89555Y71764D01*
X91613D01*
D02*
G37*
G36*
X77931Y71663D02*
X74033D01*
D01*
X74289D01*
Y70622D01*
X76387D01*
X76563Y69636D01*
X76558D01*
X76548Y69646D01*
X76528Y69652D01*
X76497Y69666D01*
X76462Y69682D01*
X76422Y69697D01*
X76377Y69712D01*
X76326Y69732D01*
X76216Y69762D01*
X76085Y69792D01*
X75949Y69812D01*
X75803Y69823D01*
X75768D01*
X75733Y69817D01*
X75678Y69812D01*
X75617Y69807D01*
X75542Y69792D01*
X75461Y69777D01*
X75371Y69757D01*
X75275Y69727D01*
X75174Y69692D01*
X75069Y69646D01*
X74963Y69591D01*
X74858Y69531D01*
X74752Y69460D01*
X74651Y69375D01*
X74551Y69279D01*
X74546Y69274D01*
X74531Y69254D01*
X74501Y69224D01*
X74470Y69184D01*
X74430Y69128D01*
X74385Y69063D01*
X74339Y68988D01*
X74289Y68902D01*
X74244Y68806D01*
X74199Y68701D01*
X74153Y68590D01*
X74113Y68464D01*
X74078Y68334D01*
X74053Y68193D01*
X74038Y68042D01*
X74033Y67886D01*
Y67856D01*
X74038Y67816D01*
Y67765D01*
X74048Y67700D01*
X74053Y67629D01*
X74068Y67544D01*
X74083Y67458D01*
X74108Y67358D01*
X74133Y67257D01*
X74168Y67151D01*
X74209Y67041D01*
X74254Y66930D01*
X74314Y66820D01*
X74375Y66709D01*
X74450Y66603D01*
X74455Y66593D01*
X74475Y66573D01*
X74511Y66533D01*
X74556Y66483D01*
X74611Y66427D01*
X74682Y66362D01*
X74762Y66291D01*
X74858Y66221D01*
X74963Y66151D01*
X75079Y66080D01*
X75210Y66015D01*
X75351Y65959D01*
X75502Y65909D01*
X75662Y65874D01*
X75839Y65849D01*
X76020Y65839D01*
X76055D01*
X76095Y65844D01*
X76155D01*
X76221Y65854D01*
X76301Y65864D01*
X76392Y65874D01*
X76487Y65894D01*
X76588Y65914D01*
X76694Y65944D01*
X76804Y65980D01*
X76915Y66020D01*
X77021Y66070D01*
X77131Y66125D01*
X77232Y66191D01*
X77332Y66266D01*
X77337Y66271D01*
X77352Y66286D01*
X77378Y66312D01*
X77413Y66347D01*
X77453Y66387D01*
X77498Y66442D01*
X77544Y66503D01*
X77594Y66573D01*
X77649Y66654D01*
X77700Y66739D01*
X77750Y66835D01*
X77795Y66940D01*
X77840Y67051D01*
X77876Y67167D01*
X77911Y67297D01*
X77931Y67428D01*
X76824Y67544D01*
Y67539D01*
X76819Y67529D01*
Y67509D01*
X76814Y67484D01*
X76804Y67448D01*
X76799Y67413D01*
X76774Y67328D01*
X76739Y67232D01*
X76689Y67131D01*
X76628Y67036D01*
X76548Y66945D01*
X76543D01*
X76538Y66935D01*
X76523Y66925D01*
X76508Y66910D01*
X76457Y66875D01*
X76392Y66840D01*
X76311Y66799D01*
X76221Y66764D01*
X76120Y66739D01*
X76065Y66734D01*
X76010Y66729D01*
X75974D01*
X75949Y66734D01*
X75919Y66739D01*
X75884Y66744D01*
X75803Y66764D01*
X75708Y66799D01*
X75612Y66850D01*
X75562Y66880D01*
X75511Y66920D01*
X75461Y66960D01*
X75416Y67011D01*
X75411Y67016D01*
X75406Y67026D01*
X75396Y67041D01*
X75376Y67066D01*
X75361Y67091D01*
X75340Y67131D01*
X75315Y67172D01*
X75295Y67222D01*
X75270Y67282D01*
X75250Y67343D01*
X75230Y67413D01*
X75210Y67489D01*
X75195Y67574D01*
X75185Y67665D01*
X75180Y67760D01*
X75174Y67866D01*
Y67871D01*
Y67891D01*
Y67916D01*
X75180Y67951D01*
Y67997D01*
X75185Y68047D01*
X75195Y68107D01*
X75205Y68168D01*
X75235Y68293D01*
X75275Y68429D01*
X75336Y68555D01*
X75376Y68615D01*
X75416Y68666D01*
X75421Y68671D01*
X75426Y68676D01*
X75441Y68691D01*
X75461Y68706D01*
X75481Y68731D01*
X75511Y68751D01*
X75582Y68801D01*
X75673Y68852D01*
X75783Y68897D01*
X75904Y68927D01*
X75969Y68932D01*
X76040Y68937D01*
X76060D01*
X76085Y68932D01*
X76120D01*
X76160Y68922D01*
X76211Y68917D01*
X76266Y68902D01*
X76326Y68887D01*
X76392Y68862D01*
X76457Y68837D01*
X76528Y68801D01*
X76603Y68761D01*
X76674Y68711D01*
X76749Y68656D01*
X76824Y68590D01*
X76895Y68515D01*
X77795Y68640D01*
X77227Y71663D01*
X77931D01*
Y65944D01*
Y71663D01*
D02*
G37*
G36*
X82599Y71764D02*
X78701D01*
X80501D01*
X80461Y71759D01*
X80401D01*
X80330Y71749D01*
X80245Y71739D01*
X80154Y71724D01*
X80054Y71704D01*
X79948Y71679D01*
X79837Y71648D01*
X79727Y71613D01*
X79611Y71568D01*
X79500Y71513D01*
X79395Y71452D01*
X79289Y71377D01*
X79194Y71296D01*
X79189Y71291D01*
X79173Y71276D01*
X79148Y71251D01*
X79118Y71216D01*
X79078Y71171D01*
X79038Y71115D01*
X78992Y71050D01*
X78947Y70979D01*
X78902Y70899D01*
X78856Y70813D01*
X78816Y70718D01*
X78776Y70617D01*
X78746Y70507D01*
X78721Y70391D01*
X78706Y70270D01*
X78701Y70144D01*
Y70079D01*
X78706Y70044D01*
Y70004D01*
X78711Y69958D01*
X78716Y69908D01*
X78736Y69792D01*
X78761Y69666D01*
X78796Y69536D01*
X78841Y69400D01*
Y69395D01*
X78846Y69385D01*
X78856Y69365D01*
X78866Y69340D01*
X78882Y69304D01*
X78902Y69269D01*
X78922Y69224D01*
X78952Y69174D01*
X79012Y69063D01*
X79088Y68937D01*
X79183Y68801D01*
X79289Y68661D01*
Y68656D01*
X79299Y68651D01*
X79309Y68635D01*
X79329Y68610D01*
X79349Y68585D01*
X79380Y68555D01*
X79415Y68515D01*
X79455Y68469D01*
X79500Y68419D01*
X79556Y68364D01*
X79616Y68303D01*
X79681Y68238D01*
X79757Y68163D01*
X79837Y68087D01*
X79923Y68007D01*
X80018Y67916D01*
X80023Y67911D01*
X80044Y67896D01*
X80069Y67871D01*
X80104Y67841D01*
X80144Y67800D01*
X80194Y67755D01*
X80300Y67655D01*
X80416Y67549D01*
X80521Y67443D01*
X80572Y67393D01*
X80617Y67348D01*
X80657Y67308D01*
X80687Y67272D01*
X80692Y67267D01*
X80713Y67247D01*
X80738Y67217D01*
X80768Y67177D01*
X80803Y67131D01*
X80843Y67081D01*
X80879Y67026D01*
X80914Y66970D01*
X78701D01*
Y65939D01*
X82599D01*
Y71764D01*
D02*
G37*
G36*
X102739D02*
X98971D01*
D01*
X100822D01*
X100777Y71759D01*
X100717Y71754D01*
X100646Y71744D01*
X100566Y71734D01*
X100475Y71714D01*
X100375Y71689D01*
X100274Y71658D01*
X100164Y71618D01*
X100053Y71568D01*
X99947Y71508D01*
X99837Y71442D01*
X99731Y71362D01*
X99630Y71266D01*
X99540Y71161D01*
X99535Y71150D01*
X99515Y71125D01*
X99489Y71085D01*
X99449Y71025D01*
X99409Y70944D01*
X99359Y70849D01*
X99309Y70733D01*
X99253Y70597D01*
X99203Y70441D01*
X99152Y70270D01*
X99127Y70175D01*
X99102Y70074D01*
X99082Y69973D01*
X99062Y69863D01*
X99042Y69747D01*
X99022Y69626D01*
X99007Y69501D01*
X98997Y69370D01*
X98987Y69234D01*
X98976Y69093D01*
X98971Y68947D01*
Y68686D01*
X98976Y68640D01*
Y68585D01*
X98981Y68530D01*
X98987Y68464D01*
Y68394D01*
X99002Y68238D01*
X99022Y68067D01*
X99042Y67886D01*
X99072Y67695D01*
X99112Y67499D01*
X99158Y67297D01*
X99213Y67106D01*
X99278Y66920D01*
X99354Y66739D01*
X99444Y66578D01*
X99495Y66503D01*
X99545Y66432D01*
X99550Y66427D01*
X99565Y66407D01*
X99595Y66377D01*
X99630Y66342D01*
X99681Y66296D01*
X99736Y66246D01*
X99806Y66191D01*
X99882Y66136D01*
X99972Y66080D01*
X100073Y66025D01*
X100179Y65974D01*
X100294Y65929D01*
X100420Y65894D01*
X100561Y65864D01*
X100702Y65844D01*
X100858Y65839D01*
X100893D01*
X100938Y65844D01*
X100999Y65849D01*
X101069Y65859D01*
X101154Y65874D01*
X101245Y65894D01*
X101346Y65919D01*
X101451Y65954D01*
X101562Y66000D01*
X101673Y66050D01*
X101788Y66110D01*
X101904Y66186D01*
X102015Y66271D01*
X102120Y66372D01*
X102221Y66488D01*
X102226Y66498D01*
X102241Y66518D01*
X102266Y66558D01*
X102301Y66613D01*
X102342Y66689D01*
X102387Y66779D01*
X102432Y66890D01*
X102477Y67021D01*
X102503Y67091D01*
X102528Y67172D01*
X102553Y67252D01*
X102573Y67338D01*
X102598Y67433D01*
X102618Y67529D01*
X102638Y67629D01*
X102658Y67740D01*
X102673Y67856D01*
X102689Y67971D01*
X102704Y68097D01*
X102719Y68228D01*
X102724Y68364D01*
X102734Y68505D01*
X102739Y68651D01*
Y68947D01*
Y68917D01*
X102734Y68962D01*
Y69018D01*
X102729Y69073D01*
X102724Y69138D01*
Y69209D01*
X102709Y69365D01*
X102694Y69536D01*
X102668Y69717D01*
X102638Y69908D01*
X102598Y70104D01*
X102553Y70300D01*
X102497Y70491D01*
X102432Y70683D01*
X102357Y70859D01*
X102271Y71020D01*
X102221Y71095D01*
X102171Y71166D01*
X102165Y71171D01*
X102150Y71191D01*
X102120Y71221D01*
X102085Y71261D01*
X102035Y71306D01*
X101979Y71357D01*
X101909Y71407D01*
X101829Y71467D01*
X101743Y71523D01*
X101642Y71573D01*
X101537Y71623D01*
X101421Y71668D01*
X101290Y71709D01*
X101154Y71739D01*
X101014Y71759D01*
X100858Y71764D01*
X102739D01*
D01*
D02*
G37*
G36*
X98971Y68419D02*
Y65839D01*
D01*
Y68419D01*
D02*
G37*
G36*
X94072Y71839D02*
X91804D01*
Y65839D01*
D01*
Y71839D01*
X93257Y65839D01*
X94072D01*
D01*
X92639Y71839D01*
X94072D01*
D01*
D02*
G37*
G36*
X86965Y71764D02*
X83197D01*
D01*
X85048D01*
X85003Y71759D01*
X84943Y71754D01*
X84872Y71744D01*
X84792Y71734D01*
X84701Y71714D01*
X84601Y71689D01*
X84500Y71658D01*
X84390Y71618D01*
X84279Y71568D01*
X84173Y71508D01*
X84062Y71442D01*
X83957Y71362D01*
X83856Y71266D01*
X83766Y71161D01*
X83761Y71150D01*
X83741Y71125D01*
X83715Y71085D01*
X83675Y71025D01*
X83635Y70944D01*
X83585Y70849D01*
X83534Y70733D01*
X83479Y70597D01*
X83429Y70441D01*
X83378Y70270D01*
X83353Y70175D01*
X83328Y70074D01*
X83308Y69973D01*
X83288Y69863D01*
X83268Y69747D01*
X83248Y69626D01*
X83233Y69501D01*
X83223Y69370D01*
X83213Y69234D01*
X83202Y69093D01*
X83197Y68947D01*
Y68686D01*
X83202Y68640D01*
Y68585D01*
X83207Y68530D01*
X83213Y68464D01*
Y68394D01*
X83228Y68238D01*
X83248Y68067D01*
X83268Y67886D01*
X83298Y67695D01*
X83338Y67499D01*
X83384Y67297D01*
X83439Y67106D01*
X83504Y66920D01*
X83580Y66739D01*
X83670Y66578D01*
X83720Y66503D01*
X83771Y66432D01*
X83776Y66427D01*
X83791Y66407D01*
X83821Y66377D01*
X83856Y66342D01*
X83907Y66296D01*
X83962Y66246D01*
X84032Y66191D01*
X84108Y66136D01*
X84198Y66080D01*
X84299Y66025D01*
X84405Y65974D01*
X84520Y65929D01*
X84646Y65894D01*
X84787Y65864D01*
X84928Y65844D01*
X85084Y65839D01*
X85119D01*
X85164Y65844D01*
X85224Y65849D01*
X85295Y65859D01*
X85380Y65874D01*
X85471Y65894D01*
X85571Y65919D01*
X85677Y65954D01*
X85788Y66000D01*
X85899Y66050D01*
X86014Y66110D01*
X86130Y66186D01*
X86241Y66271D01*
X86346Y66372D01*
X86447Y66488D01*
X86452Y66498D01*
X86467Y66518D01*
X86492Y66558D01*
X86527Y66613D01*
X86567Y66689D01*
X86613Y66779D01*
X86658Y66890D01*
X86703Y67021D01*
X86728Y67091D01*
X86754Y67172D01*
X86779Y67252D01*
X86799Y67338D01*
X86824Y67433D01*
X86844Y67529D01*
X86864Y67629D01*
X86884Y67740D01*
X86900Y67856D01*
X86914Y67971D01*
X86930Y68097D01*
X86945Y68228D01*
X86950Y68364D01*
X86960Y68505D01*
X86965Y68651D01*
Y68947D01*
Y68917D01*
X86960Y68962D01*
Y69018D01*
X86955Y69073D01*
X86950Y69138D01*
Y69209D01*
X86935Y69365D01*
X86920Y69536D01*
X86894Y69717D01*
X86864Y69908D01*
X86824Y70104D01*
X86779Y70300D01*
X86723Y70491D01*
X86658Y70683D01*
X86583Y70859D01*
X86497Y71020D01*
X86447Y71095D01*
X86396Y71166D01*
X86391Y71171D01*
X86376Y71191D01*
X86346Y71221D01*
X86311Y71261D01*
X86261Y71306D01*
X86205Y71357D01*
X86135Y71407D01*
X86054Y71467D01*
X85969Y71523D01*
X85868Y71573D01*
X85763Y71623D01*
X85647Y71668D01*
X85516Y71709D01*
X85380Y71739D01*
X85240Y71759D01*
X85084Y71764D01*
X86965D01*
D02*
G37*
G36*
X83197Y68676D02*
Y65839D01*
D01*
Y68676D01*
D02*
G37*
%LPD*%
G36*
X83401Y85054D02*
X83451Y85044D01*
X83507Y85029D01*
X83567Y85004D01*
X83632Y84974D01*
X83693Y84929D01*
X83698Y84924D01*
X83718Y84903D01*
X83748Y84868D01*
X83783Y84823D01*
X83824Y84758D01*
X83864Y84677D01*
X83904Y84582D01*
X83939Y84466D01*
Y84461D01*
X83944Y84446D01*
X83949Y84421D01*
X83954Y84380D01*
X83965Y84335D01*
X83974Y84275D01*
X83985Y84204D01*
X83995Y84124D01*
X84005Y84028D01*
X84015Y83923D01*
X84025Y83802D01*
X84035Y83671D01*
X84040Y83525D01*
X84045Y83369D01*
X84050Y83198D01*
Y83012D01*
Y83007D01*
Y83002D01*
Y82987D01*
Y82967D01*
Y82917D01*
Y82846D01*
X84045Y82766D01*
Y82670D01*
X84040Y82565D01*
X84035Y82454D01*
X84025Y82222D01*
X84015Y82102D01*
X84010Y81991D01*
X83995Y81880D01*
X83985Y81780D01*
X83965Y81689D01*
X83949Y81609D01*
Y81604D01*
X83944Y81594D01*
X83939Y81574D01*
X83929Y81548D01*
X83919Y81518D01*
X83909Y81483D01*
X83879Y81402D01*
X83839Y81317D01*
X83793Y81231D01*
X83743Y81161D01*
X83718Y81126D01*
X83688Y81101D01*
X83683Y81096D01*
X83658Y81081D01*
X83627Y81060D01*
X83582Y81040D01*
X83532Y81015D01*
X83472Y80995D01*
X83406Y80980D01*
X83331Y80975D01*
X83296D01*
X83260Y80980D01*
X83210Y80990D01*
X83155Y81005D01*
X83094Y81030D01*
X83034Y81060D01*
X82974Y81101D01*
X82968Y81106D01*
X82948Y81126D01*
X82918Y81161D01*
X82883Y81206D01*
X82843Y81272D01*
X82797Y81352D01*
X82757Y81448D01*
X82722Y81564D01*
Y81568D01*
X82717Y81584D01*
X82712Y81609D01*
X82702Y81644D01*
X82697Y81694D01*
X82687Y81755D01*
X82677Y81825D01*
X82662Y81906D01*
X82652Y82001D01*
X82642Y82107D01*
X82631Y82222D01*
X82626Y82353D01*
X82616Y82499D01*
X82611Y82655D01*
X82606Y82826D01*
Y83012D01*
Y83017D01*
Y83022D01*
Y83037D01*
Y83057D01*
Y83108D01*
Y83178D01*
X82611Y83259D01*
Y83354D01*
X82616Y83460D01*
X82622Y83570D01*
X82631Y83802D01*
X82642Y83923D01*
X82652Y84033D01*
X82662Y84144D01*
X82677Y84245D01*
X82692Y84335D01*
X82712Y84416D01*
Y84421D01*
X82717Y84431D01*
X82722Y84451D01*
X82732Y84476D01*
X82742Y84506D01*
X82752Y84541D01*
X82782Y84622D01*
X82818Y84707D01*
X82863Y84793D01*
X82918Y84868D01*
X82943Y84903D01*
X82974Y84929D01*
X82979Y84934D01*
X82999Y84949D01*
X83034Y84969D01*
X83074Y84994D01*
X83130Y85019D01*
X83190Y85039D01*
X83255Y85054D01*
X83331Y85059D01*
X83366D01*
X83401Y85054D01*
D02*
G37*
G36*
X92380Y83596D02*
X92410Y83591D01*
X92445Y83586D01*
X92531Y83565D01*
X92626Y83535D01*
X92727Y83490D01*
X92777Y83460D01*
X92822Y83425D01*
X92873Y83379D01*
X92918Y83334D01*
Y83329D01*
X92928Y83324D01*
X92938Y83309D01*
X92953Y83284D01*
X92973Y83259D01*
X92993Y83228D01*
X93013Y83188D01*
X93034Y83143D01*
X93059Y83098D01*
X93079Y83042D01*
X93099Y82982D01*
X93119Y82917D01*
X93144Y82776D01*
X93149Y82695D01*
X93154Y82615D01*
X91489D01*
Y82620D01*
Y82635D01*
X91494Y82660D01*
Y82695D01*
X91499Y82736D01*
X91504Y82781D01*
X91514Y82831D01*
X91524Y82886D01*
X91555Y83007D01*
X91600Y83128D01*
X91660Y83244D01*
X91701Y83299D01*
X91741Y83349D01*
X91746Y83354D01*
X91751Y83359D01*
X91766Y83374D01*
X91781Y83389D01*
X91831Y83430D01*
X91902Y83475D01*
X91987Y83520D01*
X92083Y83560D01*
X92199Y83591D01*
X92254Y83596D01*
X92319Y83601D01*
X92355D01*
X92380Y83596D01*
D02*
G37*
G36*
X98652Y83500D02*
X97586D01*
X97510Y83505D01*
X97430D01*
X97339Y83510D01*
X97163Y83515D01*
X97073Y83525D01*
X96992Y83530D01*
X96912Y83540D01*
X96846Y83545D01*
X96786Y83560D01*
X96741Y83570D01*
X96731Y83575D01*
X96705Y83586D01*
X96665Y83601D01*
X96620Y83626D01*
X96565Y83661D01*
X96509Y83701D01*
X96459Y83752D01*
X96409Y83812D01*
X96404Y83822D01*
X96389Y83842D01*
X96368Y83882D01*
X96348Y83933D01*
X96328Y83998D01*
X96308Y84074D01*
X96293Y84154D01*
X96288Y84250D01*
Y84255D01*
Y84265D01*
Y84280D01*
Y84300D01*
X96298Y84350D01*
X96308Y84421D01*
X96328Y84491D01*
X96353Y84571D01*
X96394Y84652D01*
X96449Y84722D01*
X96454Y84732D01*
X96479Y84753D01*
X96514Y84783D01*
X96560Y84818D01*
X96625Y84858D01*
X96700Y84898D01*
X96786Y84929D01*
X96886Y84954D01*
X96902D01*
X96922Y84959D01*
X96967D01*
X97002Y84964D01*
X97098D01*
X97158Y84969D01*
X97304D01*
X97400Y84974D01*
X98652D01*
Y83500D01*
D02*
G37*
G36*
X88059Y82212D02*
X87827Y81493D01*
Y81498D01*
X87823Y81503D01*
X87817Y81518D01*
X87812Y81538D01*
X87797Y81584D01*
X87777Y81644D01*
X87757Y81704D01*
X87742Y81765D01*
X87722Y81815D01*
X87712Y81855D01*
X87707Y81865D01*
X87702Y81885D01*
X87692Y81921D01*
X87677Y81966D01*
X87656Y82021D01*
X87636Y82082D01*
X87591Y82212D01*
X86791Y84360D01*
X88849D01*
X88059Y82212D01*
D02*
G37*
G36*
X100161Y75107D02*
X100176D01*
X100191Y75097D01*
X100216Y75092D01*
X100241Y75082D01*
X100277Y75072D01*
X100317Y75062D01*
X100362Y75052D01*
X100413Y75037D01*
X100468Y75021D01*
X100528Y75006D01*
X100599Y74991D01*
X100669Y74971D01*
X100750Y74956D01*
X100835Y74936D01*
X100840D01*
X100855Y74931D01*
X100880Y74926D01*
X100910Y74921D01*
X100946Y74911D01*
X100991Y74901D01*
X101082Y74876D01*
X101187Y74845D01*
X101283Y74815D01*
X101328Y74800D01*
X101373Y74780D01*
X101409Y74765D01*
X101439Y74745D01*
X101449Y74740D01*
X101474Y74720D01*
X101509Y74685D01*
X101544Y74639D01*
X101585Y74584D01*
X101620Y74514D01*
X101645Y74438D01*
X101650Y74398D01*
X101655Y74353D01*
Y74342D01*
X101650Y74312D01*
X101645Y74272D01*
X101635Y74217D01*
X101615Y74151D01*
X101585Y74086D01*
X101539Y74015D01*
X101484Y73950D01*
X101474Y73945D01*
X101454Y73925D01*
X101414Y73900D01*
X101363Y73870D01*
X101298Y73834D01*
X101222Y73809D01*
X101132Y73789D01*
X101036Y73784D01*
X101006D01*
X100986Y73789D01*
X100956D01*
X100926Y73794D01*
X100850Y73809D01*
X100765Y73834D01*
X100669Y73865D01*
X100564Y73915D01*
X100463Y73980D01*
X100453Y73985D01*
X100433Y74005D01*
X100398Y74041D01*
X100352Y74081D01*
X100307Y74136D01*
X100267Y74197D01*
X100226Y74272D01*
X100196Y74348D01*
Y74353D01*
X100191Y74378D01*
X100181Y74413D01*
X100171Y74468D01*
Y74503D01*
X100166Y74544D01*
X100161Y74589D01*
X100156Y74634D01*
Y74690D01*
X100151Y74750D01*
Y74820D01*
Y74891D01*
Y75112D01*
X100161Y75107D01*
D02*
G37*
G36*
X74488D02*
X74503D01*
X74518Y75097D01*
X74543Y75092D01*
X74568Y75082D01*
X74604Y75072D01*
X74644Y75062D01*
X74689Y75052D01*
X74739Y75037D01*
X74795Y75021D01*
X74855Y75006D01*
X74926Y74991D01*
X74996Y74971D01*
X75076Y74956D01*
X75162Y74936D01*
X75167D01*
X75182Y74931D01*
X75207Y74926D01*
X75237Y74921D01*
X75273Y74911D01*
X75318Y74901D01*
X75408Y74876D01*
X75514Y74845D01*
X75610Y74815D01*
X75655Y74800D01*
X75700Y74780D01*
X75735Y74765D01*
X75766Y74745D01*
X75776Y74740D01*
X75801Y74720D01*
X75836Y74685D01*
X75871Y74639D01*
X75911Y74584D01*
X75947Y74514D01*
X75972Y74438D01*
X75977Y74398D01*
X75982Y74353D01*
Y74342D01*
X75977Y74312D01*
X75972Y74272D01*
X75962Y74217D01*
X75942Y74151D01*
X75911Y74086D01*
X75866Y74015D01*
X75811Y73950D01*
X75801Y73945D01*
X75781Y73925D01*
X75740Y73900D01*
X75690Y73870D01*
X75625Y73834D01*
X75549Y73809D01*
X75459Y73789D01*
X75363Y73784D01*
X75333D01*
X75313Y73789D01*
X75283D01*
X75252Y73794D01*
X75177Y73809D01*
X75091Y73834D01*
X74996Y73865D01*
X74890Y73915D01*
X74790Y73980D01*
X74780Y73985D01*
X74760Y74005D01*
X74724Y74041D01*
X74679Y74081D01*
X74634Y74136D01*
X74594Y74197D01*
X74553Y74272D01*
X74523Y74348D01*
Y74353D01*
X74518Y74378D01*
X74508Y74413D01*
X74498Y74468D01*
Y74503D01*
X74493Y74544D01*
X74488Y74589D01*
X74483Y74634D01*
Y74690D01*
X74478Y74750D01*
Y74820D01*
Y74891D01*
Y75112D01*
X74488Y75107D01*
D02*
G37*
G36*
X107128Y76319D02*
X104769Y78895D01*
X107128D01*
Y76319D01*
D02*
G37*
G36*
X93466Y77300D02*
X92435D01*
Y76681D01*
X92430Y76691D01*
X92410Y76712D01*
X92380Y76747D01*
X92334Y76792D01*
X92284Y76847D01*
X92219Y76908D01*
X92143Y76968D01*
X92058Y77039D01*
X91962Y77104D01*
X91856Y77164D01*
X91741Y77225D01*
X91620Y77280D01*
X91489Y77325D01*
X91348Y77360D01*
X91203Y77381D01*
X91052Y77391D01*
X93466D01*
Y77300D01*
D02*
G37*
G36*
X69790Y77386D02*
X69755D01*
X69664Y77376D01*
X69559Y77355D01*
X69448Y77335D01*
X69332Y77300D01*
X69217Y77255D01*
X69212D01*
X69201Y77250D01*
X69186Y77240D01*
X69166Y77230D01*
X69111Y77205D01*
X69046Y77164D01*
X68970Y77114D01*
X68889Y77059D01*
X68819Y76993D01*
X68754Y76918D01*
X68749Y76908D01*
X68729Y76883D01*
X68703Y76837D01*
X68668Y76782D01*
X68633Y76712D01*
X68598Y76636D01*
X68563Y76546D01*
X68537Y76450D01*
Y76445D01*
X68532Y76440D01*
Y76425D01*
X68527Y76400D01*
X68522Y76375D01*
X68517Y76344D01*
X68512Y76304D01*
X68502Y76259D01*
X68497Y76209D01*
X68492Y76153D01*
X68487Y76093D01*
X68482Y76028D01*
X68477Y75952D01*
Y75877D01*
X68472Y75796D01*
Y77391D01*
X69825D01*
X69790Y77386D01*
D02*
G37*
G36*
X98260Y74277D02*
X98255Y74302D01*
Y74332D01*
X98250Y74368D01*
X98240Y74453D01*
X98220Y74549D01*
X98189Y74654D01*
X98149Y74765D01*
X98094Y74871D01*
Y74876D01*
X98084Y74881D01*
X98074Y74896D01*
X98063Y74916D01*
X98023Y74966D01*
X97968Y75032D01*
X97903Y75097D01*
X97822Y75172D01*
X97727Y75238D01*
X97616Y75298D01*
X97611D01*
X97601Y75303D01*
X97586Y75313D01*
X97561Y75323D01*
X97525Y75338D01*
X97490Y75353D01*
X97445Y75369D01*
X97390Y75389D01*
X97329Y75409D01*
X97264Y75429D01*
X97193Y75449D01*
X97113Y75474D01*
X97027Y75494D01*
X96937Y75514D01*
X96836Y75540D01*
X96731Y75560D01*
X96720D01*
X96695Y75565D01*
X96655Y75575D01*
X96605Y75585D01*
X96539Y75600D01*
X96464Y75615D01*
X96384Y75630D01*
X96298Y75650D01*
X96122Y75691D01*
X95941Y75736D01*
X95855Y75761D01*
X95775Y75786D01*
X95705Y75811D01*
X95644Y75836D01*
Y75947D01*
Y75952D01*
Y75962D01*
Y75977D01*
Y75997D01*
X95654Y76053D01*
X95664Y76123D01*
X95684Y76199D01*
X95710Y76274D01*
X95750Y76339D01*
X95805Y76400D01*
X95810Y76405D01*
X95835Y76420D01*
X95876Y76445D01*
X95906Y76455D01*
X95936Y76470D01*
X95976Y76485D01*
X96021Y76495D01*
X96067Y76510D01*
X96122Y76520D01*
X96182Y76525D01*
X96253Y76535D01*
X96323Y76540D01*
X96454D01*
X96504Y76535D01*
X96575Y76525D01*
X96645Y76510D01*
X96726Y76490D01*
X96801Y76460D01*
X96866Y76420D01*
X96871Y76415D01*
X96892Y76400D01*
X96922Y76370D01*
X96962Y76324D01*
X97002Y76269D01*
X97048Y76199D01*
X97093Y76113D01*
X97133Y76012D01*
X98144Y76193D01*
Y76199D01*
X98134Y76219D01*
X98124Y76254D01*
X98114Y76294D01*
X98094Y76344D01*
X98069Y76400D01*
X98043Y76465D01*
X98008Y76535D01*
X97973Y76606D01*
X97928Y76681D01*
X97882Y76757D01*
X97827Y76832D01*
X97767Y76903D01*
X97706Y76973D01*
X97636Y77034D01*
X97561Y77094D01*
X97556Y77099D01*
X97540Y77109D01*
X97515Y77119D01*
X97480Y77139D01*
X97440Y77164D01*
X97385Y77189D01*
X97324Y77215D01*
X97249Y77245D01*
X97168Y77270D01*
X97073Y77295D01*
X96972Y77320D01*
X96861Y77345D01*
X96741Y77365D01*
X96610Y77376D01*
X96474Y77386D01*
X96323Y77391D01*
X98260D01*
Y74277D01*
D02*
G37*
G36*
X95654Y75107D02*
X95669D01*
X95684Y75097D01*
X95710Y75092D01*
X95735Y75082D01*
X95770Y75072D01*
X95810Y75062D01*
X95855Y75052D01*
X95906Y75037D01*
X95961Y75021D01*
X96021Y75006D01*
X96092Y74991D01*
X96162Y74971D01*
X96243Y74956D01*
X96328Y74936D01*
X96333D01*
X96348Y74931D01*
X96373Y74926D01*
X96404Y74921D01*
X96439Y74911D01*
X96484Y74901D01*
X96575Y74876D01*
X96680Y74845D01*
X96776Y74815D01*
X96821Y74800D01*
X96866Y74780D01*
X96902Y74765D01*
X96932Y74745D01*
X96942Y74740D01*
X96967Y74720D01*
X97002Y74685D01*
X97037Y74639D01*
X97078Y74584D01*
X97113Y74514D01*
X97138Y74438D01*
X97143Y74398D01*
X97148Y74353D01*
Y74342D01*
X97143Y74312D01*
X97138Y74272D01*
X97128Y74217D01*
X97108Y74151D01*
X97078Y74086D01*
X97032Y74015D01*
X96977Y73950D01*
X96967Y73945D01*
X96947Y73925D01*
X96907Y73900D01*
X96856Y73870D01*
X96791Y73834D01*
X96715Y73809D01*
X96625Y73789D01*
X96529Y73784D01*
X96499D01*
X96479Y73789D01*
X96449D01*
X96419Y73794D01*
X96343Y73809D01*
X96258Y73834D01*
X96162Y73865D01*
X96057Y73915D01*
X95956Y73980D01*
X95946Y73985D01*
X95926Y74005D01*
X95891Y74041D01*
X95845Y74081D01*
X95800Y74136D01*
X95760Y74197D01*
X95720Y74272D01*
X95689Y74348D01*
Y74353D01*
X95684Y74378D01*
X95674Y74413D01*
X95664Y74468D01*
Y74503D01*
X95659Y74544D01*
X95654Y74589D01*
X95649Y74634D01*
Y74690D01*
X95644Y74750D01*
Y74820D01*
Y74891D01*
Y75112D01*
X95654Y75107D01*
D02*
G37*
G36*
X82599Y65944D02*
X82594Y65965D01*
X82589Y65995D01*
X82584Y66040D01*
X82574Y66090D01*
X82564Y66151D01*
X82548Y66221D01*
X82528Y66296D01*
X82508Y66377D01*
X82478Y66467D01*
X82413Y66654D01*
X82372Y66749D01*
X82327Y66850D01*
X82277Y66945D01*
X82222Y67046D01*
X82217Y67051D01*
X82206Y67071D01*
X82186Y67101D01*
X82156Y67141D01*
X82121Y67197D01*
X82071Y67257D01*
X82015Y67333D01*
X81945Y67418D01*
X81864Y67514D01*
X81774Y67619D01*
X81673Y67735D01*
X81558Y67856D01*
X81432Y67992D01*
X81291Y68132D01*
X81135Y68283D01*
X80969Y68439D01*
X80959Y68449D01*
X80934Y68469D01*
X80899Y68505D01*
X80848Y68555D01*
X80788Y68610D01*
X80723Y68676D01*
X80652Y68746D01*
X80572Y68822D01*
X80416Y68977D01*
X80335Y69058D01*
X80265Y69133D01*
X80194Y69209D01*
X80139Y69279D01*
X80089Y69340D01*
X80049Y69390D01*
X80044Y69395D01*
X80038Y69405D01*
X80028Y69425D01*
X80013Y69450D01*
X79993Y69480D01*
X79973Y69516D01*
X79933Y69601D01*
X79893Y69707D01*
X79852Y69823D01*
X79827Y69943D01*
X79817Y70004D01*
Y70069D01*
Y70074D01*
Y70084D01*
Y70104D01*
X79822Y70129D01*
Y70160D01*
X79827Y70200D01*
X79842Y70280D01*
X79868Y70371D01*
X79903Y70466D01*
X79953Y70562D01*
X80018Y70642D01*
X80028Y70652D01*
X80054Y70673D01*
X80099Y70708D01*
X80164Y70743D01*
X80240Y70778D01*
X80335Y70813D01*
X80446Y70833D01*
X80572Y70844D01*
X80607D01*
X80627Y70838D01*
X80657D01*
X80692Y70833D01*
X80773Y70818D01*
X80858Y70793D01*
X80949Y70753D01*
X81040Y70703D01*
X81125Y70632D01*
X81135Y70622D01*
X81145Y70612D01*
X81155Y70592D01*
X81175Y70567D01*
X81190Y70542D01*
X81211Y70507D01*
X81231Y70466D01*
X81251Y70421D01*
X81271Y70371D01*
X81291Y70315D01*
X81311Y70250D01*
X81326Y70180D01*
X81341Y70109D01*
X81351Y70024D01*
X81361Y69938D01*
X82468Y70049D01*
Y70054D01*
Y70059D01*
X82463Y70089D01*
X82458Y70134D01*
X82443Y70200D01*
X82428Y70275D01*
X82408Y70361D01*
X82388Y70456D01*
X82352Y70557D01*
X82317Y70662D01*
X82277Y70773D01*
X82227Y70879D01*
X82166Y70989D01*
X82101Y71095D01*
X82025Y71191D01*
X81940Y71281D01*
X81849Y71362D01*
X81844Y71367D01*
X81824Y71377D01*
X81794Y71397D01*
X81754Y71427D01*
X81704Y71457D01*
X81643Y71487D01*
X81573Y71528D01*
X81487Y71563D01*
X81402Y71598D01*
X81301Y71638D01*
X81190Y71668D01*
X81075Y71704D01*
X80954Y71729D01*
X80823Y71749D01*
X80687Y71759D01*
X80541Y71764D01*
X82599D01*
Y65944D01*
D02*
G37*
G36*
X100928Y70838D02*
X100978Y70828D01*
X101034Y70813D01*
X101094Y70788D01*
X101160Y70758D01*
X101220Y70713D01*
X101225Y70708D01*
X101245Y70688D01*
X101275Y70652D01*
X101310Y70607D01*
X101351Y70542D01*
X101391Y70461D01*
X101431Y70366D01*
X101466Y70250D01*
Y70245D01*
X101471Y70230D01*
X101476Y70205D01*
X101481Y70165D01*
X101491Y70119D01*
X101502Y70059D01*
X101512Y69989D01*
X101522Y69908D01*
X101532Y69812D01*
X101542Y69707D01*
X101552Y69586D01*
X101562Y69455D01*
X101567Y69309D01*
X101572Y69153D01*
X101577Y68982D01*
Y68796D01*
Y68791D01*
Y68786D01*
Y68771D01*
Y68751D01*
Y68701D01*
Y68630D01*
X101572Y68550D01*
Y68454D01*
X101567Y68349D01*
X101562Y68238D01*
X101552Y68007D01*
X101542Y67886D01*
X101537Y67775D01*
X101522Y67665D01*
X101512Y67564D01*
X101491Y67474D01*
X101476Y67393D01*
Y67388D01*
X101471Y67378D01*
X101466Y67358D01*
X101456Y67333D01*
X101446Y67302D01*
X101436Y67267D01*
X101406Y67187D01*
X101366Y67101D01*
X101321Y67016D01*
X101270Y66945D01*
X101245Y66910D01*
X101215Y66885D01*
X101210Y66880D01*
X101185Y66865D01*
X101154Y66845D01*
X101109Y66825D01*
X101059Y66799D01*
X100999Y66779D01*
X100933Y66764D01*
X100858Y66759D01*
X100822D01*
X100787Y66764D01*
X100737Y66774D01*
X100682Y66789D01*
X100621Y66815D01*
X100561Y66845D01*
X100501Y66885D01*
X100496Y66890D01*
X100475Y66910D01*
X100445Y66945D01*
X100410Y66991D01*
X100370Y67056D01*
X100324Y67137D01*
X100284Y67232D01*
X100249Y67348D01*
Y67353D01*
X100244Y67368D01*
X100239Y67393D01*
X100229Y67428D01*
X100224Y67479D01*
X100214Y67539D01*
X100204Y67609D01*
X100189Y67690D01*
X100179Y67785D01*
X100169Y67891D01*
X100159Y68007D01*
X100154Y68137D01*
X100143Y68283D01*
X100138Y68439D01*
X100133Y68610D01*
Y68796D01*
Y68801D01*
Y68806D01*
Y68822D01*
Y68842D01*
Y68892D01*
Y68962D01*
X100138Y69043D01*
Y69138D01*
X100143Y69244D01*
X100148Y69355D01*
X100159Y69586D01*
X100169Y69707D01*
X100179Y69817D01*
X100189Y69928D01*
X100204Y70029D01*
X100219Y70119D01*
X100239Y70200D01*
Y70205D01*
X100244Y70215D01*
X100249Y70235D01*
X100259Y70260D01*
X100269Y70290D01*
X100279Y70325D01*
X100309Y70406D01*
X100345Y70491D01*
X100390Y70577D01*
X100445Y70652D01*
X100470Y70688D01*
X100501Y70713D01*
X100506Y70718D01*
X100526Y70733D01*
X100561Y70753D01*
X100601Y70778D01*
X100656Y70803D01*
X100717Y70824D01*
X100782Y70838D01*
X100858Y70844D01*
X100893D01*
X100928Y70838D01*
D02*
G37*
G36*
X85154D02*
X85204Y70828D01*
X85260Y70813D01*
X85320Y70788D01*
X85385Y70758D01*
X85446Y70713D01*
X85451Y70708D01*
X85471Y70688D01*
X85501Y70652D01*
X85536Y70607D01*
X85577Y70542D01*
X85617Y70461D01*
X85657Y70366D01*
X85692Y70250D01*
Y70245D01*
X85697Y70230D01*
X85702Y70205D01*
X85707Y70165D01*
X85717Y70119D01*
X85728Y70059D01*
X85738Y69989D01*
X85748Y69908D01*
X85758Y69812D01*
X85768Y69707D01*
X85778Y69586D01*
X85788Y69455D01*
X85793Y69309D01*
X85798Y69153D01*
X85803Y68982D01*
Y68796D01*
Y68791D01*
Y68786D01*
Y68771D01*
Y68751D01*
Y68701D01*
Y68630D01*
X85798Y68550D01*
Y68454D01*
X85793Y68349D01*
X85788Y68238D01*
X85778Y68007D01*
X85768Y67886D01*
X85763Y67775D01*
X85748Y67665D01*
X85738Y67564D01*
X85717Y67474D01*
X85702Y67393D01*
Y67388D01*
X85697Y67378D01*
X85692Y67358D01*
X85682Y67333D01*
X85672Y67302D01*
X85662Y67267D01*
X85632Y67187D01*
X85592Y67101D01*
X85546Y67016D01*
X85496Y66945D01*
X85471Y66910D01*
X85441Y66885D01*
X85436Y66880D01*
X85411Y66865D01*
X85380Y66845D01*
X85335Y66825D01*
X85285Y66799D01*
X85224Y66779D01*
X85159Y66764D01*
X85084Y66759D01*
X85048D01*
X85013Y66764D01*
X84963Y66774D01*
X84908Y66789D01*
X84847Y66815D01*
X84787Y66845D01*
X84727Y66885D01*
X84721Y66890D01*
X84701Y66910D01*
X84671Y66945D01*
X84636Y66991D01*
X84596Y67056D01*
X84550Y67137D01*
X84510Y67232D01*
X84475Y67348D01*
Y67353D01*
X84470Y67368D01*
X84465Y67393D01*
X84455Y67428D01*
X84450Y67479D01*
X84440Y67539D01*
X84430Y67609D01*
X84415Y67690D01*
X84405Y67785D01*
X84395Y67891D01*
X84385Y68007D01*
X84379Y68137D01*
X84369Y68283D01*
X84364Y68439D01*
X84359Y68610D01*
Y68796D01*
Y68801D01*
Y68806D01*
Y68822D01*
Y68842D01*
Y68892D01*
Y68962D01*
X84364Y69043D01*
Y69138D01*
X84369Y69244D01*
X84374Y69355D01*
X84385Y69586D01*
X84395Y69707D01*
X84405Y69817D01*
X84415Y69928D01*
X84430Y70029D01*
X84445Y70119D01*
X84465Y70200D01*
Y70205D01*
X84470Y70215D01*
X84475Y70235D01*
X84485Y70260D01*
X84495Y70290D01*
X84505Y70325D01*
X84535Y70406D01*
X84571Y70491D01*
X84616Y70577D01*
X84671Y70652D01*
X84696Y70688D01*
X84727Y70713D01*
X84732Y70718D01*
X84752Y70733D01*
X84787Y70753D01*
X84827Y70778D01*
X84882Y70803D01*
X84943Y70824D01*
X85008Y70838D01*
X85084Y70844D01*
X85119D01*
X85154Y70838D01*
D02*
G37*
%LPC*%
G36*
X193805Y91099D02*
D01*
Y91040D01*
X193133D01*
Y90649D01*
X193129Y90653D01*
X193126Y90662D01*
X193116Y90676D01*
X193103Y90695D01*
X193090Y90715D01*
X193070Y90741D01*
X193031Y90797D01*
X192982Y90859D01*
X192929Y90918D01*
X192877Y90971D01*
X192850Y90994D01*
X192824Y91010D01*
X192818Y91013D01*
X192801Y91023D01*
X192772Y91040D01*
X192733Y91056D01*
X192686Y91069D01*
X192634Y91086D01*
X192575Y91095D01*
X192509Y91099D01*
X193805D01*
X192487D01*
X192467Y91095D01*
X192444D01*
X192418Y91092D01*
X192391Y91089D01*
X192359Y91082D01*
X192283Y91066D01*
X192204Y91040D01*
X192119Y91007D01*
X192031Y90961D01*
X192257Y90328D01*
X192260D01*
X192263Y90334D01*
X192273Y90338D01*
X192286Y90348D01*
X192323Y90367D01*
X192368Y90390D01*
X192421Y90410D01*
X192477Y90430D01*
X192539Y90443D01*
X192598Y90449D01*
X192624D01*
X192650Y90446D01*
X192686Y90439D01*
X192726Y90430D01*
X192772Y90413D01*
X192815Y90394D01*
X192857Y90364D01*
X192860Y90361D01*
X192874Y90348D01*
X192893Y90325D01*
X192916Y90295D01*
X192942Y90252D01*
X192972Y90200D01*
X192998Y90134D01*
X193021Y90059D01*
Y90056D01*
X193024Y90049D01*
X193028Y90036D01*
X193031Y90013D01*
X193034Y89987D01*
X193041Y89954D01*
X193044Y89911D01*
X193051Y89862D01*
X193057Y89806D01*
X193061Y89741D01*
X193067Y89665D01*
X193070Y89580D01*
X193074Y89488D01*
X193077Y89383D01*
X193080Y89268D01*
Y89144D01*
Y88298D01*
X193805D01*
Y91099D01*
D02*
G37*
G36*
X180298D02*
D01*
Y91040D01*
X179626D01*
Y90649D01*
X179622Y90653D01*
X179619Y90662D01*
X179609Y90676D01*
X179596Y90695D01*
X179583Y90715D01*
X179563Y90741D01*
X179524Y90797D01*
X179475Y90859D01*
X179422Y90918D01*
X179370Y90971D01*
X179343Y90994D01*
X179317Y91010D01*
X179311Y91013D01*
X179294Y91023D01*
X179265Y91040D01*
X179225Y91056D01*
X179180Y91069D01*
X179127Y91086D01*
X179068Y91095D01*
X179002Y91099D01*
X180298D01*
X178524D01*
D01*
X178979D01*
X178960Y91095D01*
X178937D01*
X178911Y91092D01*
X178884Y91089D01*
X178851Y91082D01*
X178776Y91066D01*
X178697Y91040D01*
X178612Y91007D01*
X178524Y90961D01*
X178750Y90328D01*
X178753D01*
X178756Y90334D01*
X178766Y90338D01*
X178779Y90348D01*
X178815Y90367D01*
X178861Y90390D01*
X178914Y90410D01*
X178970Y90430D01*
X179032Y90443D01*
X179091Y90449D01*
X179117D01*
X179143Y90446D01*
X179180Y90439D01*
X179219Y90430D01*
X179265Y90413D01*
X179307Y90394D01*
X179350Y90364D01*
X179353Y90361D01*
X179367Y90348D01*
X179386Y90325D01*
X179409Y90295D01*
X179435Y90252D01*
X179465Y90200D01*
X179491Y90134D01*
X179514Y90059D01*
Y90056D01*
X179517Y90049D01*
X179521Y90036D01*
X179524Y90013D01*
X179527Y89987D01*
X179534Y89954D01*
X179537Y89911D01*
X179544Y89862D01*
X179550Y89806D01*
X179553Y89741D01*
X179560Y89665D01*
X179563Y89580D01*
X179567Y89488D01*
X179570Y89383D01*
X179573Y89268D01*
Y89144D01*
Y88298D01*
X180298D01*
Y91099D01*
D02*
G37*
G36*
X190440D02*
D01*
Y89068D01*
X190436Y89085D01*
Y89104D01*
X190433Y89127D01*
X190427Y89183D01*
X190413Y89245D01*
X190394Y89314D01*
X190368Y89386D01*
X190331Y89455D01*
Y89459D01*
X190325Y89462D01*
X190318Y89472D01*
X190312Y89485D01*
X190286Y89518D01*
X190250Y89560D01*
X190207Y89603D01*
X190154Y89652D01*
X190092Y89695D01*
X190020Y89734D01*
X190017D01*
X190010Y89737D01*
X190000Y89744D01*
X189984Y89751D01*
X189961Y89761D01*
X189938Y89770D01*
X189908Y89780D01*
X189872Y89793D01*
X189833Y89806D01*
X189790Y89820D01*
X189744Y89833D01*
X189692Y89849D01*
X189636Y89862D01*
X189577Y89875D01*
X189512Y89892D01*
X189443Y89905D01*
X189436D01*
X189420Y89908D01*
X189393Y89915D01*
X189361Y89921D01*
X189318Y89931D01*
X189269Y89941D01*
X189216Y89951D01*
X189161Y89964D01*
X189046Y89990D01*
X188928Y90020D01*
X188872Y90036D01*
X188819Y90052D01*
X188774Y90069D01*
X188734Y90085D01*
Y90157D01*
Y90161D01*
Y90167D01*
Y90177D01*
Y90190D01*
X188741Y90226D01*
X188747Y90272D01*
X188760Y90321D01*
X188777Y90371D01*
X188803Y90413D01*
X188839Y90452D01*
X188842Y90456D01*
X188859Y90466D01*
X188885Y90482D01*
X188905Y90489D01*
X188924Y90499D01*
X188951Y90508D01*
X188980Y90515D01*
X189010Y90525D01*
X189046Y90531D01*
X189085Y90535D01*
X189131Y90541D01*
X189177Y90544D01*
X189262D01*
X189295Y90541D01*
X189341Y90535D01*
X189387Y90525D01*
X189439Y90512D01*
X189488Y90492D01*
X189531Y90466D01*
X189534Y90462D01*
X189548Y90452D01*
X189567Y90433D01*
X189594Y90403D01*
X189620Y90367D01*
X189649Y90321D01*
X189679Y90266D01*
X189705Y90200D01*
X190364Y90318D01*
Y90321D01*
X190358Y90334D01*
X190351Y90357D01*
X190345Y90384D01*
X190331Y90416D01*
X190315Y90452D01*
X190299Y90495D01*
X190276Y90541D01*
X190253Y90587D01*
X190223Y90636D01*
X190194Y90685D01*
X190158Y90735D01*
X190118Y90781D01*
X190079Y90826D01*
X190033Y90866D01*
X189984Y90905D01*
X189980Y90908D01*
X189971Y90915D01*
X189954Y90922D01*
X189931Y90935D01*
X189905Y90951D01*
X189869Y90968D01*
X189830Y90984D01*
X189780Y91004D01*
X189728Y91020D01*
X189666Y91036D01*
X189600Y91053D01*
X189528Y91069D01*
X189449Y91082D01*
X189364Y91089D01*
X189275Y91095D01*
X189177Y91099D01*
X190440D01*
X187865D01*
X189131D01*
X189098Y91095D01*
X189056D01*
X189010Y91092D01*
X188961Y91089D01*
X188905Y91086D01*
X188787Y91069D01*
X188669Y91049D01*
X188610Y91036D01*
X188554Y91023D01*
X188501Y91004D01*
X188455Y90984D01*
X188452D01*
X188445Y90977D01*
X188432Y90971D01*
X188416Y90964D01*
X188396Y90951D01*
X188373Y90938D01*
X188324Y90905D01*
X188268Y90863D01*
X188213Y90813D01*
X188160Y90754D01*
X188137Y90725D01*
X188118Y90692D01*
Y90689D01*
X188114Y90682D01*
X188108Y90672D01*
X188101Y90656D01*
X188094Y90636D01*
X188085Y90610D01*
X188078Y90580D01*
X188068Y90544D01*
X188058Y90502D01*
X188049Y90456D01*
X188042Y90403D01*
X188036Y90344D01*
X188029Y90279D01*
X188022Y90206D01*
X188019Y90128D01*
Y90043D01*
X188029Y89196D01*
Y89193D01*
Y89180D01*
Y89164D01*
Y89137D01*
Y89108D01*
X188026Y89072D01*
Y89036D01*
Y88993D01*
X188022Y88908D01*
X188016Y88819D01*
X188006Y88734D01*
X188003Y88698D01*
X187996Y88662D01*
Y88658D01*
X187993Y88655D01*
Y88645D01*
X187990Y88632D01*
X187980Y88596D01*
X187967Y88553D01*
X187947Y88498D01*
X187924Y88435D01*
X187898Y88370D01*
X187865Y88298D01*
D01*
X188583D01*
Y88301D01*
X188590Y88311D01*
X188596Y88327D01*
X188603Y88350D01*
X188613Y88383D01*
X188626Y88419D01*
X188639Y88462D01*
X188655Y88511D01*
Y88514D01*
X188659Y88521D01*
X188662Y88534D01*
X188665Y88547D01*
X188672Y88573D01*
X188678Y88586D01*
X188682Y88596D01*
X188685Y88593D01*
X188691Y88590D01*
X188701Y88580D01*
X188715Y88566D01*
X188731Y88550D01*
X188751Y88534D01*
X188800Y88494D01*
X188859Y88452D01*
X188928Y88406D01*
X189000Y88363D01*
X189078Y88324D01*
X189082D01*
X189088Y88320D01*
X189098Y88317D01*
X189115Y88311D01*
X189134Y88304D01*
X189157Y88294D01*
X189183Y88288D01*
X189213Y88281D01*
X189282Y88265D01*
X189357Y88248D01*
X189443Y88239D01*
X189531Y88235D01*
X187865D01*
X189570D01*
X189600Y88239D01*
X189636Y88242D01*
X189679Y88248D01*
X189725Y88255D01*
X189774Y88265D01*
X189826Y88275D01*
X189879Y88291D01*
X189935Y88311D01*
X189990Y88334D01*
X190046Y88360D01*
X190099Y88389D01*
X190148Y88425D01*
X190197Y88465D01*
X190200Y88468D01*
X190207Y88475D01*
X190220Y88488D01*
X190236Y88507D01*
X190253Y88530D01*
X190272Y88557D01*
X190295Y88586D01*
X190318Y88622D01*
X190341Y88665D01*
X190364Y88708D01*
X190384Y88757D01*
X190400Y88806D01*
X190417Y88862D01*
X190430Y88921D01*
X190436Y88980D01*
X190440Y89045D01*
Y88235D01*
X190440D01*
X190440D01*
Y91099D01*
D02*
G37*
G36*
X185923Y90033D02*
X184500D01*
Y89308D01*
X185923D01*
Y90033D01*
D02*
G37*
G36*
X191716Y92079D02*
X190991D01*
Y91407D01*
X191716D01*
Y91040D01*
X190991D01*
Y88298D01*
X191716D01*
Y92079D01*
D02*
G37*
G36*
X187307D02*
X186583D01*
Y88298D01*
X187307D01*
Y92079D01*
D02*
G37*
G36*
X184067D02*
X181069D01*
Y88298D01*
X181836D01*
X183358Y90767D01*
Y88298D01*
X184067D01*
Y92079D01*
D02*
G37*
G36*
X178212Y89022D02*
X177487D01*
Y88298D01*
X178212D01*
Y89022D01*
D02*
G37*
G36*
X196924Y91099D02*
X194366D01*
D01*
X195645D01*
X195612Y91095D01*
X195570Y91092D01*
X195517Y91086D01*
X195458Y91076D01*
X195393Y91066D01*
X195320Y91049D01*
X195245Y91027D01*
X195166Y91000D01*
X195088Y90968D01*
X195006Y90928D01*
X194927Y90882D01*
X194848Y90826D01*
X194776Y90764D01*
X194707Y90692D01*
X194704Y90689D01*
X194691Y90672D01*
X194674Y90649D01*
X194651Y90617D01*
X194625Y90574D01*
X194596Y90521D01*
X194563Y90459D01*
X194530Y90387D01*
X194500Y90305D01*
X194468Y90213D01*
X194438Y90111D01*
X194415Y90003D01*
X194392Y89882D01*
X194376Y89751D01*
X194366Y89610D01*
Y89459D01*
X196180D01*
Y89455D01*
Y89446D01*
X196177Y89429D01*
Y89406D01*
X196173Y89377D01*
X196170Y89347D01*
X196163Y89311D01*
X196157Y89275D01*
X196134Y89193D01*
X196104Y89108D01*
X196085Y89068D01*
X196062Y89026D01*
X196035Y88990D01*
X196006Y88954D01*
X196003Y88950D01*
X195999Y88947D01*
X195990Y88937D01*
X195976Y88927D01*
X195960Y88914D01*
X195940Y88898D01*
X195891Y88865D01*
X195832Y88832D01*
X195760Y88803D01*
X195678Y88783D01*
X195635Y88780D01*
X195589Y88776D01*
X195560D01*
X195530Y88783D01*
X195491Y88790D01*
X195445Y88799D01*
X195396Y88816D01*
X195350Y88839D01*
X195304Y88868D01*
X195297Y88872D01*
X195284Y88885D01*
X195265Y88908D01*
X195238Y88940D01*
X195209Y88983D01*
X195179Y89036D01*
X195153Y89098D01*
X195127Y89170D01*
X194405Y89049D01*
Y89045D01*
X194412Y89032D01*
X194422Y89009D01*
X194431Y88983D01*
X194448Y88950D01*
X194464Y88911D01*
X194487Y88868D01*
X194513Y88822D01*
X194543Y88773D01*
X194576Y88724D01*
X194612Y88675D01*
X194651Y88626D01*
X194694Y88573D01*
X194743Y88527D01*
X194792Y88481D01*
X194848Y88442D01*
X194851Y88439D01*
X194861Y88432D01*
X194878Y88422D01*
X194901Y88409D01*
X194930Y88393D01*
X194966Y88376D01*
X195009Y88357D01*
X195055Y88340D01*
X195107Y88320D01*
X195163Y88301D01*
X195225Y88284D01*
X195291Y88268D01*
X195363Y88255D01*
X195439Y88245D01*
X195517Y88239D01*
X195599Y88235D01*
X195629D01*
X195648Y88239D01*
X195668D01*
X195717Y88242D01*
X195776Y88248D01*
X195842Y88261D01*
X195917Y88275D01*
X195999Y88294D01*
X196081Y88317D01*
X196170Y88350D01*
X196258Y88386D01*
X196344Y88432D01*
X196429Y88485D01*
X196511Y88547D01*
X196587Y88619D01*
X196655Y88701D01*
X196659Y88704D01*
X196665Y88717D01*
X196682Y88740D01*
X196698Y88770D01*
X196718Y88806D01*
X196741Y88849D01*
X196764Y88901D01*
X196790Y88960D01*
X196816Y89026D01*
X196839Y89095D01*
X196862Y89173D01*
X196882Y89259D01*
X196898Y89347D01*
X196911Y89442D01*
X196921Y89541D01*
X196924Y89646D01*
Y88235D01*
D01*
Y91099D01*
D02*
G37*
G36*
X200427Y92145D02*
X197351D01*
X198863D01*
X198843Y92142D01*
X198794D01*
X198735Y92135D01*
X198666Y92129D01*
X198591Y92119D01*
X198509Y92106D01*
X198423Y92089D01*
X198335Y92070D01*
X198246Y92043D01*
X198158Y92014D01*
X198072Y91978D01*
X197987Y91935D01*
X197912Y91886D01*
X197839Y91830D01*
X197836Y91827D01*
X197823Y91817D01*
X197807Y91797D01*
X197784Y91774D01*
X197754Y91742D01*
X197725Y91706D01*
X197692Y91660D01*
X197656Y91610D01*
X197623Y91551D01*
X197587Y91489D01*
X197557Y91420D01*
X197528Y91348D01*
X197502Y91269D01*
X197482Y91184D01*
X197466Y91092D01*
X197459Y90997D01*
X198223Y90964D01*
Y90968D01*
X198226Y90977D01*
X198230Y90994D01*
X198233Y91013D01*
X198240Y91036D01*
X198246Y91063D01*
X198269Y91125D01*
X198295Y91194D01*
X198335Y91266D01*
X198381Y91328D01*
X198407Y91358D01*
X198436Y91384D01*
X198440D01*
X198443Y91391D01*
X198453Y91397D01*
X198466Y91404D01*
X198482Y91414D01*
X198505Y91423D01*
X198528Y91436D01*
X198558Y91450D01*
X198587Y91460D01*
X198623Y91473D01*
X198663Y91482D01*
X198709Y91492D01*
X198755Y91499D01*
X198807Y91505D01*
X198860Y91512D01*
X198951D01*
X198974Y91509D01*
X199001D01*
X199033Y91505D01*
X199069Y91502D01*
X199109Y91496D01*
X199191Y91479D01*
X199279Y91453D01*
X199361Y91420D01*
X199404Y91397D01*
X199440Y91374D01*
X199447Y91371D01*
X199460Y91358D01*
X199476Y91338D01*
X199499Y91312D01*
X199522Y91279D01*
X199539Y91237D01*
X199552Y91190D01*
X199558Y91138D01*
Y91132D01*
X199555Y91115D01*
X199552Y91092D01*
X199545Y91059D01*
X199532Y91023D01*
X199512Y90984D01*
X199483Y90944D01*
X199447Y90908D01*
X199443D01*
X199440Y90902D01*
X199430Y90895D01*
X199414Y90889D01*
X199397Y90876D01*
X199371Y90863D01*
X199342Y90849D01*
X199306Y90833D01*
X199263Y90813D01*
X199211Y90794D01*
X199155Y90774D01*
X199089Y90751D01*
X199017Y90728D01*
X198935Y90705D01*
X198843Y90679D01*
X198745Y90656D01*
X198738D01*
X198722Y90649D01*
X198692Y90643D01*
X198653Y90633D01*
X198607Y90620D01*
X198555Y90607D01*
X198495Y90590D01*
X198433Y90574D01*
X198299Y90531D01*
X198161Y90485D01*
X198095Y90462D01*
X198033Y90436D01*
X197974Y90410D01*
X197921Y90384D01*
X197918D01*
X197908Y90377D01*
X197895Y90371D01*
X197875Y90357D01*
X197856Y90344D01*
X197830Y90328D01*
X197767Y90282D01*
X197702Y90229D01*
X197629Y90164D01*
X197564Y90085D01*
X197502Y90000D01*
X197498Y89997D01*
X197495Y89990D01*
X197488Y89974D01*
X197479Y89957D01*
X197466Y89934D01*
X197452Y89905D01*
X197439Y89872D01*
X197426Y89833D01*
X197413Y89793D01*
X197400Y89747D01*
X197387Y89698D01*
X197374Y89646D01*
X197364Y89587D01*
X197357Y89528D01*
X197351Y89465D01*
Y89367D01*
X197354Y89344D01*
X197357Y89314D01*
X197361Y89282D01*
X197367Y89242D01*
X197374Y89203D01*
X197383Y89157D01*
X197397Y89108D01*
X197429Y89006D01*
X197449Y88954D01*
X197472Y88898D01*
X197502Y88842D01*
X197534Y88790D01*
X197538Y88786D01*
X197544Y88776D01*
X197554Y88763D01*
X197567Y88744D01*
X197587Y88721D01*
X197610Y88694D01*
X197636Y88665D01*
X197666Y88632D01*
X197702Y88599D01*
X197738Y88563D01*
X197780Y88527D01*
X197826Y88494D01*
X197875Y88458D01*
X197928Y88429D01*
X197987Y88396D01*
X198046Y88370D01*
X198049D01*
X198063Y88363D01*
X198079Y88357D01*
X198105Y88347D01*
X198138Y88337D01*
X198177Y88327D01*
X198220Y88314D01*
X198272Y88301D01*
X198328Y88288D01*
X198390Y88275D01*
X198459Y88265D01*
X198531Y88255D01*
X198607Y88245D01*
X198689Y88239D01*
X198774Y88235D01*
X198866Y88232D01*
X198915D01*
X198935Y88235D01*
X198984Y88239D01*
X199043Y88242D01*
X199112Y88248D01*
X199191Y88258D01*
X199273Y88275D01*
X199361Y88291D01*
X199450Y88314D01*
X199545Y88340D01*
X199637Y88373D01*
X199725Y88409D01*
X199814Y88455D01*
X199896Y88504D01*
X199971Y88563D01*
X199975Y88566D01*
X199988Y88580D01*
X200008Y88599D01*
X200034Y88626D01*
X200063Y88658D01*
X200096Y88701D01*
X200132Y88750D01*
X200171Y88809D01*
X200211Y88872D01*
X200250Y88944D01*
X200290Y89026D01*
X200326Y89111D01*
X200359Y89206D01*
X200388Y89308D01*
X200411Y89416D01*
X200427Y89531D01*
X199683Y89603D01*
Y89600D01*
X199680Y89587D01*
X199676Y89567D01*
X199670Y89541D01*
X199660Y89511D01*
X199650Y89475D01*
X199640Y89436D01*
X199624Y89393D01*
X199588Y89301D01*
X199542Y89213D01*
X199483Y89124D01*
X199450Y89088D01*
X199414Y89052D01*
X199410Y89049D01*
X199404Y89045D01*
X199391Y89036D01*
X199374Y89026D01*
X199355Y89013D01*
X199328Y88996D01*
X199299Y88980D01*
X199266Y88967D01*
X199230Y88950D01*
X199188Y88934D01*
X199142Y88917D01*
X199092Y88904D01*
X199040Y88894D01*
X198984Y88885D01*
X198922Y88881D01*
X198860Y88878D01*
X198823D01*
X198797Y88881D01*
X198768D01*
X198732Y88888D01*
X198692Y88891D01*
X198650Y88898D01*
X198561Y88917D01*
X198469Y88944D01*
X198381Y88983D01*
X198338Y89006D01*
X198302Y89032D01*
X198299Y89036D01*
X198295Y89039D01*
X198285Y89049D01*
X198272Y89062D01*
X198243Y89095D01*
X198207Y89137D01*
X198174Y89190D01*
X198144Y89252D01*
X198131Y89285D01*
X198122Y89321D01*
X198118Y89357D01*
X198115Y89396D01*
Y89403D01*
Y89419D01*
X198118Y89446D01*
X198125Y89475D01*
X198135Y89511D01*
X198148Y89551D01*
X198167Y89590D01*
X198194Y89626D01*
X198197Y89629D01*
X198210Y89642D01*
X198230Y89659D01*
X198256Y89682D01*
X198295Y89708D01*
X198345Y89734D01*
X198400Y89764D01*
X198469Y89790D01*
X198476Y89793D01*
X198486Y89797D01*
X198499Y89800D01*
X198515Y89803D01*
X198538Y89810D01*
X198564Y89820D01*
X198597Y89829D01*
X198633Y89839D01*
X198679Y89849D01*
X198728Y89862D01*
X198784Y89878D01*
X198846Y89895D01*
X198918Y89915D01*
X198997Y89934D01*
X199083Y89954D01*
X199086D01*
X199089Y89957D01*
X199109Y89960D01*
X199142Y89970D01*
X199181Y89980D01*
X199233Y89997D01*
X199289Y90013D01*
X199352Y90033D01*
X199420Y90059D01*
X199561Y90111D01*
X199703Y90177D01*
X199771Y90210D01*
X199834Y90249D01*
X199893Y90289D01*
X199942Y90328D01*
X199945Y90331D01*
X199958Y90341D01*
X199975Y90361D01*
X199998Y90384D01*
X200024Y90413D01*
X200053Y90449D01*
X200083Y90492D01*
X200116Y90541D01*
X200149Y90594D01*
X200178Y90649D01*
X200208Y90715D01*
X200234Y90781D01*
X200257Y90853D01*
X200273Y90928D01*
X200286Y91007D01*
X200290Y91089D01*
Y91092D01*
Y91102D01*
Y91118D01*
X200286Y91138D01*
X200283Y91164D01*
X200280Y91194D01*
X200276Y91227D01*
X200270Y91266D01*
X200250Y91348D01*
X200221Y91436D01*
X200204Y91486D01*
X200181Y91532D01*
X200158Y91581D01*
X200129Y91627D01*
X200126Y91630D01*
X200122Y91637D01*
X200113Y91650D01*
X200099Y91669D01*
X200083Y91689D01*
X200060Y91715D01*
X200037Y91742D01*
X200008Y91771D01*
X199978Y91801D01*
X199942Y91830D01*
X199902Y91863D01*
X199860Y91896D01*
X199814Y91925D01*
X199765Y91958D01*
X199712Y91984D01*
X199656Y92010D01*
X199653D01*
X199643Y92017D01*
X199624Y92024D01*
X199601Y92030D01*
X199571Y92043D01*
X199535Y92053D01*
X199496Y92066D01*
X199447Y92079D01*
X199397Y92089D01*
X199338Y92102D01*
X199279Y92115D01*
X199214Y92125D01*
X199142Y92132D01*
X199069Y92138D01*
X198991Y92145D01*
X200427D01*
Y88232D01*
D01*
Y92145D01*
D02*
G37*
%LPD*%
G36*
X188741Y89610D02*
X188751D01*
X188760Y89603D01*
X188777Y89600D01*
X188793Y89593D01*
X188816Y89587D01*
X188842Y89580D01*
X188872Y89574D01*
X188905Y89564D01*
X188941Y89554D01*
X188980Y89544D01*
X189026Y89534D01*
X189072Y89521D01*
X189125Y89511D01*
X189180Y89498D01*
X189183D01*
X189193Y89495D01*
X189210Y89491D01*
X189229Y89488D01*
X189252Y89482D01*
X189282Y89475D01*
X189341Y89459D01*
X189410Y89439D01*
X189472Y89419D01*
X189502Y89410D01*
X189531Y89396D01*
X189554Y89386D01*
X189574Y89373D01*
X189580Y89370D01*
X189597Y89357D01*
X189620Y89334D01*
X189643Y89305D01*
X189669Y89268D01*
X189692Y89223D01*
X189708Y89173D01*
X189712Y89147D01*
X189715Y89118D01*
Y89111D01*
X189712Y89091D01*
X189708Y89065D01*
X189702Y89029D01*
X189689Y88986D01*
X189669Y88944D01*
X189639Y88898D01*
X189603Y88855D01*
X189597Y88852D01*
X189584Y88839D01*
X189557Y88822D01*
X189525Y88803D01*
X189482Y88780D01*
X189433Y88763D01*
X189374Y88750D01*
X189311Y88747D01*
X189292D01*
X189279Y88750D01*
X189259D01*
X189239Y88753D01*
X189190Y88763D01*
X189134Y88780D01*
X189072Y88799D01*
X189003Y88832D01*
X188937Y88875D01*
X188931Y88878D01*
X188918Y88891D01*
X188895Y88914D01*
X188865Y88940D01*
X188836Y88977D01*
X188810Y89016D01*
X188783Y89065D01*
X188764Y89114D01*
Y89118D01*
X188760Y89134D01*
X188754Y89157D01*
X188747Y89193D01*
Y89216D01*
X188744Y89242D01*
X188741Y89272D01*
X188737Y89301D01*
Y89337D01*
X188734Y89377D01*
Y89423D01*
Y89468D01*
Y89613D01*
X188741Y89610D01*
D02*
G37*
G36*
X181777Y89551D02*
Y92079D01*
X183325D01*
X181777Y89551D01*
D02*
G37*
G36*
X195665Y90541D02*
X195685Y90538D01*
X195707Y90535D01*
X195763Y90521D01*
X195826Y90502D01*
X195891Y90472D01*
X195924Y90452D01*
X195953Y90430D01*
X195986Y90400D01*
X196016Y90371D01*
Y90367D01*
X196022Y90364D01*
X196029Y90354D01*
X196039Y90338D01*
X196052Y90321D01*
X196065Y90302D01*
X196078Y90275D01*
X196091Y90246D01*
X196108Y90216D01*
X196121Y90180D01*
X196134Y90141D01*
X196147Y90098D01*
X196163Y90006D01*
X196167Y89954D01*
X196170Y89902D01*
X195084D01*
Y89905D01*
Y89915D01*
X195088Y89931D01*
Y89954D01*
X195091Y89980D01*
X195094Y90010D01*
X195101Y90043D01*
X195107Y90079D01*
X195127Y90157D01*
X195156Y90236D01*
X195196Y90311D01*
X195222Y90348D01*
X195248Y90380D01*
X195252Y90384D01*
X195255Y90387D01*
X195265Y90397D01*
X195274Y90407D01*
X195307Y90433D01*
X195353Y90462D01*
X195409Y90492D01*
X195471Y90518D01*
X195547Y90538D01*
X195583Y90541D01*
X195625Y90544D01*
X195648D01*
X195665Y90541D01*
D02*
G37*
G36*
X196924Y89675D02*
X196921Y89711D01*
X196918Y89757D01*
X196915Y89816D01*
X196905Y89882D01*
X196895Y89954D01*
X196878Y90033D01*
X196862Y90118D01*
X196839Y90203D01*
X196809Y90292D01*
X196773Y90380D01*
X196734Y90469D01*
X196688Y90554D01*
X196632Y90636D01*
X196570Y90712D01*
X196567Y90715D01*
X196554Y90728D01*
X196534Y90748D01*
X196504Y90771D01*
X196472Y90800D01*
X196429Y90833D01*
X196380Y90869D01*
X196324Y90905D01*
X196262Y90941D01*
X196193Y90977D01*
X196121Y91010D01*
X196039Y91040D01*
X195957Y91063D01*
X195865Y91082D01*
X195770Y91095D01*
X195671Y91099D01*
X196924D01*
Y89675D01*
D02*
G37*
D15*
X175984Y60236D02*
Y86221D01*
X201969D01*
Y60236D02*
Y86221D01*
X175984Y60236D02*
X201969D01*
D96*
X147011Y16238D02*
X147031Y16811D01*
X120952Y54086D02*
X120780Y54500D01*
X118629Y9487D02*
X120076Y9738D01*
X118897Y10943D02*
X119493Y11286D01*
X119856Y12041D01*
X119198Y31570D02*
X119612Y31740D01*
X119783Y32153D01*
X120366Y54671D02*
X119783Y54086D01*
X118041Y9504D02*
X118217Y9494D01*
X117450Y10881D02*
X117484Y10877D01*
X117484D02*
X117550Y10870D01*
Y10870D02*
X117582Y10868D01*
X111921Y22269D02*
X110805Y22941D01*
X108703Y21959D02*
X108287Y21926D01*
X109757Y23258D02*
X108839Y23334D01*
X105909Y19606D02*
X105783Y20323D01*
X105687Y20653D02*
X105570Y20963D01*
X105783Y20323D02*
X105687Y20653D01*
X103809Y9599D02*
X104504Y9912D01*
X105125Y10354D01*
X104356Y16634D02*
X103491Y17091D01*
X104540Y19606D02*
X104189Y20621D01*
X103425Y21376D01*
X104420Y22416D02*
X103858Y22748D01*
X105273Y21525D02*
X104420Y22416D01*
X103858Y22748D02*
X103540Y22885D01*
X102052Y10735D02*
X102343Y10768D01*
X101428Y10708D02*
X101747Y10715D01*
X101747Y10715D02*
X102052Y10735D01*
X102620Y10814D02*
X102883Y10874D01*
X102883Y10874D02*
X103368Y11032D01*
X102420Y16109D02*
X102017Y16221D01*
X102017D02*
X101582Y16316D01*
X103136Y15835D02*
X102793Y15981D01*
X102420Y16109D01*
X102468Y17447D02*
X101898Y17587D01*
X101898Y17587D02*
X101288Y17702D01*
X102999Y17282D02*
X102468Y17447D01*
X102434Y23188D02*
X102015Y23252D01*
X102245Y21813D02*
X101952Y21866D01*
X102015Y23252D02*
X101571Y23298D01*
X101952Y21866D02*
X101641Y21907D01*
Y21907D02*
X101311Y21936D01*
X102827Y23106D02*
X102434Y23188D01*
X103196Y23005D02*
X102827Y23106D01*
X103009Y21586D02*
X102773Y21674D01*
X102773Y21674D02*
X102518Y21749D01*
X102518Y21749D02*
X102245Y21813D01*
X101292Y30943D02*
X102348Y30385D01*
X102226Y31634D02*
X102348Y31570D01*
X102189Y37606D02*
X102602Y37434D01*
X102019Y38019D02*
X102189Y37606D01*
X103016Y37606D02*
X103188Y38019D01*
X102602Y37434D02*
X103016Y37606D01*
X102019Y53043D02*
X101848Y53457D01*
X102738Y54335D02*
X101651Y54785D01*
X99574Y9738D02*
X100865Y9420D01*
X101117Y16393D02*
X100621Y16453D01*
Y16453D02*
X100095Y16496D01*
X100639Y17790D02*
X99951Y17854D01*
X99951Y17854D02*
X99223Y17892D01*
X101102Y23325D02*
X100609Y23334D01*
X97711Y12245D02*
X98793Y11481D01*
X95783Y30557D02*
X95955Y30971D01*
X95783Y31385D02*
X95369Y31556D01*
X95955Y30971D02*
X95783Y31385D01*
X95369Y30385D02*
X95783Y30557D01*
X86163Y53545D02*
X86176Y53383D01*
X85201Y54785D02*
X84486Y54376D01*
X80123Y32139D02*
X80295Y31726D01*
X80709Y31556D01*
X78955Y31938D02*
X79399Y30843D01*
X78955Y53034D02*
X78372Y53620D01*
X79673Y54335D02*
X78587Y54785D01*
X59005Y30385D02*
X60091Y30837D01*
X60541Y31924D01*
X58787Y31567D02*
X59201Y31737D01*
X59201Y31737D02*
X59373Y32150D01*
X58140Y22218D02*
X56908Y22921D01*
X55765Y23247D02*
X54736Y23334D01*
X52689Y21092D02*
X52154Y19977D01*
X53245Y23140D02*
X52624Y22898D01*
X52165Y30982D02*
X52332Y30562D01*
X52748Y31567D02*
X52165Y30982D01*
X52332Y30562D02*
X52748Y30385D01*
X50968Y20960D02*
X50761Y20234D01*
X50761Y20234D02*
X50637Y19411D01*
X42911Y22941D02*
X41871Y23258D01*
X41308Y21959D02*
X40053Y21753D01*
X36263Y22090D02*
X35084Y22837D01*
X33057Y21953D02*
X32768Y21945D01*
X30952Y21117D02*
X30839Y20938D01*
X30737Y20739D01*
X30737Y20739D02*
X30648Y20517D01*
X32703Y23334D02*
X31361Y23140D01*
X31580Y21652D02*
X31395Y21544D01*
X31361Y23140D02*
X30802Y22898D01*
X32496Y21920D02*
X32241Y21878D01*
X32003Y21820D01*
Y21820D02*
X31783Y21744D01*
X31783D02*
X31580Y21652D01*
X30379Y19091D02*
X30355Y18371D01*
X29126Y20234D02*
X29015Y19411D01*
X30504Y20011D02*
X30451Y19725D01*
X29312Y20960D02*
X29126Y20234D01*
X30570Y20275D02*
X30504Y20011D01*
X30451Y19725D02*
X30409Y19419D01*
X147031Y16811D02*
X147041Y17376D01*
X144702Y10639D02*
X145405Y11279D01*
X145965Y12047D01*
X145257Y14119D02*
X145444Y14980D01*
X145572Y15853D01*
X145640Y16733D01*
X145648Y17615D01*
X133951D02*
X133957Y16735D01*
X134023Y15858D01*
X134147Y14987D01*
X134330Y14127D01*
X132557Y17559D02*
X132585Y16396D01*
X132694Y15238D01*
X132886Y14091D01*
X121286Y11729D02*
X121355Y12600D01*
X121373Y13474D01*
X120913Y10485D02*
X121286Y11729D01*
X119856Y12041D02*
X119979Y13357D01*
X113089Y19213D02*
X112344Y20216D01*
X111410Y21092D02*
X110354Y21719D01*
X106001Y11542D02*
X106246Y12293D01*
X106322Y13078D01*
X103991Y11369D02*
X104698Y12171D01*
X104928Y13215D01*
X102343Y10768D02*
X102620Y10814D01*
X103226Y21487D02*
X103009Y21586D01*
X103188Y53249D02*
X102738Y54335D01*
X101848Y53457D02*
X101434Y53628D01*
X98567Y21650D02*
X97452Y20799D01*
X96632Y22004D02*
X96093Y21275D01*
X95740Y20439D01*
X95740D02*
X95525Y19415D01*
X95461Y18371D01*
X96967Y19519D02*
X96887Y18714D01*
X96864Y17905D01*
X84486Y54376D02*
X84582Y53559D01*
X73498Y12125D02*
X74056Y12962D01*
X74432Y13895D01*
Y18808D02*
X74057Y19733D01*
X73498Y20559D01*
X65920Y13895D02*
X66302Y12962D01*
X66862Y12125D01*
X66862Y20559D02*
X66300Y19733D01*
X65920Y18808D01*
X59823Y54335D02*
X59373Y53249D01*
X53660Y21744D02*
X52689Y21092D01*
X50637Y19411D02*
X50595Y18490D01*
X45378Y21014D02*
X44756Y21662D01*
X44071Y22243D01*
X40053Y21753D02*
X39216Y21117D01*
X38773Y20002D02*
X38671Y19189D01*
X38645Y18371D01*
X31395Y21544D02*
X30952Y21117D01*
X29572Y21590D02*
X29312Y20960D01*
X29015Y19411D02*
X28978Y18490D01*
X30409Y19419D02*
X30379Y19091D01*
X146676Y13764D02*
X146875Y14702D01*
X146980Y15655D01*
X144114Y12013D02*
X144819Y12993D01*
X145257Y14118D01*
X134330Y14127D02*
X134758Y13005D01*
X135445Y12022D01*
X104928Y13215D02*
X104759Y14203D01*
X104242Y15061D01*
X103447Y15672D01*
X38698Y22734D02*
X37871Y21929D01*
X37362Y20894D01*
X75690Y13380D02*
X75927Y14353D01*
X76070Y15345D01*
X76118Y16346D01*
X76070Y17347D01*
X75927Y18339D01*
X75690Y19313D01*
X74432Y13895D02*
X74642Y14867D01*
X74748Y15855D01*
X74748Y16849D01*
X74642Y17837D01*
X74432Y18808D01*
X65920Y18808D02*
X65702Y17838D01*
X65593Y16849D01*
Y15855D01*
X65702Y14866D01*
X65920Y13895D01*
X64595Y19288D02*
X64361Y18319D01*
X64220Y17333D01*
X64173Y16338D01*
X64220Y15343D01*
X64361Y14356D01*
X64595Y13388D01*
X142700Y9685D02*
X143745Y10071D01*
X144702Y10639D01*
X139801Y9334D02*
X140777Y9360D01*
X141746Y9478D01*
X142700Y9685D01*
X142277Y10982D02*
X143266Y11371D01*
X144114Y12013D01*
X135445Y12022D02*
X136289Y11370D01*
X137283Y10982D01*
X120076Y9738D02*
X120913Y10485D01*
X118091Y10864D02*
X118897Y10943D01*
X119415Y30385D02*
X120502Y30837D01*
X120952Y31924D01*
X120780Y54500D02*
X120366Y54671D01*
X112344Y20216D02*
X111410Y21092D01*
X110805Y22941D02*
X109757Y23258D01*
X110354Y21719D02*
X109208Y21959D01*
X102164Y9334D02*
X102998Y9397D01*
X103809Y9599D01*
X98250Y10374D02*
X99574Y9738D01*
X100865Y9420D02*
X102164Y9334D01*
X98793Y11481D02*
X100051Y10923D01*
X103368Y11032D02*
X103991Y11369D01*
X100095Y16496D02*
X98949Y16530D01*
X101582Y16316D02*
X101117Y16393D01*
X103447Y15672D02*
X103136Y15835D01*
X101288Y17702D02*
X100639Y17790D01*
X99223Y17892D02*
X98456Y17905D01*
X97452Y20799D02*
X96967Y19519D01*
X103425Y21376D02*
X103226Y21487D01*
X98227Y22991D02*
X97371Y22592D01*
X96632Y22004D01*
X100609Y23334D02*
X99404Y23262D01*
X98227Y22991D01*
X100595Y21959D02*
X99566Y21901D01*
X98567Y21650D01*
X101571Y23298D02*
X101102Y23325D01*
X101311Y21936D02*
X100595Y21959D01*
X103540Y22885D02*
X103196Y23005D01*
X79399Y30843D02*
X80488Y30385D01*
X72051Y11060D02*
X72839Y11505D01*
X73498Y12125D01*
X66862Y12125D02*
X67522Y11505D01*
X68309Y11060D01*
X70172Y23334D02*
X69326Y23287D01*
X68493Y23128D01*
X67690Y22857D01*
X59437Y19399D02*
X58790Y20095D01*
X58080Y20727D01*
X57315Y21290D01*
X55123Y21959D02*
X53660Y21744D01*
X54736Y23334D02*
X53984Y23290D01*
X53245Y23140D01*
X56908Y22921D02*
X55765Y23247D01*
X61124Y53620D02*
X60541Y53034D01*
X60909Y54785D02*
X59823Y54335D01*
X39216Y21117D02*
X38773Y20002D01*
X40928Y23334D02*
X39768Y23200D01*
X38698Y22734D01*
X41871Y23258D02*
X40928Y23334D01*
X44071Y22243D02*
X42911Y22941D01*
X30648Y20517D02*
X30570Y20275D01*
X33880Y23222D02*
X32703Y23334D01*
X30802Y22898D02*
X30088Y22337D01*
X29572Y21590D01*
X32768Y21945D02*
X32496Y21920D01*
X35084Y22837D02*
X33880Y23222D01*
X139792Y10703D02*
X140627Y10728D01*
X141457Y10821D01*
X142277Y10982D01*
X145965Y12047D02*
X146378Y12882D01*
X146676Y13764D01*
X134029Y11503D02*
X134668Y10833D01*
X135418Y10290D01*
X136254Y9891D01*
X105125Y10354D02*
X106001Y11542D01*
X105570Y20963D02*
X105273Y21525D01*
X96855Y11394D02*
X97529Y10852D01*
X98250Y10374D01*
X100051Y10923D02*
X101428Y10708D01*
X96855Y13062D02*
X97711Y12245D01*
X103491Y17091D02*
X102999Y17282D01*
X80123Y53249D02*
X79673Y54335D01*
X86302Y53628D02*
X86163Y53545D01*
X72597Y9805D02*
X73617Y10378D01*
X74477Y11171D01*
X74978Y11851D01*
X75384Y12592D01*
X75690Y13380D01*
X73498Y20559D02*
X72836Y21168D01*
X72051Y21608D01*
X75690Y19313D02*
X75389Y20096D01*
X74985Y20831D01*
X74485Y21505D01*
X68309Y11060D02*
X69223Y10791D01*
X70172Y10708D01*
X65797Y11180D02*
X66663Y10384D01*
X67687Y9805D01*
X64595Y13388D02*
X64896Y12600D01*
X65299Y11860D01*
X65797Y11180D01*
X65803Y21482D02*
X65302Y20808D01*
X64897Y20072D01*
X64595Y19288D01*
X68309Y21608D02*
X67524Y21168D01*
X66862Y20559D01*
X59429Y21014D02*
X58816Y21650D01*
X58140Y22218D01*
X57315Y21290D02*
X56268Y21785D01*
X55123Y21959D01*
X52154Y19977D02*
X52025Y19178D01*
X51989Y18371D01*
X43388Y21282D02*
X42400Y21781D01*
X41308Y21959D01*
X37362Y20894D02*
X36852Y21528D01*
X36263Y22090D01*
X35215Y21276D02*
X34186Y21773D01*
X33057Y21953D01*
X132886Y14091D02*
X133135Y13174D01*
X133519Y12305D01*
X134029Y11503D01*
X74485Y21505D02*
X73620Y22296D01*
X72597Y22871D01*
X67690Y22857D02*
X66667Y22279D01*
X65803Y21482D01*
X52624Y22898D02*
X51908Y22405D01*
X51344Y21744D01*
X50968Y20960D01*
X136254Y9891D02*
X137117Y9629D01*
X138001Y9447D01*
X138898Y9349D01*
X139801Y9334D01*
X67687Y9805D02*
X68647Y9508D01*
X69640Y9357D01*
X70645D01*
X71638Y9508D01*
X72598Y9805D01*
X72051Y21608D02*
X71132Y21870D01*
X70180Y21959D01*
X69228Y21870D01*
X68309Y21608D01*
X72597Y22871D02*
X71408Y23224D01*
X70172Y23334D01*
X137283Y10982D02*
X138111Y10822D01*
X138949Y10729D01*
X139792Y10703D01*
X113089Y21153D02*
X112536Y21744D01*
X111920Y22269D01*
X70172Y10708D02*
X71129Y10790D01*
X72051Y11060D01*
X37251Y19360D02*
X36642Y20071D01*
X35961Y20711D01*
X35215Y21276D01*
X45378Y19366D02*
X44776Y20067D01*
X44111Y20707D01*
X43388Y21282D01*
X106322Y13078D02*
X106209Y14134D01*
X105822Y15123D01*
X105190Y15976D01*
X104356Y16634D01*
X146980Y15655D02*
X147011Y16238D01*
X147041Y17376D02*
X147042Y17562D01*
X123088Y21616D02*
Y22991D01*
X118570Y9487D02*
X118629Y9487D01*
X118512Y9488D02*
X118570Y9487D01*
X118453Y9488D02*
X118512Y9488D01*
X118335Y9490D02*
X118394Y9489D01*
X118276Y9492D02*
X118335Y9490D01*
X118217Y9494D02*
X118276Y9492D01*
X117982Y9508D02*
X118041Y9504D01*
X117865Y9517D02*
X117982Y9508D01*
X117747Y9527D02*
X117865Y9517D01*
X117629Y9538D02*
X117747Y9527D01*
X117453Y9557D02*
X117629Y9538D01*
X117582Y10868D02*
X117614Y10867D01*
X117645Y10866D01*
X117676Y10865D01*
X117705Y10865D01*
X117762Y10864D01*
X118091D01*
X117779Y21619D02*
Y22994D01*
X108580Y23334D02*
X108839D01*
X108287Y21926D02*
X108301Y23309D01*
X108580Y23334D01*
X108703Y21959D02*
X109208D01*
X95461Y9677D02*
X96855D01*
X50595D02*
X51989D01*
X37251Y9671D02*
X38645D01*
X28961Y9677D02*
X30355D01*
X121373Y22991D02*
Y26482D01*
X119979Y22994D02*
Y26482D01*
X117450Y10881D02*
X117453Y9557D01*
X96855Y9677D02*
Y11394D01*
X92874Y9677D02*
Y11497D01*
X91747Y27112D02*
Y28489D01*
X78286Y9677D02*
Y11051D01*
X78642Y26649D02*
Y28489D01*
X113089Y21153D02*
Y22991D01*
X96855Y13062D02*
Y16530D01*
X59429Y21014D02*
X59437Y28489D01*
X45378Y21014D02*
Y22991D01*
X147042Y17562D02*
Y28489D01*
X145648Y17615D02*
Y28489D01*
X133951Y17615D02*
Y28489D01*
X132557Y17559D02*
Y28489D01*
X127716Y9677D02*
Y28489D01*
X126322Y9677D02*
Y28489D01*
X120952Y31924D02*
Y54086D01*
X121373Y13474D02*
Y21616D01*
X119783Y32153D02*
Y54086D01*
X119979Y13357D02*
Y21619D01*
X114483Y9677D02*
Y22991D01*
X113089Y9677D02*
Y19213D01*
X102019Y38019D02*
Y53043D01*
X103188Y38019D02*
Y53249D01*
X95461Y9677D02*
Y18371D01*
X80123Y32139D02*
Y53249D01*
X78955Y31938D02*
Y53034D01*
X60831Y9677D02*
Y28489D01*
X59373Y32150D02*
Y53249D01*
X60541Y31924D02*
Y53034D01*
X59437Y9677D02*
Y19399D01*
X50595Y9677D02*
Y18490D01*
X51989Y9677D02*
Y18371D01*
X46773Y9677D02*
Y22991D01*
X45378Y9677D02*
Y19366D01*
X37251Y9671D02*
Y19360D01*
X38645Y9671D02*
Y18371D01*
X28961Y9677D02*
X28978Y18490D01*
X30355Y9677D02*
Y18371D01*
X145648Y28489D02*
X147042D01*
X132557D02*
X133951D01*
X126322Y9677D02*
X127716D01*
X126322Y28489D02*
X127716D01*
X113089Y9677D02*
X114483D01*
X118394Y9489D02*
X118453Y9488D01*
X117779Y22994D02*
X119979D01*
X117779Y21619D02*
X119979D01*
X113089Y22991D02*
X114483D01*
X119979Y26482D02*
X121373D01*
X104540Y19606D02*
X105909D01*
X96855Y16530D02*
X98949D01*
X96864Y17905D02*
X98456D01*
X59437Y9677D02*
X60831D01*
X59437Y28489D02*
X60831D01*
X45378Y9677D02*
X46773D01*
X45378Y22991D02*
X46773D01*
X121373D02*
X123088D01*
X121373Y21616D02*
X123088D01*
X102348Y31570D02*
X119198D01*
X102348Y30385D02*
X119415D01*
X78286Y11051D02*
X91469D01*
X61124Y53620D02*
X78372D01*
X60909Y54785D02*
X78587D01*
X78642Y26649D02*
X91469Y11051D01*
X78286Y9677D02*
X92874D01*
X80070Y27112D02*
X91747D01*
X78642Y28489D02*
X91747D01*
X80709Y31556D02*
X95369D01*
X80488Y30385D02*
X95369D01*
X52748Y31567D02*
X58787D01*
X52748Y30385D02*
X59005D01*
X85201Y54785D02*
X101651D01*
X86302Y53628D02*
X101434D01*
X84582Y53559D02*
X101292Y30943D01*
X86176Y53383D02*
X102226Y31634D01*
X80070Y27112D02*
X92874Y11497D01*
M02*
