G04*
G04 #@! TF.GenerationSoftware,Altium Limited,Altium Designer,25.2.1 (25)*
G04*
G04 Layer_Color=16711935*
%FSLAX25Y25*%
%MOIN*%
G70*
G04*
G04 #@! TF.SameCoordinates,F407CCA4-E1A1-4AAD-8540-8404F0AA80AE*
G04*
G04*
G04 #@! TF.FilePolarity,Negative*
G04*
G01*
G75*
%ADD67C,0.14973*%
%ADD68C,0.09855*%
%ADD69C,0.04993*%
%ADD70C,0.06312*%
%ADD71O,0.05900X0.09900*%
%ADD72O,0.10800X0.08300*%
%ADD73O,0.10000X0.07500*%
%ADD74C,0.07887*%
%ADD75C,0.12611*%
%ADD76R,0.12611X0.12611*%
%ADD77C,0.02769*%
%ADD78C,0.03162*%
%ADD79C,0.02800*%
D67*
X11811Y11811D02*
D03*
X374016D02*
D03*
X9843Y372047D02*
D03*
X375984D02*
D03*
D68*
X345472Y55876D02*
D03*
X284449D02*
D03*
D69*
X337461Y43868D02*
D03*
X292461D02*
D03*
D70*
X332441Y78868D02*
D03*
X327441Y68868D02*
D03*
X322441Y78868D02*
D03*
X317441Y68868D02*
D03*
X312441Y78868D02*
D03*
X307441Y68868D02*
D03*
X302441Y78868D02*
D03*
X297441Y68868D02*
D03*
D71*
X338492Y195335D02*
D03*
X330994D02*
D03*
X323494D02*
D03*
X315996D02*
D03*
X229579D02*
D03*
X237077D02*
D03*
X244577D02*
D03*
X252075D02*
D03*
X158008Y195248D02*
D03*
X150510D02*
D03*
X143010D02*
D03*
X135512D02*
D03*
X48055Y194882D02*
D03*
X55553D02*
D03*
X63053D02*
D03*
X70551D02*
D03*
D72*
X302047Y245335D02*
D03*
X352047D02*
D03*
X265630D02*
D03*
X215630D02*
D03*
X121563Y245248D02*
D03*
X171563D02*
D03*
X84106Y244882D02*
D03*
X34106D02*
D03*
D73*
X352047Y235335D02*
D03*
Y225335D02*
D03*
X302047Y235335D02*
D03*
Y225335D02*
D03*
X215630D02*
D03*
Y235335D02*
D03*
X265630Y225335D02*
D03*
Y235335D02*
D03*
X171563Y235248D02*
D03*
Y225248D02*
D03*
X121563Y235248D02*
D03*
Y225248D02*
D03*
X34106Y224882D02*
D03*
Y234882D02*
D03*
X84106Y224882D02*
D03*
Y234882D02*
D03*
D74*
X12598Y50906D02*
D03*
Y60905D02*
D03*
D75*
X38559Y299287D02*
D03*
Y339287D02*
D03*
X78559Y299287D02*
D03*
X128383D02*
D03*
Y339287D02*
D03*
X168383Y299287D02*
D03*
X218207D02*
D03*
Y339287D02*
D03*
X258207Y299287D02*
D03*
X308032D02*
D03*
Y339287D02*
D03*
X348031Y299287D02*
D03*
D76*
X78559Y339287D02*
D03*
X168383D02*
D03*
X258207D02*
D03*
X348031D02*
D03*
D77*
X79528Y67716D02*
D03*
X72835Y68504D02*
D03*
D78*
X224370Y125945D02*
D03*
X84252Y3937D02*
D03*
X102362Y7087D02*
D03*
X351969Y115748D02*
D03*
X311811Y125984D02*
D03*
X42913Y125591D02*
D03*
X129941Y125013D02*
D03*
X150110Y140099D02*
D03*
X141055Y140492D02*
D03*
X330594Y140185D02*
D03*
X244177D02*
D03*
X62653Y139732D02*
D03*
X321539Y140579D02*
D03*
X235122D02*
D03*
X53598Y140126D02*
D03*
X33858Y48031D02*
D03*
X114173Y4331D02*
D03*
Y7874D02*
D03*
X78740Y9055D02*
D03*
X120472Y64173D02*
D03*
X129134Y79134D02*
D03*
X247638Y135433D02*
D03*
X327559Y131496D02*
D03*
X324803Y186614D02*
D03*
D79*
X137402Y72539D02*
D03*
X135630Y74902D02*
D03*
X139173D02*
D03*
X135630Y70177D02*
D03*
X139173D02*
D03*
M02*
