G04*
G04 #@! TF.GenerationSoftware,Altium Limited,Altium Designer,25.4.2 (15)*
G04*
G04 Layer_Color=32896*
%FSLAX25Y25*%
%MOIN*%
G70*
G04*
G04 #@! TF.SameCoordinates,336B1F89-BFE6-4481-99DC-D24D03349B4C*
G04*
G04*
G04 #@! TF.FilePolarity,Positive*
G04*
G01*
G75*
%ADD14C,0.00787*%
%ADD95C,0.00013*%
G36*
X260940Y57132D02*
X261309Y56979D01*
X261625Y56736D01*
X261625Y56736D01*
X261626Y56736D01*
X261868Y56419D01*
X262021Y56050D01*
X262056Y55782D01*
X262073Y55655D01*
X262073Y55521D01*
Y34545D01*
X262062D01*
X262108Y34315D01*
X262238Y34120D01*
X262433Y33989D01*
X262663Y33944D01*
X262666Y33944D01*
X262795Y33955D01*
X277326D01*
Y33953D01*
X277547Y33909D01*
X277734Y33784D01*
X277804Y33679D01*
X277859Y33597D01*
X277903Y33376D01*
X277859Y33156D01*
X277734Y32969D01*
X277629Y32899D01*
X277547Y32844D01*
X277326Y32800D01*
Y32798D01*
X262446D01*
X262445Y32798D01*
X262054Y32850D01*
X261685Y33003D01*
X261462Y33174D01*
X261362Y33254D01*
X261124Y33564D01*
X260971Y33933D01*
X260919Y34330D01*
X260921Y34344D01*
X260919Y34344D01*
X260919Y34344D01*
Y55311D01*
X260930Y55440D01*
X260930Y55440D01*
X260884Y55671D01*
X260753Y55867D01*
X260557Y55998D01*
X260329Y56043D01*
X260329Y56033D01*
X260329Y56033D01*
X243081D01*
X243081Y56033D01*
X243081Y56043D01*
X242853Y55998D01*
X242657Y55867D01*
X242526Y55671D01*
X242480Y55440D01*
X242491Y55440D01*
Y34463D01*
X242491Y34330D01*
X242474Y34200D01*
X242439Y33933D01*
X242286Y33564D01*
X242042Y33247D01*
X241725Y33003D01*
X241355Y32850D01*
X240962Y32798D01*
Y32798D01*
X234707D01*
X234705Y32800D01*
X234705D01*
X234487Y32844D01*
X234400Y32902D01*
X234296Y32974D01*
X234175Y33156D01*
X234154Y33263D01*
X234132Y33382D01*
X234133Y33387D01*
X234156Y33512D01*
X234175Y33608D01*
X234300Y33795D01*
X234487Y33920D01*
X234705Y33964D01*
X234705Y33964D01*
Y33964D01*
X234707Y33966D01*
X240615D01*
X240744Y33955D01*
X240747Y33955D01*
X240977Y34001D01*
X241171Y34130D01*
X241172Y34131D01*
X241302Y34326D01*
X241348Y34556D01*
X241348Y34556D01*
X241337Y34685D01*
Y55521D01*
Y55655D01*
X241354Y55784D01*
X241389Y56050D01*
X241542Y56419D01*
X241785Y56736D01*
X241785Y56736D01*
X241785Y56736D01*
X242102Y56979D01*
X242470Y57132D01*
X242866Y57184D01*
X242866Y57184D01*
X260544D01*
X260544Y57184D01*
X260940Y57132D01*
D02*
G37*
G36*
X284004D02*
X284373Y56979D01*
X284689Y56736D01*
X284690Y56736D01*
X284690Y56736D01*
X284933Y56419D01*
X285086Y56050D01*
X285138Y55655D01*
X285138Y55655D01*
Y40425D01*
X285136D01*
X285092Y40205D01*
X285037Y40122D01*
X284967Y40017D01*
X284780Y39893D01*
X284685Y39874D01*
X284559Y39849D01*
Y39849D01*
X284340Y39892D01*
X284154Y40017D01*
X284029Y40203D01*
X283985Y40422D01*
X283986Y40425D01*
X283984Y40425D01*
X283984Y40425D01*
Y55437D01*
X283995Y55448D01*
X283949Y55679D01*
X283818Y55875D01*
X283622Y56006D01*
X283391Y56052D01*
Y56041D01*
X268389D01*
X268259Y56053D01*
X268257Y56053D01*
X268256Y56054D01*
X268134Y56003D01*
X268083Y55880D01*
X268083Y55879D01*
X268124Y55781D01*
X268206Y55678D01*
X284177Y34036D01*
X284177Y34033D01*
X284177Y34033D01*
X284260Y33977D01*
X284304Y33969D01*
X284306Y33969D01*
X301025D01*
X301155Y33958D01*
X301158Y33958D01*
X301388Y34003D01*
X301582Y34133D01*
X301582D01*
X301583Y34134D01*
X301713Y34329D01*
X301759Y34559D01*
Y34559D01*
X301748Y34688D01*
Y56491D01*
X301749Y56491D01*
X301793Y56712D01*
X301918Y56899D01*
X302105Y57024D01*
X302323Y57067D01*
Y57067D01*
X302452Y57042D01*
X302544Y57024D01*
X302626Y56969D01*
X302731Y56899D01*
X302856Y56712D01*
X302900Y56491D01*
X302902D01*
Y34463D01*
Y34330D01*
X302902D01*
X302885Y34200D01*
X302850Y33933D01*
X302697Y33564D01*
X302453Y33247D01*
X302136Y33003D01*
X301766Y32850D01*
X301373Y32798D01*
Y32798D01*
X284313D01*
X284306Y32805D01*
X284306D01*
X284006Y32845D01*
X283672Y32983D01*
X283385Y33204D01*
X283265Y33360D01*
X283265D01*
X283247Y33363D01*
X266544Y55968D01*
X266544Y55969D01*
X266553Y55977D01*
X266475Y56078D01*
X266402Y56255D01*
X266377Y56445D01*
X266402Y56635D01*
X266475Y56812D01*
X266592Y56964D01*
X266744Y57080D01*
X266921Y57154D01*
X267110Y57179D01*
X267156Y57173D01*
X267158Y57184D01*
X283608D01*
X283609Y57184D01*
X284004Y57132D01*
D02*
G37*
G36*
X253011Y25680D02*
X253806Y25522D01*
X254549Y25269D01*
X254551Y25267D01*
Y25267D01*
X254551Y25267D01*
X255129Y24981D01*
X255687Y24609D01*
X256191Y24167D01*
X256427Y23897D01*
X256428Y23897D01*
X256636Y23660D01*
X257086Y22986D01*
X257445Y22259D01*
X257630Y21713D01*
Y21713D01*
X257638Y21709D01*
X257866Y20798D01*
X258017Y19780D01*
X258067Y18752D01*
X258017Y17724D01*
X257866Y16706D01*
X257638Y15795D01*
X257629Y15791D01*
X257571Y15589D01*
X257298Y14929D01*
X256952Y14302D01*
X256538Y13719D01*
X256421Y13588D01*
X256419Y13590D01*
X256165Y13301D01*
X255673Y12869D01*
X255128Y12505D01*
X254559Y12224D01*
X254548Y12228D01*
D01*
X254548D01*
X254548D01*
X254307Y12128D01*
X253587Y11921D01*
X252848Y11795D01*
X252099Y11754D01*
X251351Y11795D01*
X250613Y11921D01*
X249892Y12128D01*
X249652Y12228D01*
X249652D01*
X249652D01*
D01*
X249642Y12225D01*
X249079Y12502D01*
X248519Y12876D01*
X248013Y13320D01*
X247769Y13598D01*
X247767Y13596D01*
X247661Y13715D01*
X247251Y14293D01*
X246908Y14912D01*
X246638Y15566D01*
X246570Y15799D01*
X246570D01*
X246562Y15804D01*
X246339Y16694D01*
X246188Y17714D01*
X246137Y18744D01*
X246188Y19773D01*
X246339Y20793D01*
X246562Y21684D01*
X246569Y21688D01*
X246569D01*
X246569Y21688D01*
X246753Y22230D01*
X247113Y22960D01*
X247566Y23637D01*
X247774Y23875D01*
X247775Y23875D01*
X248025Y24160D01*
X248527Y24600D01*
X249082Y24971D01*
X249643Y25248D01*
X249655Y25244D01*
X249978Y25378D01*
X250654Y25572D01*
X251346Y25690D01*
X251995Y25727D01*
X252129Y25725D01*
X252262Y25729D01*
X253011Y25680D01*
D02*
G37*
G36*
X282565Y25723D02*
X282699Y25727D01*
X283059Y25711D01*
X283192Y25705D01*
X283526Y25688D01*
X283527Y25688D01*
X283710Y25679D01*
X283970Y25640D01*
X284102Y25623D01*
X284387Y25574D01*
X284387Y25574D01*
Y25574D01*
X284651Y25530D01*
X284781Y25496D01*
X284936Y25465D01*
X285148Y25393D01*
X285148Y25393D01*
X285366Y25319D01*
X285491Y25276D01*
X285507Y25270D01*
X285616Y25229D01*
X285807Y25135D01*
X285930Y25083D01*
X286262Y24880D01*
X286370Y24812D01*
X286472Y24730D01*
X286787Y24462D01*
X287124Y24067D01*
X287410Y23601D01*
X287509Y23361D01*
X287509D01*
X287560Y23237D01*
X287631Y23065D01*
X287625Y23052D01*
X287692Y22855D01*
X287725Y22725D01*
X287751Y22599D01*
X287840Y22152D01*
X287825Y22096D01*
X287752Y22019D01*
X286503D01*
X286482Y22230D01*
X286347Y22678D01*
X286126Y23090D01*
X285829Y23452D01*
X285499Y23722D01*
X285468Y23748D01*
X285388Y23792D01*
Y23792D01*
X285187Y23899D01*
X285190Y23906D01*
X284969Y23998D01*
Y23998D01*
X284735Y24095D01*
X284736Y24096D01*
X284712Y24106D01*
X284609Y24131D01*
X284486Y24160D01*
X284479Y24171D01*
X284327Y24201D01*
X284203Y24226D01*
X284202Y24226D01*
X284201Y24226D01*
X284079Y24250D01*
X283911Y24284D01*
X283906Y24280D01*
X283730Y24310D01*
X283629Y24327D01*
X283600Y24330D01*
Y24330D01*
X283402Y24341D01*
X283269Y24350D01*
X282683Y24378D01*
X282570Y24384D01*
X282552Y24383D01*
X282418Y24382D01*
X282339Y24387D01*
X281631Y24341D01*
X280936Y24203D01*
X280522Y24062D01*
X280520Y24067D01*
X280520Y24067D01*
X280452Y24046D01*
X280396Y24016D01*
X280021Y23816D01*
X279643Y23506D01*
X279483Y23311D01*
X279400Y23211D01*
X279203Y22888D01*
X279029Y22468D01*
X278930Y22059D01*
X278923Y22026D01*
X278915Y21926D01*
X278900Y21793D01*
X278847Y21391D01*
X278805Y20430D01*
X278803Y20384D01*
Y20384D01*
X278806Y20310D01*
X278816Y20306D01*
X278816Y20305D01*
X278821Y20303D01*
X278821Y20303D01*
X278821D01*
X280413Y20303D01*
Y20302D01*
X280423Y20302D01*
X281046Y20282D01*
X281179Y20278D01*
X281313Y20273D01*
X281774Y20256D01*
X281907Y20248D01*
X282039Y20242D01*
X282041Y20242D01*
X282462Y20192D01*
X282594Y20176D01*
X282727Y20161D01*
X283242Y20093D01*
X283243Y20092D01*
X283420Y20069D01*
X283851Y19973D01*
Y19973D01*
X283982Y19946D01*
X284420Y19836D01*
X284421Y19836D01*
Y19836D01*
X284630Y19783D01*
X284950Y19669D01*
X285078Y19629D01*
X285440Y19479D01*
X285564Y19427D01*
X286076Y19175D01*
X286194Y19095D01*
X286303Y19022D01*
X286623Y18826D01*
X287100Y18418D01*
X287508Y17941D01*
X287836Y17405D01*
X288076Y16825D01*
X288223Y16215D01*
X288270Y15618D01*
X288267Y15527D01*
X288264Y15484D01*
X288264D01*
X288263Y15350D01*
X288226Y14872D01*
X288094Y14323D01*
X287992Y14077D01*
X287941Y13955D01*
X287941D01*
X287878Y13802D01*
X287590Y13332D01*
X287232Y12913D01*
X287070Y12775D01*
X287070Y12775D01*
X286809Y12552D01*
X286286Y12232D01*
X285887Y12066D01*
X285760Y12023D01*
X285452Y11919D01*
X284812Y11791D01*
X284254Y11755D01*
X284121Y11751D01*
X283988Y11754D01*
X283169Y11794D01*
X282825Y11845D01*
X282692Y11860D01*
X282049Y11987D01*
X281661Y12119D01*
X281538Y12161D01*
X281412Y12207D01*
X280848Y12440D01*
X280331Y12726D01*
X280217Y12797D01*
X280217D01*
X279820Y13034D01*
X279081Y13583D01*
X279031Y13628D01*
X278939Y13711D01*
X278825Y13814D01*
X278807Y13805D01*
X278805Y13800D01*
X278805Y13652D01*
Y13528D01*
Y12089D01*
X277426D01*
Y20776D01*
X277426Y20776D01*
X277431Y20776D01*
X277427Y20861D01*
X277472Y21665D01*
X277607Y22458D01*
X277717Y22840D01*
X277713Y22840D01*
X277743Y22967D01*
X277972Y23518D01*
X278284Y24028D01*
X278601Y24399D01*
X278695Y24492D01*
X279088Y24827D01*
X279619Y25153D01*
X280179Y25385D01*
X280190Y25380D01*
X280783Y25551D01*
X281583Y25687D01*
X282394Y25733D01*
X282565Y25723D01*
D02*
G37*
G36*
X242781Y12089D02*
X241401D01*
Y21805D01*
X241399Y21810D01*
X241404Y21813D01*
X240838Y22437D01*
X240099Y23107D01*
X239391Y23632D01*
X239298Y23701D01*
X239282Y23710D01*
X239277Y23703D01*
X238882Y23945D01*
X238299Y24187D01*
X237685Y24334D01*
X237081Y24382D01*
Y24382D01*
X236965Y24386D01*
X236948Y24385D01*
X236287Y24333D01*
X235740Y24202D01*
X235626Y24174D01*
X235611Y24168D01*
X235486Y24119D01*
X235476Y24116D01*
X235084Y23906D01*
X234740Y23624D01*
X234641Y23503D01*
X234641Y23502D01*
X234557Y23399D01*
X234486Y23312D01*
X234235Y22844D01*
X234096Y22386D01*
X234096Y22386D01*
X233972Y21656D01*
X233930Y20909D01*
X233928Y20874D01*
X233934Y20776D01*
X233939Y20644D01*
Y12089D01*
X232560D01*
Y20896D01*
X232560Y20896D01*
X232562Y20896D01*
X232561Y20919D01*
X232598Y21682D01*
X232609Y21815D01*
X232609D01*
X232617Y21961D01*
X232710Y22505D01*
X232737Y22636D01*
X232794Y22922D01*
X232943Y23360D01*
X232986Y23486D01*
X233132Y23838D01*
X233406Y24285D01*
X233746Y24683D01*
X234144Y25024D01*
X234585Y25294D01*
X234586Y25293D01*
X234586Y25293D01*
Y25293D01*
X235079Y25497D01*
X235207Y25530D01*
X235335Y25567D01*
X235933Y25686D01*
X236560Y25727D01*
X236673Y25728D01*
X236693Y25727D01*
Y25727D01*
X236825Y25721D01*
X237390Y25689D01*
X237719Y25633D01*
X237850Y25610D01*
X238222Y25536D01*
X238736Y25362D01*
X238861Y25317D01*
X238980Y25261D01*
X239526Y24992D01*
X240087Y24617D01*
X240088Y24611D01*
X240268Y24483D01*
X240971Y23854D01*
X241177Y23625D01*
X241259Y23532D01*
X241371Y23407D01*
X241385Y23412D01*
X241386Y23412D01*
X241391Y23414D01*
X241393Y23419D01*
X241393Y23583D01*
Y23583D01*
X241393Y23707D01*
X241401Y30887D01*
X242781D01*
Y12089D01*
D02*
G37*
G36*
X222885Y25723D02*
Y25723D01*
X223019Y25720D01*
X223559Y25690D01*
X223825Y25645D01*
X223825Y25645D01*
X223825Y25645D01*
D01*
X223834Y25651D01*
X224428Y25509D01*
X224860Y25330D01*
X224860D01*
X224861Y25330D01*
X225370Y25078D01*
X226014Y24648D01*
X226016Y24634D01*
Y24634D01*
X226255Y24457D01*
X226903Y23870D01*
X227126Y23624D01*
X227209Y23532D01*
X227209D01*
X227322Y23407D01*
X227335Y23412D01*
X227336Y23412D01*
X227336Y23412D01*
X227341Y23414D01*
X227341Y23414D01*
X227343Y23419D01*
Y23584D01*
X227343Y23707D01*
Y25389D01*
X228722D01*
Y12089D01*
X227343D01*
Y21771D01*
Y21772D01*
X227341Y21776D01*
X227343Y21777D01*
X227198Y21973D01*
X226555Y22682D01*
X225847Y23325D01*
X225349Y23693D01*
X225354Y23700D01*
X224888Y23986D01*
X224360Y24204D01*
X223804Y24338D01*
X223265Y24380D01*
Y24380D01*
X223166Y24383D01*
X223131Y24380D01*
X222644Y24342D01*
X222135Y24220D01*
X222129Y24217D01*
X222006Y24168D01*
X221946Y24150D01*
X221883Y24116D01*
X221627Y23979D01*
X221347Y23750D01*
X221165Y23528D01*
X221159Y23533D01*
X221159Y23533D01*
X221143Y23514D01*
X221091Y23417D01*
X220887Y23034D01*
X220737Y22541D01*
X220729Y22513D01*
X220718Y22409D01*
X220721Y22409D01*
X220627Y21772D01*
X220584Y20908D01*
X220584Y20894D01*
X220589Y20776D01*
X220595Y20644D01*
Y12084D01*
X219215D01*
Y21766D01*
X219213Y21770D01*
X219214Y21771D01*
X219046Y21997D01*
X218470Y22633D01*
X217833Y23210D01*
X217181Y23694D01*
X217178Y23691D01*
X216759Y23948D01*
X216186Y24185D01*
X215583Y24330D01*
X215141Y24364D01*
X215014Y24376D01*
Y24376D01*
X215010Y24376D01*
X214859Y24366D01*
X214725Y24358D01*
X214452Y24337D01*
Y24337D01*
X214341Y24327D01*
X214320Y24322D01*
X214196Y24293D01*
X214196Y24292D01*
X213958Y24235D01*
X213958Y24232D01*
X213833Y24194D01*
X213734Y24164D01*
X213698Y24152D01*
X213534Y24064D01*
X213534D01*
X213532Y24063D01*
X213532Y24063D01*
X213417Y24002D01*
X213344Y23962D01*
Y23962D01*
X213336Y23957D01*
X213247Y23883D01*
X213244Y23880D01*
X213240Y23878D01*
X213077Y23744D01*
X212901Y23529D01*
X212899Y23529D01*
X212899Y23529D01*
X212862Y23485D01*
X212789Y23348D01*
X212789Y23348D01*
X212789D01*
X212683Y23149D01*
X212687Y23148D01*
X212595Y22926D01*
X212594Y22927D01*
X212552Y22824D01*
X212549Y22812D01*
X212549Y22812D01*
X212547Y22803D01*
X212515Y22684D01*
X212497Y22630D01*
X212480Y22548D01*
X212454Y22418D01*
X212397Y22133D01*
X212397D01*
X212378Y22000D01*
X212371Y21955D01*
X212347Y21826D01*
X212336Y21630D01*
X212328Y21497D01*
X212299Y20908D01*
X212293Y20796D01*
X212294Y20776D01*
X212305Y20647D01*
Y12089D01*
X211020D01*
X210926Y12184D01*
X210942Y20896D01*
X210943Y20896D01*
X210942Y20925D01*
X210979Y21682D01*
X210989Y21815D01*
X211002Y22053D01*
X211079Y22505D01*
X211102Y22636D01*
X211128Y22766D01*
X211188Y23067D01*
X211288Y23360D01*
X211288Y23360D01*
X211288Y23360D01*
X211397Y23683D01*
X211547Y23987D01*
X211605Y24107D01*
X211810Y24442D01*
X212118Y24802D01*
X212478Y25110D01*
X212768Y25288D01*
X212768D01*
X212883Y25355D01*
X213200Y25486D01*
X213321Y25535D01*
X213445Y25565D01*
X213924Y25680D01*
X214527Y25727D01*
X214657Y25728D01*
X214660Y25728D01*
Y25728D01*
X214791Y25721D01*
X215363Y25689D01*
X215832Y25609D01*
X215833Y25608D01*
X216211Y25533D01*
X216856Y25314D01*
X217033Y25227D01*
X217033Y25225D01*
X217449Y25020D01*
X218068Y24607D01*
X218210Y24483D01*
X218209Y24482D01*
X218622Y24119D01*
X219157Y23509D01*
X219304Y23289D01*
X219334Y23295D01*
X219356Y23384D01*
X219368Y23416D01*
X219373Y23427D01*
X219560Y23878D01*
X219837Y24331D01*
X220182Y24734D01*
X220553Y25051D01*
X220665Y25123D01*
X220779Y25193D01*
X220957Y25302D01*
X221532Y25540D01*
X222136Y25685D01*
X222755Y25734D01*
X222885Y25723D01*
D02*
G37*
G36*
X273697Y29525D02*
X262027D01*
X262025Y29524D01*
X262023Y29523D01*
X262023Y29523D01*
X262022Y29523D01*
X262022Y29522D01*
X262021Y29520D01*
X262020Y29518D01*
X262020Y29518D01*
X262020Y29517D01*
X262021Y29515D01*
X262021Y29513D01*
X262122Y29391D01*
X262200Y29295D01*
X274824Y13901D01*
Y12089D01*
X260250D01*
Y13450D01*
X273144D01*
X273268Y13450D01*
X273426D01*
X273428Y13451D01*
X273430Y13451D01*
X273430Y13451D01*
X273430Y13452D01*
X273431Y13452D01*
X273432Y13454D01*
X273433Y13456D01*
X273433Y13456D01*
X273433Y13457D01*
X273433Y13457D01*
X273432Y13459D01*
X273431Y13462D01*
X273331Y13584D01*
Y13584D01*
X273252Y13679D01*
X260607Y29057D01*
Y30887D01*
X273697D01*
Y29525D01*
D02*
G37*
G36*
X303323Y25396D02*
X303325Y25391D01*
X303330Y25389D01*
X305037D01*
Y24029D01*
X303330D01*
X303325Y24027D01*
X303323Y24022D01*
Y15880D01*
X303323Y15880D01*
X303317Y15880D01*
X303322Y15757D01*
X303275Y14566D01*
X303224Y14137D01*
X303224Y14136D01*
X303206Y13918D01*
X303089Y13428D01*
X302919Y13017D01*
X302853Y12900D01*
X302853D01*
X302793Y12788D01*
X302576Y12525D01*
X302313Y12308D01*
X302034Y12159D01*
X302026Y12162D01*
X301803Y12070D01*
X301271Y11942D01*
X300726Y11899D01*
X300587Y11910D01*
X300459Y11901D01*
X300410Y11901D01*
X300351Y11902D01*
X300351D01*
X300308Y11903D01*
X300175Y11918D01*
X300175Y11918D01*
X299999Y11929D01*
X299865Y11927D01*
X299822Y11930D01*
X299704Y11940D01*
X299587Y11951D01*
X299417Y11969D01*
X299414Y13148D01*
X299465Y13214D01*
X299538Y13265D01*
X299543Y13265D01*
X299602Y13264D01*
X299602Y13264D01*
X299632Y13263D01*
X299633Y13263D01*
X299662Y13263D01*
X299719Y13263D01*
X299917D01*
X300048Y13255D01*
X300094Y13252D01*
X300182Y13259D01*
X300679Y13298D01*
X300727Y13309D01*
X300856Y13339D01*
X300923Y13348D01*
X300983Y13373D01*
X301190Y13458D01*
X301364Y13592D01*
X301419Y13634D01*
X301458Y13685D01*
X301456Y13686D01*
X301456Y13687D01*
X301456Y13687D01*
X301456Y13687D01*
X301573Y13829D01*
X301731Y14125D01*
X301828Y14444D01*
X301820Y14445D01*
X301907Y14885D01*
X301956Y15628D01*
X301947Y15763D01*
X301947Y15763D01*
X301947D01*
X301943Y15767D01*
Y24024D01*
X301941Y24030D01*
X301936Y24032D01*
X299743D01*
Y25392D01*
X301936D01*
X301941Y25394D01*
X301943Y25399D01*
Y28880D01*
X303323D01*
Y25396D01*
D02*
G37*
G36*
X328992Y19968D02*
X328991Y19787D01*
X328986Y19781D01*
X328968Y19217D01*
X328968D01*
X328965Y19084D01*
X328952Y18644D01*
X328952Y18644D01*
X328952D01*
X328960Y18635D01*
X328931Y18073D01*
X328918Y18062D01*
X328900Y17701D01*
X328760Y16754D01*
X328615Y16175D01*
X328615Y16175D01*
X328615D01*
X328615Y16174D01*
X328466Y15657D01*
X328165Y14930D01*
X327906Y14462D01*
X327906D01*
Y14462D01*
X327908Y14453D01*
X327585Y13969D01*
X327179Y13506D01*
X326758Y13136D01*
X326650Y13057D01*
X326650D01*
X326540Y12984D01*
X326129Y12709D01*
X325407Y12353D01*
X324666Y12102D01*
X324653Y12109D01*
X324000Y11945D01*
X322987Y11795D01*
X321964Y11745D01*
X321758Y11755D01*
X321757Y11758D01*
X321467Y11743D01*
X320516Y11790D01*
X319573Y11930D01*
X318649Y12162D01*
X318218Y12316D01*
X318217Y12314D01*
X318029Y12378D01*
X317433Y12672D01*
X316880Y13041D01*
X316381Y13479D01*
X316000Y13914D01*
X316001Y13919D01*
X316001Y13920D01*
X316001D01*
X315707Y14333D01*
X315364Y14954D01*
X315093Y15609D01*
X314896Y16290D01*
X314861Y16500D01*
X314862Y16500D01*
X314723Y17200D01*
X314571Y18486D01*
X314520Y19779D01*
X314527Y19965D01*
X314521Y19965D01*
X314521Y19965D01*
Y30887D01*
X315900D01*
Y20022D01*
X315899Y20021D01*
Y20021D01*
X315884Y19680D01*
X315934Y18536D01*
X316084Y17401D01*
X316277Y16530D01*
X316276Y16530D01*
X316295Y16434D01*
X316306Y16400D01*
X316502Y15824D01*
X316787Y15246D01*
X317144Y14711D01*
X317311Y14521D01*
X317397Y14423D01*
X317397Y14423D01*
X317397Y14422D01*
X317392Y14417D01*
X317427Y14376D01*
X317488Y14324D01*
X317878Y13991D01*
X318383Y13681D01*
X318931Y13454D01*
X319238Y13381D01*
X319238Y13381D01*
X319238Y13380D01*
X319590Y13292D01*
X320615Y13139D01*
X321616Y13090D01*
X321650Y13089D01*
X321749Y13093D01*
X321857Y13089D01*
X322863Y13138D01*
X323860Y13286D01*
X324235Y13380D01*
X324365Y13412D01*
X324524Y13450D01*
X325093Y13686D01*
X325618Y14007D01*
X326084Y14406D01*
X326077Y14413D01*
X326379Y14756D01*
X326729Y15281D01*
X327008Y15847D01*
X327193Y16392D01*
X327211Y16445D01*
X327226Y16521D01*
X327226Y16521D01*
X327431Y17445D01*
X327578Y18565D01*
X327628Y19693D01*
X327613Y20021D01*
X327613Y20021D01*
X327613D01*
X327612Y20022D01*
Y30887D01*
X328992D01*
Y19968D01*
D02*
G37*
G36*
X309666Y12089D02*
X308286D01*
Y30887D01*
X309666D01*
Y12089D01*
D02*
G37*
G36*
X290796Y25730D02*
X290796D01*
X291560Y25679D01*
X291712Y25649D01*
X291717Y25653D01*
X292328Y25506D01*
X292755Y25330D01*
X292755Y25329D01*
X293237Y25091D01*
X293761Y24742D01*
X293868Y24661D01*
X294007Y24562D01*
X294606Y24027D01*
X294837Y23769D01*
X294919Y23676D01*
X295034Y23549D01*
X295046Y23552D01*
X295046Y23552D01*
X295051Y23554D01*
X295053Y23559D01*
Y23562D01*
X295054Y23566D01*
X295053Y23567D01*
Y23728D01*
X295053Y23851D01*
Y25389D01*
X296433D01*
Y12089D01*
X295053D01*
Y21618D01*
X295052Y21622D01*
X295056Y21625D01*
X295006Y21716D01*
X294989Y21739D01*
X294566Y22336D01*
X294396Y22527D01*
X294307Y22627D01*
X294307Y22627D01*
X294306Y22627D01*
X294217Y22726D01*
X294021Y22947D01*
X293469Y23439D01*
X293377Y23510D01*
X293356Y23528D01*
X293268Y23587D01*
X292815Y23889D01*
X292316Y24136D01*
X292314Y24132D01*
X292050Y24241D01*
X291615Y24345D01*
X291295Y24370D01*
X291169Y24380D01*
X291165Y24380D01*
X291034Y24372D01*
X290790D01*
X290660Y24382D01*
X290645Y24383D01*
X290527Y24371D01*
X290352Y24354D01*
X290253Y24445D01*
X290266Y25708D01*
X290538Y25732D01*
X290794D01*
X290796Y25730D01*
D02*
G37*
G36*
X346130Y91907D02*
X315877D01*
Y93509D01*
X311261D01*
D01*
X315877D01*
Y92630D01*
X311261D01*
Y91907D01*
X300127D01*
Y93509D01*
Y92630D01*
X295511D01*
Y91907D01*
X205579D01*
X346130D01*
Y84826D01*
X272715D01*
D01*
X346130D01*
Y77776D01*
D01*
Y63429D01*
X205579D01*
Y77776D01*
X260629D01*
X205579D01*
Y84826D01*
X264394D01*
D01*
X205579D01*
Y91907D01*
D01*
Y106590D01*
X346130D01*
Y91907D01*
D02*
G37*
G36*
X436721Y94177D02*
X409832D01*
Y102034D01*
X436721D01*
Y94177D01*
D02*
G37*
%LPC*%
G36*
X252137Y24382D02*
X251462Y24338D01*
X250798Y24206D01*
X250262Y24024D01*
X250264Y24020D01*
X249986Y23904D01*
X249466Y23586D01*
X249002Y23190D01*
X248900Y23070D01*
X248813Y22970D01*
X248813D01*
Y22970D01*
X248668Y22805D01*
X248313Y22274D01*
X248031Y21701D01*
X247867Y21217D01*
X247866Y21217D01*
X247693Y20524D01*
X247563Y19645D01*
X247519Y18757D01*
X247563Y17870D01*
X247693Y16991D01*
X247866Y16298D01*
X247909Y16174D01*
X248036Y15799D01*
X248327Y15208D01*
X248693Y14660D01*
X248812Y14525D01*
X248814Y14525D01*
X248815Y14525D01*
X249032Y14270D01*
X249487Y13882D01*
X249997Y13570D01*
X250264Y13459D01*
X250261Y13452D01*
X250824Y13260D01*
X251440Y13138D01*
X251996Y13101D01*
X252067Y13097D01*
X252129Y13101D01*
X252198Y13096D01*
X252831Y13138D01*
X253453Y13262D01*
X254013Y13452D01*
X254011Y13459D01*
X254278Y13570D01*
X254788Y13882D01*
X255242Y14270D01*
X255460Y14525D01*
X255460Y14525D01*
X255461Y14525D01*
X255462Y14525D01*
X255578Y14657D01*
X255937Y15194D01*
X256223Y15775D01*
X256401Y16298D01*
X256398Y16299D01*
X256557Y16933D01*
X256691Y17841D01*
X256736Y18757D01*
X256691Y19674D01*
X256557Y20582D01*
X256398Y21216D01*
X256401Y21217D01*
X256228Y21725D01*
X255951Y22287D01*
X255603Y22808D01*
X255461Y22970D01*
X255374Y23070D01*
X255373Y23071D01*
X255272Y23190D01*
X254808Y23586D01*
X254288Y23904D01*
X254011Y24020D01*
X254012Y24024D01*
X253477Y24206D01*
X252813Y24338D01*
X252137Y24382D01*
D02*
G37*
G36*
X287625Y23052D02*
Y23052D01*
D01*
Y23052D01*
D02*
G37*
G36*
X280936Y18954D02*
X280907Y18953D01*
X280777Y18943D01*
X278813D01*
X278807Y18941D01*
X278805Y18936D01*
Y15467D01*
X278807Y15462D01*
X278807Y15462D01*
X279052Y15192D01*
X279660Y14641D01*
X279665Y14641D01*
X279834Y14491D01*
X280516Y14006D01*
X280746Y13879D01*
X280746Y13879D01*
X281175Y13642D01*
X281837Y13368D01*
X282005Y13320D01*
Y13320D01*
X282005D01*
X282008Y13321D01*
X282222Y13248D01*
X282789Y13136D01*
X283367Y13098D01*
X283385Y13096D01*
X283389Y13095D01*
X283572Y13106D01*
X283704Y13113D01*
Y13113D01*
X284010Y13130D01*
X284142Y13141D01*
X284260Y13149D01*
X284302Y13157D01*
X284302Y13158D01*
X284447Y13187D01*
X284576Y13213D01*
X284577Y13213D01*
X284578Y13213D01*
Y13213D01*
X284578Y13213D01*
X284709Y13239D01*
X284843Y13266D01*
X284848Y13274D01*
X285084Y13330D01*
X285328Y13431D01*
X285328Y13431D01*
Y13431D01*
X285586Y13539D01*
X285955Y13764D01*
X285957Y13762D01*
X286273Y14021D01*
X286541Y14347D01*
X286739Y14719D01*
X286862Y15122D01*
X286903Y15542D01*
X286900Y15620D01*
X286905Y15668D01*
X286896Y15754D01*
X286853Y16199D01*
X286698Y16709D01*
X286447Y17179D01*
X286108Y17591D01*
X285697Y17929D01*
X285408Y18083D01*
X285408Y18084D01*
X285217Y18201D01*
X285098Y18251D01*
X284976Y18306D01*
X284881Y18353D01*
X284755Y18396D01*
X284754Y18397D01*
X284380Y18524D01*
X284380Y18523D01*
X283977Y18639D01*
X283977Y18640D01*
X283847Y18677D01*
X283548Y18728D01*
X283542Y18736D01*
X283075Y18805D01*
X283075Y18805D01*
X283075Y18806D01*
X282580Y18871D01*
Y18871D01*
X282576Y18868D01*
X282277Y18903D01*
X282186Y18907D01*
X282053Y18914D01*
X281039Y18950D01*
X280936Y18954D01*
D02*
G37*
G36*
X236485Y99305D02*
X235374D01*
Y97942D01*
Y98275D01*
X236485D01*
Y99305D01*
D02*
G37*
G36*
X239638Y99198D02*
Y97710D01*
X239129D01*
Y98545D01*
X238018Y99198D01*
X239638D01*
X237170D01*
X238018D01*
Y97710D01*
X237258D01*
Y96825D01*
X238018D01*
Y95129D01*
Y95123D01*
Y95104D01*
Y95079D01*
Y95047D01*
Y95010D01*
Y94959D01*
Y94859D01*
X238011Y94758D01*
Y94658D01*
X238005Y94614D01*
Y94576D01*
X237999Y94545D01*
Y94526D01*
Y94520D01*
X237993Y94513D01*
X237980Y94476D01*
X237949Y94432D01*
X237905Y94388D01*
X237898D01*
X237892Y94382D01*
X237873Y94375D01*
X237848Y94363D01*
X237792Y94344D01*
X237716Y94338D01*
X237685D01*
X237653Y94344D01*
X237603Y94350D01*
X237540Y94363D01*
X237459Y94382D01*
X237371Y94407D01*
X237270Y94438D01*
X237170Y93578D01*
X237176D01*
X237189Y93572D01*
X237208Y93565D01*
X237239Y93553D01*
X237277Y93540D01*
X237321Y93528D01*
X237371Y93509D01*
X237427Y93496D01*
X237553Y93465D01*
X237704Y93440D01*
X237873Y93421D01*
X238049Y93414D01*
X238099D01*
X238156Y93421D01*
X238231Y93427D01*
X238313Y93440D01*
X238401Y93458D01*
X238495Y93484D01*
X238589Y93515D01*
X238602Y93521D01*
X238627Y93534D01*
X238671Y93553D01*
X238721Y93584D01*
X238778Y93622D01*
X238840Y93666D01*
X238891Y93716D01*
X238941Y93773D01*
X238947Y93779D01*
X238960Y93804D01*
X238979Y93842D01*
X239004Y93886D01*
X239029Y93948D01*
X239054Y94024D01*
X239079Y94112D01*
X239098Y94206D01*
Y94218D01*
X239104Y94244D01*
Y94269D01*
X239110Y94300D01*
Y94338D01*
Y94375D01*
X239117Y94426D01*
Y94482D01*
X239123Y94545D01*
Y94620D01*
X239129Y94702D01*
Y94790D01*
Y94884D01*
Y94991D01*
Y96825D01*
X239638D01*
Y93414D01*
X239638D01*
X239638D01*
Y99198D01*
D02*
G37*
G36*
X236485Y97723D02*
Y97710D01*
X235374D01*
D01*
D01*
Y93509D01*
X236485D01*
Y97723D01*
D02*
G37*
G36*
X246810Y97358D02*
D01*
D01*
D01*
D02*
G37*
G36*
Y96938D02*
D01*
D01*
D01*
D02*
G37*
G36*
Y96869D02*
D01*
D01*
D01*
D02*
G37*
G36*
Y96649D02*
D01*
D01*
D01*
D02*
G37*
G36*
Y96630D02*
D01*
D01*
D01*
D02*
G37*
G36*
Y96605D02*
D01*
D01*
D01*
D02*
G37*
G36*
Y96084D02*
Y96077D01*
D01*
Y96084D01*
D02*
G37*
G36*
Y95814D02*
D01*
D01*
D01*
D02*
G37*
G36*
X283975Y97804D02*
Y95719D01*
X283968Y95757D01*
Y95807D01*
X283962Y95870D01*
X283950Y95933D01*
X283943Y96008D01*
X283906Y96171D01*
X283862Y96354D01*
X283793Y96542D01*
X283755Y96643D01*
X283705Y96737D01*
X283698Y96743D01*
X283692Y96762D01*
X283673Y96787D01*
X283654Y96825D01*
X283629Y96869D01*
X283592Y96919D01*
X283510Y97032D01*
X283397Y97157D01*
X283265Y97289D01*
X283114Y97415D01*
X282939Y97528D01*
X282932Y97534D01*
X282913Y97540D01*
X282888Y97553D01*
X282851Y97572D01*
X282800Y97591D01*
X282744Y97616D01*
X282681Y97641D01*
X282612Y97666D01*
X282530Y97691D01*
X282442Y97716D01*
X282254Y97760D01*
X282047Y97792D01*
X281934Y97804D01*
X283975D01*
X281777D01*
X281727Y97798D01*
X281664Y97792D01*
X281582Y97785D01*
X281488Y97773D01*
X281381Y97754D01*
X281268Y97729D01*
X281149Y97691D01*
X281023Y97654D01*
X280891Y97603D01*
X280766Y97540D01*
X280634Y97471D01*
X280502Y97390D01*
X280383Y97289D01*
X280263Y97183D01*
X280257Y97176D01*
X280238Y97151D01*
X280207Y97120D01*
X280169Y97070D01*
X280119Y97007D01*
X280069Y96938D01*
X280018Y96850D01*
X279956Y96755D01*
X279899Y96649D01*
X279849Y96529D01*
X279792Y96398D01*
X279748Y96259D01*
X279711Y96115D01*
X279679Y95958D01*
X279660Y95795D01*
X279654Y95619D01*
Y95575D01*
X279660Y95525D01*
Y95462D01*
X279673Y95380D01*
X279685Y95286D01*
X279704Y95179D01*
X279730Y95066D01*
X279761Y94941D01*
X279805Y94815D01*
X279855Y94683D01*
X279912Y94551D01*
X279987Y94413D01*
X280069Y94288D01*
X280163Y94156D01*
X280270Y94036D01*
X280276Y94030D01*
X280295Y94011D01*
X280332Y93980D01*
X280383Y93942D01*
X280439Y93892D01*
X280515Y93842D01*
X280596Y93785D01*
X280690Y93729D01*
X280797Y93666D01*
X280916Y93609D01*
X281042Y93559D01*
X281180Y93515D01*
X281325Y93471D01*
X281482Y93440D01*
X281645Y93421D01*
X281814Y93415D01*
X281871D01*
X281915Y93421D01*
X281965D01*
X282022Y93427D01*
X282091Y93433D01*
X282166Y93446D01*
X282336Y93477D01*
X282524Y93521D01*
X282719Y93584D01*
X282913Y93672D01*
X282920Y93678D01*
X282939Y93685D01*
X282964Y93697D01*
X283001Y93722D01*
X283045Y93747D01*
X283089Y93785D01*
X283209Y93867D01*
X283334Y93973D01*
X283466Y94105D01*
X283592Y94262D01*
X283705Y94438D01*
Y94445D01*
X283717Y94463D01*
X283730Y94488D01*
X283749Y94526D01*
X283768Y94576D01*
X283793Y94633D01*
X283811Y94702D01*
X283837Y94777D01*
X283862Y94865D01*
X283887Y94959D01*
X283912Y95060D01*
X283931Y95167D01*
X283950Y95280D01*
X283962Y95405D01*
X283968Y95531D01*
X283975Y95663D01*
Y93973D01*
Y97804D01*
D02*
G37*
G36*
X260274Y97804D02*
X258277D01*
X258221Y97798D01*
X258145D01*
X258064Y97792D01*
X257976Y97779D01*
X257875Y97767D01*
X257668Y97735D01*
X257461Y97685D01*
X257354Y97654D01*
X257260Y97616D01*
X257165Y97572D01*
X257084Y97522D01*
X257078D01*
X257065Y97509D01*
X257046Y97490D01*
X257015Y97471D01*
X256983Y97440D01*
X256939Y97402D01*
X256902Y97358D01*
X256851Y97314D01*
X256807Y97258D01*
X256757Y97195D01*
X256707Y97126D01*
X256657Y97051D01*
X256613Y96975D01*
X256569Y96887D01*
X256500Y96693D01*
X257548Y96498D01*
Y96511D01*
X257561Y96536D01*
X257580Y96580D01*
X257605Y96636D01*
X257643Y96699D01*
X257687Y96762D01*
X257743Y96818D01*
X257806Y96875D01*
X257812Y96881D01*
X257844Y96894D01*
X257881Y96919D01*
X257944Y96944D01*
X258019Y96963D01*
X258107Y96988D01*
X258221Y97000D01*
X258340Y97007D01*
X258409D01*
X258484Y97000D01*
X258578Y96994D01*
X258679Y96975D01*
X258786Y96956D01*
X258880Y96925D01*
X258962Y96881D01*
X258968Y96875D01*
X258980Y96869D01*
X258999Y96843D01*
X259024Y96818D01*
X259049Y96787D01*
X259068Y96749D01*
X259081Y96705D01*
X259087Y96655D01*
Y96649D01*
Y96636D01*
X259081Y96611D01*
X259074Y96586D01*
X259062Y96554D01*
X259043Y96523D01*
X259018Y96486D01*
X258980Y96454D01*
X258974Y96448D01*
X258962Y96442D01*
X258943Y96435D01*
X258917Y96423D01*
X258886Y96410D01*
X258842Y96391D01*
X258792Y96372D01*
X258735Y96354D01*
X258660Y96329D01*
X258578Y96303D01*
X258478Y96272D01*
X258371Y96247D01*
X258246Y96209D01*
X258101Y96178D01*
X257944Y96140D01*
X257932D01*
X257907Y96134D01*
X257862Y96121D01*
X257800Y96102D01*
X257731Y96084D01*
X257643Y96058D01*
X257555Y96033D01*
X257454Y96002D01*
X257253Y95933D01*
X257046Y95845D01*
X256952Y95801D01*
X256864Y95751D01*
X256776Y95701D01*
X256707Y95644D01*
X256701Y95638D01*
X256694Y95631D01*
X256676Y95613D01*
X256650Y95587D01*
X256625Y95562D01*
X256594Y95525D01*
X256562Y95481D01*
X256531Y95430D01*
X256468Y95311D01*
X256412Y95173D01*
X256368Y95010D01*
X256362Y94915D01*
X256355Y94821D01*
Y94846D01*
Y94821D01*
Y94765D01*
X256362Y94727D01*
X256368Y94677D01*
X256380Y94614D01*
X256393Y94551D01*
X256418Y94482D01*
X256443Y94407D01*
X256475Y94325D01*
X256512Y94244D01*
X256556Y94162D01*
X256613Y94074D01*
X256682Y93992D01*
X256751Y93911D01*
X256839Y93829D01*
X256845Y93823D01*
X256864Y93810D01*
X256889Y93791D01*
X256927Y93766D01*
X256977Y93735D01*
X257040Y93697D01*
X257115Y93660D01*
X257197Y93622D01*
X257291Y93584D01*
X257398Y93546D01*
X257517Y93509D01*
X257643Y93477D01*
X257781Y93452D01*
X257932Y93433D01*
X258095Y93421D01*
X258264Y93414D01*
X256355D01*
X258346D01*
X258409Y93421D01*
X258478Y93427D01*
X258566Y93433D01*
X258654Y93446D01*
X258754Y93458D01*
X258974Y93496D01*
X259200Y93559D01*
X259313Y93603D01*
X259426Y93647D01*
X259527Y93697D01*
X259627Y93760D01*
X259633Y93766D01*
X259646Y93779D01*
X259671Y93798D01*
X259709Y93823D01*
X259747Y93860D01*
X259790Y93898D01*
X259841Y93948D01*
X259891Y94005D01*
X259947Y94074D01*
X260004Y94143D01*
X260054Y94218D01*
X260111Y94306D01*
X260161Y94394D01*
X260205Y94488D01*
X260243Y94595D01*
X260274Y94702D01*
X259162Y94871D01*
Y94865D01*
X259156Y94859D01*
X259150Y94821D01*
X259131Y94758D01*
X259100Y94689D01*
X259062Y94608D01*
X259012Y94526D01*
X258955Y94451D01*
X258880Y94382D01*
X258867Y94375D01*
X258842Y94357D01*
X258792Y94331D01*
X258723Y94300D01*
X258635Y94269D01*
X258528Y94244D01*
X258409Y94225D01*
X258271Y94218D01*
X258202D01*
X258164Y94225D01*
X258120D01*
X258026Y94237D01*
X257919Y94256D01*
X257812Y94288D01*
X257712Y94325D01*
X257624Y94375D01*
X257618Y94382D01*
X257599Y94394D01*
X257574Y94419D01*
X257548Y94451D01*
X257523Y94495D01*
X257498Y94545D01*
X257479Y94602D01*
X257473Y94671D01*
Y94677D01*
Y94689D01*
X257479Y94714D01*
X257486Y94746D01*
X257505Y94809D01*
X257530Y94846D01*
X257555Y94878D01*
X257561Y94884D01*
X257574Y94890D01*
X257599Y94909D01*
X257630Y94928D01*
X257680Y94953D01*
X257743Y94978D01*
X257825Y95003D01*
X257925Y95029D01*
X257932D01*
X257938Y95035D01*
X257957D01*
X257982Y95041D01*
X258051Y95060D01*
X258139Y95079D01*
X258246Y95104D01*
X258365Y95135D01*
X258497Y95167D01*
X258641Y95204D01*
X258924Y95292D01*
X259068Y95336D01*
X259206Y95380D01*
X259332Y95430D01*
X259445Y95474D01*
X259545Y95525D01*
X259621Y95569D01*
X259627Y95575D01*
X259640Y95587D01*
X259665Y95606D01*
X259696Y95631D01*
X259734Y95663D01*
X259778Y95707D01*
X259822Y95757D01*
X259866Y95814D01*
X259916Y95876D01*
X259960Y95945D01*
X260004Y96027D01*
X260042Y96109D01*
X260073Y96203D01*
X260098Y96297D01*
X260111Y96404D01*
X260117Y96511D01*
Y96517D01*
Y96536D01*
Y96561D01*
X260111Y96605D01*
X260104Y96649D01*
X260092Y96705D01*
X260079Y96762D01*
X260061Y96831D01*
X260010Y96975D01*
X259979Y97051D01*
X259935Y97126D01*
X259885Y97208D01*
X259828Y97283D01*
X259765Y97358D01*
X259690Y97427D01*
X259684Y97434D01*
X259671Y97446D01*
X259646Y97465D01*
X259608Y97484D01*
X259564Y97515D01*
X259508Y97547D01*
X259439Y97578D01*
X259363Y97616D01*
X259276Y97654D01*
X259175Y97685D01*
X259068Y97716D01*
X258949Y97748D01*
X258817Y97767D01*
X258673Y97785D01*
X258522Y97798D01*
X258359Y97804D01*
X260274D01*
D02*
G37*
G36*
X326007Y99305D02*
X323699D01*
X324839D01*
Y96159D01*
Y96153D01*
Y96127D01*
Y96090D01*
Y96040D01*
Y95977D01*
Y95908D01*
X324832Y95832D01*
Y95757D01*
Y95587D01*
X324820Y95430D01*
Y95355D01*
X324814Y95292D01*
X324807Y95236D01*
X324801Y95186D01*
Y95179D01*
X324795Y95173D01*
Y95154D01*
X324782Y95129D01*
X324763Y95060D01*
X324726Y94978D01*
X324682Y94890D01*
X324619Y94796D01*
X324537Y94702D01*
X324443Y94614D01*
X324437D01*
X324430Y94608D01*
X324412Y94595D01*
X324393Y94583D01*
X324330Y94545D01*
X324242Y94507D01*
X324129Y94470D01*
X323997Y94432D01*
X323847Y94407D01*
X323671Y94401D01*
X323620D01*
X323589Y94407D01*
X323545D01*
X323501Y94413D01*
X323388Y94426D01*
X323269Y94451D01*
X323143Y94489D01*
X323024Y94532D01*
X322917Y94602D01*
X322904Y94608D01*
X322879Y94639D01*
X322835Y94683D01*
X322785Y94740D01*
X322735Y94809D01*
X322685Y94897D01*
X322641Y94991D01*
X322616Y95098D01*
Y95104D01*
Y95110D01*
X322609Y95129D01*
Y95154D01*
X322603Y95192D01*
X322597Y95230D01*
X322590Y95280D01*
X322584Y95336D01*
Y95399D01*
X322578Y95474D01*
X322572Y95556D01*
X322565Y95644D01*
Y95744D01*
X322559Y95851D01*
Y95964D01*
Y96090D01*
Y99305D01*
X321391D01*
Y95996D01*
X321397Y95901D01*
Y95795D01*
X321404Y95675D01*
X321416Y95437D01*
X321435Y95192D01*
X321447Y95073D01*
X321460Y94966D01*
X321473Y94865D01*
X321492Y94777D01*
Y94771D01*
X321498Y94758D01*
X321504Y94733D01*
X321510Y94708D01*
X321523Y94671D01*
X321535Y94627D01*
X321573Y94526D01*
X321617Y94407D01*
X321680Y94288D01*
X321755Y94168D01*
X321843Y94049D01*
Y94043D01*
X321856Y94036D01*
X321887Y93999D01*
X321944Y93948D01*
X322019Y93879D01*
X322119Y93804D01*
X322233Y93729D01*
X322371Y93647D01*
X322521Y93578D01*
X322528D01*
X322540Y93572D01*
X322565Y93559D01*
X322597Y93553D01*
X322641Y93540D01*
X322691Y93521D01*
X322754Y93509D01*
X322823Y93490D01*
X322898Y93471D01*
X322980Y93458D01*
X323074Y93446D01*
X323168Y93427D01*
X323275Y93421D01*
X323388Y93408D01*
X323507Y93402D01*
X321391D01*
X326007D01*
Y99305D01*
D02*
G37*
G36*
X290022Y99198D02*
X287554D01*
X288402D01*
Y97710D01*
X287642D01*
Y96825D01*
X288402D01*
Y95129D01*
Y95123D01*
Y95104D01*
Y95079D01*
Y95047D01*
Y95010D01*
Y94959D01*
Y94859D01*
X288396Y94758D01*
Y94658D01*
X288390Y94614D01*
Y94576D01*
X288383Y94545D01*
Y94526D01*
Y94520D01*
X288377Y94514D01*
X288365Y94476D01*
X288333Y94432D01*
X288289Y94388D01*
X288283D01*
X288277Y94382D01*
X288258Y94375D01*
X288233Y94363D01*
X288176Y94344D01*
X288101Y94338D01*
X288069D01*
X288038Y94344D01*
X287988Y94350D01*
X287925Y94363D01*
X287843Y94382D01*
X287755Y94407D01*
X287655Y94438D01*
X287554Y93578D01*
D01*
X287561D01*
X287573Y93572D01*
X287592Y93565D01*
X287623Y93553D01*
X287661Y93540D01*
X287705Y93528D01*
X287755Y93509D01*
X287812Y93496D01*
X287937Y93465D01*
X288088Y93440D01*
X288258Y93421D01*
X288434Y93415D01*
X288484D01*
X288540Y93421D01*
X288616Y93427D01*
X288697Y93440D01*
X288785Y93458D01*
X288879Y93484D01*
X288974Y93515D01*
X288986Y93521D01*
X289011Y93534D01*
X289055Y93553D01*
X289106Y93584D01*
X289162Y93622D01*
X289225Y93666D01*
X289275Y93716D01*
X289325Y93773D01*
X289332Y93779D01*
X289344Y93804D01*
X289363Y93842D01*
X289388Y93886D01*
X289413Y93948D01*
X289438Y94024D01*
X289463Y94112D01*
X289482Y94206D01*
Y94218D01*
X289489Y94244D01*
Y94269D01*
X289495Y94300D01*
Y94338D01*
Y94375D01*
X289501Y94426D01*
Y94482D01*
X289507Y94545D01*
Y94620D01*
X289514Y94702D01*
Y94790D01*
Y94884D01*
Y94991D01*
Y96825D01*
X290022D01*
Y97792D01*
Y97710D01*
X289514D01*
Y98545D01*
X288402Y99198D01*
X290022D01*
D02*
G37*
G36*
X320304Y99305D02*
X315952Y99305D01*
D01*
X316078D01*
Y98395D01*
X319243Y94489D01*
X315952Y94488D01*
Y93509D01*
X320656Y93509D01*
Y94564D01*
X317610Y98326D01*
X320304D01*
Y99305D01*
D02*
G37*
G36*
X310709Y99305D02*
X306074D01*
Y93509D01*
X307242D01*
Y96046D01*
X309541D01*
Y93509D01*
X310709D01*
Y99305D01*
D02*
G37*
G36*
X305452D02*
X300058D01*
D01*
X302130Y93509D01*
X303386D01*
X305452Y99305D01*
D01*
D02*
G37*
G36*
X295266Y99399D02*
X290544D01*
X292823D01*
X292754Y99393D01*
X292660Y99387D01*
X292560Y99374D01*
X292440Y99362D01*
X292315Y99337D01*
X292189Y99312D01*
X292051Y99280D01*
X291913Y99242D01*
X291781Y99198D01*
X291649Y99142D01*
X291517Y99073D01*
X291398Y99004D01*
X291291Y98916D01*
X291285Y98910D01*
X291266Y98897D01*
X291241Y98866D01*
X291203Y98828D01*
X291159Y98784D01*
X291115Y98721D01*
X291065Y98652D01*
X291008Y98577D01*
X290958Y98489D01*
X290908Y98395D01*
X290858Y98288D01*
X290814Y98175D01*
X290770Y98055D01*
X290738Y97924D01*
X290720Y97785D01*
X290707Y97641D01*
X291875Y97597D01*
Y97603D01*
X291881Y97616D01*
Y97641D01*
X291887Y97666D01*
X291900Y97704D01*
X291913Y97748D01*
X291944Y97842D01*
X291988Y97942D01*
X292044Y98049D01*
X292114Y98150D01*
X292201Y98231D01*
X292214Y98238D01*
X292246Y98263D01*
X292302Y98294D01*
X292384Y98332D01*
X292490Y98369D01*
X292616Y98401D01*
X292767Y98426D01*
X292943Y98432D01*
X293024D01*
X293068Y98426D01*
X293118Y98420D01*
X293238Y98407D01*
X293363Y98382D01*
X293501Y98344D01*
X293627Y98288D01*
X293746Y98219D01*
X293753Y98212D01*
X293772Y98194D01*
X293803Y98162D01*
X293834Y98125D01*
X293872Y98074D01*
X293897Y98011D01*
X293922Y97942D01*
X293929Y97861D01*
Y97855D01*
Y97829D01*
X293922Y97785D01*
X293910Y97742D01*
X293885Y97685D01*
X293860Y97622D01*
X293815Y97566D01*
X293759Y97509D01*
X293746Y97503D01*
X293734Y97490D01*
X293709Y97478D01*
X293684Y97459D01*
X293646Y97440D01*
X293596Y97415D01*
X293539Y97390D01*
X293476Y97365D01*
X293401Y97333D01*
X293313Y97302D01*
X293213Y97271D01*
X293100Y97233D01*
X292974Y97195D01*
X292836Y97157D01*
X292685Y97120D01*
X292672D01*
X292647Y97114D01*
X292603Y97101D01*
X292547Y97088D01*
X292472Y97070D01*
X292396Y97044D01*
X292302Y97019D01*
X292208Y96994D01*
X292001Y96931D01*
X291793Y96862D01*
X291693Y96825D01*
X291592Y96787D01*
X291505Y96743D01*
X291423Y96705D01*
X291417D01*
X291404Y96693D01*
X291385Y96680D01*
X291354Y96668D01*
X291278Y96617D01*
X291184Y96555D01*
X291084Y96467D01*
X290977Y96366D01*
X290870Y96247D01*
X290776Y96115D01*
Y96109D01*
X290763Y96096D01*
X290757Y96077D01*
X290738Y96046D01*
X290720Y96008D01*
X290701Y95964D01*
X290682Y95914D01*
X290657Y95858D01*
X290638Y95795D01*
X290619Y95726D01*
X290581Y95569D01*
X290556Y95386D01*
X290544Y95192D01*
Y95142D01*
X290550Y95110D01*
Y95066D01*
X290556Y95010D01*
X290569Y94953D01*
X290581Y94890D01*
X290613Y94746D01*
X290663Y94589D01*
X290732Y94426D01*
X290776Y94338D01*
X290826Y94256D01*
Y94250D01*
X290839Y94237D01*
X290858Y94212D01*
X290877Y94187D01*
X290908Y94149D01*
X290939Y94105D01*
X291027Y94011D01*
X291140Y93911D01*
X291272Y93798D01*
X291429Y93697D01*
X291611Y93609D01*
X291617D01*
X291636Y93603D01*
X291662Y93590D01*
X291699Y93578D01*
X291749Y93559D01*
X291812Y93546D01*
X291881Y93528D01*
X291957Y93509D01*
X292044Y93484D01*
X292139Y93465D01*
X292246Y93452D01*
X292358Y93433D01*
X292472Y93421D01*
X292603Y93408D01*
X292735Y93402D01*
X292924D01*
X292980Y93408D01*
X293056D01*
X293144Y93415D01*
X293250Y93427D01*
X293370Y93446D01*
X293495Y93465D01*
X293633Y93490D01*
X293772Y93528D01*
X293910Y93565D01*
X294048Y93616D01*
X294186Y93672D01*
X294318Y93741D01*
X294443Y93817D01*
X294563Y93904D01*
X294569Y93911D01*
X294588Y93929D01*
X294619Y93961D01*
X294657Y93999D01*
X294701Y94055D01*
X294758Y94118D01*
X294814Y94193D01*
X294870Y94281D01*
X294933Y94382D01*
X294996Y94488D01*
X295053Y94614D01*
X295109Y94746D01*
X295159Y94890D01*
X295203Y95041D01*
X295241Y95211D01*
X295266Y95386D01*
X294129Y95499D01*
Y95493D01*
X294123Y95474D01*
X294117Y95443D01*
X294111Y95405D01*
X294098Y95355D01*
X294079Y95305D01*
X294042Y95179D01*
X293985Y95041D01*
X293910Y94897D01*
X293822Y94765D01*
X293772Y94708D01*
X293715Y94652D01*
X293709D01*
X293703Y94639D01*
X293684Y94627D01*
X293658Y94608D01*
X293627Y94589D01*
X293583Y94570D01*
X293539Y94545D01*
X293489Y94520D01*
X293363Y94470D01*
X293219Y94432D01*
X293049Y94401D01*
X292861Y94388D01*
X292804D01*
X292767Y94394D01*
X292717D01*
X292666Y94401D01*
X292541Y94419D01*
X292403Y94445D01*
X292258Y94488D01*
X292120Y94545D01*
X292057Y94583D01*
X292001Y94627D01*
X291994D01*
X291988Y94639D01*
X291957Y94671D01*
X291906Y94721D01*
X291856Y94784D01*
X291806Y94865D01*
X291756Y94966D01*
X291724Y95073D01*
X291712Y95129D01*
Y95186D01*
Y95192D01*
Y95223D01*
X291718Y95261D01*
X291724Y95305D01*
X291743Y95361D01*
X291762Y95424D01*
X291793Y95481D01*
X291837Y95537D01*
X291844Y95543D01*
X291862Y95562D01*
X291894Y95587D01*
X291932Y95625D01*
X291994Y95663D01*
X292063Y95707D01*
X292151Y95744D01*
X292258Y95788D01*
X292271Y95795D01*
X292283D01*
X292302Y95801D01*
X292327Y95807D01*
X292365Y95820D01*
X292403Y95832D01*
X292453Y95845D01*
X292509Y95864D01*
X292578Y95883D01*
X292654Y95901D01*
X292742Y95927D01*
X292836Y95952D01*
X292943Y95977D01*
X293062Y96008D01*
X293194Y96040D01*
X293206D01*
X293238Y96052D01*
X293282Y96065D01*
X293344Y96084D01*
X293426Y96102D01*
X293514Y96134D01*
X293608Y96165D01*
X293709Y96197D01*
X293929Y96285D01*
X294148Y96379D01*
X294249Y96435D01*
X294349Y96492D01*
X294437Y96548D01*
X294513Y96611D01*
X294519Y96617D01*
X294538Y96636D01*
X294563Y96661D01*
X294594Y96699D01*
X294638Y96743D01*
X294682Y96799D01*
X294732Y96862D01*
X294776Y96938D01*
X294827Y97019D01*
X294877Y97107D01*
X294921Y97208D01*
X294965Y97308D01*
X294996Y97415D01*
X295021Y97534D01*
X295040Y97654D01*
X295046Y97779D01*
Y97785D01*
Y97798D01*
Y97823D01*
X295040Y97855D01*
Y97892D01*
X295034Y97942D01*
X295015Y98049D01*
X294984Y98175D01*
X294940Y98319D01*
X294877Y98464D01*
X294795Y98608D01*
Y98614D01*
X294783Y98627D01*
X294770Y98646D01*
X294751Y98671D01*
X294688Y98740D01*
X294613Y98828D01*
X294506Y98922D01*
X294387Y99016D01*
X294236Y99111D01*
X294073Y99192D01*
X294067D01*
X294054Y99198D01*
X294023Y99211D01*
X293991Y99224D01*
X293941Y99242D01*
X293891Y99255D01*
X293828Y99274D01*
X293753Y99299D01*
X293671Y99318D01*
X293589Y99337D01*
X293495Y99349D01*
X293395Y99368D01*
X293282Y99381D01*
X293175Y99393D01*
X292930Y99399D01*
X295266D01*
Y93509D01*
Y99399D01*
D02*
G37*
G36*
X300127Y93509D02*
X295511D01*
D01*
X300127D01*
D02*
G37*
G36*
X286920Y97804D02*
X284201D01*
D01*
X284873D01*
X284835Y97798D01*
X284797Y97792D01*
X284703Y97779D01*
X284590Y97754D01*
X284465Y97716D01*
X284333Y97660D01*
X284201Y97591D01*
X284546Y96624D01*
X284559Y96630D01*
X284596Y96655D01*
X284647Y96680D01*
X284716Y96718D01*
X284797Y96749D01*
X284885Y96781D01*
X284973Y96799D01*
X285068Y96806D01*
X285105D01*
X285149Y96799D01*
X285206Y96787D01*
X285268Y96774D01*
X285331Y96749D01*
X285400Y96718D01*
X285463Y96674D01*
X285469Y96668D01*
X285488Y96649D01*
X285520Y96617D01*
X285557Y96567D01*
X285595Y96504D01*
X285639Y96423D01*
X285683Y96329D01*
X285721Y96209D01*
Y96203D01*
X285727Y96190D01*
Y96171D01*
X285733Y96140D01*
X285739Y96102D01*
X285746Y96046D01*
X285758Y95983D01*
X285765Y95908D01*
X285771Y95820D01*
X285783Y95719D01*
X285790Y95606D01*
X285796Y95474D01*
X285802Y95330D01*
Y95173D01*
X285808Y94997D01*
Y94802D01*
Y93509D01*
X286920D01*
Y97710D01*
X285890D01*
Y97107D01*
X285884Y97114D01*
X285878Y97126D01*
X285865Y97145D01*
X285846Y97176D01*
X285796Y97252D01*
X285733Y97340D01*
X285658Y97434D01*
X285582Y97522D01*
X285501Y97603D01*
X285457Y97641D01*
X285419Y97666D01*
X285407Y97672D01*
X285382Y97685D01*
X285337Y97710D01*
X285281Y97735D01*
X285206Y97760D01*
X285124Y97785D01*
X285036Y97798D01*
X284936Y97804D01*
X286920D01*
D01*
D02*
G37*
G36*
X278863D02*
X272690D01*
D01*
X273990D01*
X273946Y97798D01*
X273902Y97792D01*
X273795Y97779D01*
X273675Y97760D01*
X273544Y97723D01*
X273412Y97679D01*
X273286Y97616D01*
X273280D01*
X273274Y97610D01*
X273236Y97578D01*
X273179Y97534D01*
X273104Y97478D01*
X273029Y97396D01*
X272947Y97302D01*
X272872Y97189D01*
X272809Y97063D01*
X272803Y97051D01*
X272796Y97032D01*
X272790Y97013D01*
X272784Y96982D01*
X272771Y96944D01*
X272759Y96906D01*
X272746Y96856D01*
X272740Y96793D01*
X272727Y96730D01*
X272715Y96661D01*
X272708Y96580D01*
X272702Y96498D01*
X272696Y96404D01*
X272690Y96297D01*
Y93509D01*
X273801D01*
Y95908D01*
Y95914D01*
Y95933D01*
Y95964D01*
Y96008D01*
X273807Y96058D01*
Y96115D01*
X273814Y96247D01*
X273833Y96379D01*
X273851Y96517D01*
X273864Y96573D01*
X273883Y96630D01*
X273902Y96680D01*
X273920Y96718D01*
X273927Y96730D01*
X273952Y96755D01*
X273983Y96793D01*
X274033Y96837D01*
X274103Y96881D01*
X274184Y96919D01*
X274278Y96944D01*
X274392Y96956D01*
X274429D01*
X274473Y96950D01*
X274536Y96938D01*
X274599Y96919D01*
X274674Y96894D01*
X274749Y96862D01*
X274831Y96812D01*
X274837Y96806D01*
X274863Y96787D01*
X274900Y96749D01*
X274944Y96705D01*
X274994Y96649D01*
X275045Y96573D01*
X275089Y96492D01*
X275126Y96391D01*
X275132Y96379D01*
Y96360D01*
X275139Y96341D01*
X275145Y96310D01*
X275151Y96272D01*
X275164Y96234D01*
X275170Y96184D01*
X275177Y96127D01*
X275189Y96058D01*
X275195Y95989D01*
X275202Y95914D01*
X275208Y95826D01*
Y95732D01*
X275214Y95631D01*
Y95525D01*
Y93509D01*
X276326D01*
Y95807D01*
Y95814D01*
Y95832D01*
Y95864D01*
Y95908D01*
Y95958D01*
Y96014D01*
X276332Y96140D01*
X276338Y96272D01*
X276351Y96404D01*
X276357Y96460D01*
X276370Y96517D01*
X276376Y96561D01*
X276389Y96599D01*
Y96605D01*
X276401Y96630D01*
X276414Y96661D01*
X276432Y96699D01*
X276489Y96787D01*
X276527Y96831D01*
X276571Y96869D01*
X276577Y96875D01*
X276596Y96881D01*
X276621Y96894D01*
X276659Y96912D01*
X276709Y96931D01*
X276765Y96944D01*
X276834Y96950D01*
X276910Y96956D01*
X276954D01*
X277004Y96950D01*
X277067Y96938D01*
X277136Y96919D01*
X277211Y96894D01*
X277293Y96862D01*
X277375Y96812D01*
X277381Y96806D01*
X277406Y96787D01*
X277444Y96755D01*
X277487Y96712D01*
X277532Y96655D01*
X277582Y96586D01*
X277626Y96504D01*
X277663Y96410D01*
X277670Y96398D01*
Y96385D01*
X277676Y96360D01*
X277682Y96335D01*
X277689Y96297D01*
X277701Y96253D01*
X277707Y96209D01*
X277714Y96153D01*
X277726Y96090D01*
X277732Y96014D01*
X277739Y95939D01*
X277745Y95851D01*
Y95757D01*
X277751Y95657D01*
Y95550D01*
Y93509D01*
X278863D01*
Y97710D01*
D01*
X277839D01*
Y97132D01*
X277833Y97139D01*
X277814Y97164D01*
X277783Y97195D01*
X277739Y97239D01*
X277689Y97289D01*
X277626Y97346D01*
X277550Y97409D01*
X277469Y97471D01*
X277381Y97534D01*
X277280Y97591D01*
X277173Y97647D01*
X277061Y97698D01*
X276935Y97742D01*
X276809Y97773D01*
X276671Y97798D01*
X276533Y97804D01*
X278863D01*
D01*
D02*
G37*
G36*
X271666D02*
X265493D01*
D01*
X266793D01*
X266749Y97798D01*
X266705Y97792D01*
X266598Y97779D01*
X266479Y97760D01*
X266347Y97723D01*
X266215Y97679D01*
X266089Y97616D01*
X266083D01*
X266077Y97610D01*
X266039Y97578D01*
X265983Y97534D01*
X265907Y97478D01*
X265832Y97396D01*
X265750Y97302D01*
X265675Y97189D01*
X265612Y97063D01*
X265606Y97051D01*
X265599Y97032D01*
X265593Y97013D01*
X265587Y96982D01*
X265574Y96944D01*
X265562Y96906D01*
X265549Y96856D01*
X265543Y96793D01*
X265530Y96730D01*
X265518Y96661D01*
X265511Y96580D01*
X265505Y96498D01*
X265499Y96404D01*
X265493Y96297D01*
Y93509D01*
X266604D01*
Y95908D01*
Y95914D01*
Y95933D01*
Y95964D01*
Y96008D01*
X266611Y96058D01*
Y96115D01*
X266617Y96247D01*
X266636Y96379D01*
X266654Y96517D01*
X266667Y96573D01*
X266686Y96630D01*
X266705Y96680D01*
X266724Y96718D01*
X266730Y96730D01*
X266755Y96755D01*
X266786Y96793D01*
X266837Y96837D01*
X266906Y96881D01*
X266987Y96919D01*
X267081Y96944D01*
X267195Y96956D01*
X267232D01*
X267276Y96950D01*
X267339Y96938D01*
X267402Y96919D01*
X267477Y96894D01*
X267552Y96862D01*
X267634Y96812D01*
X267640Y96806D01*
X267666Y96787D01*
X267703Y96749D01*
X267747Y96705D01*
X267797Y96649D01*
X267848Y96573D01*
X267892Y96492D01*
X267929Y96391D01*
X267936Y96379D01*
Y96360D01*
X267942Y96341D01*
X267948Y96310D01*
X267954Y96272D01*
X267967Y96234D01*
X267973Y96184D01*
X267980Y96127D01*
X267992Y96058D01*
X267998Y95989D01*
X268005Y95914D01*
X268011Y95826D01*
Y95732D01*
X268017Y95631D01*
Y95525D01*
Y93509D01*
X269129D01*
Y95807D01*
Y95814D01*
Y95832D01*
Y95864D01*
Y95908D01*
Y95958D01*
Y96014D01*
X269135Y96140D01*
X269141Y96272D01*
X269154Y96404D01*
X269160Y96460D01*
X269173Y96517D01*
X269179Y96561D01*
X269192Y96599D01*
Y96605D01*
X269204Y96630D01*
X269217Y96661D01*
X269236Y96699D01*
X269292Y96787D01*
X269330Y96831D01*
X269374Y96869D01*
X269380Y96875D01*
X269399Y96881D01*
X269424Y96894D01*
X269462Y96912D01*
X269512Y96931D01*
X269568Y96944D01*
X269637Y96950D01*
X269713Y96956D01*
X269757D01*
X269807Y96950D01*
X269870Y96938D01*
X269939Y96919D01*
X270014Y96894D01*
X270096Y96862D01*
X270178Y96812D01*
X270184Y96806D01*
X270209Y96787D01*
X270247Y96755D01*
X270291Y96712D01*
X270335Y96655D01*
X270385Y96586D01*
X270429Y96504D01*
X270466Y96410D01*
X270473Y96398D01*
Y96385D01*
X270479Y96360D01*
X270485Y96335D01*
X270492Y96297D01*
X270504Y96253D01*
X270510Y96209D01*
X270517Y96153D01*
X270529Y96090D01*
X270535Y96014D01*
X270542Y95939D01*
X270548Y95851D01*
Y95757D01*
X270554Y95657D01*
Y95550D01*
Y93509D01*
X271666D01*
Y97804D01*
D02*
G37*
G36*
X245931Y99305D02*
X244819D01*
Y93509D01*
X245931D01*
Y99305D01*
D02*
G37*
G36*
X234250Y97804D02*
X230432D01*
D01*
X231782D01*
X231713Y97798D01*
X231618Y97785D01*
X231518Y97773D01*
X231405Y97748D01*
X231286Y97710D01*
X231172Y97666D01*
X231166D01*
X231160Y97660D01*
X231122Y97641D01*
X231066Y97616D01*
X231003Y97572D01*
X230928Y97528D01*
X230852Y97465D01*
X230777Y97402D01*
X230714Y97327D01*
X230708Y97321D01*
X230689Y97289D01*
X230664Y97252D01*
X230626Y97195D01*
X230589Y97126D01*
X230557Y97044D01*
X230519Y96956D01*
X230494Y96862D01*
Y96850D01*
X230482Y96812D01*
X230475Y96755D01*
X230463Y96674D01*
X230450Y96567D01*
X230444Y96442D01*
X230432Y96291D01*
Y93509D01*
X231543D01*
Y95650D01*
Y95657D01*
Y95682D01*
Y95713D01*
Y95763D01*
Y95814D01*
X231549Y95876D01*
Y96014D01*
X231562Y96165D01*
X231574Y96310D01*
X231581Y96379D01*
X231593Y96435D01*
X231606Y96486D01*
X231618Y96529D01*
Y96536D01*
X231631Y96561D01*
X231650Y96599D01*
X231675Y96643D01*
X231706Y96693D01*
X231744Y96749D01*
X231794Y96799D01*
X231851Y96843D01*
X231857Y96850D01*
X231876Y96862D01*
X231913Y96881D01*
X231958Y96900D01*
X232014Y96919D01*
X232077Y96938D01*
X232146Y96950D01*
X232227Y96956D01*
X232278D01*
X232328Y96950D01*
X232403Y96938D01*
X232479Y96919D01*
X232567Y96887D01*
X232661Y96850D01*
X232749Y96793D01*
X232761Y96787D01*
X232786Y96762D01*
X232824Y96730D01*
X232874Y96680D01*
X232925Y96624D01*
X232975Y96548D01*
X233019Y96467D01*
X233056Y96372D01*
X233063Y96360D01*
Y96347D01*
X233069Y96322D01*
X233075Y96291D01*
X233082Y96253D01*
X233088Y96209D01*
X233094Y96159D01*
X233107Y96096D01*
X233113Y96027D01*
X233119Y95945D01*
X233126Y95858D01*
X233132Y95763D01*
Y95657D01*
X233138Y95537D01*
Y95412D01*
Y93509D01*
X234250D01*
Y97804D01*
D02*
G37*
G36*
X264708Y97804D02*
X260789D01*
D01*
X262742D01*
X262698Y97798D01*
X262629Y97792D01*
X262554Y97785D01*
X262459Y97773D01*
X262359Y97754D01*
X262252Y97729D01*
X262133Y97691D01*
X262014Y97654D01*
X261894Y97603D01*
X261769Y97540D01*
X261649Y97471D01*
X261530Y97390D01*
X261417Y97289D01*
X261310Y97183D01*
X261304Y97176D01*
X261285Y97151D01*
X261260Y97120D01*
X261229Y97070D01*
X261185Y97000D01*
X261141Y96919D01*
X261090Y96825D01*
X261040Y96718D01*
X260990Y96592D01*
X260946Y96448D01*
X260902Y96297D01*
X260864Y96127D01*
X260833Y95939D01*
X260808Y95738D01*
X260789Y95525D01*
Y95292D01*
X263571D01*
Y95286D01*
Y95273D01*
Y95242D01*
X263565Y95211D01*
X263559Y95167D01*
X263552Y95116D01*
X263533Y95010D01*
X263502Y94884D01*
X263458Y94752D01*
X263395Y94627D01*
X263307Y94514D01*
X263301D01*
X263295Y94501D01*
X263263Y94470D01*
X263207Y94426D01*
X263131Y94382D01*
X263037Y94331D01*
X262924Y94288D01*
X262799Y94256D01*
X262730Y94250D01*
X262660Y94244D01*
X262616D01*
X262573Y94250D01*
X262510Y94262D01*
X262441Y94275D01*
X262371Y94300D01*
X262296Y94338D01*
X262227Y94382D01*
X262221Y94388D01*
X262196Y94407D01*
X262164Y94445D01*
X262127Y94495D01*
X262076Y94557D01*
X262032Y94639D01*
X261988Y94733D01*
X261951Y94846D01*
X260845Y94658D01*
Y94652D01*
X260858Y94633D01*
X260871Y94602D01*
X260883Y94557D01*
X260908Y94507D01*
X260940Y94451D01*
X260971Y94382D01*
X261009Y94313D01*
X261103Y94162D01*
X261222Y94011D01*
X261361Y93860D01*
X261442Y93791D01*
X261524Y93729D01*
X261530Y93722D01*
X261543Y93716D01*
X261568Y93697D01*
X261605Y93678D01*
X261649Y93653D01*
X261706Y93628D01*
X261769Y93603D01*
X261838Y93572D01*
X261919Y93540D01*
X262007Y93515D01*
X262102Y93490D01*
X262202Y93465D01*
X262309Y93446D01*
X262428Y93427D01*
X262547Y93421D01*
X262673Y93415D01*
X262723D01*
X262780Y93421D01*
X262855Y93427D01*
X262943Y93433D01*
X263050Y93452D01*
X263163Y93471D01*
X263288Y93502D01*
X263420Y93540D01*
X263552Y93590D01*
X263684Y93647D01*
X263822Y93716D01*
X263948Y93798D01*
X264073Y93892D01*
X264187Y93999D01*
X264293Y94124D01*
X264300Y94130D01*
X264312Y94149D01*
X264331Y94181D01*
X264356Y94231D01*
X264387Y94288D01*
X264425Y94350D01*
X264463Y94432D01*
X264500Y94520D01*
X264538Y94620D01*
X264576Y94733D01*
X264614Y94853D01*
X264645Y94978D01*
X264670Y95116D01*
X264689Y95261D01*
X264701Y95418D01*
X264708Y95575D01*
Y93433D01*
Y95575D01*
Y95625D01*
Y95619D01*
X264701Y95675D01*
Y95744D01*
X264689Y95832D01*
X264676Y95939D01*
X264664Y96046D01*
X264639Y96171D01*
X264614Y96297D01*
X264576Y96429D01*
X264532Y96567D01*
X264482Y96705D01*
X264419Y96837D01*
X264344Y96969D01*
X264262Y97095D01*
X264168Y97208D01*
X264161Y97214D01*
X264142Y97233D01*
X264111Y97264D01*
X264067Y97302D01*
X264017Y97346D01*
X263948Y97396D01*
X263873Y97453D01*
X263791Y97509D01*
X263697Y97559D01*
X263590Y97616D01*
X263477Y97666D01*
X263351Y97710D01*
X263226Y97748D01*
X263088Y97779D01*
X262937Y97798D01*
X262786Y97804D01*
X264708D01*
D01*
D02*
G37*
G36*
X260274Y97804D02*
Y93414D01*
D01*
D01*
Y97804D01*
D02*
G37*
G36*
X255771D02*
X251852D01*
X253774D01*
X253718Y97798D01*
X253642D01*
X253561Y97792D01*
X253473Y97779D01*
X253372Y97767D01*
X253165Y97735D01*
X252958Y97685D01*
X252851Y97654D01*
X252757Y97616D01*
X252663Y97572D01*
X252581Y97522D01*
X252575D01*
X252562Y97509D01*
X252543Y97490D01*
X252512Y97471D01*
X252481Y97440D01*
X252437Y97402D01*
X252399Y97358D01*
X252349Y97314D01*
X252305Y97258D01*
X252255Y97195D01*
X252204Y97126D01*
X252154Y97051D01*
X252110Y96975D01*
X252066Y96887D01*
X251997Y96693D01*
X253046Y96498D01*
Y96511D01*
X253058Y96536D01*
X253077Y96580D01*
X253102Y96636D01*
X253140Y96699D01*
X253184Y96762D01*
X253240Y96818D01*
X253303Y96875D01*
X253309Y96881D01*
X253341Y96894D01*
X253379Y96919D01*
X253441Y96944D01*
X253517Y96963D01*
X253605Y96988D01*
X253718Y97000D01*
X253837Y97007D01*
X253906D01*
X253981Y97000D01*
X254076Y96994D01*
X254176Y96975D01*
X254283Y96956D01*
X254377Y96925D01*
X254459Y96881D01*
X254465Y96875D01*
X254478Y96869D01*
X254496Y96843D01*
X254521Y96818D01*
X254547Y96787D01*
X254566Y96749D01*
X254578Y96705D01*
X254584Y96655D01*
Y96649D01*
Y96636D01*
X254578Y96611D01*
X254572Y96586D01*
X254559Y96554D01*
X254540Y96523D01*
X254515Y96486D01*
X254478Y96454D01*
X254471Y96448D01*
X254459Y96442D01*
X254440Y96435D01*
X254415Y96423D01*
X254383Y96410D01*
X254339Y96391D01*
X254289Y96372D01*
X254233Y96354D01*
X254157Y96329D01*
X254076Y96303D01*
X253975Y96272D01*
X253868Y96247D01*
X253743Y96209D01*
X253598Y96178D01*
X253441Y96140D01*
X253429D01*
X253404Y96134D01*
X253360Y96121D01*
X253297Y96102D01*
X253228Y96084D01*
X253140Y96058D01*
X253052Y96033D01*
X252952Y96002D01*
X252751Y95933D01*
X252543Y95845D01*
X252449Y95801D01*
X252361Y95751D01*
X252273Y95701D01*
X252204Y95644D01*
X252198Y95638D01*
X252192Y95631D01*
X252173Y95613D01*
X252148Y95587D01*
X252123Y95562D01*
X252091Y95525D01*
X252060Y95481D01*
X252028Y95430D01*
X251966Y95311D01*
X251909Y95173D01*
X251865Y95010D01*
X251859Y94915D01*
X251852Y94821D01*
Y94828D01*
Y94821D01*
Y94765D01*
X251859Y94727D01*
X251865Y94677D01*
X251878Y94614D01*
X251890Y94551D01*
X251915Y94482D01*
X251940Y94407D01*
X251972Y94325D01*
X252010Y94244D01*
X252053Y94162D01*
X252110Y94074D01*
X252179Y93992D01*
X252248Y93911D01*
X252336Y93829D01*
X252342Y93823D01*
X252361Y93810D01*
X252386Y93791D01*
X252424Y93766D01*
X252474Y93735D01*
X252537Y93697D01*
X252612Y93660D01*
X252694Y93622D01*
X252788Y93584D01*
X252895Y93546D01*
X253014Y93509D01*
X253140Y93477D01*
X253278Y93452D01*
X253429Y93433D01*
X253592Y93421D01*
X253762Y93414D01*
X253843D01*
X253906Y93421D01*
X253975Y93427D01*
X254063Y93433D01*
X254151Y93446D01*
X254252Y93458D01*
X254471Y93496D01*
X254697Y93559D01*
X254810Y93603D01*
X254924Y93647D01*
X255024Y93697D01*
X255124Y93760D01*
X255131Y93766D01*
X255143Y93779D01*
X255168Y93798D01*
X255206Y93823D01*
X255244Y93860D01*
X255288Y93898D01*
X255338Y93948D01*
X255388Y94005D01*
X255445Y94074D01*
X255501Y94143D01*
X255552Y94218D01*
X255608Y94306D01*
X255658Y94394D01*
X255702Y94488D01*
X255740Y94595D01*
X255771Y94702D01*
X254660Y94871D01*
Y94865D01*
X254653Y94859D01*
X254647Y94821D01*
X254628Y94758D01*
X254597Y94689D01*
X254559Y94608D01*
X254509Y94526D01*
X254452Y94451D01*
X254377Y94382D01*
X254364Y94375D01*
X254339Y94357D01*
X254289Y94331D01*
X254220Y94300D01*
X254132Y94269D01*
X254025Y94244D01*
X253906Y94225D01*
X253768Y94218D01*
X253699D01*
X253661Y94225D01*
X253617D01*
X253523Y94237D01*
X253416Y94256D01*
X253309Y94288D01*
X253209Y94325D01*
X253121Y94375D01*
X253115Y94382D01*
X253096Y94394D01*
X253071Y94419D01*
X253046Y94451D01*
X253021Y94495D01*
X252995Y94545D01*
X252977Y94602D01*
X252970Y94671D01*
Y94677D01*
Y94689D01*
X252977Y94714D01*
X252983Y94746D01*
X253002Y94809D01*
X253027Y94846D01*
X253052Y94878D01*
X253058Y94884D01*
X253071Y94890D01*
X253096Y94909D01*
X253127Y94928D01*
X253178Y94953D01*
X253240Y94978D01*
X253322Y95003D01*
X253422Y95029D01*
X253429D01*
X253435Y95035D01*
X253454D01*
X253479Y95041D01*
X253548Y95060D01*
X253636Y95079D01*
X253743Y95104D01*
X253862Y95135D01*
X253994Y95167D01*
X254138Y95204D01*
X254421Y95292D01*
X254566Y95336D01*
X254704Y95380D01*
X254829Y95430D01*
X254942Y95474D01*
X255043Y95525D01*
X255118Y95569D01*
X255124Y95575D01*
X255137Y95587D01*
X255162Y95606D01*
X255193Y95631D01*
X255231Y95663D01*
X255275Y95707D01*
X255319Y95757D01*
X255363Y95814D01*
X255413Y95876D01*
X255457Y95945D01*
X255501Y96027D01*
X255539Y96109D01*
X255570Y96203D01*
X255595Y96297D01*
X255608Y96404D01*
X255614Y96511D01*
Y96517D01*
Y96536D01*
Y96561D01*
X255608Y96605D01*
X255602Y96649D01*
X255589Y96705D01*
X255577Y96762D01*
X255558Y96831D01*
X255507Y96975D01*
X255476Y97051D01*
X255432Y97126D01*
X255382Y97208D01*
X255325Y97283D01*
X255263Y97358D01*
X255187Y97427D01*
X255181Y97434D01*
X255168Y97446D01*
X255143Y97465D01*
X255106Y97484D01*
X255062Y97515D01*
X255005Y97547D01*
X254936Y97578D01*
X254861Y97616D01*
X254773Y97654D01*
X254672Y97685D01*
X254566Y97716D01*
X254446Y97748D01*
X254314Y97767D01*
X254170Y97785D01*
X254019Y97798D01*
X253856Y97804D01*
X255771D01*
Y93414D01*
D01*
Y97804D01*
D02*
G37*
G36*
X243977D02*
X240034D01*
D01*
X241918D01*
X241861Y97798D01*
X241786D01*
X241710Y97792D01*
X241622Y97779D01*
X241440Y97760D01*
X241258Y97729D01*
X241082Y97685D01*
X241007Y97654D01*
X240932Y97622D01*
X240925D01*
X240913Y97616D01*
X240894Y97603D01*
X240875Y97591D01*
X240806Y97553D01*
X240731Y97503D01*
X240643Y97434D01*
X240561Y97358D01*
X240479Y97271D01*
X240417Y97176D01*
X240410Y97164D01*
X240404Y97145D01*
X240391Y97126D01*
X240379Y97095D01*
X240366Y97051D01*
X240354Y97007D01*
X240341Y96950D01*
X240329Y96887D01*
X240316Y96818D01*
X240304Y96737D01*
X240291Y96643D01*
X240279Y96542D01*
X240272Y96435D01*
X240266Y96316D01*
Y96184D01*
X240285Y94884D01*
Y94878D01*
Y94859D01*
Y94834D01*
Y94796D01*
Y94746D01*
Y94696D01*
X240279Y94576D01*
X240272Y94445D01*
X240266Y94306D01*
X240253Y94181D01*
X240241Y94118D01*
X240234Y94068D01*
Y94055D01*
X240222Y94024D01*
X240209Y93967D01*
X240191Y93898D01*
X240165Y93817D01*
X240128Y93722D01*
X240084Y93616D01*
X240034Y93509D01*
D01*
X241133D01*
Y93515D01*
X241139Y93528D01*
X241151Y93553D01*
X241164Y93590D01*
X241177Y93634D01*
X241202Y93691D01*
X241220Y93760D01*
X241246Y93835D01*
Y93842D01*
X241252Y93854D01*
X241258Y93892D01*
X241271Y93936D01*
X241277Y93955D01*
X241283Y93967D01*
X241296Y93955D01*
X241334Y93923D01*
X241390Y93873D01*
X241465Y93810D01*
X241553Y93747D01*
X241660Y93678D01*
X241773Y93609D01*
X241893Y93553D01*
X241899D01*
X241905Y93546D01*
X241924Y93540D01*
X241949Y93534D01*
X242012Y93509D01*
X242100Y93484D01*
X242200Y93458D01*
X242319Y93433D01*
X242445Y93421D01*
X242583Y93414D01*
X242086D01*
X243977D01*
Y97804D01*
D02*
G37*
G36*
X229621D02*
X225703D01*
D01*
X227656D01*
X227612Y97798D01*
X227543Y97792D01*
X227467Y97785D01*
X227373Y97773D01*
X227273Y97754D01*
X227166Y97729D01*
X227046Y97691D01*
X226927Y97654D01*
X226808Y97603D01*
X226682Y97540D01*
X226563Y97471D01*
X226444Y97390D01*
X226331Y97289D01*
X226224Y97183D01*
X226218Y97176D01*
X226199Y97151D01*
X226174Y97120D01*
X226142Y97070D01*
X226098Y97000D01*
X226054Y96919D01*
X226004Y96825D01*
X225954Y96718D01*
X225904Y96592D01*
X225860Y96448D01*
X225816Y96297D01*
X225778Y96127D01*
X225747Y95939D01*
X225722Y95738D01*
X225703Y95525D01*
Y95292D01*
X228485D01*
Y95286D01*
Y95273D01*
Y95242D01*
X228478Y95211D01*
X228472Y95167D01*
X228466Y95116D01*
X228447Y95010D01*
X228416Y94884D01*
X228372Y94752D01*
X228309Y94627D01*
X228221Y94513D01*
X228215D01*
X228208Y94501D01*
X228177Y94470D01*
X228120Y94426D01*
X228045Y94382D01*
X227951Y94331D01*
X227838Y94288D01*
X227712Y94256D01*
X227643Y94250D01*
X227574Y94244D01*
X227530D01*
X227486Y94250D01*
X227423Y94262D01*
X227354Y94275D01*
X227285Y94300D01*
X227210Y94338D01*
X227141Y94382D01*
X227134Y94388D01*
X227109Y94407D01*
X227078Y94445D01*
X227040Y94495D01*
X226990Y94557D01*
X226946Y94639D01*
X226902Y94733D01*
X226864Y94846D01*
X225759Y94658D01*
Y94652D01*
X225772Y94633D01*
X225784Y94602D01*
X225797Y94557D01*
X225822Y94507D01*
X225853Y94451D01*
X225885Y94382D01*
X225922Y94313D01*
X226017Y94162D01*
X226136Y94011D01*
X226274Y93860D01*
X226356Y93791D01*
X226437Y93729D01*
X226444Y93722D01*
X226456Y93716D01*
X226481Y93697D01*
X226519Y93678D01*
X226563Y93653D01*
X226620Y93628D01*
X226682Y93603D01*
X226751Y93572D01*
X226833Y93540D01*
X226921Y93515D01*
X227015Y93490D01*
X227116Y93465D01*
X227222Y93446D01*
X227342Y93427D01*
X227461Y93421D01*
X227587Y93414D01*
X227637D01*
X227693Y93421D01*
X227769Y93427D01*
X227857Y93433D01*
X227963Y93452D01*
X228077Y93471D01*
X228202Y93502D01*
X228334Y93540D01*
X228466Y93590D01*
X228598Y93647D01*
X228736Y93716D01*
X228861Y93798D01*
X228987Y93892D01*
X229100Y93999D01*
X229207Y94124D01*
X229213Y94130D01*
X229226Y94149D01*
X229244Y94181D01*
X229270Y94231D01*
X229301Y94288D01*
X229339Y94350D01*
X229376Y94432D01*
X229414Y94520D01*
X229452Y94620D01*
X229489Y94733D01*
X229527Y94853D01*
X229558Y94978D01*
X229584Y95116D01*
X229603Y95261D01*
X229615Y95418D01*
X229621Y95575D01*
Y93414D01*
D01*
Y95619D01*
X229615Y95675D01*
Y95744D01*
X229603Y95832D01*
X229590Y95939D01*
X229577Y96046D01*
X229552Y96171D01*
X229527Y96297D01*
X229489Y96429D01*
X229446Y96567D01*
X229395Y96705D01*
X229332Y96837D01*
X229257Y96969D01*
X229175Y97095D01*
X229081Y97208D01*
X229075Y97214D01*
X229056Y97233D01*
X229025Y97264D01*
X228981Y97302D01*
X228930Y97346D01*
X228861Y97396D01*
X228786Y97453D01*
X228705Y97509D01*
X228610Y97559D01*
X228503Y97616D01*
X228391Y97666D01*
X228265Y97710D01*
X228139Y97748D01*
X228001Y97779D01*
X227850Y97798D01*
X227700Y97804D01*
X229621D01*
D01*
D02*
G37*
G36*
X250910D02*
X246810D01*
D01*
X248537D01*
X248499Y97798D01*
X248443D01*
X248380Y97785D01*
X248311Y97773D01*
X248229Y97754D01*
X248135Y97735D01*
X248041Y97704D01*
X247940Y97666D01*
X247840Y97616D01*
X247733Y97559D01*
X247626Y97497D01*
X247526Y97415D01*
X247425Y97327D01*
X247325Y97227D01*
X247318Y97220D01*
X247300Y97201D01*
X247274Y97170D01*
X247243Y97120D01*
X247205Y97063D01*
X247161Y96994D01*
X247117Y96906D01*
X247067Y96812D01*
X247017Y96705D01*
X246973Y96586D01*
X246929Y96454D01*
X246891Y96310D01*
X246860Y96159D01*
X246829Y95996D01*
X246816Y95820D01*
X246810Y95631D01*
Y95587D01*
X246816Y95531D01*
Y95456D01*
X246822Y95368D01*
X246835Y95267D01*
X246854Y95154D01*
X246872Y95029D01*
X246904Y94903D01*
X246935Y94765D01*
X246979Y94633D01*
X247029Y94495D01*
X247086Y94363D01*
X247155Y94231D01*
X247237Y94105D01*
X247325Y93992D01*
X247331Y93986D01*
X247350Y93967D01*
X247375Y93942D01*
X247419Y93904D01*
X247469Y93860D01*
X247526Y93810D01*
X247595Y93760D01*
X247676Y93703D01*
X247758Y93647D01*
X247859Y93597D01*
X247959Y93546D01*
X248072Y93502D01*
X248185Y93471D01*
X248311Y93440D01*
X248436Y93421D01*
X248574Y93414D01*
X248631D01*
X248700Y93421D01*
X248788Y93433D01*
X248882Y93446D01*
X248989Y93471D01*
X249102Y93509D01*
X249209Y93553D01*
X249221Y93559D01*
X249259Y93578D01*
X249315Y93616D01*
X249391Y93666D01*
X249479Y93729D01*
X249579Y93810D01*
X249686Y93911D01*
X249799Y94024D01*
Y91914D01*
X250910D01*
Y97804D01*
D02*
G37*
G36*
X268250Y90748D02*
X264394D01*
X266340D01*
X266297Y90742D01*
X266240D01*
X266171Y90729D01*
X266089Y90723D01*
X266001Y90704D01*
X265907Y90685D01*
X265800Y90654D01*
X265694Y90623D01*
X265587Y90579D01*
X265480Y90528D01*
X265367Y90465D01*
X265260Y90396D01*
X265160Y90315D01*
X265066Y90221D01*
X265059Y90214D01*
X265047Y90202D01*
X265028Y90177D01*
X265003Y90145D01*
X264971Y90108D01*
X264934Y90057D01*
X264896Y90001D01*
X264858Y89938D01*
X264783Y89800D01*
X264714Y89636D01*
X264689Y89549D01*
X264670Y89454D01*
X264657Y89360D01*
X264651Y89260D01*
Y89253D01*
Y89228D01*
X264657Y89184D01*
X264664Y89134D01*
X264676Y89071D01*
X264695Y88996D01*
X264720Y88908D01*
X264758Y88820D01*
X264802Y88726D01*
X264852Y88625D01*
X264921Y88525D01*
X265003Y88424D01*
X265097Y88324D01*
X265210Y88223D01*
X265342Y88129D01*
X265486Y88041D01*
X265480D01*
X265461Y88035D01*
X265436Y88029D01*
X265405Y88016D01*
X265361Y88004D01*
X265311Y87985D01*
X265204Y87941D01*
X265072Y87878D01*
X264940Y87790D01*
X264814Y87690D01*
X264752Y87627D01*
X264695Y87558D01*
X264689Y87551D01*
X264683Y87539D01*
X264670Y87520D01*
X264645Y87495D01*
X264626Y87457D01*
X264601Y87413D01*
X264569Y87363D01*
X264544Y87307D01*
X264488Y87175D01*
X264438Y87024D01*
X264406Y86848D01*
X264400Y86754D01*
X264394Y86660D01*
Y86710D01*
Y86660D01*
Y86628D01*
X264400Y86584D01*
Y86534D01*
X264412Y86465D01*
X264425Y86390D01*
X264438Y86308D01*
X264463Y86214D01*
X264494Y86113D01*
X264532Y86007D01*
X264576Y85900D01*
X264632Y85793D01*
X264695Y85680D01*
X264771Y85573D01*
X264852Y85467D01*
X264953Y85360D01*
X264959Y85353D01*
X264978Y85335D01*
X265009Y85310D01*
X265053Y85278D01*
X265110Y85234D01*
X265172Y85190D01*
X265248Y85140D01*
X265336Y85096D01*
X265430Y85046D01*
X265537Y84996D01*
X265656Y84952D01*
X265775Y84908D01*
X265907Y84876D01*
X266045Y84851D01*
X266196Y84832D01*
X266347Y84826D01*
X266385D01*
X266422Y84832D01*
X266479D01*
X266542Y84839D01*
X266623Y84851D01*
X266711Y84864D01*
X266805Y84883D01*
X266906Y84908D01*
X267013Y84939D01*
X267119Y84970D01*
X267226Y85014D01*
X267339Y85071D01*
X267446Y85128D01*
X267552Y85197D01*
X267653Y85278D01*
X267659Y85285D01*
X267678Y85297D01*
X267703Y85322D01*
X267735Y85360D01*
X267772Y85404D01*
X267823Y85460D01*
X267866Y85523D01*
X267923Y85598D01*
X267973Y85680D01*
X268023Y85768D01*
X268074Y85862D01*
X268124Y85969D01*
X268162Y86082D01*
X268199Y86201D01*
X268231Y86333D01*
X268250Y86465D01*
X267176Y86597D01*
Y86591D01*
Y86578D01*
X267169Y86559D01*
X267163Y86528D01*
X267151Y86453D01*
X267119Y86365D01*
X267088Y86258D01*
X267038Y86157D01*
X266975Y86051D01*
X266899Y85963D01*
X266887Y85956D01*
X266862Y85931D01*
X266811Y85894D01*
X266749Y85856D01*
X266667Y85818D01*
X266573Y85781D01*
X266466Y85755D01*
X266353Y85749D01*
X266322D01*
X266297Y85755D01*
X266234Y85762D01*
X266152Y85781D01*
X266058Y85812D01*
X265964Y85856D01*
X265863Y85919D01*
X265769Y86007D01*
X265757Y86019D01*
X265731Y86057D01*
X265694Y86113D01*
X265650Y86195D01*
X265606Y86296D01*
X265568Y86415D01*
X265543Y86553D01*
X265530Y86710D01*
Y86716D01*
Y86729D01*
Y86748D01*
X265537Y86779D01*
Y86817D01*
X265543Y86854D01*
X265556Y86949D01*
X265587Y87055D01*
X265625Y87169D01*
X265681Y87275D01*
X265757Y87376D01*
X265769Y87388D01*
X265794Y87413D01*
X265844Y87457D01*
X265907Y87501D01*
X265989Y87545D01*
X266083Y87589D01*
X266190Y87614D01*
X266309Y87627D01*
X266347D01*
X266391Y87621D01*
X266454Y87614D01*
X266529Y87608D01*
X266611Y87589D01*
X266711Y87570D01*
X266818Y87539D01*
X266699Y88443D01*
X266623D01*
X266585Y88450D01*
X266542D01*
X266441Y88462D01*
X266328Y88481D01*
X266215Y88519D01*
X266108Y88569D01*
X266008Y88632D01*
X265995Y88644D01*
X265970Y88669D01*
X265932Y88713D01*
X265882Y88776D01*
X265838Y88858D01*
X265800Y88952D01*
X265775Y89059D01*
X265763Y89184D01*
Y89191D01*
Y89197D01*
Y89235D01*
X265769Y89285D01*
X265782Y89354D01*
X265807Y89423D01*
X265838Y89505D01*
X265882Y89580D01*
X265939Y89649D01*
X265945Y89655D01*
X265970Y89674D01*
X266008Y89706D01*
X266064Y89737D01*
X266133Y89768D01*
X266209Y89800D01*
X266303Y89819D01*
X266410Y89825D01*
X266460D01*
X266510Y89812D01*
X266579Y89800D01*
X266654Y89775D01*
X266736Y89743D01*
X266818Y89693D01*
X266899Y89624D01*
X266906Y89618D01*
X266931Y89586D01*
X266962Y89542D01*
X267006Y89480D01*
X267050Y89398D01*
X267088Y89304D01*
X267119Y89184D01*
X267144Y89052D01*
X268168Y89222D01*
Y89228D01*
X268162Y89247D01*
X268155Y89272D01*
X268149Y89310D01*
X268137Y89354D01*
X268124Y89404D01*
X268086Y89524D01*
X268042Y89662D01*
X267986Y89800D01*
X267923Y89938D01*
X267848Y90064D01*
Y90070D01*
X267835Y90076D01*
X267810Y90114D01*
X267760Y90177D01*
X267691Y90246D01*
X267609Y90327D01*
X267509Y90409D01*
X267389Y90491D01*
X267251Y90566D01*
X267245D01*
X267232Y90572D01*
X267213Y90585D01*
X267182Y90597D01*
X267144Y90610D01*
X267100Y90623D01*
X267050Y90641D01*
X266994Y90660D01*
X266868Y90692D01*
X266717Y90723D01*
X266554Y90742D01*
X266378Y90748D01*
X268250D01*
D02*
G37*
G36*
X279880Y89228D02*
X279836D01*
X279792Y89222D01*
X279723Y89216D01*
X279648Y89210D01*
X279554Y89197D01*
X279453Y89178D01*
X279346Y89153D01*
X279227Y89115D01*
X279108Y89078D01*
X278988Y89027D01*
X278863Y88964D01*
X278744Y88895D01*
X278624Y88814D01*
X278511Y88713D01*
X278404Y88607D01*
X278398Y88600D01*
X278379Y88575D01*
X278354Y88544D01*
X278323Y88494D01*
X278279Y88424D01*
X278235Y88343D01*
X278185Y88249D01*
X278134Y88142D01*
X278084Y88016D01*
X278040Y87872D01*
X277996Y87721D01*
X277958Y87551D01*
X277927Y87363D01*
X277902Y87162D01*
X277883Y86949D01*
Y86716D01*
X280665D01*
Y86710D01*
Y86698D01*
Y86666D01*
X280659Y86635D01*
X280653Y86591D01*
X280646Y86541D01*
X280627Y86434D01*
X280596Y86308D01*
X280552Y86176D01*
X280489Y86051D01*
X280401Y85938D01*
X280395D01*
X280389Y85925D01*
X280358Y85894D01*
X280301Y85850D01*
X280226Y85806D01*
X280131Y85755D01*
X280018Y85711D01*
X279893Y85680D01*
X279824Y85674D01*
X279755Y85668D01*
X279711D01*
X279667Y85674D01*
X279604Y85686D01*
X279535Y85699D01*
X279466Y85724D01*
X279390Y85762D01*
X279321Y85806D01*
X279315Y85812D01*
X279290Y85831D01*
X279258Y85869D01*
X279221Y85919D01*
X279170Y85982D01*
X279127Y86063D01*
X279083Y86157D01*
X279045Y86270D01*
X277940Y86082D01*
Y86076D01*
X277952Y86057D01*
X277965Y86026D01*
X277977Y85982D01*
X278003Y85931D01*
X278034Y85875D01*
X278065Y85806D01*
X278103Y85737D01*
X278197Y85586D01*
X278316Y85435D01*
X278455Y85285D01*
X278536Y85215D01*
X278618Y85153D01*
X278624Y85146D01*
X278637Y85140D01*
X278662Y85121D01*
X278699Y85102D01*
X278744Y85077D01*
X278800Y85052D01*
X278863Y85027D01*
X278932Y84996D01*
X279013Y84964D01*
X279101Y84939D01*
X279196Y84914D01*
X279296Y84889D01*
X279403Y84870D01*
X279522Y84851D01*
X279642Y84845D01*
X279767Y84839D01*
X277883D01*
X281802D01*
Y87043D01*
X281796Y87099D01*
Y87169D01*
X281783Y87256D01*
X281770Y87363D01*
X281758Y87470D01*
X281733Y87595D01*
X281708Y87721D01*
X281670Y87853D01*
X281626Y87991D01*
X281576Y88129D01*
X281513Y88261D01*
X281438Y88393D01*
X281356Y88519D01*
X281262Y88632D01*
X281256Y88638D01*
X281237Y88657D01*
X281205Y88688D01*
X281161Y88726D01*
X281111Y88770D01*
X281042Y88820D01*
X280967Y88877D01*
X280885Y88933D01*
X280791Y88983D01*
X280684Y89040D01*
X280571Y89090D01*
X280445Y89134D01*
X280320Y89172D01*
X280182Y89203D01*
X280031Y89222D01*
X279880Y89228D01*
D02*
G37*
G36*
X277519Y89134D02*
D01*
Y85096D01*
Y89134D01*
D02*
G37*
G36*
X287316Y90729D02*
X282103D01*
D01*
X284703D01*
X284628Y90723D01*
X284540D01*
X284439Y90717D01*
X284339Y90710D01*
X284113Y90692D01*
X283893Y90660D01*
X283786Y90648D01*
X283680Y90623D01*
X283585Y90597D01*
X283504Y90572D01*
X283498D01*
X283485Y90566D01*
X283466Y90553D01*
X283435Y90541D01*
X283397Y90522D01*
X283359Y90503D01*
X283259Y90447D01*
X283152Y90365D01*
X283045Y90271D01*
X282932Y90152D01*
X282832Y90013D01*
Y90007D01*
X282819Y89995D01*
X282807Y89976D01*
X282794Y89944D01*
X282769Y89907D01*
X282750Y89863D01*
X282725Y89806D01*
X282700Y89749D01*
X282656Y89618D01*
X282612Y89461D01*
X282587Y89291D01*
X282574Y89103D01*
Y89096D01*
Y89071D01*
Y89040D01*
X282581Y88996D01*
X282587Y88939D01*
X282593Y88877D01*
X282606Y88801D01*
X282625Y88726D01*
X282668Y88550D01*
X282700Y88462D01*
X282738Y88374D01*
X282782Y88280D01*
X282832Y88192D01*
X282888Y88104D01*
X282957Y88023D01*
X282964Y88016D01*
X282976Y88004D01*
X282995Y87985D01*
X283027Y87954D01*
X283070Y87922D01*
X283121Y87884D01*
X283177Y87840D01*
X283246Y87796D01*
X283322Y87746D01*
X283403Y87702D01*
X283498Y87658D01*
X283604Y87614D01*
X283717Y87577D01*
X283837Y87539D01*
X283968Y87508D01*
X284107Y87483D01*
X284100D01*
X284088Y87470D01*
X284069Y87464D01*
X284044Y87445D01*
X283975Y87401D01*
X283887Y87338D01*
X283786Y87269D01*
X283680Y87187D01*
X283573Y87093D01*
X283479Y86999D01*
X283466Y86986D01*
X283453Y86967D01*
X283435Y86949D01*
X283410Y86917D01*
X283378Y86880D01*
X283341Y86836D01*
X283303Y86785D01*
X283259Y86723D01*
X283209Y86654D01*
X283152Y86578D01*
X283096Y86490D01*
X283033Y86396D01*
X282964Y86289D01*
X282888Y86182D01*
X282813Y86057D01*
X282103Y84933D01*
X283504D01*
X284351Y86195D01*
X284358Y86201D01*
X284370Y86226D01*
X284396Y86258D01*
X284427Y86302D01*
X284458Y86358D01*
X284502Y86415D01*
X284596Y86553D01*
X284703Y86698D01*
X284804Y86836D01*
X284854Y86898D01*
X284898Y86955D01*
X284936Y87005D01*
X284973Y87043D01*
X284980Y87049D01*
X284998Y87074D01*
X285036Y87099D01*
X285080Y87137D01*
X285130Y87181D01*
X285193Y87219D01*
X285256Y87256D01*
X285325Y87282D01*
X285331Y87288D01*
X285363Y87294D01*
X285407Y87307D01*
X285469Y87319D01*
X285551Y87332D01*
X285651Y87338D01*
X285771Y87351D01*
X286148D01*
Y84933D01*
X287316D01*
Y90729D01*
D02*
G37*
G36*
X277519Y89134D02*
X273161D01*
D01*
X274831Y84933D01*
X275830D01*
X277519Y89134D01*
D02*
G37*
G36*
X272715Y90748D02*
X268953D01*
X270799D01*
X270755Y90742D01*
X270699D01*
X270630Y90729D01*
X270548Y90717D01*
X270454Y90698D01*
X270353Y90673D01*
X270253Y90641D01*
X270146Y90604D01*
X270033Y90553D01*
X269926Y90497D01*
X269820Y90428D01*
X269713Y90346D01*
X269612Y90252D01*
X269518Y90145D01*
X269512Y90139D01*
X269493Y90114D01*
X269468Y90070D01*
X269430Y90007D01*
X269386Y89932D01*
X269336Y89831D01*
X269286Y89718D01*
X269236Y89580D01*
X269185Y89429D01*
X269129Y89253D01*
X269085Y89059D01*
X269041Y88845D01*
X269003Y88613D01*
X268978Y88355D01*
X268959Y88079D01*
X268953Y87784D01*
Y87671D01*
X268959Y87627D01*
Y87577D01*
Y87514D01*
X268972Y87382D01*
X268984Y87225D01*
X269003Y87055D01*
X269022Y86873D01*
X269054Y86679D01*
X269091Y86484D01*
X269141Y86283D01*
X269192Y86088D01*
X269261Y85906D01*
X269336Y85724D01*
X269424Y85561D01*
X269525Y85416D01*
X269531Y85410D01*
X269543Y85391D01*
X269575Y85360D01*
X269612Y85322D01*
X269656Y85278D01*
X269719Y85228D01*
X269788Y85178D01*
X269864Y85121D01*
X269952Y85065D01*
X270052Y85014D01*
X270159Y84964D01*
X270278Y84920D01*
X270404Y84883D01*
X270542Y84851D01*
X270686Y84832D01*
X270837Y84826D01*
X270875D01*
X270919Y84832D01*
X270975Y84839D01*
X271051Y84845D01*
X271132Y84857D01*
X271226Y84883D01*
X271327Y84908D01*
X271434Y84939D01*
X271540Y84983D01*
X271653Y85040D01*
X271766Y85096D01*
X271880Y85171D01*
X271992Y85259D01*
X272099Y85360D01*
X272200Y85473D01*
X272206Y85479D01*
X272219Y85504D01*
X272250Y85542D01*
X272281Y85598D01*
X272319Y85674D01*
X272363Y85768D01*
X272407Y85881D01*
X272457Y86007D01*
X272508Y86157D01*
X272551Y86327D01*
X272595Y86515D01*
X272633Y86729D01*
X272664Y86961D01*
X272690Y87219D01*
X272708Y87495D01*
X272715Y87796D01*
Y87910D01*
X272708Y87954D01*
Y88004D01*
Y88060D01*
X272696Y88198D01*
X272683Y88349D01*
X272664Y88519D01*
X272646Y88701D01*
X272614Y88895D01*
X272576Y89090D01*
X272533Y89285D01*
X272476Y89480D01*
X272413Y89668D01*
X272338Y89844D01*
X272250Y90007D01*
X272149Y90152D01*
X272143Y90158D01*
X272124Y90177D01*
X272099Y90208D01*
X272062Y90246D01*
X272011Y90290D01*
X271955Y90340D01*
X271886Y90396D01*
X271810Y90453D01*
X271723Y90503D01*
X271622Y90560D01*
X271515Y90610D01*
X271396Y90654D01*
X271270Y90692D01*
X271132Y90723D01*
X270988Y90742D01*
X270837Y90748D01*
X272715D01*
D01*
D02*
G37*
G36*
X268250D02*
Y84826D01*
X268953D01*
D01*
X268250D01*
Y90748D01*
D02*
G37*
G36*
X269232Y83667D02*
X265414D01*
X268121D01*
Y81532D01*
X268115Y81538D01*
X268096Y81557D01*
X268064Y81588D01*
X268027Y81632D01*
X267976Y81676D01*
X267914Y81732D01*
X267838Y81789D01*
X267763Y81852D01*
X267669Y81908D01*
X267575Y81965D01*
X267468Y82021D01*
X267355Y82065D01*
X267235Y82109D01*
X267110Y82141D01*
X266978Y82160D01*
X266840Y82166D01*
X266777D01*
X266739Y82160D01*
X266702D01*
X266607Y82147D01*
X266501Y82128D01*
X266388Y82103D01*
X266268Y82072D01*
X266149Y82021D01*
X266143D01*
X266136Y82015D01*
X266099Y81996D01*
X266042Y81965D01*
X265973Y81921D01*
X265904Y81871D01*
X265822Y81808D01*
X265753Y81739D01*
X265690Y81657D01*
X265684Y81645D01*
X265665Y81620D01*
X265640Y81576D01*
X265603Y81513D01*
X265571Y81444D01*
X265533Y81356D01*
X265502Y81268D01*
X265477Y81167D01*
Y81155D01*
X265471Y81136D01*
X265464Y81117D01*
Y81086D01*
X265458Y81054D01*
X265452Y81010D01*
X265446Y80960D01*
X265439Y80910D01*
X265433Y80847D01*
X265427Y80778D01*
Y80703D01*
X265421Y80621D01*
X265414Y80533D01*
Y77870D01*
X266526D01*
Y80087D01*
Y80093D01*
Y80119D01*
Y80150D01*
Y80194D01*
Y80244D01*
X266532Y80307D01*
Y80439D01*
X266545Y80583D01*
X266557Y80715D01*
X266563Y80778D01*
X266570Y80835D01*
X266582Y80885D01*
X266595Y80922D01*
Y80929D01*
X266607Y80954D01*
X266620Y80985D01*
X266645Y81029D01*
X266676Y81073D01*
X266714Y81123D01*
X266758Y81167D01*
X266815Y81211D01*
X266821Y81217D01*
X266840Y81230D01*
X266877Y81243D01*
X266921Y81268D01*
X266984Y81287D01*
X267053Y81299D01*
X267129Y81312D01*
X267217Y81318D01*
X267261D01*
X267317Y81312D01*
X267380Y81299D01*
X267461Y81287D01*
X267543Y81261D01*
X267631Y81224D01*
X267713Y81180D01*
X267719Y81174D01*
X267750Y81155D01*
X267788Y81123D01*
X267832Y81079D01*
X267882Y81023D01*
X267933Y80954D01*
X267983Y80866D01*
X268027Y80772D01*
X268033Y80759D01*
Y80747D01*
X268039Y80721D01*
X268058Y80659D01*
X268071Y80571D01*
X268090Y80458D01*
X268108Y80319D01*
X268115Y80163D01*
X268121Y79974D01*
Y77870D01*
X269232D01*
Y83667D01*
D02*
G37*
G36*
X259787Y82166D02*
Y82072D01*
X258757D01*
Y81450D01*
X258751Y81456D01*
X258732Y81481D01*
X258701Y81519D01*
X258657Y81563D01*
X258607Y81613D01*
X258538Y81676D01*
X258469Y81739D01*
X258381Y81808D01*
X258286Y81877D01*
X258180Y81940D01*
X258067Y82003D01*
X257947Y82053D01*
X257815Y82103D01*
X257677Y82134D01*
X257533Y82160D01*
X257382Y82166D01*
X259787D01*
X255969D01*
X257319D01*
X257250Y82160D01*
X257156Y82147D01*
X257055Y82134D01*
X256943Y82109D01*
X256823Y82072D01*
X256710Y82028D01*
X256704D01*
X256698Y82021D01*
X256660Y82003D01*
X256603Y81977D01*
X256541Y81933D01*
X256465Y81889D01*
X256390Y81827D01*
X256314Y81764D01*
X256252Y81688D01*
X256245Y81682D01*
X256227Y81651D01*
X256201Y81613D01*
X256164Y81557D01*
X256126Y81488D01*
X256095Y81406D01*
X256057Y81318D01*
X256032Y81224D01*
Y81211D01*
X256019Y81174D01*
X256013Y81117D01*
X256000Y81035D01*
X255988Y80929D01*
X255982Y80803D01*
X255969Y80652D01*
Y77870D01*
X257081D01*
Y80012D01*
Y80018D01*
Y80043D01*
Y80075D01*
Y80125D01*
Y80175D01*
X257087Y80238D01*
Y80376D01*
X257100Y80527D01*
X257112Y80671D01*
X257118Y80740D01*
X257131Y80797D01*
X257143Y80847D01*
X257156Y80891D01*
Y80897D01*
X257169Y80922D01*
X257187Y80960D01*
X257212Y81004D01*
X257244Y81054D01*
X257282Y81111D01*
X257332Y81161D01*
X257388Y81205D01*
X257395Y81211D01*
X257414Y81224D01*
X257451Y81243D01*
X257495Y81261D01*
X257552Y81280D01*
X257614Y81299D01*
X257683Y81312D01*
X257765Y81318D01*
X257815D01*
X257866Y81312D01*
X257941Y81299D01*
X258016Y81280D01*
X258104Y81249D01*
X258198Y81211D01*
X258286Y81155D01*
X258299Y81148D01*
X258324Y81123D01*
X258362Y81092D01*
X258412Y81042D01*
X258462Y80985D01*
X258512Y80910D01*
X258556Y80828D01*
X258594Y80734D01*
X258600Y80721D01*
Y80709D01*
X258607Y80684D01*
X258613Y80652D01*
X258619Y80615D01*
X258626Y80571D01*
X258632Y80520D01*
X258644Y80458D01*
X258651Y80389D01*
X258657Y80307D01*
X258663Y80219D01*
X258669Y80125D01*
Y80018D01*
X258676Y79899D01*
Y79773D01*
Y77870D01*
X257878D01*
X259787D01*
Y82166D01*
D02*
G37*
G36*
X290208Y82166D02*
X286264D01*
D01*
X288148D01*
X288091Y82160D01*
X288016D01*
X287941Y82153D01*
X287853Y82141D01*
X287670Y82122D01*
X287488Y82091D01*
X287313Y82047D01*
X287237Y82015D01*
X287162Y81984D01*
X287156D01*
X287143Y81977D01*
X287124Y81965D01*
X287105Y81952D01*
X287036Y81915D01*
X286961Y81864D01*
X286873Y81795D01*
X286791Y81720D01*
X286710Y81632D01*
X286647Y81538D01*
X286641Y81525D01*
X286634Y81506D01*
X286622Y81488D01*
X286609Y81456D01*
X286597Y81412D01*
X286584Y81368D01*
X286572Y81312D01*
X286559Y81249D01*
X286546Y81180D01*
X286534Y81098D01*
X286521Y81004D01*
X286509Y80904D01*
X286502Y80797D01*
X286496Y80677D01*
Y80546D01*
X286515Y79246D01*
Y79239D01*
Y79220D01*
Y79195D01*
Y79158D01*
Y79107D01*
Y79057D01*
X286509Y78938D01*
X286502Y78806D01*
X286496Y78668D01*
X286484Y78542D01*
X286471Y78479D01*
X286465Y78429D01*
Y78417D01*
X286452Y78385D01*
X286440Y78329D01*
X286421Y78260D01*
X286396Y78178D01*
X286358Y78084D01*
X286314Y77977D01*
X286264Y77870D01*
X287363D01*
Y77877D01*
X287369Y77889D01*
X287382Y77914D01*
X287394Y77952D01*
X287407Y77996D01*
X287432Y78052D01*
X287451Y78122D01*
X287476Y78197D01*
Y78203D01*
X287482Y78216D01*
X287488Y78253D01*
X287501Y78297D01*
X287507Y78316D01*
X287513Y78329D01*
X287526Y78316D01*
X287564Y78285D01*
X287620Y78234D01*
X287696Y78172D01*
X287784Y78109D01*
X287890Y78040D01*
X288003Y77971D01*
X288123Y77914D01*
X288129D01*
X288135Y77908D01*
X288154Y77902D01*
X288179Y77895D01*
X288242Y77870D01*
X288330Y77845D01*
X288430Y77820D01*
X288550Y77795D01*
X288675Y77782D01*
X288813Y77776D01*
X288876D01*
X288920Y77782D01*
X288977Y77789D01*
X289040Y77795D01*
X289109Y77807D01*
X289184Y77820D01*
X289347Y77858D01*
X289517Y77921D01*
X289605Y77965D01*
X289686Y78009D01*
X289762Y78059D01*
X289837Y78122D01*
X289843Y78128D01*
X289856Y78140D01*
X289868Y78159D01*
X289894Y78184D01*
X289925Y78222D01*
X289956Y78260D01*
X289988Y78310D01*
X290019Y78366D01*
X290057Y78429D01*
X290088Y78492D01*
X290151Y78649D01*
X290176Y78731D01*
X290189Y78819D01*
X290201Y78913D01*
X290208Y79013D01*
Y78084D01*
Y79076D01*
X290201Y79139D01*
X290189Y79227D01*
X290164Y79327D01*
X290139Y79434D01*
X290095Y79541D01*
X290038Y79647D01*
Y79654D01*
X290032Y79660D01*
X290007Y79691D01*
X289969Y79742D01*
X289913Y79804D01*
X289850Y79874D01*
X289768Y79943D01*
X289674Y80012D01*
X289567Y80068D01*
X289561D01*
X289555Y80075D01*
X289536Y80081D01*
X289511Y80093D01*
X289479Y80106D01*
X289441Y80125D01*
X289391Y80137D01*
X289341Y80156D01*
X289284Y80175D01*
X289215Y80200D01*
X289140Y80219D01*
X289065Y80244D01*
X288977Y80263D01*
X288883Y80288D01*
X288788Y80313D01*
X288682Y80332D01*
X288675D01*
X288650Y80338D01*
X288606Y80345D01*
X288556Y80357D01*
X288493Y80370D01*
X288418Y80382D01*
X288336Y80401D01*
X288248Y80420D01*
X288072Y80464D01*
X287890Y80508D01*
X287809Y80533D01*
X287727Y80558D01*
X287658Y80583D01*
X287595Y80608D01*
Y80715D01*
Y80721D01*
Y80728D01*
Y80772D01*
X287601Y80828D01*
X287614Y80897D01*
X287633Y80973D01*
X287664Y81048D01*
X287702Y81123D01*
X287758Y81180D01*
X287765Y81186D01*
X287790Y81199D01*
X287834Y81224D01*
X287890Y81249D01*
X287972Y81274D01*
X288079Y81299D01*
X288141Y81305D01*
X288204Y81312D01*
X288280Y81318D01*
X288412D01*
X288468Y81312D01*
X288531Y81305D01*
X288606Y81287D01*
X288688Y81268D01*
X288763Y81236D01*
X288832Y81199D01*
X288839Y81192D01*
X288857Y81174D01*
X288889Y81148D01*
X288927Y81104D01*
X288970Y81048D01*
X289014Y80973D01*
X289058Y80885D01*
X289096Y80784D01*
X290095Y80966D01*
Y80973D01*
X290088Y80992D01*
X290076Y81023D01*
X290063Y81067D01*
X290044Y81117D01*
X290019Y81174D01*
X289956Y81305D01*
X289875Y81456D01*
X289774Y81607D01*
X289655Y81745D01*
X289586Y81814D01*
X289511Y81871D01*
X289504Y81877D01*
X289492Y81883D01*
X289467Y81896D01*
X289435Y81915D01*
X289391Y81940D01*
X289335Y81965D01*
X289272Y81990D01*
X289203Y82021D01*
X289115Y82047D01*
X289027Y82072D01*
X288927Y82097D01*
X288813Y82122D01*
X288694Y82141D01*
X288562Y82153D01*
X288424Y82166D01*
X290208D01*
D01*
D02*
G37*
G36*
X285705D02*
X281761D01*
Y77776D01*
D01*
Y77870D01*
D01*
D01*
D01*
X282860D01*
Y77877D01*
X282866Y77889D01*
X282879Y77914D01*
X282891Y77952D01*
X282904Y77996D01*
X282929Y78052D01*
X282948Y78122D01*
X282973Y78197D01*
Y78203D01*
X282979Y78216D01*
X282986Y78253D01*
X282998Y78297D01*
X283004Y78316D01*
X283011Y78329D01*
X283023Y78316D01*
X283061Y78285D01*
X283118Y78234D01*
X283193Y78172D01*
X283281Y78109D01*
X283388Y78040D01*
X283501Y77971D01*
X283620Y77914D01*
X283626D01*
X283632Y77908D01*
X283651Y77902D01*
X283676Y77895D01*
X283739Y77870D01*
X283827Y77845D01*
X283928Y77820D01*
X284047Y77795D01*
X284173Y77782D01*
X284311Y77776D01*
X284374D01*
X284418Y77782D01*
X284474Y77789D01*
X284537Y77795D01*
X284606Y77807D01*
X284681Y77820D01*
X284844Y77858D01*
X285014Y77921D01*
X285102Y77965D01*
X285184Y78009D01*
X285259Y78059D01*
X285334Y78122D01*
X285341Y78128D01*
X285353Y78140D01*
X285366Y78159D01*
X285391Y78184D01*
X285422Y78222D01*
X285454Y78260D01*
X285485Y78310D01*
X285517Y78366D01*
X285554Y78429D01*
X285586Y78492D01*
X285648Y78649D01*
X285673Y78731D01*
X285686Y78819D01*
X285699Y78913D01*
X285705Y79013D01*
Y78586D01*
Y79076D01*
X285699Y79139D01*
X285686Y79227D01*
X285661Y79327D01*
X285636Y79434D01*
X285592Y79541D01*
X285535Y79647D01*
Y79654D01*
X285529Y79660D01*
X285504Y79691D01*
X285466Y79742D01*
X285410Y79804D01*
X285347Y79874D01*
X285265Y79943D01*
X285171Y80012D01*
X285064Y80068D01*
X285058D01*
X285052Y80075D01*
X285033Y80081D01*
X285008Y80093D01*
X284976Y80106D01*
X284939Y80125D01*
X284889Y80137D01*
X284838Y80156D01*
X284782Y80175D01*
X284713Y80200D01*
X284637Y80219D01*
X284562Y80244D01*
X284474Y80263D01*
X284380Y80288D01*
X284286Y80313D01*
X284179Y80332D01*
X284173D01*
X284147Y80338D01*
X284103Y80345D01*
X284053Y80357D01*
X283990Y80370D01*
X283915Y80382D01*
X283833Y80401D01*
X283746Y80420D01*
X283570Y80464D01*
X283388Y80508D01*
X283306Y80533D01*
X283224Y80558D01*
X283155Y80583D01*
X283092Y80608D01*
Y80715D01*
Y80721D01*
Y80728D01*
Y80772D01*
X283099Y80828D01*
X283111Y80897D01*
X283130Y80973D01*
X283161Y81048D01*
X283199Y81123D01*
X283256Y81180D01*
X283262Y81186D01*
X283287Y81199D01*
X283331Y81224D01*
X283388Y81249D01*
X283469Y81274D01*
X283576Y81299D01*
X283639Y81305D01*
X283702Y81312D01*
X283777Y81318D01*
X283909D01*
X283965Y81312D01*
X284028Y81305D01*
X284103Y81287D01*
X284185Y81268D01*
X284261Y81236D01*
X284330Y81199D01*
X284336Y81192D01*
X284355Y81174D01*
X284386Y81148D01*
X284424Y81104D01*
X284468Y81048D01*
X284512Y80973D01*
X284556Y80885D01*
X284593Y80784D01*
X285592Y80966D01*
Y80973D01*
X285586Y80992D01*
X285573Y81023D01*
X285560Y81067D01*
X285542Y81117D01*
X285517Y81174D01*
X285454Y81305D01*
X285372Y81456D01*
X285272Y81607D01*
X285152Y81745D01*
X285083Y81814D01*
X285008Y81871D01*
X285001Y81877D01*
X284989Y81883D01*
X284964Y81896D01*
X284932Y81915D01*
X284889Y81940D01*
X284832Y81965D01*
X284769Y81990D01*
X284700Y82021D01*
X284612Y82047D01*
X284524Y82072D01*
X284424Y82097D01*
X284311Y82122D01*
X284191Y82141D01*
X284060Y82153D01*
X283921Y82166D01*
X285705D01*
D02*
G37*
G36*
X264573D02*
X260629D01*
D01*
X262513D01*
X262456Y82160D01*
X262381D01*
X262306Y82153D01*
X262218Y82141D01*
X262036Y82122D01*
X261853Y82091D01*
X261678Y82047D01*
X261602Y82015D01*
X261527Y81984D01*
X261521D01*
X261508Y81977D01*
X261489Y81965D01*
X261470Y81952D01*
X261401Y81915D01*
X261326Y81864D01*
X261238Y81795D01*
X261156Y81720D01*
X261075Y81632D01*
X261012Y81538D01*
X261006Y81525D01*
X260999Y81506D01*
X260987Y81488D01*
X260974Y81456D01*
X260962Y81412D01*
X260949Y81368D01*
X260937Y81312D01*
X260924Y81249D01*
X260911Y81180D01*
X260899Y81098D01*
X260886Y81004D01*
X260874Y80904D01*
X260868Y80797D01*
X260861Y80677D01*
Y80546D01*
X260880Y79246D01*
Y79239D01*
Y79220D01*
Y79195D01*
Y79158D01*
Y79107D01*
Y79057D01*
X260874Y78938D01*
X260868Y78806D01*
X260861Y78668D01*
X260849Y78542D01*
X260836Y78479D01*
X260830Y78429D01*
Y78417D01*
X260817Y78385D01*
X260805Y78329D01*
X260786Y78260D01*
X260761Y78178D01*
X260723Y78084D01*
X260679Y77977D01*
X260629Y77870D01*
X261728D01*
Y77877D01*
X261734Y77889D01*
X261747Y77914D01*
X261759Y77952D01*
X261772Y77996D01*
X261797Y78052D01*
X261816Y78122D01*
X261841Y78197D01*
Y78203D01*
X261847Y78216D01*
X261853Y78253D01*
X261866Y78297D01*
X261872Y78316D01*
X261879Y78329D01*
X261891Y78316D01*
X261929Y78285D01*
X261985Y78234D01*
X262061Y78172D01*
X262149Y78109D01*
X262255Y78040D01*
X262368Y77971D01*
X262488Y77914D01*
X262494D01*
X262500Y77908D01*
X262519Y77902D01*
X262544Y77895D01*
X262607Y77870D01*
X262695Y77845D01*
X262795Y77820D01*
X262915Y77795D01*
X263040Y77782D01*
X263178Y77776D01*
X263241D01*
X263285Y77782D01*
X263342Y77789D01*
X263405Y77795D01*
X263474Y77807D01*
X263549Y77820D01*
X263712Y77858D01*
X263882Y77921D01*
X263970Y77965D01*
X264051Y78009D01*
X264127Y78059D01*
X264202Y78122D01*
X264208Y78128D01*
X264221Y78140D01*
X264234Y78159D01*
X264259Y78184D01*
X264290Y78222D01*
X264321Y78260D01*
X264353Y78310D01*
X264384Y78366D01*
X264422Y78429D01*
X264453Y78492D01*
X264516Y78649D01*
X264541Y78731D01*
X264554Y78819D01*
X264566Y78913D01*
X264573Y79013D01*
Y79076D01*
X264566Y79139D01*
X264554Y79227D01*
X264529Y79327D01*
X264504Y79434D01*
X264460Y79541D01*
X264403Y79647D01*
Y79654D01*
X264397Y79660D01*
X264372Y79691D01*
X264334Y79742D01*
X264278Y79804D01*
X264215Y79874D01*
X264133Y79943D01*
X264039Y80012D01*
X263932Y80068D01*
X263926D01*
X263920Y80075D01*
X263901Y80081D01*
X263876Y80093D01*
X263844Y80106D01*
X263807Y80125D01*
X263756Y80137D01*
X263706Y80156D01*
X263650Y80175D01*
X263580Y80200D01*
X263505Y80219D01*
X263430Y80244D01*
X263342Y80263D01*
X263248Y80288D01*
X263153Y80313D01*
X263047Y80332D01*
X263040D01*
X263015Y80338D01*
X262971Y80345D01*
X262921Y80357D01*
X262858Y80370D01*
X262783Y80382D01*
X262701Y80401D01*
X262613Y80420D01*
X262438Y80464D01*
X262255Y80508D01*
X262174Y80533D01*
X262092Y80558D01*
X262023Y80583D01*
X261960Y80608D01*
Y80715D01*
Y80721D01*
Y80728D01*
Y80772D01*
X261966Y80828D01*
X261979Y80897D01*
X261998Y80973D01*
X262029Y81048D01*
X262067Y81123D01*
X262123Y81180D01*
X262130Y81186D01*
X262155Y81199D01*
X262199Y81224D01*
X262255Y81249D01*
X262337Y81274D01*
X262444Y81299D01*
X262507Y81305D01*
X262569Y81312D01*
X262645Y81318D01*
X262777D01*
X262833Y81312D01*
X262896Y81305D01*
X262971Y81287D01*
X263053Y81268D01*
X263128Y81236D01*
X263197Y81199D01*
X263204Y81192D01*
X263223Y81174D01*
X263254Y81148D01*
X263292Y81104D01*
X263335Y81048D01*
X263380Y80973D01*
X263423Y80885D01*
X263461Y80784D01*
X264460Y80966D01*
Y80973D01*
X264453Y80992D01*
X264441Y81023D01*
X264428Y81067D01*
X264409Y81117D01*
X264384Y81174D01*
X264321Y81305D01*
X264240Y81456D01*
X264139Y81607D01*
X264020Y81745D01*
X263951Y81814D01*
X263876Y81871D01*
X263869Y81877D01*
X263857Y81883D01*
X263832Y81896D01*
X263800Y81915D01*
X263756Y81940D01*
X263700Y81965D01*
X263637Y81990D01*
X263568Y82021D01*
X263480Y82047D01*
X263392Y82072D01*
X263292Y82097D01*
X263178Y82122D01*
X263059Y82141D01*
X262927Y82153D01*
X262789Y82166D01*
X264573D01*
D01*
D02*
G37*
G36*
X295740Y83667D02*
X290515D01*
D01*
X290628D01*
X292820Y81412D01*
X290515Y77870D01*
X292029D01*
X293630Y80589D01*
X294572Y79616D01*
Y77870D01*
X295740D01*
Y83667D01*
D02*
G37*
G36*
X280920Y82166D02*
X277101D01*
X278451D01*
X278382Y82160D01*
X278288Y82147D01*
X278188Y82134D01*
X278075Y82109D01*
X277955Y82072D01*
X277842Y82028D01*
X277836D01*
X277830Y82021D01*
X277792Y82003D01*
X277736Y81977D01*
X277673Y81933D01*
X277597Y81889D01*
X277522Y81827D01*
X277447Y81764D01*
X277384Y81688D01*
X277378Y81682D01*
X277359Y81651D01*
X277334Y81613D01*
X277296Y81557D01*
X277258Y81488D01*
X277227Y81406D01*
X277189Y81318D01*
X277164Y81224D01*
Y81211D01*
X277151Y81174D01*
X277145Y81117D01*
X277133Y81035D01*
X277120Y80929D01*
X277114Y80803D01*
X277101Y80652D01*
Y77870D01*
X278213D01*
Y80012D01*
Y80018D01*
Y80043D01*
Y80075D01*
Y80125D01*
Y80175D01*
X278219Y80238D01*
Y80376D01*
X278232Y80527D01*
X278244Y80671D01*
X278251Y80740D01*
X278263Y80797D01*
X278276Y80847D01*
X278288Y80891D01*
Y80897D01*
X278301Y80922D01*
X278320Y80960D01*
X278345Y81004D01*
X278376Y81054D01*
X278414Y81111D01*
X278464Y81161D01*
X278521Y81205D01*
X278527Y81211D01*
X278546Y81224D01*
X278583Y81243D01*
X278627Y81261D01*
X278684Y81280D01*
X278747Y81299D01*
X278816Y81312D01*
X278897Y81318D01*
X278948D01*
X278998Y81312D01*
X279073Y81299D01*
X279149Y81280D01*
X279237Y81249D01*
X279331Y81211D01*
X279419Y81155D01*
X279431Y81148D01*
X279456Y81123D01*
X279494Y81092D01*
X279544Y81042D01*
X279594Y80985D01*
X279645Y80910D01*
X279689Y80828D01*
X279726Y80734D01*
X279733Y80721D01*
Y80709D01*
X279739Y80684D01*
X279745Y80652D01*
X279751Y80615D01*
X279758Y80571D01*
X279764Y80520D01*
X279777Y80458D01*
X279783Y80389D01*
X279789Y80307D01*
X279795Y80219D01*
X279802Y80125D01*
Y80018D01*
X279808Y79899D01*
Y79773D01*
Y77870D01*
X280920D01*
Y82072D01*
X279890D01*
Y81450D01*
X279883Y81456D01*
X279865Y81481D01*
X279833Y81519D01*
X279789Y81563D01*
X279739Y81613D01*
X279670Y81676D01*
X279601Y81739D01*
X279513Y81808D01*
X279419Y81877D01*
X279312Y81940D01*
X279199Y82003D01*
X279080Y82053D01*
X278948Y82103D01*
X278809Y82134D01*
X278665Y82160D01*
X278514Y82166D01*
X280920D01*
D01*
D02*
G37*
G36*
X273748Y83667D02*
X272580D01*
Y77870D01*
X273748D01*
Y83667D01*
D02*
G37*
G36*
X271468D02*
X270357D01*
Y77870D01*
X271468D01*
Y83667D01*
D02*
G37*
G36*
X270074Y75028D02*
Y75022D01*
D01*
Y75028D01*
D02*
G37*
G36*
X270677Y74846D02*
D01*
D01*
D01*
D02*
G37*
G36*
X279080Y76541D02*
X275186D01*
X276944D01*
X276882Y76535D01*
X276812Y76529D01*
X276731Y76516D01*
X276637Y76504D01*
X276536Y76485D01*
X276429Y76460D01*
X276323Y76428D01*
X276209Y76391D01*
X276097Y76347D01*
X275990Y76290D01*
X275883Y76227D01*
X275776Y76158D01*
X275682Y76077D01*
X275676Y76070D01*
X275663Y76058D01*
X275638Y76026D01*
X275607Y75995D01*
X275569Y75951D01*
X275525Y75895D01*
X275481Y75832D01*
X275431Y75756D01*
X275387Y75681D01*
X275343Y75593D01*
X275299Y75499D01*
X275261Y75398D01*
X275230Y75286D01*
X275205Y75172D01*
X275192Y75053D01*
X275186Y74928D01*
Y74946D01*
Y70726D01*
X279080D01*
Y70732D01*
X279073Y70751D01*
Y70783D01*
X279067Y70827D01*
X279054Y70877D01*
X279042Y70940D01*
X279029Y71009D01*
X279010Y71084D01*
X278960Y71254D01*
X278891Y71442D01*
X278809Y71637D01*
X278703Y71831D01*
X278696Y71838D01*
X278690Y71857D01*
X278665Y71888D01*
X278640Y71926D01*
X278602Y71976D01*
X278552Y72045D01*
X278495Y72114D01*
X278426Y72202D01*
X278351Y72296D01*
X278257Y72397D01*
X278156Y72516D01*
X278043Y72635D01*
X277918Y72767D01*
X277773Y72912D01*
X277623Y73062D01*
X277453Y73219D01*
X277447Y73226D01*
X277422Y73251D01*
X277384Y73288D01*
X277334Y73332D01*
X277271Y73389D01*
X277208Y73452D01*
X277133Y73527D01*
X277057Y73602D01*
X276894Y73759D01*
X276743Y73916D01*
X276680Y73985D01*
X276618Y74055D01*
X276568Y74117D01*
X276530Y74168D01*
Y74174D01*
X276517Y74180D01*
X276511Y74199D01*
X276492Y74224D01*
X276454Y74293D01*
X276411Y74381D01*
X276373Y74482D01*
X276335Y74595D01*
X276310Y74720D01*
X276297Y74846D01*
Y74852D01*
Y74865D01*
Y74884D01*
Y74909D01*
X276310Y74971D01*
X276323Y75059D01*
X276348Y75147D01*
X276379Y75242D01*
X276429Y75336D01*
X276498Y75417D01*
X276505Y75424D01*
X276536Y75449D01*
X276580Y75480D01*
X276643Y75518D01*
X276725Y75555D01*
X276819Y75587D01*
X276925Y75612D01*
X277051Y75618D01*
X277108D01*
X277170Y75606D01*
X277252Y75593D01*
X277340Y75568D01*
X277434Y75530D01*
X277528Y75474D01*
X277610Y75405D01*
X277616Y75392D01*
X277641Y75367D01*
X277673Y75317D01*
X277717Y75242D01*
X277754Y75147D01*
X277792Y75028D01*
X277823Y74884D01*
X277836Y74802D01*
X277842Y74714D01*
X278948Y74821D01*
Y74833D01*
X278941Y74858D01*
X278935Y74909D01*
X278923Y74971D01*
X278910Y75047D01*
X278891Y75135D01*
X278866Y75229D01*
X278835Y75329D01*
X278797Y75436D01*
X278753Y75543D01*
X278703Y75656D01*
X278646Y75763D01*
X278583Y75870D01*
X278508Y75970D01*
X278426Y76058D01*
X278332Y76139D01*
X278326Y76146D01*
X278307Y76158D01*
X278276Y76177D01*
X278238Y76202D01*
X278188Y76234D01*
X278125Y76265D01*
X278056Y76303D01*
X277974Y76341D01*
X277880Y76378D01*
X277786Y76416D01*
X277679Y76447D01*
X277560Y76479D01*
X277440Y76504D01*
X277309Y76523D01*
X277170Y76535D01*
X277026Y76541D01*
X279080D01*
D01*
D02*
G37*
G36*
X270074D02*
X266180D01*
X267939D01*
X267876Y76535D01*
X267807Y76529D01*
X267725Y76516D01*
X267631Y76504D01*
X267531Y76485D01*
X267424Y76460D01*
X267317Y76428D01*
X267204Y76391D01*
X267091Y76347D01*
X266984Y76290D01*
X266877Y76227D01*
X266771Y76158D01*
X266676Y76077D01*
X266670Y76070D01*
X266658Y76058D01*
X266633Y76026D01*
X266601Y75995D01*
X266563Y75951D01*
X266519Y75895D01*
X266476Y75832D01*
X266425Y75756D01*
X266381Y75681D01*
X266337Y75593D01*
X266293Y75499D01*
X266256Y75398D01*
X266224Y75286D01*
X266199Y75172D01*
X266187Y75053D01*
X266180Y74928D01*
D01*
D01*
Y70726D01*
X270074D01*
Y70732D01*
X270068Y70751D01*
Y70783D01*
X270061Y70827D01*
X270049Y70877D01*
X270036Y70940D01*
X270024Y71009D01*
X270005Y71084D01*
X269955Y71254D01*
X269886Y71442D01*
X269804Y71637D01*
X269697Y71831D01*
X269691Y71838D01*
X269685Y71857D01*
X269659Y71888D01*
X269634Y71926D01*
X269597Y71976D01*
X269546Y72045D01*
X269490Y72114D01*
X269421Y72202D01*
X269345Y72296D01*
X269251Y72397D01*
X269151Y72516D01*
X269038Y72635D01*
X268912Y72767D01*
X268768Y72912D01*
X268617Y73062D01*
X268447Y73219D01*
X268441Y73226D01*
X268416Y73251D01*
X268378Y73288D01*
X268328Y73332D01*
X268265Y73389D01*
X268202Y73452D01*
X268127Y73527D01*
X268052Y73602D01*
X267888Y73759D01*
X267738Y73916D01*
X267675Y73985D01*
X267612Y74055D01*
X267562Y74117D01*
X267524Y74168D01*
Y74174D01*
X267512Y74180D01*
X267505Y74199D01*
X267487Y74224D01*
X267449Y74293D01*
X267405Y74381D01*
X267367Y74482D01*
X267330Y74595D01*
X267304Y74720D01*
X267292Y74846D01*
Y74852D01*
Y74865D01*
Y74884D01*
Y74909D01*
X267304Y74971D01*
X267317Y75059D01*
X267342Y75147D01*
X267374Y75242D01*
X267424Y75336D01*
X267493Y75417D01*
X267499Y75424D01*
X267531Y75449D01*
X267575Y75480D01*
X267637Y75518D01*
X267719Y75555D01*
X267813Y75587D01*
X267920Y75612D01*
X268045Y75618D01*
X268102D01*
X268165Y75606D01*
X268247Y75593D01*
X268334Y75568D01*
X268429Y75530D01*
X268523Y75474D01*
X268604Y75405D01*
X268611Y75392D01*
X268636Y75367D01*
X268667Y75317D01*
X268711Y75242D01*
X268749Y75147D01*
X268787Y75028D01*
X268818Y74884D01*
X268830Y74802D01*
X268837Y74714D01*
X269942Y74821D01*
Y74833D01*
X269936Y74858D01*
X269930Y74909D01*
X269917Y74971D01*
X269904Y75047D01*
X269886Y75135D01*
X269860Y75229D01*
X269829Y75329D01*
X269791Y75436D01*
X269747Y75543D01*
X269697Y75656D01*
X269641Y75763D01*
X269578Y75870D01*
X269502Y75970D01*
X269421Y76058D01*
X269327Y76139D01*
X269320Y76146D01*
X269302Y76158D01*
X269270Y76177D01*
X269232Y76202D01*
X269182Y76234D01*
X269119Y76265D01*
X269050Y76303D01*
X268969Y76341D01*
X268875Y76378D01*
X268780Y76416D01*
X268673Y76447D01*
X268554Y76479D01*
X268435Y76504D01*
X268303Y76523D01*
X268165Y76535D01*
X268020Y76541D01*
X270074D01*
D01*
D02*
G37*
G36*
Y74708D02*
D01*
D01*
D01*
D02*
G37*
G36*
X270677Y74482D02*
D01*
D01*
D01*
D02*
G37*
G36*
X270074Y74293D02*
D01*
D01*
D01*
D02*
G37*
G36*
Y73916D02*
D01*
D01*
D01*
D02*
G37*
G36*
Y73759D02*
D01*
D01*
D01*
D02*
G37*
G36*
X270677Y73741D02*
Y73722D01*
D01*
Y73741D01*
D02*
G37*
G36*
X270074Y72334D02*
Y72328D01*
D01*
Y72334D01*
D02*
G37*
G36*
Y71090D02*
Y71084D01*
D01*
Y71090D01*
D02*
G37*
G36*
X290195Y76541D02*
X286433D01*
D01*
X288280D01*
X288236Y76535D01*
X288179D01*
X288110Y76523D01*
X288029Y76510D01*
X287934Y76491D01*
X287834Y76466D01*
X287733Y76435D01*
X287627Y76397D01*
X287513Y76347D01*
X287407Y76290D01*
X287300Y76221D01*
X287193Y76139D01*
X287093Y76045D01*
X286999Y75939D01*
X286992Y75932D01*
X286973Y75907D01*
X286948Y75863D01*
X286911Y75800D01*
X286867Y75725D01*
X286816Y75625D01*
X286766Y75511D01*
X286716Y75373D01*
X286666Y75223D01*
X286609Y75047D01*
X286565Y74852D01*
X286521Y74639D01*
X286484Y74406D01*
X286458Y74149D01*
X286440Y73873D01*
X286433Y73577D01*
Y73464D01*
X286440Y73420D01*
Y73370D01*
Y73307D01*
X286452Y73175D01*
X286465Y73018D01*
X286484Y72849D01*
X286502Y72667D01*
X286534Y72472D01*
X286572Y72277D01*
X286622Y72076D01*
X286672Y71882D01*
X286741Y71700D01*
X286816Y71517D01*
X286904Y71354D01*
X287005Y71210D01*
X287011Y71203D01*
X287024Y71185D01*
X287055Y71153D01*
X287093Y71115D01*
X287137Y71072D01*
X287199Y71021D01*
X287269Y70971D01*
X287344Y70915D01*
X287432Y70858D01*
X287532Y70808D01*
X287639Y70758D01*
X287758Y70714D01*
X287884Y70676D01*
X288022Y70644D01*
X288167Y70626D01*
X288317Y70619D01*
X288355D01*
X288399Y70626D01*
X288456Y70632D01*
X288531Y70638D01*
X288613Y70651D01*
X288707Y70676D01*
X288807Y70701D01*
X288914Y70732D01*
X289021Y70776D01*
X289134Y70833D01*
X289247Y70889D01*
X289360Y70965D01*
X289473Y71053D01*
X289580Y71153D01*
X289680Y71266D01*
X289686Y71272D01*
X289699Y71298D01*
X289730Y71335D01*
X289762Y71392D01*
X289799Y71467D01*
X289843Y71561D01*
X289887Y71675D01*
X289938Y71800D01*
X289988Y71951D01*
X290032Y72120D01*
X290076Y72309D01*
X290113Y72522D01*
X290145Y72755D01*
X290170Y73012D01*
X290189Y73288D01*
X290195Y73590D01*
Y70933D01*
Y76541D01*
D02*
G37*
G36*
X270074Y70776D02*
Y70758D01*
D01*
Y70776D01*
D02*
G37*
G36*
X285686Y76447D02*
X281887D01*
Y70726D01*
Y75643D01*
X281893Y75637D01*
X281906Y75625D01*
X281931Y75593D01*
X281968Y75555D01*
X282012Y75511D01*
X282063Y75449D01*
X282119Y75380D01*
X282182Y75304D01*
X282251Y75216D01*
X282326Y75116D01*
X282408Y75003D01*
X282489Y74884D01*
X282577Y74758D01*
X282665Y74620D01*
X282753Y74469D01*
X282847Y74312D01*
X282854Y74300D01*
X282866Y74274D01*
X282891Y74224D01*
X282929Y74161D01*
X282967Y74080D01*
X283011Y73985D01*
X283067Y73879D01*
X283124Y73759D01*
X283180Y73621D01*
X283243Y73483D01*
X283300Y73326D01*
X283362Y73169D01*
X283425Y73000D01*
X283482Y72824D01*
X283589Y72466D01*
Y72453D01*
X283601Y72422D01*
X283614Y72372D01*
X283626Y72302D01*
X283645Y72215D01*
X283670Y72120D01*
X283689Y72007D01*
X283714Y71882D01*
X283739Y71750D01*
X283758Y71612D01*
X283796Y71323D01*
X283827Y71021D01*
X283833Y70726D01*
X284907D01*
Y70732D01*
Y70739D01*
Y70758D01*
Y70783D01*
X284901Y70846D01*
X284895Y70933D01*
X284889Y71040D01*
X284876Y71172D01*
X284857Y71316D01*
X284838Y71480D01*
X284807Y71662D01*
X284775Y71850D01*
X284738Y72051D01*
X284687Y72265D01*
X284637Y72485D01*
X284575Y72711D01*
X284499Y72943D01*
X284418Y73175D01*
Y73182D01*
X284411Y73188D01*
X284405Y73207D01*
X284399Y73232D01*
X284367Y73301D01*
X284330Y73389D01*
X284286Y73496D01*
X284229Y73628D01*
X284160Y73772D01*
X284085Y73929D01*
X283997Y74098D01*
X283903Y74274D01*
X283802Y74463D01*
X283689Y74651D01*
X283570Y74846D01*
X283438Y75041D01*
X283306Y75229D01*
X283161Y75417D01*
X285686D01*
Y76447D01*
D02*
G37*
G36*
X281541Y76617D02*
X279274D01*
X280725Y70626D01*
X281541D01*
X280109Y76617D01*
X281541D01*
D01*
D02*
G37*
G36*
X274439Y76541D02*
X270677D01*
D01*
X272523D01*
X272479Y76535D01*
X272423D01*
X272354Y76523D01*
X272272Y76510D01*
X272178Y76491D01*
X272077Y76466D01*
X271977Y76435D01*
X271870Y76397D01*
X271757Y76347D01*
X271650Y76290D01*
X271544Y76221D01*
X271437Y76139D01*
X271336Y76045D01*
X271242Y75939D01*
X271236Y75932D01*
X271217Y75907D01*
X271192Y75863D01*
X271154Y75800D01*
X271110Y75725D01*
X271060Y75625D01*
X271010Y75511D01*
X270959Y75373D01*
X270909Y75223D01*
X270853Y75047D01*
X270809Y74852D01*
X270765Y74639D01*
X270727Y74406D01*
X270702Y74149D01*
X270683Y73873D01*
X270677Y73577D01*
Y73464D01*
X270683Y73420D01*
Y73370D01*
Y73307D01*
X270696Y73175D01*
X270708Y73018D01*
X270727Y72849D01*
X270746Y72667D01*
X270777Y72472D01*
X270815Y72277D01*
X270865Y72076D01*
X270916Y71882D01*
X270985Y71700D01*
X271060Y71517D01*
X271148Y71354D01*
X271248Y71210D01*
X271255Y71203D01*
X271267Y71185D01*
X271299Y71153D01*
X271336Y71115D01*
X271380Y71072D01*
X271443Y71021D01*
X271512Y70971D01*
X271587Y70915D01*
X271675Y70858D01*
X271776Y70808D01*
X271883Y70758D01*
X272002Y70714D01*
X272128Y70676D01*
X272266Y70644D01*
X272410Y70626D01*
X272561Y70619D01*
X272599D01*
X272642Y70626D01*
X272699Y70632D01*
X272774Y70638D01*
X272856Y70651D01*
X272950Y70676D01*
X273051Y70701D01*
X273157Y70732D01*
X273264Y70776D01*
X273377Y70833D01*
X273490Y70889D01*
X273603Y70965D01*
X273716Y71053D01*
X273823Y71153D01*
X273924Y71266D01*
X273930Y71272D01*
X273942Y71298D01*
X273974Y71335D01*
X274005Y71392D01*
X274043Y71467D01*
X274087Y71561D01*
X274131Y71675D01*
X274181Y71800D01*
X274231Y71951D01*
X274275Y72120D01*
X274319Y72309D01*
X274357Y72522D01*
X274388Y72755D01*
X274413Y73012D01*
X274432Y73288D01*
X274439Y73590D01*
Y70619D01*
D01*
Y76541D01*
D02*
G37*
G36*
X265414Y76447D02*
X261514D01*
D01*
X261772D01*
Y75405D01*
X263876D01*
X264051Y74419D01*
X264045D01*
X264033Y74425D01*
X264014Y74438D01*
X263989Y74450D01*
X263951Y74463D01*
X263913Y74482D01*
X263819Y74513D01*
X263700Y74551D01*
X263574Y74576D01*
X263436Y74601D01*
X263292Y74607D01*
X263260D01*
X263223Y74601D01*
X263166D01*
X263103Y74588D01*
X263028Y74576D01*
X262946Y74563D01*
X262858Y74538D01*
X262758Y74513D01*
X262657Y74475D01*
X262557Y74431D01*
X262450Y74381D01*
X262343Y74318D01*
X262236Y74243D01*
X262136Y74161D01*
X262036Y74067D01*
X262029Y74061D01*
X262010Y74042D01*
X261985Y74011D01*
X261954Y73967D01*
X261916Y73916D01*
X261872Y73854D01*
X261822Y73778D01*
X261772Y73690D01*
X261728Y73596D01*
X261678Y73489D01*
X261634Y73370D01*
X261596Y73251D01*
X261565Y73113D01*
X261539Y72974D01*
X261521Y72824D01*
X261514Y72667D01*
Y72598D01*
X261521Y72547D01*
X261527Y72485D01*
X261539Y72409D01*
X261552Y72328D01*
X261565Y72240D01*
X261590Y72139D01*
X261615Y72039D01*
X261652Y71932D01*
X261690Y71825D01*
X261740Y71712D01*
X261797Y71605D01*
X261860Y71492D01*
X261935Y71386D01*
X261941Y71379D01*
X261960Y71354D01*
X261992Y71316D01*
X262042Y71266D01*
X262098Y71210D01*
X262167Y71141D01*
X262249Y71072D01*
X262343Y71003D01*
X262450Y70933D01*
X262569Y70864D01*
X262695Y70795D01*
X262833Y70739D01*
X262984Y70688D01*
X263147Y70651D01*
X263323Y70626D01*
X263505Y70619D01*
X263580D01*
X263637Y70626D01*
X263706Y70632D01*
X263788Y70644D01*
X263876Y70657D01*
X263970Y70676D01*
X264177Y70726D01*
X264290Y70758D01*
X264397Y70802D01*
X264510Y70852D01*
X264617Y70908D01*
X264717Y70971D01*
X264818Y71047D01*
X264824Y71053D01*
X264836Y71065D01*
X264862Y71090D01*
X264899Y71128D01*
X264937Y71172D01*
X264981Y71222D01*
X265031Y71285D01*
X265081Y71354D01*
X265132Y71436D01*
X265182Y71524D01*
X265232Y71618D01*
X265282Y71718D01*
X265326Y71831D01*
X265364Y71951D01*
X265389Y72076D01*
X265414Y72208D01*
X264309Y72328D01*
Y72321D01*
Y72309D01*
X264303Y72290D01*
X264296Y72265D01*
X264284Y72196D01*
X264259Y72114D01*
X264221Y72014D01*
X264171Y71919D01*
X264108Y71819D01*
X264033Y71731D01*
X264020Y71725D01*
X263989Y71700D01*
X263945Y71662D01*
X263876Y71624D01*
X263800Y71580D01*
X263706Y71549D01*
X263606Y71524D01*
X263492Y71511D01*
X263461D01*
X263436Y71517D01*
X263367Y71524D01*
X263285Y71549D01*
X263191Y71580D01*
X263097Y71631D01*
X262996Y71700D01*
X262946Y71744D01*
X262902Y71794D01*
Y71800D01*
X262890Y71806D01*
X262877Y71825D01*
X262864Y71844D01*
X262846Y71875D01*
X262827Y71913D01*
X262802Y71957D01*
X262777Y72007D01*
X262758Y72064D01*
X262733Y72127D01*
X262714Y72196D01*
X262695Y72271D01*
X262682Y72359D01*
X262670Y72447D01*
X262657Y72547D01*
Y72648D01*
Y72654D01*
Y72673D01*
Y72698D01*
X262664Y72736D01*
Y72780D01*
X262670Y72830D01*
X262689Y72949D01*
X262714Y73081D01*
X262758Y73213D01*
X262821Y73339D01*
X262902Y73452D01*
Y73458D01*
X262915Y73464D01*
X262946Y73496D01*
X262996Y73540D01*
X263072Y73590D01*
X263160Y73634D01*
X263266Y73678D01*
X263386Y73709D01*
X263455Y73722D01*
X263568D01*
X263606Y73715D01*
X263650Y73709D01*
X263693Y73697D01*
X263813Y73672D01*
X263945Y73621D01*
X264020Y73584D01*
X264089Y73546D01*
X264164Y73496D01*
X264240Y73439D01*
X264315Y73376D01*
X264384Y73301D01*
X265282Y73427D01*
X264711Y76447D01*
X265414D01*
Y70619D01*
D01*
D01*
Y76447D01*
D02*
G37*
%LPD*%
G36*
X281890Y96894D02*
X281927Y96887D01*
X281971Y96881D01*
X282072Y96856D01*
X282191Y96818D01*
X282311Y96762D01*
X282373Y96724D01*
X282430Y96680D01*
X282493Y96624D01*
X282549Y96567D01*
Y96561D01*
X282562Y96555D01*
X282574Y96529D01*
X282593Y96504D01*
X282618Y96473D01*
X282643Y96429D01*
X282668Y96379D01*
X282694Y96322D01*
X282719Y96259D01*
X282744Y96184D01*
X282769Y96109D01*
X282794Y96021D01*
X282813Y95927D01*
X282825Y95826D01*
X282832Y95719D01*
X282838Y95606D01*
Y95600D01*
Y95581D01*
Y95543D01*
X282832Y95506D01*
Y95449D01*
X282825Y95393D01*
X282813Y95324D01*
X282800Y95248D01*
X282769Y95098D01*
X282719Y94934D01*
X282643Y94784D01*
X282599Y94708D01*
X282549Y94645D01*
X282543Y94639D01*
X282537Y94633D01*
X282518Y94614D01*
X282499Y94595D01*
X282430Y94545D01*
X282348Y94482D01*
X282242Y94419D01*
X282116Y94369D01*
X281978Y94331D01*
X281902Y94325D01*
X281821Y94319D01*
X281777D01*
X281745Y94325D01*
X281714Y94331D01*
X281670Y94338D01*
X281570Y94363D01*
X281450Y94401D01*
X281331Y94457D01*
X281268Y94495D01*
X281205Y94539D01*
X281149Y94589D01*
X281092Y94645D01*
X281086Y94652D01*
X281080Y94664D01*
X281067Y94683D01*
X281048Y94708D01*
X281023Y94740D01*
X280998Y94784D01*
X280973Y94834D01*
X280942Y94890D01*
X280916Y94953D01*
X280891Y95029D01*
X280866Y95110D01*
X280841Y95192D01*
X280822Y95286D01*
X280810Y95386D01*
X280797Y95499D01*
Y95613D01*
Y95619D01*
Y95638D01*
Y95675D01*
X280803Y95713D01*
Y95770D01*
X280810Y95826D01*
X280822Y95895D01*
X280835Y95964D01*
X280866Y96121D01*
X280923Y96278D01*
X280992Y96429D01*
X281042Y96504D01*
X281092Y96567D01*
X281099Y96573D01*
X281105Y96580D01*
X281124Y96599D01*
X281142Y96617D01*
X281205Y96674D01*
X281293Y96737D01*
X281400Y96793D01*
X281525Y96850D01*
X281664Y96887D01*
X281739Y96894D01*
X281821Y96900D01*
X281865D01*
X281890Y96894D01*
D02*
G37*
G36*
X326007Y93402D02*
X323715D01*
X323771Y93408D01*
X323840D01*
X323916Y93415D01*
X324004Y93421D01*
X324098Y93427D01*
X324305Y93446D01*
X324512Y93484D01*
X324713Y93528D01*
X324807Y93559D01*
X324889Y93590D01*
X324895D01*
X324908Y93597D01*
X324933Y93609D01*
X324958Y93628D01*
X324996Y93647D01*
X325040Y93666D01*
X325134Y93729D01*
X325241Y93798D01*
X325354Y93879D01*
X325467Y93980D01*
X325567Y94086D01*
Y94093D01*
X325580Y94099D01*
X325592Y94118D01*
X325605Y94143D01*
X325649Y94200D01*
X325699Y94281D01*
X325756Y94382D01*
X325812Y94489D01*
X325856Y94608D01*
X325894Y94733D01*
Y94740D01*
X325900Y94758D01*
X325906Y94784D01*
X325913Y94828D01*
X325919Y94878D01*
X325931Y94941D01*
X325938Y95016D01*
X325950Y95104D01*
X325963Y95198D01*
X325969Y95311D01*
X325982Y95430D01*
X325988Y95562D01*
X325994Y95707D01*
X326000Y95858D01*
X326007Y96027D01*
Y93402D01*
D02*
G37*
G36*
X309541Y97026D02*
X307242D01*
Y99305D01*
X309541D01*
Y97026D01*
D02*
G37*
G36*
X302720Y95016D02*
X301301Y99305D01*
X304190D01*
X302720Y95016D01*
D02*
G37*
G36*
X276432Y97798D02*
X276389D01*
X276294Y97785D01*
X276187Y97760D01*
X276068Y97735D01*
X275949Y97691D01*
X275836Y97635D01*
X275830D01*
X275823Y97628D01*
X275786Y97603D01*
X275729Y97566D01*
X275660Y97509D01*
X275585Y97440D01*
X275503Y97352D01*
X275421Y97252D01*
X275346Y97132D01*
X275340Y97139D01*
X275333Y97145D01*
X275321Y97164D01*
X275296Y97189D01*
X275239Y97245D01*
X275170Y97321D01*
X275076Y97402D01*
X274975Y97490D01*
X274869Y97566D01*
X274749Y97635D01*
X274743D01*
X274737Y97641D01*
X274718Y97654D01*
X274693Y97660D01*
X274630Y97691D01*
X274542Y97723D01*
X274442Y97748D01*
X274322Y97779D01*
X274197Y97798D01*
X274065Y97804D01*
X276464D01*
X276432Y97798D01*
D02*
G37*
G36*
X271666Y97710D02*
X270642D01*
Y97132D01*
X270636Y97139D01*
X270617Y97164D01*
X270586Y97195D01*
X270542Y97239D01*
X270492Y97289D01*
X270429Y97346D01*
X270353Y97409D01*
X270272Y97471D01*
X270184Y97534D01*
X270083Y97591D01*
X269977Y97647D01*
X269864Y97698D01*
X269738Y97742D01*
X269612Y97773D01*
X269474Y97798D01*
X269336Y97804D01*
X271666D01*
Y97710D01*
D02*
G37*
G36*
X269236Y97798D02*
X269192D01*
X269097Y97785D01*
X268991Y97760D01*
X268871Y97735D01*
X268752Y97691D01*
X268639Y97635D01*
X268633D01*
X268626Y97628D01*
X268589Y97603D01*
X268532Y97566D01*
X268463Y97509D01*
X268388Y97440D01*
X268306Y97352D01*
X268225Y97252D01*
X268149Y97132D01*
X268143Y97139D01*
X268137Y97145D01*
X268124Y97164D01*
X268099Y97189D01*
X268042Y97245D01*
X267973Y97321D01*
X267879Y97402D01*
X267779Y97490D01*
X267672Y97566D01*
X267552Y97635D01*
X267546D01*
X267540Y97641D01*
X267521Y97654D01*
X267496Y97660D01*
X267433Y97691D01*
X267345Y97723D01*
X267245Y97748D01*
X267126Y97779D01*
X267000Y97798D01*
X266868Y97804D01*
X269267D01*
X269236Y97798D01*
D02*
G37*
G36*
X234250Y97710D02*
X233220D01*
Y97088D01*
X233213Y97095D01*
X233195Y97120D01*
X233163Y97157D01*
X233119Y97201D01*
X233069Y97252D01*
X233000Y97314D01*
X232931Y97377D01*
X232843Y97446D01*
X232749Y97515D01*
X232642Y97578D01*
X232529Y97641D01*
X232410Y97691D01*
X232278Y97742D01*
X232140Y97773D01*
X231995Y97798D01*
X231844Y97804D01*
X234250D01*
Y97710D01*
D02*
G37*
G36*
X262786Y96950D02*
X262849Y96944D01*
X262937Y96925D01*
X263031Y96894D01*
X263131Y96843D01*
X263226Y96774D01*
X263276Y96737D01*
X263320Y96686D01*
X263332Y96674D01*
X263357Y96636D01*
X263395Y96580D01*
X263439Y96498D01*
X263483Y96398D01*
X263521Y96272D01*
X263546Y96134D01*
X263552Y95970D01*
X261894D01*
Y95977D01*
Y95989D01*
Y96014D01*
X261900Y96052D01*
X261907Y96090D01*
X261913Y96134D01*
X261932Y96241D01*
X261963Y96360D01*
X262007Y96479D01*
X262064Y96599D01*
X262145Y96699D01*
X262158Y96712D01*
X262189Y96737D01*
X262240Y96781D01*
X262309Y96831D01*
X262390Y96875D01*
X262491Y96919D01*
X262604Y96944D01*
X262723Y96956D01*
X262761D01*
X262786Y96950D01*
D02*
G37*
G36*
X243977Y94714D02*
X243971Y94777D01*
X243959Y94865D01*
X243934Y94966D01*
X243908Y95073D01*
X243864Y95179D01*
X243808Y95286D01*
Y95292D01*
X243802Y95299D01*
X243776Y95330D01*
X243739Y95380D01*
X243682Y95443D01*
X243619Y95512D01*
X243538Y95581D01*
X243444Y95650D01*
X243337Y95707D01*
X243331D01*
X243324Y95713D01*
X243305Y95719D01*
X243280Y95732D01*
X243249Y95744D01*
X243211Y95763D01*
X243161Y95776D01*
X243111Y95795D01*
X243054Y95814D01*
X242985Y95839D01*
X242910Y95858D01*
X242834Y95883D01*
X242746Y95901D01*
X242652Y95926D01*
X242558Y95952D01*
X242451Y95970D01*
X242445D01*
X242420Y95977D01*
X242376Y95983D01*
X242326Y95996D01*
X242263Y96008D01*
X242188Y96021D01*
X242106Y96040D01*
X242018Y96058D01*
X241842Y96102D01*
X241660Y96146D01*
X241579Y96171D01*
X241497Y96197D01*
X241428Y96222D01*
X241365Y96247D01*
Y96354D01*
Y96360D01*
Y96366D01*
Y96410D01*
X241371Y96467D01*
X241384Y96536D01*
X241403Y96611D01*
X241434Y96686D01*
X241472Y96762D01*
X241528Y96818D01*
X241534Y96825D01*
X241560Y96837D01*
X241604Y96862D01*
X241660Y96887D01*
X241742Y96912D01*
X241848Y96938D01*
X241911Y96944D01*
X241974Y96950D01*
X242050Y96956D01*
X242181D01*
X242238Y96950D01*
X242301Y96944D01*
X242376Y96925D01*
X242458Y96906D01*
X242533Y96875D01*
X242602Y96837D01*
X242608Y96831D01*
X242627Y96812D01*
X242659Y96787D01*
X242696Y96743D01*
X242740Y96686D01*
X242784Y96611D01*
X242828Y96523D01*
X242866Y96423D01*
X243864Y96605D01*
Y96611D01*
X243858Y96630D01*
X243846Y96661D01*
X243833Y96705D01*
X243814Y96755D01*
X243789Y96812D01*
X243726Y96944D01*
X243645Y97095D01*
X243544Y97245D01*
X243425Y97383D01*
X243356Y97453D01*
X243280Y97509D01*
X243274Y97515D01*
X243262Y97522D01*
X243236Y97534D01*
X243205Y97553D01*
X243161Y97578D01*
X243105Y97603D01*
X243042Y97628D01*
X242973Y97660D01*
X242885Y97685D01*
X242797Y97710D01*
X242696Y97735D01*
X242583Y97760D01*
X242464Y97779D01*
X242332Y97792D01*
X242194Y97804D01*
X243977D01*
Y94714D01*
D02*
G37*
G36*
X241377Y95518D02*
X241409Y95512D01*
X241459Y95493D01*
X241534Y95474D01*
X241629Y95449D01*
X241748Y95418D01*
X241886Y95386D01*
X242050Y95349D01*
X242056D01*
X242068Y95342D01*
X242093D01*
X242125Y95330D01*
X242200Y95311D01*
X242294Y95292D01*
X242395Y95261D01*
X242495Y95230D01*
X242583Y95198D01*
X242621Y95179D01*
X242652Y95160D01*
X242659Y95154D01*
X242684Y95135D01*
X242721Y95098D01*
X242759Y95054D01*
X242797Y94997D01*
X242834Y94928D01*
X242860Y94853D01*
X242866Y94771D01*
Y94758D01*
Y94733D01*
X242860Y94689D01*
X242847Y94633D01*
X242822Y94570D01*
X242797Y94501D01*
X242753Y94438D01*
X242696Y94369D01*
X242690Y94363D01*
X242665Y94344D01*
X242627Y94313D01*
X242577Y94288D01*
X242508Y94256D01*
X242432Y94225D01*
X242345Y94206D01*
X242250Y94200D01*
X242238D01*
X242200Y94206D01*
X242144Y94212D01*
X242068Y94225D01*
X241980Y94250D01*
X241880Y94281D01*
X241779Y94331D01*
X241679Y94394D01*
X241673Y94401D01*
X241648Y94419D01*
X241610Y94451D01*
X241572Y94495D01*
X241522Y94551D01*
X241478Y94614D01*
X241440Y94683D01*
X241409Y94758D01*
Y94765D01*
X241403Y94790D01*
X241396Y94828D01*
X241384Y94878D01*
X241377Y94953D01*
X241371Y95047D01*
X241365Y95160D01*
Y95299D01*
Y95525D01*
X241377Y95518D01*
D02*
G37*
G36*
X243977Y93414D02*
X242646D01*
X242690Y93421D01*
X242746Y93427D01*
X242809Y93433D01*
X242878Y93446D01*
X242954Y93458D01*
X243117Y93496D01*
X243287Y93559D01*
X243374Y93603D01*
X243456Y93647D01*
X243531Y93697D01*
X243607Y93760D01*
X243613Y93766D01*
X243626Y93779D01*
X243638Y93798D01*
X243663Y93823D01*
X243695Y93860D01*
X243726Y93898D01*
X243758Y93948D01*
X243789Y94005D01*
X243827Y94068D01*
X243858Y94130D01*
X243921Y94288D01*
X243946Y94369D01*
X243959Y94457D01*
X243971Y94551D01*
X243977Y94652D01*
Y93414D01*
D02*
G37*
G36*
X227700Y96950D02*
X227763Y96944D01*
X227850Y96925D01*
X227945Y96894D01*
X228045Y96843D01*
X228139Y96774D01*
X228189Y96737D01*
X228234Y96686D01*
X228246Y96674D01*
X228271Y96636D01*
X228309Y96580D01*
X228353Y96498D01*
X228397Y96398D01*
X228434Y96272D01*
X228460Y96134D01*
X228466Y95970D01*
X226808D01*
Y95977D01*
Y95989D01*
Y96014D01*
X226814Y96052D01*
X226820Y96090D01*
X226827Y96134D01*
X226846Y96241D01*
X226877Y96360D01*
X226921Y96479D01*
X226977Y96599D01*
X227059Y96699D01*
X227072Y96711D01*
X227103Y96737D01*
X227153Y96781D01*
X227222Y96831D01*
X227304Y96875D01*
X227404Y96919D01*
X227518Y96944D01*
X227637Y96956D01*
X227675D01*
X227700Y96950D01*
D02*
G37*
G36*
X250910Y97710D02*
X249874D01*
Y97095D01*
X249862Y97101D01*
X249837Y97139D01*
X249793Y97201D01*
X249730Y97271D01*
X249655Y97352D01*
X249560Y97440D01*
X249454Y97528D01*
X249334Y97603D01*
X249328D01*
X249315Y97610D01*
X249297Y97622D01*
X249271Y97635D01*
X249240Y97647D01*
X249202Y97666D01*
X249108Y97704D01*
X248995Y97742D01*
X248863Y97773D01*
X248719Y97798D01*
X248568Y97804D01*
X250910D01*
Y97710D01*
D02*
G37*
G36*
X248945Y96919D02*
X248976Y96912D01*
X249020Y96906D01*
X249114Y96887D01*
X249221Y96850D01*
X249334Y96793D01*
X249391Y96755D01*
X249447Y96711D01*
X249504Y96661D01*
X249554Y96605D01*
Y96599D01*
X249567Y96592D01*
X249579Y96573D01*
X249598Y96548D01*
X249617Y96511D01*
X249636Y96473D01*
X249661Y96423D01*
X249686Y96372D01*
X249711Y96310D01*
X249736Y96241D01*
X249755Y96165D01*
X249774Y96084D01*
X249793Y95989D01*
X249805Y95895D01*
X249812Y95788D01*
X249818Y95675D01*
Y95669D01*
Y95644D01*
Y95606D01*
X249812Y95562D01*
Y95499D01*
X249805Y95430D01*
X249793Y95361D01*
X249780Y95280D01*
X249749Y95110D01*
X249698Y94934D01*
X249629Y94771D01*
X249592Y94696D01*
X249541Y94627D01*
X249535Y94620D01*
X249529Y94614D01*
X249491Y94576D01*
X249429Y94520D01*
X249347Y94463D01*
X249246Y94401D01*
X249133Y94344D01*
X248995Y94306D01*
X248926Y94300D01*
X248851Y94294D01*
X248813D01*
X248788Y94300D01*
X248719Y94313D01*
X248625Y94331D01*
X248524Y94369D01*
X248417Y94426D01*
X248367Y94457D01*
X248311Y94501D01*
X248260Y94545D01*
X248210Y94602D01*
X248204Y94608D01*
X248198Y94614D01*
X248185Y94633D01*
X248166Y94658D01*
X248147Y94696D01*
X248129Y94733D01*
X248103Y94784D01*
X248078Y94846D01*
X248053Y94909D01*
X248028Y94985D01*
X248009Y95066D01*
X247990Y95160D01*
X247972Y95261D01*
X247959Y95374D01*
X247946Y95493D01*
Y95619D01*
Y95625D01*
Y95650D01*
Y95682D01*
X247953Y95726D01*
Y95782D01*
X247959Y95845D01*
X247972Y95914D01*
X247978Y95989D01*
X248009Y96146D01*
X248059Y96310D01*
X248129Y96467D01*
X248166Y96536D01*
X248216Y96599D01*
Y96605D01*
X248229Y96611D01*
X248267Y96649D01*
X248323Y96699D01*
X248398Y96762D01*
X248493Y96825D01*
X248606Y96875D01*
X248731Y96912D01*
X248800Y96919D01*
X248876Y96925D01*
X248914D01*
X248945Y96919D01*
D02*
G37*
G36*
X279880Y88374D02*
X279943Y88368D01*
X280031Y88349D01*
X280125Y88318D01*
X280226Y88267D01*
X280320Y88198D01*
X280370Y88161D01*
X280414Y88111D01*
X280427Y88098D01*
X280452Y88060D01*
X280489Y88004D01*
X280533Y87922D01*
X280577Y87822D01*
X280615Y87696D01*
X280640Y87558D01*
X280646Y87395D01*
X278988D01*
Y87401D01*
Y87413D01*
Y87438D01*
X278995Y87476D01*
X279001Y87514D01*
X279007Y87558D01*
X279026Y87665D01*
X279058Y87784D01*
X279101Y87903D01*
X279158Y88023D01*
X279240Y88123D01*
X279252Y88136D01*
X279284Y88161D01*
X279334Y88205D01*
X279403Y88255D01*
X279485Y88299D01*
X279585Y88343D01*
X279698Y88368D01*
X279817Y88380D01*
X279855D01*
X279880Y88374D01*
D02*
G37*
G36*
X281802Y84839D02*
X279817D01*
X279874Y84845D01*
X279949Y84851D01*
X280037Y84857D01*
X280144Y84876D01*
X280257Y84895D01*
X280383Y84926D01*
X280515Y84964D01*
X280646Y85014D01*
X280778Y85071D01*
X280916Y85140D01*
X281042Y85222D01*
X281168Y85316D01*
X281281Y85423D01*
X281387Y85548D01*
X281394Y85554D01*
X281406Y85573D01*
X281425Y85605D01*
X281450Y85655D01*
X281482Y85711D01*
X281519Y85774D01*
X281557Y85856D01*
X281595Y85944D01*
X281632Y86044D01*
X281670Y86157D01*
X281708Y86277D01*
X281739Y86402D01*
X281764Y86541D01*
X281783Y86685D01*
X281796Y86842D01*
X281802Y86999D01*
Y84839D01*
D02*
G37*
G36*
X286148Y88274D02*
X285080D01*
X285005Y88280D01*
X284835D01*
X284653Y88293D01*
X284483Y88305D01*
X284408Y88311D01*
X284339Y88318D01*
X284276Y88330D01*
X284232Y88343D01*
X284220Y88349D01*
X284194Y88355D01*
X284157Y88374D01*
X284113Y88399D01*
X284056Y88431D01*
X284000Y88475D01*
X283950Y88525D01*
X283899Y88588D01*
X283893Y88594D01*
X283880Y88619D01*
X283862Y88657D01*
X283837Y88707D01*
X283818Y88770D01*
X283799Y88845D01*
X283786Y88933D01*
X283780Y89027D01*
Y89034D01*
Y89040D01*
Y89078D01*
X283786Y89128D01*
X283799Y89197D01*
X283818Y89272D01*
X283849Y89348D01*
X283887Y89423D01*
X283937Y89498D01*
X283943Y89505D01*
X283968Y89530D01*
X284000Y89561D01*
X284050Y89593D01*
X284113Y89636D01*
X284188Y89668D01*
X284282Y89699D01*
X284383Y89724D01*
X284389D01*
X284414Y89731D01*
X284465D01*
X284496Y89737D01*
X284590D01*
X284653Y89743D01*
X284804D01*
X284892Y89749D01*
X286148D01*
Y88274D01*
D02*
G37*
G36*
X275559Y86986D02*
X275333Y86270D01*
Y86277D01*
X275327Y86283D01*
X275321Y86314D01*
X275302Y86365D01*
X275283Y86421D01*
X275264Y86478D01*
X275245Y86541D01*
X275233Y86591D01*
X275220Y86628D01*
Y86635D01*
X275208Y86660D01*
X275202Y86698D01*
X275183Y86741D01*
X275164Y86798D01*
X275145Y86854D01*
X275101Y86986D01*
X274304Y89134D01*
X276351D01*
X275559Y86986D01*
D02*
G37*
G36*
X270906Y89819D02*
X270956Y89806D01*
X271013Y89793D01*
X271076Y89768D01*
X271132Y89737D01*
X271195Y89693D01*
X271201Y89687D01*
X271220Y89668D01*
X271252Y89636D01*
X271283Y89586D01*
X271321Y89524D01*
X271364Y89448D01*
X271402Y89348D01*
X271440Y89235D01*
Y89228D01*
X271446Y89216D01*
X271452Y89191D01*
X271459Y89153D01*
X271465Y89103D01*
X271478Y89046D01*
X271484Y88971D01*
X271496Y88889D01*
X271509Y88795D01*
X271515Y88688D01*
X271528Y88569D01*
X271534Y88437D01*
X271540Y88299D01*
X271547Y88136D01*
X271553Y87966D01*
Y87784D01*
Y87771D01*
Y87740D01*
Y87690D01*
Y87621D01*
X271547Y87533D01*
Y87438D01*
Y87338D01*
X271540Y87225D01*
X271528Y86993D01*
X271509Y86760D01*
X271496Y86647D01*
X271484Y86547D01*
X271471Y86459D01*
X271452Y86377D01*
Y86371D01*
X271446Y86358D01*
X271440Y86339D01*
X271434Y86314D01*
X271415Y86252D01*
X271383Y86176D01*
X271346Y86088D01*
X271302Y86007D01*
X271252Y85931D01*
X271195Y85875D01*
X271189Y85869D01*
X271170Y85856D01*
X271132Y85837D01*
X271088Y85812D01*
X271038Y85787D01*
X270975Y85768D01*
X270912Y85755D01*
X270837Y85749D01*
X270806D01*
X270768Y85755D01*
X270718Y85768D01*
X270661Y85781D01*
X270598Y85799D01*
X270542Y85831D01*
X270479Y85875D01*
X270473Y85881D01*
X270454Y85900D01*
X270423Y85931D01*
X270391Y85982D01*
X270347Y86044D01*
X270309Y86120D01*
X270272Y86220D01*
X270234Y86333D01*
Y86339D01*
X270228Y86352D01*
X270221Y86377D01*
X270215Y86415D01*
X270209Y86465D01*
X270196Y86522D01*
X270184Y86591D01*
X270171Y86672D01*
X270165Y86766D01*
X270152Y86873D01*
X270140Y86993D01*
X270134Y87125D01*
X270127Y87269D01*
X270121Y87426D01*
X270115Y87602D01*
Y87784D01*
Y87796D01*
Y87828D01*
Y87878D01*
Y87947D01*
Y88029D01*
X270121Y88129D01*
Y88230D01*
X270127Y88343D01*
X270140Y88575D01*
X270159Y88801D01*
X270171Y88914D01*
X270184Y89015D01*
X270203Y89103D01*
X270221Y89184D01*
Y89191D01*
X270228Y89203D01*
X270234Y89222D01*
X270240Y89247D01*
X270259Y89310D01*
X270291Y89392D01*
X270328Y89480D01*
X270372Y89561D01*
X270423Y89636D01*
X270479Y89693D01*
X270485Y89699D01*
X270504Y89712D01*
X270542Y89737D01*
X270580Y89762D01*
X270636Y89781D01*
X270699Y89806D01*
X270762Y89819D01*
X270837Y89825D01*
X270868D01*
X270906Y89819D01*
D02*
G37*
G36*
X287608Y79880D02*
X287639Y79874D01*
X287689Y79855D01*
X287765Y79836D01*
X287859Y79811D01*
X287978Y79779D01*
X288116Y79748D01*
X288280Y79710D01*
X288286D01*
X288299Y79704D01*
X288324D01*
X288355Y79691D01*
X288430Y79673D01*
X288525Y79654D01*
X288625Y79622D01*
X288726Y79591D01*
X288813Y79560D01*
X288851Y79541D01*
X288883Y79522D01*
X288889Y79516D01*
X288914Y79497D01*
X288952Y79459D01*
X288989Y79415D01*
X289027Y79359D01*
X289065Y79290D01*
X289090Y79214D01*
X289096Y79133D01*
Y79120D01*
Y79095D01*
X289090Y79051D01*
X289077Y78994D01*
X289052Y78932D01*
X289027Y78863D01*
X288983Y78800D01*
X288927Y78731D01*
X288920Y78724D01*
X288895Y78706D01*
X288857Y78674D01*
X288807Y78649D01*
X288738Y78618D01*
X288663Y78586D01*
X288575Y78567D01*
X288481Y78561D01*
X288468D01*
X288430Y78567D01*
X288374Y78574D01*
X288299Y78586D01*
X288211Y78611D01*
X288110Y78643D01*
X288010Y78693D01*
X287909Y78756D01*
X287903Y78762D01*
X287878Y78781D01*
X287840Y78812D01*
X287802Y78856D01*
X287752Y78913D01*
X287708Y78976D01*
X287670Y79045D01*
X287639Y79120D01*
Y79126D01*
X287633Y79151D01*
X287627Y79189D01*
X287614Y79239D01*
X287608Y79315D01*
X287601Y79409D01*
X287595Y79522D01*
Y79660D01*
Y79886D01*
X287608Y79880D01*
D02*
G37*
G36*
X283105D02*
X283136Y79874D01*
X283187Y79855D01*
X283262Y79836D01*
X283356Y79811D01*
X283475Y79779D01*
X283614Y79748D01*
X283777Y79710D01*
X283783D01*
X283796Y79704D01*
X283821D01*
X283852Y79691D01*
X283928Y79673D01*
X284022Y79654D01*
X284122Y79622D01*
X284223Y79591D01*
X284311Y79560D01*
X284348Y79541D01*
X284380Y79522D01*
X284386Y79516D01*
X284411Y79497D01*
X284449Y79459D01*
X284487Y79415D01*
X284524Y79359D01*
X284562Y79290D01*
X284587Y79214D01*
X284593Y79133D01*
Y79120D01*
Y79095D01*
X284587Y79051D01*
X284575Y78994D01*
X284549Y78932D01*
X284524Y78863D01*
X284480Y78800D01*
X284424Y78731D01*
X284418Y78724D01*
X284392Y78706D01*
X284355Y78674D01*
X284304Y78649D01*
X284235Y78618D01*
X284160Y78586D01*
X284072Y78567D01*
X283978Y78561D01*
X283965D01*
X283928Y78567D01*
X283871Y78574D01*
X283796Y78586D01*
X283708Y78611D01*
X283607Y78643D01*
X283507Y78693D01*
X283406Y78756D01*
X283400Y78762D01*
X283375Y78781D01*
X283337Y78812D01*
X283300Y78856D01*
X283249Y78913D01*
X283205Y78976D01*
X283168Y79045D01*
X283136Y79120D01*
Y79126D01*
X283130Y79151D01*
X283124Y79189D01*
X283111Y79239D01*
X283105Y79315D01*
X283099Y79409D01*
X283092Y79522D01*
Y79660D01*
Y79886D01*
X283105Y79880D01*
D02*
G37*
G36*
X283589Y82160D02*
X283513D01*
X283438Y82153D01*
X283350Y82141D01*
X283168Y82122D01*
X282986Y82091D01*
X282810Y82047D01*
X282734Y82015D01*
X282659Y81984D01*
X282653D01*
X282640Y81977D01*
X282621Y81965D01*
X282603Y81952D01*
X282534Y81915D01*
X282458Y81864D01*
X282370Y81795D01*
X282289Y81720D01*
X282207Y81632D01*
X282144Y81538D01*
X282138Y81525D01*
X282132Y81506D01*
X282119Y81488D01*
X282106Y81456D01*
X282094Y81412D01*
X282081Y81368D01*
X282069Y81312D01*
X282056Y81249D01*
X282044Y81180D01*
X282031Y81098D01*
X282018Y81004D01*
X282006Y80904D01*
X282000Y80797D01*
X281993Y80677D01*
Y80546D01*
X282012Y79246D01*
Y79239D01*
Y79220D01*
Y79195D01*
Y79158D01*
Y79107D01*
Y79057D01*
X282006Y78938D01*
X282000Y78806D01*
X281993Y78668D01*
X281981Y78542D01*
X281968Y78479D01*
X281962Y78429D01*
Y78417D01*
X281949Y78385D01*
X281937Y78329D01*
X281918Y78260D01*
X281893Y78178D01*
X281855Y78084D01*
X281811Y77977D01*
X281761Y77870D01*
Y82166D01*
X283645D01*
X283589Y82160D01*
D02*
G37*
G36*
X261973Y79880D02*
X262004Y79874D01*
X262054Y79855D01*
X262130Y79836D01*
X262224Y79811D01*
X262343Y79779D01*
X262481Y79748D01*
X262645Y79710D01*
X262651D01*
X262664Y79704D01*
X262689D01*
X262720Y79691D01*
X262795Y79673D01*
X262890Y79654D01*
X262990Y79622D01*
X263091Y79591D01*
X263178Y79560D01*
X263216Y79541D01*
X263248Y79522D01*
X263254Y79516D01*
X263279Y79497D01*
X263317Y79459D01*
X263354Y79415D01*
X263392Y79359D01*
X263430Y79290D01*
X263455Y79214D01*
X263461Y79133D01*
Y79120D01*
Y79095D01*
X263455Y79051D01*
X263442Y78994D01*
X263417Y78932D01*
X263392Y78863D01*
X263348Y78800D01*
X263292Y78731D01*
X263285Y78724D01*
X263260Y78706D01*
X263223Y78674D01*
X263172Y78649D01*
X263103Y78618D01*
X263028Y78586D01*
X262940Y78567D01*
X262846Y78561D01*
X262833D01*
X262795Y78567D01*
X262739Y78574D01*
X262664Y78586D01*
X262576Y78611D01*
X262475Y78643D01*
X262375Y78693D01*
X262274Y78756D01*
X262268Y78762D01*
X262243Y78781D01*
X262205Y78812D01*
X262167Y78856D01*
X262117Y78913D01*
X262073Y78976D01*
X262036Y79045D01*
X262004Y79120D01*
Y79126D01*
X261998Y79151D01*
X261992Y79189D01*
X261979Y79239D01*
X261973Y79315D01*
X261966Y79409D01*
X261960Y79522D01*
Y79660D01*
Y79886D01*
X261973Y79880D01*
D02*
G37*
G36*
X294572Y81092D02*
X292205Y83667D01*
X294572D01*
Y81092D01*
D02*
G37*
G36*
X275192Y74827D02*
Y74783D01*
X275205Y74689D01*
X275224Y74569D01*
X275249Y74444D01*
X275280Y74312D01*
X275330Y74180D01*
Y74174D01*
X275337Y74168D01*
X275343Y74142D01*
X275355Y74117D01*
X275374Y74086D01*
X275393Y74048D01*
X275437Y73954D01*
X275500Y73847D01*
X275575Y73722D01*
X275669Y73584D01*
X275776Y73439D01*
X275789Y73427D01*
X275814Y73389D01*
X275870Y73332D01*
X275939Y73251D01*
X275990Y73201D01*
X276040Y73144D01*
X276103Y73088D01*
X276166Y73018D01*
X276241Y72949D01*
X276323Y72868D01*
X276411Y72786D01*
X276505Y72698D01*
X276511Y72692D01*
X276530Y72679D01*
X276555Y72654D01*
X276586Y72623D01*
X276630Y72585D01*
X276680Y72541D01*
X276787Y72441D01*
X276900Y72334D01*
X277007Y72227D01*
X277057Y72177D01*
X277101Y72133D01*
X277139Y72089D01*
X277170Y72057D01*
X277177Y72051D01*
X277196Y72032D01*
X277221Y72001D01*
X277252Y71963D01*
X277283Y71913D01*
X277321Y71863D01*
X277396Y71756D01*
X275186D01*
Y74858D01*
X275192Y74827D01*
D02*
G37*
G36*
X266187D02*
Y74783D01*
X266199Y74689D01*
X266218Y74569D01*
X266243Y74444D01*
X266275Y74312D01*
X266325Y74180D01*
Y74174D01*
X266331Y74168D01*
X266337Y74142D01*
X266350Y74117D01*
X266369Y74086D01*
X266388Y74048D01*
X266432Y73954D01*
X266494Y73847D01*
X266570Y73722D01*
X266664Y73584D01*
X266771Y73439D01*
X266783Y73427D01*
X266808Y73389D01*
X266865Y73332D01*
X266934Y73251D01*
X266984Y73201D01*
X267034Y73144D01*
X267097Y73088D01*
X267160Y73018D01*
X267235Y72949D01*
X267317Y72868D01*
X267405Y72786D01*
X267499Y72698D01*
X267505Y72692D01*
X267524Y72679D01*
X267549Y72654D01*
X267581Y72623D01*
X267625Y72585D01*
X267675Y72541D01*
X267782Y72441D01*
X267895Y72334D01*
X268002Y72227D01*
X268052Y72177D01*
X268096Y72133D01*
X268133Y72089D01*
X268165Y72057D01*
X268171Y72051D01*
X268190Y72032D01*
X268215Y72001D01*
X268247Y71963D01*
X268278Y71913D01*
X268316Y71863D01*
X268391Y71756D01*
X266180D01*
Y74858D01*
X266187Y74827D01*
D02*
G37*
G36*
X290195Y73703D02*
X290189Y73747D01*
Y73797D01*
Y73854D01*
X290176Y73992D01*
X290164Y74142D01*
X290145Y74312D01*
X290126Y74494D01*
X290095Y74689D01*
X290057Y74884D01*
X290013Y75078D01*
X289956Y75273D01*
X289894Y75461D01*
X289818Y75637D01*
X289730Y75800D01*
X289630Y75945D01*
X289624Y75951D01*
X289605Y75970D01*
X289580Y76001D01*
X289542Y76039D01*
X289492Y76083D01*
X289435Y76133D01*
X289366Y76190D01*
X289291Y76246D01*
X289203Y76297D01*
X289102Y76353D01*
X288996Y76403D01*
X288876Y76447D01*
X288751Y76485D01*
X288613Y76516D01*
X288468Y76535D01*
X288317Y76541D01*
X290195D01*
Y73703D01*
D02*
G37*
G36*
X288386Y75612D02*
X288437Y75599D01*
X288493Y75587D01*
X288556Y75562D01*
X288613Y75530D01*
X288675Y75486D01*
X288682Y75480D01*
X288700Y75461D01*
X288732Y75430D01*
X288763Y75380D01*
X288801Y75317D01*
X288845Y75242D01*
X288883Y75141D01*
X288920Y75028D01*
Y75022D01*
X288927Y75009D01*
X288933Y74984D01*
X288939Y74946D01*
X288945Y74896D01*
X288958Y74840D01*
X288964Y74764D01*
X288977Y74683D01*
X288989Y74588D01*
X288996Y74482D01*
X289008Y74362D01*
X289014Y74230D01*
X289021Y74092D01*
X289027Y73929D01*
X289033Y73759D01*
Y73577D01*
Y73565D01*
Y73533D01*
Y73483D01*
Y73414D01*
X289027Y73326D01*
Y73232D01*
Y73131D01*
X289021Y73018D01*
X289008Y72786D01*
X288989Y72554D01*
X288977Y72441D01*
X288964Y72340D01*
X288952Y72252D01*
X288933Y72171D01*
Y72164D01*
X288927Y72152D01*
X288920Y72133D01*
X288914Y72108D01*
X288895Y72045D01*
X288864Y71970D01*
X288826Y71882D01*
X288782Y71800D01*
X288732Y71725D01*
X288675Y71668D01*
X288669Y71662D01*
X288650Y71649D01*
X288613Y71631D01*
X288569Y71605D01*
X288518Y71580D01*
X288456Y71561D01*
X288393Y71549D01*
X288317Y71543D01*
X288286D01*
X288248Y71549D01*
X288198Y71561D01*
X288141Y71574D01*
X288079Y71593D01*
X288022Y71624D01*
X287959Y71668D01*
X287953Y71675D01*
X287934Y71693D01*
X287903Y71725D01*
X287872Y71775D01*
X287827Y71838D01*
X287790Y71913D01*
X287752Y72014D01*
X287715Y72127D01*
Y72133D01*
X287708Y72145D01*
X287702Y72171D01*
X287696Y72208D01*
X287689Y72259D01*
X287677Y72315D01*
X287664Y72384D01*
X287652Y72466D01*
X287645Y72560D01*
X287633Y72667D01*
X287620Y72786D01*
X287614Y72918D01*
X287608Y73062D01*
X287601Y73219D01*
X287595Y73395D01*
Y73577D01*
Y73590D01*
Y73621D01*
Y73672D01*
Y73741D01*
Y73822D01*
X287601Y73923D01*
Y74023D01*
X287608Y74136D01*
X287620Y74369D01*
X287639Y74595D01*
X287652Y74708D01*
X287664Y74808D01*
X287683Y74896D01*
X287702Y74978D01*
Y74984D01*
X287708Y74997D01*
X287715Y75015D01*
X287721Y75041D01*
X287740Y75103D01*
X287771Y75185D01*
X287809Y75273D01*
X287853Y75354D01*
X287903Y75430D01*
X287959Y75486D01*
X287966Y75493D01*
X287984Y75505D01*
X288022Y75530D01*
X288060Y75555D01*
X288116Y75574D01*
X288179Y75599D01*
X288242Y75612D01*
X288317Y75618D01*
X288349D01*
X288386Y75612D01*
D02*
G37*
G36*
X274439Y73703D02*
X274432Y73747D01*
Y73797D01*
Y73854D01*
X274420Y73992D01*
X274407Y74142D01*
X274388Y74312D01*
X274370Y74494D01*
X274338Y74689D01*
X274300Y74884D01*
X274256Y75078D01*
X274200Y75273D01*
X274137Y75461D01*
X274062Y75637D01*
X273974Y75800D01*
X273873Y75945D01*
X273867Y75951D01*
X273848Y75970D01*
X273823Y76001D01*
X273785Y76039D01*
X273735Y76083D01*
X273679Y76133D01*
X273610Y76190D01*
X273534Y76246D01*
X273446Y76297D01*
X273346Y76353D01*
X273239Y76403D01*
X273120Y76447D01*
X272994Y76485D01*
X272856Y76516D01*
X272712Y76535D01*
X272561Y76541D01*
X274439D01*
Y73703D01*
D02*
G37*
G36*
X272630Y75612D02*
X272680Y75599D01*
X272737Y75587D01*
X272799Y75562D01*
X272856Y75530D01*
X272919Y75486D01*
X272925Y75480D01*
X272944Y75461D01*
X272975Y75430D01*
X273007Y75380D01*
X273044Y75317D01*
X273088Y75242D01*
X273126Y75141D01*
X273164Y75028D01*
Y75022D01*
X273170Y75009D01*
X273176Y74984D01*
X273183Y74946D01*
X273189Y74896D01*
X273201Y74840D01*
X273208Y74764D01*
X273220Y74683D01*
X273233Y74588D01*
X273239Y74482D01*
X273252Y74362D01*
X273258Y74230D01*
X273264Y74092D01*
X273271Y73929D01*
X273277Y73759D01*
Y73577D01*
Y73565D01*
Y73533D01*
Y73483D01*
Y73414D01*
X273271Y73326D01*
Y73232D01*
Y73131D01*
X273264Y73018D01*
X273252Y72786D01*
X273233Y72554D01*
X273220Y72441D01*
X273208Y72340D01*
X273195Y72252D01*
X273176Y72171D01*
Y72164D01*
X273170Y72152D01*
X273164Y72133D01*
X273157Y72108D01*
X273139Y72045D01*
X273107Y71970D01*
X273070Y71882D01*
X273026Y71800D01*
X272975Y71725D01*
X272919Y71668D01*
X272913Y71662D01*
X272894Y71649D01*
X272856Y71631D01*
X272812Y71605D01*
X272762Y71580D01*
X272699Y71561D01*
X272636Y71549D01*
X272561Y71543D01*
X272529D01*
X272492Y71549D01*
X272442Y71561D01*
X272385Y71574D01*
X272322Y71593D01*
X272266Y71624D01*
X272203Y71668D01*
X272197Y71675D01*
X272178Y71693D01*
X272146Y71725D01*
X272115Y71775D01*
X272071Y71838D01*
X272033Y71913D01*
X271996Y72014D01*
X271958Y72127D01*
Y72133D01*
X271952Y72145D01*
X271945Y72171D01*
X271939Y72208D01*
X271933Y72259D01*
X271920Y72315D01*
X271908Y72384D01*
X271895Y72466D01*
X271889Y72560D01*
X271876Y72667D01*
X271864Y72786D01*
X271858Y72918D01*
X271851Y73062D01*
X271845Y73219D01*
X271839Y73395D01*
Y73577D01*
Y73590D01*
Y73621D01*
Y73672D01*
Y73741D01*
Y73822D01*
X271845Y73923D01*
Y74023D01*
X271851Y74136D01*
X271864Y74369D01*
X271883Y74595D01*
X271895Y74708D01*
X271908Y74808D01*
X271927Y74896D01*
X271945Y74978D01*
Y74984D01*
X271952Y74997D01*
X271958Y75015D01*
X271964Y75041D01*
X271983Y75103D01*
X272014Y75185D01*
X272052Y75273D01*
X272096Y75354D01*
X272146Y75430D01*
X272203Y75486D01*
X272209Y75493D01*
X272228Y75505D01*
X272266Y75530D01*
X272303Y75555D01*
X272360Y75574D01*
X272423Y75599D01*
X272485Y75612D01*
X272561Y75618D01*
X272592D01*
X272630Y75612D01*
D02*
G37*
%LPC*%
G36*
X428124Y99016D02*
D01*
Y98957D01*
X427452D01*
Y98567D01*
X427449Y98570D01*
X427445Y98580D01*
X427435Y98593D01*
X427422Y98613D01*
X427409Y98632D01*
X427390Y98659D01*
X427350Y98714D01*
X427301Y98777D01*
X427248Y98836D01*
X427196Y98888D01*
X427170Y98911D01*
X427144Y98927D01*
X427137Y98931D01*
X427121Y98941D01*
X427091Y98957D01*
X427052Y98973D01*
X427006Y98987D01*
X426953Y99003D01*
X426894Y99013D01*
X426829Y99016D01*
X426806D01*
X426786Y99013D01*
X426763D01*
X426737Y99010D01*
X426711Y99006D01*
X426678Y99000D01*
X426602Y98983D01*
X426524Y98957D01*
X426438Y98924D01*
X426350Y98878D01*
X426576Y98245D01*
X426579D01*
X426583Y98252D01*
X426592Y98255D01*
X426606Y98265D01*
X426642Y98285D01*
X426688Y98308D01*
X426740Y98327D01*
X426796Y98347D01*
X426858Y98360D01*
X426917Y98367D01*
X426943D01*
X426970Y98363D01*
X427006Y98357D01*
X427045Y98347D01*
X427091Y98331D01*
X427134Y98311D01*
X427176Y98281D01*
X427180Y98278D01*
X427193Y98265D01*
X427212Y98242D01*
X427235Y98212D01*
X427262Y98170D01*
X427291Y98117D01*
X427317Y98052D01*
X427340Y97976D01*
Y97973D01*
X427344Y97966D01*
X427347Y97953D01*
X427350Y97930D01*
X427353Y97904D01*
X427360Y97871D01*
X427363Y97829D01*
X427370Y97780D01*
X427377Y97724D01*
X427380Y97658D01*
X427386Y97583D01*
X427390Y97497D01*
X427393Y97406D01*
X427396Y97301D01*
X427399Y97186D01*
Y97061D01*
Y96215D01*
X426350D01*
D01*
X428124D01*
Y99016D01*
D02*
G37*
G36*
X414617D02*
D01*
Y98957D01*
X413945D01*
Y98567D01*
X413942Y98570D01*
X413938Y98580D01*
X413928Y98593D01*
X413915Y98613D01*
X413902Y98632D01*
X413882Y98659D01*
X413843Y98714D01*
X413794Y98777D01*
X413741Y98836D01*
X413689Y98888D01*
X413663Y98911D01*
X413636Y98927D01*
X413630Y98931D01*
X413614Y98941D01*
X413584Y98957D01*
X413545Y98973D01*
X413499Y98987D01*
X413446Y99003D01*
X413387Y99013D01*
X413322Y99016D01*
X413299D01*
X413279Y99013D01*
X413256D01*
X413230Y99010D01*
X413204Y99006D01*
X413171Y99000D01*
X413095Y98983D01*
X413017Y98957D01*
X412931Y98924D01*
X412843Y98878D01*
X413069Y98245D01*
X413072D01*
X413076Y98252D01*
X413086Y98255D01*
X413099Y98265D01*
X413135Y98285D01*
X413181Y98308D01*
X413233Y98327D01*
X413289Y98347D01*
X413351Y98360D01*
X413410Y98367D01*
X413436D01*
X413463Y98363D01*
X413499Y98357D01*
X413538Y98347D01*
X413584Y98331D01*
X413627Y98311D01*
X413669Y98281D01*
X413673Y98278D01*
X413686Y98265D01*
X413705Y98242D01*
X413728Y98212D01*
X413755Y98170D01*
X413784Y98117D01*
X413810Y98052D01*
X413833Y97976D01*
Y97973D01*
X413837Y97966D01*
X413840Y97953D01*
X413843Y97930D01*
X413846Y97904D01*
X413853Y97871D01*
X413856Y97829D01*
X413863Y97780D01*
X413869Y97724D01*
X413873Y97658D01*
X413879Y97583D01*
X413882Y97497D01*
X413886Y97406D01*
X413889Y97301D01*
X413892Y97186D01*
Y97061D01*
Y96215D01*
X412843D01*
X414617D01*
Y99016D01*
D02*
G37*
G36*
X424759D02*
D01*
Y96986D01*
X424756Y97002D01*
Y97022D01*
X424753Y97045D01*
X424746Y97101D01*
X424733Y97163D01*
X424713Y97232D01*
X424687Y97304D01*
X424651Y97373D01*
Y97376D01*
X424644Y97379D01*
X424638Y97389D01*
X424631Y97402D01*
X424605Y97435D01*
X424569Y97478D01*
X424526Y97520D01*
X424474Y97570D01*
X424411Y97612D01*
X424339Y97652D01*
X424336D01*
X424329Y97655D01*
X424320Y97661D01*
X424303Y97668D01*
X424280Y97678D01*
X424257Y97688D01*
X424228Y97698D01*
X424192Y97711D01*
X424152Y97724D01*
X424110Y97737D01*
X424064Y97750D01*
X424011Y97766D01*
X423955Y97780D01*
X423896Y97793D01*
X423831Y97809D01*
X423762Y97822D01*
X423755D01*
X423739Y97825D01*
X423713Y97832D01*
X423680Y97838D01*
X423637Y97848D01*
X423588Y97858D01*
X423536Y97868D01*
X423480Y97881D01*
X423365Y97907D01*
X423247Y97937D01*
X423191Y97953D01*
X423139Y97970D01*
X423093Y97986D01*
X423053Y98002D01*
Y98075D01*
Y98078D01*
Y98085D01*
Y98094D01*
Y98107D01*
X423060Y98144D01*
X423067Y98190D01*
X423080Y98239D01*
X423096Y98288D01*
X423122Y98331D01*
X423158Y98370D01*
X423162Y98373D01*
X423178Y98383D01*
X423204Y98399D01*
X423224Y98406D01*
X423244Y98416D01*
X423270Y98426D01*
X423299Y98432D01*
X423329Y98442D01*
X423365Y98449D01*
X423404Y98452D01*
X423450Y98458D01*
X423496Y98462D01*
X423582D01*
X423614Y98458D01*
X423660Y98452D01*
X423706Y98442D01*
X423759Y98429D01*
X423808Y98409D01*
X423850Y98383D01*
X423854Y98380D01*
X423867Y98370D01*
X423886Y98350D01*
X423913Y98321D01*
X423939Y98285D01*
X423969Y98239D01*
X423998Y98183D01*
X424024Y98117D01*
X424684Y98235D01*
Y98239D01*
X424677Y98252D01*
X424670Y98275D01*
X424664Y98301D01*
X424651Y98334D01*
X424634Y98370D01*
X424618Y98413D01*
X424595Y98458D01*
X424572Y98504D01*
X424543Y98554D01*
X424513Y98603D01*
X424477Y98652D01*
X424438Y98698D01*
X424398Y98744D01*
X424352Y98783D01*
X424303Y98823D01*
X424300Y98826D01*
X424290Y98832D01*
X424274Y98839D01*
X424251Y98852D01*
X424224Y98869D01*
X424188Y98885D01*
X424149Y98901D01*
X424100Y98921D01*
X424047Y98937D01*
X423985Y98954D01*
X423919Y98970D01*
X423847Y98987D01*
X423769Y99000D01*
X423683Y99006D01*
X423595Y99013D01*
X423496Y99016D01*
X424759D01*
X422184D01*
X423450D01*
X423418Y99013D01*
X423375D01*
X423329Y99010D01*
X423280Y99006D01*
X423224Y99003D01*
X423106Y98987D01*
X422988Y98967D01*
X422929Y98954D01*
X422873Y98941D01*
X422821Y98921D01*
X422775Y98901D01*
X422771D01*
X422765Y98895D01*
X422752Y98888D01*
X422735Y98882D01*
X422716Y98869D01*
X422693Y98855D01*
X422643Y98823D01*
X422588Y98780D01*
X422532Y98731D01*
X422479Y98672D01*
X422457Y98642D01*
X422437Y98609D01*
Y98606D01*
X422434Y98599D01*
X422427Y98590D01*
X422420Y98573D01*
X422414Y98554D01*
X422404Y98527D01*
X422397Y98498D01*
X422388Y98462D01*
X422378Y98419D01*
X422368Y98373D01*
X422361Y98321D01*
X422355Y98262D01*
X422348Y98196D01*
X422342Y98124D01*
X422338Y98045D01*
Y97960D01*
X422348Y97114D01*
Y97110D01*
Y97097D01*
Y97081D01*
Y97055D01*
Y97025D01*
X422345Y96989D01*
Y96953D01*
Y96910D01*
X422342Y96825D01*
X422335Y96737D01*
X422325Y96651D01*
X422322Y96615D01*
X422315Y96579D01*
Y96576D01*
X422312Y96573D01*
Y96563D01*
X422309Y96549D01*
X422299Y96513D01*
X422286Y96471D01*
X422266Y96415D01*
X422243Y96353D01*
X422217Y96287D01*
X422184Y96215D01*
X422902D01*
Y96218D01*
X422909Y96228D01*
X422916Y96245D01*
X422922Y96267D01*
X422932Y96300D01*
X422945Y96336D01*
X422958Y96379D01*
X422975Y96428D01*
Y96431D01*
X422978Y96438D01*
X422981Y96451D01*
X422985Y96464D01*
X422991Y96491D01*
X422998Y96504D01*
X423001Y96513D01*
X423004Y96510D01*
X423011Y96507D01*
X423021Y96497D01*
X423034Y96484D01*
X423050Y96468D01*
X423070Y96451D01*
X423119Y96412D01*
X423178Y96369D01*
X423247Y96323D01*
X423319Y96281D01*
X423398Y96241D01*
X423401D01*
X423408Y96238D01*
X423418Y96235D01*
X423434Y96228D01*
X423454Y96222D01*
X423477Y96212D01*
X423503Y96205D01*
X423532Y96199D01*
X423601Y96182D01*
X423677Y96166D01*
X423762Y96156D01*
X423850Y96153D01*
X422184D01*
X423890D01*
X423919Y96156D01*
X423955Y96159D01*
X423998Y96166D01*
X424044Y96172D01*
X424093Y96182D01*
X424146Y96192D01*
X424198Y96208D01*
X424254Y96228D01*
X424310Y96251D01*
X424365Y96277D01*
X424418Y96307D01*
X424467Y96343D01*
X424516Y96382D01*
X424520Y96386D01*
X424526Y96392D01*
X424539Y96405D01*
X424556Y96425D01*
X424572Y96448D01*
X424592Y96474D01*
X424615Y96504D01*
X424638Y96540D01*
X424661Y96582D01*
X424684Y96625D01*
X424703Y96674D01*
X424720Y96723D01*
X424736Y96779D01*
X424749Y96838D01*
X424756Y96897D01*
X424759Y96963D01*
Y96166D01*
Y99016D01*
D02*
G37*
G36*
X431244D02*
D01*
Y97593D01*
X431240Y97629D01*
X431237Y97675D01*
X431234Y97734D01*
X431224Y97799D01*
X431214Y97871D01*
X431198Y97950D01*
X431181Y98035D01*
X431158Y98121D01*
X431129Y98209D01*
X431093Y98298D01*
X431053Y98386D01*
X431007Y98472D01*
X430952Y98554D01*
X430889Y98629D01*
X430886Y98632D01*
X430873Y98645D01*
X430853Y98665D01*
X430824Y98688D01*
X430791Y98718D01*
X430748Y98750D01*
X430699Y98786D01*
X430643Y98823D01*
X430581Y98859D01*
X430512Y98895D01*
X430440Y98927D01*
X430358Y98957D01*
X430276Y98980D01*
X430184Y99000D01*
X430089Y99013D01*
X429991Y99016D01*
X429964D01*
X429932Y99013D01*
X429889Y99010D01*
X429836Y99003D01*
X429777Y98993D01*
X429712Y98983D01*
X429640Y98967D01*
X429564Y98944D01*
X429486Y98918D01*
X429407Y98885D01*
X429325Y98845D01*
X429246Y98800D01*
X429167Y98744D01*
X429095Y98681D01*
X429026Y98609D01*
X429023Y98606D01*
X429010Y98590D01*
X428994Y98567D01*
X428970Y98534D01*
X428944Y98491D01*
X428915Y98439D01*
X428882Y98377D01*
X428849Y98304D01*
X428820Y98222D01*
X428787Y98131D01*
X428757Y98029D01*
X428734Y97921D01*
X428711Y97799D01*
X428695Y97668D01*
X428685Y97527D01*
Y97376D01*
X430499D01*
Y97373D01*
Y97363D01*
X430496Y97347D01*
Y97324D01*
X430492Y97294D01*
X430489Y97264D01*
X430483Y97228D01*
X430476Y97192D01*
X430453Y97110D01*
X430424Y97025D01*
X430404Y96986D01*
X430381Y96943D01*
X430355Y96907D01*
X430325Y96871D01*
X430322Y96868D01*
X430319Y96864D01*
X430309Y96855D01*
X430296Y96845D01*
X430279Y96832D01*
X430260Y96815D01*
X430210Y96782D01*
X430151Y96750D01*
X430079Y96720D01*
X429997Y96700D01*
X429954Y96697D01*
X429909Y96694D01*
X429879D01*
X429850Y96700D01*
X429810Y96707D01*
X429764Y96717D01*
X429715Y96733D01*
X429669Y96756D01*
X429623Y96786D01*
X429617Y96789D01*
X429604Y96802D01*
X429584Y96825D01*
X429558Y96858D01*
X429528Y96900D01*
X429499Y96953D01*
X429472Y97015D01*
X429446Y97087D01*
X428724Y96966D01*
Y96963D01*
X428731Y96950D01*
X428741Y96927D01*
X428751Y96900D01*
X428767Y96868D01*
X428784Y96828D01*
X428806Y96786D01*
X428833Y96740D01*
X428862Y96690D01*
X428895Y96641D01*
X428931Y96592D01*
X428970Y96543D01*
X429013Y96491D01*
X429062Y96445D01*
X429112Y96399D01*
X429167Y96359D01*
X429171Y96356D01*
X429180Y96349D01*
X429197Y96340D01*
X429220Y96327D01*
X429249Y96310D01*
X429285Y96294D01*
X429328Y96274D01*
X429374Y96258D01*
X429426Y96238D01*
X429482Y96218D01*
X429544Y96202D01*
X429610Y96185D01*
X429682Y96172D01*
X429758Y96162D01*
X429836Y96156D01*
X429918Y96153D01*
X428685D01*
X429948D01*
X429968Y96156D01*
X429987D01*
X430036Y96159D01*
X430096Y96166D01*
X430161Y96179D01*
X430237Y96192D01*
X430319Y96212D01*
X430401Y96235D01*
X430489Y96267D01*
X430578Y96303D01*
X430663Y96349D01*
X430748Y96402D01*
X430830Y96464D01*
X430906Y96536D01*
X430975Y96618D01*
X430978Y96622D01*
X430984Y96635D01*
X431001Y96658D01*
X431017Y96687D01*
X431037Y96723D01*
X431060Y96766D01*
X431083Y96819D01*
X431109Y96877D01*
X431135Y96943D01*
X431158Y97012D01*
X431181Y97091D01*
X431201Y97176D01*
X431217Y97264D01*
X431230Y97360D01*
X431240Y97458D01*
X431244Y97563D01*
Y96215D01*
Y99016D01*
D02*
G37*
G36*
X418386Y99997D02*
X417645D01*
X416096Y97468D01*
Y99997D01*
X415388D01*
Y96215D01*
X418386D01*
Y99997D01*
D02*
G37*
G36*
X420243Y97950D02*
X418819D01*
Y97225D01*
X420243D01*
Y97950D01*
D02*
G37*
G36*
X426035Y99997D02*
X425310D01*
Y99324D01*
X426035D01*
Y98957D01*
X425310D01*
Y96215D01*
X426035D01*
Y99997D01*
D02*
G37*
G36*
X421627D02*
X420902D01*
Y96215D01*
X421627D01*
Y99997D01*
D02*
G37*
G36*
X412531Y96940D02*
X411806D01*
Y96215D01*
X412531D01*
Y96940D01*
D02*
G37*
G36*
X434747Y100062D02*
D01*
Y96149D01*
X433235D01*
X433254Y96153D01*
X433303Y96156D01*
X433362Y96159D01*
X433431Y96166D01*
X433510Y96176D01*
X433592Y96192D01*
X433681Y96208D01*
X433769Y96231D01*
X433864Y96258D01*
X433956Y96290D01*
X434045Y96327D01*
X434133Y96372D01*
X434215Y96422D01*
X434291Y96481D01*
X434294Y96484D01*
X434307Y96497D01*
X434327Y96517D01*
X434353Y96543D01*
X434382Y96576D01*
X434415Y96618D01*
X434451Y96668D01*
X434491Y96727D01*
X434530Y96789D01*
X434570Y96861D01*
X434609Y96943D01*
X434645Y97028D01*
X434678Y97123D01*
X434707Y97225D01*
X434730Y97333D01*
X434747Y97448D01*
X434002Y97520D01*
Y97517D01*
X433999Y97504D01*
X433995Y97484D01*
X433989Y97458D01*
X433979Y97429D01*
X433969Y97392D01*
X433959Y97353D01*
X433943Y97311D01*
X433907Y97219D01*
X433861Y97130D01*
X433802Y97041D01*
X433769Y97005D01*
X433733Y96969D01*
X433730Y96966D01*
X433723Y96963D01*
X433710Y96953D01*
X433694Y96943D01*
X433674Y96930D01*
X433648Y96914D01*
X433618Y96897D01*
X433586Y96884D01*
X433549Y96868D01*
X433507Y96851D01*
X433461Y96835D01*
X433412Y96822D01*
X433359Y96812D01*
X433303Y96802D01*
X433241Y96799D01*
X433179Y96795D01*
X433143D01*
X433116Y96799D01*
X433087D01*
X433051Y96805D01*
X433011Y96809D01*
X432969Y96815D01*
X432880Y96835D01*
X432789Y96861D01*
X432700Y96900D01*
X432657Y96923D01*
X432621Y96950D01*
X432618Y96953D01*
X432615Y96956D01*
X432605Y96966D01*
X432592Y96979D01*
X432562Y97012D01*
X432526Y97055D01*
X432493Y97107D01*
X432464Y97169D01*
X432451Y97202D01*
X432441Y97238D01*
X432438Y97274D01*
X432434Y97314D01*
Y97320D01*
Y97337D01*
X432438Y97363D01*
X432444Y97392D01*
X432454Y97429D01*
X432467Y97468D01*
X432487Y97507D01*
X432513Y97543D01*
X432516Y97547D01*
X432529Y97560D01*
X432549Y97576D01*
X432575Y97599D01*
X432615Y97625D01*
X432664Y97652D01*
X432720Y97681D01*
X432789Y97707D01*
X432795Y97711D01*
X432805Y97714D01*
X432818Y97717D01*
X432834Y97720D01*
X432857Y97727D01*
X432884Y97737D01*
X432916Y97747D01*
X432952Y97757D01*
X432998Y97766D01*
X433048Y97780D01*
X433103Y97796D01*
X433166Y97812D01*
X433238Y97832D01*
X433317Y97852D01*
X433402Y97871D01*
X433405D01*
X433408Y97875D01*
X433428Y97878D01*
X433461Y97888D01*
X433500Y97898D01*
X433553Y97914D01*
X433608Y97930D01*
X433671Y97950D01*
X433740Y97976D01*
X433881Y98029D01*
X434022Y98094D01*
X434091Y98127D01*
X434153Y98167D01*
X434212Y98206D01*
X434261Y98245D01*
X434265Y98249D01*
X434278Y98258D01*
X434294Y98278D01*
X434317Y98301D01*
X434343Y98331D01*
X434373Y98367D01*
X434402Y98409D01*
X434435Y98458D01*
X434468Y98511D01*
X434497Y98567D01*
X434527Y98632D01*
X434553Y98698D01*
X434576Y98770D01*
X434592Y98845D01*
X434606Y98924D01*
X434609Y99006D01*
Y99010D01*
Y99019D01*
Y99036D01*
X434606Y99055D01*
X434602Y99082D01*
X434599Y99111D01*
X434596Y99144D01*
X434589Y99183D01*
X434570Y99265D01*
X434540Y99354D01*
X434524Y99403D01*
X434501Y99449D01*
X434478Y99498D01*
X434448Y99544D01*
X434445Y99547D01*
X434442Y99554D01*
X434432Y99567D01*
X434419Y99587D01*
X434402Y99607D01*
X434379Y99633D01*
X434356Y99659D01*
X434327Y99689D01*
X434297Y99718D01*
X434261Y99748D01*
X434222Y99780D01*
X434179Y99813D01*
X434133Y99843D01*
X434084Y99875D01*
X434032Y99902D01*
X433976Y99928D01*
X433973D01*
X433963Y99935D01*
X433943Y99941D01*
X433920Y99948D01*
X433890Y99961D01*
X433854Y99971D01*
X433815Y99984D01*
X433766Y99997D01*
X433717Y100007D01*
X433658Y100020D01*
X433599Y100033D01*
X433533Y100043D01*
X433461Y100049D01*
X433389Y100056D01*
X433310Y100062D01*
X433182D01*
X433162Y100059D01*
X433113D01*
X433054Y100052D01*
X432985Y100046D01*
X432910Y100036D01*
X432828Y100023D01*
X432743Y100007D01*
X432654Y99987D01*
X432565Y99961D01*
X432477Y99931D01*
X432392Y99895D01*
X432306Y99853D01*
X432231Y99803D01*
X432159Y99748D01*
X432155Y99744D01*
X432142Y99734D01*
X432126Y99715D01*
X432103Y99692D01*
X432073Y99659D01*
X432044Y99623D01*
X432011Y99577D01*
X431975Y99528D01*
X431942Y99469D01*
X431906Y99406D01*
X431877Y99338D01*
X431847Y99265D01*
X431821Y99187D01*
X431801Y99101D01*
X431785Y99010D01*
X431778Y98914D01*
X432543Y98882D01*
Y98885D01*
X432546Y98895D01*
X432549Y98911D01*
X432552Y98931D01*
X432559Y98954D01*
X432565Y98980D01*
X432588Y99042D01*
X432615Y99111D01*
X432654Y99183D01*
X432700Y99246D01*
X432726Y99275D01*
X432756Y99301D01*
X432759D01*
X432762Y99308D01*
X432772Y99314D01*
X432785Y99321D01*
X432802Y99331D01*
X432825Y99341D01*
X432847Y99354D01*
X432877Y99367D01*
X432906Y99377D01*
X432943Y99390D01*
X432982Y99400D01*
X433028Y99410D01*
X433074Y99416D01*
X433126Y99423D01*
X433179Y99429D01*
X433271D01*
X433294Y99426D01*
X433320D01*
X433353Y99423D01*
X433389Y99419D01*
X433428Y99413D01*
X433510Y99397D01*
X433599Y99370D01*
X433681Y99338D01*
X433723Y99314D01*
X433759Y99292D01*
X433766Y99288D01*
X433779Y99275D01*
X433795Y99256D01*
X433818Y99229D01*
X433841Y99196D01*
X433858Y99154D01*
X433871Y99108D01*
X433877Y99055D01*
Y99049D01*
X433874Y99032D01*
X433871Y99010D01*
X433864Y98977D01*
X433851Y98941D01*
X433832Y98901D01*
X433802Y98862D01*
X433766Y98826D01*
X433763D01*
X433759Y98819D01*
X433749Y98813D01*
X433733Y98806D01*
X433717Y98793D01*
X433690Y98780D01*
X433661Y98767D01*
X433625Y98750D01*
X433582Y98731D01*
X433530Y98711D01*
X433474Y98691D01*
X433408Y98668D01*
X433336Y98645D01*
X433254Y98623D01*
X433162Y98596D01*
X433064Y98573D01*
X433057D01*
X433041Y98567D01*
X433011Y98560D01*
X432972Y98550D01*
X432926Y98537D01*
X432874Y98524D01*
X432815Y98508D01*
X432752Y98491D01*
X432618Y98449D01*
X432480Y98403D01*
X432414Y98380D01*
X432352Y98353D01*
X432293Y98327D01*
X432241Y98301D01*
X432237D01*
X432228Y98295D01*
X432214Y98288D01*
X432195Y98275D01*
X432175Y98262D01*
X432149Y98245D01*
X432087Y98199D01*
X432021Y98147D01*
X431949Y98081D01*
X431883Y98002D01*
X431821Y97917D01*
X431818Y97914D01*
X431814Y97907D01*
X431808Y97891D01*
X431798Y97875D01*
X431785Y97852D01*
X431772Y97822D01*
X431758Y97789D01*
X431745Y97750D01*
X431732Y97711D01*
X431719Y97665D01*
X431706Y97615D01*
X431693Y97563D01*
X431683Y97504D01*
X431676Y97445D01*
X431670Y97383D01*
Y97284D01*
X431673Y97261D01*
X431676Y97232D01*
X431680Y97199D01*
X431686Y97160D01*
X431693Y97120D01*
X431703Y97074D01*
X431716Y97025D01*
X431749Y96923D01*
X431768Y96871D01*
X431791Y96815D01*
X431821Y96759D01*
X431854Y96707D01*
X431857Y96704D01*
X431863Y96694D01*
X431873Y96681D01*
X431886Y96661D01*
X431906Y96638D01*
X431929Y96612D01*
X431955Y96582D01*
X431985Y96549D01*
X432021Y96517D01*
X432057Y96481D01*
X432100Y96445D01*
X432146Y96412D01*
X432195Y96376D01*
X432247Y96346D01*
X432306Y96313D01*
X432365Y96287D01*
X432369D01*
X432382Y96281D01*
X432398Y96274D01*
X432424Y96264D01*
X432457Y96254D01*
X432497Y96245D01*
X432539Y96231D01*
X432592Y96218D01*
X432647Y96205D01*
X432710Y96192D01*
X432779Y96182D01*
X432851Y96172D01*
X432926Y96162D01*
X433008Y96156D01*
X433094Y96153D01*
X433185Y96149D01*
X431670D01*
D01*
X434747D01*
Y100062D01*
D02*
G37*
%LPD*%
G36*
X423060Y97527D02*
X423070D01*
X423080Y97520D01*
X423096Y97517D01*
X423112Y97511D01*
X423135Y97504D01*
X423162Y97497D01*
X423191Y97491D01*
X423224Y97481D01*
X423260Y97471D01*
X423299Y97461D01*
X423345Y97452D01*
X423391Y97438D01*
X423444Y97429D01*
X423499Y97415D01*
X423503D01*
X423513Y97412D01*
X423529Y97409D01*
X423549Y97406D01*
X423572Y97399D01*
X423601Y97392D01*
X423660Y97376D01*
X423729Y97356D01*
X423791Y97337D01*
X423821Y97327D01*
X423850Y97314D01*
X423873Y97304D01*
X423893Y97291D01*
X423900Y97287D01*
X423916Y97274D01*
X423939Y97251D01*
X423962Y97222D01*
X423988Y97186D01*
X424011Y97140D01*
X424028Y97091D01*
X424031Y97065D01*
X424034Y97035D01*
Y97028D01*
X424031Y97009D01*
X424028Y96983D01*
X424021Y96946D01*
X424008Y96904D01*
X423988Y96861D01*
X423959Y96815D01*
X423923Y96773D01*
X423916Y96769D01*
X423903Y96756D01*
X423877Y96740D01*
X423844Y96720D01*
X423801Y96697D01*
X423752Y96681D01*
X423693Y96668D01*
X423631Y96664D01*
X423611D01*
X423598Y96668D01*
X423578D01*
X423559Y96671D01*
X423509Y96681D01*
X423454Y96697D01*
X423391Y96717D01*
X423322Y96750D01*
X423257Y96792D01*
X423250Y96795D01*
X423237Y96809D01*
X423214Y96832D01*
X423185Y96858D01*
X423155Y96894D01*
X423129Y96933D01*
X423103Y96983D01*
X423083Y97032D01*
Y97035D01*
X423080Y97051D01*
X423073Y97074D01*
X423067Y97110D01*
Y97133D01*
X423063Y97160D01*
X423060Y97189D01*
X423057Y97219D01*
Y97255D01*
X423053Y97294D01*
Y97340D01*
Y97386D01*
Y97530D01*
X423060Y97527D01*
D02*
G37*
G36*
X429984Y98458D02*
X430004Y98455D01*
X430027Y98452D01*
X430082Y98439D01*
X430145Y98419D01*
X430210Y98390D01*
X430243Y98370D01*
X430273Y98347D01*
X430305Y98317D01*
X430335Y98288D01*
Y98285D01*
X430342Y98281D01*
X430348Y98272D01*
X430358Y98255D01*
X430371Y98239D01*
X430384Y98219D01*
X430397Y98193D01*
X430410Y98163D01*
X430427Y98134D01*
X430440Y98098D01*
X430453Y98058D01*
X430466Y98016D01*
X430483Y97924D01*
X430486Y97871D01*
X430489Y97819D01*
X429403D01*
Y97822D01*
Y97832D01*
X429407Y97848D01*
Y97871D01*
X429410Y97898D01*
X429413Y97927D01*
X429420Y97960D01*
X429426Y97996D01*
X429446Y98075D01*
X429476Y98153D01*
X429515Y98229D01*
X429541Y98265D01*
X429567Y98298D01*
X429571Y98301D01*
X429574Y98304D01*
X429584Y98314D01*
X429594Y98324D01*
X429627Y98350D01*
X429672Y98380D01*
X429728Y98409D01*
X429790Y98435D01*
X429866Y98455D01*
X429902Y98458D01*
X429945Y98462D01*
X429968D01*
X429984Y98458D01*
D02*
G37*
G36*
X417677Y96215D02*
X416156D01*
X417677Y98685D01*
Y96215D01*
D02*
G37*
D14*
X410303Y68154D02*
Y94138D01*
X436288D01*
Y68154D02*
Y94138D01*
X410303Y68154D02*
X436288D01*
D95*
X288279Y15484D02*
X288166Y16540D01*
X287779Y17529D01*
X287147Y18382D01*
X286313Y19039D01*
X227336Y21772D02*
X226734Y22472D01*
X226068Y23113D01*
X225345Y23687D01*
X219208Y21766D02*
X218599Y22476D01*
X217918Y23117D01*
X217172Y23682D01*
X252129Y13114D02*
X253086Y13196D01*
X254008Y13465D01*
X295046Y23559D02*
X294493Y24149D01*
X293878Y24674D01*
X319240Y13387D02*
X320068Y13227D01*
X320906Y13134D01*
X321749Y13108D01*
X254555Y25276D02*
X253365Y25630D01*
X252129Y25739D01*
X254008Y24013D02*
X253089Y24276D01*
X252137Y24365D01*
X251185Y24276D01*
X250266Y24013D01*
X249644Y12211D02*
X250604Y11913D01*
X251597Y11763D01*
X252602D01*
X253595Y11913D01*
X254555Y12211D01*
X318211Y12297D02*
X319074Y12034D01*
X319958Y11853D01*
X320855Y11754D01*
X321758Y11739D01*
X234581Y25303D02*
X233865Y24810D01*
X233301Y24150D01*
X232925Y23366D01*
X249647Y25262D02*
X248624Y24684D01*
X247760Y23888D01*
X256442Y23910D02*
X255577Y24702D01*
X254555Y25276D01*
X314843Y16496D02*
X315092Y15579D01*
X315476Y14710D01*
X315986Y13909D01*
X217172Y23682D02*
X216143Y24179D01*
X215014Y24359D01*
X219319Y23300D02*
X218809Y23934D01*
X218221Y24496D01*
X225345Y23687D02*
X224357Y24186D01*
X223265Y24365D01*
X234111Y22382D02*
X233982Y21584D01*
X233946Y20776D01*
X239272Y23696D02*
X238225Y24190D01*
X237081Y24365D01*
X241386Y23419D02*
X240773Y24056D01*
X240097Y24624D01*
X250266Y24013D02*
X249481Y23574D01*
X248819Y22965D01*
X247760Y23888D02*
X247259Y23213D01*
X246854Y22477D01*
X246552Y21693D01*
X246552Y15793D02*
X246853Y15006D01*
X247256Y14266D01*
X247754Y13585D01*
X248620Y12789D01*
X249644Y12211D01*
X250266Y13465D02*
X251180Y13196D01*
X252129Y13114D01*
X257647Y21719D02*
X257346Y22501D01*
X256942Y23236D01*
X256442Y23910D01*
X255455Y22965D02*
X254793Y23574D01*
X254008Y24013D01*
X256434Y13577D02*
X256935Y14257D01*
X257341Y14998D01*
X257647Y15785D01*
X254555Y12211D02*
X255574Y12784D01*
X256434Y13577D01*
X268259Y56034D02*
X268120Y55950D01*
X262080Y55655D02*
X261630Y56741D01*
X285448Y19497D02*
X284956Y19688D01*
X278813Y15467D02*
X279669Y14650D01*
X282008Y13329D02*
X283385Y13114D01*
X278813Y13800D02*
X279486Y13258D01*
X280207Y12779D01*
X287527Y23369D02*
X287230Y23931D01*
X287083Y12760D02*
X287958Y13948D01*
X315986Y13909D02*
X316625Y13239D01*
X317375Y12695D01*
X318211Y12297D01*
X327922Y14452D02*
X328335Y15288D01*
X328633Y16170D01*
X321749Y13108D02*
X322584Y13134D01*
X323414Y13227D01*
X324234Y13387D01*
X217041Y25243D02*
X215837Y25628D01*
X214725Y24351D02*
X214453Y24326D01*
X212759Y25303D02*
X212045Y24743D01*
X211529Y23996D01*
X215837Y25628D02*
X214660Y25739D01*
X212605Y22923D02*
X212527Y22680D01*
X226028Y24649D02*
X224868Y25346D01*
X223828Y25664D02*
X222885Y25739D01*
X222885Y25739D02*
X221726Y25605D01*
X220655Y25140D01*
X221173Y23523D02*
X220730Y22407D01*
X242866Y57191D02*
X241780Y56741D01*
X243081Y56025D02*
X242498Y55440D01*
X238865Y25327D02*
X237722Y25653D01*
X236693Y25739D02*
X235941Y25695D01*
X235202Y25545D01*
X237081Y24365D02*
X235617Y24150D01*
X241394Y21805D02*
X240747Y22501D01*
X240037Y23133D01*
X239272Y23696D01*
X252129Y25739D02*
X251283Y25693D01*
X250450Y25533D01*
X249647Y25262D01*
X248819Y14530D02*
X249479Y13911D01*
X250266Y13465D01*
X254008D02*
X254796Y13911D01*
X255455Y14530D01*
X261356Y33248D02*
X262445Y32791D01*
X285497Y25291D02*
X285153Y25410D01*
X283268Y24341D02*
X282552Y24365D01*
X283528Y25703D02*
X283059Y25731D01*
X282552Y24365D02*
X281523Y24307D01*
X280525Y24055D01*
X282566Y25739D02*
X281361Y25667D01*
X280184Y25396D01*
X280184D02*
X279328Y24998D01*
X278590Y24409D01*
X285382Y23782D02*
X285183Y23893D01*
X279409Y23205D02*
X278924Y21925D01*
X281180Y20298D02*
X280413Y20311D01*
X283245Y20107D02*
X282596Y20196D01*
X285404Y18077D02*
X285093Y18240D01*
X283539Y18721D02*
X283074Y18799D01*
X282052Y18902D02*
X280907Y18936D01*
X285325Y13438D02*
X285948Y13775D01*
X280750Y13886D02*
X282008Y13329D01*
X282822Y11826D02*
X284121Y11739D01*
X280207Y12779D02*
X281531Y12144D01*
X284121Y11739D02*
X284955Y11803D01*
X285767Y12004D01*
X292311Y24125D02*
X291165Y24365D01*
X292762Y25346D02*
X291714Y25664D01*
X294301Y22622D02*
X293367Y23497D01*
X302737Y56905D02*
X302323Y57077D01*
X301373Y32791D02*
X302459Y33243D01*
X302909Y34330D01*
X300048Y13270D02*
X300854Y13348D01*
X302033Y12144D02*
X302870Y12891D01*
X317402Y14427D02*
X318247Y13776D01*
X319240Y13387D01*
X324234Y13387D02*
X325223Y13777D01*
X326071Y14419D01*
X321758Y11739D02*
X322734Y11766D01*
X323703Y11883D01*
X324657Y12091D01*
X324657Y12091D02*
X325702Y12477D01*
X326659Y13044D01*
X246552Y21693D02*
X246318Y20725D01*
X246177Y19739D01*
X246130Y18744D01*
X246177Y17748D01*
X246318Y16762D01*
X246552Y15793D01*
X247877Y21214D02*
X247659Y20243D01*
X247550Y19255D01*
Y18260D01*
X247659Y17271D01*
X247877Y16301D01*
X256389Y16301D02*
X256599Y17272D01*
X256705Y18260D01*
X256705Y19254D01*
X256599Y20243D01*
X256389Y21214D01*
X257647Y15785D02*
X257884Y16759D01*
X258027Y17751D01*
X258075Y18752D01*
X258027Y19753D01*
X257884Y20745D01*
X257647Y21719D01*
X220655Y25140D02*
X219828Y24335D01*
X219319Y23300D01*
X286885Y15621D02*
X286716Y16609D01*
X286199Y17467D01*
X285404Y18077D01*
X316287Y16532D02*
X316715Y15411D01*
X317402Y14427D01*
X326071Y14419D02*
X326776Y15399D01*
X327214Y16524D01*
X328633Y16170D02*
X328832Y17108D01*
X328937Y18060D01*
X212366Y21824D02*
X212336Y21496D01*
X210972Y21816D02*
X210935Y20896D01*
X211529Y23996D02*
X211269Y23366D01*
X213352Y23949D02*
X212909Y23523D01*
X220730Y22407D02*
X220628Y21595D01*
X220602Y20776D01*
X222010Y24158D02*
X221173Y23523D01*
X227336Y23419D02*
X226713Y24067D01*
X226028Y24649D01*
X232594Y21816D02*
X232552Y20896D01*
X235617Y24150D02*
X234646Y23497D01*
X241780Y56741D02*
X241330Y55655D01*
X248819Y22965D02*
X248257Y22138D01*
X247877Y21214D01*
X247877Y16301D02*
X248259Y15368D01*
X248819Y14530D01*
X256389Y21214D02*
X256014Y22139D01*
X255455Y22965D01*
X255455Y14530D02*
X256013Y15368D01*
X256389Y16301D01*
X266443Y56782D02*
X266539Y55964D01*
X278924Y21925D02*
X278844Y21120D01*
X278821Y20311D01*
X277697Y22845D02*
X277482Y21821D01*
X277418Y20776D01*
X278590Y24409D02*
X278050Y23681D01*
X277697Y22845D01*
X280525Y24055D02*
X279409Y23205D01*
X283805Y55862D02*
X283391Y56034D01*
X285145Y55655D02*
X284695Y56741D01*
X285183Y23893D02*
X284966Y23992D01*
X284300Y13173D02*
X284577Y13220D01*
X285948Y13775D02*
X286655Y14576D01*
X286885Y15621D01*
X287958Y13948D02*
X288203Y14698D01*
X288279Y15484D01*
X293367Y23497D02*
X292311Y24125D01*
X295046Y21618D02*
X294301Y22622D01*
X301813Y14447D02*
X301936Y15763D01*
X302870Y12891D02*
X303243Y14134D01*
X303243D02*
X303312Y15006D01*
X303330Y15880D01*
X314514Y19965D02*
X314542Y18802D01*
X314651Y17644D01*
X314843Y16496D01*
X315908Y20020D02*
X315914Y19141D01*
X315980Y18264D01*
X316105Y17393D01*
X316287Y16532D01*
X327214Y16524D02*
X327401Y17386D01*
X327529Y18259D01*
X327597Y19138D01*
X327605Y20020D01*
X326659Y13044D02*
X327362Y13684D01*
X327922Y14452D01*
X328988Y19217D02*
X328998Y19781D01*
X212408Y22131D02*
X212366Y21824D01*
X212527Y22680D02*
X212461Y22416D01*
X211269Y23366D02*
X211083Y22640D01*
X212461Y22416D02*
X212408Y22131D01*
X211083Y22640D02*
X210972Y21816D01*
X212336Y21496D02*
X212312Y20776D01*
X213740Y24150D02*
X213537Y24058D01*
X213960Y24225D02*
X213740Y24150D01*
X214198Y24284D02*
X213960Y24225D01*
X214453Y24326D02*
X214198Y24284D01*
X213318Y25545D02*
X212759Y25303D01*
X213537Y24058D02*
X213352Y23949D01*
X214660Y25739D02*
X213318Y25545D01*
X212694Y23144D02*
X212605Y22923D01*
X212796Y23344D02*
X212694Y23144D01*
X212909Y23523D02*
X212796Y23344D01*
X215014Y24359D02*
X214725Y24351D01*
X218221Y24496D02*
X217041Y25243D01*
X223265Y24365D02*
X222010Y24158D01*
X224868Y25346D02*
X223828Y25664D01*
X232718Y22640D02*
X232594Y21816D01*
X232925Y23366D02*
X232718Y22640D01*
X234289Y32967D02*
X234705Y32791D01*
X234705Y33973D02*
X234122Y33388D01*
X234122Y33388D02*
X234289Y32967D01*
X235202Y25545D02*
X234581Y25303D01*
X234646Y23497D02*
X234111Y22382D01*
X237722Y25653D02*
X236693Y25739D01*
X240097Y24624D02*
X238865Y25327D01*
X241158Y34143D02*
X241330Y34556D01*
X240744Y33973D02*
X241158Y34143D01*
X240962Y32791D02*
X242048Y33243D01*
X242498Y34330D01*
X261630Y56741D02*
X260544Y57191D01*
X260912Y55440D02*
X260329Y56025D01*
X260912Y34344D02*
X261356Y33248D01*
X262252Y34132D02*
X262666Y33962D01*
X262080Y34545D02*
X262252Y34132D01*
X267158Y57191D02*
X266443Y56782D01*
X268120Y55950D02*
X268133Y55788D01*
X277326Y32791D02*
X277741Y32962D01*
X277912Y33376D02*
X277741Y33790D01*
X277326Y33962D01*
X277741Y32962D02*
X277912Y33376D01*
X279669Y14650D02*
X280750Y13886D01*
X283059Y25731D02*
X282566Y25739D01*
X281908Y20260D02*
X281180Y20298D01*
X282596Y20196D02*
X281908Y20260D01*
X282578Y18859D02*
X282052Y18902D01*
X283074Y18799D02*
X282578Y18859D01*
X281531Y12144D02*
X282822Y11826D01*
X284695Y56741D02*
X283608Y57191D01*
X283977Y55448D02*
X283805Y55862D01*
X284559Y39840D02*
X284973Y40011D01*
X285145Y40425D01*
X283977D02*
X284146Y40011D01*
X284559Y39840D01*
X284183Y34040D02*
X284306Y33976D01*
X283249Y33349D02*
X284306Y32791D01*
X284475Y24155D02*
X284202Y24219D01*
X284730Y24079D02*
X284475Y24155D01*
X284966Y23992D02*
X284730Y24079D01*
X285153Y25410D02*
X284784Y25511D01*
X284784D02*
X284391Y25594D01*
X283598Y24312D02*
X283268Y24341D01*
X283909Y24271D02*
X283598Y24312D01*
X283972Y25658D02*
X283528Y25703D01*
X284202Y24219D02*
X283909Y24271D01*
X284391Y25594D02*
X283972Y25658D01*
X284956Y19688D02*
X284425Y19853D01*
X283855Y19993D02*
X283245Y20107D01*
X284425Y19853D02*
X283855Y19993D01*
X284750Y18386D02*
X284377Y18515D01*
X285093Y18240D02*
X284750Y18386D01*
X283974Y18627D02*
X283539Y18721D01*
X284377Y18515D02*
X283974Y18627D01*
X284840Y13279D02*
X285325Y13438D01*
X284577Y13220D02*
X284840Y13279D01*
X283704Y13121D02*
X284009Y13140D01*
X283385Y13114D02*
X283704Y13121D01*
X284009Y13140D02*
X284300Y13173D01*
X285815Y25153D02*
X285497Y25291D01*
X287230Y23931D02*
X286377Y24822D01*
X286377Y24822D02*
X285815Y25153D01*
X286497Y22011D02*
X286146Y23027D01*
X285382Y23782D01*
X286313Y19039D02*
X285448Y19497D01*
X285767Y12004D02*
X286461Y12318D01*
X287083Y12760D01*
X287740Y22729D02*
X287644Y23058D01*
X287644D02*
X287527Y23369D01*
X287866Y22011D02*
X287740Y22729D01*
X291714Y25664D02*
X290797Y25739D01*
X290660Y24365D02*
X290245Y24331D01*
X293878Y24674D02*
X292762Y25346D01*
X299507Y13276D02*
X299540Y13274D01*
X299441Y13282D02*
X299507Y13276D01*
X299407Y13287D02*
X299441Y13282D01*
X299998Y11909D02*
X300174Y11900D01*
X302323Y57077D02*
X301741Y56491D01*
X301569Y34146D02*
X301741Y34559D01*
X301155Y33976D02*
X301569Y34146D01*
X301451Y13691D02*
X301813Y14447D01*
X300854Y13348D02*
X301451Y13691D01*
X300586Y11893D02*
X302033Y12144D01*
X302909Y56491D02*
X302737Y56905D01*
X328968Y18643D02*
X328988Y19217D01*
X262027Y29517D02*
X274831Y13903D01*
X268133Y55788D02*
X284183Y34040D01*
X266539Y55964D02*
X283249Y33349D01*
X268259Y56034D02*
X283391D01*
X267158Y57191D02*
X283608D01*
X234705Y32791D02*
X240962D01*
X234705Y33973D02*
X240744D01*
X262445Y32791D02*
X277326D01*
X262666Y33962D02*
X277326D01*
X260600Y30895D02*
X273705D01*
X262027Y29517D02*
X273705D01*
X260243Y12082D02*
X274831D01*
X260600Y29054D02*
X273426Y13457D01*
X242866Y57191D02*
X260544D01*
X243081Y56025D02*
X260329D01*
X260243Y13457D02*
X273426D01*
X284306Y32791D02*
X301373D01*
X284306Y33976D02*
X301155D01*
X303330Y24022D02*
X305045D01*
X303330Y25396D02*
X305045D01*
X227336D02*
X228730D01*
X227336Y12082D02*
X228730D01*
X241394Y30895D02*
X242788D01*
X241394Y12082D02*
X242788D01*
X278821Y20311D02*
X280413D01*
X278813Y18936D02*
X280907D01*
X286497Y22011D02*
X287866D01*
X301936Y28887D02*
X303330D01*
X295046Y25396D02*
X296440D01*
X299736Y24024D02*
X301936D01*
X299736Y25399D02*
X301936D01*
X300351Y11895D02*
X300410Y11894D01*
X295046Y12082D02*
X296440D01*
X308279Y30895D02*
X309673D01*
X308279Y12082D02*
X309673D01*
X314514Y30895D02*
X315908D01*
X327605D02*
X328999D01*
X212312Y12082D02*
Y20776D01*
X210918Y12082D02*
X210935Y20896D01*
X220602Y12077D02*
Y20776D01*
X219208Y12077D02*
Y21766D01*
X227336Y12082D02*
Y21772D01*
X228730Y12082D02*
Y25396D01*
X233946Y12082D02*
Y20776D01*
X232552Y12082D02*
Y20896D01*
X241394Y12082D02*
Y21805D01*
X242498Y34330D02*
Y55440D01*
X241330Y34556D02*
Y55655D01*
X242788Y12082D02*
Y30895D01*
X260912Y34344D02*
Y55440D01*
X262080Y34545D02*
Y55655D01*
X277418Y12082D02*
Y20776D01*
X285145Y40425D02*
Y55655D01*
X283977Y40425D02*
Y55448D01*
X295046Y12082D02*
Y21618D01*
X296440Y12082D02*
Y25396D01*
X301936Y15763D02*
Y24024D01*
X301741Y34559D02*
Y56491D01*
X303330Y15880D02*
Y24022D01*
X302909Y34330D02*
Y56491D01*
X308279Y12082D02*
Y30895D01*
X309673Y12082D02*
Y30895D01*
X314514Y19965D02*
Y30895D01*
X315908Y20020D02*
Y30895D01*
X327605Y20020D02*
Y30895D01*
X328999Y19967D02*
Y30895D01*
X227336Y23419D02*
Y25396D01*
X241386Y23419D02*
X241394Y30895D01*
X278813Y15467D02*
Y18936D01*
X295046Y23559D02*
Y25396D01*
X260600Y29054D02*
Y30895D01*
X260243Y12082D02*
Y13457D01*
X273705Y29517D02*
Y30895D01*
X274831Y12082D02*
Y13903D01*
X278813Y12082D02*
Y13800D01*
X299407Y13287D02*
X299410Y11962D01*
X301936Y25399D02*
Y28887D01*
X303330Y25396D02*
Y28887D01*
X210918Y12082D02*
X212312D01*
X219208Y12077D02*
X220602D01*
X232552Y12082D02*
X233946D01*
X277418D02*
X278813D01*
X290660Y24365D02*
X291165D01*
X290258Y25714D02*
X290537Y25739D01*
X290245Y24331D02*
X290258Y25714D01*
X290537Y25739D02*
X290797D01*
X299736Y24024D02*
Y25399D01*
X299719Y13270D02*
X300048D01*
X299662Y13270D02*
X299719Y13270D01*
X299633Y13271D02*
X299662Y13270D01*
X299602Y13271D02*
X299633Y13271D01*
X299571Y13272D02*
X299602Y13271D01*
X299540Y13274D02*
X299571Y13272D01*
X299410Y11962D02*
X299586Y11944D01*
X299704Y11933D01*
X299822Y11923D01*
X299939Y11914D01*
X299998Y11909D01*
X300174Y11900D02*
X300233Y11897D01*
X300292Y11896D01*
X300351Y11895D01*
X300410Y11894D02*
X300469Y11893D01*
X300528Y11893D01*
X300586Y11893D01*
X305045Y24022D02*
Y25396D01*
X328998Y19781D02*
X328999Y19967D01*
X328937Y18060D02*
X328968Y18643D01*
M02*
