G04*
G04 #@! TF.GenerationSoftware,Altium Limited,Altium Designer,25.4.2 (15)*
G04*
G04 Layer_Physical_Order=2*
G04 Layer_Color=36540*
%FSLAX25Y25*%
%MOIN*%
G70*
G04*
G04 #@! TF.SameCoordinates,336B1F89-BFE6-4481-99DC-D24D03349B4C*
G04*
G04*
G04 #@! TF.FilePolarity,Positive*
G04*
G01*
G75*
%ADD18C,0.01000*%
%ADD85C,0.06299*%
%ADD86O,0.10000X0.07500*%
%ADD87O,0.05100X0.09100*%
%ADD89C,0.09055*%
%ADD92C,0.06000*%
%ADD93C,0.02362*%
%ADD94C,0.01772*%
G36*
X612207Y261849D02*
X553151D01*
Y371696D01*
X612207D01*
Y261849D01*
D02*
G37*
G36*
X549215D02*
X490158D01*
Y371696D01*
X549215D01*
Y261849D01*
D02*
G37*
G36*
X454725D02*
X395670D01*
Y371696D01*
X454725D01*
Y261849D01*
D02*
G37*
G36*
X391733D02*
X332679D01*
Y371696D01*
X391733D01*
Y261849D01*
D02*
G37*
G36*
X297244D02*
X238188D01*
Y371696D01*
X297244D01*
Y261849D01*
D02*
G37*
G36*
X234252D02*
X175197D01*
Y371696D01*
X234252D01*
Y261849D01*
D02*
G37*
G36*
X139762D02*
X80709D01*
Y371696D01*
X139762D01*
Y261849D01*
D02*
G37*
G36*
X76770D02*
X17716D01*
Y371696D01*
X76770D01*
Y261849D01*
D02*
G37*
G36*
X573622Y228783D02*
X628900D01*
Y1020D01*
X1020Y1020D01*
X1020Y228783D01*
X55973D01*
Y242957D01*
X64839D01*
X64943Y242737D01*
X64975Y242457D01*
X64352Y241979D01*
X63817Y241282D01*
X63481Y240470D01*
X63366Y239598D01*
Y235598D01*
X63481Y234727D01*
X63817Y233915D01*
X64352Y233218D01*
X65049Y232683D01*
X65861Y232347D01*
X66732Y232232D01*
X67603Y232347D01*
X68415Y232683D01*
X69112Y233218D01*
X69648Y233915D01*
X69984Y234727D01*
X70099Y235598D01*
Y239598D01*
X69984Y240470D01*
X69648Y241282D01*
X69112Y241979D01*
X68489Y242457D01*
X68521Y242737D01*
X68625Y242957D01*
X72330D01*
X72500Y242457D01*
X72389Y242372D01*
X73179Y241582D01*
X72622Y241026D01*
X71833Y241815D01*
X71505Y241389D01*
X71148Y240525D01*
X71026Y239598D01*
Y237992D01*
X72164D01*
Y237205D01*
X71026D01*
Y235598D01*
X71148Y234672D01*
X71505Y233808D01*
X71833Y233382D01*
X72622Y234171D01*
X73179Y233614D01*
X72389Y232825D01*
X72816Y232498D01*
X73680Y232140D01*
X74606Y232018D01*
X75533Y232140D01*
X76397Y232498D01*
X76823Y232825D01*
X76034Y233614D01*
X76590Y234171D01*
X77380Y233382D01*
X77707Y233808D01*
X78065Y234672D01*
X78187Y235598D01*
Y237205D01*
X77049D01*
Y237992D01*
X78187D01*
Y239598D01*
X78065Y240525D01*
X77707Y241389D01*
X77380Y241815D01*
X76590Y241026D01*
X76034Y241582D01*
X76823Y242372D01*
X76713Y242457D01*
X76882Y242957D01*
X80587D01*
X80691Y242737D01*
X80723Y242457D01*
X80100Y241979D01*
X79565Y241282D01*
X79229Y240470D01*
X79114Y239598D01*
Y235598D01*
X79229Y234727D01*
X79565Y233915D01*
X80100Y233218D01*
X80797Y232683D01*
X81609Y232347D01*
X82480Y232232D01*
X83351Y232347D01*
X84163Y232683D01*
X84861Y233218D01*
X85395Y233915D01*
X85732Y234727D01*
X85847Y235598D01*
Y239598D01*
X85732Y240470D01*
X85395Y241282D01*
X84861Y241979D01*
X84237Y242457D01*
X84269Y242737D01*
X84374Y242957D01*
X88461D01*
X88565Y242737D01*
X88597Y242457D01*
X87974Y241979D01*
X87439Y241282D01*
X87103Y240470D01*
X86988Y239598D01*
Y235598D01*
X87103Y234727D01*
X87439Y233915D01*
X87974Y233218D01*
X88671Y232683D01*
X89483Y232347D01*
X90354Y232232D01*
X91226Y232347D01*
X92037Y232683D01*
X92735Y233218D01*
X93269Y233915D01*
X93606Y234727D01*
X93721Y235598D01*
Y239598D01*
X93606Y240470D01*
X93269Y241282D01*
X92735Y241979D01*
X92111Y242457D01*
X92143Y242737D01*
X92248Y242957D01*
X101181D01*
Y228783D01*
X213386D01*
Y242957D01*
X222319D01*
X222424Y242737D01*
X222455Y242457D01*
X221832Y241979D01*
X221297Y241282D01*
X220961Y240470D01*
X220846Y239598D01*
Y235598D01*
X220961Y234727D01*
X221297Y233915D01*
X221832Y233218D01*
X222530Y232683D01*
X223341Y232347D01*
X224213Y232232D01*
X225084Y232347D01*
X225896Y232683D01*
X226593Y233218D01*
X227128Y233915D01*
X227464Y234727D01*
X227579Y235598D01*
Y239598D01*
X227464Y240470D01*
X227128Y241282D01*
X226593Y241979D01*
X225970Y242457D01*
X226002Y242737D01*
X226106Y242957D01*
X229810D01*
X229980Y242457D01*
X229870Y242372D01*
X230659Y241582D01*
X230103Y241026D01*
X229313Y241815D01*
X228986Y241389D01*
X228628Y240525D01*
X228506Y239598D01*
Y237992D01*
X229644D01*
Y237205D01*
X228506D01*
Y235598D01*
X228628Y234672D01*
X228986Y233808D01*
X229313Y233382D01*
X230103Y234171D01*
X230659Y233614D01*
X229870Y232825D01*
X230296Y232498D01*
X231160Y232140D01*
X232087Y232018D01*
X233013Y232140D01*
X233877Y232498D01*
X234303Y232825D01*
X233514Y233614D01*
X234071Y234171D01*
X234860Y233382D01*
X235188Y233808D01*
X235545Y234672D01*
X235667Y235598D01*
Y237205D01*
X234529D01*
Y237992D01*
X235667D01*
Y239598D01*
X235545Y240525D01*
X235188Y241389D01*
X234860Y241815D01*
X234071Y241026D01*
X233514Y241582D01*
X234303Y242372D01*
X234193Y242457D01*
X234363Y242957D01*
X238067D01*
X238172Y242737D01*
X238203Y242457D01*
X237580Y241979D01*
X237045Y241282D01*
X236709Y240470D01*
X236594Y239598D01*
Y235598D01*
X236709Y234727D01*
X237045Y233915D01*
X237580Y233218D01*
X238278Y232683D01*
X239089Y232347D01*
X239961Y232232D01*
X240832Y232347D01*
X241644Y232683D01*
X242341Y233218D01*
X242876Y233915D01*
X243212Y234727D01*
X243327Y235598D01*
Y239598D01*
X243212Y240470D01*
X242876Y241282D01*
X242341Y241979D01*
X241718Y242457D01*
X241750Y242737D01*
X241854Y242957D01*
X245941D01*
X246045Y242737D01*
X246077Y242457D01*
X245454Y241979D01*
X244919Y241282D01*
X244583Y240470D01*
X244468Y239598D01*
Y235598D01*
X244583Y234727D01*
X244919Y233915D01*
X245454Y233218D01*
X246151Y232683D01*
X246963Y232347D01*
X247835Y232232D01*
X248706Y232347D01*
X249518Y232683D01*
X250215Y233218D01*
X250750Y233915D01*
X251086Y234727D01*
X251201Y235598D01*
Y239598D01*
X251086Y240470D01*
X250750Y241282D01*
X250215Y241979D01*
X249592Y242457D01*
X249624Y242737D01*
X249728Y242957D01*
X258661D01*
Y228783D01*
X370866D01*
Y242957D01*
X379800D01*
X379904Y242737D01*
X379936Y242457D01*
X379313Y241979D01*
X378778Y241282D01*
X378441Y240470D01*
X378327Y239598D01*
Y235598D01*
X378441Y234727D01*
X378778Y233915D01*
X379313Y233218D01*
X380010Y232683D01*
X380822Y232347D01*
X381693Y232232D01*
X382564Y232347D01*
X383376Y232683D01*
X384073Y233218D01*
X384608Y233915D01*
X384944Y234727D01*
X385059Y235598D01*
Y239598D01*
X384944Y240470D01*
X384608Y241282D01*
X384073Y241979D01*
X383450Y242457D01*
X383482Y242737D01*
X383586Y242957D01*
X387291D01*
X387460Y242457D01*
X387350Y242372D01*
X388140Y241582D01*
X387583Y241026D01*
X386793Y241815D01*
X386466Y241389D01*
X386108Y240525D01*
X385986Y239598D01*
Y237992D01*
X387124D01*
Y237205D01*
X385986D01*
Y235598D01*
X386108Y234672D01*
X386466Y233808D01*
X386793Y233382D01*
X387583Y234171D01*
X388140Y233614D01*
X387350Y232825D01*
X387777Y232498D01*
X388640Y232140D01*
X389567Y232018D01*
X390494Y232140D01*
X391357Y232498D01*
X391784Y232825D01*
X390994Y233614D01*
X391551Y234171D01*
X392340Y233382D01*
X392668Y233808D01*
X393025Y234672D01*
X393147Y235598D01*
Y237205D01*
X392009D01*
Y237992D01*
X393147D01*
Y239598D01*
X393025Y240525D01*
X392668Y241389D01*
X392340Y241815D01*
X391551Y241026D01*
X390994Y241582D01*
X391784Y242372D01*
X391673Y242457D01*
X391843Y242957D01*
X395548D01*
X395652Y242737D01*
X395684Y242457D01*
X395061Y241979D01*
X394526Y241282D01*
X394189Y240470D01*
X394075Y239598D01*
Y235598D01*
X394189Y234727D01*
X394526Y233915D01*
X395061Y233218D01*
X395758Y232683D01*
X396570Y232347D01*
X397441Y232232D01*
X398312Y232347D01*
X399124Y232683D01*
X399821Y233218D01*
X400356Y233915D01*
X400692Y234727D01*
X400807Y235598D01*
Y239598D01*
X400692Y240470D01*
X400356Y241282D01*
X399821Y241979D01*
X399198Y242457D01*
X399230Y242737D01*
X399334Y242957D01*
X403422D01*
X403526Y242737D01*
X403558Y242457D01*
X402935Y241979D01*
X402400Y241282D01*
X402063Y240470D01*
X401949Y239598D01*
Y235598D01*
X402063Y234727D01*
X402400Y233915D01*
X402935Y233218D01*
X403632Y232683D01*
X404444Y232347D01*
X405315Y232232D01*
X406186Y232347D01*
X406998Y232683D01*
X407695Y233218D01*
X408230Y233915D01*
X408566Y234727D01*
X408681Y235598D01*
Y239598D01*
X408566Y240470D01*
X408230Y241282D01*
X407695Y241979D01*
X407072Y242457D01*
X407104Y242737D01*
X407208Y242957D01*
X416142D01*
Y228783D01*
X528346D01*
Y242957D01*
X537280D01*
X537384Y242737D01*
X537416Y242457D01*
X536793Y241979D01*
X536258Y241282D01*
X535922Y240470D01*
X535807Y239598D01*
Y235598D01*
X535922Y234727D01*
X536258Y233915D01*
X536793Y233218D01*
X537490Y232683D01*
X538302Y232347D01*
X539173Y232232D01*
X540044Y232347D01*
X540856Y232683D01*
X541553Y233218D01*
X542088Y233915D01*
X542425Y234727D01*
X542539Y235598D01*
Y239598D01*
X542425Y240470D01*
X542088Y241282D01*
X541553Y241979D01*
X540930Y242457D01*
X540962Y242737D01*
X541067Y242957D01*
X544771D01*
X544941Y242457D01*
X544830Y242372D01*
X545620Y241582D01*
X545063Y241026D01*
X544274Y241815D01*
X543946Y241389D01*
X543589Y240525D01*
X543467Y239598D01*
Y237992D01*
X544605D01*
Y237205D01*
X543467D01*
Y235598D01*
X543589Y234672D01*
X543946Y233808D01*
X544274Y233382D01*
X545063Y234171D01*
X545620Y233614D01*
X544830Y232825D01*
X545257Y232498D01*
X546121Y232140D01*
X547047Y232018D01*
X547974Y232140D01*
X548838Y232498D01*
X549264Y232825D01*
X548474Y233614D01*
X549031Y234171D01*
X549821Y233382D01*
X550148Y233808D01*
X550506Y234672D01*
X550628Y235598D01*
Y237205D01*
X549490D01*
Y237992D01*
X550628D01*
Y239598D01*
X550506Y240525D01*
X550148Y241389D01*
X549821Y241815D01*
X549031Y241026D01*
X548474Y241582D01*
X549264Y242372D01*
X549154Y242457D01*
X549323Y242957D01*
X553028D01*
X553132Y242737D01*
X553164Y242457D01*
X552541Y241979D01*
X552006Y241282D01*
X551670Y240470D01*
X551555Y239598D01*
Y235598D01*
X551670Y234727D01*
X552006Y233915D01*
X552541Y233218D01*
X553238Y232683D01*
X554050Y232347D01*
X554921Y232232D01*
X555793Y232347D01*
X556604Y232683D01*
X557302Y233218D01*
X557836Y233915D01*
X558173Y234727D01*
X558287Y235598D01*
Y239598D01*
X558173Y240470D01*
X557836Y241282D01*
X557302Y241979D01*
X556678Y242457D01*
X556710Y242737D01*
X556814Y242957D01*
X560902D01*
X561006Y242737D01*
X561038Y242457D01*
X560415Y241979D01*
X559880Y241282D01*
X559544Y240470D01*
X559429Y239598D01*
Y235598D01*
X559544Y234727D01*
X559880Y233915D01*
X560415Y233218D01*
X561112Y232683D01*
X561924Y232347D01*
X562795Y232232D01*
X563666Y232347D01*
X564478Y232683D01*
X565175Y233218D01*
X565710Y233915D01*
X566047Y234727D01*
X566161Y235598D01*
Y239598D01*
X566047Y240470D01*
X565710Y241282D01*
X565175Y241979D01*
X564552Y242457D01*
X564584Y242737D01*
X564688Y242957D01*
X573622D01*
Y228783D01*
D02*
G37*
%LPC*%
G36*
X397703Y227209D02*
X396920D01*
X396196Y226909D01*
X395643Y226355D01*
X395343Y225632D01*
Y224849D01*
X395643Y224125D01*
X396196Y223571D01*
X396920Y223272D01*
X397703D01*
X398427Y223571D01*
X398980Y224125D01*
X399280Y224849D01*
Y225632D01*
X398980Y226355D01*
X398427Y226909D01*
X397703Y227209D01*
D02*
G37*
G36*
X82465Y226043D02*
X81682D01*
X80958Y225743D01*
X80405Y225189D01*
X80105Y224465D01*
Y223682D01*
X80405Y222959D01*
X80958Y222405D01*
X81682Y222106D01*
X82465D01*
X83188Y222405D01*
X83742Y222959D01*
X84042Y223682D01*
Y224465D01*
X83742Y225189D01*
X83188Y225743D01*
X82465Y226043D01*
D02*
G37*
G36*
X555183Y226028D02*
X554400D01*
X553677Y225728D01*
X553123Y225174D01*
X552823Y224451D01*
Y223668D01*
X553123Y222944D01*
X553677Y222390D01*
X554400Y222091D01*
X555183D01*
X555907Y222390D01*
X556461Y222944D01*
X556760Y223668D01*
Y224451D01*
X556461Y225174D01*
X555907Y225728D01*
X555183Y226028D01*
D02*
G37*
G36*
X240223D02*
X239440D01*
X238716Y225728D01*
X238162Y225174D01*
X237863Y224451D01*
Y223668D01*
X238162Y222944D01*
X238716Y222390D01*
X239440Y222091D01*
X240223D01*
X240946Y222390D01*
X241500Y222944D01*
X241800Y223668D01*
Y224451D01*
X241500Y225174D01*
X240946Y225728D01*
X240223Y226028D01*
D02*
G37*
G36*
X616879Y225984D02*
X615405D01*
X613960Y225697D01*
X612599Y225133D01*
X611373Y224314D01*
X610331Y223272D01*
X609513Y222047D01*
X608949Y220686D01*
X608661Y219241D01*
Y217767D01*
X608949Y216322D01*
X609513Y214961D01*
X610331Y213736D01*
X611373Y212694D01*
X612599Y211875D01*
X613960Y211311D01*
X615405Y211024D01*
X616879D01*
X618324Y211311D01*
X619685Y211875D01*
X620910Y212694D01*
X621952Y213736D01*
X622771Y214961D01*
X623335Y216322D01*
X623622Y217767D01*
Y219241D01*
X623335Y220686D01*
X622771Y222047D01*
X621952Y223272D01*
X620910Y224314D01*
X619685Y225133D01*
X618324Y225697D01*
X616879Y225984D01*
D02*
G37*
G36*
X14516Y225984D02*
X13043D01*
X11598Y225697D01*
X10236Y225133D01*
X9011Y224314D01*
X7969Y223272D01*
X7151Y222047D01*
X6587Y220686D01*
X6299Y219241D01*
Y217767D01*
X6587Y216322D01*
X7151Y214961D01*
X7969Y213736D01*
X9011Y212694D01*
X10236Y211875D01*
X11598Y211311D01*
X13043Y211024D01*
X14516D01*
X15961Y211311D01*
X17323Y211875D01*
X18548Y212694D01*
X19590Y213736D01*
X20409Y214961D01*
X20972Y216322D01*
X21260Y217767D01*
Y219241D01*
X20972Y220686D01*
X20409Y222047D01*
X19590Y223272D01*
X18548Y224314D01*
X17323Y225133D01*
X15961Y225697D01*
X14516Y225984D01*
D02*
G37*
G36*
X381699Y209194D02*
X380916D01*
X380193Y208894D01*
X379639Y208341D01*
X379339Y207617D01*
Y206834D01*
X379639Y206110D01*
X380193Y205557D01*
X380916Y205257D01*
X381699D01*
X382423Y205557D01*
X382977Y206110D01*
X383276Y206834D01*
Y207617D01*
X382977Y208341D01*
X382423Y208894D01*
X381699Y209194D01*
D02*
G37*
G36*
X224227D02*
X223444D01*
X222720Y208894D01*
X222167Y208341D01*
X221867Y207617D01*
Y206834D01*
X222167Y206110D01*
X222720Y205557D01*
X223444Y205257D01*
X224227D01*
X224951Y205557D01*
X225504Y206110D01*
X225804Y206834D01*
Y207617D01*
X225504Y208341D01*
X224951Y208894D01*
X224227Y209194D01*
D02*
G37*
G36*
X66412D02*
X65629D01*
X64905Y208894D01*
X64352Y208341D01*
X64052Y207617D01*
Y206834D01*
X64352Y206110D01*
X64905Y205557D01*
X65629Y205257D01*
X66412D01*
X67136Y205557D01*
X67689Y206110D01*
X67989Y206834D01*
Y207617D01*
X67689Y208341D01*
X67136Y208894D01*
X66412Y209194D01*
D02*
G37*
G36*
X539194Y209193D02*
X538411D01*
X537688Y208894D01*
X537134Y208340D01*
X536834Y207617D01*
Y206833D01*
X537134Y206110D01*
X537688Y205556D01*
X538411Y205257D01*
X539194D01*
X539918Y205556D01*
X540472Y206110D01*
X540771Y206833D01*
Y207617D01*
X540472Y208340D01*
X539918Y208894D01*
X539194Y209193D01*
D02*
G37*
G36*
X406747Y204065D02*
X405964D01*
X405240Y203765D01*
X404686Y203211D01*
X404387Y202488D01*
Y201705D01*
X404686Y200981D01*
X405240Y200428D01*
X405964Y200128D01*
X406747D01*
X407470Y200428D01*
X408024Y200981D01*
X408324Y201705D01*
Y202488D01*
X408024Y203211D01*
X407470Y203765D01*
X406747Y204065D01*
D02*
G37*
G36*
X249278Y203980D02*
X248495D01*
X247771Y203681D01*
X247217Y203127D01*
X246918Y202403D01*
Y201620D01*
X247217Y200897D01*
X247771Y200343D01*
X248495Y200043D01*
X249278D01*
X250001Y200343D01*
X250555Y200897D01*
X250855Y201620D01*
Y202403D01*
X250555Y203127D01*
X250001Y203681D01*
X249278Y203980D01*
D02*
G37*
G36*
X91404D02*
X90621D01*
X89897Y203681D01*
X89343Y203127D01*
X89044Y202403D01*
Y201620D01*
X89343Y200897D01*
X89897Y200343D01*
X90621Y200043D01*
X91404D01*
X92127Y200343D01*
X92681Y200897D01*
X92981Y201620D01*
Y202403D01*
X92681Y203127D01*
X92127Y203681D01*
X91404Y203980D01*
D02*
G37*
G36*
X564225Y203967D02*
X563442D01*
X562719Y203668D01*
X562165Y203114D01*
X561865Y202390D01*
Y201607D01*
X562165Y200884D01*
X562719Y200330D01*
X563442Y200030D01*
X564225D01*
X564949Y200330D01*
X565503Y200884D01*
X565802Y201607D01*
Y202390D01*
X565503Y203114D01*
X564949Y203668D01*
X564225Y203967D01*
D02*
G37*
G36*
X437786Y196495D02*
X437003D01*
X436280Y196195D01*
X435726Y195641D01*
X435426Y194918D01*
Y194135D01*
X435726Y193411D01*
X436280Y192857D01*
X437003Y192558D01*
X437786D01*
X438510Y192857D01*
X439064Y193411D01*
X439363Y194135D01*
Y194918D01*
X439064Y195641D01*
X438510Y196195D01*
X437786Y196495D01*
D02*
G37*
G36*
X280314D02*
X279531D01*
X278807Y196195D01*
X278253Y195641D01*
X277954Y194918D01*
Y194135D01*
X278253Y193411D01*
X278807Y192857D01*
X279531Y192558D01*
X280314D01*
X281037Y192857D01*
X281591Y193411D01*
X281891Y194135D01*
Y194918D01*
X281591Y195641D01*
X281037Y196195D01*
X280314Y196495D01*
D02*
G37*
G36*
X122499D02*
X121716D01*
X120992Y196195D01*
X120439Y195641D01*
X120139Y194918D01*
Y194135D01*
X120439Y193411D01*
X120992Y192857D01*
X121716Y192558D01*
X122499D01*
X123222Y192857D01*
X123776Y193411D01*
X124076Y194135D01*
Y194918D01*
X123776Y195641D01*
X123222Y196195D01*
X122499Y196495D01*
D02*
G37*
G36*
X595281Y196494D02*
X594498D01*
X593775Y196195D01*
X593221Y195641D01*
X592921Y194917D01*
Y194134D01*
X593221Y193411D01*
X593775Y192857D01*
X594498Y192557D01*
X595281D01*
X596005Y192857D01*
X596559Y193411D01*
X596858Y194134D01*
Y194917D01*
X596559Y195641D01*
X596005Y196195D01*
X595281Y196494D01*
D02*
G37*
G36*
X420805Y196355D02*
X420022D01*
X419298Y196056D01*
X418745Y195502D01*
X418445Y194778D01*
Y193995D01*
X418745Y193272D01*
X419298Y192718D01*
X420022Y192418D01*
X420805D01*
X421528Y192718D01*
X422082Y193272D01*
X422382Y193995D01*
Y194778D01*
X422082Y195502D01*
X421528Y196056D01*
X420805Y196355D01*
D02*
G37*
G36*
X263333D02*
X262549D01*
X261826Y196056D01*
X261272Y195502D01*
X260972Y194778D01*
Y193995D01*
X261272Y193272D01*
X261826Y192718D01*
X262549Y192418D01*
X263333D01*
X264056Y192718D01*
X264610Y193272D01*
X264909Y193995D01*
Y194778D01*
X264610Y195502D01*
X264056Y196056D01*
X263333Y196355D01*
D02*
G37*
G36*
X105517D02*
X104734D01*
X104011Y196056D01*
X103457Y195502D01*
X103157Y194778D01*
Y193995D01*
X103457Y193272D01*
X104011Y192718D01*
X104734Y192418D01*
X105517D01*
X106241Y192718D01*
X106795Y193272D01*
X107095Y193995D01*
Y194778D01*
X106795Y195502D01*
X106241Y196056D01*
X105517Y196355D01*
D02*
G37*
G36*
X578300Y196355D02*
X577517D01*
X576793Y196055D01*
X576240Y195501D01*
X575940Y194778D01*
Y193995D01*
X576240Y193271D01*
X576793Y192718D01*
X577517Y192418D01*
X578300D01*
X579024Y192718D01*
X579577Y193271D01*
X579877Y193995D01*
Y194778D01*
X579577Y195501D01*
X579024Y196055D01*
X578300Y196355D01*
D02*
G37*
G36*
X389368Y194882D02*
X388585D01*
X387861Y194582D01*
X387308Y194028D01*
X387008Y193305D01*
Y192522D01*
X387308Y191798D01*
X387861Y191245D01*
X388585Y190945D01*
X389368D01*
X390091Y191245D01*
X390645Y191798D01*
X390945Y192522D01*
Y193305D01*
X390645Y194028D01*
X390091Y194582D01*
X389368Y194882D01*
D02*
G37*
G36*
X74014D02*
X73230D01*
X72507Y194582D01*
X71953Y194028D01*
X71653Y193305D01*
Y192522D01*
X71953Y191798D01*
X72507Y191245D01*
X73230Y190945D01*
X74014D01*
X74737Y191245D01*
X75291Y191798D01*
X75590Y192522D01*
Y193305D01*
X75291Y194028D01*
X74737Y194582D01*
X74014Y194882D01*
D02*
G37*
G36*
X546848Y194488D02*
X546065D01*
X545342Y194188D01*
X544788Y193635D01*
X544488Y192911D01*
Y192128D01*
X544788Y191405D01*
X545342Y190851D01*
X546065Y190551D01*
X546848D01*
X547572Y190851D01*
X548126Y191405D01*
X548425Y192128D01*
Y192911D01*
X548126Y193635D01*
X547572Y194188D01*
X546848Y194488D01*
D02*
G37*
G36*
X231888D02*
X231104D01*
X230381Y194188D01*
X229827Y193635D01*
X229528Y192911D01*
Y192128D01*
X229827Y191405D01*
X230381Y190851D01*
X231104Y190551D01*
X231888D01*
X232611Y190851D01*
X233165Y191405D01*
X233465Y192128D01*
Y192911D01*
X233165Y193635D01*
X232611Y194188D01*
X231888Y194488D01*
D02*
G37*
G36*
X394093Y176815D02*
X393310D01*
X392586Y176515D01*
X392032Y175962D01*
X391733Y175238D01*
Y174455D01*
X392032Y173731D01*
X392586Y173178D01*
X393310Y172878D01*
X394093D01*
X394816Y173178D01*
X395370Y173731D01*
X395670Y174455D01*
Y175238D01*
X395370Y175962D01*
X394816Y176515D01*
X394093Y176815D01*
D02*
G37*
G36*
X236620D02*
X235837D01*
X235114Y176515D01*
X234560Y175962D01*
X234260Y175238D01*
Y174455D01*
X234560Y173731D01*
X235114Y173178D01*
X235837Y172878D01*
X236620D01*
X237344Y173178D01*
X237898Y173731D01*
X238197Y174455D01*
Y175238D01*
X237898Y175962D01*
X237344Y176515D01*
X236620Y176815D01*
D02*
G37*
G36*
X78805D02*
X78022D01*
X77299Y176515D01*
X76745Y175962D01*
X76445Y175238D01*
Y174455D01*
X76745Y173731D01*
X77299Y173178D01*
X78022Y172878D01*
X78805D01*
X79529Y173178D01*
X80083Y173731D01*
X80382Y174455D01*
Y175238D01*
X80083Y175962D01*
X79529Y176515D01*
X78805Y176815D01*
D02*
G37*
G36*
X551588Y176815D02*
X550805D01*
X550081Y176515D01*
X549527Y175961D01*
X549228Y175238D01*
Y174455D01*
X549527Y173731D01*
X550081Y173177D01*
X550805Y172878D01*
X551588D01*
X552311Y173177D01*
X552865Y173731D01*
X553165Y174455D01*
Y175238D01*
X552865Y175961D01*
X552311Y176515D01*
X551588Y176815D01*
D02*
G37*
G36*
X566996Y195516D02*
X566996Y195516D01*
X560697D01*
Y167563D01*
X566996D01*
Y169138D01*
X569752Y171894D01*
X577787Y171894D01*
X578196Y171894D01*
X578284Y171806D01*
X578287Y171809D01*
X578287Y172356D01*
Y182883D01*
X567818D01*
X566996Y183705D01*
Y195516D01*
D02*
G37*
G36*
X252036D02*
X252036Y195516D01*
X245737D01*
Y167563D01*
X252036D01*
Y169138D01*
X254792Y171894D01*
X262826Y171894D01*
X263236Y171894D01*
X263323Y171806D01*
X263326Y171809D01*
X263326Y172356D01*
Y182883D01*
X252858D01*
X252036Y183705D01*
Y195516D01*
D02*
G37*
G36*
X94162D02*
X94162Y195516D01*
X87863D01*
Y167563D01*
X94162D01*
Y169138D01*
X96918Y171894D01*
X104952Y171894D01*
X105362Y171894D01*
X105449Y171806D01*
X105452Y171809D01*
X105452Y172356D01*
Y182883D01*
X94984D01*
X94162Y183705D01*
Y195516D01*
D02*
G37*
G36*
X409516Y195122D02*
X409516Y195122D01*
X403217D01*
Y167169D01*
X409516D01*
Y168744D01*
X412272Y171500D01*
X420306Y171500D01*
X420716Y171500D01*
X420804Y171412D01*
X420807Y171415D01*
X420807Y171962D01*
Y182489D01*
X410338D01*
X409516Y183311D01*
Y195122D01*
D02*
G37*
G36*
X550065Y171697D02*
X549282D01*
X548559Y171397D01*
X548005Y170844D01*
X547705Y170120D01*
Y169337D01*
X548005Y168613D01*
X548559Y168060D01*
X549282Y167760D01*
X550065D01*
X550789Y168060D01*
X551342Y168613D01*
X551642Y169337D01*
Y170120D01*
X551342Y170844D01*
X550789Y171397D01*
X550065Y171697D01*
D02*
G37*
G36*
X536682Y195516D02*
Y183705D01*
X535859Y182883D01*
X525391D01*
Y172356D01*
X525391Y171809D01*
X525394Y171806D01*
X525482Y171894D01*
X525891Y171894D01*
X533926D01*
X536682Y169138D01*
Y167563D01*
X542981D01*
Y195516D01*
X536682D01*
X536682Y195516D01*
D02*
G37*
G36*
X221721D02*
Y183705D01*
X220899Y182883D01*
X210430D01*
Y172356D01*
X210430Y171809D01*
X210433Y171806D01*
X210521Y171894D01*
X210930Y171894D01*
X218965D01*
X221721Y169138D01*
Y167563D01*
X228020D01*
Y195516D01*
X221721D01*
X221721Y195516D01*
D02*
G37*
G36*
X63847D02*
Y183705D01*
X63025Y182883D01*
X52556D01*
Y172356D01*
X52556Y171809D01*
X52559Y171806D01*
X52647Y171894D01*
X53056Y171894D01*
X61091D01*
X63847Y169138D01*
Y167563D01*
X70146D01*
Y195516D01*
X63847D01*
X63847Y195516D01*
D02*
G37*
G36*
X77231Y171303D02*
X76447D01*
X75724Y171003D01*
X75170Y170450D01*
X74871Y169726D01*
Y168943D01*
X75170Y168220D01*
X75724Y167666D01*
X76447Y167366D01*
X77231D01*
X77954Y167666D01*
X78508Y168220D01*
X78807Y168943D01*
Y169726D01*
X78508Y170450D01*
X77954Y171003D01*
X77231Y171303D01*
D02*
G37*
G36*
X379201Y195122D02*
Y183311D01*
X378379Y182489D01*
X367911D01*
Y171963D01*
X367911Y171415D01*
X367914Y171412D01*
X368001Y171500D01*
X368411Y171500D01*
X376445D01*
X379201Y168744D01*
Y167169D01*
X385500D01*
Y195122D01*
X379201D01*
X379201Y195122D01*
D02*
G37*
G36*
X392585Y170910D02*
X391802D01*
X391078Y170610D01*
X390525Y170056D01*
X390225Y169333D01*
Y168550D01*
X390525Y167826D01*
X391078Y167272D01*
X391802Y166972D01*
X392585D01*
X393308Y167272D01*
X393862Y167826D01*
X394162Y168550D01*
Y169333D01*
X393862Y170056D01*
X393308Y170610D01*
X392585Y170910D01*
D02*
G37*
G36*
X235439Y170122D02*
X234656D01*
X233933Y169822D01*
X233379Y169269D01*
X233079Y168545D01*
Y167762D01*
X233379Y167039D01*
X233933Y166485D01*
X234656Y166185D01*
X235439D01*
X236163Y166485D01*
X236717Y167039D01*
X237016Y167762D01*
Y168545D01*
X236717Y169269D01*
X236163Y169822D01*
X235439Y170122D01*
D02*
G37*
G36*
X250824Y89413D02*
X250098D01*
X249397Y89226D01*
X248769Y88863D01*
X248256Y88350D01*
X247893Y87721D01*
X247705Y87020D01*
Y86295D01*
X247893Y85594D01*
X248256Y84965D01*
X248769Y84452D01*
X249397Y84089D01*
X250098Y83902D01*
X250824D01*
X251525Y84089D01*
X252153Y84452D01*
X252666Y84965D01*
X253029Y85594D01*
X253217Y86295D01*
Y87020D01*
X253029Y87721D01*
X252666Y88350D01*
X252153Y88863D01*
X251525Y89226D01*
X250824Y89413D01*
D02*
G37*
G36*
X257517D02*
X256791D01*
X256090Y89226D01*
X255462Y88863D01*
X254949Y88350D01*
X254586Y87721D01*
X254398Y87020D01*
Y86295D01*
X254586Y85594D01*
X254949Y84965D01*
X255462Y84452D01*
X256090Y84089D01*
X256757Y83911D01*
X256783Y83869D01*
X256676Y83372D01*
X256484Y83320D01*
X255855Y82957D01*
X255342Y82444D01*
X254979Y81816D01*
X254792Y81115D01*
Y80389D01*
X254979Y79688D01*
X255342Y79060D01*
X255855Y78547D01*
X256484Y78184D01*
X257185Y77996D01*
X257910D01*
X258611Y78184D01*
X259240Y78547D01*
X259753Y79060D01*
X260116Y79688D01*
X260303Y80389D01*
Y81115D01*
X260116Y81816D01*
X259753Y82444D01*
X259240Y82957D01*
X258611Y83320D01*
X257945Y83499D01*
X257919Y83541D01*
X258026Y84038D01*
X258218Y84089D01*
X258846Y84452D01*
X259359Y84965D01*
X259722Y85594D01*
X259910Y86295D01*
Y87020D01*
X259722Y87721D01*
X259359Y88350D01*
X258846Y88863D01*
X258218Y89226D01*
X257517Y89413D01*
D02*
G37*
G36*
X187012Y81081D02*
X186229D01*
X185505Y80781D01*
X184951Y80228D01*
X184652Y79504D01*
Y78721D01*
X184951Y77997D01*
X185505Y77444D01*
X186229Y77144D01*
X187012D01*
X187735Y77444D01*
X188289Y77997D01*
X188589Y78721D01*
Y79504D01*
X188289Y80228D01*
X187735Y80781D01*
X187012Y81081D01*
D02*
G37*
G36*
X94081Y79965D02*
X93298D01*
X92574Y79665D01*
X92020Y79111D01*
X91721Y78388D01*
Y77605D01*
X92020Y76881D01*
X92574Y76327D01*
X93298Y76028D01*
X94081D01*
X94804Y76327D01*
X95358Y76881D01*
X95658Y77605D01*
Y78388D01*
X95358Y79111D01*
X94804Y79665D01*
X94081Y79965D01*
D02*
G37*
G36*
X172900Y72878D02*
X172117D01*
X171393Y72578D01*
X170839Y72025D01*
X170540Y71301D01*
Y70518D01*
X170839Y69794D01*
X171393Y69241D01*
X172117Y68941D01*
X172900D01*
X173623Y69241D01*
X174177Y69794D01*
X174477Y70518D01*
Y71301D01*
X174177Y72025D01*
X173623Y72578D01*
X172900Y72878D01*
D02*
G37*
G36*
X252508Y63650D02*
X251725D01*
X251002Y63351D01*
X250448Y62797D01*
X250148Y62073D01*
Y61290D01*
X250448Y60567D01*
X251002Y60013D01*
X251725Y59713D01*
X252508D01*
X253232Y60013D01*
X253786Y60567D01*
X254085Y61290D01*
Y62073D01*
X253786Y62797D01*
X253232Y63351D01*
X252508Y63650D01*
D02*
G37*
G36*
X72112Y63036D02*
X71329D01*
X70606Y62736D01*
X70052Y62182D01*
X69752Y61459D01*
Y60675D01*
X70052Y59952D01*
X70606Y59398D01*
X71329Y59099D01*
X71367D01*
X71466Y58599D01*
X70999Y58405D01*
X70446Y57851D01*
X70146Y57128D01*
Y56345D01*
X70446Y55621D01*
X70999Y55067D01*
X71723Y54768D01*
X72506D01*
X73230Y55067D01*
X73783Y55621D01*
X74083Y56345D01*
Y57128D01*
X73783Y57851D01*
X73230Y58405D01*
X72506Y58705D01*
X72469D01*
X72369Y59205D01*
X72836Y59398D01*
X73390Y59952D01*
X73689Y60675D01*
Y61459D01*
X73390Y62182D01*
X72836Y62736D01*
X72112Y63036D01*
D02*
G37*
G36*
X102427Y55949D02*
X101644D01*
X100921Y55649D01*
X100367Y55095D01*
X100067Y54372D01*
Y53589D01*
X100367Y52865D01*
X100921Y52312D01*
X101644Y52012D01*
X102427D01*
X103151Y52312D01*
X103705Y52865D01*
X104004Y53589D01*
Y54372D01*
X103705Y55095D01*
X103151Y55649D01*
X102427Y55949D01*
D02*
G37*
G36*
X403872Y58396D02*
X402939D01*
X402038Y58154D01*
X401230Y57688D01*
X400570Y57028D01*
X400104Y56220D01*
X399862Y55319D01*
Y54386D01*
X400104Y53485D01*
X400570Y52677D01*
X401230Y52017D01*
X402038Y51551D01*
X402939Y51309D01*
X403872D01*
X404773Y51551D01*
X405581Y52017D01*
X406241Y52677D01*
X406707Y53485D01*
X406949Y54386D01*
Y55319D01*
X406707Y56220D01*
X406241Y57028D01*
X405581Y57688D01*
X404773Y58154D01*
X403872Y58396D01*
D02*
G37*
G36*
X393872D02*
X392939D01*
X392038Y58154D01*
X391230Y57688D01*
X390570Y57028D01*
X390104Y56220D01*
X389862Y55319D01*
Y54386D01*
X390104Y53485D01*
X390570Y52677D01*
X391230Y52017D01*
X392038Y51551D01*
X392939Y51309D01*
X393872D01*
X394773Y51551D01*
X395581Y52017D01*
X396241Y52677D01*
X396707Y53485D01*
X396949Y54386D01*
Y55319D01*
X396707Y56220D01*
X396241Y57028D01*
X395581Y57688D01*
X394773Y58154D01*
X393872Y58396D01*
D02*
G37*
G36*
X383872D02*
X382939D01*
X382038Y58154D01*
X381230Y57688D01*
X380570Y57028D01*
X380104Y56220D01*
X379862Y55319D01*
Y54386D01*
X380104Y53485D01*
X380570Y52677D01*
X381230Y52017D01*
X382038Y51551D01*
X382939Y51309D01*
X383872D01*
X384773Y51551D01*
X385581Y52017D01*
X386241Y52677D01*
X386707Y53485D01*
X386949Y54386D01*
Y55319D01*
X386707Y56220D01*
X386241Y57028D01*
X385581Y57688D01*
X384773Y58154D01*
X383872Y58396D01*
D02*
G37*
G36*
X373872D02*
X372939D01*
X372038Y58154D01*
X371230Y57688D01*
X370570Y57028D01*
X370104Y56220D01*
X369862Y55319D01*
Y54386D01*
X370104Y53485D01*
X370570Y52677D01*
X371230Y52017D01*
X372038Y51551D01*
X372939Y51309D01*
X373872D01*
X374773Y51551D01*
X375581Y52017D01*
X376241Y52677D01*
X376707Y53485D01*
X376949Y54386D01*
Y55319D01*
X376707Y56220D01*
X376241Y57028D01*
X375581Y57688D01*
X374773Y58154D01*
X373872Y58396D01*
D02*
G37*
G36*
X233530Y52799D02*
X232747D01*
X232023Y52500D01*
X231469Y51946D01*
X231170Y51222D01*
Y50439D01*
X231469Y49716D01*
X232023Y49162D01*
X232747Y48862D01*
X233530D01*
X234253Y49162D01*
X234807Y49716D01*
X235107Y50439D01*
Y51222D01*
X234807Y51946D01*
X234253Y52500D01*
X233530Y52799D01*
D02*
G37*
G36*
X223857Y52756D02*
X223074D01*
X222350Y52457D01*
X221797Y51903D01*
X221497Y51179D01*
Y50396D01*
X221797Y49673D01*
X222350Y49119D01*
X223074Y48819D01*
X223857D01*
X224581Y49119D01*
X225134Y49673D01*
X225434Y50396D01*
Y51179D01*
X225134Y51903D01*
X224581Y52457D01*
X223857Y52756D01*
D02*
G37*
G36*
X215350D02*
X214567D01*
X213843Y52457D01*
X213290Y51903D01*
X212990Y51179D01*
Y50396D01*
X213290Y49673D01*
X213843Y49119D01*
X214567Y48819D01*
X215350D01*
X216073Y49119D01*
X216627Y49673D01*
X216927Y50396D01*
Y51179D01*
X216627Y51903D01*
X216073Y52457D01*
X215350Y52756D01*
D02*
G37*
G36*
X206843D02*
X206060D01*
X205336Y52457D01*
X204783Y51903D01*
X204483Y51179D01*
Y50396D01*
X204783Y49673D01*
X205336Y49119D01*
X206060Y48819D01*
X206843D01*
X207566Y49119D01*
X208120Y49673D01*
X208420Y50396D01*
Y51179D01*
X208120Y51903D01*
X207566Y52457D01*
X206843Y52756D01*
D02*
G37*
G36*
X199054D02*
X198271D01*
X197547Y52457D01*
X196994Y51903D01*
X196694Y51179D01*
Y50396D01*
X196994Y49673D01*
X197547Y49119D01*
X198271Y48819D01*
X199054D01*
X199777Y49119D01*
X200331Y49673D01*
X200631Y50396D01*
Y51179D01*
X200331Y51903D01*
X199777Y52457D01*
X199054Y52756D01*
D02*
G37*
G36*
X190392D02*
X189609D01*
X188886Y52457D01*
X188332Y51903D01*
X188032Y51179D01*
Y50396D01*
X188332Y49673D01*
X188886Y49119D01*
X189609Y48819D01*
X190392D01*
X191116Y49119D01*
X191670Y49673D01*
X191969Y50396D01*
Y51179D01*
X191670Y51903D01*
X191116Y52457D01*
X190392Y52756D01*
D02*
G37*
G36*
X398872Y48396D02*
X397939D01*
X397038Y48154D01*
X396230Y47688D01*
X395570Y47028D01*
X395104Y46220D01*
X394862Y45319D01*
Y44386D01*
X395104Y43485D01*
X395570Y42677D01*
X396230Y42017D01*
X397038Y41550D01*
X397939Y41309D01*
X398872D01*
X399773Y41550D01*
X400581Y42017D01*
X401241Y42677D01*
X401707Y43485D01*
X401949Y44386D01*
Y45319D01*
X401707Y46220D01*
X401241Y47028D01*
X400581Y47688D01*
X399773Y48154D01*
X398872Y48396D01*
D02*
G37*
G36*
X388872D02*
X387939D01*
X387038Y48154D01*
X386230Y47688D01*
X385570Y47028D01*
X385104Y46220D01*
X384862Y45319D01*
Y44386D01*
X385104Y43485D01*
X385570Y42677D01*
X386230Y42017D01*
X387038Y41550D01*
X387939Y41309D01*
X388872D01*
X389773Y41550D01*
X390581Y42017D01*
X391241Y42677D01*
X391707Y43485D01*
X391949Y44386D01*
Y45319D01*
X391707Y46220D01*
X391241Y47028D01*
X390581Y47688D01*
X389773Y48154D01*
X388872Y48396D01*
D02*
G37*
G36*
X378872D02*
X377939D01*
X377038Y48154D01*
X376230Y47688D01*
X375570Y47028D01*
X375104Y46220D01*
X374862Y45319D01*
Y44386D01*
X375104Y43485D01*
X375570Y42677D01*
X376230Y42017D01*
X377038Y41550D01*
X377939Y41309D01*
X378872D01*
X379773Y41550D01*
X380581Y42017D01*
X381241Y42677D01*
X381707Y43485D01*
X381949Y44386D01*
Y45319D01*
X381707Y46220D01*
X381241Y47028D01*
X380581Y47688D01*
X379773Y48154D01*
X378872Y48396D01*
D02*
G37*
G36*
X368872D02*
X367939D01*
X367038Y48154D01*
X366230Y47688D01*
X365570Y47028D01*
X365104Y46220D01*
X364862Y45319D01*
Y44386D01*
X365104Y43485D01*
X365570Y42677D01*
X366230Y42017D01*
X367038Y41550D01*
X367939Y41309D01*
X368872D01*
X369773Y41550D01*
X370581Y42017D01*
X371241Y42677D01*
X371707Y43485D01*
X371949Y44386D01*
Y45319D01*
X371707Y46220D01*
X371241Y47028D01*
X370581Y47688D01*
X369773Y48154D01*
X368872Y48396D01*
D02*
G37*
G36*
X156305Y60488D02*
X155522D01*
X154798Y60188D01*
X154245Y59634D01*
X153945Y58911D01*
Y58128D01*
X154245Y57404D01*
X154798Y56850D01*
X154802Y56849D01*
Y52465D01*
X154802Y52465D01*
X154886Y52039D01*
X155127Y51679D01*
X164242Y42564D01*
X164241Y42561D01*
Y41778D01*
X164540Y41054D01*
X165094Y40501D01*
X165817Y40201D01*
X166601D01*
X167324Y40501D01*
X167878Y41054D01*
X168177Y41778D01*
Y42561D01*
X167878Y43284D01*
X167324Y43838D01*
X166601Y44138D01*
X165817D01*
X165814Y44137D01*
X157026Y52925D01*
Y56849D01*
X157029Y56850D01*
X157582Y57404D01*
X157882Y58128D01*
Y58911D01*
X157582Y59634D01*
X157029Y60188D01*
X156305Y60488D01*
D02*
G37*
G36*
X81561Y43350D02*
X80778D01*
X80055Y43051D01*
X79501Y42497D01*
X79201Y41774D01*
Y40990D01*
X79501Y40267D01*
X80055Y39713D01*
X80778Y39413D01*
X81561D01*
X82285Y39713D01*
X82838Y40267D01*
X83138Y40990D01*
Y41774D01*
X82838Y42497D01*
X82285Y43051D01*
X81561Y43350D01*
D02*
G37*
G36*
X40082Y20185D02*
X39029D01*
X38012Y19913D01*
X37099Y19386D01*
X37005Y19292D01*
X37807Y18490D01*
X37250Y17934D01*
X36449Y18735D01*
X36355Y18641D01*
X35828Y17729D01*
X35555Y16712D01*
Y15658D01*
X35828Y14641D01*
X36355Y13729D01*
X36449Y13635D01*
X37250Y14436D01*
X37807Y13880D01*
X37005Y13078D01*
X37099Y12984D01*
X38012Y12458D01*
X39029Y12185D01*
X40082D01*
X41099Y12458D01*
X42011Y12984D01*
X42105Y13078D01*
X41304Y13880D01*
X41861Y14436D01*
X42662Y13635D01*
X42756Y13729D01*
X43283Y14641D01*
X43556Y15658D01*
Y16712D01*
X43283Y17729D01*
X42756Y18641D01*
X42662Y18735D01*
X41861Y17934D01*
X41304Y18490D01*
X42105Y19292D01*
X42011Y19386D01*
X41099Y19913D01*
X40082Y20185D01*
D02*
G37*
G36*
X409133Y27037D02*
X407718D01*
X406329Y26761D01*
X405022Y26220D01*
X403845Y25433D01*
X402844Y24433D01*
X402058Y23256D01*
X401516Y21948D01*
X401240Y20560D01*
Y19145D01*
X401516Y17757D01*
X402058Y16449D01*
X402844Y15272D01*
X403845Y14271D01*
X405022Y13485D01*
X406329Y12943D01*
X407718Y12667D01*
X409133D01*
X410521Y12943D01*
X411829Y13485D01*
X413005Y14271D01*
X414006Y15272D01*
X414792Y16449D01*
X415334Y17757D01*
X415610Y19145D01*
Y20560D01*
X415334Y21948D01*
X414792Y23256D01*
X414006Y24433D01*
X413005Y25433D01*
X411829Y26220D01*
X410521Y26761D01*
X409133Y27037D01*
D02*
G37*
G36*
X364133D02*
X362718D01*
X361329Y26761D01*
X360022Y26220D01*
X358845Y25433D01*
X357844Y24433D01*
X357058Y23256D01*
X356516Y21948D01*
X356240Y20560D01*
Y19145D01*
X356516Y17757D01*
X357058Y16449D01*
X357844Y15272D01*
X358845Y14271D01*
X360022Y13485D01*
X361329Y12943D01*
X362718Y12667D01*
X364133D01*
X365521Y12943D01*
X366829Y13485D01*
X368005Y14271D01*
X369006Y15272D01*
X369793Y16449D01*
X370334Y17757D01*
X370610Y19145D01*
Y20560D01*
X370334Y21948D01*
X369793Y23256D01*
X369006Y24433D01*
X368005Y25433D01*
X366829Y26220D01*
X365521Y26761D01*
X364133Y27037D01*
D02*
G37*
G36*
X50054Y19973D02*
X49057D01*
X48094Y19714D01*
X47230Y19216D01*
X46525Y18511D01*
X46026Y17647D01*
X45768Y16684D01*
Y15687D01*
X46026Y14723D01*
X46525Y13860D01*
X47230Y13154D01*
X48094Y12656D01*
X49057Y12398D01*
X50054D01*
X51017Y12656D01*
X51881Y13154D01*
X52586Y13860D01*
X53085Y14723D01*
X53343Y15687D01*
Y16684D01*
X53085Y17647D01*
X52586Y18511D01*
X51881Y19216D01*
X51017Y19714D01*
X50054Y19973D01*
D02*
G37*
G36*
X417066Y13598D02*
X415611D01*
X414205Y13222D01*
X412945Y12494D01*
X412708Y12258D01*
X413504Y11463D01*
X412947Y10906D01*
X412152Y11701D01*
X411915Y11465D01*
X411188Y10204D01*
X410811Y8799D01*
Y7343D01*
X411188Y5937D01*
X411915Y4677D01*
X412152Y4441D01*
X412947Y5236D01*
X413504Y4679D01*
X412708Y3884D01*
X412945Y3648D01*
X414205Y2920D01*
X415611Y2543D01*
X417066D01*
X418472Y2920D01*
X419733Y3648D01*
X419969Y3884D01*
X419174Y4679D01*
X419730Y5236D01*
X420526Y4441D01*
X420762Y4677D01*
X421489Y5937D01*
X421866Y7343D01*
Y8799D01*
X421489Y10204D01*
X420762Y11465D01*
X420526Y11701D01*
X419730Y10906D01*
X419174Y11463D01*
X419969Y12258D01*
X419733Y12494D01*
X418472Y13222D01*
X417066Y13598D01*
D02*
G37*
G36*
X356141D02*
X354686D01*
X353280Y13222D01*
X352019Y12494D01*
X351783Y12258D01*
X352578Y11463D01*
X352022Y10906D01*
X351226Y11701D01*
X350990Y11465D01*
X350262Y10204D01*
X349886Y8799D01*
Y7343D01*
X350262Y5937D01*
X350990Y4677D01*
X351226Y4441D01*
X352022Y5236D01*
X352578Y4679D01*
X351783Y3884D01*
X352019Y3648D01*
X353280Y2920D01*
X354686Y2543D01*
X356141D01*
X357547Y2920D01*
X358807Y3648D01*
X359044Y3884D01*
X358248Y4679D01*
X358805Y5236D01*
X359600Y4441D01*
X359837Y4677D01*
X360564Y5937D01*
X360941Y7343D01*
Y8799D01*
X360564Y10204D01*
X359837Y11465D01*
X359600Y11701D01*
X358805Y10906D01*
X358248Y11463D01*
X359044Y12258D01*
X358807Y12494D01*
X357547Y13222D01*
X356141Y13598D01*
D02*
G37*
G36*
X616879Y21260D02*
X615405D01*
X613960Y20972D01*
X612599Y20409D01*
X611373Y19590D01*
X610331Y18548D01*
X609513Y17323D01*
X608949Y15961D01*
X608661Y14516D01*
Y13043D01*
X608949Y11598D01*
X609513Y10236D01*
X610331Y9011D01*
X611373Y7969D01*
X612599Y7151D01*
X613960Y6587D01*
X615405Y6299D01*
X616879D01*
X618324Y6587D01*
X619685Y7151D01*
X620910Y7969D01*
X621952Y9011D01*
X622771Y10236D01*
X623335Y11598D01*
X623622Y13043D01*
Y14516D01*
X623335Y15961D01*
X622771Y17323D01*
X621952Y18548D01*
X620910Y19590D01*
X619685Y20409D01*
X618324Y20972D01*
X616879Y21260D01*
D02*
G37*
G36*
X14516D02*
X13043D01*
X11598Y20972D01*
X10236Y20409D01*
X9011Y19590D01*
X7969Y18548D01*
X7151Y17323D01*
X6587Y15961D01*
X6299Y14516D01*
Y13043D01*
X6587Y11598D01*
X7151Y10236D01*
X7969Y9011D01*
X9011Y7969D01*
X10236Y7151D01*
X11598Y6587D01*
X13043Y6299D01*
X14516D01*
X15961Y6587D01*
X17323Y7151D01*
X18548Y7969D01*
X19590Y9011D01*
X20409Y10236D01*
X20972Y11598D01*
X21260Y13043D01*
Y14516D01*
X20972Y15961D01*
X20409Y17323D01*
X19590Y18548D01*
X18548Y19590D01*
X17323Y20409D01*
X15961Y20972D01*
X14516Y21260D01*
D02*
G37*
%LPD*%
D18*
X155914Y52465D02*
Y58519D01*
Y52465D02*
X166209Y42169D01*
D85*
X582441Y344331D02*
D03*
X572441D02*
D03*
X592441D02*
D03*
X572441Y354331D02*
D03*
Y364331D02*
D03*
X582441D02*
D03*
X592441D02*
D03*
Y354331D02*
D03*
X582441D02*
D03*
X267480Y344331D02*
D03*
X257480D02*
D03*
X277480D02*
D03*
X257480Y354331D02*
D03*
Y364331D02*
D03*
X267480D02*
D03*
X277480D02*
D03*
Y354331D02*
D03*
X267480D02*
D03*
X110000D02*
D03*
X120000D02*
D03*
Y364331D02*
D03*
X110000D02*
D03*
X100000D02*
D03*
Y354331D02*
D03*
X120000Y344331D02*
D03*
X100000D02*
D03*
X110000D02*
D03*
X424961D02*
D03*
X414961D02*
D03*
X434961D02*
D03*
X414961Y354331D02*
D03*
Y364331D02*
D03*
X424961D02*
D03*
X434961D02*
D03*
Y354331D02*
D03*
X424961D02*
D03*
X519921Y344331D02*
D03*
X509921D02*
D03*
X529921D02*
D03*
X509921Y354331D02*
D03*
Y364331D02*
D03*
X519921D02*
D03*
X529921D02*
D03*
Y354331D02*
D03*
X519921D02*
D03*
X204961D02*
D03*
X214961D02*
D03*
Y364331D02*
D03*
X204961D02*
D03*
X194961D02*
D03*
Y354331D02*
D03*
X214961Y344331D02*
D03*
X194961D02*
D03*
X204961D02*
D03*
X47480D02*
D03*
X37480D02*
D03*
X57480D02*
D03*
X37480Y354331D02*
D03*
Y364331D02*
D03*
X47480D02*
D03*
X57480D02*
D03*
Y354331D02*
D03*
X47480D02*
D03*
X362441Y344331D02*
D03*
X352441D02*
D03*
X372441D02*
D03*
X352441Y354331D02*
D03*
Y364331D02*
D03*
X362441D02*
D03*
X372441D02*
D03*
Y354331D02*
D03*
X362441D02*
D03*
D86*
X211024Y287598D02*
D03*
X261024Y267598D02*
D03*
Y277599D02*
D03*
X211024D02*
D03*
Y267598D02*
D03*
X261024Y287598D02*
D03*
X211024Y307598D02*
D03*
X261024Y297599D02*
D03*
X211024D02*
D03*
X261024Y307598D02*
D03*
X53543Y287598D02*
D03*
X103543Y267598D02*
D03*
Y277599D02*
D03*
X53543D02*
D03*
Y267598D02*
D03*
X103543Y287598D02*
D03*
X53543Y307598D02*
D03*
X103543Y297599D02*
D03*
X53543D02*
D03*
X103543Y307598D02*
D03*
X575984D02*
D03*
X525984Y297599D02*
D03*
X575984D02*
D03*
X525984Y307598D02*
D03*
X575984Y287598D02*
D03*
X525984Y267598D02*
D03*
Y277599D02*
D03*
X575984D02*
D03*
Y267598D02*
D03*
X525984Y287598D02*
D03*
X418504Y307598D02*
D03*
X368504Y297599D02*
D03*
X418504D02*
D03*
X368504Y307598D02*
D03*
X418504Y287598D02*
D03*
X368504Y267598D02*
D03*
Y277599D02*
D03*
X418504D02*
D03*
Y267598D02*
D03*
X368504Y287598D02*
D03*
D87*
X232087Y237598D02*
D03*
X74606D02*
D03*
X547047D02*
D03*
X389567D02*
D03*
D89*
X416339Y8071D02*
D03*
X355413D02*
D03*
D92*
X39555Y16185D02*
D03*
D93*
X166209Y42169D02*
D03*
X122107Y202007D02*
D03*
X105126D02*
D03*
X172103Y56913D02*
D03*
X176516Y53279D02*
D03*
X167855D02*
D03*
Y60956D02*
D03*
X176516D02*
D03*
X174170Y42563D02*
D03*
X170626D02*
D03*
X117186Y144332D02*
D03*
X242757Y56693D02*
D03*
X145343Y31539D02*
D03*
X160303Y35476D02*
D03*
X154129Y9762D02*
D03*
X149799Y23148D02*
D03*
X159516Y21303D02*
D03*
Y26421D02*
D03*
X559061Y174375D02*
D03*
X401566Y174375D02*
D03*
X244094D02*
D03*
X86279D02*
D03*
X80323Y107092D02*
D03*
Y102761D02*
D03*
Y91689D02*
D03*
Y96019D02*
D03*
X16996Y88626D02*
D03*
X17390Y78784D02*
D03*
X87329Y5738D02*
D03*
X128020Y68941D02*
D03*
X131170D02*
D03*
X120540D02*
D03*
X123689D02*
D03*
X112666D02*
D03*
X115815D02*
D03*
X60638Y54582D02*
D03*
Y50252D02*
D03*
Y43509D02*
D03*
Y39179D02*
D03*
Y28106D02*
D03*
Y32437D02*
D03*
X60638Y61374D02*
D03*
Y65704D02*
D03*
X23355Y27985D02*
D03*
Y32315D02*
D03*
X23355Y61252D02*
D03*
Y65583D02*
D03*
Y54510D02*
D03*
Y50180D02*
D03*
Y43438D02*
D03*
Y39107D02*
D03*
X96918Y17268D02*
D03*
Y21599D02*
D03*
Y28341D02*
D03*
Y32671D02*
D03*
X71653Y35039D02*
D03*
X72114Y51618D02*
D03*
X76051Y80752D02*
D03*
X94555Y72091D02*
D03*
X108335Y68941D02*
D03*
X105185D02*
D03*
X150818Y58149D02*
D03*
X177196Y82952D02*
D03*
X227984Y9724D02*
D03*
X129558Y5787D02*
D03*
X118141Y9724D02*
D03*
X99637Y49487D02*
D03*
X96918Y43744D02*
D03*
Y39413D02*
D03*
X101642Y11461D02*
D03*
X27590Y22716D02*
D03*
X37008Y6299D02*
D03*
X29989Y72091D02*
D03*
X24477D02*
D03*
X25606Y93646D02*
D03*
X31118D02*
D03*
X199674Y66841D02*
D03*
Y61067D02*
D03*
Y78390D02*
D03*
Y72615D02*
D03*
X157548Y77602D02*
D03*
X541354Y163822D02*
D03*
X258899Y38583D02*
D03*
X253781D02*
D03*
X197875Y33465D02*
D03*
X189214D02*
D03*
X205664D02*
D03*
X52875Y190201D02*
D03*
X210690D02*
D03*
X368163D02*
D03*
X525658Y190201D02*
D03*
X515370Y143744D02*
D03*
X594890Y202006D02*
D03*
X528755Y217169D02*
D03*
Y222878D02*
D03*
X571661Y222872D02*
D03*
X547593Y229426D02*
D03*
X577908Y202006D02*
D03*
X564106Y151984D02*
D03*
X528755Y211460D02*
D03*
X539696Y151984D02*
D03*
X551968Y192913D02*
D03*
X589968Y144331D02*
D03*
X562092Y163822D02*
D03*
X525212Y204374D02*
D03*
X357874Y143744D02*
D03*
X437395Y202007D02*
D03*
X371260Y217169D02*
D03*
Y222878D02*
D03*
X414166Y222873D02*
D03*
X390098Y229426D02*
D03*
X420413Y202007D02*
D03*
X406611Y151984D02*
D03*
X371260Y211461D02*
D03*
X382201Y151984D02*
D03*
X394488Y192913D02*
D03*
X432473Y144332D02*
D03*
X383859Y163823D02*
D03*
X404597D02*
D03*
X367717Y204374D02*
D03*
X200402Y143744D02*
D03*
X279922Y202007D02*
D03*
X213788Y217169D02*
D03*
Y222878D02*
D03*
X256694Y222873D02*
D03*
X232626Y229426D02*
D03*
X262941Y202007D02*
D03*
X249138Y151984D02*
D03*
X213788Y211461D02*
D03*
X224729Y151984D02*
D03*
X237008Y192913D02*
D03*
X275001Y144332D02*
D03*
X226386Y163823D02*
D03*
X247124D02*
D03*
X210244Y204374D02*
D03*
X68571Y163823D02*
D03*
X79134Y192913D02*
D03*
X55973Y222878D02*
D03*
Y217169D02*
D03*
Y211461D02*
D03*
X89309Y163823D02*
D03*
X42587Y143744D02*
D03*
X98879Y222873D02*
D03*
X74811Y229426D02*
D03*
X52429Y204374D02*
D03*
X139831Y35476D02*
D03*
X182745Y38232D02*
D03*
X214171Y33465D02*
D03*
X222678D02*
D03*
X146130Y63823D02*
D03*
X149674Y75634D02*
D03*
X177233Y72878D02*
D03*
X155914Y58519D02*
D03*
X91323Y151984D02*
D03*
X66914D02*
D03*
X242757Y60237D02*
D03*
X273859Y56693D02*
D03*
X238032Y78741D02*
D03*
X243150Y71260D02*
D03*
X154792Y31539D02*
D03*
X243150Y66142D02*
D03*
D94*
X89810Y60488D02*
D03*
X87555D02*
D03*
M02*
