G04*
G04 #@! TF.GenerationSoftware,Altium Limited,Altium Designer,25.4.2 (15)*
G04*
G04 Layer_Physical_Order=1*
G04 Layer_Color=255*
%FSLAX25Y25*%
%MOIN*%
G70*
G04*
G04 #@! TF.SameCoordinates,336B1F89-BFE6-4481-99DC-D24D03349B4C*
G04*
G04*
G04 #@! TF.FilePolarity,Positive*
G04*
G01*
G75*
%ADD13C,0.00500*%
%ADD14C,0.00787*%
%ADD18C,0.01000*%
%ADD19C,0.01575*%
%ADD25R,0.02756X0.03543*%
%ADD26R,0.04803X0.02610*%
%ADD27O,0.04803X0.02610*%
G04:AMPARAMS|DCode=28|XSize=27.95mil|YSize=34.65mil|CornerRadius=4.61mil|HoleSize=0mil|Usage=FLASHONLY|Rotation=90.000|XOffset=0mil|YOffset=0mil|HoleType=Round|Shape=RoundedRectangle|*
%AMROUNDEDRECTD28*
21,1,0.02795,0.02542,0,0,90.0*
21,1,0.01873,0.03465,0,0,90.0*
1,1,0.00922,0.01271,0.00936*
1,1,0.00922,0.01271,-0.00936*
1,1,0.00922,-0.01271,-0.00936*
1,1,0.00922,-0.01271,0.00936*
%
%ADD28ROUNDEDRECTD28*%
%ADD29R,0.03740X0.03347*%
%ADD30R,0.06102X0.05315*%
%ADD31R,0.04134X0.01378*%
%ADD32R,0.01378X0.04134*%
%ADD33R,0.12795X0.12795*%
%ADD34R,0.06299X0.10630*%
G04:AMPARAMS|DCode=35|XSize=45.67mil|YSize=107.09mil|CornerRadius=7.54mil|HoleSize=0mil|Usage=FLASHONLY|Rotation=0.000|XOffset=0mil|YOffset=0mil|HoleType=Round|Shape=RoundedRectangle|*
%AMROUNDEDRECTD35*
21,1,0.04567,0.09202,0,0,0.0*
21,1,0.03060,0.10709,0,0,0.0*
1,1,0.01507,0.01530,-0.04601*
1,1,0.01507,-0.01530,-0.04601*
1,1,0.01507,-0.01530,0.04601*
1,1,0.01507,0.01530,0.04601*
%
%ADD35ROUNDEDRECTD35*%
%ADD36R,0.14961X0.07992*%
G04:AMPARAMS|DCode=37|XSize=27.95mil|YSize=34.65mil|CornerRadius=4.61mil|HoleSize=0mil|Usage=FLASHONLY|Rotation=0.000|XOffset=0mil|YOffset=0mil|HoleType=Round|Shape=RoundedRectangle|*
%AMROUNDEDRECTD37*
21,1,0.02795,0.02542,0,0,0.0*
21,1,0.01873,0.03465,0,0,0.0*
1,1,0.00922,0.00936,-0.01271*
1,1,0.00922,-0.00936,-0.01271*
1,1,0.00922,-0.00936,0.01271*
1,1,0.00922,0.00936,0.01271*
%
%ADD37ROUNDEDRECTD37*%
%ADD38R,0.03347X0.03740*%
G04:AMPARAMS|DCode=39|XSize=19.68mil|YSize=35.43mil|CornerRadius=3.25mil|HoleSize=0mil|Usage=FLASHONLY|Rotation=270.000|XOffset=0mil|YOffset=0mil|HoleType=Round|Shape=RoundedRectangle|*
%AMROUNDEDRECTD39*
21,1,0.01968,0.02894,0,0,270.0*
21,1,0.01319,0.03543,0,0,270.0*
1,1,0.00650,-0.01447,-0.00659*
1,1,0.00650,-0.01447,0.00659*
1,1,0.00650,0.01447,0.00659*
1,1,0.00650,0.01447,-0.00659*
%
%ADD39ROUNDEDRECTD39*%
%ADD40R,0.03150X0.03150*%
%ADD41R,0.15512X0.05000*%
%ADD42R,0.03543X0.02756*%
G04:AMPARAMS|DCode=43|XSize=23.62mil|YSize=39.37mil|CornerRadius=2.01mil|HoleSize=0mil|Usage=FLASHONLY|Rotation=90.000|XOffset=0mil|YOffset=0mil|HoleType=Round|Shape=RoundedRectangle|*
%AMROUNDEDRECTD43*
21,1,0.02362,0.03535,0,0,90.0*
21,1,0.01961,0.03937,0,0,90.0*
1,1,0.00402,0.01768,0.00980*
1,1,0.00402,0.01768,-0.00980*
1,1,0.00402,-0.01768,-0.00980*
1,1,0.00402,-0.01768,0.00980*
%
%ADD43ROUNDEDRECTD43*%
%ADD44R,0.05512X0.03937*%
%ADD45R,0.05315X0.06102*%
%ADD46R,0.03150X0.03150*%
G04:AMPARAMS|DCode=78|XSize=47.24mil|YSize=18.7mil|CornerRadius=3.93mil|HoleSize=0mil|Usage=FLASHONLY|Rotation=90.000|XOffset=0mil|YOffset=0mil|HoleType=Round|Shape=RoundedRectangle|*
%AMROUNDEDRECTD78*
21,1,0.04724,0.01085,0,0,90.0*
21,1,0.03939,0.01870,0,0,90.0*
1,1,0.00785,0.00542,0.01970*
1,1,0.00785,0.00542,-0.01970*
1,1,0.00785,-0.00542,-0.01970*
1,1,0.00785,-0.00542,0.01970*
%
%ADD78ROUNDEDRECTD78*%
G04:AMPARAMS|DCode=79|XSize=47.24mil|YSize=13.78mil|CornerRadius=3.93mil|HoleSize=0mil|Usage=FLASHONLY|Rotation=90.000|XOffset=0mil|YOffset=0mil|HoleType=Round|Shape=RoundedRectangle|*
%AMROUNDEDRECTD79*
21,1,0.04724,0.00593,0,0,90.0*
21,1,0.03939,0.01378,0,0,90.0*
1,1,0.00785,0.00296,0.01970*
1,1,0.00785,0.00296,-0.01970*
1,1,0.00785,-0.00296,-0.01970*
1,1,0.00785,-0.00296,0.01970*
%
%ADD79ROUNDEDRECTD79*%
G04:AMPARAMS|DCode=80|XSize=13.78mil|YSize=35.43mil|CornerRadius=3.93mil|HoleSize=0mil|Usage=FLASHONLY|Rotation=90.000|XOffset=0mil|YOffset=0mil|HoleType=Round|Shape=RoundedRectangle|*
%AMROUNDEDRECTD80*
21,1,0.01378,0.02758,0,0,90.0*
21,1,0.00593,0.03543,0,0,90.0*
1,1,0.00785,0.01379,0.00296*
1,1,0.00785,0.01379,-0.00296*
1,1,0.00785,-0.01379,-0.00296*
1,1,0.00785,-0.01379,0.00296*
%
%ADD80ROUNDEDRECTD80*%
G04:AMPARAMS|DCode=81|XSize=62.99mil|YSize=84.65mil|CornerRadius=4.1mil|HoleSize=0mil|Usage=FLASHONLY|Rotation=90.000|XOffset=0mil|YOffset=0mil|HoleType=Round|Shape=RoundedRectangle|*
%AMROUNDEDRECTD81*
21,1,0.06299,0.07646,0,0,90.0*
21,1,0.05480,0.08465,0,0,90.0*
1,1,0.00819,0.03823,0.02740*
1,1,0.00819,0.03823,-0.02740*
1,1,0.00819,-0.03823,-0.02740*
1,1,0.00819,-0.03823,0.02740*
%
%ADD81ROUNDEDRECTD81*%
%ADD82C,0.03937*%
%ADD83C,0.01378*%
%ADD84C,0.00630*%
%ADD85C,0.06299*%
%ADD86O,0.10000X0.07500*%
%ADD87O,0.05100X0.09100*%
%ADD88C,0.12205*%
%ADD89C,0.09055*%
%ADD90C,0.04193*%
%ADD91C,0.05512*%
%ADD92C,0.06000*%
%ADD93C,0.02362*%
%ADD94C,0.01772*%
G36*
X612205Y261849D02*
X553150D01*
Y371696D01*
X612205D01*
Y261849D01*
D02*
G37*
G36*
X549215D02*
X490158D01*
Y371696D01*
X549215D01*
Y261849D01*
D02*
G37*
G36*
X454725D02*
X395669D01*
Y371696D01*
X454725D01*
Y261849D01*
D02*
G37*
G36*
X391732D02*
X332677D01*
Y371696D01*
X391732D01*
Y261849D01*
D02*
G37*
G36*
X297245D02*
X238189D01*
Y371696D01*
X297245D01*
Y261849D01*
D02*
G37*
G36*
X234251D02*
X175197D01*
Y371696D01*
X234251D01*
Y261849D01*
D02*
G37*
G36*
X139762D02*
X80709D01*
Y371696D01*
X139762D01*
Y261849D01*
D02*
G37*
G36*
X76771D02*
X17717D01*
Y371696D01*
X76771D01*
Y261849D01*
D02*
G37*
G36*
X573622Y242957D02*
Y228783D01*
X628900D01*
Y1020D01*
X1020Y1020D01*
X1020Y228783D01*
X55973D01*
Y242957D01*
X56329Y243304D01*
X65651D01*
X65750Y242804D01*
X65049Y242514D01*
X64352Y241979D01*
X63817Y241282D01*
X63481Y240470D01*
X63366Y239598D01*
Y235598D01*
X63481Y234727D01*
X63817Y233915D01*
X64186Y233435D01*
X64182Y233416D01*
Y225351D01*
X63815D01*
Y221021D01*
X64772D01*
Y219446D01*
X63815D01*
Y215115D01*
X64182D01*
Y213621D01*
X63643D01*
Y209290D01*
X64465D01*
Y208454D01*
X64352Y208341D01*
X64052Y207617D01*
Y206834D01*
X64352Y206110D01*
X64905Y205557D01*
X65629Y205257D01*
X66412D01*
X67136Y205557D01*
X67689Y206110D01*
X67989Y206834D01*
Y207617D01*
X67689Y208341D01*
X67275Y208755D01*
Y212107D01*
X67186Y212553D01*
Y213621D01*
X66992D01*
Y215115D01*
X67358D01*
Y217552D01*
X67475Y217727D01*
X67582Y218265D01*
Y223186D01*
X67475Y223724D01*
X67358Y223899D01*
Y225351D01*
X66992D01*
Y232266D01*
X67603Y232347D01*
X68415Y232683D01*
X69112Y233218D01*
X69648Y233915D01*
X69984Y234727D01*
X70099Y235598D01*
Y239598D01*
X69984Y240470D01*
X69648Y241282D01*
X69112Y241979D01*
X68415Y242514D01*
X67714Y242804D01*
X67814Y243304D01*
X72969D01*
X73069Y242804D01*
X72816Y242699D01*
X72389Y242372D01*
X73179Y241582D01*
X72622Y241026D01*
X71833Y241815D01*
X71505Y241389D01*
X71148Y240525D01*
X71026Y239598D01*
Y237992D01*
X72164D01*
Y237205D01*
X71026D01*
Y235598D01*
X71148Y234672D01*
X71505Y233808D01*
X71833Y233382D01*
X72622Y234171D01*
X73179Y233614D01*
X72389Y232825D01*
X72816Y232498D01*
X73680Y232140D01*
X74606Y232018D01*
X75533Y232140D01*
X76397Y232498D01*
X76823Y232825D01*
X76034Y233614D01*
X76590Y234171D01*
X77380Y233382D01*
X77707Y233808D01*
X78065Y234672D01*
X78187Y235598D01*
Y237205D01*
X77049D01*
Y237992D01*
X78187D01*
Y239598D01*
X78065Y240525D01*
X77707Y241389D01*
X77380Y241815D01*
X76590Y241026D01*
X76034Y241582D01*
X76823Y242372D01*
X76397Y242699D01*
X76144Y242804D01*
X76243Y243304D01*
X81399D01*
X81498Y242804D01*
X80797Y242514D01*
X80100Y241979D01*
X79565Y241282D01*
X79229Y240470D01*
X79114Y239598D01*
Y235598D01*
X79229Y234727D01*
X79565Y233915D01*
X80100Y233218D01*
X80797Y232683D01*
X80819Y232674D01*
Y225604D01*
X80405Y225189D01*
X80105Y224465D01*
Y223682D01*
X80405Y222959D01*
X80668Y222695D01*
Y218855D01*
X70087D01*
Y210076D01*
X85835D01*
Y218855D01*
X83478D01*
Y222695D01*
X83742Y222959D01*
X84042Y223682D01*
Y224465D01*
X83742Y225189D01*
X83629Y225302D01*
Y232462D01*
X84163Y232683D01*
X84861Y233218D01*
X85395Y233915D01*
X85732Y234727D01*
X85847Y235598D01*
Y239598D01*
X85732Y240470D01*
X85395Y241282D01*
X84861Y241979D01*
X84163Y242514D01*
X83462Y242804D01*
X83562Y243304D01*
X89273D01*
X89372Y242804D01*
X88671Y242514D01*
X87974Y241979D01*
X87439Y241282D01*
X87103Y240470D01*
X86988Y239598D01*
Y235598D01*
X87103Y234727D01*
X87439Y233915D01*
X87974Y233218D01*
X88670Y232684D01*
Y224899D01*
X88394D01*
Y220568D01*
X89457D01*
X89458Y220563D01*
X89625Y220313D01*
Y218855D01*
X88642D01*
Y211969D01*
X88525Y211794D01*
X88418Y211257D01*
Y210582D01*
X77119Y199283D01*
X68866D01*
Y199945D01*
X64339D01*
Y195819D01*
X64339Y195811D01*
X64320Y195319D01*
X63847D01*
Y184094D01*
X62474Y182720D01*
X52429D01*
X52036Y171697D01*
X61091D01*
X63847Y168941D01*
Y167366D01*
X64703D01*
Y160575D01*
X63748D01*
Y156047D01*
X67882D01*
Y160575D01*
X66927D01*
Y167366D01*
X75833D01*
Y166073D01*
X75471D01*
Y161743D01*
X78538D01*
X79014Y161743D01*
Y161742D01*
X79038D01*
Y161743D01*
X82581D01*
Y166073D01*
X79038D01*
X78642Y166325D01*
Y167366D01*
X91081D01*
Y160575D01*
X90126D01*
Y156047D01*
X94260D01*
Y160575D01*
X93305D01*
Y167366D01*
X93374D01*
X97311Y171303D01*
X106760D01*
Y182720D01*
X105579Y183902D01*
X94174D01*
X93768Y184307D01*
Y195319D01*
X93295D01*
X93276Y195811D01*
X93276Y195819D01*
Y199945D01*
X92417D01*
Y200633D01*
X92681Y200897D01*
X92981Y201620D01*
Y202403D01*
X92681Y203127D01*
X92127Y203681D01*
X91404Y203980D01*
X90621D01*
X89897Y203681D01*
X89343Y203127D01*
X89044Y202403D01*
Y201620D01*
X89343Y200897D01*
X89607Y200633D01*
Y199945D01*
X88748D01*
Y195819D01*
X88748Y195811D01*
X88729Y195319D01*
X87863D01*
Y187839D01*
X81140D01*
Y189202D01*
X79171D01*
X77203D01*
Y187839D01*
X75431D01*
Y191663D01*
X75431Y191663D01*
X75431D01*
X75440Y192159D01*
X75590Y192522D01*
Y193305D01*
X75291Y194028D01*
X74737Y194582D01*
X74014Y194882D01*
X73230D01*
X72507Y194582D01*
X71953Y194028D01*
X71653Y193305D01*
Y192522D01*
X71815Y192133D01*
X71888Y191663D01*
X71888Y191663D01*
X71888Y191663D01*
Y187839D01*
X70146D01*
Y195319D01*
X69752Y195713D01*
X69385Y195345D01*
X68883Y195378D01*
X68866Y195811D01*
X68866Y195819D01*
Y196473D01*
X77701D01*
X78239Y196580D01*
X78694Y196885D01*
X90816Y209006D01*
X91121Y209462D01*
X91228Y210000D01*
Y210076D01*
X104390D01*
Y218855D01*
X92435D01*
Y220827D01*
X92328Y221364D01*
X92161Y221615D01*
Y221749D01*
X92054Y222287D01*
X91937Y222462D01*
Y224899D01*
X91480D01*
Y232452D01*
X92037Y232683D01*
X92735Y233218D01*
X93269Y233915D01*
X93606Y234727D01*
X93721Y235598D01*
Y239598D01*
X93606Y240470D01*
X93269Y241282D01*
X92735Y241979D01*
X92037Y242514D01*
X91336Y242804D01*
X91436Y243304D01*
X100825D01*
X101181Y242957D01*
X101181Y242804D01*
Y228783D01*
X213386D01*
Y242804D01*
X213386Y242957D01*
X213742Y243304D01*
X223131D01*
X223231Y242804D01*
X222530Y242514D01*
X221832Y241979D01*
X221297Y241282D01*
X220961Y240470D01*
X220846Y239598D01*
Y235598D01*
X220961Y234727D01*
X221297Y233915D01*
X221832Y233218D01*
X221997Y233092D01*
Y225351D01*
X221630D01*
Y221021D01*
X222587D01*
Y219446D01*
X221630D01*
Y215115D01*
X221997D01*
Y213621D01*
X221458D01*
Y209290D01*
X222280D01*
Y208454D01*
X222167Y208341D01*
X221867Y207617D01*
Y206834D01*
X222167Y206110D01*
X222720Y205557D01*
X223444Y205257D01*
X224227D01*
X224951Y205557D01*
X225504Y206110D01*
X225804Y206834D01*
Y207617D01*
X225504Y208341D01*
X225090Y208755D01*
Y212107D01*
X225001Y212553D01*
Y213621D01*
X224806D01*
Y215115D01*
X225173D01*
Y217552D01*
X225290Y217727D01*
X225397Y218265D01*
Y223186D01*
X225290Y223724D01*
X225173Y223899D01*
Y225351D01*
X224806D01*
Y232310D01*
X225084Y232347D01*
X225896Y232683D01*
X226593Y233218D01*
X227128Y233915D01*
X227464Y234727D01*
X227579Y235598D01*
Y239598D01*
X227464Y240470D01*
X227128Y241282D01*
X226593Y241979D01*
X225896Y242514D01*
X225195Y242804D01*
X225294Y243304D01*
X230450D01*
X230549Y242804D01*
X230296Y242699D01*
X229870Y242372D01*
X230659Y241582D01*
X230103Y241026D01*
X229313Y241815D01*
X228986Y241389D01*
X228628Y240525D01*
X228506Y239598D01*
Y237992D01*
X229644D01*
Y237205D01*
X228506D01*
Y235598D01*
X228628Y234672D01*
X228986Y233808D01*
X229313Y233382D01*
X230103Y234171D01*
X230659Y233614D01*
X229870Y232825D01*
X230296Y232498D01*
X231160Y232140D01*
X232087Y232018D01*
X233013Y232140D01*
X233877Y232498D01*
X234303Y232825D01*
X233514Y233614D01*
X234071Y234171D01*
X234860Y233382D01*
X235188Y233808D01*
X235545Y234672D01*
X235667Y235598D01*
Y237205D01*
X234529D01*
Y237992D01*
X235667D01*
Y239598D01*
X235545Y240525D01*
X235188Y241389D01*
X234860Y241815D01*
X234071Y241026D01*
X233514Y241582D01*
X234303Y242372D01*
X233877Y242699D01*
X233624Y242804D01*
X233724Y243304D01*
X238879D01*
X238979Y242804D01*
X238278Y242514D01*
X237580Y241979D01*
X237045Y241282D01*
X236709Y240470D01*
X236594Y239598D01*
Y235598D01*
X236709Y234727D01*
X237045Y233915D01*
X237580Y233218D01*
X238278Y232683D01*
X238634Y232536D01*
Y228871D01*
X238533Y228719D01*
X238426Y228182D01*
Y225438D01*
X238162Y225174D01*
X237863Y224451D01*
Y223668D01*
X238162Y222944D01*
X238426Y222680D01*
Y218855D01*
X227902D01*
Y210076D01*
X243650D01*
Y218855D01*
X241236D01*
Y222680D01*
X241500Y222944D01*
X241800Y223668D01*
Y224451D01*
X241500Y225174D01*
X241236Y225438D01*
Y227701D01*
X241337Y227852D01*
X241444Y228390D01*
Y232600D01*
X241644Y232683D01*
X242341Y233218D01*
X242876Y233915D01*
X243212Y234727D01*
X243327Y235598D01*
Y239598D01*
X243212Y240470D01*
X242876Y241282D01*
X242341Y241979D01*
X241644Y242514D01*
X240943Y242804D01*
X241042Y243304D01*
X246753D01*
X246853Y242804D01*
X246151Y242514D01*
X245454Y241979D01*
X244919Y241282D01*
X244583Y240470D01*
X244468Y239598D01*
Y235598D01*
X244583Y234727D01*
X244919Y233915D01*
X245454Y233218D01*
X246151Y232683D01*
X246485Y232545D01*
Y224899D01*
X246209D01*
Y220568D01*
X247272D01*
X247273Y220563D01*
X247440Y220313D01*
Y218855D01*
X246457D01*
Y211969D01*
X246340Y211794D01*
X246233Y211257D01*
Y210582D01*
X234934Y199283D01*
X226681D01*
Y199945D01*
X222154D01*
Y195819D01*
X222154Y195811D01*
X222135Y195319D01*
X221662D01*
Y184094D01*
X220289Y182720D01*
X210244D01*
X209851Y171697D01*
X218906D01*
X221662Y168941D01*
Y167366D01*
X222518D01*
Y160575D01*
X221563D01*
Y156047D01*
X225697D01*
Y160575D01*
X224742D01*
Y167366D01*
X233243D01*
X233379Y167039D01*
X233648Y166770D01*
Y166073D01*
X233286D01*
Y161743D01*
X236829D01*
Y161742D01*
X236853D01*
Y161743D01*
X240396D01*
Y166073D01*
X236853D01*
X236501Y166298D01*
X236470Y166792D01*
X236717Y167039D01*
X236852Y167366D01*
X248896D01*
Y160575D01*
X247941D01*
Y156047D01*
X252075D01*
Y160575D01*
X251120D01*
Y167366D01*
X251189D01*
X255126Y171303D01*
X264575D01*
Y182720D01*
X263394Y183902D01*
X251989D01*
X251583Y184307D01*
Y195319D01*
X251110D01*
X251091Y195811D01*
X251091Y195819D01*
Y199945D01*
X250262D01*
Y200603D01*
X250555Y200897D01*
X250855Y201620D01*
Y202403D01*
X250555Y203127D01*
X250001Y203681D01*
X249278Y203980D01*
X248495D01*
X247771Y203681D01*
X247217Y203127D01*
X246918Y202403D01*
Y201620D01*
X247217Y200897D01*
X247452Y200662D01*
Y199945D01*
X246563D01*
Y195819D01*
X246563Y195811D01*
X246544Y195319D01*
X245678D01*
Y187839D01*
X238955D01*
Y189202D01*
X236986D01*
X235018D01*
Y187839D01*
X233246D01*
Y191600D01*
X233465Y192128D01*
Y192911D01*
X233165Y193635D01*
X232611Y194188D01*
X231888Y194488D01*
X231104D01*
X230381Y194188D01*
X229827Y193635D01*
X229528Y192911D01*
Y192128D01*
X229714Y191679D01*
X229703Y191663D01*
X229703D01*
Y187839D01*
X227961D01*
Y195319D01*
X227567Y195713D01*
X227200Y195345D01*
X226698Y195378D01*
X226681Y195811D01*
X226681Y195819D01*
Y196473D01*
X235516D01*
X236054Y196580D01*
X236509Y196885D01*
X248631Y209006D01*
X248936Y209462D01*
X249043Y210000D01*
Y210076D01*
X262205D01*
Y218855D01*
X250250D01*
Y220827D01*
X250143Y221364D01*
X249976Y221615D01*
Y221749D01*
X249869Y222287D01*
X249752Y222462D01*
Y224899D01*
X249295D01*
Y232591D01*
X249518Y232683D01*
X250215Y233218D01*
X250750Y233915D01*
X251086Y234727D01*
X251201Y235598D01*
Y239598D01*
X251086Y240470D01*
X250750Y241282D01*
X250215Y241979D01*
X249518Y242514D01*
X248817Y242804D01*
X248916Y243304D01*
X258305D01*
X258661Y242957D01*
X258661Y242804D01*
Y228783D01*
X370866D01*
Y242804D01*
X370866Y242957D01*
X371222Y243304D01*
X380611D01*
X380711Y242804D01*
X380010Y242514D01*
X379313Y241979D01*
X378778Y241282D01*
X378441Y240470D01*
X378327Y239598D01*
Y235598D01*
X378441Y234727D01*
X378778Y233915D01*
X379313Y233218D01*
X379469Y233098D01*
Y225351D01*
X379102D01*
Y221021D01*
X380060D01*
Y219446D01*
X379102D01*
Y215115D01*
X379469D01*
Y213621D01*
X378930D01*
Y209290D01*
X379752D01*
Y208454D01*
X379639Y208341D01*
X379339Y207617D01*
Y206834D01*
X379639Y206110D01*
X380193Y205557D01*
X380916Y205257D01*
X381699D01*
X382423Y205557D01*
X382977Y206110D01*
X383276Y206834D01*
Y207617D01*
X382977Y208341D01*
X382562Y208755D01*
Y212107D01*
X382473Y212553D01*
Y213621D01*
X382279D01*
Y215115D01*
X382646D01*
Y217552D01*
X382763Y217727D01*
X382870Y218265D01*
Y223186D01*
X382763Y223724D01*
X382646Y223899D01*
Y225351D01*
X382279D01*
Y232309D01*
X382564Y232347D01*
X383376Y232683D01*
X384073Y233218D01*
X384608Y233915D01*
X384944Y234727D01*
X385059Y235598D01*
Y239598D01*
X384944Y240470D01*
X384608Y241282D01*
X384073Y241979D01*
X383376Y242514D01*
X382675Y242804D01*
X382774Y243304D01*
X387930D01*
X388029Y242804D01*
X387777Y242699D01*
X387350Y242372D01*
X388140Y241582D01*
X387583Y241026D01*
X386793Y241815D01*
X386466Y241389D01*
X386108Y240525D01*
X385986Y239598D01*
Y237992D01*
X387124D01*
Y237205D01*
X385986D01*
Y235598D01*
X386108Y234672D01*
X386466Y233808D01*
X386793Y233382D01*
X387583Y234171D01*
X388140Y233614D01*
X387350Y232825D01*
X387777Y232498D01*
X388640Y232140D01*
X389567Y232018D01*
X390494Y232140D01*
X391357Y232498D01*
X391784Y232825D01*
X390994Y233614D01*
X391551Y234171D01*
X392340Y233382D01*
X392668Y233808D01*
X393025Y234672D01*
X393147Y235598D01*
Y237205D01*
X392009D01*
Y237992D01*
X393147D01*
Y239598D01*
X393025Y240525D01*
X392668Y241389D01*
X392340Y241815D01*
X391551Y241026D01*
X390994Y241582D01*
X391784Y242372D01*
X391357Y242699D01*
X391105Y242804D01*
X391204Y243304D01*
X396359D01*
X396459Y242804D01*
X395758Y242514D01*
X395061Y241979D01*
X394526Y241282D01*
X394189Y240470D01*
X394075Y239598D01*
Y235598D01*
X394189Y234727D01*
X394526Y233915D01*
X395061Y233218D01*
X395758Y232683D01*
X396057Y232559D01*
Y226770D01*
X395643Y226355D01*
X395343Y225632D01*
Y224849D01*
X395643Y224125D01*
X395906Y223861D01*
Y218855D01*
X385374D01*
Y210076D01*
X401122D01*
Y218855D01*
X398716D01*
Y223861D01*
X398980Y224125D01*
X399280Y224849D01*
Y225632D01*
X398980Y226355D01*
X398867Y226468D01*
Y232577D01*
X399124Y232683D01*
X399821Y233218D01*
X400356Y233915D01*
X400692Y234727D01*
X400807Y235598D01*
Y239598D01*
X400692Y240470D01*
X400356Y241282D01*
X399821Y241979D01*
X399124Y242514D01*
X398423Y242804D01*
X398522Y243304D01*
X404233D01*
X404333Y242804D01*
X403632Y242514D01*
X402935Y241979D01*
X402400Y241282D01*
X402063Y240470D01*
X401949Y239598D01*
Y235598D01*
X402063Y234727D01*
X402400Y233915D01*
X402935Y233218D01*
X403632Y232683D01*
X403957Y232548D01*
Y224899D01*
X403681D01*
Y220568D01*
X404744D01*
X404745Y220563D01*
X404913Y220313D01*
Y218855D01*
X403929D01*
Y211969D01*
X403812Y211794D01*
X403705Y211257D01*
Y210582D01*
X392407Y199283D01*
X384154D01*
Y199945D01*
X379626D01*
Y195819D01*
X379626Y195811D01*
X379607Y195319D01*
X379134D01*
Y184094D01*
X377761Y182720D01*
X367717D01*
X367323Y171697D01*
X376378D01*
X379134Y168941D01*
Y167366D01*
X379991D01*
Y160575D01*
X379036D01*
Y156047D01*
X383170D01*
Y160575D01*
X382215D01*
Y167366D01*
X390984D01*
X391078Y167272D01*
X391120Y167255D01*
Y166073D01*
X390758D01*
Y161743D01*
X394301D01*
Y161742D01*
X394325D01*
Y161743D01*
X397869D01*
Y166073D01*
X394325D01*
X393930Y166325D01*
Y167366D01*
X406369D01*
Y160575D01*
X405414D01*
Y156047D01*
X409548D01*
Y160575D01*
X408593D01*
Y167366D01*
X408662D01*
X412599Y171303D01*
X422048D01*
Y182720D01*
X420866Y183902D01*
X409461D01*
X409056Y184307D01*
Y195319D01*
X408582D01*
X408563Y195811D01*
X408563Y195819D01*
Y199945D01*
X407760D01*
Y200717D01*
X408024Y200981D01*
X408324Y201705D01*
Y202488D01*
X408024Y203211D01*
X407470Y203765D01*
X406747Y204065D01*
X405964D01*
X405240Y203765D01*
X404686Y203211D01*
X404387Y202488D01*
Y201705D01*
X404686Y200981D01*
X404950Y200717D01*
Y199945D01*
X404036D01*
Y195819D01*
X404036Y195811D01*
X404017Y195319D01*
X403150D01*
Y187839D01*
X396427D01*
Y189202D01*
X394459D01*
X392490D01*
Y187839D01*
X390718D01*
Y191663D01*
X390718Y191663D01*
X390718D01*
X390785Y192135D01*
X390945Y192522D01*
Y193305D01*
X390645Y194028D01*
X390091Y194582D01*
X389368Y194882D01*
X388585D01*
X387861Y194582D01*
X387308Y194028D01*
X387008Y193305D01*
Y192522D01*
X387159Y192156D01*
X387175Y191663D01*
X387175Y191663D01*
X387175Y191663D01*
Y187839D01*
X385434D01*
Y195319D01*
X385040Y195713D01*
X384672Y195345D01*
X384171Y195378D01*
X384154Y195811D01*
X384154Y195819D01*
Y196473D01*
X392988D01*
X393526Y196580D01*
X393982Y196885D01*
X406104Y209006D01*
X406408Y209462D01*
X406515Y210000D01*
Y210076D01*
X419677D01*
Y218855D01*
X407723D01*
Y220827D01*
X407616Y221364D01*
X407448Y221615D01*
Y221749D01*
X407341Y222287D01*
X407224Y222462D01*
Y224899D01*
X406767D01*
Y232588D01*
X406998Y232683D01*
X407695Y233218D01*
X408230Y233915D01*
X408566Y234727D01*
X408681Y235598D01*
Y239598D01*
X408566Y240470D01*
X408230Y241282D01*
X407695Y241979D01*
X406998Y242514D01*
X406297Y242804D01*
X406396Y243304D01*
X415786D01*
X416142Y242957D01*
X416142Y242804D01*
Y228783D01*
X528346D01*
Y242804D01*
X528346Y242957D01*
X528703Y243304D01*
X538092D01*
X538191Y242804D01*
X537490Y242514D01*
X536793Y241979D01*
X536258Y241282D01*
X535922Y240470D01*
X535807Y239598D01*
Y235598D01*
X535922Y234727D01*
X536258Y233915D01*
X536793Y233218D01*
X536964Y233087D01*
Y225351D01*
X536597D01*
Y221020D01*
X537555D01*
Y219445D01*
X536597D01*
Y215115D01*
X536964D01*
Y213620D01*
X536425D01*
Y209290D01*
X537247D01*
Y208453D01*
X537134Y208340D01*
X536834Y207617D01*
Y206833D01*
X537134Y206110D01*
X537688Y205556D01*
X538411Y205257D01*
X539194D01*
X539918Y205556D01*
X540472Y206110D01*
X540771Y206833D01*
Y207617D01*
X540472Y208340D01*
X540057Y208755D01*
Y212107D01*
X539968Y212553D01*
Y213620D01*
X539774D01*
Y215115D01*
X540141D01*
Y217552D01*
X540258Y217727D01*
X540365Y218264D01*
Y223186D01*
X540258Y223723D01*
X540141Y223898D01*
Y225351D01*
X539774D01*
Y232311D01*
X540044Y232347D01*
X540856Y232683D01*
X541553Y233218D01*
X542088Y233915D01*
X542425Y234727D01*
X542539Y235598D01*
Y239598D01*
X542425Y240470D01*
X542088Y241282D01*
X541553Y241979D01*
X540856Y242514D01*
X540155Y242804D01*
X540255Y243304D01*
X545410D01*
X545510Y242804D01*
X545257Y242699D01*
X544830Y242372D01*
X545620Y241582D01*
X545063Y241026D01*
X544274Y241815D01*
X543946Y241389D01*
X543589Y240525D01*
X543467Y239598D01*
Y237992D01*
X544605D01*
Y237205D01*
X543467D01*
Y235598D01*
X543589Y234672D01*
X543946Y233808D01*
X544274Y233382D01*
X545063Y234171D01*
X545620Y233614D01*
X544830Y232825D01*
X545257Y232498D01*
X546121Y232140D01*
X547047Y232018D01*
X547974Y232140D01*
X548838Y232498D01*
X549264Y232825D01*
X548474Y233614D01*
X549031Y234171D01*
X549821Y233382D01*
X550148Y233808D01*
X550506Y234672D01*
X550628Y235598D01*
Y237205D01*
X549490D01*
Y237992D01*
X550628D01*
Y239598D01*
X550506Y240525D01*
X550148Y241389D01*
X549821Y241815D01*
X549031Y241026D01*
X548474Y241582D01*
X549264Y242372D01*
X548838Y242699D01*
X548585Y242804D01*
X548684Y243304D01*
X553840D01*
X553939Y242804D01*
X553238Y242514D01*
X552541Y241979D01*
X552006Y241282D01*
X551670Y240470D01*
X551555Y239598D01*
Y235598D01*
X551670Y234727D01*
X552006Y233915D01*
X552541Y233218D01*
X553238Y232683D01*
X553602Y232533D01*
Y228874D01*
X553494Y228713D01*
X553387Y228175D01*
Y225438D01*
X553123Y225174D01*
X552823Y224451D01*
Y223668D01*
X553123Y222944D01*
X553387Y222680D01*
Y218855D01*
X542869D01*
Y210075D01*
X558617D01*
Y218855D01*
X556197D01*
Y222680D01*
X556461Y222944D01*
X556760Y223668D01*
Y224451D01*
X556461Y225174D01*
X556197Y225438D01*
Y227691D01*
X556305Y227852D01*
X556412Y228390D01*
Y232603D01*
X556604Y232683D01*
X557302Y233218D01*
X557836Y233915D01*
X558173Y234727D01*
X558287Y235598D01*
Y239598D01*
X558173Y240470D01*
X557836Y241282D01*
X557302Y241979D01*
X556604Y242514D01*
X555903Y242804D01*
X556003Y243304D01*
X561714D01*
X561813Y242804D01*
X561112Y242514D01*
X560415Y241979D01*
X559880Y241282D01*
X559544Y240470D01*
X559429Y239598D01*
Y235598D01*
X559544Y234727D01*
X559880Y233915D01*
X560415Y233218D01*
X561112Y232683D01*
X561452Y232542D01*
Y224898D01*
X561176D01*
Y220568D01*
X562239D01*
X562240Y220563D01*
X562408Y220312D01*
Y218855D01*
X561424D01*
Y211969D01*
X561307Y211794D01*
X561200Y211257D01*
Y210581D01*
X549902Y199283D01*
X541649D01*
Y199945D01*
X537121D01*
Y195819D01*
X537121Y195811D01*
X537102Y195319D01*
X536629D01*
Y184093D01*
X535256Y182720D01*
X525212D01*
X524818Y171696D01*
X533873D01*
X536629Y168941D01*
Y167366D01*
X537486D01*
Y160574D01*
X536531D01*
Y156047D01*
X540665D01*
Y160574D01*
X539710D01*
Y167366D01*
X548615D01*
Y166073D01*
X548253D01*
Y161742D01*
X551796D01*
Y161742D01*
X551821D01*
Y161742D01*
X555364D01*
Y166073D01*
X551821D01*
X551425Y166325D01*
Y167366D01*
X563864D01*
Y160574D01*
X562909D01*
Y156047D01*
X567043D01*
Y160574D01*
X566088D01*
Y167366D01*
X566157D01*
X570094Y171303D01*
X579543D01*
Y182720D01*
X578362Y183901D01*
X566956D01*
X566551Y184307D01*
Y195319D01*
X566078D01*
X566058Y195811D01*
X566058Y195819D01*
Y199945D01*
X565219D01*
Y200600D01*
X565503Y200884D01*
X565802Y201607D01*
Y202390D01*
X565503Y203114D01*
X564949Y203668D01*
X564225Y203967D01*
X563442D01*
X562719Y203668D01*
X562165Y203114D01*
X561865Y202390D01*
Y201607D01*
X562165Y200884D01*
X562409Y200640D01*
Y199945D01*
X561531D01*
Y195819D01*
X561531Y195811D01*
X561512Y195319D01*
X560645D01*
Y187838D01*
X553922D01*
Y189202D01*
X551954D01*
X549985D01*
Y187838D01*
X548213D01*
Y191617D01*
X548425Y192128D01*
Y192911D01*
X548126Y193635D01*
X547572Y194188D01*
X546848Y194488D01*
X546065D01*
X545342Y194188D01*
X544788Y193635D01*
X544488Y192911D01*
Y192128D01*
X544677Y191673D01*
X544670Y191662D01*
X544670D01*
Y187838D01*
X542929D01*
Y195319D01*
X542535Y195712D01*
X542167Y195345D01*
X541666Y195378D01*
X541649Y195811D01*
X541649Y195819D01*
Y196473D01*
X550484D01*
X551021Y196580D01*
X551477Y196884D01*
X563599Y209006D01*
X563903Y209462D01*
X564010Y209999D01*
Y210075D01*
X577172D01*
Y218855D01*
X565218D01*
Y220826D01*
X565111Y221364D01*
X564943Y221614D01*
Y221749D01*
X564836Y222286D01*
X564719Y222461D01*
Y224898D01*
X564262D01*
Y232594D01*
X564478Y232683D01*
X565175Y233218D01*
X565710Y233915D01*
X566047Y234727D01*
X566161Y235598D01*
Y239598D01*
X566047Y240470D01*
X565710Y241282D01*
X565175Y241979D01*
X564478Y242514D01*
X563777Y242804D01*
X563877Y243304D01*
X573266D01*
X573622Y242957D01*
D02*
G37*
%LPC*%
G36*
X377331Y225548D02*
X375657D01*
Y223481D01*
X377331D01*
Y225548D01*
D02*
G37*
G36*
X219858D02*
X218185D01*
Y223481D01*
X219858D01*
Y225548D01*
D02*
G37*
G36*
X375067D02*
X373394D01*
Y223481D01*
X375067D01*
Y225548D01*
D02*
G37*
G36*
X217595D02*
X215921D01*
Y223481D01*
X217595D01*
Y225548D01*
D02*
G37*
G36*
X62043D02*
X60370D01*
Y223481D01*
X62043D01*
Y225548D01*
D02*
G37*
G36*
X59780D02*
X58106D01*
Y223481D01*
X59780D01*
Y225548D01*
D02*
G37*
G36*
X534826Y225548D02*
X533152D01*
Y223481D01*
X534826D01*
Y225548D01*
D02*
G37*
G36*
X532562D02*
X530889D01*
Y223481D01*
X532562D01*
Y225548D01*
D02*
G37*
G36*
X412933Y225096D02*
X411260D01*
Y223029D01*
X412933D01*
Y225096D01*
D02*
G37*
G36*
X410669D02*
X408996D01*
Y223029D01*
X410669D01*
Y225096D01*
D02*
G37*
G36*
X255461D02*
X253787D01*
Y223029D01*
X255461D01*
Y225096D01*
D02*
G37*
G36*
X97646D02*
X95972D01*
Y223029D01*
X97646D01*
Y225096D01*
D02*
G37*
G36*
X253197D02*
X251524D01*
Y223029D01*
X253197D01*
Y225096D01*
D02*
G37*
G36*
X95382D02*
X93709D01*
Y223029D01*
X95382D01*
Y225096D01*
D02*
G37*
G36*
X570428Y225095D02*
X568755D01*
Y223028D01*
X570428D01*
Y225095D01*
D02*
G37*
G36*
X568164D02*
X566491D01*
Y223028D01*
X568164D01*
Y225095D01*
D02*
G37*
G36*
X377331Y222891D02*
X375657D01*
Y220824D01*
X377331D01*
Y222891D01*
D02*
G37*
G36*
X375067D02*
X373394D01*
Y220824D01*
X375067D01*
Y222891D01*
D02*
G37*
G36*
X219858D02*
X218185D01*
Y220824D01*
X219858D01*
Y222891D01*
D02*
G37*
G36*
X217595D02*
X215921D01*
Y220824D01*
X217595D01*
Y222891D01*
D02*
G37*
G36*
X62043Y222891D02*
X60370D01*
Y220824D01*
X62043D01*
Y222891D01*
D02*
G37*
G36*
X59780D02*
X58106D01*
Y220824D01*
X59780D01*
Y222891D01*
D02*
G37*
G36*
X534826Y222890D02*
X533152D01*
Y220823D01*
X534826D01*
Y222890D01*
D02*
G37*
G36*
X532562D02*
X530889D01*
Y220823D01*
X532562D01*
Y222890D01*
D02*
G37*
G36*
X412933Y222438D02*
X411260D01*
Y220371D01*
X412933D01*
Y222438D01*
D02*
G37*
G36*
X410669D02*
X408996D01*
Y220371D01*
X410669D01*
Y222438D01*
D02*
G37*
G36*
X255461Y222438D02*
X253787D01*
Y220371D01*
X255461D01*
Y222438D01*
D02*
G37*
G36*
X253197D02*
X251524D01*
Y220371D01*
X253197D01*
Y222438D01*
D02*
G37*
G36*
X97646D02*
X95972D01*
Y220371D01*
X97646D01*
Y222438D01*
D02*
G37*
G36*
X95382D02*
X93709D01*
Y220371D01*
X95382D01*
Y222438D01*
D02*
G37*
G36*
X570428Y222438D02*
X568755D01*
Y220371D01*
X570428D01*
Y222438D01*
D02*
G37*
G36*
X568164D02*
X566491D01*
Y220371D01*
X568164D01*
Y222438D01*
D02*
G37*
G36*
X377331Y219643D02*
X375658D01*
Y217576D01*
X377331D01*
Y219643D01*
D02*
G37*
G36*
X219858D02*
X218185D01*
Y217576D01*
X219858D01*
Y219643D01*
D02*
G37*
G36*
X375067D02*
X373394D01*
Y217576D01*
X375067D01*
Y219643D01*
D02*
G37*
G36*
X217595D02*
X215921D01*
Y217576D01*
X217595D01*
Y219643D01*
D02*
G37*
G36*
X62043D02*
X60370D01*
Y217576D01*
X62043D01*
Y219643D01*
D02*
G37*
G36*
X59780D02*
X58106D01*
Y217576D01*
X59780D01*
Y219643D01*
D02*
G37*
G36*
X534826Y219642D02*
X533152D01*
Y217575D01*
X534826D01*
Y219642D01*
D02*
G37*
G36*
X532562D02*
X530889D01*
Y217575D01*
X532562D01*
Y219642D01*
D02*
G37*
G36*
X377331Y216985D02*
X375658D01*
Y214918D01*
X377331D01*
Y216985D01*
D02*
G37*
G36*
X375067D02*
X373394D01*
Y214918D01*
X375067D01*
Y216985D01*
D02*
G37*
G36*
X219858D02*
X218185D01*
Y214918D01*
X219858D01*
Y216985D01*
D02*
G37*
G36*
X217595D02*
X215921D01*
Y214918D01*
X217595D01*
Y216985D01*
D02*
G37*
G36*
X62043Y216985D02*
X60370D01*
Y214918D01*
X62043D01*
Y216985D01*
D02*
G37*
G36*
X59780D02*
X58106D01*
Y214918D01*
X59780D01*
Y216985D01*
D02*
G37*
G36*
X534826Y216985D02*
X533152D01*
Y214918D01*
X534826D01*
Y216985D01*
D02*
G37*
G36*
X532562D02*
X530889D01*
Y214918D01*
X532562D01*
Y216985D01*
D02*
G37*
G36*
X377158Y213818D02*
X375485D01*
Y211751D01*
X377158D01*
Y213818D01*
D02*
G37*
G36*
X219686D02*
X218013D01*
Y211751D01*
X219686D01*
Y213818D01*
D02*
G37*
G36*
X374895D02*
X373221D01*
Y211751D01*
X374895D01*
Y213818D01*
D02*
G37*
G36*
X217422D02*
X215749D01*
Y211751D01*
X217422D01*
Y213818D01*
D02*
G37*
G36*
X61871D02*
X60198D01*
Y211751D01*
X61871D01*
Y213818D01*
D02*
G37*
G36*
X59607D02*
X57934D01*
Y211751D01*
X59607D01*
Y213818D01*
D02*
G37*
G36*
X534654Y213817D02*
X532980D01*
Y211750D01*
X534654D01*
Y213817D01*
D02*
G37*
G36*
X532390D02*
X530717D01*
Y211750D01*
X532390D01*
Y213817D01*
D02*
G37*
G36*
X616879Y225984D02*
X615405D01*
X613960Y225697D01*
X612599Y225133D01*
X611373Y224314D01*
X610331Y223272D01*
X609513Y222047D01*
X608949Y220686D01*
X608661Y219241D01*
Y217767D01*
X608949Y216322D01*
X609513Y214961D01*
X610331Y213736D01*
X611373Y212694D01*
X612599Y211875D01*
X613960Y211311D01*
X615405Y211024D01*
X616879D01*
X618324Y211311D01*
X619685Y211875D01*
X620910Y212694D01*
X621952Y213736D01*
X622771Y214961D01*
X623335Y216322D01*
X623622Y217767D01*
Y219241D01*
X623335Y220686D01*
X622771Y222047D01*
X621952Y223272D01*
X620910Y224314D01*
X619685Y225133D01*
X618324Y225697D01*
X616879Y225984D01*
D02*
G37*
G36*
X14516Y225984D02*
X13043D01*
X11598Y225697D01*
X10236Y225133D01*
X9011Y224314D01*
X7969Y223272D01*
X7151Y222047D01*
X6587Y220686D01*
X6299Y219241D01*
Y217767D01*
X6587Y216322D01*
X7151Y214961D01*
X7969Y213736D01*
X9011Y212694D01*
X10236Y211875D01*
X11598Y211311D01*
X13043Y211024D01*
X14516D01*
X15961Y211311D01*
X17323Y211875D01*
X18548Y212694D01*
X19590Y213736D01*
X20409Y214961D01*
X20972Y216322D01*
X21260Y217767D01*
Y219241D01*
X20972Y220686D01*
X20409Y222047D01*
X19590Y223272D01*
X18548Y224314D01*
X17323Y225133D01*
X15961Y225697D01*
X14516Y225984D01*
D02*
G37*
G36*
X377158Y211160D02*
X375485D01*
Y209093D01*
X377158D01*
Y211160D01*
D02*
G37*
G36*
X374895D02*
X373221D01*
Y209093D01*
X374895D01*
Y211160D01*
D02*
G37*
G36*
X219686D02*
X218013D01*
Y209093D01*
X219686D01*
Y211160D01*
D02*
G37*
G36*
X217422D02*
X215749D01*
Y209093D01*
X217422D01*
Y211160D01*
D02*
G37*
G36*
X61871Y211160D02*
X60198D01*
Y209093D01*
X61871D01*
Y211160D01*
D02*
G37*
G36*
X59607D02*
X57934D01*
Y209093D01*
X59607D01*
Y211160D01*
D02*
G37*
G36*
X534654Y211160D02*
X532980D01*
Y209093D01*
X534654D01*
Y211160D01*
D02*
G37*
G36*
X532390D02*
X530717D01*
Y209093D01*
X532390D01*
Y211160D01*
D02*
G37*
G36*
X436260Y205509D02*
X432913D01*
Y202556D01*
X436260D01*
Y205509D01*
D02*
G37*
G36*
X425236D02*
X421890D01*
Y202556D01*
X425236D01*
Y205509D01*
D02*
G37*
G36*
X278787D02*
X275441D01*
Y202556D01*
X278787D01*
Y205509D01*
D02*
G37*
G36*
X267764D02*
X264417D01*
Y202556D01*
X267764D01*
Y205509D01*
D02*
G37*
G36*
X120972D02*
X117626D01*
Y202556D01*
X120972D01*
Y205509D01*
D02*
G37*
G36*
X109949D02*
X106602D01*
Y202556D01*
X109949D01*
Y205509D01*
D02*
G37*
G36*
X593755Y205508D02*
X590408D01*
Y202556D01*
X593755D01*
Y205508D01*
D02*
G37*
G36*
X582731D02*
X579385D01*
Y202556D01*
X582731D01*
Y205508D01*
D02*
G37*
G36*
X436260Y201966D02*
X432913D01*
Y199013D01*
X436260D01*
Y201966D01*
D02*
G37*
G36*
X432323Y205509D02*
X425827D01*
Y202261D01*
Y199013D01*
X432323D01*
Y202261D01*
Y205509D01*
D02*
G37*
G36*
X425236Y201966D02*
X421890D01*
Y199013D01*
X425236D01*
Y201966D01*
D02*
G37*
G36*
X278787D02*
X275441D01*
Y199013D01*
X278787D01*
Y201966D01*
D02*
G37*
G36*
X274850Y205509D02*
X268354D01*
Y202261D01*
Y199013D01*
X274850D01*
Y202261D01*
Y205509D01*
D02*
G37*
G36*
X267764Y201966D02*
X264417D01*
Y199013D01*
X267764D01*
Y201966D01*
D02*
G37*
G36*
X120972D02*
X117626D01*
Y199013D01*
X120972D01*
Y201966D01*
D02*
G37*
G36*
X117035Y205509D02*
X110539D01*
Y202261D01*
Y199013D01*
X117035D01*
Y202261D01*
Y205509D01*
D02*
G37*
G36*
X109949Y201966D02*
X106602D01*
Y199013D01*
X109949D01*
Y201966D01*
D02*
G37*
G36*
X593755Y201965D02*
X590408D01*
Y199012D01*
X593755D01*
Y201965D01*
D02*
G37*
G36*
X589818Y205508D02*
X583322D01*
Y202260D01*
Y199012D01*
X589818D01*
Y202260D01*
Y205508D01*
D02*
G37*
G36*
X582731Y201965D02*
X579385D01*
Y199012D01*
X582731D01*
Y201965D01*
D02*
G37*
G36*
X376122Y202166D02*
X368346D01*
Y197875D01*
X376122D01*
Y202166D01*
D02*
G37*
G36*
X367756D02*
X359980D01*
Y197875D01*
X367756D01*
Y202166D01*
D02*
G37*
G36*
X218650D02*
X210874D01*
Y197875D01*
X218650D01*
Y202166D01*
D02*
G37*
G36*
X210283D02*
X202508D01*
Y197875D01*
X210283D01*
Y202166D01*
D02*
G37*
G36*
X60835D02*
X53059D01*
Y197875D01*
X60835D01*
Y202166D01*
D02*
G37*
G36*
X52469D02*
X44693D01*
Y197875D01*
X52469D01*
Y202166D01*
D02*
G37*
G36*
X533617Y202166D02*
X525842D01*
Y197875D01*
X533617D01*
Y202166D01*
D02*
G37*
G36*
X525251D02*
X517475D01*
Y197875D01*
X525251D01*
Y202166D01*
D02*
G37*
G36*
X428976Y197438D02*
Y197438D01*
X428688Y197438D01*
X422087D01*
Y196190D01*
X421587Y195998D01*
X421528Y196056D01*
X420805Y196355D01*
X420022D01*
X419298Y196056D01*
X418745Y195502D01*
X418445Y194778D01*
Y193995D01*
X418745Y193272D01*
X419298Y192718D01*
X420022Y192418D01*
X420805D01*
X421528Y192718D01*
X421587Y192776D01*
X422087Y192569D01*
Y191336D01*
X428976D01*
Y191336D01*
X429173D01*
Y191336D01*
X436063D01*
Y192421D01*
X436563Y192740D01*
X437003Y192558D01*
X437786D01*
X438510Y192857D01*
X439064Y193411D01*
X439363Y194135D01*
Y194918D01*
X439064Y195641D01*
X438510Y196195D01*
X437786Y196495D01*
X437003D01*
X436563Y196312D01*
X436063Y196632D01*
Y197438D01*
X429462D01*
X429173Y197438D01*
Y197438D01*
X428976D01*
D02*
G37*
G36*
X271504D02*
Y197438D01*
X271215Y197438D01*
X264614D01*
Y196190D01*
X264114Y195998D01*
X264056Y196056D01*
X263333Y196355D01*
X262549D01*
X261826Y196056D01*
X261272Y195502D01*
X260972Y194778D01*
Y193995D01*
X261272Y193272D01*
X261826Y192718D01*
X262549Y192418D01*
X263333D01*
X264056Y192718D01*
X264114Y192776D01*
X264614Y192569D01*
Y191336D01*
X271504D01*
Y191336D01*
X271701D01*
Y191336D01*
X278590D01*
Y192421D01*
X279091Y192740D01*
X279531Y192558D01*
X280314D01*
X281037Y192857D01*
X281591Y193411D01*
X281891Y194135D01*
Y194918D01*
X281591Y195641D01*
X281037Y196195D01*
X280314Y196495D01*
X279531D01*
X279091Y196312D01*
X278590Y196632D01*
Y197438D01*
X271989D01*
X271701Y197438D01*
Y197438D01*
X271504D01*
D02*
G37*
G36*
X113689D02*
Y197438D01*
X113400Y197438D01*
X106799D01*
Y196190D01*
X106299Y195998D01*
X106241Y196056D01*
X105517Y196355D01*
X104734D01*
X104011Y196056D01*
X103457Y195502D01*
X103157Y194778D01*
Y193995D01*
X103457Y193272D01*
X104011Y192718D01*
X104734Y192418D01*
X105517D01*
X106241Y192718D01*
X106299Y192776D01*
X106799Y192569D01*
Y191336D01*
X113689D01*
Y191336D01*
X113886D01*
Y191336D01*
X120776D01*
Y192421D01*
X121276Y192740D01*
X121716Y192558D01*
X122499D01*
X123222Y192857D01*
X123776Y193411D01*
X124076Y194135D01*
Y194918D01*
X123776Y195641D01*
X123222Y196195D01*
X122499Y196495D01*
X121716D01*
X121276Y196312D01*
X120776Y196632D01*
Y197438D01*
X114174D01*
X113886Y197438D01*
Y197438D01*
X113689D01*
D02*
G37*
G36*
X586471Y197438D02*
Y197438D01*
X586183Y197438D01*
X579582D01*
Y196189D01*
X579082Y195997D01*
X579024Y196055D01*
X578300Y196355D01*
X577517D01*
X576793Y196055D01*
X576240Y195501D01*
X575940Y194778D01*
Y193995D01*
X576240Y193271D01*
X576793Y192718D01*
X577517Y192418D01*
X578300D01*
X579024Y192718D01*
X579082Y192776D01*
X579582Y192569D01*
Y191335D01*
X586471D01*
Y191335D01*
X586668D01*
Y191335D01*
X593558D01*
Y192420D01*
X594058Y192740D01*
X594498Y192557D01*
X595281D01*
X596005Y192857D01*
X596559Y193411D01*
X596858Y194134D01*
Y194917D01*
X596559Y195641D01*
X596005Y196195D01*
X595281Y196494D01*
X594498D01*
X594058Y196312D01*
X593558Y196631D01*
Y197438D01*
X586957D01*
X586668Y197438D01*
Y197438D01*
X586471D01*
D02*
G37*
G36*
X376122Y197284D02*
X368346D01*
Y192993D01*
X376122D01*
Y197284D01*
D02*
G37*
G36*
X367756D02*
X359980D01*
Y192993D01*
X367756D01*
Y197284D01*
D02*
G37*
G36*
X218650D02*
X210874D01*
Y192993D01*
X218650D01*
Y197284D01*
D02*
G37*
G36*
X210283D02*
X202508D01*
Y192993D01*
X210283D01*
Y197284D01*
D02*
G37*
G36*
X60835D02*
X53059D01*
Y192993D01*
X60835D01*
Y197284D01*
D02*
G37*
G36*
X52469D02*
X44693D01*
Y192993D01*
X52469D01*
Y197284D01*
D02*
G37*
G36*
X533617Y197284D02*
X525842D01*
Y192993D01*
X533617D01*
Y197284D01*
D02*
G37*
G36*
X525251D02*
X517475D01*
Y192993D01*
X525251D01*
Y197284D01*
D02*
G37*
G36*
X81140Y191860D02*
X79466D01*
Y189793D01*
X81140D01*
Y191860D01*
D02*
G37*
G36*
X78876D02*
X77203D01*
Y189793D01*
X78876D01*
Y191860D01*
D02*
G37*
G36*
X396427D02*
X394754D01*
Y189793D01*
X396427D01*
Y191860D01*
D02*
G37*
G36*
X238955D02*
X237281D01*
Y189793D01*
X238955D01*
Y191860D01*
D02*
G37*
G36*
X394163D02*
X392490D01*
Y189793D01*
X394163D01*
Y191860D01*
D02*
G37*
G36*
X236691D02*
X235018D01*
Y189793D01*
X236691D01*
Y191860D01*
D02*
G37*
G36*
X553922Y191859D02*
X552249D01*
Y189792D01*
X553922D01*
Y191859D01*
D02*
G37*
G36*
X551658D02*
X549985D01*
Y189792D01*
X551658D01*
Y191859D01*
D02*
G37*
G36*
X388986Y166270D02*
X387313D01*
Y164203D01*
X388986D01*
Y166270D01*
D02*
G37*
G36*
X403577D02*
X401904D01*
Y164203D01*
X403577D01*
Y166270D01*
D02*
G37*
G36*
X401314D02*
X399640D01*
Y164203D01*
X401314D01*
Y166270D01*
D02*
G37*
G36*
X386723D02*
X385050D01*
Y164203D01*
X386723D01*
Y166270D01*
D02*
G37*
G36*
X231514D02*
X229841D01*
Y164203D01*
X231514D01*
Y166270D01*
D02*
G37*
G36*
X73699D02*
X72026D01*
Y164203D01*
X73699D01*
Y166270D01*
D02*
G37*
G36*
X246105D02*
X244432D01*
Y164203D01*
X246105D01*
Y166270D01*
D02*
G37*
G36*
X88290D02*
X86617D01*
Y164203D01*
X88290D01*
Y166270D01*
D02*
G37*
G36*
X243841D02*
X242168D01*
Y164203D01*
X243841D01*
Y166270D01*
D02*
G37*
G36*
X86026D02*
X84353D01*
Y164203D01*
X86026D01*
Y166270D01*
D02*
G37*
G36*
X229250D02*
X227577D01*
Y164203D01*
X229250D01*
Y166270D01*
D02*
G37*
G36*
X71435D02*
X69762D01*
Y164203D01*
X71435D01*
Y166270D01*
D02*
G37*
G36*
X561072Y166270D02*
X559399D01*
Y164203D01*
X561072D01*
Y166270D01*
D02*
G37*
G36*
X558809D02*
X557135D01*
Y164203D01*
X558809D01*
Y166270D01*
D02*
G37*
G36*
X546482D02*
X544808D01*
Y164203D01*
X546482D01*
Y166270D01*
D02*
G37*
G36*
X544218D02*
X542545D01*
Y164203D01*
X544218D01*
Y166270D01*
D02*
G37*
G36*
X403577Y163613D02*
X401904D01*
Y161546D01*
X403577D01*
Y163613D01*
D02*
G37*
G36*
X401314D02*
X399640D01*
Y161546D01*
X401314D01*
Y163613D01*
D02*
G37*
G36*
X388986D02*
X387313D01*
Y161546D01*
X388986D01*
Y163613D01*
D02*
G37*
G36*
X386723D02*
X385050D01*
Y161546D01*
X386723D01*
Y163613D01*
D02*
G37*
G36*
X246105Y163613D02*
X244432D01*
Y161546D01*
X246105D01*
Y163613D01*
D02*
G37*
G36*
X243841D02*
X242168D01*
Y161546D01*
X243841D01*
Y163613D01*
D02*
G37*
G36*
X231514D02*
X229841D01*
Y161546D01*
X231514D01*
Y163613D01*
D02*
G37*
G36*
X229250D02*
X227577D01*
Y161546D01*
X229250D01*
Y163613D01*
D02*
G37*
G36*
X88290D02*
X86617D01*
Y161546D01*
X88290D01*
Y163613D01*
D02*
G37*
G36*
X86026D02*
X84353D01*
Y161546D01*
X86026D01*
Y163613D01*
D02*
G37*
G36*
X73699D02*
X72026D01*
Y161546D01*
X73699D01*
Y163613D01*
D02*
G37*
G36*
X71435D02*
X69762D01*
Y161546D01*
X71435D01*
Y163613D01*
D02*
G37*
G36*
X561072Y163612D02*
X559399D01*
Y161545D01*
X561072D01*
Y163612D01*
D02*
G37*
G36*
X558809D02*
X557135D01*
Y161545D01*
X558809D01*
Y163612D01*
D02*
G37*
G36*
X546482Y163612D02*
X544808D01*
Y161545D01*
X546482D01*
Y163612D01*
D02*
G37*
G36*
X544218D02*
X542545D01*
Y161545D01*
X544218D01*
Y163612D01*
D02*
G37*
G36*
X561925Y160574D02*
X557791D01*
Y159234D01*
X556626D01*
Y159582D01*
X556560Y159915D01*
X556371Y160198D01*
X556088Y160387D01*
X555755Y160453D01*
X553882D01*
X553548Y160387D01*
X553265Y160198D01*
X553077Y159915D01*
X553010Y159582D01*
Y157040D01*
X553077Y156706D01*
X553265Y156423D01*
X553548Y156234D01*
X553619Y156220D01*
Y154177D01*
X552771D01*
Y149846D01*
X554814D01*
Y148426D01*
X553094D01*
Y141147D01*
X553070D01*
X552742Y141082D01*
X552464Y140896D01*
X552359Y140791D01*
X552027Y140660D01*
X551695Y140791D01*
X551590Y140896D01*
X551312Y141082D01*
X550984Y141147D01*
X550960D01*
Y148426D01*
X548774D01*
Y149846D01*
X550803D01*
Y154177D01*
X549954D01*
Y156220D01*
X550025Y156234D01*
X550308Y156423D01*
X550497Y156706D01*
X550563Y157040D01*
Y159582D01*
X550497Y159915D01*
X550308Y160198D01*
X550025Y160387D01*
X549692Y160453D01*
X547819D01*
X547485Y160387D01*
X547202Y160198D01*
X547014Y159915D01*
X546947Y159582D01*
Y159234D01*
X545783D01*
Y160574D01*
X541649D01*
Y156047D01*
X545783D01*
Y157387D01*
X546947D01*
Y157040D01*
X547014Y156706D01*
X547202Y156423D01*
X547485Y156234D01*
X547819Y156168D01*
X548108D01*
Y154177D01*
X547259D01*
Y151426D01*
X547126Y151226D01*
X547060Y150898D01*
Y148426D01*
X535212D01*
Y139646D01*
X546282D01*
X546504Y139498D01*
X546832Y139433D01*
X549262D01*
X549453Y138971D01*
X536186Y125704D01*
X434966D01*
X434638Y125638D01*
X434360Y125452D01*
X417898Y108991D01*
X417712Y108713D01*
X417647Y108385D01*
Y78647D01*
X397799Y58800D01*
X397614Y58522D01*
X397549Y58194D01*
Y48291D01*
X397038Y48154D01*
X396230Y47688D01*
X395570Y47028D01*
X395104Y46220D01*
X394862Y45319D01*
Y44386D01*
X395104Y43485D01*
X395570Y42677D01*
X396230Y42017D01*
X397038Y41550D01*
X397939Y41309D01*
X398872D01*
X399773Y41550D01*
X400581Y42017D01*
X401241Y42677D01*
X401707Y43485D01*
X401949Y44386D01*
Y45319D01*
X401707Y46220D01*
X401241Y47028D01*
X400581Y47688D01*
X399773Y48154D01*
X399263Y48291D01*
Y56419D01*
X399763Y56468D01*
X399772Y56423D01*
X399957Y56145D01*
X400057Y56045D01*
X399862Y55319D01*
Y54386D01*
X400104Y53485D01*
X400570Y52677D01*
X401230Y52017D01*
X402038Y51551D01*
X402939Y51309D01*
X403872D01*
X404773Y51551D01*
X405581Y52017D01*
X406241Y52677D01*
X406707Y53485D01*
X406949Y54386D01*
Y55319D01*
X406707Y56220D01*
X406241Y57028D01*
X405581Y57688D01*
X404773Y58154D01*
X403872Y58396D01*
X402939D01*
X402541Y58289D01*
X402283Y58737D01*
X420610Y77065D01*
X420796Y77343D01*
X420861Y77671D01*
Y107408D01*
X435942Y122489D01*
X537162D01*
X537490Y122555D01*
X537768Y122740D01*
X553383Y138356D01*
X553569Y138634D01*
X553634Y138962D01*
Y139433D01*
X557222D01*
X557550Y139498D01*
X557772Y139646D01*
X568842D01*
Y148426D01*
X556528D01*
Y150883D01*
X556462Y151212D01*
X556314Y151433D01*
Y154177D01*
X555466D01*
Y156168D01*
X555755D01*
X556088Y156234D01*
X556371Y156423D01*
X556560Y156706D01*
X556626Y157040D01*
Y157387D01*
X557791D01*
Y156047D01*
X561925D01*
Y160574D01*
D02*
G37*
G36*
X404429Y160575D02*
X400296D01*
Y159168D01*
X399131D01*
Y159582D01*
X399065Y159916D01*
X398876Y160199D01*
X398593Y160388D01*
X398260Y160454D01*
X396387D01*
X396053Y160388D01*
X395770Y160199D01*
X395582Y159916D01*
X395515Y159582D01*
Y157040D01*
X395582Y156707D01*
X395770Y156424D01*
X396053Y156235D01*
X396387Y156168D01*
X396466D01*
Y154177D01*
X395276D01*
Y149846D01*
X397319D01*
Y148426D01*
X395599D01*
Y141401D01*
X395575D01*
X395247Y141336D01*
X394969Y141150D01*
X394864Y141045D01*
X394532Y140914D01*
X394200Y141045D01*
X394095Y141150D01*
X393817Y141336D01*
X393489Y141401D01*
X393465D01*
Y148426D01*
X391265D01*
Y149846D01*
X393307D01*
Y154177D01*
X392117D01*
Y156168D01*
X392197D01*
X392530Y156235D01*
X392813Y156424D01*
X393002Y156707D01*
X393068Y157040D01*
Y159582D01*
X393002Y159916D01*
X392813Y160199D01*
X392530Y160388D01*
X392197Y160454D01*
X390324D01*
X389990Y160388D01*
X389707Y160199D01*
X389518Y159916D01*
X389452Y159582D01*
Y159168D01*
X388288D01*
Y160575D01*
X384154D01*
Y156047D01*
X388288D01*
Y157454D01*
X389452D01*
Y157040D01*
X389518Y156707D01*
X389707Y156424D01*
X389990Y156235D01*
X390324Y156168D01*
X390403D01*
Y154177D01*
X389764D01*
Y151434D01*
X389616Y151212D01*
X389551Y150884D01*
Y148426D01*
X377717D01*
Y139647D01*
X392925D01*
Y110862D01*
X386957Y104895D01*
X386772Y104617D01*
X386706Y104289D01*
Y57153D01*
X386463Y57087D01*
X386206Y57063D01*
X385581Y57688D01*
X384773Y58154D01*
X383872Y58396D01*
X382939D01*
X382038Y58154D01*
X381534Y57863D01*
X381227Y58264D01*
X381411Y58447D01*
X381597Y58726D01*
X381662Y59053D01*
Y82581D01*
X381597Y82909D01*
X381411Y83187D01*
X335335Y129263D01*
X335057Y129449D01*
X334729Y129514D01*
X249198D01*
X239527Y139185D01*
X239719Y139647D01*
X253875D01*
Y148426D01*
X241560D01*
Y150884D01*
X241495Y151212D01*
X241347Y151434D01*
Y154177D01*
X240498D01*
Y156168D01*
X240787D01*
X241121Y156235D01*
X241404Y156424D01*
X241593Y156707D01*
X241659Y157040D01*
Y157388D01*
X242823D01*
Y156047D01*
X246957D01*
Y160575D01*
X242823D01*
Y159234D01*
X241659D01*
Y159582D01*
X241593Y159916D01*
X241404Y160199D01*
X241121Y160388D01*
X240787Y160454D01*
X238914D01*
X238581Y160388D01*
X238298Y160199D01*
X238109Y159916D01*
X238043Y159582D01*
Y157040D01*
X238109Y156707D01*
X238298Y156424D01*
X238581Y156235D01*
X238652Y156221D01*
Y154177D01*
X237804D01*
Y149846D01*
X239846D01*
Y148426D01*
X238127D01*
Y141401D01*
X238102D01*
X237774Y141336D01*
X237496Y141150D01*
X237391Y141045D01*
X237059Y140914D01*
X236728Y141045D01*
X236623Y141150D01*
X236345Y141336D01*
X236017Y141401D01*
X235992D01*
Y148426D01*
X233792D01*
Y149846D01*
X235835D01*
Y154177D01*
X234987D01*
Y156221D01*
X235058Y156235D01*
X235341Y156424D01*
X235529Y156707D01*
X235596Y157040D01*
Y159582D01*
X235529Y159916D01*
X235341Y160199D01*
X235058Y160388D01*
X234724Y160454D01*
X232851D01*
X232518Y160388D01*
X232235Y160199D01*
X232046Y159916D01*
X231980Y159582D01*
Y159234D01*
X230815D01*
Y160575D01*
X226681D01*
Y156047D01*
X230815D01*
Y157388D01*
X231980D01*
Y157040D01*
X232046Y156707D01*
X232235Y156424D01*
X232518Y156235D01*
X232851Y156168D01*
X233140D01*
Y154177D01*
X232292D01*
Y151434D01*
X232144Y151212D01*
X232078Y150884D01*
Y148426D01*
X220244D01*
Y139647D01*
X235453D01*
Y139069D01*
X235518Y138741D01*
X235703Y138463D01*
X247616Y126551D01*
X247894Y126365D01*
X248222Y126300D01*
X333752D01*
X378448Y81604D01*
Y60030D01*
X377028Y58609D01*
X376842Y58331D01*
X376777Y58003D01*
Y57100D01*
X376277Y56966D01*
X376241Y57028D01*
X375581Y57688D01*
X374773Y58154D01*
X373872Y58396D01*
X372939D01*
X372038Y58154D01*
X371230Y57688D01*
X370648Y57106D01*
X370327Y57177D01*
X370148Y57287D01*
Y83465D01*
X370083Y83793D01*
X369897Y84071D01*
X329817Y124151D01*
X329539Y124337D01*
X329211Y124402D01*
X247239D01*
X240676Y130964D01*
X240399Y131150D01*
X240071Y131215D01*
X167985D01*
X162330Y136870D01*
X162052Y137056D01*
X161724Y137121D01*
X83370D01*
X81519Y138971D01*
X81710Y139433D01*
X84440D01*
X84768Y139499D01*
X84989Y139647D01*
X96060D01*
Y148426D01*
X83745D01*
Y150884D01*
X83680Y151212D01*
X83532Y151434D01*
Y154177D01*
X82893D01*
Y156168D01*
X82972D01*
X83306Y156235D01*
X83589Y156424D01*
X83777Y156707D01*
X83844Y157040D01*
Y157454D01*
X85008D01*
Y156047D01*
X89142D01*
Y160575D01*
X85008D01*
Y159168D01*
X83844D01*
Y159582D01*
X83777Y159916D01*
X83589Y160199D01*
X83306Y160388D01*
X82972Y160454D01*
X81099D01*
X80766Y160388D01*
X80483Y160199D01*
X80294Y159916D01*
X80228Y159582D01*
Y157040D01*
X80294Y156707D01*
X80483Y156424D01*
X80766Y156235D01*
X81099Y156168D01*
X81179D01*
Y154177D01*
X79989D01*
Y149846D01*
X82031D01*
Y148426D01*
X80312D01*
Y141147D01*
X80287D01*
X79959Y141082D01*
X79681Y140896D01*
X79576Y140791D01*
X79245Y140660D01*
X78913Y140791D01*
X78808Y140896D01*
X78530Y141082D01*
X78202Y141147D01*
X78177D01*
Y148426D01*
X75977D01*
Y149846D01*
X78020D01*
Y154177D01*
X76830D01*
Y156168D01*
X76909D01*
X77243Y156235D01*
X77526Y156424D01*
X77715Y156707D01*
X77781Y157040D01*
Y159582D01*
X77715Y159916D01*
X77526Y160199D01*
X77243Y160388D01*
X76909Y160454D01*
X75036D01*
X74703Y160388D01*
X74420Y160199D01*
X74231Y159916D01*
X74165Y159582D01*
Y159168D01*
X73000D01*
Y160575D01*
X68866D01*
Y156047D01*
X73000D01*
Y157454D01*
X74165D01*
Y157040D01*
X74231Y156707D01*
X74420Y156424D01*
X74703Y156235D01*
X75036Y156168D01*
X75116D01*
Y154177D01*
X74477D01*
Y151434D01*
X74329Y151212D01*
X74263Y150884D01*
Y148426D01*
X62429D01*
Y139647D01*
X73500D01*
X73721Y139499D01*
X74050Y139433D01*
X77637D01*
Y138663D01*
X77703Y138335D01*
X77889Y138057D01*
X81788Y134158D01*
X82065Y133972D01*
X82393Y133907D01*
X160748D01*
X166402Y128252D01*
X166680Y128067D01*
X167008Y128001D01*
X239094D01*
X245657Y121439D01*
X245935Y121253D01*
X246263Y121188D01*
X328235D01*
X366934Y82488D01*
Y55538D01*
X367000Y55210D01*
X367185Y54932D01*
X368206Y53911D01*
Y48396D01*
X367939D01*
X367038Y48154D01*
X366230Y47688D01*
X365570Y47028D01*
X365104Y46220D01*
X364862Y45319D01*
Y44386D01*
X365104Y43485D01*
X365570Y42677D01*
X366230Y42017D01*
X367038Y41550D01*
X367939Y41309D01*
X368872D01*
X369773Y41550D01*
X370581Y42017D01*
X371241Y42677D01*
X371707Y43485D01*
X371949Y44386D01*
Y45319D01*
X371707Y46220D01*
X371241Y47028D01*
X370581Y47688D01*
X369920Y48069D01*
Y52802D01*
X370420Y52936D01*
X370570Y52677D01*
X371230Y52017D01*
X372038Y51551D01*
X372939Y51309D01*
X373872D01*
X374773Y51551D01*
X375581Y52017D01*
X376241Y52677D01*
X376329Y52829D01*
X376640Y52817D01*
X376871Y52767D01*
X377028Y52532D01*
X382255Y47305D01*
Y46107D01*
X381755Y46042D01*
X381707Y46220D01*
X381241Y47028D01*
X380581Y47688D01*
X379773Y48154D01*
X378872Y48396D01*
X377939D01*
X377038Y48154D01*
X376230Y47688D01*
X375570Y47028D01*
X375104Y46220D01*
X374862Y45319D01*
Y44386D01*
X375104Y43485D01*
X375570Y42677D01*
X376230Y42017D01*
X377038Y41550D01*
X377939Y41309D01*
X378872D01*
X379773Y41550D01*
X380581Y42017D01*
X381241Y42677D01*
X381707Y43485D01*
X381844Y43995D01*
X382819D01*
X383023Y44036D01*
X383400Y43825D01*
X383523Y43710D01*
Y43513D01*
X383588Y43185D01*
X383774Y42907D01*
X386228Y40453D01*
X386506Y40267D01*
X386834Y40202D01*
X389977D01*
X390305Y40267D01*
X390583Y40453D01*
X394011Y43882D01*
X394197Y44160D01*
X394263Y44488D01*
Y51414D01*
X394773Y51551D01*
X395581Y52017D01*
X396241Y52677D01*
X396707Y53485D01*
X396949Y54386D01*
Y55319D01*
X396707Y56220D01*
X396241Y57028D01*
X395581Y57688D01*
X394773Y58154D01*
X393872Y58396D01*
X392939D01*
X392038Y58154D01*
X391230Y57688D01*
X390570Y57028D01*
X390420Y56769D01*
X389920Y56902D01*
Y103312D01*
X395888Y109280D01*
X396074Y109558D01*
X396139Y109886D01*
Y139647D01*
X411347D01*
Y148426D01*
X399033D01*
Y150884D01*
X398967Y151212D01*
X398819Y151434D01*
Y154177D01*
X398180D01*
Y156168D01*
X398260D01*
X398593Y156235D01*
X398876Y156424D01*
X399065Y156707D01*
X399131Y157040D01*
Y157454D01*
X400296D01*
Y156047D01*
X404429D01*
Y160575D01*
D02*
G37*
G36*
X387993Y154374D02*
X386319D01*
Y152307D01*
X387993D01*
Y154374D01*
D02*
G37*
G36*
X230520D02*
X228847D01*
Y152307D01*
X230520D01*
Y154374D01*
D02*
G37*
G36*
X89240D02*
X87567D01*
Y152307D01*
X89240D01*
Y154374D01*
D02*
G37*
G36*
X72705D02*
X71032D01*
Y152307D01*
X72705D01*
Y154374D01*
D02*
G37*
G36*
X385729D02*
X384055D01*
Y152307D01*
X385729D01*
Y154374D01*
D02*
G37*
G36*
X228256D02*
X226583D01*
Y152307D01*
X228256D01*
Y154374D01*
D02*
G37*
G36*
X86977D02*
X85303D01*
Y152307D01*
X86977D01*
Y154374D01*
D02*
G37*
G36*
X70441D02*
X68768D01*
Y152307D01*
X70441D01*
Y154374D01*
D02*
G37*
G36*
X404528D02*
X402855D01*
Y152307D01*
X404528D01*
Y154374D01*
D02*
G37*
G36*
X247056D02*
X245382D01*
Y152307D01*
X247056D01*
Y154374D01*
D02*
G37*
G36*
X402264D02*
X400591D01*
Y152307D01*
X402264D01*
Y154374D01*
D02*
G37*
G36*
X244792D02*
X243119D01*
Y152307D01*
X244792D01*
Y154374D01*
D02*
G37*
G36*
X545488Y154374D02*
X543814D01*
Y152307D01*
X545488D01*
Y154374D01*
D02*
G37*
G36*
X543224D02*
X541551D01*
Y152307D01*
X543224D01*
Y154374D01*
D02*
G37*
G36*
X562023D02*
X560350D01*
Y152307D01*
X562023D01*
Y154374D01*
D02*
G37*
G36*
X559759D02*
X558086D01*
Y152307D01*
X559759D01*
Y154374D01*
D02*
G37*
G36*
X404528Y151717D02*
X402855D01*
Y149650D01*
X404528D01*
Y151717D01*
D02*
G37*
G36*
X402264D02*
X400591D01*
Y149650D01*
X402264D01*
Y151717D01*
D02*
G37*
G36*
X387993Y151717D02*
X386319D01*
Y149650D01*
X387993D01*
Y151717D01*
D02*
G37*
G36*
X385729D02*
X384055D01*
Y149650D01*
X385729D01*
Y151717D01*
D02*
G37*
G36*
X247056Y151717D02*
X245382D01*
Y149650D01*
X247056D01*
Y151717D01*
D02*
G37*
G36*
X244792D02*
X243119D01*
Y149650D01*
X244792D01*
Y151717D01*
D02*
G37*
G36*
X230520Y151717D02*
X228847D01*
Y149650D01*
X230520D01*
Y151717D01*
D02*
G37*
G36*
X228256D02*
X226583D01*
Y149650D01*
X228256D01*
Y151717D01*
D02*
G37*
G36*
X89240D02*
X87567D01*
Y149650D01*
X89240D01*
Y151717D01*
D02*
G37*
G36*
X86977D02*
X85303D01*
Y149650D01*
X86977D01*
Y151717D01*
D02*
G37*
G36*
X72705D02*
X71032D01*
Y149650D01*
X72705D01*
Y151717D01*
D02*
G37*
G36*
X70441D02*
X68768D01*
Y149650D01*
X70441D01*
Y151717D01*
D02*
G37*
G36*
X562023Y151716D02*
X560350D01*
Y149649D01*
X562023D01*
Y151716D01*
D02*
G37*
G36*
X559759D02*
X558086D01*
Y149649D01*
X559759D01*
Y151716D01*
D02*
G37*
G36*
X545488Y151716D02*
X543814D01*
Y149649D01*
X545488D01*
Y151716D01*
D02*
G37*
G36*
X543224D02*
X541551D01*
Y149649D01*
X543224D01*
Y151716D01*
D02*
G37*
G36*
X375780Y148623D02*
X368004D01*
Y144332D01*
X375780D01*
Y148623D01*
D02*
G37*
G36*
X367413D02*
X359638D01*
Y144332D01*
X367413D01*
Y148623D01*
D02*
G37*
G36*
X218307D02*
X210531D01*
Y144332D01*
X218307D01*
Y148623D01*
D02*
G37*
G36*
X209941D02*
X202165D01*
Y144332D01*
X209941D01*
Y148623D01*
D02*
G37*
G36*
X60492D02*
X52716D01*
Y144332D01*
X60492D01*
Y148623D01*
D02*
G37*
G36*
X52126D02*
X44350D01*
Y144332D01*
X52126D01*
Y148623D01*
D02*
G37*
G36*
X272639Y148623D02*
X264863D01*
Y144332D01*
X272639D01*
Y148623D01*
D02*
G37*
G36*
X430111D02*
X422336D01*
Y144332D01*
X430111D01*
Y148623D01*
D02*
G37*
G36*
X114824D02*
X107048D01*
Y144332D01*
X114824D01*
Y148623D01*
D02*
G37*
G36*
X106458D02*
X98682D01*
Y144332D01*
X106458D01*
Y148623D01*
D02*
G37*
G36*
X264273D02*
X256497D01*
Y144332D01*
X264273D01*
Y148623D01*
D02*
G37*
G36*
X421745D02*
X413970D01*
Y144332D01*
X421745D01*
Y148623D01*
D02*
G37*
G36*
X532607Y148623D02*
X524831D01*
Y144331D01*
X532607D01*
Y148623D01*
D02*
G37*
G36*
X524241D02*
X516465D01*
Y144331D01*
X524241D01*
Y148623D01*
D02*
G37*
G36*
X587606Y148623D02*
X579831D01*
Y144331D01*
X587606D01*
Y148623D01*
D02*
G37*
G36*
X579240D02*
X571464D01*
Y144331D01*
X579240D01*
Y148623D01*
D02*
G37*
G36*
X375780Y143741D02*
X368004D01*
Y139450D01*
X375780D01*
Y143741D01*
D02*
G37*
G36*
X367413D02*
X359638D01*
Y139450D01*
X367413D01*
Y143741D01*
D02*
G37*
G36*
X218307D02*
X210531D01*
Y139450D01*
X218307D01*
Y143741D01*
D02*
G37*
G36*
X209941D02*
X202165D01*
Y139450D01*
X209941D01*
Y143741D01*
D02*
G37*
G36*
X60492D02*
X52716D01*
Y139450D01*
X60492D01*
Y143741D01*
D02*
G37*
G36*
X52126D02*
X44350D01*
Y139450D01*
X52126D01*
Y143741D01*
D02*
G37*
G36*
X430111Y143741D02*
X422336D01*
Y139450D01*
X430111D01*
Y143741D01*
D02*
G37*
G36*
X421745D02*
X413970D01*
Y139450D01*
X421745D01*
Y143741D01*
D02*
G37*
G36*
X272639D02*
X264863D01*
Y139450D01*
X272639D01*
Y143741D01*
D02*
G37*
G36*
X264273D02*
X256497D01*
Y139450D01*
X264273D01*
Y143741D01*
D02*
G37*
G36*
X114824D02*
X107048D01*
Y139450D01*
X114824D01*
Y143741D01*
D02*
G37*
G36*
X106458D02*
X98682D01*
Y139450D01*
X106458D01*
Y143741D01*
D02*
G37*
G36*
X532607Y143741D02*
X524831D01*
Y139449D01*
X532607D01*
Y143741D01*
D02*
G37*
G36*
X524241D02*
X516465D01*
Y139449D01*
X524241D01*
Y143741D01*
D02*
G37*
G36*
X587606Y143741D02*
X579831D01*
Y139449D01*
X587606D01*
Y143741D01*
D02*
G37*
G36*
X579240D02*
X571464D01*
Y139449D01*
X579240D01*
Y143741D01*
D02*
G37*
G36*
X77483Y110936D02*
X76248D01*
Y105260D01*
X78853D01*
Y109565D01*
X78749Y110090D01*
X78452Y110534D01*
X78008Y110831D01*
X77483Y110936D01*
D02*
G37*
G36*
X75658D02*
X74423D01*
X73899Y110831D01*
X73454Y110534D01*
X73157Y110090D01*
X73053Y109565D01*
Y105260D01*
X75658D01*
Y110936D01*
D02*
G37*
G36*
X78853Y104669D02*
X73053D01*
Y100364D01*
X73157Y99839D01*
X73317Y99600D01*
X73157Y99361D01*
X73053Y98837D01*
Y94532D01*
X78853D01*
Y98837D01*
X78749Y99361D01*
X78589Y99600D01*
X78749Y99839D01*
X78853Y100364D01*
Y104669D01*
D02*
G37*
G36*
X260460Y90248D02*
X260459Y90248D01*
X260458Y90248D01*
X247134Y90178D01*
X246982Y90147D01*
X246831Y90117D01*
X246829Y90116D01*
X246827Y90115D01*
X246699Y90029D01*
X246570Y89943D01*
X246569Y89941D01*
X246567Y89940D01*
X246482Y89811D01*
X246396Y89683D01*
X246396Y89680D01*
X246395Y89679D01*
X246365Y89526D01*
X246335Y89375D01*
Y82671D01*
X245835Y82240D01*
X243217D01*
Y78598D01*
Y74956D01*
X246116Y74956D01*
X246320Y74575D01*
X246339Y74527D01*
X246370Y74374D01*
X246149Y73986D01*
X246039Y73874D01*
X244890D01*
Y71807D01*
X246858D01*
X248827D01*
Y73744D01*
X249396D01*
X249658Y73482D01*
Y62155D01*
X249605Y62109D01*
X249158Y61933D01*
X249033Y62017D01*
X248725Y62078D01*
X247252D01*
Y60291D01*
X246957D01*
Y59996D01*
X244382D01*
Y59311D01*
X244444Y59002D01*
X244619Y58740D01*
X244670Y58706D01*
Y58136D01*
X244619Y58102D01*
X244444Y57840D01*
X244382Y57531D01*
Y56846D01*
X246957D01*
Y56256D01*
X244382D01*
Y55570D01*
X244444Y55262D01*
X244605Y55020D01*
X244582Y54903D01*
X244437Y54520D01*
X239831D01*
X239524Y54459D01*
X239263Y54285D01*
X239089Y54024D01*
X239028Y53717D01*
Y44925D01*
X239089Y44618D01*
X239263Y44358D01*
X239524Y44183D01*
X239831Y44122D01*
X250760D01*
X251189Y43952D01*
X251189Y43622D01*
Y42279D01*
X253551D01*
Y41984D01*
X253847D01*
Y40015D01*
X255807D01*
X255913Y40015D01*
X256307D01*
X256414Y40015D01*
X258374D01*
Y41984D01*
X258669D01*
Y42279D01*
X261032D01*
Y43679D01*
X261032Y43952D01*
X261263Y44356D01*
X261265Y44358D01*
X261439Y44618D01*
X261500Y44925D01*
Y53717D01*
X261439Y54024D01*
X261265Y54285D01*
X261004Y54459D01*
X260697Y54520D01*
X260336D01*
X260124Y55020D01*
X260247Y55146D01*
X263197D01*
Y54385D01*
X266740D01*
Y58716D01*
X263197D01*
Y57956D01*
X261694D01*
X261647Y58063D01*
X261535Y58456D01*
X261572Y58517D01*
X261650Y58634D01*
X261653Y58651D01*
X261663Y58666D01*
X261684Y58804D01*
X261711Y58941D01*
X261711Y89001D01*
X261711Y89002D01*
X261711Y89003D01*
X261680Y89157D01*
X261650Y89308D01*
X261649Y89309D01*
X261649Y89310D01*
X261562Y89440D01*
X261476Y89569D01*
X261475Y89569D01*
X261475Y89570D01*
X261028Y90014D01*
X261027Y90015D01*
X261027Y90016D01*
X260896Y90102D01*
X260767Y90188D01*
X260766Y90188D01*
X260765Y90189D01*
X260613Y90218D01*
X260460Y90248D01*
D02*
G37*
G36*
X35472Y92736D02*
X27421D01*
Y89941D01*
X35472D01*
Y92736D01*
D02*
G37*
G36*
X26831D02*
X18779D01*
Y89941D01*
X26831D01*
Y92736D01*
D02*
G37*
G36*
X78853Y93941D02*
X76248D01*
Y88265D01*
X77483D01*
X78008Y88369D01*
X78452Y88666D01*
X78749Y89111D01*
X78853Y89635D01*
Y93941D01*
D02*
G37*
G36*
X75658D02*
X73053D01*
Y89635D01*
X73157Y89111D01*
X73454Y88666D01*
X73899Y88369D01*
X74423Y88265D01*
X75658D01*
Y93941D01*
D02*
G37*
G36*
X35472Y89350D02*
X27421D01*
Y86555D01*
X35472D01*
Y89350D01*
D02*
G37*
G36*
X26831D02*
X18779D01*
Y86555D01*
X26831D01*
Y89350D01*
D02*
G37*
G36*
X35472Y82736D02*
X27421D01*
Y79941D01*
X35472D01*
Y82736D01*
D02*
G37*
G36*
X26831D02*
X18779D01*
Y79941D01*
X26831D01*
Y82736D01*
D02*
G37*
G36*
X242626Y82240D02*
X239673D01*
Y78893D01*
X242626D01*
Y82240D01*
D02*
G37*
G36*
X198138Y81059D02*
X196169D01*
Y78893D01*
X198138D01*
Y81059D01*
D02*
G37*
G36*
X195579D02*
X193610D01*
Y78893D01*
X195579D01*
Y81059D01*
D02*
G37*
G36*
X179437Y80271D02*
X177469D01*
Y78106D01*
X179437D01*
Y80271D01*
D02*
G37*
G36*
X176878D02*
X174910D01*
Y78106D01*
X176878D01*
Y80271D01*
D02*
G37*
G36*
X163689Y80271D02*
X161721D01*
Y78106D01*
X163689D01*
Y80271D01*
D02*
G37*
G36*
X161130D02*
X159162D01*
Y78106D01*
X161130D01*
Y80271D01*
D02*
G37*
G36*
X78650Y78696D02*
X76484D01*
Y76728D01*
X78650D01*
Y78696D01*
D02*
G37*
G36*
X75894D02*
X73729D01*
Y76728D01*
X75894D01*
Y78696D01*
D02*
G37*
G36*
X35472Y79350D02*
X27421D01*
Y76555D01*
X35472D01*
Y79350D01*
D02*
G37*
G36*
X26831D02*
X18779D01*
Y76555D01*
X26831D01*
Y79350D01*
D02*
G37*
G36*
X187012Y81081D02*
X186229D01*
X185505Y80781D01*
X184951Y80228D01*
X184652Y79504D01*
Y78721D01*
X184951Y77997D01*
X185505Y77444D01*
X186229Y77144D01*
X187012D01*
X187735Y77444D01*
X188189Y77898D01*
X188655Y77766D01*
X188689Y77744D01*
Y76334D01*
X192823D01*
Y80862D01*
X188689D01*
Y80481D01*
X188655Y80459D01*
X188189Y80327D01*
X187735Y80781D01*
X187012Y81081D01*
D02*
G37*
G36*
X198138Y78303D02*
X196169D01*
Y76137D01*
X198138D01*
Y78303D01*
D02*
G37*
G36*
X195579D02*
X193610D01*
Y76137D01*
X195579D01*
Y78303D01*
D02*
G37*
G36*
X92232Y80074D02*
X88099D01*
Y75547D01*
X92232D01*
Y76016D01*
X92732Y76262D01*
X93298Y76028D01*
X94081D01*
X94804Y76327D01*
X95358Y76881D01*
X95658Y77605D01*
Y78388D01*
X95358Y79111D01*
X94804Y79665D01*
X94081Y79965D01*
X93298D01*
X92732Y79730D01*
X92232Y79976D01*
Y80074D01*
D02*
G37*
G36*
X179437Y77515D02*
X177469D01*
Y75350D01*
X179437D01*
Y77515D01*
D02*
G37*
G36*
X176878D02*
X174910D01*
Y75350D01*
X176878D01*
Y77515D01*
D02*
G37*
G36*
X163689Y77515D02*
X161721D01*
Y75350D01*
X163689D01*
Y77515D01*
D02*
G37*
G36*
X161130D02*
X159162D01*
Y75350D01*
X161130D01*
Y77515D01*
D02*
G37*
G36*
X242626Y78303D02*
X239673D01*
Y74956D01*
X242626D01*
Y78303D01*
D02*
G37*
G36*
X78650Y76137D02*
X76484D01*
Y74169D01*
X78650D01*
Y76137D01*
D02*
G37*
G36*
X75894D02*
X73729D01*
Y74169D01*
X75894D01*
Y76137D01*
D02*
G37*
G36*
X198138Y75153D02*
X196169D01*
Y72988D01*
X198138D01*
Y75153D01*
D02*
G37*
G36*
X195579D02*
X193610D01*
Y72988D01*
X195579D01*
Y75153D01*
D02*
G37*
G36*
X92725Y74267D02*
X91051D01*
Y72200D01*
X92725D01*
Y74267D01*
D02*
G37*
G36*
X90461D02*
X88788D01*
Y72200D01*
X90461D01*
Y74267D01*
D02*
G37*
G36*
X152075Y73185D02*
X150106D01*
Y71019D01*
X152075D01*
Y73185D01*
D02*
G37*
G36*
X149516D02*
X147547D01*
Y71019D01*
X149516D01*
Y73185D01*
D02*
G37*
G36*
X198138Y72397D02*
X196169D01*
Y70232D01*
X198138D01*
Y72397D01*
D02*
G37*
G36*
X195579D02*
X193610D01*
Y70232D01*
X195579D01*
Y72397D01*
D02*
G37*
G36*
X152075Y70429D02*
X150106D01*
Y68263D01*
X152075D01*
Y70429D01*
D02*
G37*
G36*
X149516D02*
X147547D01*
Y68263D01*
X149516D01*
Y70429D01*
D02*
G37*
G36*
X192823Y74956D02*
X188689D01*
Y72001D01*
X183996Y67308D01*
X178255D01*
Y68657D01*
X176311D01*
X175893Y68854D01*
Y68854D01*
X175893Y68854D01*
X174908D01*
Y68853D01*
X175275D01*
X175351Y68778D01*
Y63354D01*
X178500D01*
Y55086D01*
X183347D01*
X183347Y55086D01*
Y53585D01*
X178500D01*
X178332Y53416D01*
Y50532D01*
X175403D01*
X175351Y50479D01*
Y45035D01*
X175483D01*
X175493Y45024D01*
X175526Y44938D01*
X175544Y44848D01*
X175580Y44793D01*
X175604Y44731D01*
X175667Y44664D01*
X175718Y44588D01*
X175773Y44551D01*
X175818Y44502D01*
X179441Y41910D01*
X179524Y41872D01*
X179601Y41821D01*
X179666Y41808D01*
X179726Y41781D01*
X179818Y41778D01*
X179908Y41760D01*
X186054D01*
X186524Y41688D01*
X186524Y41260D01*
Y38736D01*
X190165D01*
X193807D01*
X193807Y41688D01*
X194278Y41760D01*
X194321D01*
X194791Y41688D01*
X194791Y41260D01*
Y38736D01*
X198433D01*
X202075D01*
X202075Y41688D01*
X202545Y41760D01*
X202589D01*
X203059Y41688D01*
X203059Y41260D01*
Y38736D01*
X206701D01*
X210343D01*
X210343Y41688D01*
X210813Y41760D01*
X210857D01*
X211327Y41688D01*
X211327Y41260D01*
Y38736D01*
X214969D01*
X218610D01*
X218610Y41688D01*
X219081Y41760D01*
X219124D01*
X219595Y41688D01*
X219595Y41260D01*
Y38736D01*
X223236D01*
X226878D01*
X226878Y41688D01*
X227348Y41760D01*
X232420D01*
Y36785D01*
X232194Y36692D01*
X231529Y36027D01*
X231170Y35159D01*
Y34219D01*
X231529Y33351D01*
X232194Y32686D01*
X232420Y32593D01*
Y30260D01*
X228512D01*
Y26126D01*
X233040D01*
Y26126D01*
X233051Y26126D01*
X233540Y26126D01*
X237766D01*
Y30260D01*
X234644D01*
Y32593D01*
X234870Y32686D01*
X235535Y33351D01*
X235894Y34219D01*
Y35159D01*
X235535Y36027D01*
X234870Y36692D01*
X234644Y36785D01*
Y41760D01*
X237469D01*
X237776Y41821D01*
X238037Y41995D01*
X238211Y42256D01*
X238272Y42563D01*
Y53062D01*
X238211Y53370D01*
X238037Y53630D01*
X237776Y53804D01*
X237469Y53865D01*
X191295D01*
X191206Y54310D01*
X190923Y54733D01*
X187790Y57867D01*
X187753Y57891D01*
X187905Y58391D01*
X189181D01*
X189181Y58391D01*
X189606Y58476D01*
X189967Y58717D01*
X190262Y59011D01*
X192823D01*
Y63539D01*
X188689D01*
Y60615D01*
X185603D01*
X185466Y61115D01*
X185707Y61276D01*
X188829Y64398D01*
X189583D01*
X189583Y64398D01*
X190008Y64483D01*
X190069Y64523D01*
X192823D01*
Y69051D01*
X189537D01*
X189346Y69513D01*
X190262Y70429D01*
X192823D01*
Y74956D01*
D02*
G37*
G36*
X198138Y69248D02*
X196169D01*
Y67082D01*
X198138D01*
Y69248D01*
D02*
G37*
G36*
X195579D02*
X193610D01*
Y67082D01*
X195579D01*
Y69248D01*
D02*
G37*
G36*
X248827Y71216D02*
X246858D01*
X244890D01*
Y69256D01*
X244890Y69149D01*
Y68756D01*
X244890Y68649D01*
Y66689D01*
X246858D01*
X248827D01*
Y68649D01*
X248827Y68756D01*
Y69149D01*
X248827Y69256D01*
Y71216D01*
D02*
G37*
G36*
X198138Y66492D02*
X196169D01*
Y64326D01*
X198138D01*
Y66492D01*
D02*
G37*
G36*
X195579D02*
X193610D01*
Y64326D01*
X195579D01*
Y66492D01*
D02*
G37*
G36*
X152075Y66492D02*
X150106D01*
Y64326D01*
X152075D01*
Y66492D01*
D02*
G37*
G36*
X149516D02*
X147547D01*
Y64326D01*
X149516D01*
Y66492D01*
D02*
G37*
G36*
X248827Y66098D02*
X247154D01*
Y64031D01*
X248827D01*
Y66098D01*
D02*
G37*
G36*
X246563D02*
X244890D01*
Y64031D01*
X246563D01*
Y66098D01*
D02*
G37*
G36*
X130028Y66885D02*
Y63933D01*
X133374D01*
Y66885D01*
X130028D01*
D02*
G37*
G36*
X121957D02*
X118610D01*
Y63933D01*
X121957D01*
Y66885D01*
D02*
G37*
G36*
X114673D02*
Y63933D01*
X118020D01*
Y66885D01*
X114673D01*
D02*
G37*
G36*
X106603D02*
X103256D01*
Y63933D01*
X106603D01*
Y66885D01*
D02*
G37*
G36*
X86681Y81161D02*
X82744D01*
X82437Y81100D01*
X82177Y80926D01*
X82003Y80666D01*
X81942Y80358D01*
Y63666D01*
X81554Y63483D01*
X81469Y63460D01*
X81404D01*
X78464Y66400D01*
Y66421D01*
X78388Y66805D01*
X78369Y66834D01*
Y67564D01*
X78313Y67845D01*
X78154Y68083D01*
X77916Y68241D01*
X77636Y68297D01*
X77193D01*
Y69248D01*
X78453D01*
Y73382D01*
X73925D01*
Y69248D01*
X75186D01*
Y68297D01*
X74742D01*
X74462Y68241D01*
X74224Y68083D01*
X74065Y67845D01*
X74010Y67564D01*
Y66246D01*
X74065Y65965D01*
X74224Y65728D01*
X74462Y65569D01*
X74742Y65513D01*
X76592D01*
X76751Y65274D01*
X80279Y61747D01*
X80604Y61529D01*
X80988Y61453D01*
X81590D01*
X81912Y60953D01*
X81879Y60784D01*
Y60783D01*
X82488D01*
Y60882D01*
Y60960D01*
X82548Y61105D01*
X82659Y61215D01*
X82804Y61275D01*
X82882D01*
X82882Y61275D01*
X86366Y61275D01*
X86397Y61278D01*
X86454Y61302D01*
X86467Y61315D01*
X86348Y61493D01*
X86380Y61853D01*
X86441Y62160D01*
Y62626D01*
X86681D01*
X86989Y62687D01*
X87249Y62862D01*
X87347Y63008D01*
X87847Y62885D01*
Y62393D01*
X87908Y62086D01*
X88082Y61825D01*
X88343Y61651D01*
X88650Y61590D01*
X98459Y61590D01*
X99831D01*
X99934Y61611D01*
X100039Y61617D01*
X100086Y61641D01*
X100138Y61651D01*
X100163Y61668D01*
X100404Y61716D01*
X100670Y61893D01*
X100847Y62159D01*
X100848Y62161D01*
X100886Y62191D01*
X100905Y62211D01*
X100929Y62225D01*
X101007Y62328D01*
X101093Y62426D01*
X101102Y62452D01*
X101119Y62474D01*
X101182Y62603D01*
X101188Y62628D01*
X101203Y62649D01*
X101228Y62778D01*
X101262Y62905D01*
X101259Y62931D01*
X101264Y62956D01*
Y68547D01*
X101203Y68854D01*
X101029Y69115D01*
X100768Y69289D01*
X100461Y69350D01*
X93145D01*
X92725Y69543D01*
X92725Y69850D01*
Y71610D01*
X90756D01*
X88788D01*
Y69708D01*
X88788Y69543D01*
X88745Y69060D01*
X88737Y69055D01*
X88406Y68710D01*
X88099Y68771D01*
X87507D01*
X87484Y68790D01*
Y80358D01*
X87423Y80666D01*
X87249Y80926D01*
X86989Y81100D01*
X86681Y81161D01*
D02*
G37*
G36*
X29255Y69007D02*
X28020D01*
Y63331D01*
X30625D01*
Y67636D01*
X30521Y68161D01*
X30224Y68605D01*
X29779Y68902D01*
X29255Y69007D01*
D02*
G37*
G36*
X27430D02*
X26195D01*
X25670Y68902D01*
X25226Y68605D01*
X24929Y68161D01*
X24824Y67636D01*
Y63331D01*
X27430D01*
Y69007D01*
D02*
G37*
G36*
X57798Y69007D02*
X56563D01*
Y63331D01*
X59168D01*
Y67636D01*
X59064Y68161D01*
X58767Y68605D01*
X58322Y68902D01*
X57798Y69007D01*
D02*
G37*
G36*
X55973D02*
X54738D01*
X54214Y68902D01*
X53769Y68605D01*
X53472Y68161D01*
X53368Y67636D01*
Y63331D01*
X55973D01*
Y69007D01*
D02*
G37*
G36*
X152075Y63736D02*
X150106D01*
Y61570D01*
X152075D01*
Y63736D01*
D02*
G37*
G36*
X149516D02*
X147547D01*
Y61570D01*
X149516D01*
Y63736D01*
D02*
G37*
G36*
X198138D02*
X196169D01*
Y61570D01*
X198138D01*
Y63736D01*
D02*
G37*
G36*
X195579D02*
X193610D01*
Y61570D01*
X195579D01*
Y63736D01*
D02*
G37*
G36*
X246662Y62078D02*
X245189D01*
X244880Y62017D01*
X244619Y61842D01*
X244444Y61580D01*
X244382Y61271D01*
Y60586D01*
X246662D01*
Y62078D01*
D02*
G37*
G36*
X133374Y63342D02*
X130028D01*
Y60389D01*
X133374D01*
Y63342D01*
D02*
G37*
G36*
X118020D02*
X114673D01*
Y60389D01*
X118020D01*
Y63342D01*
D02*
G37*
G36*
X121957D02*
X118610D01*
Y60389D01*
X121957D01*
Y63342D01*
D02*
G37*
G36*
X106603D02*
X103256D01*
Y60389D01*
X106603D01*
Y63342D01*
D02*
G37*
G36*
X126091Y66885D02*
X125591Y66885D01*
X122547D01*
Y63637D01*
Y60389D01*
X125591D01*
X125894Y60389D01*
X126394Y60389D01*
X129437D01*
Y63637D01*
Y66885D01*
X126394D01*
X126091Y66885D01*
D02*
G37*
G36*
X110736D02*
X110236Y66885D01*
X107193D01*
Y63637D01*
Y60389D01*
X110236D01*
X110539Y60389D01*
X111039Y60389D01*
X114083D01*
Y63637D01*
Y66885D01*
X111039D01*
X110736Y66885D01*
D02*
G37*
G36*
X198138Y60980D02*
X196169D01*
Y58815D01*
X198138D01*
Y60980D01*
D02*
G37*
G36*
X195579D02*
X193610D01*
Y58815D01*
X195579D01*
Y60980D01*
D02*
G37*
G36*
X272449Y58913D02*
X270776D01*
Y56846D01*
X272449D01*
Y58913D01*
D02*
G37*
G36*
X270185D02*
X268512D01*
Y56846D01*
X270185D01*
Y58913D01*
D02*
G37*
G36*
X272449Y56255D02*
X270776D01*
Y54189D01*
X272449D01*
Y56255D01*
D02*
G37*
G36*
X270185D02*
X268512D01*
Y54189D01*
X270185D01*
Y56255D01*
D02*
G37*
G36*
X152764Y56157D02*
X151091D01*
Y54090D01*
X152764D01*
Y56157D01*
D02*
G37*
G36*
X150500D02*
X148827D01*
Y54090D01*
X150500D01*
Y56157D01*
D02*
G37*
G36*
X30625Y62740D02*
X27725D01*
X24824D01*
Y58435D01*
X24929Y57910D01*
X25056Y57721D01*
X24929Y57531D01*
X24824Y57006D01*
Y52701D01*
X27725D01*
X30625D01*
Y57006D01*
X30521Y57531D01*
X30394Y57721D01*
X30521Y57910D01*
X30625Y58435D01*
Y62740D01*
D02*
G37*
G36*
X59168Y62740D02*
X53368D01*
Y58435D01*
X53472Y57910D01*
X53599Y57721D01*
X53472Y57531D01*
X53368Y57006D01*
Y52701D01*
X59168D01*
Y57006D01*
X59064Y57531D01*
X58937Y57721D01*
X59064Y57910D01*
X59168Y58435D01*
Y62740D01*
D02*
G37*
G36*
X78650Y53893D02*
X76484D01*
Y51925D01*
X78650D01*
Y53893D01*
D02*
G37*
G36*
X75894D02*
X73729D01*
Y51925D01*
X75894D01*
Y53893D01*
D02*
G37*
G36*
Y51334D02*
X73729D01*
Y49366D01*
X75894D01*
Y51334D01*
D02*
G37*
G36*
X97843Y49169D02*
X96169D01*
Y47102D01*
X97843D01*
Y49169D01*
D02*
G37*
G36*
X30625Y52110D02*
X27725D01*
X24824D01*
Y47805D01*
X24929Y47280D01*
X25056Y47091D01*
X24929Y46901D01*
X24824Y46376D01*
Y42071D01*
X27725D01*
X30625D01*
Y46376D01*
X30521Y46901D01*
X30394Y47091D01*
X30521Y47280D01*
X30625Y47805D01*
Y52110D01*
D02*
G37*
G36*
X59168Y52110D02*
X53368D01*
Y47805D01*
X53472Y47280D01*
X53599Y47091D01*
X53472Y46901D01*
X53368Y46376D01*
Y42071D01*
X59168D01*
Y46376D01*
X59064Y46901D01*
X58937Y47091D01*
X59064Y47280D01*
X59168Y47805D01*
Y52110D01*
D02*
G37*
G36*
X102817Y47168D02*
X101583D01*
Y41492D01*
X104188D01*
Y45797D01*
X104084Y46322D01*
X103787Y46766D01*
X103342Y47063D01*
X102817Y47168D01*
D02*
G37*
G36*
X100992D02*
X99758D01*
X99233Y47063D01*
X98789Y46766D01*
X98492Y46322D01*
X98387Y45797D01*
Y41492D01*
X100992D01*
Y47168D01*
D02*
G37*
G36*
X261032Y41688D02*
X258965D01*
Y40015D01*
X261032D01*
Y41688D01*
D02*
G37*
G36*
X253256D02*
X251189D01*
Y40015D01*
X253256D01*
Y41688D01*
D02*
G37*
G36*
X77854Y37500D02*
X75886D01*
Y35335D01*
X77854D01*
Y37500D01*
D02*
G37*
G36*
X75295D02*
X73327D01*
Y35335D01*
X75295D01*
Y37500D01*
D02*
G37*
G36*
X226878Y38145D02*
X223532D01*
Y35192D01*
X226878D01*
Y38145D01*
D02*
G37*
G36*
X222941D02*
X219595D01*
Y35192D01*
X222941D01*
Y38145D01*
D02*
G37*
G36*
X218610D02*
X215264D01*
Y35192D01*
X218610D01*
Y38145D01*
D02*
G37*
G36*
X214673D02*
X211327D01*
Y35192D01*
X214673D01*
Y38145D01*
D02*
G37*
G36*
X210343D02*
X206996D01*
Y35192D01*
X210343D01*
Y38145D01*
D02*
G37*
G36*
X206406D02*
X203059D01*
Y35192D01*
X206406D01*
Y38145D01*
D02*
G37*
G36*
X202075D02*
X198729D01*
Y35192D01*
X202075D01*
Y38145D01*
D02*
G37*
G36*
X198138D02*
X194791D01*
Y35192D01*
X198138D01*
Y38145D01*
D02*
G37*
G36*
X193807D02*
X190461D01*
Y35192D01*
X193807D01*
Y38145D01*
D02*
G37*
G36*
X189870D02*
X186524D01*
Y35192D01*
X189870D01*
Y38145D01*
D02*
G37*
G36*
X157339Y35783D02*
X153992D01*
Y32830D01*
X157339D01*
Y35783D01*
D02*
G37*
G36*
X153402D02*
X150056D01*
Y32830D01*
X153402D01*
Y35783D01*
D02*
G37*
G36*
X149319D02*
X145973D01*
Y32830D01*
X149319D01*
Y35783D01*
D02*
G37*
G36*
X145382D02*
X142036D01*
Y32830D01*
X145382D01*
Y35783D01*
D02*
G37*
G36*
X77854Y34744D02*
X75886D01*
Y32579D01*
X77854D01*
Y34744D01*
D02*
G37*
G36*
X75295D02*
X73327D01*
Y32579D01*
X75295D01*
Y34744D01*
D02*
G37*
G36*
X30625Y41480D02*
X27725D01*
X24824D01*
Y37175D01*
X24929Y36650D01*
X25220Y36215D01*
X24929Y35779D01*
X24824Y35254D01*
Y30949D01*
X27725D01*
X30625D01*
Y35254D01*
X30521Y35779D01*
X30230Y36215D01*
X30521Y36650D01*
X30625Y37175D01*
Y41480D01*
D02*
G37*
G36*
X59168Y41480D02*
X53368D01*
Y37175D01*
X53472Y36650D01*
X53763Y36215D01*
X53472Y35779D01*
X53368Y35254D01*
Y30949D01*
X59168D01*
Y35254D01*
X59064Y35779D01*
X58773Y36215D01*
X59064Y36650D01*
X59168Y37175D01*
Y41480D01*
D02*
G37*
G36*
X104188Y40901D02*
X98387D01*
Y36596D01*
X98492Y36071D01*
X98766Y35660D01*
X98492Y35249D01*
X98387Y34724D01*
Y30419D01*
X104188D01*
Y34724D01*
X104084Y35249D01*
X103809Y35660D01*
X104084Y36071D01*
X104188Y36596D01*
Y40901D01*
D02*
G37*
G36*
X30625Y30358D02*
X28020D01*
Y24682D01*
X29255D01*
X29779Y24787D01*
X30224Y25084D01*
X30521Y25528D01*
X30625Y26053D01*
Y30358D01*
D02*
G37*
G36*
X27430D02*
X24824D01*
Y26053D01*
X24929Y25528D01*
X25226Y25084D01*
X25670Y24787D01*
X26195Y24682D01*
X27430D01*
Y30358D01*
D02*
G37*
G36*
X158138Y28784D02*
X154693D01*
Y23173D01*
X158138D01*
Y28784D01*
D02*
G37*
G36*
X154103D02*
X150658D01*
Y23173D01*
X154103D01*
Y28784D01*
D02*
G37*
G36*
X104188Y29828D02*
X98387D01*
Y25523D01*
X98492Y24998D01*
X98766Y24587D01*
X98492Y24176D01*
X98387Y23652D01*
Y19346D01*
X104188D01*
Y23652D01*
X104084Y24176D01*
X103809Y24587D01*
X104084Y24998D01*
X104188Y25523D01*
Y29828D01*
D02*
G37*
G36*
X158138Y22583D02*
X154693D01*
Y16973D01*
X158138D01*
Y22583D01*
D02*
G37*
G36*
X154103D02*
X150658D01*
Y16973D01*
X154103D01*
Y22583D01*
D02*
G37*
G36*
X68965Y111082D02*
X61091D01*
X60784Y111021D01*
X60523Y110847D01*
X60349Y110587D01*
X60288Y110280D01*
Y97620D01*
X56034Y93366D01*
X43374Y93366D01*
X43067Y93305D01*
X42807Y93131D01*
X36507Y86831D01*
X36334Y86571D01*
X36272Y86264D01*
Y24204D01*
X36334Y23897D01*
X36507Y23637D01*
X36768Y23462D01*
X37075Y23401D01*
X38172Y23401D01*
X41160Y20414D01*
X40901Y19966D01*
X40082Y20185D01*
X39029D01*
X38012Y19913D01*
X37099Y19386D01*
X37005Y19292D01*
X37807Y18490D01*
X37250Y17934D01*
X36449Y18735D01*
X36355Y18641D01*
X35828Y17729D01*
X35555Y16712D01*
Y15658D01*
X35828Y14641D01*
X36355Y13729D01*
X36449Y13635D01*
X37250Y14436D01*
X37807Y13880D01*
X37005Y13078D01*
X37099Y12984D01*
X38012Y12458D01*
X39029Y12185D01*
X40082D01*
X41099Y12458D01*
X42011Y12984D01*
X42465Y13438D01*
X42965Y13231D01*
Y3980D01*
X43026Y3673D01*
X43200Y3413D01*
X43461Y3239D01*
X43768Y3178D01*
X48493D01*
X48800Y3239D01*
X49060Y3413D01*
X49234Y3673D01*
X49295Y3980D01*
Y8508D01*
X63568D01*
X63945Y8213D01*
X63945Y8008D01*
Y6864D01*
X62961D01*
Y7819D01*
X58433D01*
Y3685D01*
X62961D01*
Y4640D01*
X63945D01*
Y3685D01*
X68079D01*
Y8008D01*
X68079Y8213D01*
X68457Y8508D01*
X68686D01*
X69063Y8213D01*
X69063Y8008D01*
Y3685D01*
X73197D01*
Y4837D01*
X74477D01*
Y3980D01*
X78414D01*
Y7917D01*
X74477D01*
Y7061D01*
X73197D01*
Y8060D01*
X73197Y8213D01*
X73238Y8353D01*
X73543Y8750D01*
X73851Y8689D01*
X93374D01*
X93682Y8750D01*
X93942Y8924D01*
X94116Y9185D01*
X94177Y9492D01*
Y47102D01*
X95579D01*
Y49464D01*
X95874D01*
Y49759D01*
X97843D01*
Y51603D01*
X120524D01*
Y43744D01*
X120585Y43437D01*
X120748Y43043D01*
X120923Y42783D01*
X121183Y42609D01*
X121490Y42548D01*
X123387D01*
X123570Y42048D01*
X119267Y37745D01*
X119041Y37839D01*
X118101D01*
X117233Y37479D01*
X116569Y36814D01*
X116209Y35946D01*
Y35007D01*
X116569Y34138D01*
X117233Y33474D01*
X117459Y33380D01*
Y30358D01*
X117459Y30358D01*
X117544Y29933D01*
X117785Y29572D01*
X117882Y29475D01*
Y26913D01*
X122108D01*
X122410Y26913D01*
Y26913D01*
X122608Y26914D01*
Y26914D01*
X127136D01*
Y31048D01*
X122910D01*
X122608Y31048D01*
Y31048D01*
X122410Y31047D01*
Y31047D01*
X119683D01*
Y33380D01*
X119909Y33474D01*
X120574Y34138D01*
X120933Y35007D01*
Y35946D01*
X120840Y36173D01*
X125597Y40930D01*
X125597Y40930D01*
X125838Y41291D01*
X125923Y41716D01*
Y42548D01*
X129186D01*
Y40201D01*
X129247Y39894D01*
X129421Y39633D01*
X129681Y39459D01*
X129989Y39398D01*
X141565D01*
X142036Y39326D01*
X142036Y38898D01*
Y36374D01*
X145677D01*
X149319D01*
X149319Y39014D01*
X149687Y39232D01*
X150056Y39014D01*
Y36374D01*
X153697D01*
X157339D01*
X157339Y39326D01*
X157809Y39398D01*
X161469D01*
Y17366D01*
X161530Y17059D01*
X161704Y16799D01*
X161965Y16624D01*
X162272Y16563D01*
X169359D01*
X169666Y16624D01*
X169926Y16799D01*
X170100Y17059D01*
X170161Y17366D01*
Y39614D01*
X170159Y39623D01*
X170161Y39633D01*
X170129Y39777D01*
X170100Y39921D01*
X170095Y39929D01*
X170093Y39939D01*
X170008Y40059D01*
X169926Y40181D01*
X169918Y40187D01*
X169912Y40195D01*
X169391Y40691D01*
X169333Y40728D01*
X169284Y40777D01*
X169202Y40811D01*
X169127Y40859D01*
X169058Y40871D01*
X168994Y40897D01*
X168851Y40926D01*
Y40926D01*
X168838Y40913D01*
Y40992D01*
Y44138D01*
D01*
X168777Y44445D01*
X168717Y44535D01*
X168838Y44804D01*
Y50479D01*
X165630D01*
X165630Y50479D01*
Y63354D01*
X173898D01*
X173896Y63356D01*
Y68853D01*
X174318D01*
Y68854D01*
X173896D01*
X173736Y69354D01*
X174177Y69794D01*
X174477Y70518D01*
Y71301D01*
X174177Y72025D01*
X173623Y72578D01*
X172900Y72878D01*
X172117D01*
X171393Y72578D01*
X171107Y72292D01*
X170607Y72499D01*
Y74593D01*
X171561Y75547D01*
X174122D01*
Y80074D01*
X169988D01*
Y77119D01*
X169110Y76241D01*
X168610Y76449D01*
Y80074D01*
X164477D01*
Y75547D01*
X165432D01*
Y67967D01*
X165431Y67967D01*
X165516Y67541D01*
X165757Y67180D01*
X165824Y67113D01*
Y66196D01*
X165853Y66049D01*
Y63932D01*
X165066D01*
Y63145D01*
X163914D01*
X163914Y65410D01*
X163914Y65410D01*
X163829Y65836D01*
X163588Y66197D01*
X163588Y66197D01*
X158649Y71136D01*
X158288Y71377D01*
X157862Y71462D01*
X157862Y71462D01*
X156996D01*
Y72988D01*
X152862D01*
Y68460D01*
X156996D01*
Y69010D01*
X157496Y69144D01*
X161690Y64950D01*
X161690Y63145D01*
X160342D01*
Y60980D01*
X159914Y60804D01*
X159519D01*
X156996Y63327D01*
Y66295D01*
X152862D01*
Y61767D01*
X155411D01*
X156191Y60988D01*
X155983Y60488D01*
X155522D01*
X154798Y60188D01*
X154245Y59634D01*
X153945Y58911D01*
Y58128D01*
X154245Y57404D01*
X154798Y56850D01*
X155522Y56551D01*
X156305D01*
X156380Y56460D01*
X156146Y55960D01*
X154536D01*
Y51710D01*
X152764D01*
Y53500D01*
X150795D01*
X148827D01*
Y51710D01*
X130004D01*
Y52390D01*
X138256D01*
X138564Y52451D01*
X138824Y52625D01*
X138998Y52886D01*
X139059Y53193D01*
Y58870D01*
X138998Y59177D01*
X138824Y59438D01*
X138564Y59612D01*
X138256Y59673D01*
X100886D01*
X100808Y59658D01*
X100729D01*
X100656Y59627D01*
X100579Y59612D01*
X100513Y59568D01*
X100440Y59538D01*
X100385Y59501D01*
X100329Y59445D01*
X100185Y59386D01*
X92886D01*
X92803Y59369D01*
X92718Y59368D01*
X92651Y59339D01*
X92579Y59324D01*
X92576Y59322D01*
X92445D01*
X92132Y59260D01*
X91866Y59083D01*
X91689Y58817D01*
X91668Y58712D01*
X91626Y58720D01*
X89108D01*
X88970Y58693D01*
X88831Y58671D01*
X88817Y58662D01*
X88801Y58659D01*
X88684Y58581D01*
X88564Y58508D01*
X88554Y58494D01*
X88540Y58485D01*
X88462Y58368D01*
X88379Y58254D01*
X88141Y57739D01*
X88099Y57747D01*
X87507D01*
X87200Y57686D01*
X86940Y57512D01*
X86766Y57252D01*
X86705Y56946D01*
Y55045D01*
X86691Y54976D01*
Y53859D01*
X86446Y53665D01*
X85951Y53886D01*
Y56946D01*
X85945Y56972D01*
X85946Y57482D01*
X86206Y57656D01*
X86380Y57916D01*
X86441Y58223D01*
Y58816D01*
X86380Y59122D01*
X86348Y59483D01*
X86467Y59661D01*
X86454Y59674D01*
X86397Y59697D01*
X86366Y59700D01*
X86366Y59700D01*
X82882Y59700D01*
X82804D01*
X82659Y59760D01*
X82548Y59871D01*
X82488Y60016D01*
Y60094D01*
X82488D01*
Y60193D01*
X81879D01*
Y60192D01*
X81955Y59808D01*
X82172Y59483D01*
X82140Y59122D01*
X82089Y58866D01*
X80974Y57751D01*
X78453D01*
Y58815D01*
X73925D01*
Y58416D01*
X73425Y58209D01*
X73230Y58405D01*
X72506Y58705D01*
X72469D01*
X72369Y59205D01*
X72836Y59398D01*
X73390Y59952D01*
X73410Y60000D01*
X74211D01*
X74224Y59980D01*
X74462Y59821D01*
X74742Y59765D01*
X77636D01*
X77916Y59821D01*
X78154Y59980D01*
X78313Y60217D01*
X78369Y60498D01*
Y61817D01*
X78313Y62097D01*
X78154Y62335D01*
X77916Y62493D01*
X77636Y62549D01*
X74742D01*
X74462Y62493D01*
X74224Y62335D01*
X74150Y62224D01*
X73348D01*
X72836Y62736D01*
X72112Y63036D01*
X71329D01*
X70606Y62736D01*
X70052Y62182D01*
X69752Y61459D01*
Y60675D01*
X70052Y59952D01*
X70606Y59398D01*
X71329Y59099D01*
X71367D01*
X71466Y58599D01*
X70999Y58405D01*
X70446Y57851D01*
X70146Y57128D01*
Y56345D01*
X70446Y55621D01*
X70999Y55067D01*
X71723Y54768D01*
X72506D01*
X73230Y55067D01*
X73425Y55263D01*
X73925Y55056D01*
Y54681D01*
X78453D01*
Y55744D01*
X81390D01*
X81774Y55821D01*
X82100Y56038D01*
X82762Y56701D01*
X83262Y56494D01*
Y53977D01*
X83147Y53900D01*
X83147Y53900D01*
X79112Y49865D01*
X78650Y50056D01*
Y51334D01*
X76484D01*
Y49366D01*
X77433D01*
X77700Y48866D01*
X77654Y48797D01*
X77362D01*
X77362Y48797D01*
X76937Y48712D01*
X76737Y48578D01*
X73925D01*
Y46825D01*
X71455D01*
X71361Y47051D01*
X70697Y47715D01*
X69828Y48075D01*
X68889D01*
X68021Y47715D01*
X67356Y47051D01*
X66996Y46183D01*
Y45243D01*
X67356Y44375D01*
X68021Y43710D01*
X68889Y43350D01*
X69828D01*
X70697Y43710D01*
X71361Y44375D01*
X71455Y44601D01*
X73925D01*
Y44445D01*
X78453D01*
Y46092D01*
X78504Y46573D01*
X78929Y46657D01*
X79290Y46898D01*
X83064Y50672D01*
X83180Y50658D01*
X83601Y50212D01*
X83601Y50212D01*
Y41863D01*
X83138Y41774D01*
X82838Y42497D01*
X82285Y43051D01*
X81561Y43350D01*
X80778D01*
X80055Y43051D01*
X79501Y42497D01*
X79500Y42494D01*
X78453D01*
Y43460D01*
X73925D01*
Y39326D01*
X78453D01*
Y40270D01*
X79500D01*
X79501Y40267D01*
X80055Y39713D01*
X80778Y39413D01*
X81561D01*
X82285Y39713D01*
X82838Y40267D01*
X83138Y40990D01*
X83601Y40901D01*
Y38370D01*
X82534Y37303D01*
X78642D01*
Y32776D01*
X80392D01*
Y31255D01*
X79437D01*
Y27122D01*
X79058Y26831D01*
X73851D01*
X73543Y26769D01*
X73283Y26595D01*
X73109Y26335D01*
X73048Y26028D01*
Y25585D01*
X72886Y25453D01*
X59559D01*
X59149Y25953D01*
X59168Y26053D01*
Y30358D01*
X53368D01*
Y26053D01*
X53388Y25953D01*
X52977Y25453D01*
X52171D01*
X48902Y28722D01*
Y69516D01*
X59854D01*
X59858Y69517D01*
X59861Y69516D01*
X60011Y69547D01*
X60161Y69577D01*
X60164Y69579D01*
X60168Y69580D01*
X60294Y69666D01*
X60422Y69751D01*
X60424Y69754D01*
X60427Y69757D01*
X60868Y70206D01*
X60870Y70209D01*
X60873Y70211D01*
X60956Y70340D01*
X61040Y70468D01*
X61040Y70472D01*
X61042Y70475D01*
X61070Y70625D01*
X61098Y70776D01*
X61097Y70780D01*
X61098Y70783D01*
X60825Y85546D01*
X61921Y86642D01*
X68965D01*
X69272Y86703D01*
X69533Y86877D01*
X69707Y87138D01*
X69768Y87445D01*
Y110280D01*
X69707Y110587D01*
X69533Y110847D01*
X69272Y111021D01*
X68965Y111082D01*
D02*
G37*
G36*
X122608Y25929D02*
X122410Y25929D01*
X122410Y25929D01*
X117882D01*
Y21795D01*
X121772D01*
Y18362D01*
X120915D01*
Y14425D01*
X124852D01*
Y18362D01*
X123996D01*
Y21796D01*
X127136D01*
Y25929D01*
X122895D01*
X122608Y25929D01*
D02*
G37*
G36*
X233238Y25142D02*
X233040Y25142D01*
X233040Y25142D01*
X228512D01*
Y21008D01*
X232301D01*
Y18154D01*
X231445D01*
Y14217D01*
X235382D01*
Y18154D01*
X234525D01*
Y21008D01*
X237766D01*
Y25142D01*
X233525D01*
X233238Y25142D01*
D02*
G37*
G36*
X104188Y18756D02*
X101583D01*
Y13080D01*
X102817D01*
X103342Y13184D01*
X103787Y13481D01*
X104084Y13926D01*
X104188Y14450D01*
Y18756D01*
D02*
G37*
G36*
X100992D02*
X98387D01*
Y14450D01*
X98492Y13926D01*
X98789Y13481D01*
X99233Y13184D01*
X99758Y13080D01*
X100992D01*
Y18756D01*
D02*
G37*
G36*
X409133Y27037D02*
X407718D01*
X406329Y26761D01*
X405022Y26220D01*
X403845Y25433D01*
X402844Y24433D01*
X402058Y23256D01*
X401516Y21948D01*
X401240Y20560D01*
Y19145D01*
X401516Y17757D01*
X402058Y16449D01*
X402844Y15272D01*
X403845Y14271D01*
X405022Y13485D01*
X406329Y12943D01*
X407718Y12667D01*
X409133D01*
X410521Y12943D01*
X411829Y13485D01*
X413005Y14271D01*
X414006Y15272D01*
X414792Y16449D01*
X415334Y17757D01*
X415610Y19145D01*
Y20560D01*
X415334Y21948D01*
X414792Y23256D01*
X414006Y24433D01*
X413005Y25433D01*
X411829Y26220D01*
X410521Y26761D01*
X409133Y27037D01*
D02*
G37*
G36*
X364133D02*
X362718D01*
X361329Y26761D01*
X360022Y26220D01*
X358845Y25433D01*
X357844Y24433D01*
X357058Y23256D01*
X356516Y21948D01*
X356240Y20560D01*
Y19145D01*
X356516Y17757D01*
X357058Y16449D01*
X357844Y15272D01*
X358845Y14271D01*
X360022Y13485D01*
X361329Y12943D01*
X362718Y12667D01*
X364133D01*
X365521Y12943D01*
X366829Y13485D01*
X368005Y14271D01*
X369006Y15272D01*
X369793Y16449D01*
X370334Y17757D01*
X370610Y19145D01*
Y20560D01*
X370334Y21948D01*
X369793Y23256D01*
X369006Y24433D01*
X368005Y25433D01*
X366829Y26220D01*
X365521Y26761D01*
X364133Y27037D01*
D02*
G37*
G36*
X417066Y13598D02*
X415611D01*
X414205Y13222D01*
X412945Y12494D01*
X412708Y12258D01*
X413504Y11463D01*
X412947Y10906D01*
X412152Y11701D01*
X411915Y11465D01*
X411188Y10204D01*
X410811Y8799D01*
Y7343D01*
X411188Y5937D01*
X411915Y4677D01*
X412152Y4441D01*
X412947Y5236D01*
X413504Y4679D01*
X412708Y3884D01*
X412945Y3648D01*
X414205Y2920D01*
X415611Y2543D01*
X417066D01*
X418472Y2920D01*
X419733Y3648D01*
X419969Y3884D01*
X419174Y4679D01*
X419730Y5236D01*
X420526Y4441D01*
X420762Y4677D01*
X421489Y5937D01*
X421866Y7343D01*
Y8799D01*
X421489Y10204D01*
X420762Y11465D01*
X420526Y11701D01*
X419730Y10906D01*
X419174Y11463D01*
X419969Y12258D01*
X419733Y12494D01*
X418472Y13222D01*
X417066Y13598D01*
D02*
G37*
G36*
X356141D02*
X354686D01*
X353280Y13222D01*
X352019Y12494D01*
X351783Y12258D01*
X352578Y11463D01*
X352022Y10906D01*
X351226Y11701D01*
X350990Y11465D01*
X350262Y10204D01*
X349886Y8799D01*
Y7343D01*
X350262Y5937D01*
X350990Y4677D01*
X351226Y4441D01*
X352022Y5236D01*
X352578Y4679D01*
X351783Y3884D01*
X352019Y3648D01*
X353280Y2920D01*
X354686Y2543D01*
X356141D01*
X357547Y2920D01*
X358807Y3648D01*
X359044Y3884D01*
X358248Y4679D01*
X358805Y5236D01*
X359600Y4441D01*
X359837Y4677D01*
X360564Y5937D01*
X360941Y7343D01*
Y8799D01*
X360564Y10204D01*
X359837Y11465D01*
X359600Y11701D01*
X358805Y10906D01*
X358248Y11463D01*
X359044Y12258D01*
X358807Y12494D01*
X357547Y13222D01*
X356141Y13598D01*
D02*
G37*
G36*
X129676Y13047D02*
X129634D01*
Y10783D01*
X131898D01*
Y10825D01*
X131723Y11475D01*
X131386Y12059D01*
X130910Y12536D01*
X130326Y12872D01*
X129676Y13047D01*
D02*
G37*
G36*
X129043D02*
X129002D01*
X128351Y12872D01*
X127768Y12536D01*
X127291Y12059D01*
X126954Y11475D01*
X126780Y10825D01*
Y10783D01*
X129043D01*
Y13047D01*
D02*
G37*
G36*
X125049Y12259D02*
X123179D01*
Y10389D01*
X125049D01*
Y12259D01*
D02*
G37*
G36*
X122588D02*
X120718D01*
Y10389D01*
X122588D01*
Y12259D01*
D02*
G37*
G36*
X235579Y12051D02*
X233709D01*
Y10181D01*
X235579D01*
Y12051D01*
D02*
G37*
G36*
X233118D02*
X231248D01*
Y10181D01*
X233118D01*
Y12051D01*
D02*
G37*
G36*
X131898Y10193D02*
X129634D01*
Y7929D01*
X129676D01*
X130326Y8103D01*
X130910Y8440D01*
X131386Y8917D01*
X131723Y9500D01*
X131898Y10151D01*
Y10193D01*
D02*
G37*
G36*
X129043D02*
X126780D01*
Y10151D01*
X126954Y9500D01*
X127291Y8917D01*
X127768Y8440D01*
X128351Y8103D01*
X129002Y7929D01*
X129043D01*
Y10193D01*
D02*
G37*
G36*
X125049Y9799D02*
X123179D01*
Y7929D01*
X125049D01*
Y9799D01*
D02*
G37*
G36*
X122588D02*
X120718D01*
Y7929D01*
X122588D01*
Y9799D01*
D02*
G37*
G36*
X235579Y9591D02*
X233709D01*
Y7721D01*
X235579D01*
Y9591D01*
D02*
G37*
G36*
X233118D02*
X231248D01*
Y7721D01*
X233118D01*
Y9591D01*
D02*
G37*
G36*
X42126Y8661D02*
X40453D01*
Y6594D01*
X42126D01*
Y8661D01*
D02*
G37*
G36*
X39862D02*
X38189D01*
Y6594D01*
X39862D01*
Y8661D01*
D02*
G37*
G36*
X616879Y21260D02*
X615405D01*
X613960Y20972D01*
X612599Y20409D01*
X611373Y19590D01*
X610331Y18548D01*
X609513Y17323D01*
X608949Y15961D01*
X608661Y14516D01*
Y13043D01*
X608949Y11598D01*
X609513Y10236D01*
X610331Y9011D01*
X611373Y7969D01*
X612599Y7151D01*
X613960Y6587D01*
X615405Y6299D01*
X616879D01*
X618324Y6587D01*
X619685Y7151D01*
X620910Y7969D01*
X621952Y9011D01*
X622771Y10236D01*
X623335Y11598D01*
X623622Y13043D01*
Y14516D01*
X623335Y15961D01*
X622771Y17323D01*
X621952Y18548D01*
X620910Y19590D01*
X619685Y20409D01*
X618324Y20972D01*
X616879Y21260D01*
D02*
G37*
G36*
X14516D02*
X13043D01*
X11598Y20972D01*
X10236Y20409D01*
X9011Y19590D01*
X7969Y18548D01*
X7151Y17323D01*
X6587Y15961D01*
X6299Y14516D01*
Y13043D01*
X6587Y11598D01*
X7151Y10236D01*
X7969Y9011D01*
X9011Y7969D01*
X10236Y7151D01*
X11598Y6587D01*
X13043Y6299D01*
X14516D01*
X15961Y6587D01*
X17323Y7151D01*
X18548Y7969D01*
X19590Y9011D01*
X20409Y10236D01*
X20972Y11598D01*
X21260Y13043D01*
Y14516D01*
X20972Y15961D01*
X20409Y17323D01*
X19590Y18548D01*
X18548Y19590D01*
X17323Y20409D01*
X15961Y20972D01*
X14516Y21260D01*
D02*
G37*
G36*
X84910Y8114D02*
X83040D01*
Y6244D01*
X84910D01*
Y8114D01*
D02*
G37*
G36*
X82449D02*
X80579D01*
Y6244D01*
X82449D01*
Y8114D01*
D02*
G37*
G36*
X42126Y6004D02*
X40453D01*
Y3937D01*
X42126D01*
Y6004D01*
D02*
G37*
G36*
X39862D02*
X38189D01*
Y3937D01*
X39862D01*
Y6004D01*
D02*
G37*
G36*
X84910Y5654D02*
X83040D01*
Y3783D01*
X84910D01*
Y5654D01*
D02*
G37*
G36*
X82449D02*
X80579D01*
Y3783D01*
X82449D01*
Y5654D01*
D02*
G37*
%LPD*%
G36*
X260908Y89001D02*
X260908Y58941D01*
X260330Y58311D01*
X250461D01*
Y73814D01*
X249728Y74547D01*
X247138D01*
X247138Y89375D01*
X260462Y89445D01*
X260908Y89001D01*
D02*
G37*
G36*
X260697Y44925D02*
X239831D01*
Y53717D01*
X260697D01*
Y44925D01*
D02*
G37*
G36*
X237469Y42563D02*
X179908D01*
X176285Y45155D01*
Y49729D01*
X178332D01*
X178639Y49790D01*
X178900Y49964D01*
X179074Y50225D01*
X179135Y50532D01*
Y52782D01*
X183347D01*
X183654Y52843D01*
X183915Y53017D01*
X183945Y53062D01*
X237469D01*
Y42563D01*
D02*
G37*
G36*
X86681Y63429D02*
X86042D01*
X85946Y63493D01*
X85639Y63554D01*
X82881D01*
X82744Y63666D01*
Y80358D01*
X86681D01*
Y63429D01*
D02*
G37*
G36*
X100461Y62956D02*
X100398Y62828D01*
X99831Y62393D01*
X88650Y62393D01*
Y63452D01*
X88666Y63463D01*
X88840Y63723D01*
X88901Y64030D01*
Y67969D01*
X89345Y68530D01*
X89380Y68547D01*
X100461D01*
Y62956D01*
D02*
G37*
G36*
X138256Y53193D02*
X129201D01*
Y50984D01*
X129186Y50907D01*
Y43350D01*
X121490D01*
X121327Y43744D01*
Y52406D01*
X94058D01*
X93942Y52580D01*
X93682Y52754D01*
X93374Y52815D01*
X92549D01*
X92541Y52851D01*
X92497Y52917D01*
X92467Y52990D01*
X92445Y53023D01*
X92429Y53102D01*
Y57917D01*
X92422Y57953D01*
X92782Y58511D01*
X92886Y58583D01*
X100185D01*
X100492Y58644D01*
X100637Y58704D01*
X100637Y58704D01*
X100886Y58870D01*
X138256D01*
Y53193D01*
D02*
G37*
G36*
X164828Y50479D02*
X164828Y50479D01*
X164889Y50172D01*
X165063Y49912D01*
X165323Y49738D01*
X165630Y49676D01*
X167784D01*
Y44138D01*
X168035D01*
Y40913D01*
X168096Y40605D01*
X168270Y40345D01*
X168530Y40171D01*
X168838Y40110D01*
X169359Y39614D01*
Y17366D01*
X162272D01*
Y40201D01*
X129989D01*
Y50907D01*
X159735D01*
Y52624D01*
X164828D01*
Y50479D01*
D02*
G37*
G36*
X91626Y53023D02*
X91689Y52710D01*
X91800Y52544D01*
Y52012D01*
X93374D01*
Y47287D01*
Y9492D01*
X73851D01*
Y26028D01*
X85894D01*
X86681Y26815D01*
Y50608D01*
X87691Y51618D01*
X88650D01*
Y52429D01*
X88666Y52439D01*
X88840Y52700D01*
X88901Y53007D01*
Y53233D01*
X88915Y53303D01*
Y54976D01*
X88901Y55045D01*
Y56946D01*
X88840Y57252D01*
X88817Y57288D01*
X89108Y57917D01*
X91626D01*
Y53023D01*
D02*
G37*
G36*
X68965Y87445D02*
X61588D01*
X60015Y85872D01*
X60295Y70768D01*
X59854Y70319D01*
X48099D01*
Y28390D01*
X51839Y24650D01*
X72886D01*
Y9311D01*
X48493D01*
Y3980D01*
X43768D01*
Y18941D01*
X38505Y24204D01*
X37075Y24204D01*
Y86264D01*
X43374Y92563D01*
X56366Y92563D01*
X61091Y97287D01*
Y110280D01*
X68965D01*
Y87445D01*
D02*
G37*
D13*
X379134Y57382D02*
X380805Y59053D01*
X377634Y53138D02*
X383112Y47660D01*
X377634Y53138D02*
Y58003D01*
X379305Y59675D01*
X379134Y53759D02*
Y57382D01*
Y53759D02*
X384612Y48281D01*
X386936Y51322D02*
X387350D01*
X387563Y52109D02*
X387643Y52029D01*
Y51615D02*
Y52029D01*
X383405Y54852D02*
X386936Y51322D01*
X387350D02*
X387643Y51615D01*
X387563Y52109D02*
Y104289D01*
X393782Y110507D01*
X389143Y50994D02*
Y52650D01*
X388405Y50256D02*
X389143Y50994D01*
X388405Y44852D02*
Y50256D01*
X389063Y52730D02*
Y103667D01*
Y52730D02*
X389143Y52650D01*
X378405Y44852D02*
X382819D01*
X383112Y45145D02*
Y47660D01*
X393406Y44488D02*
Y54852D01*
X384380Y43513D02*
X386834Y41059D01*
X380805Y59053D02*
Y82581D01*
X384380Y43513D02*
Y44292D01*
X384612Y44524D01*
X382819Y44852D02*
X383112Y45145D01*
X379305Y59675D02*
Y81959D01*
X389977Y41059D02*
X393406Y44488D01*
X386834Y41059D02*
X389977D01*
X384612Y44524D02*
Y48281D01*
X232935Y150884D02*
X234063Y152012D01*
X369063Y43549D02*
Y54266D01*
X367791Y55538D02*
X369063Y54266D01*
X367791Y55538D02*
Y82843D01*
X369291Y56159D02*
Y83465D01*
X369900Y55551D02*
X372062D01*
X374063Y53549D01*
X369291Y56159D02*
X369900Y55551D01*
X398406Y44852D02*
Y58194D01*
X418504Y78292D01*
X420004Y77671D02*
Y107763D01*
X418504Y78292D02*
Y108385D01*
X434966Y124846D01*
X420004Y107763D02*
X435587Y123346D01*
X400563Y58230D02*
X420004Y77671D01*
X395282Y109886D02*
Y140251D01*
X393782Y110507D02*
Y140251D01*
X389063Y103667D02*
X395282Y109886D01*
X328590Y122045D02*
X367791Y82843D01*
X329211Y123545D02*
X369291Y83465D01*
X246263Y122045D02*
X328590D01*
X246884Y123545D02*
X329211D01*
X334107Y127157D02*
X379305Y81959D01*
X334729Y128657D02*
X380805Y82581D01*
X248222Y127157D02*
X334107D01*
X248843Y128657D02*
X334729D01*
X400563Y56751D02*
Y58230D01*
Y56751D02*
X403765Y53549D01*
X554740Y151815D02*
X555671Y150883D01*
X239575Y152012D02*
X240703Y150884D01*
X70303Y144036D02*
X71374D01*
X75121Y147783D01*
Y150884D01*
X76248Y152012D01*
X86634Y144036D02*
X88186D01*
X82888Y147783D02*
X86634Y144036D01*
X82888Y147783D02*
Y150884D01*
X81760Y152012D02*
X82888Y150884D01*
X81760Y152012D02*
X82036Y152287D01*
Y158311D01*
X75973Y152287D02*
X76248Y152012D01*
X75973Y152287D02*
Y158311D01*
X240071Y130358D02*
X246884Y123545D01*
X167630Y130358D02*
X240071D01*
X161724Y136264D02*
X167630Y130358D01*
X83015Y136264D02*
X161724D01*
X84440Y140290D02*
X88186Y144036D01*
X80287Y140290D02*
X84440D01*
X79994Y139997D02*
X80287Y140290D01*
X79994Y139284D02*
Y139997D01*
Y139284D02*
X83015Y136264D01*
X239449Y128858D02*
X246263Y122045D01*
X167008Y128858D02*
X239449D01*
X161103Y134764D02*
X167008Y128858D01*
X82393Y134764D02*
X161103D01*
X74050Y140290D02*
X78202D01*
X70303Y144036D02*
X74050Y140290D01*
X78495Y138663D02*
Y139997D01*
Y138663D02*
X82393Y134764D01*
X78202Y140290D02*
X78495Y139997D01*
X536541Y124846D02*
X551277Y139583D01*
X550984Y140290D02*
X551277Y139997D01*
Y139583D02*
Y139997D01*
X543086Y144036D02*
X546832Y140290D01*
X434966Y124846D02*
X536541D01*
X546832Y140290D02*
X550984D01*
X557222D02*
X560968Y144036D01*
X552777Y139997D02*
X553070Y140290D01*
X557222D01*
X435587Y123346D02*
X537162D01*
X552777Y138962D01*
Y139997D01*
X547918Y150898D02*
X549031Y152012D01*
X543086Y144036D02*
X544171D01*
X547918Y147782D02*
Y150898D01*
X544171Y144036D02*
X547918Y147782D01*
X559417Y144036D02*
X560968D01*
X555671Y147782D02*
X559417Y144036D01*
X555671Y147782D02*
Y150883D01*
X554543Y152012D02*
X554740Y151815D01*
X398176Y147783D02*
Y150884D01*
X397048Y152012D02*
X398176Y150884D01*
Y147783D02*
X401922Y144036D01*
X403473D01*
X385591D02*
X389083Y140544D01*
X393489D02*
X393782Y140251D01*
X389083Y140544D02*
X393489D01*
X70934Y158311D02*
X75973D01*
X70933Y158311D02*
X70934Y158311D01*
X82036D02*
X87075D01*
X87075Y158311D01*
X236017Y140544D02*
X236310Y140251D01*
X231611Y140544D02*
X236017D01*
X228118Y144036D02*
X231611Y140544D01*
X236310Y139069D02*
Y140251D01*
Y139069D02*
X248222Y127157D01*
X237809Y140251D02*
X238102Y140544D01*
X242508D01*
X237809Y139690D02*
Y140251D01*
Y139690D02*
X248843Y128657D01*
X242508Y140544D02*
X246001Y144036D01*
X395282Y140251D02*
X395575Y140544D01*
X399981D01*
X403473Y144036D01*
X244449D02*
X246001D01*
X240703Y147783D02*
X244449Y144036D01*
X240703Y147783D02*
Y150884D01*
X228118Y144036D02*
X229189D01*
X232935Y147783D01*
Y150884D01*
X385591Y144036D02*
X386662D01*
X390408Y147783D01*
Y150884D01*
X391536Y152012D01*
X397048D02*
X397323Y152287D01*
Y158311D01*
X402363D01*
X402363Y158311D01*
X391260Y152287D02*
X391536Y152012D01*
X391260Y152287D02*
Y158311D01*
X386221D02*
X391260D01*
X386221Y158311D02*
X386221Y158311D01*
D14*
X77461Y65984D02*
X80988Y62456D01*
X84260D01*
X76189Y56748D02*
X81390D01*
X83162Y58519D02*
X84260D01*
X81390Y56748D02*
X83162Y58519D01*
X76189Y66905D02*
Y71315D01*
Y66905D02*
X76977D01*
X77461Y66421D01*
Y65984D02*
Y66421D01*
X72114Y56736D02*
X76178D01*
X76189Y56748D01*
D18*
X118571Y30358D02*
X119949Y28980D01*
X118571Y30358D02*
Y35476D01*
X119949Y28980D02*
X120146D01*
X124872D01*
X124811Y41716D02*
Y46708D01*
X118571Y35476D02*
X124811Y41716D01*
X87803Y53303D02*
Y54976D01*
X84713Y50212D02*
X87803Y53303D01*
X84713Y37909D02*
Y50212D01*
X83933Y53114D02*
X84171D01*
X78504Y47685D02*
X83933Y53114D01*
X84606Y53549D02*
Y54976D01*
X77362Y47685D02*
X78504D01*
X84171Y53114D02*
X84606Y53549D01*
X75390Y45713D02*
X77362Y47685D01*
X190756Y66683D02*
Y66787D01*
X188368Y65510D02*
X189583D01*
X181306Y62062D02*
X184921D01*
X189583Y65510D02*
X190756Y66683D01*
X184921Y62062D02*
X188368Y65510D01*
X124872Y28980D02*
X124872Y28981D01*
X71130Y5949D02*
X76445D01*
X65815Y5752D02*
X66012Y5949D01*
X60697Y5752D02*
X65815D01*
X233079Y46708D02*
X233532Y46255D01*
Y34689D02*
Y46255D01*
X81504Y29385D02*
X81701Y29189D01*
X81504Y29385D02*
Y34503D01*
Y34700D01*
X84713Y37909D01*
X90351Y77996D02*
X93689D01*
X90166Y77811D02*
X90351Y77996D01*
X69359Y45713D02*
X75390D01*
X76189Y41393D02*
X76200Y41382D01*
X81170D01*
X71721Y61067D02*
X71766Y61112D01*
X76144D01*
X76189Y61157D01*
X169495Y66196D02*
Y75054D01*
X172055Y77614D01*
X172508Y70541D02*
Y70910D01*
X172054Y66196D02*
Y70087D01*
X172508Y70541D01*
X166543Y67967D02*
Y77811D01*
Y67967D02*
X166936Y67574D01*
Y66196D02*
Y67574D01*
X172055Y77614D02*
Y77811D01*
X190242Y79112D02*
X190756Y78598D01*
X186620Y79112D02*
X190242D01*
X190756Y61078D02*
Y61275D01*
X189181Y59503D02*
X190756Y61078D01*
X181306Y59503D02*
X189181D01*
X190756Y72496D02*
Y72693D01*
X184457Y66196D02*
X190756Y72496D01*
X177172Y66196D02*
X184457D01*
X122509Y22939D02*
Y23862D01*
Y22939D02*
X122884Y22564D01*
X120146Y23862D02*
X124872D01*
X124872Y23863D01*
X120146Y23862D02*
X120146Y23862D01*
X233532Y28252D02*
Y34689D01*
X233473Y28193D02*
X235502D01*
X230776Y28193D02*
X230835Y28252D01*
X233532D01*
X235502Y28193D02*
X235502Y28193D01*
X230776Y23075D02*
X230776Y23075D01*
X235502D01*
X235502Y23075D01*
X534192Y180418D02*
X534526D01*
X534192Y174355D02*
X534526D01*
X535424Y173123D02*
Y173457D01*
X528562Y180418D02*
X534192D01*
X527893Y179749D02*
X528562Y180418D01*
X527893Y174335D02*
X528365Y173863D01*
X534192D01*
X563566Y191350D02*
X563795Y191578D01*
X569641Y180418D02*
X575058D01*
X575727Y179749D01*
X575452Y174355D02*
X575727Y174631D01*
X569641Y174355D02*
X575452D01*
X539385Y185181D02*
X539944Y184623D01*
X539385Y185181D02*
Y192760D01*
X539139Y183818D02*
X539944Y184623D01*
X537926Y183818D02*
X539139D01*
X534526Y180418D02*
X537926Y183818D01*
X538924Y169623D02*
X539944D01*
X539342D02*
X539944D01*
X538598Y168879D02*
X539342Y169623D01*
X538598Y158311D02*
Y168879D01*
X534526Y174355D02*
X535424Y173457D01*
Y173123D02*
X538924Y169623D01*
X569306Y174355D02*
X569641D01*
X564976Y158311D02*
Y168213D01*
X564970Y168218D02*
Y168879D01*
X564574Y169623D02*
X569306Y174355D01*
X564227Y169623D02*
X564970Y168879D01*
X563566Y169623D02*
X564227D01*
X563566D02*
X564574D01*
X564970Y168218D02*
X564976Y168213D01*
X568743Y181316D02*
X569641Y180418D01*
X564662Y184623D02*
X567969Y181316D01*
X568743D01*
X563795Y191578D02*
Y192760D01*
X563566Y184623D02*
X564662D01*
X563566D02*
Y191350D01*
X376697Y180418D02*
X377031D01*
X376697Y174355D02*
X377031D01*
X377929Y173123D02*
Y173458D01*
X371067Y180418D02*
X376697D01*
X370398Y179749D02*
X371067Y180418D01*
X370398Y174336D02*
X370870Y173863D01*
X376697D01*
X406071Y191350D02*
X406300Y191579D01*
X412146Y180418D02*
X417563D01*
X418232Y179749D01*
X417957Y174355D02*
X418232Y174631D01*
X412146Y174355D02*
X417957D01*
X381890Y185182D02*
X382449Y184623D01*
X381890Y185182D02*
Y192760D01*
X381644Y183818D02*
X382449Y184623D01*
X380431Y183818D02*
X381644D01*
X377031Y180418D02*
X380431Y183818D01*
X381429Y169623D02*
X382449D01*
X381847D02*
X382449D01*
X381103Y168879D02*
X381847Y169623D01*
X381103Y158311D02*
Y168879D01*
X377031Y174355D02*
X377929Y173458D01*
Y173123D02*
X381429Y169623D01*
X411811Y174355D02*
X412146D01*
X407481Y158311D02*
Y168213D01*
X407475Y168219D02*
Y168879D01*
X407079Y169623D02*
X411811Y174355D01*
X406732Y169623D02*
X407475Y168879D01*
X406071Y169623D02*
X406732D01*
X406071D02*
X407079D01*
X407475Y168219D02*
X407481Y168213D01*
X411248Y181316D02*
X412146Y180418D01*
X407167Y184623D02*
X410474Y181316D01*
X411248D01*
X406300Y191579D02*
Y192760D01*
X406071Y184623D02*
X407167D01*
X406071D02*
Y191350D01*
X219224Y180418D02*
X219559D01*
X219224Y174355D02*
X219559D01*
X220457Y173123D02*
Y173458D01*
X213595Y180418D02*
X219224D01*
X212925Y179749D02*
X213595Y180418D01*
X212925Y174336D02*
X213398Y173863D01*
X219224D01*
X248598Y191350D02*
X248827Y191579D01*
X254673Y180418D02*
X260090D01*
X260760Y179749D01*
X260484Y174355D02*
X260760Y174631D01*
X254673Y174355D02*
X260484D01*
X224418Y185182D02*
X224976Y184623D01*
X224418Y185182D02*
Y192760D01*
X224171Y183818D02*
X224976Y184623D01*
X222958Y183818D02*
X224171D01*
X219559Y180418D02*
X222958Y183818D01*
X223957Y169623D02*
X224976D01*
X224374D02*
X224976D01*
X223630Y168879D02*
X224374Y169623D01*
X223630Y158311D02*
Y168879D01*
X219559Y174355D02*
X220457Y173458D01*
Y173123D02*
X223957Y169623D01*
X254339Y174355D02*
X254673D01*
X250008Y158311D02*
Y168213D01*
X250003Y168219D02*
Y168879D01*
X249606Y169623D02*
X254339Y174355D01*
X249259Y169623D02*
X250003Y168879D01*
X248598Y169623D02*
X249259D01*
X248598D02*
X249606D01*
X250003Y168219D02*
X250008Y168213D01*
X253776Y181316D02*
X254673Y180418D01*
X249695Y184623D02*
X253002Y181316D01*
X253776D01*
X248827Y191579D02*
Y192760D01*
X248598Y184623D02*
X249695D01*
X248598D02*
Y191350D01*
X91012Y191579D02*
Y192760D01*
X90783Y191350D02*
X91012Y191579D01*
X90783Y184623D02*
Y191350D01*
X92193Y158311D02*
Y168213D01*
X91444Y169623D02*
X92188Y168879D01*
Y168219D02*
X92193Y168213D01*
X92188Y168219D02*
Y168879D01*
X90783Y169623D02*
X91444D01*
X66603Y185182D02*
X67161Y184623D01*
X66603Y185182D02*
Y192760D01*
X65815Y168879D02*
X66559Y169623D01*
X65815Y158311D02*
Y168879D01*
X66559Y169623D02*
X67161D01*
X66356Y183818D02*
X67161Y184623D01*
X65144Y183818D02*
X66356D01*
X61744Y180418D02*
X65144Y183818D01*
X61409Y180418D02*
X61744D01*
X55110Y179749D02*
X55779Y180418D01*
X61409D01*
X62642Y173123D02*
X66142Y169623D01*
X61744Y174355D02*
X62642Y173458D01*
X66142Y169623D02*
X67161D01*
X62642Y173123D02*
Y173458D01*
X61409Y174355D02*
X61744D01*
X90783Y169623D02*
X91791D01*
X96523Y174355D01*
X96858D01*
X102669D01*
X102945Y174631D01*
X102276Y180418D02*
X102945Y179749D01*
X96858Y180418D02*
X102276D01*
X95961Y181316D02*
X96858Y180418D01*
X95187Y181316D02*
X95961D01*
X91880Y184623D02*
X95187Y181316D01*
X90783Y184623D02*
X91880D01*
X55110Y174336D02*
X55583Y173863D01*
X61409D01*
X233413Y16185D02*
Y22976D01*
X156307Y53795D02*
X156897Y54385D01*
X162802D01*
X157857Y56944D02*
X162802D01*
X156282Y58519D02*
X157857Y56944D01*
X155914Y58519D02*
X156282D01*
X159059Y59692D02*
X162613D01*
X162802Y59503D01*
X156103Y62648D02*
X159059Y59692D01*
X154421Y64342D02*
X156103Y62661D01*
Y62648D02*
Y62661D01*
X154028Y64342D02*
X154421D01*
X154929Y70724D02*
X155303Y70350D01*
X162802Y65410D02*
X162802Y62062D01*
X155303Y70350D02*
X157862D01*
X162802Y65410D01*
X122884Y16393D02*
Y22564D01*
X122264Y23184D02*
X122884Y22564D01*
D19*
X73622Y192913D02*
X73641Y192895D01*
Y189516D02*
Y192895D01*
Y189516D02*
X73659Y189497D01*
X231474D02*
X231485Y189508D01*
Y192509D01*
X231496Y192520D01*
X388947Y189497D02*
X388962Y189512D01*
Y192899D01*
X388976Y192913D01*
X382449Y179623D02*
X383545D01*
X388947Y185024D01*
Y189497D01*
X546457Y189891D02*
Y192520D01*
X546442Y185024D02*
Y189497D01*
X541040Y179623D02*
X546442Y185024D01*
X539944Y179623D02*
X541040D01*
X539944D02*
X540282Y179961D01*
X541378D01*
X380874Y233416D02*
X382107Y234648D01*
X380874Y223186D02*
Y233416D01*
X382107Y234648D02*
Y237602D01*
X247980Y222733D02*
Y223521D01*
X247890D02*
Y237733D01*
X223402Y233416D02*
X224634Y234648D01*
X223402Y223186D02*
Y233416D01*
X224634Y234648D02*
Y237602D01*
X240039Y228390D02*
Y233857D01*
X239831Y228182D02*
X240039Y228390D01*
Y233940D02*
X240382Y234282D01*
X239831Y217121D02*
Y228182D01*
X240382Y234282D02*
Y237733D01*
X594820Y194456D02*
X594890Y194526D01*
X577978Y194456D02*
X594820D01*
X577908Y194386D02*
X577978Y194456D01*
X437325Y194457D02*
X437395Y194526D01*
X420483Y194457D02*
X437325D01*
X420413Y194387D02*
X420483Y194457D01*
X279853D02*
X279922Y194526D01*
X263011Y194457D02*
X279853D01*
X262941Y194387D02*
X263011Y194457D01*
X122038D02*
X122107Y194526D01*
X105196Y194457D02*
X122038D01*
X105126Y194387D02*
X105196Y194457D01*
X563442Y174499D02*
X563566Y174623D01*
X559185Y174499D02*
X563442D01*
X559061Y174375D02*
X559185Y174499D01*
X405947Y174499D02*
X406071Y174623D01*
X401690Y174499D02*
X405947D01*
X401566Y174375D02*
X401690Y174499D01*
X248474D02*
X248598Y174623D01*
X244218Y174499D02*
X248474D01*
X244094Y174375D02*
X244218Y174499D01*
X90659D02*
X90783Y174623D01*
X86403Y174499D02*
X90659D01*
X86279Y174375D02*
X86403Y174499D01*
X544471Y163865D02*
X544513Y163908D01*
X541354Y163822D02*
X541396Y163865D01*
X544471D01*
X549674Y169515D02*
Y169728D01*
Y169515D02*
X550020Y169169D01*
Y163912D02*
Y169169D01*
X549621Y169781D02*
X549674Y169728D01*
X549621Y169781D02*
Y174734D01*
X550020Y163912D02*
X550025Y163908D01*
X392525Y163913D02*
Y168396D01*
X392193Y168728D02*
Y168941D01*
X392126Y169008D02*
Y174735D01*
Y169008D02*
X392193Y168941D01*
Y168728D02*
X392525Y168396D01*
Y163913D02*
X392530Y163908D01*
X235048Y168154D02*
Y168367D01*
X234654Y168760D02*
Y174735D01*
Y168760D02*
X235048Y168367D01*
X76839Y169122D02*
X77237Y168723D01*
Y163913D02*
Y168723D01*
X76839Y169122D02*
Y174735D01*
X77237Y163913D02*
X77242Y163908D01*
X235057D02*
X238625D01*
X237133Y214422D02*
X239831Y217121D01*
X397462Y225391D02*
Y237341D01*
X397854Y237733D01*
X397311Y217129D02*
Y225240D01*
X394605Y214422D02*
X397311Y217129D01*
Y225240D02*
X397462Y225391D01*
X554792Y228175D02*
X555007Y228390D01*
X554792Y217114D02*
Y228175D01*
X552100Y214422D02*
X554792Y217114D01*
X555007Y228390D02*
Y233857D01*
Y233939D02*
X555349Y234282D01*
Y237733D01*
X91012Y197934D02*
Y202012D01*
X248857Y201982D02*
X248886Y202012D01*
X248857Y197904D02*
Y201982D01*
X563814Y197914D02*
Y201979D01*
X563834Y201999D01*
X563814Y197914D02*
X563850Y197878D01*
X406355Y197878D02*
Y202096D01*
X248857Y197904D02*
X248883Y197878D01*
X91012Y197934D02*
X91068Y197878D01*
X224976Y179623D02*
X225002Y179597D01*
X562948Y222339D02*
X563538Y221749D01*
X562948Y222339D02*
Y222733D01*
X563538Y221100D02*
Y221749D01*
X538621Y212107D02*
X538652D01*
Y207225D02*
Y212107D01*
X550025Y163908D02*
X553592D01*
X553631Y163946D01*
X538763Y218068D02*
X538960Y218264D01*
Y223186D01*
X538369Y212359D02*
Y217280D01*
Y212359D02*
X538621Y212107D01*
X563813Y217674D02*
X567021Y214465D01*
X565814D02*
X569298D01*
X563538Y221100D02*
X563813Y220826D01*
Y217674D02*
Y220826D01*
X562605Y211257D02*
X565814Y214465D01*
X562605Y209999D02*
Y211257D01*
X550484Y197878D02*
X562605Y209999D01*
X539385Y197878D02*
X550484D01*
X563566Y179623D02*
X563664Y179524D01*
X555874Y179524D02*
X563157D01*
X563255Y179426D01*
X540733Y174734D02*
X549621D01*
X551085D02*
X555874Y179524D01*
X549621Y174734D02*
X551085D01*
X540621Y174623D02*
X540733Y174734D01*
X562857Y223520D02*
Y237733D01*
X562948Y222733D02*
Y223520D01*
X539602Y234648D02*
Y237602D01*
X538369Y233415D02*
X539602Y234648D01*
X538369Y223186D02*
Y233415D01*
X405453Y222340D02*
X406043Y221749D01*
X405453Y222340D02*
Y222733D01*
X406043Y221101D02*
Y221749D01*
X381126Y212107D02*
X381157D01*
Y207225D02*
Y212107D01*
X386976Y163865D02*
X387018Y163908D01*
X383901Y163865D02*
X386976D01*
X383859Y163823D02*
X383901Y163865D01*
X392530Y163908D02*
X396097D01*
X396136Y163947D01*
X381268Y218068D02*
X381465Y218265D01*
Y223186D01*
X380874Y212359D02*
Y217281D01*
Y212359D02*
X381126Y212107D01*
X406318Y217674D02*
X409526Y214466D01*
X408319D02*
X411803D01*
X406043Y221101D02*
X406318Y220827D01*
Y217674D02*
Y220827D01*
X405110Y211257D02*
X408319Y214466D01*
X405110Y210000D02*
Y211257D01*
X392988Y197878D02*
X405110Y210000D01*
X381890Y197878D02*
X392988D01*
X406071Y179623D02*
X406169Y179525D01*
X398379Y179525D02*
X405661D01*
X405760Y179426D01*
X383238Y174735D02*
X392126D01*
X393589D02*
X398379Y179525D01*
X392126Y174735D02*
X393589D01*
X383126Y174623D02*
X383238Y174735D01*
X420413Y194387D02*
X420626D01*
X405362Y223521D02*
Y237733D01*
X405453Y222733D02*
Y223521D01*
X247980Y222340D02*
X248571Y221749D01*
X247980Y222340D02*
Y222733D01*
X248571Y221101D02*
Y221749D01*
X223402Y212359D02*
X223654Y212107D01*
X223685D01*
Y207225D02*
Y212107D01*
X229503Y163865D02*
X229546Y163908D01*
X226429Y163865D02*
X229503D01*
X226386Y163823D02*
X226429Y163865D01*
X223795Y218068D02*
X223992Y218265D01*
Y223186D01*
X223402Y212359D02*
Y217281D01*
X248845Y217674D02*
X252054Y214466D01*
X250846D02*
X254331D01*
X248571Y221101D02*
X248845Y220827D01*
Y217674D02*
Y220827D01*
X247638Y211257D02*
X250846Y214466D01*
X247638Y210000D02*
Y211257D01*
X235516Y197878D02*
X247638Y210000D01*
X224418Y197878D02*
X235516D01*
X231474Y185024D02*
Y189497D01*
X226073Y179623D02*
X231474Y185024D01*
X224976Y179623D02*
X226073D01*
X248598D02*
X248697Y179525D01*
X248189Y179525D02*
X248287Y179426D01*
X240907Y179525D02*
X248189D01*
X236117Y174735D02*
X240907Y179525D01*
X225765Y174735D02*
X234654D01*
X236117D01*
X225654Y174623D02*
X225765Y174735D01*
X235052Y163913D02*
Y168149D01*
Y163913D02*
X235057Y163908D01*
X82567Y234282D02*
Y237733D01*
X66603Y197878D02*
X77701D01*
X89823Y210000D01*
X68571Y163823D02*
X68614Y163865D01*
X71688D01*
X71731Y163908D01*
X76839Y174735D02*
X78302D01*
X67950D02*
X76839D01*
X73659Y185024D02*
Y189497D01*
X68258Y179623D02*
X73659Y185024D01*
X67161Y179623D02*
X68258D01*
X89823Y211257D02*
X93032Y214466D01*
X96516D01*
X89823Y210000D02*
Y211257D01*
X90075Y223521D02*
Y237733D01*
X90165Y222733D02*
Y223521D01*
Y222340D02*
Y222733D01*
X77242Y163908D02*
X80810D01*
X80849Y163947D01*
X67839Y174623D02*
X67950Y174735D01*
X78302D02*
X83092Y179525D01*
X90374D01*
X90783Y179623D02*
X90882Y179525D01*
X90374Y179525D02*
X90472Y179426D01*
X91030Y217674D02*
Y220827D01*
X90756Y221101D02*
Y221749D01*
X91030Y217674D02*
X94239Y214466D01*
X90756Y221101D02*
X91030Y220827D01*
X90165Y222340D02*
X90756Y221749D01*
X66819Y234648D02*
Y237602D01*
X65587Y233416D02*
X66819Y234648D01*
X65587Y223186D02*
Y233416D01*
X66177Y218265D02*
Y223186D01*
X65838Y212107D02*
X65870D01*
X65587Y212359D02*
Y217281D01*
X65870Y207225D02*
Y212107D01*
X65587Y212359D02*
X65838Y212107D01*
X65980Y218068D02*
X66177Y218265D01*
X82224Y233940D02*
X82567Y234282D01*
X82224Y224225D02*
Y233857D01*
X82073Y224074D02*
X82224Y224225D01*
X79317Y214422D02*
X82073Y217178D01*
Y224074D01*
X78303Y214422D02*
X79317D01*
X257528Y56551D02*
X264969D01*
D25*
X90756Y71905D02*
D03*
X85244D02*
D03*
X549031Y152012D02*
D03*
X554543D02*
D03*
X380702Y211455D02*
D03*
X375190D02*
D03*
X538197Y211455D02*
D03*
X532685D02*
D03*
X65587Y217281D02*
D03*
X60075D02*
D03*
X380874D02*
D03*
X375362D02*
D03*
X538369Y217280D02*
D03*
X532857D02*
D03*
X223402Y217281D02*
D03*
X217890D02*
D03*
X410965Y222733D02*
D03*
X405453D02*
D03*
X568460Y222733D02*
D03*
X562948D02*
D03*
X236986Y189497D02*
D03*
X231474D02*
D03*
X234063Y152012D02*
D03*
X228552D02*
D03*
X245087D02*
D03*
X239575D02*
D03*
X217890Y223186D02*
D03*
X223402D02*
D03*
X223229Y211455D02*
D03*
X217718D02*
D03*
X253492Y222733D02*
D03*
X247980D02*
D03*
X229546Y163908D02*
D03*
X235057D02*
D03*
X238625D02*
D03*
X244137D02*
D03*
X71731D02*
D03*
X77242D02*
D03*
X40157Y6299D02*
D03*
X45669D02*
D03*
X264969Y56551D02*
D03*
X270480D02*
D03*
X252370Y71511D02*
D03*
X246858D02*
D03*
X252370Y66393D02*
D03*
X246858D02*
D03*
X150795Y53795D02*
D03*
X156307D02*
D03*
X401609Y163908D02*
D03*
X396097D02*
D03*
X392530D02*
D03*
X387018D02*
D03*
X388947Y189497D02*
D03*
X394459D02*
D03*
X380874Y223186D02*
D03*
X375362D02*
D03*
X386024Y152012D02*
D03*
X391536D02*
D03*
X397048D02*
D03*
X402560D02*
D03*
X546442Y189497D02*
D03*
X551954D02*
D03*
X550025Y163908D02*
D03*
X544513D02*
D03*
X559104D02*
D03*
X553592D02*
D03*
X90362Y49464D02*
D03*
X95874D02*
D03*
X73659Y189497D02*
D03*
X79171D02*
D03*
X81760Y152012D02*
D03*
X87272D02*
D03*
X70737D02*
D03*
X76248D02*
D03*
X65587Y223186D02*
D03*
X60075D02*
D03*
X86322Y163908D02*
D03*
X80810D02*
D03*
X90165Y222733D02*
D03*
X95677D02*
D03*
X59903Y211455D02*
D03*
X65414D02*
D03*
X560054Y152012D02*
D03*
X543519D02*
D03*
X538369Y223186D02*
D03*
X532857D02*
D03*
D26*
X67161Y184623D02*
D03*
X539944Y184623D02*
D03*
X382449Y184623D02*
D03*
X224976D02*
D03*
D27*
X67161Y179623D02*
D03*
Y174623D02*
D03*
Y169623D02*
D03*
X90783D02*
D03*
Y174623D02*
D03*
Y179623D02*
D03*
Y184623D02*
D03*
X539944Y179623D02*
D03*
Y174623D02*
D03*
Y169623D02*
D03*
X563566D02*
D03*
Y174623D02*
D03*
Y179623D02*
D03*
Y184623D02*
D03*
X406071Y184623D02*
D03*
Y179623D02*
D03*
Y174623D02*
D03*
Y169623D02*
D03*
X382449D02*
D03*
Y174623D02*
D03*
Y179623D02*
D03*
X248598Y184623D02*
D03*
Y179623D02*
D03*
Y174623D02*
D03*
Y169623D02*
D03*
X224976D02*
D03*
Y174623D02*
D03*
Y179623D02*
D03*
D28*
X534192Y180418D02*
D03*
Y174355D02*
D03*
X254673Y180418D02*
D03*
Y174355D02*
D03*
X219224Y180418D02*
D03*
Y174355D02*
D03*
X412146D02*
D03*
Y180418D02*
D03*
X376697Y174355D02*
D03*
Y180418D02*
D03*
X96858Y174355D02*
D03*
Y180418D02*
D03*
X61409Y174355D02*
D03*
Y180418D02*
D03*
X569641Y174355D02*
D03*
Y180418D02*
D03*
D29*
X527893Y179749D02*
D03*
Y174631D02*
D03*
X235502Y23075D02*
D03*
Y28193D02*
D03*
X230776Y23075D02*
D03*
Y28193D02*
D03*
X124872Y28981D02*
D03*
Y23863D02*
D03*
X120146Y28980D02*
D03*
Y23862D02*
D03*
X60697Y10870D02*
D03*
Y5752D02*
D03*
X212925Y179749D02*
D03*
Y174631D02*
D03*
X260760Y179749D02*
D03*
Y174631D02*
D03*
X224418Y197878D02*
D03*
Y192760D02*
D03*
X248827Y197878D02*
D03*
Y192760D02*
D03*
X76189Y46511D02*
D03*
Y41393D02*
D03*
Y51630D02*
D03*
Y56748D02*
D03*
X81701Y29189D02*
D03*
Y24070D02*
D03*
X406300Y192760D02*
D03*
Y197878D02*
D03*
X418232Y174631D02*
D03*
Y179749D02*
D03*
X370398Y174631D02*
D03*
Y179749D02*
D03*
X381890Y192760D02*
D03*
Y197878D02*
D03*
X76189Y71315D02*
D03*
Y76433D02*
D03*
X102945Y174631D02*
D03*
Y179749D02*
D03*
X91012Y192760D02*
D03*
Y197878D02*
D03*
X55110Y174631D02*
D03*
Y179749D02*
D03*
X575727Y174631D02*
D03*
Y179749D02*
D03*
X539385Y192760D02*
D03*
Y197878D02*
D03*
X563795Y192760D02*
D03*
Y197878D02*
D03*
X66603Y197878D02*
D03*
Y192760D02*
D03*
D30*
X145677Y43952D02*
D03*
Y36078D02*
D03*
X153697Y43952D02*
D03*
Y36078D02*
D03*
X117331Y194387D02*
D03*
Y202261D02*
D03*
X275146Y194387D02*
D03*
Y202261D02*
D03*
X432618Y194387D02*
D03*
Y202261D02*
D03*
X590113Y194386D02*
D03*
Y202260D02*
D03*
X110244Y194387D02*
D03*
Y202261D02*
D03*
X268059Y194387D02*
D03*
Y202261D02*
D03*
X425531Y194387D02*
D03*
Y202261D02*
D03*
X583027Y194386D02*
D03*
Y202260D02*
D03*
X122252Y55763D02*
D03*
Y63637D02*
D03*
X129732Y55763D02*
D03*
Y63637D02*
D03*
X114378Y55763D02*
D03*
Y63637D02*
D03*
X106898Y55763D02*
D03*
Y63637D02*
D03*
X214969Y46314D02*
D03*
Y38440D02*
D03*
X223236Y46314D02*
D03*
Y38440D02*
D03*
X198433Y46314D02*
D03*
Y38440D02*
D03*
X206701Y46314D02*
D03*
Y38440D02*
D03*
X190165Y46314D02*
D03*
Y38440D02*
D03*
D31*
X181306Y51826D02*
D03*
Y54385D02*
D03*
Y56944D02*
D03*
Y59503D02*
D03*
Y62062D02*
D03*
X162802D02*
D03*
Y59503D02*
D03*
Y56944D02*
D03*
Y54385D02*
D03*
Y51826D02*
D03*
D32*
X177172Y66196D02*
D03*
X174613D02*
D03*
X172054D02*
D03*
X169495D02*
D03*
X166936D02*
D03*
Y47692D02*
D03*
X169495D02*
D03*
X172054D02*
D03*
X174613D02*
D03*
X177172D02*
D03*
D33*
X172054Y56944D02*
D03*
D34*
X154398Y22878D02*
D03*
X166209D02*
D03*
D35*
X64339Y94236D02*
D03*
X75953D02*
D03*
X64339Y104965D02*
D03*
X75953D02*
D03*
X27725Y52406D02*
D03*
X39339D02*
D03*
X56268Y30654D02*
D03*
X44654D02*
D03*
X27725Y63036D02*
D03*
X39339D02*
D03*
X27725Y41776D02*
D03*
X39339D02*
D03*
X56268Y41776D02*
D03*
X44654D02*
D03*
X56268Y52406D02*
D03*
X44654D02*
D03*
X56268Y63036D02*
D03*
X44654D02*
D03*
X27725Y30654D02*
D03*
X39339D02*
D03*
X101287Y30124D02*
D03*
X89673D02*
D03*
X101287Y19051D02*
D03*
X89673D02*
D03*
X101287Y41196D02*
D03*
X89673D02*
D03*
D36*
X411803Y214466D02*
D03*
X393248D02*
D03*
X569298Y214465D02*
D03*
X550743D02*
D03*
X264568Y144036D02*
D03*
X210236Y144036D02*
D03*
X228118D02*
D03*
X246001D02*
D03*
X210579Y197580D02*
D03*
X235776Y214466D02*
D03*
X254331D02*
D03*
X77961D02*
D03*
X96516D02*
D03*
X106753Y144036D02*
D03*
X422040D02*
D03*
X579535Y144036D02*
D03*
X52764Y197580D02*
D03*
X368051D02*
D03*
X525546Y197579D02*
D03*
X52421Y144036D02*
D03*
X367709D02*
D03*
X524536Y144036D02*
D03*
X70303Y144036D02*
D03*
X385591D02*
D03*
X543086Y144036D02*
D03*
X88186Y144036D02*
D03*
X403473D02*
D03*
X560968Y144036D02*
D03*
D37*
X239851Y158311D02*
D03*
X233788D02*
D03*
X391260D02*
D03*
X397323D02*
D03*
X75973D02*
D03*
X82036D02*
D03*
X548755Y158311D02*
D03*
X554818D02*
D03*
D38*
X250008Y158311D02*
D03*
X244890D02*
D03*
X223630Y158311D02*
D03*
X228748D02*
D03*
X66012Y5949D02*
D03*
X71130D02*
D03*
X195874Y78598D02*
D03*
X190756D02*
D03*
X195874Y61275D02*
D03*
X190756D02*
D03*
X195874Y66787D02*
D03*
X190756D02*
D03*
X190756Y72693D02*
D03*
X195874D02*
D03*
X177173Y77811D02*
D03*
X172055D02*
D03*
X80709Y35039D02*
D03*
X75590D02*
D03*
X90166Y77811D02*
D03*
X85047D02*
D03*
X154929Y64031D02*
D03*
X149811D02*
D03*
X161425Y77811D02*
D03*
X166543D02*
D03*
X149811Y70724D02*
D03*
X154929D02*
D03*
X402363Y158311D02*
D03*
X407481D02*
D03*
X386221Y158311D02*
D03*
X381103D02*
D03*
X87075Y158311D02*
D03*
X92193D02*
D03*
X559858Y158311D02*
D03*
X564976D02*
D03*
X543716Y158311D02*
D03*
X538598D02*
D03*
X70933Y158311D02*
D03*
X65815D02*
D03*
D39*
X76189Y66905D02*
D03*
Y61157D02*
D03*
D40*
X82744Y5949D02*
D03*
X76445D02*
D03*
D41*
X51614Y79646D02*
D03*
Y89646D02*
D03*
X27126Y79646D02*
D03*
Y89646D02*
D03*
D42*
X253551Y47496D02*
D03*
Y41984D02*
D03*
X258669Y47496D02*
D03*
Y41984D02*
D03*
D43*
X257784Y60291D02*
D03*
Y56551D02*
D03*
Y52811D02*
D03*
X246957D02*
D03*
Y56551D02*
D03*
Y60291D02*
D03*
D44*
X233079Y46708D02*
D03*
X243315D02*
D03*
X124811Y46708D02*
D03*
X135047D02*
D03*
X69103Y16787D02*
D03*
X79339D02*
D03*
D45*
X250795Y78598D02*
D03*
X242921D02*
D03*
D46*
X233413Y9886D02*
D03*
Y16185D02*
D03*
X122884Y10094D02*
D03*
Y16393D02*
D03*
D78*
X84606Y54976D02*
D03*
Y66000D02*
D03*
D79*
X87803Y54976D02*
D03*
Y66000D02*
D03*
X89772D02*
D03*
Y54976D02*
D03*
D80*
X84260Y58519D02*
D03*
Y62456D02*
D03*
Y60488D02*
D03*
D81*
X96268Y55763D02*
D03*
Y65212D02*
D03*
D82*
X69359Y45713D02*
D03*
X257855Y71511D02*
D03*
X118571Y35476D02*
D03*
X233532Y34689D02*
D03*
X129339Y10488D02*
D03*
X257154Y86658D02*
D03*
X250461D02*
D03*
X257548Y80752D02*
D03*
D83*
X186867Y56944D02*
X190001Y53811D01*
Y50788D02*
Y53811D01*
X181306Y56944D02*
X186867D01*
D84*
X549031Y152012D02*
Y158311D01*
X543913D02*
X549031D01*
X554543Y158311D02*
X559661D01*
X554543Y158311D02*
X554543Y158311D01*
X554543Y151618D02*
Y152012D01*
Y158311D01*
Y151789D02*
Y152012D01*
X239575Y158311D02*
X244693D01*
X228945Y158311D02*
X234063D01*
Y151789D02*
Y152012D01*
Y158311D01*
Y151618D02*
Y152012D01*
X239575Y151618D02*
Y152012D01*
Y158311D02*
X239575Y158311D01*
X239575Y152012D02*
Y158311D01*
Y151789D02*
Y152012D01*
D85*
X582441Y344331D02*
D03*
X572441D02*
D03*
X592441D02*
D03*
X572441Y354331D02*
D03*
Y364331D02*
D03*
X582441D02*
D03*
X592441D02*
D03*
Y354331D02*
D03*
X582441D02*
D03*
X267480Y344331D02*
D03*
X257480D02*
D03*
X277480D02*
D03*
X257480Y354331D02*
D03*
Y364331D02*
D03*
X267480D02*
D03*
X277480D02*
D03*
Y354331D02*
D03*
X267480D02*
D03*
X110000D02*
D03*
X120000D02*
D03*
Y364331D02*
D03*
X110000D02*
D03*
X100000D02*
D03*
Y354331D02*
D03*
X120000Y344331D02*
D03*
X100000D02*
D03*
X110000D02*
D03*
X424961D02*
D03*
X414961D02*
D03*
X434961D02*
D03*
X414961Y354331D02*
D03*
Y364331D02*
D03*
X424961D02*
D03*
X434961D02*
D03*
Y354331D02*
D03*
X424961D02*
D03*
X519921Y344331D02*
D03*
X509921D02*
D03*
X529921D02*
D03*
X509921Y354331D02*
D03*
Y364331D02*
D03*
X519921D02*
D03*
X529921D02*
D03*
Y354331D02*
D03*
X519921D02*
D03*
X204961D02*
D03*
X214961D02*
D03*
Y364331D02*
D03*
X204961D02*
D03*
X194961D02*
D03*
Y354331D02*
D03*
X214961Y344331D02*
D03*
X194961D02*
D03*
X204961D02*
D03*
X47480D02*
D03*
X37480D02*
D03*
X57480D02*
D03*
X37480Y354331D02*
D03*
Y364331D02*
D03*
X47480D02*
D03*
X57480D02*
D03*
Y354331D02*
D03*
X47480D02*
D03*
X362441Y344331D02*
D03*
X352441D02*
D03*
X372441D02*
D03*
X352441Y354331D02*
D03*
Y364331D02*
D03*
X362441D02*
D03*
X372441D02*
D03*
Y354331D02*
D03*
X362441D02*
D03*
D86*
X211024Y287598D02*
D03*
X261024Y267598D02*
D03*
Y277599D02*
D03*
X211024D02*
D03*
Y267598D02*
D03*
X261024Y287598D02*
D03*
X211024Y307598D02*
D03*
X261024Y297599D02*
D03*
X211024D02*
D03*
X261024Y307598D02*
D03*
X53543Y287598D02*
D03*
X103543Y267598D02*
D03*
Y277599D02*
D03*
X53543D02*
D03*
Y267598D02*
D03*
X103543Y287598D02*
D03*
X53543Y307598D02*
D03*
X103543Y297599D02*
D03*
X53543D02*
D03*
X103543Y307598D02*
D03*
X575984D02*
D03*
X525984Y297599D02*
D03*
X575984D02*
D03*
X525984Y307598D02*
D03*
X575984Y287598D02*
D03*
X525984Y267598D02*
D03*
Y277599D02*
D03*
X575984D02*
D03*
Y267598D02*
D03*
X525984Y287598D02*
D03*
X418504Y307598D02*
D03*
X368504Y297599D02*
D03*
X418504D02*
D03*
X368504Y307598D02*
D03*
X418504Y287598D02*
D03*
X368504Y267598D02*
D03*
Y277599D02*
D03*
X418504D02*
D03*
Y267598D02*
D03*
X368504Y287598D02*
D03*
D87*
X239961Y237598D02*
D03*
X224213D02*
D03*
X247835D02*
D03*
X232087D02*
D03*
X82480D02*
D03*
X66732D02*
D03*
X90354D02*
D03*
X74606D02*
D03*
X547047D02*
D03*
X562795D02*
D03*
X539173D02*
D03*
X554921D02*
D03*
X389567D02*
D03*
X405315D02*
D03*
X381693D02*
D03*
X397441D02*
D03*
D88*
X13780Y218504D02*
D03*
X616142Y13780D02*
D03*
Y218504D02*
D03*
X13780Y13780D02*
D03*
D89*
X416339Y8071D02*
D03*
X355413D02*
D03*
D90*
X408425Y19852D02*
D03*
X363425D02*
D03*
D91*
X403406Y54852D02*
D03*
X398406Y44852D02*
D03*
X393406Y54852D02*
D03*
X388405Y44852D02*
D03*
X383405Y54852D02*
D03*
X378405Y44852D02*
D03*
X373406Y54852D02*
D03*
X368406Y44852D02*
D03*
D92*
X49556Y16185D02*
D03*
X39555D02*
D03*
D93*
X231496Y192520D02*
D03*
X388976Y192913D02*
D03*
X546457Y192520D02*
D03*
X166209Y42169D02*
D03*
X122107Y202007D02*
D03*
X105126D02*
D03*
X172103Y56913D02*
D03*
X176516Y53279D02*
D03*
X167855D02*
D03*
Y60956D02*
D03*
X176516D02*
D03*
X174170Y42563D02*
D03*
X170626D02*
D03*
X117186Y144332D02*
D03*
X102036Y53980D02*
D03*
X190001Y50788D02*
D03*
X242757Y56693D02*
D03*
X145343Y31539D02*
D03*
X160303Y35476D02*
D03*
X154129Y9762D02*
D03*
X149799Y23148D02*
D03*
X159516Y21303D02*
D03*
Y26421D02*
D03*
X559061Y174375D02*
D03*
X401566Y174375D02*
D03*
X244094D02*
D03*
X86279D02*
D03*
X80323Y107092D02*
D03*
Y102761D02*
D03*
Y91689D02*
D03*
Y96019D02*
D03*
X16996Y88626D02*
D03*
X17390Y78784D02*
D03*
X87329Y5738D02*
D03*
X198662Y50788D02*
D03*
X233138Y50831D02*
D03*
X206451Y50788D02*
D03*
X214959D02*
D03*
X223465D02*
D03*
X128020Y68941D02*
D03*
X131170D02*
D03*
X120540D02*
D03*
X123689D02*
D03*
X112666D02*
D03*
X115815D02*
D03*
X93689Y77996D02*
D03*
X72114Y56736D02*
D03*
X71721Y61067D02*
D03*
X81170Y41382D02*
D03*
X60638Y54582D02*
D03*
Y50252D02*
D03*
Y43509D02*
D03*
Y39179D02*
D03*
Y28106D02*
D03*
Y32437D02*
D03*
X60638Y61374D02*
D03*
Y65704D02*
D03*
X23355Y27985D02*
D03*
Y32315D02*
D03*
X23355Y61252D02*
D03*
Y65583D02*
D03*
Y54510D02*
D03*
Y50180D02*
D03*
Y43438D02*
D03*
Y39107D02*
D03*
X96918Y17268D02*
D03*
Y21599D02*
D03*
Y28341D02*
D03*
Y32671D02*
D03*
X71653Y35039D02*
D03*
X72114Y51618D02*
D03*
X76051Y80752D02*
D03*
X94555Y72091D02*
D03*
X108335Y68941D02*
D03*
X105185D02*
D03*
X150818Y58149D02*
D03*
X177196Y82952D02*
D03*
X227984Y9724D02*
D03*
X129558Y5787D02*
D03*
X118141Y9724D02*
D03*
X99637Y49487D02*
D03*
X96918Y43744D02*
D03*
Y39413D02*
D03*
X101642Y11461D02*
D03*
X27590Y22716D02*
D03*
X37008Y6299D02*
D03*
X29989Y72091D02*
D03*
X24477D02*
D03*
X25606Y93646D02*
D03*
X31118D02*
D03*
X199674Y66841D02*
D03*
Y61067D02*
D03*
Y78390D02*
D03*
Y72615D02*
D03*
X157548Y77602D02*
D03*
X172508Y70910D02*
D03*
X186620Y79112D02*
D03*
X541354Y163822D02*
D03*
X549674Y169728D02*
D03*
X392193Y168941D02*
D03*
X76839Y169335D02*
D03*
X239831Y224059D02*
D03*
X397311Y225240D02*
D03*
X554792Y224059D02*
D03*
X91012Y202012D02*
D03*
X248886D02*
D03*
X563834Y201999D02*
D03*
X406355Y202096D02*
D03*
X73622Y192913D02*
D03*
X258899Y38583D02*
D03*
X253781D02*
D03*
X197875Y33465D02*
D03*
X189214D02*
D03*
X205664D02*
D03*
X52875Y190201D02*
D03*
X210690D02*
D03*
X368163D02*
D03*
X525658Y190201D02*
D03*
X515370Y143744D02*
D03*
X594890Y202006D02*
D03*
X528755Y217169D02*
D03*
Y222878D02*
D03*
X571661Y222872D02*
D03*
X547593Y229426D02*
D03*
X577908Y202006D02*
D03*
X564106Y151984D02*
D03*
X528755Y211460D02*
D03*
X539696Y151984D02*
D03*
X551968Y192913D02*
D03*
X589968Y144331D02*
D03*
X538803Y207225D02*
D03*
X562092Y163822D02*
D03*
X551196Y174846D02*
D03*
X525212Y204374D02*
D03*
X577908Y194386D02*
D03*
X594890Y194526D02*
D03*
X357874Y143744D02*
D03*
X437395Y202007D02*
D03*
X371260Y217169D02*
D03*
Y222878D02*
D03*
X414166Y222873D02*
D03*
X390098Y229426D02*
D03*
X420413Y202007D02*
D03*
X406611Y151984D02*
D03*
X371260Y211461D02*
D03*
X382201Y151984D02*
D03*
X394488Y192913D02*
D03*
X432473Y144332D02*
D03*
X381308Y207225D02*
D03*
X383859Y163823D02*
D03*
X404597D02*
D03*
X393701Y174846D02*
D03*
X367717Y204374D02*
D03*
X420413Y194387D02*
D03*
X437395Y194526D02*
D03*
X200402Y143744D02*
D03*
X279922Y202007D02*
D03*
X213788Y217169D02*
D03*
Y222878D02*
D03*
X256694Y222873D02*
D03*
X232626Y229426D02*
D03*
X262941Y202007D02*
D03*
X249138Y151984D02*
D03*
X213788Y211461D02*
D03*
X224729Y151984D02*
D03*
X237008Y192913D02*
D03*
X275001Y144332D02*
D03*
X223835Y207225D02*
D03*
X226386Y163823D02*
D03*
X247124D02*
D03*
X236229Y174846D02*
D03*
X235048Y168154D02*
D03*
X210244Y204374D02*
D03*
X262941Y194387D02*
D03*
X279922Y194526D02*
D03*
X68571Y163823D02*
D03*
X79134Y192913D02*
D03*
X78414Y174846D02*
D03*
X55973Y222878D02*
D03*
Y217169D02*
D03*
Y211461D02*
D03*
X89309Y163823D02*
D03*
X42587Y143744D02*
D03*
X66020Y207225D02*
D03*
X98879Y222873D02*
D03*
X74811Y229426D02*
D03*
X52429Y204374D02*
D03*
X105126Y194387D02*
D03*
X122107Y194526D02*
D03*
X82073Y224074D02*
D03*
X139831Y35476D02*
D03*
X182745Y38232D02*
D03*
X214171Y33465D02*
D03*
X222678D02*
D03*
X146130Y63823D02*
D03*
X149674Y75634D02*
D03*
X177233Y72878D02*
D03*
X155914Y58519D02*
D03*
X91323Y151984D02*
D03*
X66914D02*
D03*
X242757Y60237D02*
D03*
X252117Y61682D02*
D03*
X273859Y56693D02*
D03*
X238032Y78741D02*
D03*
X243150Y71260D02*
D03*
X154792Y31539D02*
D03*
X243150Y66142D02*
D03*
D94*
X89810Y60488D02*
D03*
X87555D02*
D03*
M02*
