G04*
G04 #@! TF.GenerationSoftware,Altium Limited,Altium Designer,25.4.2 (15)*
G04*
G04 Layer_Color=8388736*
%FSLAX25Y25*%
%MOIN*%
G70*
G04*
G04 #@! TF.SameCoordinates,336B1F89-BFE6-4481-99DC-D24D03349B4C*
G04*
G04*
G04 #@! TF.FilePolarity,Negative*
G04*
G01*
G75*
%ADD34R,0.06299X0.10630*%
%ADD41R,0.15512X0.05000*%
%ADD47R,0.03556X0.04343*%
%ADD48R,0.05603X0.03410*%
%ADD49O,0.05603X0.03410*%
G04:AMPARAMS|DCode=50|XSize=35.95mil|YSize=42.65mil|CornerRadius=8.61mil|HoleSize=0mil|Usage=FLASHONLY|Rotation=90.000|XOffset=0mil|YOffset=0mil|HoleType=Round|Shape=RoundedRectangle|*
%AMROUNDEDRECTD50*
21,1,0.03595,0.02542,0,0,90.0*
21,1,0.01873,0.04265,0,0,90.0*
1,1,0.01722,0.01271,0.00936*
1,1,0.01722,0.01271,-0.00936*
1,1,0.01722,-0.01271,-0.00936*
1,1,0.01722,-0.01271,0.00936*
%
%ADD50ROUNDEDRECTD50*%
%ADD51R,0.04540X0.04147*%
%ADD52R,0.06902X0.06115*%
%ADD53R,0.04934X0.02178*%
%ADD54R,0.02178X0.04934*%
%ADD55R,0.13595X0.13595*%
G04:AMPARAMS|DCode=56|XSize=53.67mil|YSize=115.09mil|CornerRadius=11.54mil|HoleSize=0mil|Usage=FLASHONLY|Rotation=0.000|XOffset=0mil|YOffset=0mil|HoleType=Round|Shape=RoundedRectangle|*
%AMROUNDEDRECTD56*
21,1,0.05367,0.09202,0,0,0.0*
21,1,0.03060,0.11509,0,0,0.0*
1,1,0.02307,0.01530,-0.04601*
1,1,0.02307,-0.01530,-0.04601*
1,1,0.02307,-0.01530,0.04601*
1,1,0.02307,0.01530,0.04601*
%
%ADD56ROUNDEDRECTD56*%
%ADD57R,0.15761X0.08792*%
G04:AMPARAMS|DCode=58|XSize=35.95mil|YSize=42.65mil|CornerRadius=8.61mil|HoleSize=0mil|Usage=FLASHONLY|Rotation=0.000|XOffset=0mil|YOffset=0mil|HoleType=Round|Shape=RoundedRectangle|*
%AMROUNDEDRECTD58*
21,1,0.03595,0.02542,0,0,0.0*
21,1,0.01873,0.04265,0,0,0.0*
1,1,0.01722,0.00936,-0.01271*
1,1,0.01722,-0.00936,-0.01271*
1,1,0.01722,-0.00936,0.01271*
1,1,0.01722,0.00936,0.01271*
%
%ADD58ROUNDEDRECTD58*%
%ADD59R,0.04147X0.04540*%
%ADD60C,0.04737*%
G04:AMPARAMS|DCode=61|XSize=27.69mil|YSize=43.43mil|CornerRadius=7.25mil|HoleSize=0mil|Usage=FLASHONLY|Rotation=270.000|XOffset=0mil|YOffset=0mil|HoleType=Round|Shape=RoundedRectangle|*
%AMROUNDEDRECTD61*
21,1,0.02769,0.02894,0,0,270.0*
21,1,0.01319,0.04343,0,0,270.0*
1,1,0.01450,-0.01447,-0.00659*
1,1,0.01450,-0.01447,0.00659*
1,1,0.01450,0.01447,0.00659*
1,1,0.01450,0.01447,-0.00659*
%
%ADD61ROUNDEDRECTD61*%
%ADD62R,0.03950X0.03950*%
%ADD63R,0.04343X0.03556*%
G04:AMPARAMS|DCode=64|XSize=31.62mil|YSize=47.37mil|CornerRadius=6.01mil|HoleSize=0mil|Usage=FLASHONLY|Rotation=90.000|XOffset=0mil|YOffset=0mil|HoleType=Round|Shape=RoundedRectangle|*
%AMROUNDEDRECTD64*
21,1,0.03162,0.03535,0,0,90.0*
21,1,0.01961,0.04737,0,0,90.0*
1,1,0.01202,0.01768,0.00980*
1,1,0.01202,0.01768,-0.00980*
1,1,0.01202,-0.01768,-0.00980*
1,1,0.01202,-0.01768,0.00980*
%
%ADD64ROUNDEDRECTD64*%
%ADD65R,0.06312X0.04737*%
%ADD66R,0.06115X0.06902*%
%ADD67R,0.03950X0.03950*%
%ADD68C,0.07099*%
%ADD69O,0.10800X0.08300*%
%ADD70O,0.05900X0.09900*%
%ADD71C,0.13005*%
%ADD72C,0.09855*%
%ADD73C,0.04993*%
%ADD74C,0.06312*%
%ADD75C,0.06600*%
%ADD76C,0.03162*%
%ADD77C,0.02572*%
G36*
X99713Y68165D02*
X99752D01*
X99824Y68135D01*
X99880Y68080D01*
X99910Y68007D01*
Y67968D01*
X99910Y66885D01*
X99913Y66847D01*
X99943Y66776D01*
X99997Y66722D01*
X100068Y66692D01*
X100106Y66689D01*
X100146Y66689D01*
X100218Y66659D01*
X100273Y66603D01*
X100303Y66531D01*
Y66492D01*
Y62456D01*
X100303Y62417D01*
X100273Y62345D01*
X100218Y62289D01*
X100146Y62260D01*
X100106Y62260D01*
X100106Y62260D01*
X92429Y62260D01*
X92390D01*
X92318Y62289D01*
X92262Y62345D01*
X92232Y62417D01*
X92233Y62456D01*
X92232D01*
X92232Y66492D01*
X92232Y66531D01*
X92262Y66603D01*
X92318Y66659D01*
X92390Y66689D01*
X92429Y66689D01*
Y66689D01*
X92823Y66689D01*
X92861Y66692D01*
X92932Y66722D01*
X92987Y66776D01*
X93016Y66847D01*
X93020Y66885D01*
X93020Y67968D01*
X93020Y68007D01*
X93050Y68080D01*
X93105Y68135D01*
X93177Y68165D01*
X93217D01*
Y68165D01*
X93807Y68165D01*
X93846D01*
X93919Y68135D01*
X93974Y68080D01*
X94004Y68007D01*
Y67968D01*
X94004Y66885D01*
X94008Y66847D01*
X94037Y66776D01*
X94091Y66722D01*
X94162Y66692D01*
X94201Y66689D01*
X94792D01*
X94830Y66692D01*
X94901Y66722D01*
X94955Y66776D01*
X94985Y66847D01*
X94988Y66886D01*
X94988Y67968D01*
X94988Y68007D01*
X95018Y68080D01*
X95074Y68135D01*
X95146Y68165D01*
X95185Y68165D01*
X95185Y68165D01*
X95776Y68165D01*
X95815D01*
X95887Y68135D01*
X95943Y68080D01*
X95973Y68007D01*
Y67968D01*
X95973Y66885D01*
X95976Y66847D01*
X96006Y66776D01*
X96060Y66722D01*
X96131Y66692D01*
X96169Y66689D01*
X96169Y66689D01*
X96760D01*
X96798Y66692D01*
X96869Y66722D01*
X96924Y66776D01*
X96953Y66847D01*
X96957Y66886D01*
X96957D01*
X96957Y67968D01*
X96957Y68007D01*
X96987Y68080D01*
X97042Y68135D01*
X97114Y68165D01*
X97154Y68165D01*
X97154Y68165D01*
X97744Y68165D01*
X97783Y68165D01*
X97856Y68135D01*
X97911Y68080D01*
X97941Y68007D01*
X97941Y67968D01*
X97941D01*
Y66886D01*
X97945Y66847D01*
X97974Y66776D01*
X98029Y66722D01*
X98099Y66692D01*
X98138Y66689D01*
X98729D01*
X98767Y66692D01*
X98838Y66722D01*
X98892Y66776D01*
X98922Y66847D01*
X98925Y66886D01*
X98925Y67968D01*
X98925Y68007D01*
X98955Y68080D01*
X99011Y68135D01*
X99083Y68165D01*
X99122Y68165D01*
X99122Y68165D01*
X99713Y68165D01*
D02*
G37*
G36*
X90179Y68135D02*
X90234Y68080D01*
X90264Y68007D01*
Y67968D01*
Y64031D01*
Y63992D01*
X90234Y63920D01*
X90179Y63864D01*
X90106Y63834D01*
X89437D01*
X89365Y63864D01*
X89310Y63920D01*
X89280Y63992D01*
X89280Y64031D01*
Y64031D01*
Y67968D01*
Y68007D01*
X89310Y68080D01*
X89365Y68135D01*
X89437Y68165D01*
X90106D01*
X90179Y68135D01*
D02*
G37*
G36*
X88099Y68165D02*
X88138D01*
X88210Y68135D01*
X88266Y68080D01*
X88295Y68007D01*
Y67968D01*
Y64031D01*
Y63992D01*
X88266Y63920D01*
X88210Y63864D01*
X88138Y63834D01*
X87469D01*
X87397Y63864D01*
X87341Y63920D01*
X87311Y63992D01*
Y64031D01*
X87311D01*
X87311Y67968D01*
Y68007D01*
X87341Y68080D01*
X87397Y68135D01*
X87469Y68165D01*
X87508D01*
Y68165D01*
X88099Y68165D01*
D02*
G37*
G36*
X85148D02*
X85187D01*
X85259Y68135D01*
X85315Y68080D01*
X85345Y68007D01*
Y67968D01*
Y64031D01*
Y63992D01*
X85315Y63920D01*
X85259Y63864D01*
X85187Y63834D01*
X84026D01*
X83954Y63864D01*
X83898Y63920D01*
X83868Y63992D01*
Y64031D01*
Y67968D01*
Y68007D01*
X83898Y68080D01*
X83954Y68135D01*
X84026Y68165D01*
X84065D01*
Y68165D01*
X85148Y68165D01*
D02*
G37*
G36*
X85750Y62919D02*
X85805Y62863D01*
X85835Y62791D01*
X85835Y62752D01*
Y62161D01*
Y62122D01*
X85805Y62050D01*
X85750Y61994D01*
X85677Y61964D01*
X82843D01*
X82771Y61994D01*
X82715Y62050D01*
X82685Y62122D01*
Y62161D01*
Y62752D01*
Y62791D01*
X82715Y62863D01*
X82771Y62919D01*
X82843Y62948D01*
X85677D01*
X85750Y62919D01*
D02*
G37*
G36*
X88606Y61048D02*
X88661Y60993D01*
X88691Y60921D01*
Y60882D01*
Y60094D01*
Y60055D01*
X88661Y59983D01*
X88606Y59927D01*
X88533Y59897D01*
X82845D01*
X82772Y59927D01*
X82717Y59983D01*
X82687Y60055D01*
Y60094D01*
Y60882D01*
Y60921D01*
X82717Y60993D01*
X82772Y61048D01*
X82845Y61078D01*
X88533D01*
X88606Y61048D01*
D02*
G37*
G36*
X100106Y58716D02*
X100146Y58716D01*
X100218Y58686D01*
X100273Y58631D01*
X100303Y58558D01*
Y58519D01*
Y54484D01*
Y54484D01*
Y54445D01*
X100273Y54372D01*
X100218Y54317D01*
X100146Y54287D01*
X100106D01*
Y54287D01*
X100068Y54283D01*
X99997Y54254D01*
X99943Y54199D01*
X99913Y54129D01*
X99910Y54090D01*
X99910Y53008D01*
X99910Y52968D01*
X99880Y52896D01*
X99824Y52841D01*
X99752Y52811D01*
X99713Y52811D01*
X99122Y52811D01*
X99122D01*
X99083Y52811D01*
X99011Y52841D01*
X98955Y52896D01*
X98925Y52968D01*
X98925Y53008D01*
X98925Y54090D01*
Y54090D01*
X98922Y54129D01*
X98892Y54199D01*
X98838Y54254D01*
X98767Y54283D01*
X98729Y54287D01*
X98138Y54287D01*
Y54287D01*
X98099Y54283D01*
X98029Y54254D01*
X97974Y54199D01*
X97945Y54129D01*
X97941Y54090D01*
X97941Y53008D01*
X97941Y53008D01*
X97941Y52968D01*
X97911Y52896D01*
X97856Y52841D01*
X97783Y52811D01*
X97744Y52811D01*
X97154Y52811D01*
X97154D01*
X97114Y52811D01*
X97042Y52841D01*
X96987Y52896D01*
X96957Y52968D01*
X96957Y53008D01*
X96957Y54090D01*
X96957Y54090D01*
X96953Y54129D01*
X96924Y54199D01*
X96869Y54254D01*
X96798Y54283D01*
X96760Y54287D01*
X96169Y54287D01*
X96169Y54287D01*
X96131Y54283D01*
X96060Y54254D01*
X96006Y54200D01*
X95976Y54129D01*
X95973Y54090D01*
X95973Y53008D01*
X95973Y52968D01*
X95943Y52896D01*
X95887Y52841D01*
X95815Y52811D01*
X95776Y52811D01*
X95185Y52811D01*
X95185D01*
X95146Y52811D01*
X95074Y52841D01*
X95018Y52896D01*
X94988Y52968D01*
X94988Y53008D01*
X94988Y54090D01*
Y54090D01*
X94985Y54129D01*
X94955Y54199D01*
X94901Y54254D01*
X94830Y54283D01*
X94792Y54287D01*
X94201Y54287D01*
X94201Y54287D01*
X94162Y54283D01*
X94091Y54254D01*
X94037Y54200D01*
X94008Y54129D01*
X94004Y54090D01*
X94004Y53008D01*
Y52968D01*
X93974Y52896D01*
X93919Y52841D01*
X93846Y52811D01*
X93807D01*
X93217Y52811D01*
X93177D01*
X93105Y52841D01*
X93050Y52896D01*
X93020Y52968D01*
X93020Y53008D01*
X93020Y54090D01*
Y54090D01*
X93016Y54129D01*
X92987Y54199D01*
X92932Y54254D01*
X92861Y54283D01*
X92823Y54287D01*
X92429Y54287D01*
X92390Y54287D01*
X92318Y54317D01*
X92262Y54372D01*
X92232Y54445D01*
Y54484D01*
X92233Y58519D01*
X92233Y58519D01*
X92233Y58558D01*
X92262Y58631D01*
X92318Y58686D01*
X92390Y58716D01*
X92429D01*
X100106Y58716D01*
X100106Y58716D01*
D02*
G37*
G36*
X85750Y58982D02*
X85805Y58926D01*
X85835Y58854D01*
Y58815D01*
Y58224D01*
Y58185D01*
X85805Y58113D01*
X85750Y58057D01*
X85677Y58027D01*
X82843D01*
X82771Y58057D01*
X82715Y58113D01*
X82685Y58185D01*
Y58224D01*
X82685D01*
X82685Y58815D01*
Y58854D01*
X82715Y58926D01*
X82771Y58982D01*
X82843Y59011D01*
X85677D01*
X85750Y58982D01*
D02*
G37*
G36*
X90179Y57111D02*
X90234Y57056D01*
X90264Y56984D01*
Y56945D01*
Y53008D01*
Y52968D01*
X90234Y52896D01*
X90179Y52841D01*
X90106Y52811D01*
X89437D01*
X89365Y52841D01*
X89310Y52896D01*
X89280Y52968D01*
Y53008D01*
X89280Y56945D01*
Y56984D01*
X89310Y57056D01*
X89365Y57111D01*
X89437Y57141D01*
X90106D01*
X90179Y57111D01*
D02*
G37*
G36*
X88210D02*
X88266Y57056D01*
X88295Y56984D01*
Y56945D01*
Y53008D01*
Y52968D01*
X88266Y52896D01*
X88210Y52841D01*
X88138Y52811D01*
X88099D01*
Y52811D01*
X87508Y52811D01*
X87469D01*
X87397Y52841D01*
X87341Y52896D01*
X87311Y52968D01*
Y53008D01*
X87311D01*
X87311Y56945D01*
Y56984D01*
X87341Y57056D01*
X87397Y57111D01*
X87469Y57141D01*
X88138D01*
X88210Y57111D01*
D02*
G37*
G36*
X85259D02*
X85315Y57056D01*
X85345Y56984D01*
Y56945D01*
Y53008D01*
Y52968D01*
X85315Y52896D01*
X85259Y52841D01*
X85187Y52811D01*
X85148D01*
Y52811D01*
X84065Y52811D01*
X84026D01*
X83954Y52841D01*
X83898Y52896D01*
X83868Y52968D01*
Y53008D01*
Y56945D01*
Y56984D01*
X83898Y57056D01*
X83954Y57111D01*
X84026Y57141D01*
X85187D01*
X85259Y57111D01*
D02*
G37*
D34*
X154398Y22878D02*
D03*
X166209D02*
D03*
D41*
X51614Y79646D02*
D03*
Y89646D02*
D03*
X27126Y79646D02*
D03*
Y89646D02*
D03*
D47*
X90756Y71905D02*
D03*
X85244D02*
D03*
X549031Y152012D02*
D03*
X554543D02*
D03*
X380702Y211455D02*
D03*
X375190D02*
D03*
X538197Y211455D02*
D03*
X532685D02*
D03*
X65587Y217281D02*
D03*
X60075D02*
D03*
X380874D02*
D03*
X375362D02*
D03*
X538369Y217280D02*
D03*
X532857D02*
D03*
X223402Y217281D02*
D03*
X217890D02*
D03*
X410965Y222733D02*
D03*
X405453D02*
D03*
X568460Y222733D02*
D03*
X562948D02*
D03*
X236986Y189497D02*
D03*
X231474D02*
D03*
X234063Y152012D02*
D03*
X228552D02*
D03*
X245087D02*
D03*
X239575D02*
D03*
X217890Y223186D02*
D03*
X223402D02*
D03*
X223229Y211455D02*
D03*
X217718D02*
D03*
X253492Y222733D02*
D03*
X247980D02*
D03*
X229546Y163908D02*
D03*
X235057D02*
D03*
X238625D02*
D03*
X244137D02*
D03*
X71731D02*
D03*
X77242D02*
D03*
X40157Y6299D02*
D03*
X45669D02*
D03*
X264969Y56551D02*
D03*
X270480D02*
D03*
X252370Y71511D02*
D03*
X246858D02*
D03*
X252370Y66393D02*
D03*
X246858D02*
D03*
X150795Y53795D02*
D03*
X156307D02*
D03*
X401609Y163908D02*
D03*
X396097D02*
D03*
X392530D02*
D03*
X387018D02*
D03*
X388947Y189497D02*
D03*
X394459D02*
D03*
X380874Y223186D02*
D03*
X375362D02*
D03*
X386024Y152012D02*
D03*
X391536D02*
D03*
X397048D02*
D03*
X402560D02*
D03*
X546442Y189497D02*
D03*
X551954D02*
D03*
X550025Y163908D02*
D03*
X544513D02*
D03*
X559104D02*
D03*
X553592D02*
D03*
X90362Y49464D02*
D03*
X95874D02*
D03*
X73659Y189497D02*
D03*
X79171D02*
D03*
X81760Y152012D02*
D03*
X87272D02*
D03*
X70737D02*
D03*
X76248D02*
D03*
X65587Y223186D02*
D03*
X60075D02*
D03*
X86322Y163908D02*
D03*
X80810D02*
D03*
X90165Y222733D02*
D03*
X95677D02*
D03*
X59903Y211455D02*
D03*
X65414D02*
D03*
X560054Y152012D02*
D03*
X543519D02*
D03*
X538369Y223186D02*
D03*
X532857D02*
D03*
D48*
X67161Y184623D02*
D03*
X539944Y184623D02*
D03*
X382449Y184623D02*
D03*
X224976D02*
D03*
D49*
X67161Y179623D02*
D03*
Y174623D02*
D03*
Y169623D02*
D03*
X90783D02*
D03*
Y174623D02*
D03*
Y179623D02*
D03*
Y184623D02*
D03*
X539944Y179623D02*
D03*
Y174623D02*
D03*
Y169623D02*
D03*
X563566D02*
D03*
Y174623D02*
D03*
Y179623D02*
D03*
Y184623D02*
D03*
X406071Y184623D02*
D03*
Y179623D02*
D03*
Y174623D02*
D03*
Y169623D02*
D03*
X382449D02*
D03*
Y174623D02*
D03*
Y179623D02*
D03*
X248598Y184623D02*
D03*
Y179623D02*
D03*
Y174623D02*
D03*
Y169623D02*
D03*
X224976D02*
D03*
Y174623D02*
D03*
Y179623D02*
D03*
D50*
X534192Y180418D02*
D03*
Y174355D02*
D03*
X254673Y180418D02*
D03*
Y174355D02*
D03*
X219224Y180418D02*
D03*
Y174355D02*
D03*
X412146D02*
D03*
Y180418D02*
D03*
X376697Y174355D02*
D03*
Y180418D02*
D03*
X96858Y174355D02*
D03*
Y180418D02*
D03*
X61409Y174355D02*
D03*
Y180418D02*
D03*
X569641Y174355D02*
D03*
Y180418D02*
D03*
D51*
X527893Y179749D02*
D03*
Y174631D02*
D03*
X235502Y23075D02*
D03*
Y28193D02*
D03*
X230776Y23075D02*
D03*
Y28193D02*
D03*
X124872Y28981D02*
D03*
Y23863D02*
D03*
X120146Y28980D02*
D03*
Y23862D02*
D03*
X60697Y10870D02*
D03*
Y5752D02*
D03*
X212925Y179749D02*
D03*
Y174631D02*
D03*
X260760Y179749D02*
D03*
Y174631D02*
D03*
X224418Y197878D02*
D03*
Y192760D02*
D03*
X248827Y197878D02*
D03*
Y192760D02*
D03*
X76189Y46511D02*
D03*
Y41393D02*
D03*
Y51630D02*
D03*
Y56748D02*
D03*
X81701Y29189D02*
D03*
Y24070D02*
D03*
X406300Y192760D02*
D03*
Y197878D02*
D03*
X418232Y174631D02*
D03*
Y179749D02*
D03*
X370398Y174631D02*
D03*
Y179749D02*
D03*
X381890Y192760D02*
D03*
Y197878D02*
D03*
X76189Y71315D02*
D03*
Y76433D02*
D03*
X102945Y174631D02*
D03*
Y179749D02*
D03*
X91012Y192760D02*
D03*
Y197878D02*
D03*
X55110Y174631D02*
D03*
Y179749D02*
D03*
X575727Y174631D02*
D03*
Y179749D02*
D03*
X539385Y192760D02*
D03*
Y197878D02*
D03*
X563795Y192760D02*
D03*
Y197878D02*
D03*
X66603Y197878D02*
D03*
Y192760D02*
D03*
D52*
X145677Y43952D02*
D03*
Y36078D02*
D03*
X153697Y43952D02*
D03*
Y36078D02*
D03*
X117331Y194387D02*
D03*
Y202261D02*
D03*
X275146Y194387D02*
D03*
Y202261D02*
D03*
X432618Y194387D02*
D03*
Y202261D02*
D03*
X590113Y194386D02*
D03*
Y202260D02*
D03*
X110244Y194387D02*
D03*
Y202261D02*
D03*
X268059Y194387D02*
D03*
Y202261D02*
D03*
X425531Y194387D02*
D03*
Y202261D02*
D03*
X583027Y194386D02*
D03*
Y202260D02*
D03*
X122252Y55763D02*
D03*
Y63637D02*
D03*
X129732Y55763D02*
D03*
Y63637D02*
D03*
X114378Y55763D02*
D03*
Y63637D02*
D03*
X106898Y55763D02*
D03*
Y63637D02*
D03*
X214969Y46314D02*
D03*
Y38440D02*
D03*
X223236Y46314D02*
D03*
Y38440D02*
D03*
X198433Y46314D02*
D03*
Y38440D02*
D03*
X206701Y46314D02*
D03*
Y38440D02*
D03*
X190165Y46314D02*
D03*
Y38440D02*
D03*
D53*
X181306Y51826D02*
D03*
Y54385D02*
D03*
Y56944D02*
D03*
Y59503D02*
D03*
Y62062D02*
D03*
X162802D02*
D03*
Y59503D02*
D03*
Y56944D02*
D03*
Y54385D02*
D03*
Y51826D02*
D03*
D54*
X177172Y66196D02*
D03*
X174613D02*
D03*
X172054D02*
D03*
X169495D02*
D03*
X166936D02*
D03*
Y47692D02*
D03*
X169495D02*
D03*
X172054D02*
D03*
X174613D02*
D03*
X177172D02*
D03*
D55*
X172054Y56944D02*
D03*
D56*
X64339Y94236D02*
D03*
X75953D02*
D03*
X64339Y104965D02*
D03*
X75953D02*
D03*
X27725Y52406D02*
D03*
X39339D02*
D03*
X56268Y30654D02*
D03*
X44654D02*
D03*
X27725Y63036D02*
D03*
X39339D02*
D03*
X27725Y41776D02*
D03*
X39339D02*
D03*
X56268Y41776D02*
D03*
X44654D02*
D03*
X56268Y52406D02*
D03*
X44654D02*
D03*
X56268Y63036D02*
D03*
X44654D02*
D03*
X27725Y30654D02*
D03*
X39339D02*
D03*
X101287Y30124D02*
D03*
X89673D02*
D03*
X101287Y19051D02*
D03*
X89673D02*
D03*
X101287Y41196D02*
D03*
X89673D02*
D03*
D57*
X411803Y214466D02*
D03*
X393248D02*
D03*
X569298Y214465D02*
D03*
X550743D02*
D03*
X264568Y144036D02*
D03*
X210236Y144036D02*
D03*
X228118D02*
D03*
X246001D02*
D03*
X210579Y197580D02*
D03*
X235776Y214466D02*
D03*
X254331D02*
D03*
X77961D02*
D03*
X96516D02*
D03*
X106753Y144036D02*
D03*
X422040D02*
D03*
X579535Y144036D02*
D03*
X52764Y197580D02*
D03*
X368051D02*
D03*
X525546Y197579D02*
D03*
X52421Y144036D02*
D03*
X367709D02*
D03*
X524536Y144036D02*
D03*
X70303Y144036D02*
D03*
X385591D02*
D03*
X543086Y144036D02*
D03*
X88186Y144036D02*
D03*
X403473D02*
D03*
X560968Y144036D02*
D03*
D58*
X239851Y158311D02*
D03*
X233788D02*
D03*
X391260D02*
D03*
X397323D02*
D03*
X75973D02*
D03*
X82036D02*
D03*
X548755Y158311D02*
D03*
X554818D02*
D03*
D59*
X250008Y158311D02*
D03*
X244890D02*
D03*
X223630Y158311D02*
D03*
X228748D02*
D03*
X66012Y5949D02*
D03*
X71130D02*
D03*
X195874Y78598D02*
D03*
X190756D02*
D03*
X195874Y61275D02*
D03*
X190756D02*
D03*
X195874Y66787D02*
D03*
X190756D02*
D03*
X190756Y72693D02*
D03*
X195874D02*
D03*
X177173Y77811D02*
D03*
X172055D02*
D03*
X80709Y35039D02*
D03*
X75590D02*
D03*
X90166Y77811D02*
D03*
X85047D02*
D03*
X154929Y64031D02*
D03*
X149811D02*
D03*
X161425Y77811D02*
D03*
X166543D02*
D03*
X149811Y70724D02*
D03*
X154929D02*
D03*
X402363Y158311D02*
D03*
X407481D02*
D03*
X386221Y158311D02*
D03*
X381103D02*
D03*
X87075Y158311D02*
D03*
X92193D02*
D03*
X559858Y158311D02*
D03*
X564976D02*
D03*
X543716Y158311D02*
D03*
X538598D02*
D03*
X70933Y158311D02*
D03*
X65815D02*
D03*
D60*
X69359Y45713D02*
D03*
X257855Y71511D02*
D03*
X118571Y35476D02*
D03*
X233532Y34689D02*
D03*
X129339Y10488D02*
D03*
D61*
X76189Y66905D02*
D03*
Y61157D02*
D03*
D62*
X82744Y5949D02*
D03*
X76445D02*
D03*
D63*
X253551Y47496D02*
D03*
Y41984D02*
D03*
X258669Y47496D02*
D03*
Y41984D02*
D03*
D64*
X257784Y60291D02*
D03*
Y56551D02*
D03*
Y52811D02*
D03*
X246957D02*
D03*
Y56551D02*
D03*
Y60291D02*
D03*
D65*
X233079Y46708D02*
D03*
X243315D02*
D03*
X124811Y46708D02*
D03*
X135047D02*
D03*
X69103Y16787D02*
D03*
X79339D02*
D03*
D66*
X250795Y78598D02*
D03*
X242921D02*
D03*
D67*
X233413Y9886D02*
D03*
Y16185D02*
D03*
X122884Y10094D02*
D03*
Y16393D02*
D03*
D68*
X582441Y344331D02*
D03*
X572441D02*
D03*
X592441D02*
D03*
X572441Y354331D02*
D03*
Y364331D02*
D03*
X582441D02*
D03*
X592441D02*
D03*
Y354331D02*
D03*
X582441D02*
D03*
X267480Y344331D02*
D03*
X257480D02*
D03*
X277480D02*
D03*
X257480Y354331D02*
D03*
Y364331D02*
D03*
X267480D02*
D03*
X277480D02*
D03*
Y354331D02*
D03*
X267480D02*
D03*
X110000D02*
D03*
X120000D02*
D03*
Y364331D02*
D03*
X110000D02*
D03*
X100000D02*
D03*
Y354331D02*
D03*
X120000Y344331D02*
D03*
X100000D02*
D03*
X110000D02*
D03*
X424961D02*
D03*
X414961D02*
D03*
X434961D02*
D03*
X414961Y354331D02*
D03*
Y364331D02*
D03*
X424961D02*
D03*
X434961D02*
D03*
Y354331D02*
D03*
X424961D02*
D03*
X519921Y344331D02*
D03*
X509921D02*
D03*
X529921D02*
D03*
X509921Y354331D02*
D03*
Y364331D02*
D03*
X519921D02*
D03*
X529921D02*
D03*
Y354331D02*
D03*
X519921D02*
D03*
X204961D02*
D03*
X214961D02*
D03*
Y364331D02*
D03*
X204961D02*
D03*
X194961D02*
D03*
Y354331D02*
D03*
X214961Y344331D02*
D03*
X194961D02*
D03*
X204961D02*
D03*
X47480D02*
D03*
X37480D02*
D03*
X57480D02*
D03*
X37480Y354331D02*
D03*
Y364331D02*
D03*
X47480D02*
D03*
X57480D02*
D03*
Y354331D02*
D03*
X47480D02*
D03*
X362441Y344331D02*
D03*
X352441D02*
D03*
X372441D02*
D03*
X352441Y354331D02*
D03*
Y364331D02*
D03*
X362441D02*
D03*
X372441D02*
D03*
Y354331D02*
D03*
X362441D02*
D03*
D69*
X211024Y287598D02*
D03*
X261024Y267598D02*
D03*
Y277599D02*
D03*
X211024D02*
D03*
Y267598D02*
D03*
X261024Y287598D02*
D03*
X211024Y307598D02*
D03*
X261024Y297599D02*
D03*
X211024D02*
D03*
X261024Y307598D02*
D03*
X53543Y287598D02*
D03*
X103543Y267598D02*
D03*
Y277599D02*
D03*
X53543D02*
D03*
Y267598D02*
D03*
X103543Y287598D02*
D03*
X53543Y307598D02*
D03*
X103543Y297599D02*
D03*
X53543D02*
D03*
X103543Y307598D02*
D03*
X575984D02*
D03*
X525984Y297599D02*
D03*
X575984D02*
D03*
X525984Y307598D02*
D03*
X575984Y287598D02*
D03*
X525984Y267598D02*
D03*
Y277599D02*
D03*
X575984D02*
D03*
Y267598D02*
D03*
X525984Y287598D02*
D03*
X418504Y307598D02*
D03*
X368504Y297599D02*
D03*
X418504D02*
D03*
X368504Y307598D02*
D03*
X418504Y287598D02*
D03*
X368504Y267598D02*
D03*
Y277599D02*
D03*
X418504D02*
D03*
Y267598D02*
D03*
X368504Y287598D02*
D03*
D70*
X239961Y237598D02*
D03*
X224213D02*
D03*
X247835D02*
D03*
X232087D02*
D03*
X82480D02*
D03*
X66732D02*
D03*
X90354D02*
D03*
X74606D02*
D03*
X547047D02*
D03*
X562795D02*
D03*
X539173D02*
D03*
X554921D02*
D03*
X389567D02*
D03*
X405315D02*
D03*
X381693D02*
D03*
X397441D02*
D03*
D71*
X13780Y218504D02*
D03*
X616142Y13780D02*
D03*
Y218504D02*
D03*
X13780Y13780D02*
D03*
D72*
X416339Y8071D02*
D03*
X355413D02*
D03*
D73*
X408425Y19852D02*
D03*
X363425D02*
D03*
D74*
X403406Y54852D02*
D03*
X398406Y44852D02*
D03*
X393406Y54852D02*
D03*
X388405Y44852D02*
D03*
X383405Y54852D02*
D03*
X378405Y44852D02*
D03*
X373406Y54852D02*
D03*
X368406Y44852D02*
D03*
D75*
X49556Y16185D02*
D03*
X39555D02*
D03*
D76*
X166209Y42169D02*
D03*
X172103Y56913D02*
D03*
X176516Y53279D02*
D03*
X167855D02*
D03*
Y60956D02*
D03*
X176516D02*
D03*
X174170Y42563D02*
D03*
X170626D02*
D03*
X102036Y53980D02*
D03*
X190001Y50788D02*
D03*
X145343Y31539D02*
D03*
X80323Y107092D02*
D03*
Y102761D02*
D03*
Y91689D02*
D03*
Y96019D02*
D03*
X16996Y88626D02*
D03*
X17390Y78784D02*
D03*
X87329Y5738D02*
D03*
X198662Y50788D02*
D03*
X233138Y50831D02*
D03*
X206451Y50788D02*
D03*
X214959D02*
D03*
X223465D02*
D03*
X128020Y68941D02*
D03*
X131170D02*
D03*
X120540D02*
D03*
X123689D02*
D03*
X112666D02*
D03*
X115815D02*
D03*
X93689Y77996D02*
D03*
X72114Y56736D02*
D03*
X71721Y61067D02*
D03*
X81170Y41382D02*
D03*
X60638Y54582D02*
D03*
Y50252D02*
D03*
Y43509D02*
D03*
Y39179D02*
D03*
Y28106D02*
D03*
Y32437D02*
D03*
X60638Y61374D02*
D03*
Y65704D02*
D03*
X23355Y27985D02*
D03*
Y32315D02*
D03*
X23355Y61252D02*
D03*
Y65583D02*
D03*
Y54510D02*
D03*
Y50180D02*
D03*
Y43438D02*
D03*
Y39107D02*
D03*
X96918Y17268D02*
D03*
Y21599D02*
D03*
Y28341D02*
D03*
Y32671D02*
D03*
X71653Y35039D02*
D03*
X72114Y51618D02*
D03*
X76051Y80752D02*
D03*
X94555Y72091D02*
D03*
X108335Y68941D02*
D03*
X105185D02*
D03*
X150818Y58149D02*
D03*
X177196Y82952D02*
D03*
X227984Y9724D02*
D03*
X129558Y5787D02*
D03*
X118141Y9724D02*
D03*
X99637Y49487D02*
D03*
X96918Y43744D02*
D03*
Y39413D02*
D03*
X101642Y11461D02*
D03*
X27590Y22716D02*
D03*
X37008Y6299D02*
D03*
X29989Y72091D02*
D03*
X24477D02*
D03*
X25606Y93646D02*
D03*
X31118D02*
D03*
X199674Y66841D02*
D03*
Y61067D02*
D03*
Y78390D02*
D03*
Y72615D02*
D03*
X157548Y77602D02*
D03*
X172508Y70910D02*
D03*
X186620Y79112D02*
D03*
X549674Y169728D02*
D03*
X392193Y168941D02*
D03*
X76839Y169335D02*
D03*
X197875Y33465D02*
D03*
X189214D02*
D03*
X205664D02*
D03*
X547593Y229426D02*
D03*
X551196Y174846D02*
D03*
X577908Y194386D02*
D03*
X594890Y194526D02*
D03*
X390098Y229426D02*
D03*
X393701Y174846D02*
D03*
X420413Y194387D02*
D03*
X437395Y194526D02*
D03*
X232626Y229426D02*
D03*
X236229Y174846D02*
D03*
X235048Y168154D02*
D03*
X262941Y194387D02*
D03*
X279922Y194526D02*
D03*
X78414Y174846D02*
D03*
X74811Y229426D02*
D03*
X105126Y194387D02*
D03*
X122107Y194526D02*
D03*
X139831Y35476D02*
D03*
X182745Y38232D02*
D03*
X214171Y33465D02*
D03*
X222678D02*
D03*
X146130Y63823D02*
D03*
X149674Y75634D02*
D03*
X177233Y72878D02*
D03*
X155914Y58519D02*
D03*
D77*
X89810Y60488D02*
D03*
X87555D02*
D03*
M02*
