G04*
G04 #@! TF.GenerationSoftware,Altium Limited,Altium Designer,25.4.2 (15)*
G04*
G04 Layer_Color=8421504*
%FSLAX25Y25*%
%MOIN*%
G70*
G04*
G04 #@! TF.SameCoordinates,336B1F89-BFE6-4481-99DC-D24D03349B4C*
G04*
G04*
G04 #@! TF.FilePolarity,Positive*
G04*
G01*
G75*
%ADD25R,0.02756X0.03543*%
%ADD26R,0.04803X0.02610*%
%ADD27O,0.04803X0.02610*%
G04:AMPARAMS|DCode=28|XSize=27.95mil|YSize=34.65mil|CornerRadius=4.61mil|HoleSize=0mil|Usage=FLASHONLY|Rotation=90.000|XOffset=0mil|YOffset=0mil|HoleType=Round|Shape=RoundedRectangle|*
%AMROUNDEDRECTD28*
21,1,0.02795,0.02542,0,0,90.0*
21,1,0.01873,0.03465,0,0,90.0*
1,1,0.00922,0.01271,0.00936*
1,1,0.00922,0.01271,-0.00936*
1,1,0.00922,-0.01271,-0.00936*
1,1,0.00922,-0.01271,0.00936*
%
%ADD28ROUNDEDRECTD28*%
%ADD29R,0.03740X0.03347*%
%ADD30R,0.06102X0.05315*%
%ADD31R,0.04134X0.01378*%
%ADD32R,0.01378X0.04134*%
%ADD33R,0.12795X0.12795*%
%ADD34R,0.06299X0.10630*%
G04:AMPARAMS|DCode=35|XSize=45.67mil|YSize=107.09mil|CornerRadius=7.54mil|HoleSize=0mil|Usage=FLASHONLY|Rotation=0.000|XOffset=0mil|YOffset=0mil|HoleType=Round|Shape=RoundedRectangle|*
%AMROUNDEDRECTD35*
21,1,0.04567,0.09202,0,0,0.0*
21,1,0.03060,0.10709,0,0,0.0*
1,1,0.01507,0.01530,-0.04601*
1,1,0.01507,-0.01530,-0.04601*
1,1,0.01507,-0.01530,0.04601*
1,1,0.01507,0.01530,0.04601*
%
%ADD35ROUNDEDRECTD35*%
%ADD36R,0.14961X0.07992*%
G04:AMPARAMS|DCode=37|XSize=27.95mil|YSize=34.65mil|CornerRadius=4.61mil|HoleSize=0mil|Usage=FLASHONLY|Rotation=0.000|XOffset=0mil|YOffset=0mil|HoleType=Round|Shape=RoundedRectangle|*
%AMROUNDEDRECTD37*
21,1,0.02795,0.02542,0,0,0.0*
21,1,0.01873,0.03465,0,0,0.0*
1,1,0.00922,0.00936,-0.01271*
1,1,0.00922,-0.00936,-0.01271*
1,1,0.00922,-0.00936,0.01271*
1,1,0.00922,0.00936,0.01271*
%
%ADD37ROUNDEDRECTD37*%
%ADD38R,0.03347X0.03740*%
G04:AMPARAMS|DCode=39|XSize=19.68mil|YSize=35.43mil|CornerRadius=3.25mil|HoleSize=0mil|Usage=FLASHONLY|Rotation=270.000|XOffset=0mil|YOffset=0mil|HoleType=Round|Shape=RoundedRectangle|*
%AMROUNDEDRECTD39*
21,1,0.01968,0.02894,0,0,270.0*
21,1,0.01319,0.03543,0,0,270.0*
1,1,0.00650,-0.01447,-0.00659*
1,1,0.00650,-0.01447,0.00659*
1,1,0.00650,0.01447,0.00659*
1,1,0.00650,0.01447,-0.00659*
%
%ADD39ROUNDEDRECTD39*%
%ADD40R,0.03150X0.03150*%
%ADD41R,0.15512X0.05000*%
%ADD42R,0.03543X0.02756*%
G04:AMPARAMS|DCode=43|XSize=23.62mil|YSize=39.37mil|CornerRadius=2.01mil|HoleSize=0mil|Usage=FLASHONLY|Rotation=90.000|XOffset=0mil|YOffset=0mil|HoleType=Round|Shape=RoundedRectangle|*
%AMROUNDEDRECTD43*
21,1,0.02362,0.03535,0,0,90.0*
21,1,0.01961,0.03937,0,0,90.0*
1,1,0.00402,0.01768,0.00980*
1,1,0.00402,0.01768,-0.00980*
1,1,0.00402,-0.01768,-0.00980*
1,1,0.00402,-0.01768,0.00980*
%
%ADD43ROUNDEDRECTD43*%
%ADD44R,0.05512X0.03937*%
%ADD45R,0.05315X0.06102*%
%ADD46R,0.03150X0.03150*%
G36*
X99824Y68133D02*
X99880Y68078D01*
X99910Y68005D01*
Y67966D01*
Y66883D01*
Y66844D01*
X99880Y66772D01*
X99824Y66717D01*
X99752Y66687D01*
X99083D01*
X99011Y66717D01*
X98955Y66772D01*
X98925Y66844D01*
Y66883D01*
Y67966D01*
Y68005D01*
X98955Y68078D01*
X99011Y68133D01*
X99083Y68163D01*
X99752D01*
X99824Y68133D01*
D02*
G37*
G36*
X97856D02*
X97911Y68078D01*
X97941Y68005D01*
Y67966D01*
Y66883D01*
Y66844D01*
X97911Y66772D01*
X97856Y66717D01*
X97783Y66687D01*
X97114D01*
X97042Y66717D01*
X96987Y66772D01*
X96957Y66844D01*
Y66883D01*
Y67966D01*
Y68005D01*
X96987Y68078D01*
X97042Y68133D01*
X97114Y68163D01*
X97783D01*
X97856Y68133D01*
D02*
G37*
G36*
X95887D02*
X95943Y68078D01*
X95973Y68005D01*
Y67966D01*
Y66883D01*
Y66844D01*
X95943Y66772D01*
X95887Y66717D01*
X95815Y66687D01*
X95146D01*
X95074Y66717D01*
X95018Y66772D01*
X94988Y66844D01*
Y66883D01*
Y67966D01*
Y68005D01*
X95018Y68078D01*
X95074Y68133D01*
X95146Y68163D01*
X95815D01*
X95887Y68133D01*
D02*
G37*
G36*
X93919D02*
X93974Y68078D01*
X94004Y68005D01*
Y67966D01*
Y66883D01*
Y66844D01*
X93974Y66772D01*
X93919Y66717D01*
X93846Y66687D01*
X93177D01*
X93105Y66717D01*
X93050Y66772D01*
X93020Y66844D01*
Y66883D01*
Y67966D01*
Y68005D01*
X93050Y68078D01*
X93105Y68133D01*
X93177Y68163D01*
X93846D01*
X93919Y68133D01*
D02*
G37*
G36*
X90179Y68135D02*
X90234Y68080D01*
X90264Y68007D01*
Y67968D01*
Y64031D01*
Y63992D01*
X90234Y63920D01*
X90179Y63864D01*
X90106Y63834D01*
X89437D01*
X89365Y63864D01*
X89310Y63920D01*
X89280Y63992D01*
X89280Y64031D01*
Y64031D01*
Y67968D01*
Y68007D01*
X89310Y68080D01*
X89365Y68135D01*
X89437Y68165D01*
X90106D01*
X90179Y68135D01*
D02*
G37*
G36*
X88099Y68165D02*
X88138D01*
X88210Y68135D01*
X88266Y68080D01*
X88295Y68007D01*
Y67968D01*
Y64031D01*
Y63992D01*
X88266Y63920D01*
X88210Y63864D01*
X88138Y63834D01*
X87469D01*
X87397Y63864D01*
X87341Y63920D01*
X87311Y63992D01*
Y64031D01*
X87311D01*
X87311Y67968D01*
Y68007D01*
X87341Y68080D01*
X87397Y68135D01*
X87469Y68165D01*
X87508D01*
Y68165D01*
X88099Y68165D01*
D02*
G37*
G36*
X85148D02*
X85187D01*
X85259Y68135D01*
X85315Y68080D01*
X85345Y68007D01*
Y67968D01*
Y64031D01*
Y63992D01*
X85315Y63920D01*
X85259Y63864D01*
X85187Y63834D01*
X84026D01*
X83954Y63864D01*
X83898Y63920D01*
X83868Y63992D01*
Y64031D01*
Y67968D01*
Y68007D01*
X83898Y68080D01*
X83954Y68135D01*
X84026Y68165D01*
X84065D01*
Y68165D01*
X85148Y68165D01*
D02*
G37*
G36*
X100228Y65891D02*
X100283Y65835D01*
X100313Y65763D01*
Y65724D01*
Y62456D01*
Y62417D01*
X100283Y62345D01*
X100228Y62289D01*
X100155Y62260D01*
X98443D01*
X98371Y62289D01*
X98316Y62345D01*
X98286Y62417D01*
Y62456D01*
Y65724D01*
Y65763D01*
X98316Y65835D01*
X98371Y65891D01*
X98443Y65921D01*
X100155D01*
X100228Y65891D01*
D02*
G37*
G36*
X97403D02*
X97458Y65835D01*
X97488Y65763D01*
Y65724D01*
Y62456D01*
Y62417D01*
X97458Y62345D01*
X97403Y62289D01*
X97331Y62260D01*
X95205D01*
X95133Y62289D01*
X95077Y62345D01*
X95047Y62417D01*
Y62456D01*
Y65724D01*
Y65763D01*
X95077Y65835D01*
X95133Y65891D01*
X95205Y65921D01*
X97331D01*
X97403Y65891D01*
D02*
G37*
G36*
X94184D02*
X94240Y65835D01*
X94270Y65763D01*
Y65724D01*
Y62456D01*
Y62417D01*
X94240Y62345D01*
X94184Y62289D01*
X94112Y62260D01*
X92400D01*
X92328Y62289D01*
X92272Y62345D01*
X92242Y62417D01*
Y62456D01*
Y65724D01*
Y65763D01*
X92272Y65835D01*
X92328Y65891D01*
X92400Y65921D01*
X94112D01*
X94184Y65891D01*
D02*
G37*
G36*
X85750Y62919D02*
X85805Y62863D01*
X85835Y62791D01*
X85835Y62752D01*
Y62161D01*
Y62122D01*
X85805Y62050D01*
X85750Y61994D01*
X85677Y61964D01*
X82843D01*
X82771Y61994D01*
X82715Y62050D01*
X82685Y62122D01*
Y62161D01*
Y62752D01*
Y62791D01*
X82715Y62863D01*
X82771Y62919D01*
X82843Y62948D01*
X85677D01*
X85750Y62919D01*
D02*
G37*
G36*
X88606Y61048D02*
X88661Y60993D01*
X88691Y60921D01*
Y60882D01*
Y60094D01*
Y60055D01*
X88661Y59983D01*
X88606Y59927D01*
X88533Y59897D01*
X82845D01*
X82772Y59927D01*
X82717Y59983D01*
X82687Y60055D01*
Y60094D01*
Y60882D01*
Y60921D01*
X82717Y60993D01*
X82772Y61048D01*
X82845Y61078D01*
X88533D01*
X88606Y61048D01*
D02*
G37*
G36*
X85750Y58982D02*
X85805Y58926D01*
X85835Y58854D01*
Y58815D01*
Y58224D01*
Y58185D01*
X85805Y58113D01*
X85750Y58057D01*
X85677Y58027D01*
X82843D01*
X82771Y58057D01*
X82715Y58113D01*
X82685Y58185D01*
Y58224D01*
X82685D01*
X82685Y58815D01*
Y58854D01*
X82715Y58926D01*
X82771Y58982D01*
X82843Y59011D01*
X85677D01*
X85750Y58982D01*
D02*
G37*
G36*
X100228Y58686D02*
X100283Y58631D01*
X100313Y58558D01*
Y58519D01*
Y55252D01*
Y55212D01*
X100283Y55140D01*
X100228Y55085D01*
X100155Y55055D01*
X98443D01*
X98371Y55085D01*
X98316Y55140D01*
X98286Y55212D01*
Y55252D01*
Y58519D01*
Y58558D01*
X98316Y58631D01*
X98371Y58686D01*
X98443Y58716D01*
X100155D01*
X100228Y58686D01*
D02*
G37*
G36*
X97403D02*
X97458Y58631D01*
X97488Y58558D01*
Y58519D01*
Y55252D01*
Y55212D01*
X97458Y55140D01*
X97403Y55085D01*
X97331Y55055D01*
X95205D01*
X95133Y55085D01*
X95077Y55140D01*
X95047Y55212D01*
Y55252D01*
Y58519D01*
Y58558D01*
X95077Y58631D01*
X95133Y58686D01*
X95205Y58716D01*
X97331D01*
X97403Y58686D01*
D02*
G37*
G36*
X94184D02*
X94240Y58631D01*
X94270Y58558D01*
Y58519D01*
Y55252D01*
Y55212D01*
X94240Y55140D01*
X94184Y55085D01*
X94112Y55055D01*
X92400D01*
X92328Y55085D01*
X92272Y55140D01*
X92242Y55212D01*
Y55252D01*
Y58519D01*
Y58558D01*
X92272Y58631D01*
X92328Y58686D01*
X92400Y58716D01*
X94112D01*
X94184Y58686D01*
D02*
G37*
G36*
X99824Y54259D02*
X99880Y54204D01*
X99910Y54131D01*
Y54092D01*
Y53009D01*
Y52970D01*
X99880Y52898D01*
X99824Y52843D01*
X99752Y52813D01*
X99083D01*
X99011Y52843D01*
X98955Y52898D01*
X98925Y52970D01*
Y53009D01*
Y54092D01*
Y54131D01*
X98955Y54204D01*
X99011Y54259D01*
X99083Y54289D01*
X99752D01*
X99824Y54259D01*
D02*
G37*
G36*
X97856D02*
X97911Y54204D01*
X97941Y54131D01*
Y54092D01*
Y53009D01*
Y52970D01*
X97911Y52898D01*
X97856Y52843D01*
X97783Y52813D01*
X97114D01*
X97042Y52843D01*
X96987Y52898D01*
X96957Y52970D01*
Y53009D01*
Y54092D01*
Y54131D01*
X96987Y54204D01*
X97042Y54259D01*
X97114Y54289D01*
X97783D01*
X97856Y54259D01*
D02*
G37*
G36*
X95887D02*
X95943Y54204D01*
X95973Y54131D01*
Y54092D01*
Y53009D01*
Y52970D01*
X95943Y52898D01*
X95887Y52843D01*
X95815Y52813D01*
X95146D01*
X95074Y52843D01*
X95018Y52898D01*
X94988Y52970D01*
Y53009D01*
Y54092D01*
Y54131D01*
X95018Y54204D01*
X95074Y54259D01*
X95146Y54289D01*
X95815D01*
X95887Y54259D01*
D02*
G37*
G36*
X93919D02*
X93974Y54204D01*
X94004Y54131D01*
Y54092D01*
Y53009D01*
Y52970D01*
X93974Y52898D01*
X93919Y52843D01*
X93846Y52813D01*
X93177D01*
X93105Y52843D01*
X93050Y52898D01*
X93020Y52970D01*
Y53009D01*
Y54092D01*
Y54131D01*
X93050Y54204D01*
X93105Y54259D01*
X93177Y54289D01*
X93846D01*
X93919Y54259D01*
D02*
G37*
G36*
X90179Y57111D02*
X90234Y57056D01*
X90264Y56984D01*
Y56945D01*
Y53008D01*
Y52968D01*
X90234Y52896D01*
X90179Y52841D01*
X90106Y52811D01*
X89437D01*
X89365Y52841D01*
X89310Y52896D01*
X89280Y52968D01*
Y53008D01*
X89280Y56945D01*
Y56984D01*
X89310Y57056D01*
X89365Y57111D01*
X89437Y57141D01*
X90106D01*
X90179Y57111D01*
D02*
G37*
G36*
X88210D02*
X88266Y57056D01*
X88295Y56984D01*
Y56945D01*
Y53008D01*
Y52968D01*
X88266Y52896D01*
X88210Y52841D01*
X88138Y52811D01*
X88099D01*
Y52811D01*
X87508Y52811D01*
X87469D01*
X87397Y52841D01*
X87341Y52896D01*
X87311Y52968D01*
Y53008D01*
X87311D01*
X87311Y56945D01*
Y56984D01*
X87341Y57056D01*
X87397Y57111D01*
X87469Y57141D01*
X88138D01*
X88210Y57111D01*
D02*
G37*
G36*
X85259D02*
X85315Y57056D01*
X85345Y56984D01*
Y56945D01*
Y53008D01*
Y52968D01*
X85315Y52896D01*
X85259Y52841D01*
X85187Y52811D01*
X85148D01*
Y52811D01*
X84065Y52811D01*
X84026D01*
X83954Y52841D01*
X83898Y52896D01*
X83868Y52968D01*
Y53008D01*
Y56945D01*
Y56984D01*
X83898Y57056D01*
X83954Y57111D01*
X84026Y57141D01*
X85187D01*
X85259Y57111D01*
D02*
G37*
D25*
X90756Y71905D02*
D03*
X85244D02*
D03*
X549031Y152012D02*
D03*
X554543D02*
D03*
X380702Y211455D02*
D03*
X375190D02*
D03*
X538197Y211455D02*
D03*
X532685D02*
D03*
X65587Y217281D02*
D03*
X60075D02*
D03*
X380874D02*
D03*
X375362D02*
D03*
X538369Y217280D02*
D03*
X532857D02*
D03*
X223402Y217281D02*
D03*
X217890D02*
D03*
X410965Y222733D02*
D03*
X405453D02*
D03*
X568460Y222733D02*
D03*
X562948D02*
D03*
X236986Y189497D02*
D03*
X231474D02*
D03*
X234063Y152012D02*
D03*
X228552D02*
D03*
X245087D02*
D03*
X239575D02*
D03*
X217890Y223186D02*
D03*
X223402D02*
D03*
X223229Y211455D02*
D03*
X217718D02*
D03*
X253492Y222733D02*
D03*
X247980D02*
D03*
X229546Y163908D02*
D03*
X235057D02*
D03*
X238625D02*
D03*
X244137D02*
D03*
X71731D02*
D03*
X77242D02*
D03*
X40157Y6299D02*
D03*
X45669D02*
D03*
X264969Y56551D02*
D03*
X270480D02*
D03*
X252370Y71511D02*
D03*
X246858D02*
D03*
X252370Y66393D02*
D03*
X246858D02*
D03*
X150795Y53795D02*
D03*
X156307D02*
D03*
X401609Y163908D02*
D03*
X396097D02*
D03*
X392530D02*
D03*
X387018D02*
D03*
X388947Y189497D02*
D03*
X394459D02*
D03*
X380874Y223186D02*
D03*
X375362D02*
D03*
X386024Y152012D02*
D03*
X391536D02*
D03*
X397048D02*
D03*
X402560D02*
D03*
X546442Y189497D02*
D03*
X551954D02*
D03*
X550025Y163908D02*
D03*
X544513D02*
D03*
X559104D02*
D03*
X553592D02*
D03*
X90362Y49464D02*
D03*
X95874D02*
D03*
X73659Y189497D02*
D03*
X79171D02*
D03*
X81760Y152012D02*
D03*
X87272D02*
D03*
X70737D02*
D03*
X76248D02*
D03*
X65587Y223186D02*
D03*
X60075D02*
D03*
X86322Y163908D02*
D03*
X80810D02*
D03*
X90165Y222733D02*
D03*
X95677D02*
D03*
X59903Y211455D02*
D03*
X65414D02*
D03*
X560054Y152012D02*
D03*
X543519D02*
D03*
X538369Y223186D02*
D03*
X532857D02*
D03*
D26*
X67161Y184623D02*
D03*
X539944Y184623D02*
D03*
X382449Y184623D02*
D03*
X224976D02*
D03*
D27*
X67161Y179623D02*
D03*
Y174623D02*
D03*
Y169623D02*
D03*
X90783D02*
D03*
Y174623D02*
D03*
Y179623D02*
D03*
Y184623D02*
D03*
X539944Y179623D02*
D03*
Y174623D02*
D03*
Y169623D02*
D03*
X563566D02*
D03*
Y174623D02*
D03*
Y179623D02*
D03*
Y184623D02*
D03*
X406071Y184623D02*
D03*
Y179623D02*
D03*
Y174623D02*
D03*
Y169623D02*
D03*
X382449D02*
D03*
Y174623D02*
D03*
Y179623D02*
D03*
X248598Y184623D02*
D03*
Y179623D02*
D03*
Y174623D02*
D03*
Y169623D02*
D03*
X224976D02*
D03*
Y174623D02*
D03*
Y179623D02*
D03*
D28*
X534192Y180418D02*
D03*
Y174355D02*
D03*
X254673Y180418D02*
D03*
Y174355D02*
D03*
X219224Y180418D02*
D03*
Y174355D02*
D03*
X412146D02*
D03*
Y180418D02*
D03*
X376697Y174355D02*
D03*
Y180418D02*
D03*
X96858Y174355D02*
D03*
Y180418D02*
D03*
X61409Y174355D02*
D03*
Y180418D02*
D03*
X569641Y174355D02*
D03*
Y180418D02*
D03*
D29*
X527893Y179749D02*
D03*
Y174631D02*
D03*
X235502Y23075D02*
D03*
Y28193D02*
D03*
X230776Y23075D02*
D03*
Y28193D02*
D03*
X124872Y28981D02*
D03*
Y23863D02*
D03*
X120146Y28980D02*
D03*
Y23862D02*
D03*
X60697Y10870D02*
D03*
Y5752D02*
D03*
X212925Y179749D02*
D03*
Y174631D02*
D03*
X260760Y179749D02*
D03*
Y174631D02*
D03*
X224418Y197878D02*
D03*
Y192760D02*
D03*
X248827Y197878D02*
D03*
Y192760D02*
D03*
X76189Y46511D02*
D03*
Y41393D02*
D03*
Y51630D02*
D03*
Y56748D02*
D03*
X81701Y29189D02*
D03*
Y24070D02*
D03*
X406300Y192760D02*
D03*
Y197878D02*
D03*
X418232Y174631D02*
D03*
Y179749D02*
D03*
X370398Y174631D02*
D03*
Y179749D02*
D03*
X381890Y192760D02*
D03*
Y197878D02*
D03*
X76189Y71315D02*
D03*
Y76433D02*
D03*
X102945Y174631D02*
D03*
Y179749D02*
D03*
X91012Y192760D02*
D03*
Y197878D02*
D03*
X55110Y174631D02*
D03*
Y179749D02*
D03*
X575727Y174631D02*
D03*
Y179749D02*
D03*
X539385Y192760D02*
D03*
Y197878D02*
D03*
X563795Y192760D02*
D03*
Y197878D02*
D03*
X66603Y197878D02*
D03*
Y192760D02*
D03*
D30*
X145677Y43952D02*
D03*
Y36078D02*
D03*
X153697Y43952D02*
D03*
Y36078D02*
D03*
X117331Y194387D02*
D03*
Y202261D02*
D03*
X275146Y194387D02*
D03*
Y202261D02*
D03*
X432618Y194387D02*
D03*
Y202261D02*
D03*
X590113Y194386D02*
D03*
Y202260D02*
D03*
X110244Y194387D02*
D03*
Y202261D02*
D03*
X268059Y194387D02*
D03*
Y202261D02*
D03*
X425531Y194387D02*
D03*
Y202261D02*
D03*
X583027Y194386D02*
D03*
Y202260D02*
D03*
X122252Y55763D02*
D03*
Y63637D02*
D03*
X129732Y55763D02*
D03*
Y63637D02*
D03*
X114378Y55763D02*
D03*
Y63637D02*
D03*
X106898Y55763D02*
D03*
Y63637D02*
D03*
X214969Y46314D02*
D03*
Y38440D02*
D03*
X223236Y46314D02*
D03*
Y38440D02*
D03*
X198433Y46314D02*
D03*
Y38440D02*
D03*
X206701Y46314D02*
D03*
Y38440D02*
D03*
X190165Y46314D02*
D03*
Y38440D02*
D03*
D31*
X181306Y51826D02*
D03*
Y54385D02*
D03*
Y56944D02*
D03*
Y59503D02*
D03*
Y62062D02*
D03*
X162802D02*
D03*
Y59503D02*
D03*
Y56944D02*
D03*
Y54385D02*
D03*
Y51826D02*
D03*
D32*
X177172Y66196D02*
D03*
X174613D02*
D03*
X172054D02*
D03*
X169495D02*
D03*
X166936D02*
D03*
Y47692D02*
D03*
X169495D02*
D03*
X172054D02*
D03*
X174613D02*
D03*
X177172D02*
D03*
D33*
X172054Y56944D02*
D03*
D34*
X154398Y22878D02*
D03*
X166209D02*
D03*
D35*
X64339Y94236D02*
D03*
X75953D02*
D03*
X64339Y104965D02*
D03*
X75953D02*
D03*
X27725Y52406D02*
D03*
X39339D02*
D03*
X56268Y30654D02*
D03*
X44654D02*
D03*
X27725Y63036D02*
D03*
X39339D02*
D03*
X27725Y41776D02*
D03*
X39339D02*
D03*
X56268Y41776D02*
D03*
X44654D02*
D03*
X56268Y52406D02*
D03*
X44654D02*
D03*
X56268Y63036D02*
D03*
X44654D02*
D03*
X27725Y30654D02*
D03*
X39339D02*
D03*
X101287Y30124D02*
D03*
X89673D02*
D03*
X101287Y19051D02*
D03*
X89673D02*
D03*
X101287Y41196D02*
D03*
X89673D02*
D03*
D36*
X411803Y214466D02*
D03*
X393248D02*
D03*
X569298Y214465D02*
D03*
X550743D02*
D03*
X264568Y144036D02*
D03*
X210236Y144036D02*
D03*
X228118D02*
D03*
X246001D02*
D03*
X210579Y197580D02*
D03*
X235776Y214466D02*
D03*
X254331D02*
D03*
X77961D02*
D03*
X96516D02*
D03*
X106753Y144036D02*
D03*
X422040D02*
D03*
X579535Y144036D02*
D03*
X52764Y197580D02*
D03*
X368051D02*
D03*
X525546Y197579D02*
D03*
X52421Y144036D02*
D03*
X367709D02*
D03*
X524536Y144036D02*
D03*
X70303Y144036D02*
D03*
X385591D02*
D03*
X543086Y144036D02*
D03*
X88186Y144036D02*
D03*
X403473D02*
D03*
X560968Y144036D02*
D03*
D37*
X239851Y158311D02*
D03*
X233788D02*
D03*
X391260D02*
D03*
X397323D02*
D03*
X75973D02*
D03*
X82036D02*
D03*
X548755Y158311D02*
D03*
X554818D02*
D03*
D38*
X250008Y158311D02*
D03*
X244890D02*
D03*
X223630Y158311D02*
D03*
X228748D02*
D03*
X66012Y5949D02*
D03*
X71130D02*
D03*
X195874Y78598D02*
D03*
X190756D02*
D03*
X195874Y61275D02*
D03*
X190756D02*
D03*
X195874Y66787D02*
D03*
X190756D02*
D03*
X190756Y72693D02*
D03*
X195874D02*
D03*
X177173Y77811D02*
D03*
X172055D02*
D03*
X80709Y35039D02*
D03*
X75590D02*
D03*
X90166Y77811D02*
D03*
X85047D02*
D03*
X154929Y64031D02*
D03*
X149811D02*
D03*
X161425Y77811D02*
D03*
X166543D02*
D03*
X149811Y70724D02*
D03*
X154929D02*
D03*
X402363Y158311D02*
D03*
X407481D02*
D03*
X386221Y158311D02*
D03*
X381103D02*
D03*
X87075Y158311D02*
D03*
X92193D02*
D03*
X559858Y158311D02*
D03*
X564976D02*
D03*
X543716Y158311D02*
D03*
X538598D02*
D03*
X70933Y158311D02*
D03*
X65815D02*
D03*
D39*
X76189Y66905D02*
D03*
Y61157D02*
D03*
D40*
X82744Y5949D02*
D03*
X76445D02*
D03*
D41*
X51614Y79646D02*
D03*
Y89646D02*
D03*
X27126Y79646D02*
D03*
Y89646D02*
D03*
D42*
X253551Y47496D02*
D03*
Y41984D02*
D03*
X258669Y47496D02*
D03*
Y41984D02*
D03*
D43*
X257784Y60291D02*
D03*
Y56551D02*
D03*
Y52811D02*
D03*
X246957D02*
D03*
Y56551D02*
D03*
Y60291D02*
D03*
D44*
X233079Y46708D02*
D03*
X243315D02*
D03*
X124811Y46708D02*
D03*
X135047D02*
D03*
X69103Y16787D02*
D03*
X79339D02*
D03*
D45*
X250795Y78598D02*
D03*
X242921D02*
D03*
D46*
X233413Y9886D02*
D03*
Y16185D02*
D03*
X122884Y10094D02*
D03*
Y16393D02*
D03*
M02*
