G04*
G04 #@! TF.GenerationSoftware,Altium Limited,Altium Designer,25.4.2 (15)*
G04*
G04 Layer_Color=16711935*
%FSLAX25Y25*%
%MOIN*%
G70*
G04*
G04 #@! TF.SameCoordinates,336B1F89-BFE6-4481-99DC-D24D03349B4C*
G04*
G04*
G04 #@! TF.FilePolarity,Positive*
G04*
G01*
G75*
%ADD12C,0.00394*%
%ADD18C,0.01000*%
D12*
X0Y0D02*
X0Y393701D01*
X0Y0D02*
X629921D01*
X629920D02*
Y393701D01*
X0D02*
X629921D01*
D18*
X153541Y253780D02*
Y379765D01*
X161409Y253780D02*
Y379765D01*
X153541D02*
X161415D01*
X153541Y253780D02*
X161415D01*
X468508D02*
Y379765D01*
X476376Y253780D02*
Y379765D01*
X468508D02*
X476382D01*
X468508Y253780D02*
X476382D01*
X311021D02*
Y379765D01*
X318890Y253780D02*
Y379765D01*
X311021D02*
X318896D01*
X311021Y253780D02*
X318896D01*
X511811Y246457D02*
X590551D01*
Y255118D01*
X511811D02*
X590551D01*
X511811Y246457D02*
Y255118D01*
X354331Y246457D02*
X433071D01*
Y255118D01*
X354331D02*
X433071D01*
X354331Y246457D02*
Y255118D01*
X196850Y246457D02*
X275590D01*
Y255118D01*
X196850D02*
X275590D01*
X196850Y246457D02*
Y255118D01*
X39370Y246457D02*
Y255118D01*
X118110D01*
Y246457D02*
Y255118D01*
X39370Y246457D02*
X118110D01*
M02*
