G04*
G04 #@! TF.GenerationSoftware,Altium Limited,Altium Designer,25.4.2 (15)*
G04*
G04 Layer_Physical_Order=4*
G04 Layer_Color=16711680*
%FSLAX25Y25*%
%MOIN*%
G70*
G04*
G04 #@! TF.SameCoordinates,336B1F89-BFE6-4481-99DC-D24D03349B4C*
G04*
G04*
G04 #@! TF.FilePolarity,Positive*
G04*
G01*
G75*
%ADD19C,0.01575*%
%ADD82C,0.03937*%
%ADD85C,0.06299*%
%ADD86O,0.10000X0.07500*%
%ADD87O,0.05100X0.09100*%
%ADD88C,0.12205*%
%ADD89C,0.09055*%
%ADD90C,0.04193*%
%ADD91C,0.05512*%
%ADD92C,0.06000*%
%ADD93C,0.02362*%
%ADD94C,0.01772*%
G36*
X612207Y261849D02*
X553151D01*
Y371696D01*
X612207D01*
Y261849D01*
D02*
G37*
G36*
X549215D02*
X490158D01*
Y371696D01*
X549215D01*
Y261849D01*
D02*
G37*
G36*
X454725D02*
X395670D01*
Y371696D01*
X454725D01*
Y261849D01*
D02*
G37*
G36*
X391733D02*
X332679D01*
Y371696D01*
X391733D01*
Y261849D01*
D02*
G37*
G36*
X297244D02*
X238188D01*
Y371696D01*
X297244D01*
Y261849D01*
D02*
G37*
G36*
X234252D02*
X175197D01*
Y371696D01*
X234252D01*
Y261849D01*
D02*
G37*
G36*
X139762D02*
X80709D01*
Y371696D01*
X139762D01*
Y261849D01*
D02*
G37*
G36*
X76770D02*
X17716D01*
Y371696D01*
X76770D01*
Y261849D01*
D02*
G37*
G36*
X573622Y228783D02*
X628900D01*
Y1020D01*
X1020Y1020D01*
X1020Y228783D01*
X55973D01*
Y242169D01*
X63868D01*
X64115Y241669D01*
X63817Y241282D01*
X63481Y240470D01*
X63366Y239598D01*
Y235598D01*
X63481Y234727D01*
X63817Y233915D01*
X64352Y233218D01*
X65049Y232683D01*
X65861Y232347D01*
X66732Y232232D01*
X67603Y232347D01*
X68415Y232683D01*
X69112Y233218D01*
X69648Y233915D01*
X69984Y234727D01*
X70099Y235598D01*
Y239598D01*
X69984Y240470D01*
X69648Y241282D01*
X69350Y241669D01*
X69596Y242169D01*
X71742D01*
X71989Y241669D01*
X71691Y241282D01*
X71355Y240470D01*
X71240Y239598D01*
Y235598D01*
X71355Y234727D01*
X71691Y233915D01*
X72226Y233218D01*
X72923Y232683D01*
X73735Y232347D01*
X74606Y232232D01*
X75477Y232347D01*
X76289Y232683D01*
X76986Y233218D01*
X77522Y233915D01*
X77858Y234727D01*
X77973Y235598D01*
Y239598D01*
X77858Y240470D01*
X77522Y241282D01*
X77224Y241669D01*
X77470Y242169D01*
X79616D01*
X79863Y241669D01*
X79565Y241282D01*
X79229Y240470D01*
X79114Y239598D01*
Y235598D01*
X79229Y234727D01*
X79565Y233915D01*
X80100Y233218D01*
X80797Y232683D01*
X81609Y232347D01*
X82480Y232232D01*
X83351Y232347D01*
X84163Y232683D01*
X84861Y233218D01*
X85395Y233915D01*
X85732Y234727D01*
X85847Y235598D01*
Y239598D01*
X85732Y240470D01*
X85395Y241282D01*
X85098Y241669D01*
X85344Y242169D01*
X87490D01*
X87737Y241669D01*
X87439Y241282D01*
X87103Y240470D01*
X86988Y239598D01*
Y235598D01*
X87103Y234727D01*
X87439Y233915D01*
X87974Y233218D01*
X88671Y232683D01*
X89483Y232347D01*
X90354Y232232D01*
X91226Y232347D01*
X92037Y232683D01*
X92735Y233218D01*
X93269Y233915D01*
X93606Y234727D01*
X93721Y235598D01*
Y239598D01*
X93606Y240470D01*
X93269Y241282D01*
X92972Y241669D01*
X93218Y242169D01*
X101181D01*
Y228783D01*
X213386D01*
Y242169D01*
X221348D01*
X221595Y241669D01*
X221297Y241282D01*
X220961Y240470D01*
X220846Y239598D01*
Y235598D01*
X220961Y234727D01*
X221297Y233915D01*
X221832Y233218D01*
X222530Y232683D01*
X223341Y232347D01*
X224213Y232232D01*
X225084Y232347D01*
X225896Y232683D01*
X226593Y233218D01*
X227128Y233915D01*
X227464Y234727D01*
X227579Y235598D01*
Y239598D01*
X227464Y240470D01*
X227128Y241282D01*
X226830Y241669D01*
X227077Y242169D01*
X229222D01*
X229469Y241669D01*
X229171Y241282D01*
X228835Y240470D01*
X228720Y239598D01*
Y235598D01*
X228835Y234727D01*
X229171Y233915D01*
X229706Y233218D01*
X230403Y232683D01*
X231215Y232347D01*
X232087Y232232D01*
X232958Y232347D01*
X233770Y232683D01*
X234467Y233218D01*
X235002Y233915D01*
X235338Y234727D01*
X235453Y235598D01*
Y239598D01*
X235338Y240470D01*
X235002Y241282D01*
X234704Y241669D01*
X234951Y242169D01*
X237096D01*
X237343Y241669D01*
X237045Y241282D01*
X236709Y240470D01*
X236594Y239598D01*
Y235598D01*
X236709Y234727D01*
X237045Y233915D01*
X237580Y233218D01*
X238278Y232683D01*
X239089Y232347D01*
X239961Y232232D01*
X240832Y232347D01*
X241644Y232683D01*
X242341Y233218D01*
X242876Y233915D01*
X243212Y234727D01*
X243327Y235598D01*
Y239598D01*
X243212Y240470D01*
X242876Y241282D01*
X242578Y241669D01*
X242825Y242169D01*
X244970D01*
X245217Y241669D01*
X244919Y241282D01*
X244583Y240470D01*
X244468Y239598D01*
Y235598D01*
X244583Y234727D01*
X244919Y233915D01*
X245454Y233218D01*
X246151Y232683D01*
X246963Y232347D01*
X247835Y232232D01*
X248706Y232347D01*
X249518Y232683D01*
X250215Y233218D01*
X250750Y233915D01*
X251086Y234727D01*
X251201Y235598D01*
Y239598D01*
X251086Y240470D01*
X250750Y241282D01*
X250452Y241669D01*
X250699Y242169D01*
X258661D01*
Y228783D01*
X370866D01*
Y242169D01*
X378829D01*
X379075Y241669D01*
X378778Y241282D01*
X378441Y240470D01*
X378327Y239598D01*
Y235598D01*
X378441Y234727D01*
X378778Y233915D01*
X379313Y233218D01*
X380010Y232683D01*
X380822Y232347D01*
X381693Y232232D01*
X382564Y232347D01*
X383376Y232683D01*
X384073Y233218D01*
X384608Y233915D01*
X384944Y234727D01*
X385059Y235598D01*
Y239598D01*
X384944Y240470D01*
X384608Y241282D01*
X384311Y241669D01*
X384557Y242169D01*
X386703D01*
X386949Y241669D01*
X386652Y241282D01*
X386315Y240470D01*
X386201Y239598D01*
Y235598D01*
X386315Y234727D01*
X386652Y233915D01*
X387187Y233218D01*
X387884Y232683D01*
X388696Y232347D01*
X389567Y232232D01*
X390438Y232347D01*
X391250Y232683D01*
X391947Y233218D01*
X392482Y233915D01*
X392818Y234727D01*
X392933Y235598D01*
Y239598D01*
X392818Y240470D01*
X392482Y241282D01*
X392184Y241669D01*
X392431Y242169D01*
X394577D01*
X394823Y241669D01*
X394526Y241282D01*
X394189Y240470D01*
X394075Y239598D01*
Y235598D01*
X394189Y234727D01*
X394526Y233915D01*
X395061Y233218D01*
X395758Y232683D01*
X396570Y232347D01*
X397441Y232232D01*
X398312Y232347D01*
X399124Y232683D01*
X399821Y233218D01*
X400356Y233915D01*
X400692Y234727D01*
X400807Y235598D01*
Y239598D01*
X400692Y240470D01*
X400356Y241282D01*
X400059Y241669D01*
X400305Y242169D01*
X402451D01*
X402697Y241669D01*
X402400Y241282D01*
X402063Y240470D01*
X401949Y239598D01*
Y235598D01*
X402063Y234727D01*
X402400Y233915D01*
X402935Y233218D01*
X403632Y232683D01*
X404444Y232347D01*
X405315Y232232D01*
X406186Y232347D01*
X406998Y232683D01*
X407695Y233218D01*
X408230Y233915D01*
X408566Y234727D01*
X408681Y235598D01*
Y239598D01*
X408566Y240470D01*
X408230Y241282D01*
X407933Y241669D01*
X408179Y242169D01*
X416142D01*
Y228783D01*
X528346D01*
Y242169D01*
X536309D01*
X536556Y241669D01*
X536258Y241282D01*
X535922Y240470D01*
X535807Y239598D01*
Y235598D01*
X535922Y234727D01*
X536258Y233915D01*
X536793Y233218D01*
X537490Y232683D01*
X538302Y232347D01*
X539173Y232232D01*
X540044Y232347D01*
X540856Y232683D01*
X541553Y233218D01*
X542088Y233915D01*
X542425Y234727D01*
X542539Y235598D01*
Y239598D01*
X542425Y240470D01*
X542088Y241282D01*
X541791Y241669D01*
X542037Y242169D01*
X544183D01*
X544430Y241669D01*
X544132Y241282D01*
X543796Y240470D01*
X543681Y239598D01*
Y235598D01*
X543796Y234727D01*
X544132Y233915D01*
X544667Y233218D01*
X545364Y232683D01*
X546176Y232347D01*
X547047Y232232D01*
X547919Y232347D01*
X548730Y232683D01*
X549428Y233218D01*
X549962Y233915D01*
X550299Y234727D01*
X550413Y235598D01*
Y239598D01*
X550299Y240470D01*
X549962Y241282D01*
X549665Y241669D01*
X549911Y242169D01*
X552057D01*
X552304Y241669D01*
X552006Y241282D01*
X551670Y240470D01*
X551555Y239598D01*
Y235598D01*
X551670Y234727D01*
X552006Y233915D01*
X552541Y233218D01*
X553238Y232683D01*
X554050Y232347D01*
X554921Y232232D01*
X555793Y232347D01*
X556604Y232683D01*
X557302Y233218D01*
X557836Y233915D01*
X558173Y234727D01*
X558287Y235598D01*
Y239598D01*
X558173Y240470D01*
X557836Y241282D01*
X557539Y241669D01*
X557785Y242169D01*
X559931D01*
X560178Y241669D01*
X559880Y241282D01*
X559544Y240470D01*
X559429Y239598D01*
Y235598D01*
X559544Y234727D01*
X559880Y233915D01*
X560415Y233218D01*
X561112Y232683D01*
X561924Y232347D01*
X562795Y232232D01*
X563666Y232347D01*
X564478Y232683D01*
X565175Y233218D01*
X565710Y233915D01*
X566047Y234727D01*
X566161Y235598D01*
Y239598D01*
X566047Y240470D01*
X565710Y241282D01*
X565413Y241669D01*
X565660Y242169D01*
X573622D01*
Y228783D01*
D02*
G37*
%LPC*%
G36*
X390490Y231395D02*
X389707D01*
X388983Y231095D01*
X388430Y230541D01*
X388130Y229818D01*
Y229035D01*
X388430Y228311D01*
X388983Y227757D01*
X389707Y227458D01*
X390490D01*
X391213Y227757D01*
X391767Y228311D01*
X392067Y229035D01*
Y229818D01*
X391767Y230541D01*
X391213Y231095D01*
X390490Y231395D01*
D02*
G37*
G36*
X233017D02*
X232234D01*
X231511Y231095D01*
X230957Y230541D01*
X230658Y229818D01*
Y229035D01*
X230957Y228311D01*
X231511Y227757D01*
X232234Y227458D01*
X233017D01*
X233741Y227757D01*
X234295Y228311D01*
X234594Y229035D01*
Y229818D01*
X234295Y230541D01*
X233741Y231095D01*
X233017Y231395D01*
D02*
G37*
G36*
X75203D02*
X74419D01*
X73696Y231095D01*
X73142Y230541D01*
X72843Y229818D01*
Y229035D01*
X73142Y228311D01*
X73696Y227757D01*
X74419Y227458D01*
X75203D01*
X75926Y227757D01*
X76480Y228311D01*
X76780Y229035D01*
Y229818D01*
X76480Y230541D01*
X75926Y231095D01*
X75203Y231395D01*
D02*
G37*
G36*
X547985Y231394D02*
X547202D01*
X546478Y231095D01*
X545925Y230541D01*
X545625Y229817D01*
Y229034D01*
X545925Y228311D01*
X546478Y227757D01*
X547202Y227457D01*
X547985D01*
X548708Y227757D01*
X549262Y228311D01*
X549562Y229034D01*
Y229817D01*
X549262Y230541D01*
X548708Y231095D01*
X547985Y231394D01*
D02*
G37*
G36*
X371652Y224847D02*
X370869D01*
X370145Y224547D01*
X369591Y223993D01*
X369292Y223270D01*
Y222486D01*
X369591Y221763D01*
X370145Y221209D01*
X370869Y220910D01*
X371652D01*
X372375Y221209D01*
X372929Y221763D01*
X373229Y222486D01*
Y223270D01*
X372929Y223993D01*
X372375Y224547D01*
X371652Y224847D01*
D02*
G37*
G36*
X214179D02*
X213396D01*
X212673Y224547D01*
X212119Y223993D01*
X211819Y223270D01*
Y222486D01*
X212119Y221763D01*
X212673Y221209D01*
X213396Y220910D01*
X214179D01*
X214903Y221209D01*
X215457Y221763D01*
X215756Y222486D01*
Y223270D01*
X215457Y223993D01*
X214903Y224547D01*
X214179Y224847D01*
D02*
G37*
G36*
X56364D02*
X55581D01*
X54858Y224547D01*
X54304Y223993D01*
X54004Y223270D01*
Y222486D01*
X54304Y221763D01*
X54858Y221209D01*
X55581Y220910D01*
X56364D01*
X57088Y221209D01*
X57642Y221763D01*
X57941Y222486D01*
Y223270D01*
X57642Y223993D01*
X57088Y224547D01*
X56364Y224847D01*
D02*
G37*
G36*
X529147Y224846D02*
X528364D01*
X527640Y224546D01*
X527086Y223993D01*
X526787Y223269D01*
Y222486D01*
X527086Y221763D01*
X527640Y221209D01*
X528364Y220909D01*
X529147D01*
X529870Y221209D01*
X530424Y221763D01*
X530724Y222486D01*
Y223269D01*
X530424Y223993D01*
X529870Y224546D01*
X529147Y224846D01*
D02*
G37*
G36*
X414558Y224841D02*
X413775D01*
X413051Y224541D01*
X412498Y223988D01*
X412198Y223264D01*
Y222481D01*
X412498Y221758D01*
X413051Y221204D01*
X413775Y220904D01*
X414558D01*
X415281Y221204D01*
X415835Y221758D01*
X416135Y222481D01*
Y223264D01*
X415835Y223988D01*
X415281Y224541D01*
X414558Y224841D01*
D02*
G37*
G36*
X257085D02*
X256302D01*
X255579Y224541D01*
X255025Y223988D01*
X254725Y223264D01*
Y222481D01*
X255025Y221758D01*
X255579Y221204D01*
X256302Y220904D01*
X257085D01*
X257809Y221204D01*
X258363Y221758D01*
X258662Y222481D01*
Y223264D01*
X258363Y223988D01*
X257809Y224541D01*
X257085Y224841D01*
D02*
G37*
G36*
X99270D02*
X98487D01*
X97764Y224541D01*
X97210Y223988D01*
X96910Y223264D01*
Y222481D01*
X97210Y221758D01*
X97764Y221204D01*
X98487Y220904D01*
X99270D01*
X99994Y221204D01*
X100548Y221758D01*
X100847Y222481D01*
Y223264D01*
X100548Y223988D01*
X99994Y224541D01*
X99270Y224841D01*
D02*
G37*
G36*
X572053Y224841D02*
X571270D01*
X570546Y224541D01*
X569993Y223987D01*
X569693Y223264D01*
Y222481D01*
X569993Y221757D01*
X570546Y221203D01*
X571270Y220904D01*
X572053D01*
X572777Y221203D01*
X573330Y221757D01*
X573630Y222481D01*
Y223264D01*
X573330Y223987D01*
X572777Y224541D01*
X572053Y224841D01*
D02*
G37*
G36*
X371652Y219138D02*
X370869D01*
X370145Y218838D01*
X369591Y218284D01*
X369292Y217561D01*
Y216778D01*
X369591Y216054D01*
X370145Y215500D01*
X370869Y215201D01*
X371652D01*
X372375Y215500D01*
X372929Y216054D01*
X373229Y216778D01*
Y217561D01*
X372929Y218284D01*
X372375Y218838D01*
X371652Y219138D01*
D02*
G37*
G36*
X214179D02*
X213396D01*
X212673Y218838D01*
X212119Y218284D01*
X211819Y217561D01*
Y216778D01*
X212119Y216054D01*
X212673Y215500D01*
X213396Y215201D01*
X214179D01*
X214903Y215500D01*
X215457Y216054D01*
X215756Y216778D01*
Y217561D01*
X215457Y218284D01*
X214903Y218838D01*
X214179Y219138D01*
D02*
G37*
G36*
X56364D02*
X55581D01*
X54858Y218838D01*
X54304Y218284D01*
X54004Y217561D01*
Y216778D01*
X54304Y216054D01*
X54858Y215500D01*
X55581Y215201D01*
X56364D01*
X57088Y215500D01*
X57642Y216054D01*
X57941Y216778D01*
Y217561D01*
X57642Y218284D01*
X57088Y218838D01*
X56364Y219138D01*
D02*
G37*
G36*
X529147Y219138D02*
X528364D01*
X527640Y218838D01*
X527086Y218284D01*
X526787Y217561D01*
Y216777D01*
X527086Y216054D01*
X527640Y215500D01*
X528364Y215200D01*
X529147D01*
X529870Y215500D01*
X530424Y216054D01*
X530724Y216777D01*
Y217561D01*
X530424Y218284D01*
X529870Y218838D01*
X529147Y219138D01*
D02*
G37*
G36*
X616879Y225984D02*
X615405D01*
X613960Y225697D01*
X612599Y225133D01*
X611373Y224314D01*
X610331Y223272D01*
X609513Y222047D01*
X608949Y220686D01*
X608661Y219241D01*
Y217767D01*
X608949Y216322D01*
X609513Y214961D01*
X610331Y213736D01*
X611373Y212694D01*
X612599Y211875D01*
X613960Y211311D01*
X615405Y211024D01*
X616879D01*
X618324Y211311D01*
X619685Y211875D01*
X620910Y212694D01*
X621952Y213736D01*
X622771Y214961D01*
X623335Y216322D01*
X623622Y217767D01*
Y219241D01*
X623335Y220686D01*
X622771Y222047D01*
X621952Y223272D01*
X620910Y224314D01*
X619685Y225133D01*
X618324Y225697D01*
X616879Y225984D01*
D02*
G37*
G36*
X14516Y225984D02*
X13043D01*
X11598Y225697D01*
X10236Y225133D01*
X9011Y224314D01*
X7969Y223272D01*
X7151Y222047D01*
X6587Y220686D01*
X6299Y219241D01*
Y217767D01*
X6587Y216322D01*
X7151Y214961D01*
X7969Y213736D01*
X9011Y212694D01*
X10236Y211875D01*
X11598Y211311D01*
X13043Y211024D01*
X14516D01*
X15961Y211311D01*
X17323Y211875D01*
X18548Y212694D01*
X19590Y213736D01*
X20409Y214961D01*
X20972Y216322D01*
X21260Y217767D01*
Y219241D01*
X20972Y220686D01*
X20409Y222047D01*
X19590Y223272D01*
X18548Y224314D01*
X17323Y225133D01*
X15961Y225697D01*
X14516Y225984D01*
D02*
G37*
G36*
X371652Y213429D02*
X370869D01*
X370145Y213129D01*
X369591Y212576D01*
X369292Y211852D01*
Y211069D01*
X369591Y210346D01*
X370145Y209792D01*
X370869Y209492D01*
X371652D01*
X372375Y209792D01*
X372929Y210346D01*
X373229Y211069D01*
Y211852D01*
X372929Y212576D01*
X372375Y213129D01*
X371652Y213429D01*
D02*
G37*
G36*
X214179D02*
X213396D01*
X212673Y213129D01*
X212119Y212576D01*
X211819Y211852D01*
Y211069D01*
X212119Y210346D01*
X212673Y209792D01*
X213396Y209492D01*
X214179D01*
X214903Y209792D01*
X215457Y210346D01*
X215756Y211069D01*
Y211852D01*
X215457Y212576D01*
X214903Y213129D01*
X214179Y213429D01*
D02*
G37*
G36*
X56364D02*
X55581D01*
X54858Y213129D01*
X54304Y212576D01*
X54004Y211852D01*
Y211069D01*
X54304Y210346D01*
X54858Y209792D01*
X55581Y209492D01*
X56364D01*
X57088Y209792D01*
X57642Y210346D01*
X57941Y211069D01*
Y211852D01*
X57642Y212576D01*
X57088Y213129D01*
X56364Y213429D01*
D02*
G37*
G36*
X529147Y213429D02*
X528364D01*
X527640Y213129D01*
X527086Y212575D01*
X526787Y211852D01*
Y211069D01*
X527086Y210345D01*
X527640Y209791D01*
X528364Y209492D01*
X529147D01*
X529870Y209791D01*
X530424Y210345D01*
X530724Y211069D01*
Y211852D01*
X530424Y212575D01*
X529870Y213129D01*
X529147Y213429D01*
D02*
G37*
G36*
X381699Y209194D02*
X380916D01*
X380193Y208894D01*
X379639Y208341D01*
X379339Y207617D01*
Y206834D01*
X379639Y206110D01*
X380193Y205557D01*
X380916Y205257D01*
X381699D01*
X382423Y205557D01*
X382977Y206110D01*
X383276Y206834D01*
Y207617D01*
X382977Y208341D01*
X382423Y208894D01*
X381699Y209194D01*
D02*
G37*
G36*
X224227D02*
X223444D01*
X222720Y208894D01*
X222167Y208341D01*
X221867Y207617D01*
Y206834D01*
X222167Y206110D01*
X222720Y205557D01*
X223444Y205257D01*
X224227D01*
X224951Y205557D01*
X225504Y206110D01*
X225804Y206834D01*
Y207617D01*
X225504Y208341D01*
X224951Y208894D01*
X224227Y209194D01*
D02*
G37*
G36*
X66412D02*
X65629D01*
X64905Y208894D01*
X64352Y208341D01*
X64052Y207617D01*
Y206834D01*
X64352Y206110D01*
X64905Y205557D01*
X65629Y205257D01*
X66412D01*
X67136Y205557D01*
X67689Y206110D01*
X67989Y206834D01*
Y207617D01*
X67689Y208341D01*
X67136Y208894D01*
X66412Y209194D01*
D02*
G37*
G36*
X539194Y209193D02*
X538411D01*
X537688Y208894D01*
X537134Y208340D01*
X536834Y207617D01*
Y206833D01*
X537134Y206110D01*
X537688Y205556D01*
X538411Y205257D01*
X539194D01*
X539918Y205556D01*
X540472Y206110D01*
X540771Y206833D01*
Y207617D01*
X540472Y208340D01*
X539918Y208894D01*
X539194Y209193D01*
D02*
G37*
G36*
X368109Y206343D02*
X367325D01*
X366602Y206043D01*
X366048Y205489D01*
X365748Y204766D01*
Y203982D01*
X366048Y203259D01*
X366602Y202705D01*
X367325Y202406D01*
X368109D01*
X368832Y202705D01*
X369386Y203259D01*
X369685Y203982D01*
Y204766D01*
X369386Y205489D01*
X368832Y206043D01*
X368109Y206343D01*
D02*
G37*
G36*
X210636D02*
X209853D01*
X209129Y206043D01*
X208576Y205489D01*
X208276Y204766D01*
Y203982D01*
X208576Y203259D01*
X209129Y202705D01*
X209853Y202406D01*
X210636D01*
X211360Y202705D01*
X211913Y203259D01*
X212213Y203982D01*
Y204766D01*
X211913Y205489D01*
X211360Y206043D01*
X210636Y206343D01*
D02*
G37*
G36*
X52821D02*
X52038D01*
X51314Y206043D01*
X50761Y205489D01*
X50461Y204766D01*
Y203982D01*
X50761Y203259D01*
X51314Y202705D01*
X52038Y202406D01*
X52821D01*
X53545Y202705D01*
X54098Y203259D01*
X54398Y203982D01*
Y204766D01*
X54098Y205489D01*
X53545Y206043D01*
X52821Y206343D01*
D02*
G37*
G36*
X525603Y206342D02*
X524820D01*
X524097Y206043D01*
X523543Y205489D01*
X523244Y204765D01*
Y203982D01*
X523543Y203259D01*
X524097Y202705D01*
X524820Y202405D01*
X525603D01*
X526327Y202705D01*
X526881Y203259D01*
X527180Y203982D01*
Y204765D01*
X526881Y205489D01*
X526327Y206043D01*
X525603Y206342D01*
D02*
G37*
G36*
X397703Y227209D02*
X396920D01*
X396196Y226909D01*
X395643Y226355D01*
X395343Y225632D01*
Y224849D01*
X395643Y224125D01*
X396196Y223571D01*
X396920Y223272D01*
X397475D01*
X404950Y215797D01*
Y203475D01*
X404686Y203211D01*
X404387Y202488D01*
Y201705D01*
X404686Y200981D01*
X405240Y200428D01*
X405964Y200128D01*
X406747D01*
X407470Y200428D01*
X408024Y200981D01*
X408324Y201705D01*
Y202488D01*
X408024Y203211D01*
X407760Y203475D01*
Y216379D01*
X407653Y216916D01*
X407349Y217372D01*
X399280Y225441D01*
Y225632D01*
X398980Y226355D01*
X398427Y226909D01*
X397703Y227209D01*
D02*
G37*
G36*
X240223Y226028D02*
X239440D01*
X238716Y225728D01*
X238162Y225174D01*
X237863Y224451D01*
Y223668D01*
X238162Y222944D01*
X238716Y222390D01*
X239440Y222091D01*
X239885D01*
X247481Y214494D01*
Y203391D01*
X247217Y203127D01*
X246918Y202403D01*
Y201620D01*
X247217Y200897D01*
X247771Y200343D01*
X248495Y200043D01*
X249278D01*
X250001Y200343D01*
X250555Y200897D01*
X250855Y201620D01*
Y202403D01*
X250555Y203127D01*
X250291Y203391D01*
Y215076D01*
X250184Y215614D01*
X249880Y216070D01*
X241800Y224150D01*
Y224451D01*
X241500Y225174D01*
X240946Y225728D01*
X240223Y226028D01*
D02*
G37*
G36*
X82465Y226043D02*
X81682D01*
X80958Y225743D01*
X80405Y225189D01*
X80105Y224465D01*
Y223682D01*
X80405Y222959D01*
X80958Y222405D01*
X81682Y222106D01*
X82055D01*
X89607Y214553D01*
Y203391D01*
X89343Y203127D01*
X89044Y202403D01*
Y201620D01*
X89343Y200897D01*
X89897Y200343D01*
X90621Y200043D01*
X91404D01*
X92127Y200343D01*
X92681Y200897D01*
X92981Y201620D01*
Y202403D01*
X92681Y203127D01*
X92417Y203391D01*
Y215135D01*
X92310Y215673D01*
X92006Y216129D01*
X84042Y224092D01*
Y224465D01*
X83742Y225189D01*
X83188Y225743D01*
X82465Y226043D01*
D02*
G37*
G36*
X437786Y203975D02*
X437003D01*
X436280Y203675D01*
X435726Y203121D01*
X435426Y202398D01*
Y201615D01*
X435726Y200891D01*
X436280Y200338D01*
X437003Y200038D01*
X437786D01*
X438510Y200338D01*
X439064Y200891D01*
X439363Y201615D01*
Y202398D01*
X439064Y203121D01*
X438510Y203675D01*
X437786Y203975D01*
D02*
G37*
G36*
X420805D02*
X420022D01*
X419298Y203675D01*
X418745Y203121D01*
X418445Y202398D01*
Y201615D01*
X418745Y200891D01*
X419298Y200338D01*
X420022Y200038D01*
X420805D01*
X421528Y200338D01*
X422082Y200891D01*
X422382Y201615D01*
Y202398D01*
X422082Y203121D01*
X421528Y203675D01*
X420805Y203975D01*
D02*
G37*
G36*
X280314D02*
X279531D01*
X278807Y203675D01*
X278253Y203121D01*
X277954Y202398D01*
Y201615D01*
X278253Y200891D01*
X278807Y200338D01*
X279531Y200038D01*
X280314D01*
X281037Y200338D01*
X281591Y200891D01*
X281891Y201615D01*
Y202398D01*
X281591Y203121D01*
X281037Y203675D01*
X280314Y203975D01*
D02*
G37*
G36*
X263333D02*
X262549D01*
X261826Y203675D01*
X261272Y203121D01*
X260972Y202398D01*
Y201615D01*
X261272Y200891D01*
X261826Y200338D01*
X262549Y200038D01*
X263333D01*
X264056Y200338D01*
X264610Y200891D01*
X264909Y201615D01*
Y202398D01*
X264610Y203121D01*
X264056Y203675D01*
X263333Y203975D01*
D02*
G37*
G36*
X122499D02*
X121716D01*
X120992Y203675D01*
X120439Y203121D01*
X120139Y202398D01*
Y201615D01*
X120439Y200891D01*
X120992Y200338D01*
X121716Y200038D01*
X122499D01*
X123222Y200338D01*
X123776Y200891D01*
X124076Y201615D01*
Y202398D01*
X123776Y203121D01*
X123222Y203675D01*
X122499Y203975D01*
D02*
G37*
G36*
X105517D02*
X104734D01*
X104011Y203675D01*
X103457Y203121D01*
X103157Y202398D01*
Y201615D01*
X103457Y200891D01*
X104011Y200338D01*
X104734Y200038D01*
X105517D01*
X106241Y200338D01*
X106795Y200891D01*
X107095Y201615D01*
Y202398D01*
X106795Y203121D01*
X106241Y203675D01*
X105517Y203975D01*
D02*
G37*
G36*
X595281Y203975D02*
X594498D01*
X593775Y203675D01*
X593221Y203121D01*
X592921Y202398D01*
Y201614D01*
X593221Y200891D01*
X593775Y200337D01*
X594498Y200038D01*
X595281D01*
X596005Y200337D01*
X596559Y200891D01*
X596858Y201614D01*
Y202398D01*
X596559Y203121D01*
X596005Y203675D01*
X595281Y203975D01*
D02*
G37*
G36*
X578300D02*
X577517D01*
X576793Y203675D01*
X576240Y203121D01*
X575940Y202398D01*
Y201614D01*
X576240Y200891D01*
X576793Y200337D01*
X577517Y200038D01*
X578300D01*
X579024Y200337D01*
X579577Y200891D01*
X579877Y201614D01*
Y202398D01*
X579577Y203121D01*
X579024Y203675D01*
X578300Y203975D01*
D02*
G37*
G36*
X555183Y226028D02*
X554400D01*
X553677Y225728D01*
X553123Y225174D01*
X552823Y224451D01*
Y223668D01*
X553123Y222944D01*
X553677Y222390D01*
X554400Y222091D01*
X554852D01*
X562429Y214514D01*
Y203378D01*
X562165Y203114D01*
X561865Y202390D01*
Y201607D01*
X562165Y200884D01*
X562719Y200330D01*
X563442Y200030D01*
X564225D01*
X564949Y200330D01*
X565503Y200884D01*
X565802Y201607D01*
Y202390D01*
X565503Y203114D01*
X565239Y203378D01*
Y215096D01*
X565132Y215633D01*
X564827Y216089D01*
X556760Y224156D01*
Y224451D01*
X556461Y225174D01*
X555907Y225728D01*
X555183Y226028D01*
D02*
G37*
G36*
X437786Y196495D02*
X437003D01*
X436280Y196195D01*
X435726Y195641D01*
X435426Y194918D01*
Y194135D01*
X435726Y193411D01*
X436280Y192857D01*
X437003Y192558D01*
X437786D01*
X438510Y192857D01*
X439064Y193411D01*
X439363Y194135D01*
Y194918D01*
X439064Y195641D01*
X438510Y196195D01*
X437786Y196495D01*
D02*
G37*
G36*
X280314D02*
X279531D01*
X278807Y196195D01*
X278253Y195641D01*
X277954Y194918D01*
Y194135D01*
X278253Y193411D01*
X278807Y192857D01*
X279531Y192558D01*
X280314D01*
X281037Y192857D01*
X281591Y193411D01*
X281891Y194135D01*
Y194918D01*
X281591Y195641D01*
X281037Y196195D01*
X280314Y196495D01*
D02*
G37*
G36*
X122499D02*
X121716D01*
X120992Y196195D01*
X120439Y195641D01*
X120139Y194918D01*
Y194135D01*
X120439Y193411D01*
X120992Y192857D01*
X121716Y192558D01*
X122499D01*
X123222Y192857D01*
X123776Y193411D01*
X124076Y194135D01*
Y194918D01*
X123776Y195641D01*
X123222Y196195D01*
X122499Y196495D01*
D02*
G37*
G36*
X595281Y196494D02*
X594498D01*
X593775Y196195D01*
X593221Y195641D01*
X592921Y194917D01*
Y194134D01*
X593221Y193411D01*
X593775Y192857D01*
X594498Y192557D01*
X595281D01*
X596005Y192857D01*
X596559Y193411D01*
X596858Y194134D01*
Y194917D01*
X596559Y195641D01*
X596005Y196195D01*
X595281Y196494D01*
D02*
G37*
G36*
X420805Y196355D02*
X420022D01*
X419298Y196056D01*
X418745Y195502D01*
X418445Y194778D01*
Y193995D01*
X418745Y193272D01*
X419298Y192718D01*
X420022Y192418D01*
X420805D01*
X421528Y192718D01*
X422082Y193272D01*
X422382Y193995D01*
Y194778D01*
X422082Y195502D01*
X421528Y196056D01*
X420805Y196355D01*
D02*
G37*
G36*
X263333D02*
X262549D01*
X261826Y196056D01*
X261272Y195502D01*
X260972Y194778D01*
Y193995D01*
X261272Y193272D01*
X261826Y192718D01*
X262549Y192418D01*
X263333D01*
X264056Y192718D01*
X264610Y193272D01*
X264909Y193995D01*
Y194778D01*
X264610Y195502D01*
X264056Y196056D01*
X263333Y196355D01*
D02*
G37*
G36*
X105517D02*
X104734D01*
X104011Y196056D01*
X103457Y195502D01*
X103157Y194778D01*
Y193995D01*
X103457Y193272D01*
X104011Y192718D01*
X104734Y192418D01*
X105517D01*
X106241Y192718D01*
X106795Y193272D01*
X107095Y193995D01*
Y194778D01*
X106795Y195502D01*
X106241Y196056D01*
X105517Y196355D01*
D02*
G37*
G36*
X578300Y196355D02*
X577517D01*
X576793Y196055D01*
X576240Y195501D01*
X575940Y194778D01*
Y193995D01*
X576240Y193271D01*
X576793Y192718D01*
X577517Y192418D01*
X578300D01*
X579024Y192718D01*
X579577Y193271D01*
X579877Y193995D01*
Y194778D01*
X579577Y195501D01*
X579024Y196055D01*
X578300Y196355D01*
D02*
G37*
G36*
X552360Y194882D02*
X551577D01*
X550853Y194582D01*
X550300Y194028D01*
X550000Y193305D01*
Y192522D01*
X550300Y191798D01*
X550853Y191245D01*
X551577Y190945D01*
X552360D01*
X553084Y191245D01*
X553637Y191798D01*
X553937Y192522D01*
Y193305D01*
X553637Y194028D01*
X553084Y194582D01*
X552360Y194882D01*
D02*
G37*
G36*
X394880D02*
X394097D01*
X393373Y194582D01*
X392819Y194028D01*
X392520Y193305D01*
Y192522D01*
X392819Y191798D01*
X393373Y191245D01*
X394097Y190945D01*
X394880D01*
X395603Y191245D01*
X396157Y191798D01*
X396457Y192522D01*
Y193305D01*
X396157Y194028D01*
X395603Y194582D01*
X394880Y194882D01*
D02*
G37*
G36*
X237399D02*
X236616D01*
X235893Y194582D01*
X235339Y194028D01*
X235039Y193305D01*
Y192522D01*
X235339Y191798D01*
X235893Y191245D01*
X236616Y190945D01*
X237399D01*
X238123Y191245D01*
X238677Y191798D01*
X238976Y192522D01*
Y193305D01*
X238677Y194028D01*
X238123Y194582D01*
X237399Y194882D01*
D02*
G37*
G36*
X79525D02*
X78742D01*
X78019Y194582D01*
X77465Y194028D01*
X77165Y193305D01*
Y192522D01*
X77465Y191798D01*
X78019Y191245D01*
X78742Y190945D01*
X79525D01*
X80249Y191245D01*
X80803Y191798D01*
X81102Y192522D01*
Y193305D01*
X80803Y194028D01*
X80249Y194582D01*
X79525Y194882D01*
D02*
G37*
G36*
X368554Y192170D02*
X367771D01*
X367048Y191870D01*
X366494Y191316D01*
X366194Y190593D01*
Y189810D01*
X366494Y189086D01*
X367048Y188532D01*
X367771Y188233D01*
X368554D01*
X369278Y188532D01*
X369832Y189086D01*
X370131Y189810D01*
Y190593D01*
X369832Y191316D01*
X369278Y191870D01*
X368554Y192170D01*
D02*
G37*
G36*
X211082D02*
X210299D01*
X209575Y191870D01*
X209021Y191316D01*
X208722Y190593D01*
Y189810D01*
X209021Y189086D01*
X209575Y188532D01*
X210299Y188233D01*
X211082D01*
X211805Y188532D01*
X212359Y189086D01*
X212659Y189810D01*
Y190593D01*
X212359Y191316D01*
X211805Y191870D01*
X211082Y192170D01*
D02*
G37*
G36*
X53267D02*
X52484D01*
X51760Y191870D01*
X51207Y191316D01*
X50907Y190593D01*
Y189810D01*
X51207Y189086D01*
X51760Y188532D01*
X52484Y188233D01*
X53267D01*
X53991Y188532D01*
X54544Y189086D01*
X54844Y189810D01*
Y190593D01*
X54544Y191316D01*
X53991Y191870D01*
X53267Y192170D01*
D02*
G37*
G36*
X526049Y192169D02*
X525266D01*
X524543Y191870D01*
X523989Y191316D01*
X523689Y190592D01*
Y189809D01*
X523989Y189086D01*
X524543Y188532D01*
X525266Y188232D01*
X526049D01*
X526773Y188532D01*
X527327Y189086D01*
X527626Y189809D01*
Y190592D01*
X527327Y191316D01*
X526773Y191870D01*
X526049Y192169D01*
D02*
G37*
G36*
X394093Y176815D02*
X393310D01*
X392586Y176515D01*
X392032Y175962D01*
X391733Y175238D01*
Y174455D01*
X392032Y173731D01*
X392586Y173178D01*
X393310Y172878D01*
X394093D01*
X394816Y173178D01*
X395370Y173731D01*
X395670Y174455D01*
Y175238D01*
X395370Y175962D01*
X394816Y176515D01*
X394093Y176815D01*
D02*
G37*
G36*
X236620D02*
X235837D01*
X235114Y176515D01*
X234560Y175962D01*
X234260Y175238D01*
Y174455D01*
X234560Y173731D01*
X235114Y173178D01*
X235837Y172878D01*
X236620D01*
X237344Y173178D01*
X237898Y173731D01*
X238197Y174455D01*
Y175238D01*
X237898Y175962D01*
X237344Y176515D01*
X236620Y176815D01*
D02*
G37*
G36*
X78805D02*
X78022D01*
X77299Y176515D01*
X76745Y175962D01*
X76445Y175238D01*
Y174455D01*
X76745Y173731D01*
X77299Y173178D01*
X78022Y172878D01*
X78805D01*
X79529Y173178D01*
X80083Y173731D01*
X80382Y174455D01*
Y175238D01*
X80083Y175962D01*
X79529Y176515D01*
X78805Y176815D01*
D02*
G37*
G36*
X551588Y176815D02*
X550805D01*
X550081Y176515D01*
X549527Y175961D01*
X549228Y175238D01*
Y174455D01*
X549527Y173731D01*
X550081Y173177D01*
X550805Y172878D01*
X551588D01*
X552311Y173177D01*
X552865Y173731D01*
X553165Y174455D01*
Y175238D01*
X552865Y175961D01*
X552311Y176515D01*
X551588Y176815D01*
D02*
G37*
G36*
X401958Y176344D02*
X401175D01*
X400451Y176044D01*
X399897Y175490D01*
X399598Y174767D01*
Y173984D01*
X399897Y173260D01*
X400451Y172706D01*
X401175Y172406D01*
X401958D01*
X402681Y172706D01*
X403235Y173260D01*
X403535Y173984D01*
Y174767D01*
X403235Y175490D01*
X402681Y176044D01*
X401958Y176344D01*
D02*
G37*
G36*
X244485D02*
X243702D01*
X242979Y176044D01*
X242425Y175490D01*
X242125Y174767D01*
Y173984D01*
X242425Y173260D01*
X242979Y172706D01*
X243702Y172406D01*
X244485D01*
X245209Y172706D01*
X245762Y173260D01*
X246062Y173984D01*
Y174767D01*
X245762Y175490D01*
X245209Y176044D01*
X244485Y176344D01*
D02*
G37*
G36*
X86670D02*
X85887D01*
X85164Y176044D01*
X84610Y175490D01*
X84310Y174767D01*
Y173984D01*
X84610Y173260D01*
X85164Y172706D01*
X85887Y172406D01*
X86670D01*
X87394Y172706D01*
X87947Y173260D01*
X88247Y173984D01*
Y174767D01*
X87947Y175490D01*
X87394Y176044D01*
X86670Y176344D01*
D02*
G37*
G36*
X559453Y176343D02*
X558670D01*
X557946Y176043D01*
X557392Y175490D01*
X557093Y174766D01*
Y173983D01*
X557392Y173260D01*
X557946Y172706D01*
X558670Y172406D01*
X559453D01*
X560176Y172706D01*
X560730Y173260D01*
X561030Y173983D01*
Y174766D01*
X560730Y175490D01*
X560176Y176043D01*
X559453Y176343D01*
D02*
G37*
G36*
X550065Y171697D02*
X549282D01*
X548559Y171397D01*
X548005Y170844D01*
X547705Y170120D01*
Y169337D01*
X548005Y168613D01*
X548559Y168060D01*
X549282Y167760D01*
X550065D01*
X550789Y168060D01*
X551342Y168613D01*
X551642Y169337D01*
Y170120D01*
X551342Y170844D01*
X550789Y171397D01*
X550065Y171697D01*
D02*
G37*
G36*
X77231Y171303D02*
X76447D01*
X75724Y171003D01*
X75170Y170450D01*
X74871Y169726D01*
Y168943D01*
X75170Y168220D01*
X75724Y167666D01*
X76447Y167366D01*
X77231D01*
X77954Y167666D01*
X78508Y168220D01*
X78807Y168943D01*
Y169726D01*
X78508Y170450D01*
X77954Y171003D01*
X77231Y171303D01*
D02*
G37*
G36*
X392585Y170910D02*
X391802D01*
X391078Y170610D01*
X390525Y170056D01*
X390225Y169333D01*
Y168550D01*
X390525Y167826D01*
X391078Y167272D01*
X391802Y166972D01*
X392585D01*
X393308Y167272D01*
X393862Y167826D01*
X394162Y168550D01*
Y169333D01*
X393862Y170056D01*
X393308Y170610D01*
X392585Y170910D01*
D02*
G37*
G36*
X235439Y170122D02*
X234656D01*
X233933Y169822D01*
X233379Y169269D01*
X233079Y168545D01*
Y167762D01*
X233379Y167039D01*
X233933Y166485D01*
X234656Y166185D01*
X235439D01*
X236163Y166485D01*
X236717Y167039D01*
X237016Y167762D01*
Y168545D01*
X236717Y169269D01*
X236163Y169822D01*
X235439Y170122D01*
D02*
G37*
G36*
X404988Y165791D02*
X404205D01*
X403481Y165492D01*
X402928Y164938D01*
X402628Y164215D01*
Y163431D01*
X402928Y162708D01*
X403481Y162154D01*
X404205Y161854D01*
X404988D01*
X405712Y162154D01*
X406265Y162708D01*
X406565Y163431D01*
Y164215D01*
X406265Y164938D01*
X405712Y165492D01*
X404988Y165791D01*
D02*
G37*
G36*
X384250D02*
X383467D01*
X382744Y165492D01*
X382190Y164938D01*
X381890Y164215D01*
Y163431D01*
X382190Y162708D01*
X382744Y162154D01*
X383467Y161854D01*
X384250D01*
X384974Y162154D01*
X385527Y162708D01*
X385827Y163431D01*
Y164215D01*
X385527Y164938D01*
X384974Y165492D01*
X384250Y165791D01*
D02*
G37*
G36*
X247516D02*
X246733D01*
X246009Y165492D01*
X245455Y164938D01*
X245156Y164215D01*
Y163431D01*
X245455Y162708D01*
X246009Y162154D01*
X246733Y161854D01*
X247516D01*
X248239Y162154D01*
X248793Y162708D01*
X249093Y163431D01*
Y164215D01*
X248793Y164938D01*
X248239Y165492D01*
X247516Y165791D01*
D02*
G37*
G36*
X226778D02*
X225995D01*
X225271Y165492D01*
X224717Y164938D01*
X224418Y164215D01*
Y163431D01*
X224717Y162708D01*
X225271Y162154D01*
X225995Y161854D01*
X226778D01*
X227501Y162154D01*
X228055Y162708D01*
X228355Y163431D01*
Y164215D01*
X228055Y164938D01*
X227501Y165492D01*
X226778Y165791D01*
D02*
G37*
G36*
X89701D02*
X88918D01*
X88194Y165492D01*
X87640Y164938D01*
X87341Y164215D01*
Y163431D01*
X87640Y162708D01*
X88194Y162154D01*
X88918Y161854D01*
X89701D01*
X90424Y162154D01*
X90978Y162708D01*
X91278Y163431D01*
Y164215D01*
X90978Y164938D01*
X90424Y165492D01*
X89701Y165791D01*
D02*
G37*
G36*
X68963D02*
X68180D01*
X67456Y165492D01*
X66902Y164938D01*
X66603Y164215D01*
Y163431D01*
X66902Y162708D01*
X67456Y162154D01*
X68180Y161854D01*
X68963D01*
X69686Y162154D01*
X70240Y162708D01*
X70540Y163431D01*
Y164215D01*
X70240Y164938D01*
X69686Y165492D01*
X68963Y165791D01*
D02*
G37*
G36*
X562483Y165791D02*
X561700D01*
X560977Y165491D01*
X560423Y164938D01*
X560123Y164214D01*
Y163431D01*
X560423Y162707D01*
X560977Y162154D01*
X561700Y161854D01*
X562483D01*
X563207Y162154D01*
X563760Y162707D01*
X564060Y163431D01*
Y164214D01*
X563760Y164938D01*
X563207Y165491D01*
X562483Y165791D01*
D02*
G37*
G36*
X541745D02*
X540962D01*
X540239Y165491D01*
X539685Y164938D01*
X539385Y164214D01*
Y163431D01*
X539685Y162707D01*
X540239Y162154D01*
X540962Y161854D01*
X541745D01*
X542469Y162154D01*
X543022Y162707D01*
X543322Y163431D01*
Y164214D01*
X543022Y164938D01*
X542469Y165491D01*
X541745Y165791D01*
D02*
G37*
G36*
X407002Y153953D02*
X406219D01*
X405496Y153653D01*
X404942Y153099D01*
X404642Y152376D01*
Y151593D01*
X404942Y150869D01*
X405496Y150315D01*
X406219Y150016D01*
X407002D01*
X407726Y150315D01*
X408279Y150869D01*
X408579Y151593D01*
Y152376D01*
X408279Y153099D01*
X407726Y153653D01*
X407002Y153953D01*
D02*
G37*
G36*
X382593D02*
X381810D01*
X381086Y153653D01*
X380532Y153099D01*
X380233Y152376D01*
Y151593D01*
X380532Y150869D01*
X381086Y150315D01*
X381810Y150016D01*
X382593D01*
X383316Y150315D01*
X383870Y150869D01*
X384170Y151593D01*
Y152376D01*
X383870Y153099D01*
X383316Y153653D01*
X382593Y153953D01*
D02*
G37*
G36*
X249530D02*
X248747D01*
X248023Y153653D01*
X247469Y153099D01*
X247170Y152376D01*
Y151593D01*
X247469Y150869D01*
X248023Y150315D01*
X248747Y150016D01*
X249530D01*
X250253Y150315D01*
X250807Y150869D01*
X251107Y151593D01*
Y152376D01*
X250807Y153099D01*
X250253Y153653D01*
X249530Y153953D01*
D02*
G37*
G36*
X225120D02*
X224337D01*
X223614Y153653D01*
X223060Y153099D01*
X222760Y152376D01*
Y151593D01*
X223060Y150869D01*
X223614Y150315D01*
X224337Y150016D01*
X225120D01*
X225844Y150315D01*
X226397Y150869D01*
X226697Y151593D01*
Y152376D01*
X226397Y153099D01*
X225844Y153653D01*
X225120Y153953D01*
D02*
G37*
G36*
X91715D02*
X90932D01*
X90208Y153653D01*
X89654Y153099D01*
X89355Y152376D01*
Y151593D01*
X89654Y150869D01*
X90208Y150315D01*
X90932Y150016D01*
X91715D01*
X92438Y150315D01*
X92992Y150869D01*
X93292Y151593D01*
Y152376D01*
X92992Y153099D01*
X92438Y153653D01*
X91715Y153953D01*
D02*
G37*
G36*
X67305D02*
X66522D01*
X65799Y153653D01*
X65245Y153099D01*
X64945Y152376D01*
Y151593D01*
X65245Y150869D01*
X65799Y150315D01*
X66522Y150016D01*
X67305D01*
X68029Y150315D01*
X68583Y150869D01*
X68882Y151593D01*
Y152376D01*
X68583Y153099D01*
X68029Y153653D01*
X67305Y153953D01*
D02*
G37*
G36*
X564497Y153952D02*
X563714D01*
X562991Y153653D01*
X562437Y153099D01*
X562137Y152375D01*
Y151592D01*
X562437Y150869D01*
X562991Y150315D01*
X563714Y150015D01*
X564497D01*
X565221Y150315D01*
X565774Y150869D01*
X566074Y151592D01*
Y152375D01*
X565774Y153099D01*
X565221Y153653D01*
X564497Y153952D01*
D02*
G37*
G36*
X540088D02*
X539305D01*
X538581Y153653D01*
X538027Y153099D01*
X537728Y152375D01*
Y151592D01*
X538027Y150869D01*
X538581Y150315D01*
X539305Y150015D01*
X540088D01*
X540811Y150315D01*
X541365Y150869D01*
X541665Y151592D01*
Y152375D01*
X541365Y153099D01*
X540811Y153653D01*
X540088Y153952D01*
D02*
G37*
G36*
X432865Y146300D02*
X432082D01*
X431358Y146000D01*
X430805Y145447D01*
X430505Y144723D01*
Y143940D01*
X430805Y143217D01*
X431358Y142663D01*
X432082Y142363D01*
X432865D01*
X433589Y142663D01*
X434142Y143217D01*
X434442Y143940D01*
Y144723D01*
X434142Y145447D01*
X433589Y146000D01*
X432865Y146300D01*
D02*
G37*
G36*
X275393D02*
X274609D01*
X273886Y146000D01*
X273332Y145447D01*
X273032Y144723D01*
Y143940D01*
X273332Y143217D01*
X273886Y142663D01*
X274609Y142363D01*
X275393D01*
X276116Y142663D01*
X276670Y143217D01*
X276970Y143940D01*
Y144723D01*
X276670Y145447D01*
X276116Y146000D01*
X275393Y146300D01*
D02*
G37*
G36*
X117578D02*
X116794D01*
X116071Y146000D01*
X115517Y145447D01*
X115217Y144723D01*
Y143940D01*
X115517Y143217D01*
X116071Y142663D01*
X116794Y142363D01*
X117578D01*
X118301Y142663D01*
X118855Y143217D01*
X119155Y143940D01*
Y144723D01*
X118855Y145447D01*
X118301Y146000D01*
X117578Y146300D01*
D02*
G37*
G36*
X590360Y146300D02*
X589577D01*
X588853Y146000D01*
X588300Y145446D01*
X588000Y144723D01*
Y143940D01*
X588300Y143216D01*
X588853Y142662D01*
X589577Y142363D01*
X590360D01*
X591083Y142662D01*
X591637Y143216D01*
X591937Y143940D01*
Y144723D01*
X591637Y145446D01*
X591083Y146000D01*
X590360Y146300D01*
D02*
G37*
G36*
X358266Y145713D02*
X357483D01*
X356759Y145413D01*
X356206Y144859D01*
X355906Y144136D01*
Y143353D01*
X356206Y142629D01*
X356759Y142075D01*
X357483Y141776D01*
X358266D01*
X358990Y142075D01*
X359543Y142629D01*
X359843Y143353D01*
Y144136D01*
X359543Y144859D01*
X358990Y145413D01*
X358266Y145713D01*
D02*
G37*
G36*
X200794D02*
X200010D01*
X199287Y145413D01*
X198733Y144859D01*
X198433Y144136D01*
Y143353D01*
X198733Y142629D01*
X199287Y142075D01*
X200010Y141776D01*
X200794D01*
X201517Y142075D01*
X202071Y142629D01*
X202371Y143353D01*
Y144136D01*
X202071Y144859D01*
X201517Y145413D01*
X200794Y145713D01*
D02*
G37*
G36*
X42979D02*
X42195D01*
X41472Y145413D01*
X40918Y144859D01*
X40619Y144136D01*
Y143353D01*
X40918Y142629D01*
X41472Y142075D01*
X42195Y141776D01*
X42979D01*
X43702Y142075D01*
X44256Y142629D01*
X44556Y143353D01*
Y144136D01*
X44256Y144859D01*
X43702Y145413D01*
X42979Y145713D01*
D02*
G37*
G36*
X515761Y145712D02*
X514978D01*
X514254Y145413D01*
X513701Y144859D01*
X513401Y144135D01*
Y143352D01*
X513701Y142629D01*
X514254Y142075D01*
X514978Y141775D01*
X515761D01*
X516484Y142075D01*
X517038Y142629D01*
X517338Y143352D01*
Y144135D01*
X517038Y144859D01*
X516484Y145413D01*
X515761Y145712D01*
D02*
G37*
G36*
X80714Y109061D02*
X79931D01*
X79208Y108761D01*
X78654Y108207D01*
X78355Y107484D01*
Y106701D01*
X78654Y105977D01*
X79208Y105423D01*
X79767Y105192D01*
Y104662D01*
X79208Y104430D01*
X78654Y103876D01*
X78355Y103153D01*
Y102370D01*
X78654Y101646D01*
X79208Y101093D01*
X79931Y100793D01*
X80714D01*
X81438Y101093D01*
X81992Y101646D01*
X82292Y102370D01*
Y103153D01*
X81992Y103876D01*
X81438Y104430D01*
X80879Y104662D01*
Y105192D01*
X81438Y105423D01*
X81992Y105977D01*
X82292Y106701D01*
Y107484D01*
X81992Y108207D01*
X81438Y108761D01*
X80714Y109061D01*
D02*
G37*
G36*
X31509Y95614D02*
X30726D01*
X30002Y95315D01*
X29449Y94761D01*
X29149Y94037D01*
Y93254D01*
X29449Y92531D01*
X30002Y91977D01*
X30726Y91677D01*
X31509D01*
X32233Y91977D01*
X32786Y92531D01*
X33086Y93254D01*
Y94037D01*
X32786Y94761D01*
X32233Y95315D01*
X31509Y95614D01*
D02*
G37*
G36*
X25997D02*
X25214D01*
X24491Y95315D01*
X23937Y94761D01*
X23637Y94037D01*
Y93254D01*
X23937Y92531D01*
X24491Y91977D01*
X25214Y91677D01*
X25997D01*
X26721Y91977D01*
X27275Y92531D01*
X27574Y93254D01*
Y94037D01*
X27275Y94761D01*
X26721Y95315D01*
X25997Y95614D01*
D02*
G37*
G36*
X80714Y97988D02*
X79931D01*
X79208Y97688D01*
X78654Y97134D01*
X78355Y96411D01*
Y95628D01*
X78654Y94904D01*
X79208Y94350D01*
X79767Y94119D01*
Y93589D01*
X79208Y93357D01*
X78654Y92804D01*
X78355Y92080D01*
Y91297D01*
X78654Y90574D01*
X79208Y90020D01*
X79931Y89720D01*
X80714D01*
X81438Y90020D01*
X81992Y90574D01*
X82292Y91297D01*
Y92080D01*
X81992Y92804D01*
X81438Y93357D01*
X80879Y93589D01*
Y94119D01*
X81438Y94350D01*
X81992Y94904D01*
X82292Y95628D01*
Y96411D01*
X81992Y97134D01*
X81438Y97688D01*
X80714Y97988D01*
D02*
G37*
G36*
X17388Y90595D02*
X16605D01*
X15881Y90295D01*
X15328Y89741D01*
X15028Y89018D01*
Y88235D01*
X15328Y87511D01*
X15881Y86957D01*
X16605Y86658D01*
X17388D01*
X18112Y86957D01*
X18665Y87511D01*
X18965Y88235D01*
Y89018D01*
X18665Y89741D01*
X18112Y90295D01*
X17388Y90595D01*
D02*
G37*
G36*
X177588Y84920D02*
X176805D01*
X176081Y84621D01*
X175527Y84067D01*
X175228Y83343D01*
Y82560D01*
X175527Y81837D01*
X176081Y81283D01*
X176805Y80983D01*
X177588D01*
X178311Y81283D01*
X178865Y81837D01*
X179165Y82560D01*
Y83343D01*
X178865Y84067D01*
X178311Y84621D01*
X177588Y84920D01*
D02*
G37*
G36*
X76443Y82721D02*
X75660D01*
X74936Y82421D01*
X74383Y81867D01*
X74083Y81144D01*
Y80361D01*
X74383Y79637D01*
X74936Y79083D01*
X75660Y78784D01*
X76443D01*
X77167Y79083D01*
X77720Y79637D01*
X78020Y80361D01*
Y81144D01*
X77720Y81867D01*
X77167Y82421D01*
X76443Y82721D01*
D02*
G37*
G36*
X187012Y81081D02*
X186229D01*
X185505Y80781D01*
X184951Y80228D01*
X184652Y79504D01*
Y78721D01*
X184951Y77997D01*
X185505Y77444D01*
X186229Y77144D01*
X187012D01*
X187735Y77444D01*
X188289Y77997D01*
X188589Y78721D01*
Y79504D01*
X188289Y80228D01*
X187735Y80781D01*
X187012Y81081D01*
D02*
G37*
G36*
X17782Y80752D02*
X16999D01*
X16275Y80452D01*
X15721Y79899D01*
X15422Y79175D01*
Y78392D01*
X15721Y77668D01*
X16275Y77115D01*
X16999Y76815D01*
X17782D01*
X18505Y77115D01*
X19059Y77668D01*
X19359Y78392D01*
Y79175D01*
X19059Y79899D01*
X18505Y80452D01*
X17782Y80752D01*
D02*
G37*
G36*
X238424Y80709D02*
X237641D01*
X236917Y80409D01*
X236364Y79856D01*
X236064Y79132D01*
Y78349D01*
X236364Y77625D01*
X236917Y77072D01*
X237641Y76772D01*
X238424D01*
X239147Y77072D01*
X239701Y77625D01*
X240001Y78349D01*
Y79132D01*
X239701Y79856D01*
X239147Y80409D01*
X238424Y80709D01*
D02*
G37*
G36*
X200065Y80358D02*
X199282D01*
X198558Y80059D01*
X198005Y79505D01*
X197705Y78781D01*
Y77998D01*
X198005Y77275D01*
X198558Y76721D01*
X199282Y76421D01*
X200065D01*
X200789Y76721D01*
X201342Y77275D01*
X201642Y77998D01*
Y78781D01*
X201342Y79505D01*
X200789Y80059D01*
X200065Y80358D01*
D02*
G37*
G36*
X94081Y79965D02*
X93298D01*
X92574Y79665D01*
X92020Y79111D01*
X91721Y78388D01*
Y77605D01*
X92020Y76881D01*
X92574Y76327D01*
X93298Y76028D01*
X94081D01*
X94804Y76327D01*
X95358Y76881D01*
X95658Y77605D01*
Y78388D01*
X95358Y79111D01*
X94804Y79665D01*
X94081Y79965D01*
D02*
G37*
G36*
X157939Y79571D02*
X157156D01*
X156432Y79271D01*
X155879Y78717D01*
X155579Y77994D01*
Y77211D01*
X155879Y76487D01*
X156432Y75934D01*
X157156Y75634D01*
X157939D01*
X158663Y75934D01*
X159216Y76487D01*
X159516Y77211D01*
Y77994D01*
X159216Y78717D01*
X158663Y79271D01*
X157939Y79571D01*
D02*
G37*
G36*
X150065Y77602D02*
X149282D01*
X148558Y77303D01*
X148005Y76749D01*
X147705Y76025D01*
Y75242D01*
X148005Y74519D01*
X148558Y73965D01*
X149282Y73665D01*
X150065D01*
X150789Y73965D01*
X151342Y74519D01*
X151642Y75242D01*
Y76025D01*
X151342Y76749D01*
X150789Y77303D01*
X150065Y77602D01*
D02*
G37*
G36*
X177624Y74847D02*
X176841D01*
X176118Y74547D01*
X175564Y73993D01*
X175264Y73270D01*
Y72487D01*
X175564Y71763D01*
X176118Y71209D01*
X176841Y70910D01*
X177624D01*
X178348Y71209D01*
X178902Y71763D01*
X179201Y72487D01*
Y73270D01*
X178902Y73993D01*
X178348Y74547D01*
X177624Y74847D01*
D02*
G37*
G36*
X200065Y74584D02*
X199282D01*
X198558Y74284D01*
X198005Y73731D01*
X197705Y73007D01*
Y72224D01*
X198005Y71500D01*
X198558Y70947D01*
X199282Y70647D01*
X200065D01*
X200789Y70947D01*
X201342Y71500D01*
X201642Y72224D01*
Y73007D01*
X201342Y73731D01*
X200789Y74284D01*
X200065Y74584D01*
D02*
G37*
G36*
X30380Y74059D02*
X29597D01*
X28874Y73759D01*
X28320Y73206D01*
X28020Y72482D01*
Y71699D01*
X28320Y70976D01*
X28874Y70422D01*
X29597Y70122D01*
X30380D01*
X31104Y70422D01*
X31657Y70976D01*
X31957Y71699D01*
Y72482D01*
X31657Y73206D01*
X31104Y73759D01*
X30380Y74059D01*
D02*
G37*
G36*
X24868D02*
X24085D01*
X23362Y73759D01*
X22808Y73206D01*
X22508Y72482D01*
Y71699D01*
X22808Y70976D01*
X23362Y70422D01*
X24085Y70122D01*
X24868D01*
X25592Y70422D01*
X26146Y70976D01*
X26445Y71699D01*
Y72482D01*
X26146Y73206D01*
X25592Y73759D01*
X24868Y74059D01*
D02*
G37*
G36*
X243542Y73229D02*
X242759D01*
X242036Y72929D01*
X241482Y72375D01*
X241182Y71652D01*
Y70869D01*
X241482Y70145D01*
X242036Y69591D01*
X242759Y69292D01*
X243542D01*
X244266Y69591D01*
X244819Y70145D01*
X245119Y70869D01*
Y71652D01*
X244819Y72375D01*
X244266Y72929D01*
X243542Y73229D01*
D02*
G37*
G36*
X200065Y68810D02*
X199282D01*
X198558Y68510D01*
X198005Y67956D01*
X197705Y67233D01*
Y66450D01*
X198005Y65726D01*
X198558Y65172D01*
X199282Y64873D01*
X200065D01*
X200789Y65172D01*
X201342Y65726D01*
X201642Y66450D01*
Y67233D01*
X201342Y67956D01*
X200789Y68510D01*
X200065Y68810D01*
D02*
G37*
G36*
X243542Y68111D02*
X242759D01*
X242036Y67811D01*
X241482Y67257D01*
X241182Y66534D01*
Y65750D01*
X241482Y65027D01*
X242036Y64473D01*
X242759Y64174D01*
X243542D01*
X244266Y64473D01*
X244819Y65027D01*
X245119Y65750D01*
Y66534D01*
X244819Y67257D01*
X244266Y67811D01*
X243542Y68111D01*
D02*
G37*
G36*
X146522Y65791D02*
X145739D01*
X145015Y65492D01*
X144462Y64938D01*
X144162Y64214D01*
Y63431D01*
X144462Y62708D01*
X145015Y62154D01*
X145739Y61854D01*
X146522D01*
X147245Y62154D01*
X147799Y62708D01*
X148099Y63431D01*
Y64214D01*
X147799Y64938D01*
X147245Y65492D01*
X146522Y65791D01*
D02*
G37*
G36*
X61029Y67673D02*
X60246D01*
X59523Y67373D01*
X58969Y66819D01*
X58669Y66096D01*
Y65313D01*
X58969Y64589D01*
X59523Y64035D01*
X60082Y63804D01*
Y63274D01*
X59523Y63042D01*
X58969Y62489D01*
X58669Y61765D01*
Y60982D01*
X58969Y60259D01*
X59523Y59705D01*
X60246Y59405D01*
X61029D01*
X61753Y59705D01*
X62307Y60259D01*
X62606Y60982D01*
Y61765D01*
X62307Y62489D01*
X61753Y63042D01*
X61194Y63274D01*
Y63804D01*
X61753Y64035D01*
X62307Y64589D01*
X62606Y65313D01*
Y66096D01*
X62307Y66819D01*
X61753Y67373D01*
X61029Y67673D01*
D02*
G37*
G36*
X23746Y67552D02*
X22963D01*
X22240Y67252D01*
X21686Y66698D01*
X21386Y65975D01*
Y65192D01*
X21686Y64468D01*
X22240Y63914D01*
X22799Y63683D01*
Y63153D01*
X22240Y62921D01*
X21686Y62368D01*
X21386Y61644D01*
Y60861D01*
X21686Y60137D01*
X22240Y59584D01*
X22963Y59284D01*
X23746D01*
X24470Y59584D01*
X25024Y60137D01*
X25323Y60861D01*
Y61644D01*
X25024Y62368D01*
X24470Y62921D01*
X23911Y63153D01*
Y63683D01*
X24470Y63914D01*
X25024Y64468D01*
X25323Y65192D01*
Y65975D01*
X25024Y66698D01*
X24470Y67252D01*
X23746Y67552D01*
D02*
G37*
G36*
X200065Y63036D02*
X199282D01*
X198558Y62736D01*
X198005Y62182D01*
X197705Y61459D01*
Y60675D01*
X198005Y59952D01*
X198558Y59398D01*
X199282Y59099D01*
X200065D01*
X200789Y59398D01*
X201342Y59952D01*
X201642Y60675D01*
Y61459D01*
X201342Y62182D01*
X200789Y62736D01*
X200065Y63036D01*
D02*
G37*
G36*
X133225Y74862D02*
X85587D01*
X85280Y74801D01*
X85019Y74627D01*
X84845Y74366D01*
X84784Y74059D01*
Y58705D01*
X84845Y58398D01*
X85019Y58137D01*
X85280Y57963D01*
X85587Y57902D01*
X133225D01*
X133532Y57963D01*
X133792Y58137D01*
X133967Y58398D01*
X134028Y58705D01*
Y74059D01*
X133967Y74366D01*
X133792Y74627D01*
X133532Y74801D01*
X133225Y74862D01*
D02*
G37*
G36*
X156305Y60488D02*
X155522D01*
X154798Y60188D01*
X154245Y59634D01*
X153945Y58911D01*
Y58128D01*
X154245Y57404D01*
X154798Y56850D01*
X155522Y56551D01*
X156305D01*
X157029Y56850D01*
X157582Y57404D01*
X157882Y58128D01*
Y58911D01*
X157582Y59634D01*
X157029Y60188D01*
X156305Y60488D01*
D02*
G37*
G36*
X151210Y60117D02*
X150427D01*
X149703Y59818D01*
X149149Y59264D01*
X148850Y58540D01*
Y57757D01*
X149149Y57034D01*
X149703Y56480D01*
X150427Y56180D01*
X151210D01*
X151933Y56480D01*
X152487Y57034D01*
X152787Y57757D01*
Y58540D01*
X152487Y59264D01*
X151933Y59818D01*
X151210Y60117D01*
D02*
G37*
G36*
X72112Y63036D02*
X71329D01*
X70606Y62736D01*
X70052Y62182D01*
X69752Y61459D01*
Y60675D01*
X70052Y59952D01*
X70606Y59398D01*
X71329Y59099D01*
X71367D01*
X71466Y58599D01*
X70999Y58405D01*
X70446Y57851D01*
X70146Y57128D01*
Y56345D01*
X70446Y55621D01*
X70999Y55067D01*
X71723Y54768D01*
X72506D01*
X73230Y55067D01*
X73783Y55621D01*
X74083Y56345D01*
Y57128D01*
X73783Y57851D01*
X73230Y58405D01*
X72506Y58705D01*
X72469D01*
X72369Y59205D01*
X72836Y59398D01*
X73390Y59952D01*
X73689Y60675D01*
Y61459D01*
X73390Y62182D01*
X72836Y62736D01*
X72112Y63036D01*
D02*
G37*
G36*
X274251Y58662D02*
X273468D01*
X272744Y58362D01*
X272190Y57808D01*
X271891Y57085D01*
Y56302D01*
X272190Y55578D01*
X272744Y55024D01*
X273468Y54725D01*
X274251D01*
X274974Y55024D01*
X275528Y55578D01*
X275828Y56302D01*
Y57085D01*
X275528Y57808D01*
X274974Y58362D01*
X274251Y58662D01*
D02*
G37*
G36*
X243148Y62205D02*
X242365D01*
X241642Y61905D01*
X241088Y61352D01*
X240788Y60628D01*
Y59845D01*
X241088Y59122D01*
X241418Y58792D01*
X241588Y58465D01*
X241418Y58138D01*
X241088Y57808D01*
X240788Y57085D01*
Y56302D01*
X241088Y55578D01*
X241642Y55024D01*
X242365Y54725D01*
X243148D01*
X243872Y55024D01*
X244426Y55578D01*
X244725Y56302D01*
Y57085D01*
X244426Y57808D01*
X244096Y58138D01*
X243925Y58465D01*
X244096Y58792D01*
X244426Y59122D01*
X244725Y59845D01*
Y60628D01*
X244426Y61352D01*
X243872Y61905D01*
X243148Y62205D01*
D02*
G37*
G36*
X102427Y55949D02*
X101644D01*
X100921Y55649D01*
X100367Y55095D01*
X100067Y54372D01*
Y53589D01*
X100367Y52865D01*
X100921Y52312D01*
X101644Y52012D01*
X102427D01*
X103151Y52312D01*
X103705Y52865D01*
X104004Y53589D01*
Y54372D01*
X103705Y55095D01*
X103151Y55649D01*
X102427Y55949D01*
D02*
G37*
G36*
X403872Y58396D02*
X402939D01*
X402038Y58154D01*
X401230Y57688D01*
X400570Y57028D01*
X400104Y56220D01*
X399862Y55319D01*
Y54386D01*
X400104Y53485D01*
X400570Y52677D01*
X401230Y52017D01*
X402038Y51551D01*
X402939Y51309D01*
X403872D01*
X404773Y51551D01*
X405581Y52017D01*
X406241Y52677D01*
X406707Y53485D01*
X406949Y54386D01*
Y55319D01*
X406707Y56220D01*
X406241Y57028D01*
X405581Y57688D01*
X404773Y58154D01*
X403872Y58396D01*
D02*
G37*
G36*
X393872D02*
X392939D01*
X392038Y58154D01*
X391230Y57688D01*
X390570Y57028D01*
X390104Y56220D01*
X389862Y55319D01*
Y54386D01*
X390104Y53485D01*
X390570Y52677D01*
X391230Y52017D01*
X392038Y51551D01*
X392939Y51309D01*
X393872D01*
X394773Y51551D01*
X395581Y52017D01*
X396241Y52677D01*
X396707Y53485D01*
X396949Y54386D01*
Y55319D01*
X396707Y56220D01*
X396241Y57028D01*
X395581Y57688D01*
X394773Y58154D01*
X393872Y58396D01*
D02*
G37*
G36*
X383872D02*
X382939D01*
X382038Y58154D01*
X381230Y57688D01*
X380570Y57028D01*
X380104Y56220D01*
X379862Y55319D01*
Y54386D01*
X380104Y53485D01*
X380570Y52677D01*
X381230Y52017D01*
X382038Y51551D01*
X382939Y51309D01*
X383872D01*
X384773Y51551D01*
X385581Y52017D01*
X386241Y52677D01*
X386707Y53485D01*
X386949Y54386D01*
Y55319D01*
X386707Y56220D01*
X386241Y57028D01*
X385581Y57688D01*
X384773Y58154D01*
X383872Y58396D01*
D02*
G37*
G36*
X373872D02*
X372939D01*
X372038Y58154D01*
X371230Y57688D01*
X370570Y57028D01*
X370104Y56220D01*
X369862Y55319D01*
Y54386D01*
X370104Y53485D01*
X370570Y52677D01*
X371230Y52017D01*
X372038Y51551D01*
X372939Y51309D01*
X373872D01*
X374773Y51551D01*
X375581Y52017D01*
X376241Y52677D01*
X376707Y53485D01*
X376949Y54386D01*
Y55319D01*
X376707Y56220D01*
X376241Y57028D01*
X375581Y57688D01*
X374773Y58154D01*
X373872Y58396D01*
D02*
G37*
G36*
X72506Y53587D02*
X71723D01*
X70999Y53287D01*
X70446Y52733D01*
X70146Y52010D01*
Y51227D01*
X70446Y50503D01*
X70999Y49949D01*
X71723Y49650D01*
X72506D01*
X73230Y49949D01*
X73783Y50503D01*
X74083Y51227D01*
Y52010D01*
X73783Y52733D01*
X73230Y53287D01*
X72506Y53587D01*
D02*
G37*
G36*
X233530Y52799D02*
X232747D01*
X232023Y52500D01*
X231469Y51946D01*
X231170Y51222D01*
Y50439D01*
X231469Y49716D01*
X232023Y49162D01*
X232747Y48862D01*
X233530D01*
X234253Y49162D01*
X234807Y49716D01*
X235107Y50439D01*
Y51222D01*
X234807Y51946D01*
X234253Y52500D01*
X233530Y52799D01*
D02*
G37*
G36*
X223857Y52756D02*
X223074D01*
X222350Y52457D01*
X221797Y51903D01*
X221497Y51179D01*
Y50396D01*
X221797Y49673D01*
X222350Y49119D01*
X223074Y48819D01*
X223857D01*
X224581Y49119D01*
X225134Y49673D01*
X225434Y50396D01*
Y51179D01*
X225134Y51903D01*
X224581Y52457D01*
X223857Y52756D01*
D02*
G37*
G36*
X215350D02*
X214567D01*
X213843Y52457D01*
X213290Y51903D01*
X212990Y51179D01*
Y50396D01*
X213290Y49673D01*
X213843Y49119D01*
X214567Y48819D01*
X215350D01*
X216073Y49119D01*
X216627Y49673D01*
X216927Y50396D01*
Y51179D01*
X216627Y51903D01*
X216073Y52457D01*
X215350Y52756D01*
D02*
G37*
G36*
X206843D02*
X206060D01*
X205336Y52457D01*
X204783Y51903D01*
X204483Y51179D01*
Y50396D01*
X204783Y49673D01*
X205336Y49119D01*
X206060Y48819D01*
X206843D01*
X207566Y49119D01*
X208120Y49673D01*
X208420Y50396D01*
Y51179D01*
X208120Y51903D01*
X207566Y52457D01*
X206843Y52756D01*
D02*
G37*
G36*
X199054D02*
X198271D01*
X197547Y52457D01*
X196994Y51903D01*
X196694Y51179D01*
Y50396D01*
X196994Y49673D01*
X197547Y49119D01*
X198271Y48819D01*
X199054D01*
X199777Y49119D01*
X200331Y49673D01*
X200631Y50396D01*
Y51179D01*
X200331Y51903D01*
X199777Y52457D01*
X199054Y52756D01*
D02*
G37*
G36*
X190392D02*
X189609D01*
X188886Y52457D01*
X188332Y51903D01*
X188032Y51179D01*
Y50396D01*
X188332Y49673D01*
X188886Y49119D01*
X189609Y48819D01*
X190392D01*
X191116Y49119D01*
X191670Y49673D01*
X191969Y50396D01*
Y51179D01*
X191670Y51903D01*
X191116Y52457D01*
X190392Y52756D01*
D02*
G37*
G36*
X61029Y56551D02*
X60246D01*
X59523Y56251D01*
X58969Y55697D01*
X58669Y54974D01*
Y54191D01*
X58969Y53467D01*
X59523Y52913D01*
X60082Y52682D01*
Y52152D01*
X59523Y51920D01*
X58969Y51367D01*
X58669Y50643D01*
Y49860D01*
X58969Y49136D01*
X59523Y48583D01*
X60246Y48283D01*
X61029D01*
X61753Y48583D01*
X62307Y49136D01*
X62606Y49860D01*
Y50643D01*
X62307Y51367D01*
X61753Y51920D01*
X61194Y52152D01*
Y52682D01*
X61753Y52913D01*
X62307Y53467D01*
X62606Y54191D01*
Y54974D01*
X62307Y55697D01*
X61753Y56251D01*
X61029Y56551D01*
D02*
G37*
G36*
X23746Y56479D02*
X22963D01*
X22240Y56179D01*
X21686Y55625D01*
X21386Y54902D01*
Y54119D01*
X21686Y53395D01*
X22240Y52842D01*
X22799Y52610D01*
Y52080D01*
X22240Y51849D01*
X21686Y51295D01*
X21386Y50571D01*
Y49788D01*
X21686Y49065D01*
X22240Y48511D01*
X22963Y48211D01*
X23746D01*
X24470Y48511D01*
X25024Y49065D01*
X25323Y49788D01*
Y50571D01*
X25024Y51295D01*
X24470Y51849D01*
X23911Y52080D01*
Y52610D01*
X24470Y52842D01*
X25024Y53395D01*
X25323Y54119D01*
Y54902D01*
X25024Y55625D01*
X24470Y56179D01*
X23746Y56479D01*
D02*
G37*
G36*
X100029Y51456D02*
X99246D01*
X98522Y51156D01*
X97968Y50602D01*
X97669Y49879D01*
Y49096D01*
X97968Y48372D01*
X98522Y47818D01*
X99246Y47519D01*
X100029D01*
X100752Y47818D01*
X101306Y48372D01*
X101606Y49096D01*
Y49879D01*
X101306Y50602D01*
X100752Y51156D01*
X100029Y51456D01*
D02*
G37*
G36*
X172900Y72878D02*
X172117D01*
X171393Y72578D01*
X170839Y72025D01*
X170540Y71301D01*
Y70518D01*
X170839Y69794D01*
X171393Y69241D01*
X172117Y68941D01*
X172485D01*
X172912Y68865D01*
X172973Y68479D01*
Y64232D01*
X165508D01*
X165201Y64171D01*
X164941Y63997D01*
X164767Y63736D01*
X164706Y63429D01*
X164705Y50479D01*
X164767Y50172D01*
X164941Y49912D01*
X165201Y49738D01*
X165508Y49676D01*
X167515D01*
Y44300D01*
X167015Y43966D01*
X166601Y44138D01*
X165817D01*
X165094Y43838D01*
X164540Y43284D01*
X164241Y42561D01*
Y41778D01*
X164540Y41054D01*
X165094Y40501D01*
X165817Y40201D01*
X166601D01*
X167324Y40501D01*
X167750Y40420D01*
X168011Y40246D01*
X168318Y40185D01*
X178427D01*
X178734Y40246D01*
X178994Y40420D01*
X179168Y40681D01*
X179229Y40988D01*
Y50479D01*
Y52858D01*
X183225D01*
X183532Y52919D01*
X183792Y53093D01*
X183967Y53353D01*
X184028Y53661D01*
Y55161D01*
X183967Y55469D01*
X183792Y55729D01*
X183532Y55903D01*
X183225Y55964D01*
X179303Y55964D01*
Y63429D01*
X179242Y63736D01*
X179068Y63997D01*
X178808Y64171D01*
X178500Y64232D01*
X176367D01*
Y68853D01*
X176306Y69161D01*
X176132Y69421D01*
X175872Y69595D01*
X175565Y69656D01*
X174661D01*
X174327Y70156D01*
X174477Y70518D01*
Y71301D01*
X174177Y72025D01*
X173623Y72578D01*
X172900Y72878D01*
D02*
G37*
G36*
X398872Y48396D02*
X397939D01*
X397038Y48154D01*
X396230Y47688D01*
X395570Y47028D01*
X395104Y46220D01*
X394862Y45319D01*
Y44386D01*
X395104Y43485D01*
X395570Y42677D01*
X396230Y42017D01*
X397038Y41550D01*
X397939Y41309D01*
X398872D01*
X399773Y41550D01*
X400581Y42017D01*
X401241Y42677D01*
X401707Y43485D01*
X401949Y44386D01*
Y45319D01*
X401707Y46220D01*
X401241Y47028D01*
X400581Y47688D01*
X399773Y48154D01*
X398872Y48396D01*
D02*
G37*
G36*
X388872D02*
X387939D01*
X387038Y48154D01*
X386230Y47688D01*
X385570Y47028D01*
X385104Y46220D01*
X384862Y45319D01*
Y44386D01*
X385104Y43485D01*
X385570Y42677D01*
X386230Y42017D01*
X387038Y41550D01*
X387939Y41309D01*
X388872D01*
X389773Y41550D01*
X390581Y42017D01*
X391241Y42677D01*
X391707Y43485D01*
X391949Y44386D01*
Y45319D01*
X391707Y46220D01*
X391241Y47028D01*
X390581Y47688D01*
X389773Y48154D01*
X388872Y48396D01*
D02*
G37*
G36*
X378872D02*
X377939D01*
X377038Y48154D01*
X376230Y47688D01*
X375570Y47028D01*
X375104Y46220D01*
X374862Y45319D01*
Y44386D01*
X375104Y43485D01*
X375570Y42677D01*
X376230Y42017D01*
X377038Y41550D01*
X377939Y41309D01*
X378872D01*
X379773Y41550D01*
X380581Y42017D01*
X381241Y42677D01*
X381707Y43485D01*
X381949Y44386D01*
Y45319D01*
X381707Y46220D01*
X381241Y47028D01*
X380581Y47688D01*
X379773Y48154D01*
X378872Y48396D01*
D02*
G37*
G36*
X368872D02*
X367939D01*
X367038Y48154D01*
X366230Y47688D01*
X365570Y47028D01*
X365104Y46220D01*
X364862Y45319D01*
Y44386D01*
X365104Y43485D01*
X365570Y42677D01*
X366230Y42017D01*
X367038Y41550D01*
X367939Y41309D01*
X368872D01*
X369773Y41550D01*
X370581Y42017D01*
X371241Y42677D01*
X371707Y43485D01*
X371949Y44386D01*
Y45319D01*
X371707Y46220D01*
X371241Y47028D01*
X370581Y47688D01*
X369773Y48154D01*
X368872Y48396D01*
D02*
G37*
G36*
X81561Y43350D02*
X80778D01*
X80055Y43051D01*
X79501Y42497D01*
X79201Y41774D01*
Y40990D01*
X79501Y40267D01*
X80055Y39713D01*
X80778Y39413D01*
X81561D01*
X82285Y39713D01*
X82838Y40267D01*
X83138Y40990D01*
Y41774D01*
X82838Y42497D01*
X82285Y43051D01*
X81561Y43350D01*
D02*
G37*
G36*
X97309Y45713D02*
X96526D01*
X95803Y45413D01*
X95249Y44859D01*
X94949Y44136D01*
Y43353D01*
X95249Y42629D01*
X95803Y42075D01*
X96361Y41844D01*
Y41314D01*
X95803Y41082D01*
X95249Y40529D01*
X94949Y39805D01*
Y39022D01*
X95249Y38298D01*
X95803Y37745D01*
X96526Y37445D01*
X97309D01*
X98033Y37745D01*
X98586Y38298D01*
X98886Y39022D01*
Y39805D01*
X98586Y40529D01*
X98033Y41082D01*
X97474Y41314D01*
Y41844D01*
X98033Y42075D01*
X98586Y42629D01*
X98886Y43353D01*
Y44136D01*
X98586Y44859D01*
X98033Y45413D01*
X97309Y45713D01*
D02*
G37*
G36*
X61029Y45478D02*
X60246D01*
X59523Y45178D01*
X58969Y44625D01*
X58669Y43901D01*
Y43118D01*
X58969Y42394D01*
X59523Y41841D01*
X60082Y41609D01*
Y41079D01*
X59523Y40848D01*
X58969Y40294D01*
X58669Y39570D01*
Y38787D01*
X58969Y38064D01*
X59523Y37510D01*
X60246Y37210D01*
X61029D01*
X61753Y37510D01*
X62307Y38064D01*
X62606Y38787D01*
Y39570D01*
X62307Y40294D01*
X61753Y40848D01*
X61194Y41079D01*
Y41609D01*
X61753Y41841D01*
X62307Y42394D01*
X62606Y43118D01*
Y43901D01*
X62307Y44625D01*
X61753Y45178D01*
X61029Y45478D01*
D02*
G37*
G36*
X23746Y45406D02*
X22963D01*
X22240Y45106D01*
X21686Y44553D01*
X21386Y43829D01*
Y43046D01*
X21686Y42322D01*
X22240Y41769D01*
X22799Y41537D01*
Y41007D01*
X22240Y40776D01*
X21686Y40222D01*
X21386Y39498D01*
Y38715D01*
X21686Y37992D01*
X22240Y37438D01*
X22963Y37138D01*
X23746D01*
X24470Y37438D01*
X25024Y37992D01*
X25323Y38715D01*
Y39498D01*
X25024Y40222D01*
X24470Y40776D01*
X23911Y41007D01*
Y41537D01*
X24470Y41769D01*
X25024Y42322D01*
X25323Y43046D01*
Y43829D01*
X25024Y44553D01*
X24470Y45106D01*
X23746Y45406D01*
D02*
G37*
G36*
X259290Y40551D02*
X258507D01*
X257784Y40252D01*
X257230Y39698D01*
X256930Y38975D01*
Y38192D01*
X257230Y37468D01*
X257784Y36914D01*
X258507Y36615D01*
X259290D01*
X260014Y36914D01*
X260567Y37468D01*
X260867Y38192D01*
Y38975D01*
X260567Y39698D01*
X260014Y40252D01*
X259290Y40551D01*
D02*
G37*
G36*
X254172D02*
X253389D01*
X252665Y40252D01*
X252112Y39698D01*
X251812Y38975D01*
Y38192D01*
X252112Y37468D01*
X252665Y36914D01*
X253389Y36615D01*
X254172D01*
X254895Y36914D01*
X255449Y37468D01*
X255749Y38192D01*
Y38975D01*
X255449Y39698D01*
X254895Y40252D01*
X254172Y40551D01*
D02*
G37*
G36*
X183136Y40201D02*
X182353D01*
X181629Y39901D01*
X181076Y39347D01*
X180776Y38624D01*
Y37841D01*
X181076Y37117D01*
X181629Y36564D01*
X182353Y36264D01*
X183136D01*
X183860Y36564D01*
X184413Y37117D01*
X184713Y37841D01*
Y38624D01*
X184413Y39347D01*
X183860Y39901D01*
X183136Y40201D01*
D02*
G37*
G36*
X160695Y37445D02*
X159912D01*
X159188Y37145D01*
X158635Y36592D01*
X158335Y35868D01*
Y35085D01*
X158635Y34361D01*
X159188Y33808D01*
X159912Y33508D01*
X160695D01*
X161419Y33808D01*
X161972Y34361D01*
X162272Y35085D01*
Y35868D01*
X161972Y36592D01*
X161419Y37145D01*
X160695Y37445D01*
D02*
G37*
G36*
X140223D02*
X139439D01*
X138716Y37145D01*
X138162Y36592D01*
X137863Y35868D01*
Y35085D01*
X138162Y34361D01*
X138716Y33808D01*
X139439Y33508D01*
X140223D01*
X140946Y33808D01*
X141500Y34361D01*
X141800Y35085D01*
Y35868D01*
X141500Y36592D01*
X140946Y37145D01*
X140223Y37445D01*
D02*
G37*
G36*
X72045Y37008D02*
X71262D01*
X70539Y36708D01*
X69985Y36154D01*
X69685Y35431D01*
Y34648D01*
X69985Y33924D01*
X70539Y33371D01*
X71262Y33071D01*
X72045D01*
X72769Y33371D01*
X73322Y33924D01*
X73622Y34648D01*
Y35431D01*
X73322Y36154D01*
X72769Y36708D01*
X72045Y37008D01*
D02*
G37*
G36*
X223070Y35433D02*
X222287D01*
X221563Y35134D01*
X221009Y34580D01*
X220710Y33856D01*
Y33073D01*
X221009Y32350D01*
X221563Y31796D01*
X222287Y31496D01*
X223070D01*
X223793Y31796D01*
X224347Y32350D01*
X224647Y33073D01*
Y33856D01*
X224347Y34580D01*
X223793Y35134D01*
X223070Y35433D01*
D02*
G37*
G36*
X214563D02*
X213779D01*
X213056Y35134D01*
X212502Y34580D01*
X212203Y33856D01*
Y33073D01*
X212502Y32350D01*
X213056Y31796D01*
X213779Y31496D01*
X214563D01*
X215286Y31796D01*
X215840Y32350D01*
X216140Y33073D01*
Y33856D01*
X215840Y34580D01*
X215286Y35134D01*
X214563Y35433D01*
D02*
G37*
G36*
X206056D02*
X205273D01*
X204549Y35134D01*
X203995Y34580D01*
X203696Y33856D01*
Y33073D01*
X203995Y32350D01*
X204549Y31796D01*
X205273Y31496D01*
X206056D01*
X206779Y31796D01*
X207333Y32350D01*
X207632Y33073D01*
Y33856D01*
X207333Y34580D01*
X206779Y35134D01*
X206056Y35433D01*
D02*
G37*
G36*
X198266D02*
X197483D01*
X196760Y35134D01*
X196206Y34580D01*
X195906Y33856D01*
Y33073D01*
X196206Y32350D01*
X196760Y31796D01*
X197483Y31496D01*
X198266D01*
X198990Y31796D01*
X199544Y32350D01*
X199844Y33073D01*
Y33856D01*
X199544Y34580D01*
X198990Y35134D01*
X198266Y35433D01*
D02*
G37*
G36*
X189605D02*
X188822D01*
X188099Y35134D01*
X187545Y34580D01*
X187245Y33856D01*
Y33073D01*
X187545Y32350D01*
X188099Y31796D01*
X188822Y31496D01*
X189605D01*
X190329Y31796D01*
X190882Y32350D01*
X191182Y33073D01*
Y33856D01*
X190882Y34580D01*
X190329Y35134D01*
X189605Y35433D01*
D02*
G37*
G36*
X155183Y33508D02*
X154400D01*
X153677Y33208D01*
X153123Y32655D01*
X152823Y31931D01*
Y31148D01*
X153123Y30424D01*
X153677Y29871D01*
X154400Y29571D01*
X155183D01*
X155907Y29871D01*
X156460Y30424D01*
X156760Y31148D01*
Y31931D01*
X156460Y32655D01*
X155907Y33208D01*
X155183Y33508D01*
D02*
G37*
G36*
X145734D02*
X144951D01*
X144228Y33208D01*
X143674Y32655D01*
X143374Y31931D01*
Y31148D01*
X143674Y30424D01*
X144228Y29871D01*
X144951Y29571D01*
X145734D01*
X146458Y29871D01*
X147012Y30424D01*
X147311Y31148D01*
Y31931D01*
X147012Y32655D01*
X146458Y33208D01*
X145734Y33508D01*
D02*
G37*
G36*
X97309Y34640D02*
X96526D01*
X95803Y34340D01*
X95249Y33786D01*
X94949Y33063D01*
Y32280D01*
X95249Y31556D01*
X95803Y31003D01*
X96361Y30771D01*
Y30241D01*
X95803Y30009D01*
X95249Y29456D01*
X94949Y28732D01*
Y27949D01*
X95249Y27226D01*
X95803Y26672D01*
X96526Y26372D01*
X97309D01*
X98033Y26672D01*
X98586Y27226D01*
X98886Y27949D01*
Y28732D01*
X98586Y29456D01*
X98033Y30009D01*
X97474Y30241D01*
Y30771D01*
X98033Y31003D01*
X98586Y31556D01*
X98886Y32280D01*
Y33063D01*
X98586Y33786D01*
X98033Y34340D01*
X97309Y34640D01*
D02*
G37*
G36*
X61029Y34405D02*
X60246D01*
X59523Y34105D01*
X58969Y33552D01*
X58669Y32828D01*
Y32045D01*
X58969Y31321D01*
X59523Y30768D01*
X60082Y30536D01*
Y30006D01*
X59523Y29775D01*
X58969Y29221D01*
X58669Y28497D01*
Y27714D01*
X58969Y26991D01*
X59523Y26437D01*
X60246Y26137D01*
X61029D01*
X61753Y26437D01*
X62307Y26991D01*
X62606Y27714D01*
Y28497D01*
X62307Y29221D01*
X61753Y29775D01*
X61194Y30006D01*
Y30536D01*
X61753Y30768D01*
X62307Y31321D01*
X62606Y32045D01*
Y32828D01*
X62307Y33552D01*
X61753Y34105D01*
X61029Y34405D01*
D02*
G37*
G36*
X23746Y34284D02*
X22963D01*
X22240Y33984D01*
X21686Y33431D01*
X21386Y32707D01*
Y31924D01*
X21686Y31201D01*
X22240Y30647D01*
X22799Y30415D01*
Y29885D01*
X22240Y29654D01*
X21686Y29100D01*
X21386Y28376D01*
Y27593D01*
X21686Y26870D01*
X22240Y26316D01*
X22963Y26016D01*
X23746D01*
X24470Y26316D01*
X25024Y26870D01*
X25323Y27593D01*
Y28376D01*
X25024Y29100D01*
X24470Y29654D01*
X23911Y29885D01*
Y30415D01*
X24470Y30647D01*
X25024Y31201D01*
X25323Y31924D01*
Y32707D01*
X25024Y33431D01*
X24470Y33984D01*
X23746Y34284D01*
D02*
G37*
G36*
X159908Y28390D02*
X159125D01*
X158401Y28090D01*
X157847Y27536D01*
X157548Y26813D01*
Y26030D01*
X157847Y25306D01*
X158401Y24753D01*
X159125Y24453D01*
X159908D01*
X160631Y24753D01*
X161185Y25306D01*
X161485Y26030D01*
Y26813D01*
X161185Y27536D01*
X160631Y28090D01*
X159908Y28390D01*
D02*
G37*
G36*
X150190Y25116D02*
X149407D01*
X148684Y24816D01*
X148130Y24263D01*
X147830Y23539D01*
Y22756D01*
X148130Y22032D01*
X148684Y21479D01*
X149407Y21179D01*
X150190D01*
X150914Y21479D01*
X151468Y22032D01*
X151767Y22756D01*
Y23539D01*
X151468Y24263D01*
X150914Y24816D01*
X150190Y25116D01*
D02*
G37*
G36*
X27981Y24684D02*
X27198D01*
X26475Y24385D01*
X25921Y23831D01*
X25621Y23107D01*
Y22324D01*
X25921Y21601D01*
X26475Y21047D01*
X27198Y20747D01*
X27981D01*
X28705Y21047D01*
X29259Y21601D01*
X29558Y22324D01*
Y23107D01*
X29259Y23831D01*
X28705Y24385D01*
X27981Y24684D01*
D02*
G37*
G36*
X159908Y23272D02*
X159125D01*
X158401Y22972D01*
X157847Y22418D01*
X157548Y21695D01*
Y20912D01*
X157847Y20188D01*
X158401Y19634D01*
X159125Y19335D01*
X159908D01*
X160631Y19634D01*
X161185Y20188D01*
X161485Y20912D01*
Y21695D01*
X161185Y22418D01*
X160631Y22972D01*
X159908Y23272D01*
D02*
G37*
G36*
X97309Y23567D02*
X96526D01*
X95803Y23267D01*
X95249Y22714D01*
X94949Y21990D01*
Y21207D01*
X95249Y20483D01*
X95803Y19930D01*
X96361Y19698D01*
Y19168D01*
X95803Y18937D01*
X95249Y18383D01*
X94949Y17659D01*
Y16876D01*
X95249Y16153D01*
X95803Y15599D01*
X96526Y15299D01*
X97309D01*
X98033Y15599D01*
X98586Y16153D01*
X98886Y16876D01*
Y17659D01*
X98586Y18383D01*
X98033Y18937D01*
X97474Y19168D01*
Y19698D01*
X98033Y19930D01*
X98586Y20483D01*
X98886Y21207D01*
Y21990D01*
X98586Y22714D01*
X98033Y23267D01*
X97309Y23567D01*
D02*
G37*
G36*
X409133Y27037D02*
X407718D01*
X406329Y26761D01*
X405022Y26220D01*
X403845Y25433D01*
X402844Y24433D01*
X402058Y23256D01*
X401516Y21948D01*
X401240Y20560D01*
Y19145D01*
X401516Y17757D01*
X402058Y16449D01*
X402844Y15272D01*
X403845Y14271D01*
X405022Y13485D01*
X406329Y12943D01*
X407718Y12667D01*
X409133D01*
X410521Y12943D01*
X411829Y13485D01*
X413005Y14271D01*
X414006Y15272D01*
X414792Y16449D01*
X415334Y17757D01*
X415610Y19145D01*
Y20560D01*
X415334Y21948D01*
X414792Y23256D01*
X414006Y24433D01*
X413005Y25433D01*
X411829Y26220D01*
X410521Y26761D01*
X409133Y27037D01*
D02*
G37*
G36*
X364133D02*
X362718D01*
X361329Y26761D01*
X360022Y26220D01*
X358845Y25433D01*
X357844Y24433D01*
X357058Y23256D01*
X356516Y21948D01*
X356240Y20560D01*
Y19145D01*
X356516Y17757D01*
X357058Y16449D01*
X357844Y15272D01*
X358845Y14271D01*
X360022Y13485D01*
X361329Y12943D01*
X362718Y12667D01*
X364133D01*
X365521Y12943D01*
X366829Y13485D01*
X368005Y14271D01*
X369006Y15272D01*
X369793Y16449D01*
X370334Y17757D01*
X370610Y19145D01*
Y20560D01*
X370334Y21948D01*
X369793Y23256D01*
X369006Y24433D01*
X368005Y25433D01*
X366829Y26220D01*
X365521Y26761D01*
X364133Y27037D01*
D02*
G37*
G36*
X50054Y19973D02*
X49057D01*
X48094Y19714D01*
X47230Y19216D01*
X46525Y18511D01*
X46026Y17647D01*
X45768Y16684D01*
Y15687D01*
X46026Y14723D01*
X46525Y13860D01*
X47230Y13154D01*
X48094Y12656D01*
X49057Y12398D01*
X50054D01*
X51017Y12656D01*
X51881Y13154D01*
X52586Y13860D01*
X53085Y14723D01*
X53343Y15687D01*
Y16684D01*
X53085Y17647D01*
X52586Y18511D01*
X51881Y19216D01*
X51017Y19714D01*
X50054Y19973D01*
D02*
G37*
G36*
X40054D02*
X39057D01*
X38094Y19714D01*
X37230Y19216D01*
X36525Y18511D01*
X36026Y17647D01*
X35768Y16684D01*
Y15687D01*
X36026Y14723D01*
X36525Y13860D01*
X37230Y13154D01*
X38094Y12656D01*
X39057Y12398D01*
X40054D01*
X41017Y12656D01*
X41881Y13154D01*
X42586Y13860D01*
X43085Y14723D01*
X43343Y15687D01*
Y16684D01*
X43085Y17647D01*
X42586Y18511D01*
X41881Y19216D01*
X41017Y19714D01*
X40054Y19973D01*
D02*
G37*
G36*
X102034Y13429D02*
X101251D01*
X100527Y13129D01*
X99973Y12576D01*
X99674Y11852D01*
Y11069D01*
X99973Y10346D01*
X100527Y9792D01*
X101251Y9492D01*
X102034D01*
X102757Y9792D01*
X103311Y10346D01*
X103611Y11069D01*
Y11852D01*
X103311Y12576D01*
X102757Y13129D01*
X102034Y13429D01*
D02*
G37*
G36*
X154521Y11730D02*
X153738D01*
X153014Y11431D01*
X152461Y10877D01*
X152161Y10153D01*
Y9370D01*
X152461Y8647D01*
X153014Y8093D01*
X153738Y7793D01*
X154521D01*
X155245Y8093D01*
X155798Y8647D01*
X156098Y9370D01*
Y10153D01*
X155798Y10877D01*
X155245Y11431D01*
X154521Y11730D01*
D02*
G37*
G36*
X228375Y11692D02*
X227592D01*
X226869Y11392D01*
X226315Y10839D01*
X226015Y10115D01*
Y9332D01*
X226315Y8608D01*
X226869Y8055D01*
X227592Y7755D01*
X228375D01*
X229099Y8055D01*
X229652Y8608D01*
X229952Y9332D01*
Y10115D01*
X229652Y10839D01*
X229099Y11392D01*
X228375Y11692D01*
D02*
G37*
G36*
X118533D02*
X117750D01*
X117026Y11392D01*
X116472Y10839D01*
X116173Y10115D01*
Y9332D01*
X116472Y8608D01*
X117026Y8055D01*
X117750Y7755D01*
X118533D01*
X119256Y8055D01*
X119810Y8608D01*
X120109Y9332D01*
Y10115D01*
X119810Y10839D01*
X119256Y11392D01*
X118533Y11692D01*
D02*
G37*
G36*
X616879Y21260D02*
X615405D01*
X613960Y20972D01*
X612599Y20409D01*
X611373Y19590D01*
X610331Y18548D01*
X609513Y17323D01*
X608949Y15961D01*
X608661Y14516D01*
Y13043D01*
X608949Y11598D01*
X609513Y10236D01*
X610331Y9011D01*
X611373Y7969D01*
X612599Y7151D01*
X613960Y6587D01*
X615405Y6299D01*
X616879D01*
X618324Y6587D01*
X619685Y7151D01*
X620910Y7969D01*
X621952Y9011D01*
X622771Y10236D01*
X623335Y11598D01*
X623622Y13043D01*
Y14516D01*
X623335Y15961D01*
X622771Y17323D01*
X621952Y18548D01*
X620910Y19590D01*
X619685Y20409D01*
X618324Y20972D01*
X616879Y21260D01*
D02*
G37*
G36*
X14516D02*
X13043D01*
X11598Y20972D01*
X10236Y20409D01*
X9011Y19590D01*
X7969Y18548D01*
X7151Y17323D01*
X6587Y15961D01*
X6299Y14516D01*
Y13043D01*
X6587Y11598D01*
X7151Y10236D01*
X7969Y9011D01*
X9011Y7969D01*
X10236Y7151D01*
X11598Y6587D01*
X13043Y6299D01*
X14516D01*
X15961Y6587D01*
X17323Y7151D01*
X18548Y7969D01*
X19590Y9011D01*
X20409Y10236D01*
X20972Y11598D01*
X21260Y13043D01*
Y14516D01*
X20972Y15961D01*
X20409Y17323D01*
X19590Y18548D01*
X18548Y19590D01*
X17323Y20409D01*
X15961Y20972D01*
X14516Y21260D01*
D02*
G37*
G36*
X37399Y8268D02*
X36616D01*
X35893Y7968D01*
X35339Y7414D01*
X35039Y6691D01*
Y5908D01*
X35339Y5184D01*
X35893Y4630D01*
X36616Y4331D01*
X37399D01*
X38123Y4630D01*
X38677Y5184D01*
X38976Y5908D01*
Y6691D01*
X38677Y7414D01*
X38123Y7968D01*
X37399Y8268D01*
D02*
G37*
G36*
X129950Y7755D02*
X129167D01*
X128443Y7455D01*
X127890Y6902D01*
X127590Y6178D01*
Y5395D01*
X127890Y4671D01*
X128443Y4118D01*
X129167Y3818D01*
X129950D01*
X130673Y4118D01*
X131227Y4671D01*
X131527Y5395D01*
Y6178D01*
X131227Y6902D01*
X130673Y7455D01*
X129950Y7755D01*
D02*
G37*
G36*
X87720Y7707D02*
X86937D01*
X86214Y7407D01*
X85660Y6853D01*
X85360Y6130D01*
Y5347D01*
X85660Y4623D01*
X86214Y4069D01*
X86937Y3770D01*
X87720D01*
X88444Y4069D01*
X88998Y4623D01*
X89297Y5347D01*
Y6130D01*
X88998Y6853D01*
X88444Y7407D01*
X87720Y7707D01*
D02*
G37*
G36*
X417038Y13386D02*
X415639D01*
X414287Y13024D01*
X413075Y12324D01*
X412086Y11334D01*
X411386Y10122D01*
X411024Y8771D01*
Y7371D01*
X411386Y6019D01*
X412086Y4807D01*
X413075Y3818D01*
X414287Y3118D01*
X415639Y2756D01*
X417038D01*
X418390Y3118D01*
X419602Y3818D01*
X420592Y4807D01*
X421291Y6019D01*
X421654Y7371D01*
Y8771D01*
X421291Y10122D01*
X420592Y11334D01*
X419602Y12324D01*
X418390Y13024D01*
X417038Y13386D01*
D02*
G37*
G36*
X356113D02*
X354714D01*
X353362Y13024D01*
X352150Y12324D01*
X351160Y11334D01*
X350461Y10122D01*
X350098Y8771D01*
Y7371D01*
X350461Y6019D01*
X351160Y4807D01*
X352150Y3818D01*
X353362Y3118D01*
X354714Y2756D01*
X356113D01*
X357465Y3118D01*
X358677Y3818D01*
X359666Y4807D01*
X360366Y6019D01*
X360728Y7371D01*
Y8771D01*
X360366Y10122D01*
X359666Y11334D01*
X358677Y12324D01*
X357465Y13024D01*
X356113Y13386D01*
D02*
G37*
%LPD*%
G36*
X133225Y58705D02*
X85587D01*
Y74059D01*
X133225D01*
Y58705D01*
D02*
G37*
G36*
X175565Y63429D02*
X178500D01*
Y55161D01*
X183225Y55161D01*
Y53661D01*
X178427D01*
Y51221D01*
Y50479D01*
Y40988D01*
X168318D01*
Y50479D01*
X165508D01*
X165508Y63429D01*
X173776D01*
Y68853D01*
X175565D01*
Y63429D01*
D02*
G37*
D19*
X239831Y224059D02*
X239903D01*
X248886Y215076D01*
X397494Y225240D02*
X406355Y216379D01*
X397311Y225240D02*
X397494D01*
X406355Y202142D02*
Y216379D01*
X554870Y224059D02*
X563834Y215096D01*
X554792Y224059D02*
X554870D01*
X563834Y201999D02*
Y215096D01*
X248886Y202012D02*
Y215076D01*
X82073Y224074D02*
X91012Y215135D01*
Y202012D02*
Y215135D01*
D82*
X257154Y86658D02*
D03*
X250461D02*
D03*
X257548Y80752D02*
D03*
D85*
X582441Y344331D02*
D03*
X572441D02*
D03*
X592441D02*
D03*
X572441Y354331D02*
D03*
Y364331D02*
D03*
X582441D02*
D03*
X592441D02*
D03*
Y354331D02*
D03*
X582441D02*
D03*
X267480Y344331D02*
D03*
X257480D02*
D03*
X277480D02*
D03*
X257480Y354331D02*
D03*
Y364331D02*
D03*
X267480D02*
D03*
X277480D02*
D03*
Y354331D02*
D03*
X267480D02*
D03*
X110000D02*
D03*
X120000D02*
D03*
Y364331D02*
D03*
X110000D02*
D03*
X100000D02*
D03*
Y354331D02*
D03*
X120000Y344331D02*
D03*
X100000D02*
D03*
X110000D02*
D03*
X424961D02*
D03*
X414961D02*
D03*
X434961D02*
D03*
X414961Y354331D02*
D03*
Y364331D02*
D03*
X424961D02*
D03*
X434961D02*
D03*
Y354331D02*
D03*
X424961D02*
D03*
X519921Y344331D02*
D03*
X509921D02*
D03*
X529921D02*
D03*
X509921Y354331D02*
D03*
Y364331D02*
D03*
X519921D02*
D03*
X529921D02*
D03*
Y354331D02*
D03*
X519921D02*
D03*
X204961D02*
D03*
X214961D02*
D03*
Y364331D02*
D03*
X204961D02*
D03*
X194961D02*
D03*
Y354331D02*
D03*
X214961Y344331D02*
D03*
X194961D02*
D03*
X204961D02*
D03*
X47480D02*
D03*
X37480D02*
D03*
X57480D02*
D03*
X37480Y354331D02*
D03*
Y364331D02*
D03*
X47480D02*
D03*
X57480D02*
D03*
Y354331D02*
D03*
X47480D02*
D03*
X362441Y344331D02*
D03*
X352441D02*
D03*
X372441D02*
D03*
X352441Y354331D02*
D03*
Y364331D02*
D03*
X362441D02*
D03*
X372441D02*
D03*
Y354331D02*
D03*
X362441D02*
D03*
D86*
X211024Y287598D02*
D03*
X261024Y267598D02*
D03*
Y277599D02*
D03*
X211024D02*
D03*
Y267598D02*
D03*
X261024Y287598D02*
D03*
X211024Y307598D02*
D03*
X261024Y297599D02*
D03*
X211024D02*
D03*
X261024Y307598D02*
D03*
X53543Y287598D02*
D03*
X103543Y267598D02*
D03*
Y277599D02*
D03*
X53543D02*
D03*
Y267598D02*
D03*
X103543Y287598D02*
D03*
X53543Y307598D02*
D03*
X103543Y297599D02*
D03*
X53543D02*
D03*
X103543Y307598D02*
D03*
X575984D02*
D03*
X525984Y297599D02*
D03*
X575984D02*
D03*
X525984Y307598D02*
D03*
X575984Y287598D02*
D03*
X525984Y267598D02*
D03*
Y277599D02*
D03*
X575984D02*
D03*
Y267598D02*
D03*
X525984Y287598D02*
D03*
X418504Y307598D02*
D03*
X368504Y297599D02*
D03*
X418504D02*
D03*
X368504Y307598D02*
D03*
X418504Y287598D02*
D03*
X368504Y267598D02*
D03*
Y277599D02*
D03*
X418504D02*
D03*
Y267598D02*
D03*
X368504Y287598D02*
D03*
D87*
X239961Y237598D02*
D03*
X224213D02*
D03*
X247835D02*
D03*
X232087D02*
D03*
X82480D02*
D03*
X66732D02*
D03*
X90354D02*
D03*
X74606D02*
D03*
X547047D02*
D03*
X562795D02*
D03*
X539173D02*
D03*
X554921D02*
D03*
X389567D02*
D03*
X405315D02*
D03*
X381693D02*
D03*
X397441D02*
D03*
D88*
X13780Y218504D02*
D03*
X616142Y13780D02*
D03*
Y218504D02*
D03*
X13780Y13780D02*
D03*
D89*
X416339Y8071D02*
D03*
X355413D02*
D03*
D90*
X408425Y19852D02*
D03*
X363425D02*
D03*
D91*
X403406Y54852D02*
D03*
X398406Y44852D02*
D03*
X393406Y54852D02*
D03*
X388405Y44852D02*
D03*
X383405Y54852D02*
D03*
X378405Y44852D02*
D03*
X373406Y54852D02*
D03*
X368406Y44852D02*
D03*
D92*
X49556Y16185D02*
D03*
X39555D02*
D03*
D93*
X231496Y192520D02*
D03*
X388976Y192913D02*
D03*
X546457Y192520D02*
D03*
X166209Y42169D02*
D03*
X122107Y202007D02*
D03*
X105126D02*
D03*
X172103Y56913D02*
D03*
X176516Y53279D02*
D03*
X167855D02*
D03*
Y60956D02*
D03*
X176516D02*
D03*
X174170Y42563D02*
D03*
X170626D02*
D03*
X117186Y144332D02*
D03*
X102036Y53980D02*
D03*
X190001Y50788D02*
D03*
X242757Y56693D02*
D03*
X145343Y31539D02*
D03*
X160303Y35476D02*
D03*
X154129Y9762D02*
D03*
X149799Y23148D02*
D03*
X159516Y21303D02*
D03*
Y26421D02*
D03*
X559061Y174375D02*
D03*
X401566Y174375D02*
D03*
X244094D02*
D03*
X86279D02*
D03*
X80323Y107092D02*
D03*
Y102761D02*
D03*
Y91689D02*
D03*
Y96019D02*
D03*
X16996Y88626D02*
D03*
X17390Y78784D02*
D03*
X87329Y5738D02*
D03*
X198662Y50788D02*
D03*
X233138Y50831D02*
D03*
X206451Y50788D02*
D03*
X214959D02*
D03*
X223465D02*
D03*
X128020Y68941D02*
D03*
X131170D02*
D03*
X120540D02*
D03*
X123689D02*
D03*
X112666D02*
D03*
X115815D02*
D03*
X93689Y77996D02*
D03*
X72114Y56736D02*
D03*
X71721Y61067D02*
D03*
X81170Y41382D02*
D03*
X60638Y54582D02*
D03*
Y50252D02*
D03*
Y43509D02*
D03*
Y39179D02*
D03*
Y28106D02*
D03*
Y32437D02*
D03*
X60638Y61374D02*
D03*
Y65704D02*
D03*
X23355Y27985D02*
D03*
Y32315D02*
D03*
X23355Y61252D02*
D03*
Y65583D02*
D03*
Y54510D02*
D03*
Y50180D02*
D03*
Y43438D02*
D03*
Y39107D02*
D03*
X96918Y17268D02*
D03*
Y21599D02*
D03*
Y28341D02*
D03*
Y32671D02*
D03*
X71653Y35039D02*
D03*
X72114Y51618D02*
D03*
X76051Y80752D02*
D03*
X94555Y72091D02*
D03*
X108335Y68941D02*
D03*
X105185D02*
D03*
X150818Y58149D02*
D03*
X177196Y82952D02*
D03*
X227984Y9724D02*
D03*
X129558Y5787D02*
D03*
X118141Y9724D02*
D03*
X99637Y49487D02*
D03*
X96918Y43744D02*
D03*
Y39413D02*
D03*
X101642Y11461D02*
D03*
X27590Y22716D02*
D03*
X37008Y6299D02*
D03*
X29989Y72091D02*
D03*
X24477D02*
D03*
X25606Y93646D02*
D03*
X31118D02*
D03*
X199674Y66841D02*
D03*
Y61067D02*
D03*
Y78390D02*
D03*
Y72615D02*
D03*
X157548Y77602D02*
D03*
X172508Y70910D02*
D03*
X186620Y79112D02*
D03*
X541354Y163822D02*
D03*
X549674Y169728D02*
D03*
X392193Y168941D02*
D03*
X76839Y169335D02*
D03*
X239831Y224059D02*
D03*
X397311Y225240D02*
D03*
X554792Y224059D02*
D03*
X91012Y202012D02*
D03*
X248886D02*
D03*
X563834Y201999D02*
D03*
X406355Y202096D02*
D03*
X73622Y192913D02*
D03*
X258899Y38583D02*
D03*
X253781D02*
D03*
X197875Y33465D02*
D03*
X189214D02*
D03*
X205664D02*
D03*
X52875Y190201D02*
D03*
X210690D02*
D03*
X368163D02*
D03*
X525658Y190201D02*
D03*
X515370Y143744D02*
D03*
X594890Y202006D02*
D03*
X528755Y217169D02*
D03*
Y222878D02*
D03*
X571661Y222872D02*
D03*
X547593Y229426D02*
D03*
X577908Y202006D02*
D03*
X564106Y151984D02*
D03*
X528755Y211460D02*
D03*
X539696Y151984D02*
D03*
X551968Y192913D02*
D03*
X589968Y144331D02*
D03*
X538803Y207225D02*
D03*
X562092Y163822D02*
D03*
X551196Y174846D02*
D03*
X525212Y204374D02*
D03*
X577908Y194386D02*
D03*
X594890Y194526D02*
D03*
X357874Y143744D02*
D03*
X437395Y202007D02*
D03*
X371260Y217169D02*
D03*
Y222878D02*
D03*
X414166Y222873D02*
D03*
X390098Y229426D02*
D03*
X420413Y202007D02*
D03*
X406611Y151984D02*
D03*
X371260Y211461D02*
D03*
X382201Y151984D02*
D03*
X394488Y192913D02*
D03*
X432473Y144332D02*
D03*
X381308Y207225D02*
D03*
X383859Y163823D02*
D03*
X404597D02*
D03*
X393701Y174846D02*
D03*
X367717Y204374D02*
D03*
X420413Y194387D02*
D03*
X437395Y194526D02*
D03*
X200402Y143744D02*
D03*
X279922Y202007D02*
D03*
X213788Y217169D02*
D03*
Y222878D02*
D03*
X256694Y222873D02*
D03*
X232626Y229426D02*
D03*
X262941Y202007D02*
D03*
X249138Y151984D02*
D03*
X213788Y211461D02*
D03*
X224729Y151984D02*
D03*
X237008Y192913D02*
D03*
X275001Y144332D02*
D03*
X223835Y207225D02*
D03*
X226386Y163823D02*
D03*
X247124D02*
D03*
X236229Y174846D02*
D03*
X235048Y168154D02*
D03*
X210244Y204374D02*
D03*
X262941Y194387D02*
D03*
X279922Y194526D02*
D03*
X68571Y163823D02*
D03*
X79134Y192913D02*
D03*
X78414Y174846D02*
D03*
X55973Y222878D02*
D03*
Y217169D02*
D03*
Y211461D02*
D03*
X89309Y163823D02*
D03*
X42587Y143744D02*
D03*
X66020Y207225D02*
D03*
X98879Y222873D02*
D03*
X74811Y229426D02*
D03*
X52429Y204374D02*
D03*
X105126Y194387D02*
D03*
X122107Y194526D02*
D03*
X82073Y224074D02*
D03*
X139831Y35476D02*
D03*
X182745Y38232D02*
D03*
X214171Y33465D02*
D03*
X222678D02*
D03*
X146130Y63823D02*
D03*
X149674Y75634D02*
D03*
X177233Y72878D02*
D03*
X155914Y58519D02*
D03*
X91323Y151984D02*
D03*
X66914D02*
D03*
X242757Y60237D02*
D03*
X252117Y61682D02*
D03*
X273859Y56693D02*
D03*
X238032Y78741D02*
D03*
X243150Y71260D02*
D03*
X154792Y31539D02*
D03*
X243150Y66142D02*
D03*
D94*
X89810Y60488D02*
D03*
X87555D02*
D03*
M02*
